<svg version="1.1" xmlns="http://www.w3.org/2000/svg" width="28" height="32" viewBox="0 0 28 32">
<title>bag-filled</title>
<path d="M0.788,31.994L3.158,7.11L7.089,7.11C7.079,5.866 7.411,4.642 8.049,3.574C8.669,2.496 9.557,1.596 10.625,0.959C12.833,-0.32 15.565,-0.32 17.773,0.959C18.839,1.59 19.727,2.484 20.35,3.555C20.988,4.623 21.319,5.847 21.309,7.091L25.24,7.091L27.61,31.994L0.788,31.994ZM11.528,2.52C10.76,2.989 10.116,3.634 9.647,4.401C9.175,5.205 8.928,6.121 8.933,7.053L19.579,7.053C19.583,6.121 19.336,5.205 18.864,4.401C18.4,3.63 17.754,2.984 16.983,2.52C16.139,2.029 15.175,1.781 14.199,1.806C13.261,1.798 12.338,2.045 11.528,2.52Z" style="fill-rule:nonzero;"/>
</svg>
