<svg version="1.1" xmlns="http://www.w3.org/2000/svg" width="28" height="32" viewBox="0 0 28 32">
<title>bag</title>
<path d="M0.8 32h4.928l-4.48-4.448-0.448 4.448zM1.536 24.736l7.264 7.264h3.232l-10.208-10.208-0.288 2.944zM2.080 19.008l13.056 12.992h3.2l-15.936-15.936-0.32 2.944zM25.28 7.104h-3.936c0-3.936-3.2-7.104-7.136-7.104-3.904 0-7.104 3.168-7.104 7.104h-3.936l-0.512 5.952 18.784 18.944h6.208l-2.368-24.896zM14.208 1.792c2.944 0 5.344 2.368 5.344 5.312h-10.656c0-2.944 2.368-5.312 5.312-5.312z"></path>
</svg>
