<!-- Generated by IcoMoon.io -->
<svg version="1.1" xmlns="http://www.w3.org/2000/svg" width="29" height="32" viewBox="0 0 29 32">
<title>break-in-new</title>
<path d="M28.384 10.624c-0.226-0.156-0.498-0.259-0.793-0.287l-0.007-0.001h-0.416l-4.48 0.352-1.792-3.104c-0.091-0.144-0.223-0.255-0.379-0.318l-0.005-0.002-5.088-1.984c-0.053-0.008-0.114-0.012-0.176-0.012s-0.123 0.005-0.183 0.013l0.007-0.001-7.616 0.928-2.912 6.528c-0.078 0.184-0.124 0.399-0.124 0.624s0.046 0.44 0.128 0.635l-0.004-0.011c0.159 0.432 0.479 0.773 0.885 0.956l0.011 0.004c0.209 0.097 0.454 0.153 0.712 0.153 0.659 0 1.232-0.369 1.524-0.912l0.005-0.009 2.496-4.352 2.624-0.192-2.752 6.496c-0.153 0.343-0.243 0.743-0.243 1.163 0 1.223 0.754 2.27 1.823 2.702l0.020 0.007 1.312 0.544-3.072 4.544-8.064 2.656c-0.037 0.022-0.081 0.035-0.129 0.035-0.095 0-0.179-0.052-0.223-0.129l-0.001-0.001c-0.017-0.031-0.027-0.068-0.027-0.107 0-0.074 0.036-0.139 0.091-0.18l0.001-0 6.688-3.072 1.696-4.096-1.44-0.544-1.376 3.616-6.176 2.816c-0.561 0.266-0.942 0.828-0.942 1.479 0 0.291 0.076 0.565 0.21 0.801l-0.004-0.008c0.226 0.356 0.572 0.619 0.98 0.733l0.012 0.003c0.141 0.041 0.304 0.064 0.472 0.064 0.014 0 0.028-0 0.042-0l-0.002 0c0.006 0 0.013 0 0.020 0 0.246 0 0.481-0.047 0.696-0.133l-0.013 0.004 8.256-2.688c0.159-0.010 0.302-0.068 0.417-0.161l-0.001 0.001 3.328-4.992 4.064 1.632-2.688 6.976c-0.083 0.189-0.131 0.409-0.131 0.64s0.048 0.451 0.135 0.651l-0.004-0.011c0.187 0.417 0.528 0.737 0.948 0.892l0.012 0.004c0.18 0.070 0.388 0.11 0.606 0.11 0.692 0 1.29-0.407 1.565-0.995l0.004-0.011 4.96-9.44c0.144-0.278 0.229-0.607 0.229-0.956 0-0.88-0.538-1.634-1.303-1.951l-0.014-0.005-5.312-2.24 2.88-6.912 1.472 2.624 5.536-0.416c0.010-0.002 0.021-0.003 0.032-0.003 0.106 0 0.192 0.086 0.192 0.192 0 0.001 0 0.002-0 0.003v-0c0 0.003 0 0.006 0 0.009 0 0.101-0.067 0.186-0.159 0.214l-0.002 0-6.272 1.344-0.64-0.864-1.184 0.896 1.216 1.6 7.168-1.472c0.433-0.077 0.801-0.309 1.053-0.636l0.003-0.004c0.196-0.266 0.313-0.6 0.313-0.962 0-0.101-0.009-0.2-0.027-0.296l0.002 0.010c-0.048-0.488-0.299-0.908-0.668-1.181l-0.005-0.003zM15.744 16.576c-0.022 0.077-0.035 0.165-0.035 0.256s0.013 0.179 0.036 0.263l-0.002-0.007c0.076 0.2 0.224 0.358 0.411 0.446l0.005 0.002 6.080 2.496c0.164 0.077 0.289 0.212 0.351 0.379l0.002 0.005c0.032 0.076 0.051 0.164 0.051 0.256s-0.019 0.18-0.052 0.26l0.002-0.004-4.96 9.504c-0.037 0.077-0.114 0.129-0.203 0.129-0.043 0-0.084-0.012-0.118-0.034l0.001 0.001c-0.079-0.036-0.134-0.114-0.134-0.205 0-0.018 0.002-0.036 0.006-0.052l-0 0.002 3.2-8.32-5.984-2.432-2.144-0.832c-0.573-0.21-0.974-0.751-0.974-1.385 0-0.229 0.052-0.446 0.146-0.64l-0.004 0.009 3.136-7.52c0.027-0.073 0.042-0.158 0.042-0.246 0-0.306-0.187-0.569-0.454-0.68l-0.005-0.002c-0.048-0.011-0.103-0.018-0.16-0.018s-0.112 0.006-0.165 0.019l0.005-0.001-4.512 0.16-3.008 5.024c-0.039 0.069-0.112 0.116-0.196 0.116-0.033 0-0.065-0.007-0.093-0.020l0.001 0.001c-0.109-0.016-0.192-0.109-0.192-0.222 0-0.001 0-0.002 0-0.002v0l2.624-5.824 6.528-0.8 4.224 1.632zM18.784 6.016c0.233 0.081 0.501 0.129 0.78 0.129 0.018 0 0.036-0 0.054-0.001l-0.003 0c1.43-0.13 2.607-1.082 3.064-2.375l0.008-0.025c0.113-0.285 0.178-0.616 0.178-0.962 0-0.43-0.101-0.837-0.281-1.198l0.007 0.016c-0.323-0.673-0.888-1.187-1.581-1.434l-0.019-0.006c-0.3-0.114-0.646-0.18-1.009-0.18-0.422 0-0.824 0.090-1.186 0.252l0.018-0.007c-0.668 0.316-1.18 0.869-1.434 1.549l-0.006 0.019c-0.205 0.408-0.326 0.89-0.326 1.399 0 1.226 0.697 2.29 1.716 2.816l0.018 0.008zM18.784 2.304c0.129-0.332 0.38-0.593 0.696-0.733l0.008-0.003c0.15-0.073 0.324-0.119 0.509-0.128l0.003-0c0.174 0.005 0.338 0.040 0.49 0.099l-0.010-0.003c0.325 0.125 0.584 0.363 0.733 0.664l0.003 0.008c0.068 0.151 0.107 0.327 0.107 0.512s-0.039 0.361-0.11 0.52l0.003-0.008c-0.288 0.768-1.152 1.696-1.984 1.44s-0.8-1.6-0.48-2.368z"></path>
</svg>
