<!-- Generated by IcoMoon.io -->
<svg version="1.1" xmlns="http://www.w3.org/2000/svg" width="40" height="32" viewBox="0 0 40 32">
<title>broken-image</title>
<path d="M31.744 6.56c1.024 0 1.952 0.864 1.952 1.856 0 1.024-0.864 1.952-1.856 1.952-1.024 0-1.952-0.864-1.952-1.856 0 0 0 0 0 0-0.064-1.024 0.768-1.952 1.856-1.952M31.744 5.568c-1.6 0-2.944 1.248-2.944 2.848s1.28 2.944 2.88 2.944c1.6 0 2.944-1.248 2.944-2.848 0 0 0 0 0 0 0-1.6-1.28-2.944-2.88-2.944 0 0 0 0 0 0zM15.904 29.984h-13.792l11.872-18.688 5.792 12.192 6.336-5.792 0.992 1.088 0.768-0.768-1.696-1.856-6.048 5.568-5.984-12.64-12.128 19.040v-26.112h36.384v5.312l2.016-2.016v-5.312h-40.416v32h13.888l2.016-2.016zM37.376 29.984h-9.152l-2.048 2.016h14.24v-14.304l-2.016 2.016v10.272"></path>
</svg>
