<!-- Generated by IcoMoon.io -->
<svg version="1.1" xmlns="http://www.w3.org/2000/svg" width="32" height="32" viewBox="0 0 32 32">
<title>delivery</title>
<path d="M0 11.776h7.488v1.568h-7.488zM1.504 14.304h5.984v1.472h-5.984zM7.488 18.304h-4.48v-1.504h4.48zM10.176 9.792c-0.001 0-0.002 0-0.003 0-0.325 0-0.619 0.135-0.829 0.352l-0 0c-0.213 0.201-0.348 0.485-0.352 0.799v8.705c0 0.654 0.53 1.184 1.184 1.184v0h1.056v0.192c-0 0.010-0 0.021-0 0.032 0 0.695 0.295 1.32 0.767 1.759l0.002 0.001c0.451 0.449 1.073 0.726 1.76 0.726 1.379 0 2.496-1.117 2.496-2.496 0-0.008-0-0.016-0-0.023v0.001-0.192h7.008v0.192c-0 0.018-0.001 0.040-0.001 0.062 0 0.679 0.282 1.293 0.736 1.73l0.001 0.001c0.451 0.449 1.073 0.726 1.76 0.726 1.378 0 2.496-1.117 2.496-2.496 0-0.008-0-0.016-0-0.023v0.001-0.192h2.592c0.005 0 0.011 0 0.017 0 0.321 0 0.611-0.135 0.815-0.352l0-0.001c0.198-0.207 0.321-0.488 0.321-0.797 0-0.012-0-0.024-0.001-0.036l0 0.002v-2.848l-7.008-7.008z"></path>
</svg>
