<!-- Generated by IcoMoon.io -->
<svg version="1.1" xmlns="http://www.w3.org/2000/svg" width="32" height="32" viewBox="0 0 32 32">
<title>durability</title>
<path d="M28.96 7.488c-7.52 0-9.088-4.928-12.96-7.488-3.904 2.56-5.536 7.456-12.992 7.456-0.048 0-0.104 0.001-0.16 0.001-1.004 0-1.992-0.070-2.959-0.205l0.112 0.013c1.472 11.648 7.264 24.736 16 24.736s14.464-13.088 16-24.736c-0.912 0.141-1.966 0.222-3.038 0.224h-0.002zM16 30.56c-7.168 0-12.544-10.88-14.304-21.696h1.312c5.824 0 8.544-2.752 10.944-5.152 0.642-0.67 1.31-1.298 2.010-1.888l0.038-0.032c0.733 0.636 1.402 1.284 2.032 1.967l0.015 0.017c2.304 2.432 5.024 5.184 10.912 5.184 0.416 0 0.864 0 1.312 0-1.824 10.752-7.232 21.6-14.272 21.6zM21.568 11.84c0.195 0.134 0.321 0.356 0.321 0.608 0 0.156-0.048 0.3-0.131 0.419l0.002-0.002-5.888 8.64c-0.122 0.178-0.317 0.299-0.541 0.32l-0.003 0c-0.201-0.005-0.382-0.090-0.512-0.224l-0-0-4.384-4.352c-0.135-0.135-0.219-0.322-0.219-0.528 0-0.412 0.334-0.747 0.747-0.747 0.206 0 0.393 0.084 0.528 0.219v0l3.744 3.744 5.408-7.904c0.136-0.171 0.344-0.28 0.578-0.28 0.128 0 0.249 0.033 0.354 0.090l-0.004-0.002z"></path>
</svg>
