<!-- Generated by IcoMoon.io -->
<svg version="1.1" xmlns="http://www.w3.org/2000/svg" width="32" height="32" viewBox="0 0 32 32">
<title>edit</title>
<path d="M24.16 11.84l-13.568 13.504-6.592 1.792 1.856-6.592 13.504-13.504zM20 10.24l-0.8-0.8-10.944 10.976 0.8 0.8zM16.704 21.344l-1.888 1.856h13.184v-1.856zM20.48 17.568l-1.888 1.888h9.408v-1.952zM26.272 9.568c0.041-0.109 0.065-0.234 0.065-0.365 0-0.018-0-0.036-0.001-0.053l0 0.002c0.001-0.015 0.001-0.033 0.001-0.051 0-0.131-0.024-0.257-0.068-0.373l0.002 0.007c-0.058-0.151-0.145-0.279-0.256-0.384l-0-0-3.136-3.168c-0.111-0.118-0.251-0.207-0.409-0.254l-0.007-0.002c-0.063-0.012-0.134-0.019-0.208-0.019s-0.145 0.007-0.215 0.021l0.007-0.001c-0.063-0.012-0.134-0.019-0.208-0.019s-0.145 0.007-0.215 0.020l0.007-0.001c-0.145 0.048-0.265 0.137-0.351 0.254l-0.001 0.002-1.12 1.056 4.736 4.8 1.12-1.12c0.11-0.105 0.197-0.233 0.253-0.377l0.003-0.007zM24.256 13.76l-1.92 1.888h5.664v-1.888z"></path>
</svg>
