<!-- Generated by IcoMoon.io -->
<svg version="1.1" xmlns="http://www.w3.org/2000/svg" width="32" height="32" viewBox="0 0 32 32">
<title>error-03</title>
<path d="M21.632 6.368c1.678 0.966 3.034 2.322 3.973 3.948l0.027 0.052c0.958 1.613 1.524 3.556 1.524 5.632s-0.566 4.019-1.552 5.684l0.028-0.052c-0.972 1.674-2.326 3.028-3.948 3.972l-0.052 0.028c-1.616 0.949-3.558 1.509-5.632 1.509s-4.016-0.56-5.685-1.538l0.053 0.029c-1.674-0.972-3.028-2.326-3.972-3.948l-0.028-0.052c-0.958-1.613-1.524-3.556-1.524-5.632s0.566-4.019 1.552-5.684l-0.028 0.052c0.966-1.678 2.322-3.034 3.948-3.973l0.052-0.027c1.613-0.958 3.556-1.524 5.632-1.524s4.019 0.566 5.684 1.552l-0.052-0.028zM17.44 16l3.52-3.52-1.44-1.44-3.52 3.52-3.52-3.52-1.44 1.44 3.616 3.52-3.616 3.52 1.44 1.44 3.52-3.552 3.52 3.552 1.44-1.44z"></path>
</svg>
