<!-- Generated by IcoMoon.io -->
<svg version="1.1" xmlns="http://www.w3.org/2000/svg" width="32" height="32" viewBox="0 0 32 32">
<title>forbidden</title>
<path d="M16 0.256c-8.704 0-15.744 7.040-15.744 15.744s7.040 15.744 15.744 15.744 15.744-7.040 15.744-15.744-7.040-15.744-15.744-15.744zM16 5.12c2.112 0 4.064 0.608 5.728 1.632l-14.976 14.976c-1.024-1.664-1.632-3.648-1.632-5.728 0-6.016 4.864-10.88 10.88-10.88zM16 26.88c-2.080 0-4.064-0.608-5.728-1.632l14.976-14.976c1.024 1.664 1.632 3.616 1.632 5.728 0 6.016-4.864 10.88-10.88 10.88z"></path>
</svg>
