<!-- Generated by IcoMoon.io -->
<svg version="1.1" xmlns="http://www.w3.org/2000/svg" width="32" height="32" viewBox="0 0 32 32">
<title>googleplus</title>
<path d="M22.464 9.376l-1.696 0.448 0.896-1.568c-0.608-0.672-1.376-1.184-2.112-1.664-0.32-0.224-0.736-0.448-1.152-0.608s-0.768-0.32-1.12-0.48c-1.408-0.352-2.624-0.48-3.84-0.352s-2.24 0.48-3.36 0.96c-1.984 1.024-3.744 2.688-4.704 4.736s-1.504 4.512-0.896 7.040c0.384 2.656 1.824 5.056 3.68 6.784s4.384 2.944 7.136 3.2c0.384 0.032 0.832 0.064 1.248 0.064 0.832 0 1.696-0.032 2.56-0.16 0.384-0.064 0.832-0.16 1.248-0.288 0.48-0.128 0.832-0.256 0.96-0.416s0.192-0.352 0.096-0.704l0.064-4.608-5.632 0.128 2.944-1.568h7.68l-1.184 1.44-0.064 5.248h0.064l-0.064 0.48c-2.592 1.344-6.176 2.176-9.696 2.272s-7.072-0.608-9.472-2.272c-1.664-0.992-3.104-2.464-4.256-4.32s-1.824-4.128-1.824-6.72c0.16-2.368 0.864-4.64 2.336-6.592s3.296-3.584 5.536-4.672c2.496-1.248 5.792-1.76 8.896-1.504s6.208 1.312 8.352 3.072l-2.56 2.624h-0.064zM32 6.496h-2.496v2.496h-1.504v-2.496h-2.496v-1.504h2.496v-2.496h1.504v2.496h2.496v1.504z"></path>
</svg>
