<!-- Generated by IcoMoon.io -->
<svg version="1.1" xmlns="http://www.w3.org/2000/svg" width="32" height="32" viewBox="0 0 32 32">
<title>heart-filled</title>
<path d="M16 30.496c-3.904-3.328-7.936-6.88-10.944-10.336s-5.056-6.88-5.056-9.984c0-2.336 0.96-4.512 2.56-6.112s3.776-2.56 6.176-2.56c1.504 0 2.944 0.416 4.192 1.056s2.336 1.664 3.072 2.816c0.736-1.152 1.824-2.144 3.072-2.816s2.688-1.056 4.192-1.056c2.4 0 4.576 0.96 6.176 2.56s2.56 3.776 2.56 6.112c0 3.744-2.048 7.104-5.056 10.432-1.504 1.664-3.232 3.328-5.12 4.96s-3.84 3.264-5.824 4.928z"></path>
</svg>
