<!-- Generated by IcoMoon.io -->
<svg version="1.1" xmlns="http://www.w3.org/2000/svg" width="36" height="32" viewBox="0 0 36 32">
<title>heart-empty</title>
<path d="M24.704 1.792c-2.656 0-5.152 1.056-6.912 3.008-1.792-1.952-4.288-3.008-6.944-3.008-4.992 0-9.056 4.064-9.056 9.056 0 10.304 14.56 18.496 15.104 18.848l0.896 0.512 0.864-0.512c0.544-0.352 15.136-8.544 15.136-18.848 0-4.992-4.096-9.056-9.088-9.056zM24.704 3.552c3.904 0 7.296 3.2 7.296 7.296 0 9.248-14.208 17.248-14.208 17.248s-14.24-7.84-14.24-17.248c0-4.096 3.392-7.296 7.296-7.296 3.2 0 5.856 2.144 6.944 4.992 1.056-2.848 3.712-4.992 6.912-4.992z"></path>
</svg>
