<!-- Generated by IcoMoon.io -->
<svg version="1.1" xmlns="http://www.w3.org/2000/svg" width="59" height="32" viewBox="0 0 59 32">
<title>heel-lift</title>
<path d="M58.496 24.928c-0.35-1.121-0.818-2.097-1.403-2.988l0.027 0.044c0.021-0.299 0.033-0.647 0.033-0.999 0-1.201-0.14-2.368-0.406-3.488l0.020 0.102c-0.276-1.104-0.594-2.042-0.977-2.946l0.049 0.13c-0.287-0.604-0.5-1.305-0.604-2.041l-0.004-0.039c-0.005-0.088-0.008-0.191-0.008-0.294 0-0.628 0.108-1.231 0.308-1.791l-0.012 0.037c0.158-0.468 0.271-1.011 0.318-1.574l0.002-0.026c0.014-0.108 0.022-0.233 0.022-0.36 0-1.242-0.77-2.305-1.858-2.737l-0.020-0.007c-0.243-0.065-0.523-0.102-0.811-0.102-1.165 0-2.188 0.61-2.765 1.529l-0.008 0.014c-0.854 1.013-1.822 1.89-2.895 2.624l-0.049 0.032c-0.696 0.411-1.534 0.654-2.428 0.654-0.872 0-1.69-0.231-2.396-0.635l0.024 0.012c-1.888-0.768-2.976-2.080-2.24-5.984 0.075-0.303 0.117-0.65 0.117-1.008s-0.043-0.705-0.124-1.038l0.006 0.030c-0.178-0.659-0.563-1.21-1.080-1.594l-0.008-0.006c-0.433-0.319-0.976-0.51-1.565-0.51-0.678 0-1.297 0.254-1.766 0.672l0.003-0.002-0.864 0.704c-1.728 1.504-5.76 5.024-8 6.784-2.673 2.185-5.671 4.182-8.856 5.873l-0.296 0.143c-2.065 1.018-4.464 1.751-6.992 2.069l-0.112 0.011c-0.928 0.16-1.952 0.224-2.944 0.32-1.685 0.054-3.291 0.261-4.843 0.608l0.171-0.032c-1.697 0.307-3.007 1.649-3.261 3.338l-0.003 0.022c-0.041 0.233-0.065 0.502-0.065 0.776 0 0.895 0.25 1.732 0.684 2.445l-0.012-0.021c1.002 1.532 2.312 2.78 3.85 3.683l0.054 0.029c5.056 3.424 12.768 4.192 19.648 4.512 1.344 0 4.8 0 8.736 0 6.144 0 13.344 0 15.648-0.224 4.192-0.256 7.072-0.704 8.512-1.984 0.985-0.867 1.604-2.13 1.604-3.538 0-0.438-0.060-0.861-0.172-1.263l0.008 0.033zM20.576 15.648l0.928-0.512 1.728-1.056c0.96-0.608 1.952-1.248 2.944-1.984l0.48-0.416 1.92-1.44 2.208-1.792c2.144-1.824 4.672-3.968 5.92-5.056l0.768-0.736c0.094-0.080 0.217-0.129 0.352-0.129s0.258 0.049 0.353 0.13l-0.001-0.001c0.015 0.115 0.023 0.249 0.023 0.384s-0.008 0.269-0.025 0.4l0.002-0.016c-0.241 0.872-0.38 1.874-0.38 2.908 0 0.589 0.045 1.167 0.132 1.731l-0.008-0.063c-0.251-0.104-0.543-0.183-0.847-0.222l-0.017-0.002c-0.087-0.005-0.19-0.009-0.293-0.009-0.995 0-1.923 0.289-2.703 0.789l0.020-0.012-1.76 1.088-2.304 1.472-1.664 1.088-1.28 0.832-1.184 0.736-1.728 1.088-2.656 1.6-0.608 0.352c-0.168 0.107-0.373 0.17-0.593 0.17-0.108 0-0.212-0.015-0.311-0.044l0.008 0.002c-0.242-0.152-0.43-0.371-0.541-0.631l-0.003-0.009zM55.456 27.808c-2.031 0.871-4.394 1.377-6.875 1.377-0.058 0-0.116-0-0.173-0.001l0.009 0c-1.856 0-7.488 0.192-12.896 0.192l-0.352-0.512-0.672 0.512c-4.48 0-8.672 0-10.144 0-5.993-0.019-11.709-1.18-16.95-3.278l0.31 0.11c-1.468-0.862-2.7-1.686-3.883-2.573l0.107 0.077c-0.495-0.411-0.919-0.886-1.265-1.416l-0.015-0.024c-0.178-0.289-0.284-0.639-0.284-1.014 0-0.117 0.010-0.231 0.030-0.342l-0.002 0.012c0-0.512 0.32-1.024 1.344-1.28 1.257-0.279 2.72-0.463 4.217-0.511l0.039-0.001c1.088 0 2.176-0.16 3.168-0.32 2.693-0.37 5.131-1.099 7.391-2.146l-0.159 0.066c0.253 0.557 0.676 1 1.201 1.273l0.015 0.007c0.216 0.1 0.469 0.158 0.735 0.16h0.001c0.476-0.008 0.917-0.15 1.29-0.39l-0.010 0.006 0.768-0.48 2.656-1.664 1.6-0.96 1.088-0.704 1.6-0.96 1.408-0.928 2.656-1.632 1.248-0.896c0.573-0.368 1.271-0.587 2.021-0.587 0.099 0 0.198 0.004 0.296 0.011l-0.013-0.001c0.598 0.109 1.127 0.345 1.578 0.679l-0.010-0.007c0.73 1.317 1.889 2.32 3.285 2.834l0.043 0.014c0.986 0.559 2.167 0.889 3.424 0.889s2.437-0.33 3.459-0.907l-0.035 0.018c1.357-0.918 2.526-1.975 3.531-3.174l0.021-0.026c0.16-0.256 0.672-0.8 0.928-0.704s0.224 0 0.192 0.512c-0.033 0.367-0.101 0.704-0.201 1.027l0.009-0.035c-0.25 0.74-0.394 1.593-0.394 2.48 0 0.141 0.004 0.281 0.011 0.42l-0.001-0.019c0.125 1.068 0.407 2.041 0.825 2.939l-0.025-0.059c0.286 0.666 0.56 1.476 0.774 2.311l0.026 0.121c0.199 0.821 0.313 1.764 0.313 2.733 0 0.412-0.021 0.82-0.061 1.222l0.004-0.051 0.384 1.216c0.429 0.636 0.797 1.365 1.068 2.141l0.020 0.067c0.057 0.179 0.090 0.384 0.090 0.597 0 0.638-0.296 1.206-0.758 1.576l-0.004 0.003zM41.728 22.464h-0.896l-9.024-9.12 2.688-1.664 10.112 10.656c-0.992 0.032-1.952 0.128-2.88 0.256zM38.752 22.88l-3.744 0.48-7.2-7.36 0.736-0.448 1.856-1.216zM26.24 16.896l6.496 6.848q-1.952 0.256-3.904 0.256l-5.216-5.344zM37.344 27.424l0.64 1.248-1.088 0.672-0.704-1.248zM39.616 26.144l0.608 1.28-1.12 0.608-0.576-1.376zM49.184 22.080l0.384 1.344-1.184 0.416-0.384-1.344zM51.776 21.344l0.288 1.376-1.216 0.32-0.352-1.376zM54.432 20.896v1.408c-0.452 0.030-0.869 0.087-1.276 0.17l0.060-0.010-0.192-1.44c0.411-0.058 0.888-0.093 1.372-0.096l0.004-0zM42.016 24.992l0.544 1.312-1.152 0.544-0.544-1.28zM46.816 22.944l0.448 1.344-1.184 0.448-0.48-1.312zM44.416 23.904l0.48 1.312-1.152 0.512-0.544-1.312z"></path>
</svg>
