<!-- Generated by IcoMoon.io -->
<svg version="1.1" xmlns="http://www.w3.org/2000/svg" width="32" height="32" viewBox="0 0 32 32">
<title>instagram</title>
<path d="M26.016-0.032h-20.032c-3.296 0-6.016 2.688-6.016 6.016v20.032c0 3.328 2.72 6.016 6.016 6.016h20.032c3.328 0 6.016-2.688 6.016-6.016v-20.032c0-3.328-2.688-6.016-6.016-6.016zM21.408 16c0 2.976-2.432 5.408-5.408 5.408s-5.408-2.432-5.408-5.408c0-2.976 2.432-5.408 5.408-5.408s5.408 2.432 5.408 5.408zM22.4 4.192h4.544v5.408h-4.544v-5.408zM26.016 28.8h-20.032c-1.536 0-2.784-1.248-2.784-2.784v-13.216h4.608c-0.416 0.992-0.608 2.080-0.608 3.2 0 4.864 3.936 8.8 8.8 8.8s8.8-3.936 8.8-8.8c0-1.12-0.192-2.208-0.576-3.2h4.576v13.216c0 1.536-1.248 2.784-2.784 2.784z"></path>
</svg>
