<!-- Generated by IcoMoon.io -->
<svg version="1.1" xmlns="http://www.w3.org/2000/svg" width="32" height="32" viewBox="0 0 32 32">
<title>interrogation</title>
<path d="M12 32v-6.016l6.016-0.064v6.080h-6.016zM9.12 2.688c0.928-0.832 1.984-1.408 3.136-1.824s2.496-0.512 4-0.608c0.48 0.032 0.992 0.064 1.472 0.096 0.96 0.032 1.792 0.32 2.656 0.608s1.6 0.8 2.24 1.312 1.248 1.024 1.76 1.76 0.896 1.408 1.248 2.144 0.512 1.696 0.608 2.464c0.032 0.416 0.064 0.864 0.064 1.344 0 1.184-0.16 2.464-0.512 3.456s-0.928 2.048-1.664 2.816c-0.736 0.992-1.632 1.536-2.592 2.144s-2.272 0.864-3.52 1.216v4.384h-6.016v-8.704c1.248 0.096 3.008-0.064 4-0.192 0.512-0.064 0.96-0.192 1.408-0.352s0.832-0.32 1.216-0.448c0.768-0.384 1.344-0.864 1.728-1.632s0.512-1.504 0.512-2.688c0-0.576-0.064-1.312-0.288-1.824s-0.608-1.12-1.024-1.472c-0.384-0.512-0.96-0.768-1.536-0.992-0.288-0.128-0.608-0.192-0.928-0.224s-0.64-0.064-1.024-0.096c-1.248 0.096-2.304 0.288-3.104 0.928s-1.312 1.504-1.632 2.752l-5.504-0.064c0.16-1.152 0.544-2.496 1.088-3.488s1.312-2.080 2.208-2.816z"></path>
</svg>
