<!-- Generated by IcoMoon.io -->
<svg version="1.1" xmlns="http://www.w3.org/2000/svg" width="32" height="32" viewBox="0 0 32 32">
<title>locator</title>
<path d="M27.488 11.712c0-3.136-1.28-6.016-3.36-8.096s-4.96-3.328-8.128-3.328-6.016 1.28-8.128 3.328-3.36 4.96-3.36 8.096c0 2.784 0.992 5.312 2.656 7.328l8.832 12.672 8.992-12.864c0.16-0.224 0.288-0.416 0.448-0.64s0.288-0.416 0.448-0.64l0.096-0.128h-0.032c0.992-1.728 1.536-3.616 1.536-5.728zM21.536 11.712c0 3.168-2.592 5.728-5.76 5.728s-5.728-2.56-5.728-5.728 2.592-5.728 5.728-5.728 5.76 2.592 5.76 5.728z"></path>
</svg>
