<!-- Generated by IcoMoon.io -->
<svg version="1.1" xmlns="http://www.w3.org/2000/svg" width="32" height="32" viewBox="0 0 32 32">
<title>lock</title>
<path d="M26.304 14.4c0.119 0.116 0.192 0.278 0.192 0.457 0 0.008-0 0.016-0 0.024l0-0.001v14.464c-0.017 0.347-0.293 0.623-0.638 0.64l-0.002 0h-19.68c-0.186-0.001-0.355-0.074-0.48-0.192l0 0c-0.114-0.116-0.186-0.273-0.192-0.447l-0-0.001v-14.432c-0-0.003-0-0.006-0-0.010 0-0.183 0.073-0.349 0.192-0.47l-0 0c0.116-0.119 0.278-0.192 0.457-0.192 0.008 0 0.016 0 0.024 0l-0.001-0h1.568c0.12-0.002 0.226-0.065 0.287-0.159l0.001-0.001c0.072-0.064 0.119-0.154 0.128-0.255l0-0.001v-3.936c0.014-2.172 0.891-4.136 2.305-5.569l-0.001 0.001c0.704-0.682 1.53-1.242 2.443-1.643l0.053-0.021c0.893-0.413 1.936-0.659 3.035-0.672l0.005-0c1.115 0.012 2.169 0.258 3.12 0.692l-0.048-0.020c0.967 0.431 1.793 1.002 2.497 1.697l-0.001-0.001c0.712 0.708 1.293 1.547 1.707 2.476l0.021 0.052c0.384 0.88 0.608 1.905 0.608 2.982 0 0.020-0 0.041-0 0.061l0-0.003v3.936c0 0.001 0 0.001 0 0.002 0 0.114 0.049 0.216 0.128 0.286l0 0c0.065 0.079 0.163 0.128 0.272 0.128 0.006 0 0.011-0 0.017-0l-0.001 0h1.536c0.021-0.003 0.045-0.004 0.070-0.004 0.144 0 0.275 0.050 0.38 0.133l-0.001-0.001zM10.784 13.824c0 0.001 0 0.001 0 0.002 0 0.098 0.036 0.187 0.096 0.254l-0-0c0.056 0.098 0.16 0.163 0.279 0.163 0.015 0 0.029-0.001 0.043-0.003l-0.002 0h9.664c0.12-0.002 0.226-0.065 0.287-0.159l0.001-0.001c0.058-0.069 0.094-0.158 0.096-0.255v-3.937c0.001-0.034 0.001-0.073 0.001-0.113 0-1.424-0.589-2.71-1.536-3.629l-0.001-0.001c-0.917-0.929-2.191-1.505-3.599-1.505-0.040 0-0.079 0-0.118 0.001l0.006-0c-0.028-0.001-0.061-0.001-0.094-0.001-1.404 0-2.673 0.576-3.585 1.504l-0.001 0.001c-0.949 0.92-1.537 2.207-1.537 3.631 0 0.040 0 0.080 0.001 0.119l-0-0.006zM17.344 21.952c0.334-0.219 0.605-0.51 0.794-0.852l0.006-0.012c0.181-0.319 0.288-0.701 0.288-1.108 0-0.015-0-0.031-0-0.046l0 0.002c-0.018-1.329-1.1-2.4-2.432-2.4-0 0-0 0-0 0v0c-1.297 0.017-2.348 1.045-2.4 2.331l-0 0.005c-0.005 0.053-0.007 0.116-0.007 0.178 0 0.38 0.098 0.738 0.269 1.049l-0.006-0.011c0.199 0.36 0.481 0.653 0.822 0.858l0.010 0.006c0.13 0.094 0.238 0.211 0.317 0.347l0.003 0.005c0.080 0.127 0.127 0.282 0.128 0.448v2.4c0.002 0.116 0.026 0.225 0.066 0.326l-0.002-0.006c0.026 0.104 0.082 0.191 0.159 0.255l0.001 0.001 0.16 0.096c0.126 0.129 0.29 0.22 0.474 0.255l0.006 0.001c0.003 0 0.006 0 0.009 0 0.19 0 0.359-0.087 0.471-0.223l0.001-0.001 0.16-0.128c0.065-0.073 0.119-0.158 0.158-0.25l0.002-0.006c0.009-0.048 0.014-0.103 0.014-0.16s-0.005-0.112-0.015-0.166l0.001 0.006v-2.4c0-0.001 0-0.003 0-0.005 0-0.164 0.048-0.318 0.13-0.447l-0.002 0.003c0.099-0.157 0.241-0.278 0.41-0.35l0.006-0.002z"></path>
</svg>
