<!-- Generated by IcoMoon.io -->
<svg version="1.1" xmlns="http://www.w3.org/2000/svg" width="32" height="32" viewBox="0 0 32 32">
<title>logo-bos</title>
<path d="M11.584 20.512c-0.371-0.26-0.833-0.416-1.331-0.416-1.29 0-2.336 1.046-2.336 2.336s1.046 2.336 2.336 2.336c0.498 0 0.959-0.156 1.338-0.421l-0.008 0.005v0.32h1.12v-6.016h-1.12zM10.24 23.712c-0.742-0-1.344-0.602-1.344-1.344s0.602-1.344 1.344-1.344 1.344 0.602 1.344 1.344c0 0.011-0 0.022-0 0.034l0-0.002c-0.017 0.707-0.576 1.278-1.277 1.312l-0.003 0zM6.24 20.512c-0.371-0.26-0.833-0.416-1.331-0.416-1.29 0-2.336 1.046-2.336 2.336s1.046 2.336 2.336 2.336c0.498 0 0.959-0.156 1.338-0.421l-0.008 0.005v0.32h1.12v-4.512h-1.024zM4.928 23.712c-0.009 0-0.021 0-0.032 0-0.742 0-1.344-0.602-1.344-1.344s0.602-1.344 1.344-1.344c0.742 0 1.344 0.602 1.344 1.344 0 0.011-0 0.022-0 0.033l0-0.002c-0.012 0.676-0.521 1.23-1.177 1.311l-0.007 0.001zM20.16 18.656l-5.504-9.536 4-2.24 6.752 11.776zM9.504 15.072l2.080 3.584h-5.248l-0.736-1.312zM29.344 23.264c0 1.024-0.896 1.472-1.952 1.472-1.312 0-2.080-0.64-2.112-1.536h1.152c0 0.32 0.256 0.704 0.992 0.704 0.512 0 0.704-0.224 0.704-0.448s-0.192-0.352-0.608-0.448l-0.576-0.096c-0.736-0.128-1.568-0.32-1.568-1.344s0.704-1.472 1.888-1.472 1.856 0.576 1.888 1.472h-1.152c0-0.32-0.256-0.608-0.8-0.608s-0.704 0.128-0.704 0.416 0.32 0.384 0.768 0.448l0.704 0.16c0.96 0.16 1.376 0.576 1.376 1.28zM23.744 20.512c-0.368-0.26-0.826-0.416-1.321-0.416-0.008 0-0.016 0-0.025 0h0.001c-1.29 0-2.336 1.046-2.336 2.336s1.046 2.336 2.336 2.336v0c0.007 0 0.015 0 0.023 0 0.494 0 0.953-0.156 1.328-0.421l-0.007 0.005v0.32h1.12v-4.512h-1.12zM22.4 23.712c-0.742-0-1.344-0.602-1.344-1.344s0.602-1.344 1.344-1.344 1.344 0.602 1.344 1.344c0 0.011-0 0.022-0 0.034l0-0.002c-0.017 0.707-0.576 1.278-1.277 1.312l-0.003 0zM13.248 20.16h1.12v4.512h-1.12zM18.496 20.512c-0.371-0.26-0.833-0.416-1.331-0.416-1.29 0-2.336 1.046-2.336 2.336s1.046 2.336 2.336 2.336c0.498 0 0.959-0.156 1.338-0.421l-0.008 0.005v0.32h1.12v-6.016h-1.12zM17.184 23.712c-0.009 0-0.020 0-0.032 0-0.742 0-1.344-0.602-1.344-1.344s0.602-1.344 1.344-1.344c0.742 0 1.344 0.602 1.344 1.344 0 0.011-0 0.022-0 0.033l0-0.002c-0.017 0.707-0.576 1.278-1.277 1.312l-0.003 0zM14.080 11.008l4.416 7.648h-4.128v1.12h-1.12v-1.12l-3.072-5.312z"></path>
</svg>
