<!-- Generated by IcoMoon.io -->
<svg version="1.1" xmlns="http://www.w3.org/2000/svg" width="32" height="32" viewBox="0 0 32 32">
<title>logo-trifoil</title>
<path d="M25.504 15.232h-19.008c-0.23-0.272-0.442-0.576-0.625-0.898l-0.015-0.030h20.288c-0.184 0.353-0.397 0.658-0.644 0.932l0.004-0.004zM19.040 13.408c0-0.544 0.096-1.088 0.096-1.696 0-0.012 0-0.026 0-0.039 0-3.172-1.189-6.066-3.147-8.261l0.011 0.012c-1.927 2.164-3.104 5.033-3.104 8.177 0 0.039 0 0.078 0.001 0.117l-0-0.006c-0.008 0.144-0.012 0.312-0.012 0.481 0 0.428 0.028 0.85 0.081 1.264l-0.005-0.049zM12.384 13.408c-0.32-0.507-0.647-0.946-1.004-1.358l0.012 0.014c-1.829-2.124-4.378-3.582-7.265-3.993l-0.063-0.007c-0.003 0.093-0.005 0.203-0.005 0.312 0 1.849 0.488 3.584 1.343 5.082l-0.027-0.051zM22.496 17.952h-4.736c-0.084 0.515-0.131 1.108-0.131 1.712 0 0.096 0.001 0.191 0.004 0.286l-0-0.014c1.881-0.208 3.565-0.921 4.95-2l-0.022 0.016zM18.144 21.184h0.992v5.472h-0.992v-0.256c-0.336 0.215-0.744 0.346-1.182 0.352l-0.002 0c-0.078 0.010-0.168 0.016-0.259 0.016-1.166 0-2.112-0.946-2.112-2.112s0.946-2.112 2.112-2.112c0.091 0 0.182 0.006 0.27 0.017l-0.011-0.001c0.014-0 0.031-0 0.047-0 0.421 0 0.813 0.119 1.146 0.326l-0.009-0.005zM18.144 24.64c0-0.654-0.53-1.184-1.184-1.184s-1.184 0.53-1.184 1.184c0 0.654 0.53 1.184 1.184 1.184v0c0.010 0 0.021 0 0.032 0 0.66 0 1.198-0.527 1.216-1.183l0-0.002zM27.936 8.096c-2.965 0.401-5.529 1.863-7.347 3.984l-0.013 0.016c-0.345 0.396-0.663 0.836-0.938 1.303l-0.022 0.041h7.040c0.809-1.45 1.285-3.181 1.285-5.024 0-0.113-0.002-0.225-0.005-0.336l0 0.016zM14.336 20c0.005-0.128 0.008-0.278 0.008-0.43 0-0.548-0.038-1.087-0.111-1.616l0.007 0.061h-4.832c1.368 1.051 3.049 1.763 4.881 1.979l0.047 0.005zM24.736 16.256h-17.472c0.266 0.323 0.56 0.607 0.883 0.855l0.013 0.009h15.584c0.399-0.239 0.73-0.55 0.985-0.918l0.007-0.010zM13.472 22.208h0.992v-1.024h-0.992zM17.472 17.952h-2.976c0.422 0.807 0.922 1.502 1.507 2.116l-0.003-0.004c0.572-0.614 1.071-1.308 1.478-2.059l0.026-0.053zM22.816 22.592h0.992v4.064h-0.992v-0.256c-0.335 0.221-0.745 0.352-1.187 0.352-0.010 0-0.020-0-0.031-0l0.002 0c-0.078 0.010-0.168 0.016-0.259 0.016-1.166 0-2.112-0.946-2.112-2.112s0.946-2.112 2.112-2.112c0.091 0 0.182 0.006 0.27 0.017l-0.011-0.001c0.031-0.002 0.067-0.003 0.103-0.003 0.413 0 0.797 0.12 1.121 0.328l-0.008-0.005zM22.816 24.64c0-0 0-0 0-0 0-0.643-0.512-1.166-1.15-1.184l-0.002-0c-0.654 0-1.184 0.53-1.184 1.184s0.53 1.184 1.184 1.184v0c0.654 0 1.184-0.53 1.184-1.184v0zM12 21.184h1.024v5.472h-1.024v-0.256c-0.336 0.214-0.744 0.344-1.182 0.352l-0.002 0c-0.078 0.010-0.168 0.016-0.259 0.016-1.166 0-2.112-0.946-2.112-2.112s0.946-2.112 2.112-2.112c0.091 0 0.182 0.006 0.27 0.017l-0.011-0.001c0.014-0 0.031-0 0.047-0 0.421 0 0.813 0.119 1.146 0.326l-0.009-0.005zM12 24.64c-0-0.654-0.53-1.184-1.184-1.184s-1.184 0.53-1.184 1.184 0.53 1.184 1.184 1.184c0.011 0 0.022-0 0.034-0l-0.002 0c0.633-0.034 1.136-0.548 1.152-1.182l0-0.002zM13.472 26.656h0.992v-4.064h-0.992zM26.88 24.256c-0.672-0.192-1.504-0.16-1.504-0.576s0.288-0.352 0.704-0.352c0.608 0 0.64 0.32 0.64 0.544h1.056c-0.090-0.77-0.739-1.362-1.526-1.362-0.083 0-0.164 0.006-0.243 0.019l0.009-0.001c-1.056 0-1.664 0.576-1.664 1.344-0 0.004-0 0.008-0 0.013 0 0.419 0.23 0.784 0.57 0.976l0.006 0.003c0.297 0.132 0.642 0.233 1.002 0.285l0.022 0.003c0.448 0 0.864 0.096 0.864 0.416s-0.192 0.448-0.672 0.448c-0.704 0-0.832-0.352-0.832-0.64h-1.056c0 0.832 0.704 1.408 1.824 1.408s1.856-0.384 1.856-1.408c0-0.576-0.416-0.96-1.056-1.12zM7.296 22.592h0.992v4.064h-0.992v-0.256c-0.35 0.221-0.776 0.352-1.233 0.352-0.005 0-0.010-0-0.016-0h0.001c-0.078 0.010-0.168 0.016-0.259 0.016-1.166 0-2.112-0.946-2.112-2.112s0.946-2.112 2.112-2.112c0.091 0 0.182 0.006 0.27 0.017l-0.011-0.001c0.027-0.001 0.059-0.002 0.091-0.002 0.427 0 0.827 0.12 1.167 0.327l-0.010-0.006zM7.296 24.64c-0.018-0.658-0.555-1.184-1.216-1.184-0 0-0 0-0 0h0c-0.654 0-1.184 0.53-1.184 1.184s0.53 1.184 1.184 1.184v0c0 0 0 0 0 0 0.66 0 1.198-0.526 1.216-1.182l0-0.002z"></path>
</svg>
