<!-- Generated by IcoMoon.io -->
<svg version="1.1" xmlns="http://www.w3.org/2000/svg" width="32" height="32" viewBox="0 0 32 32">
<title>logo-adidas-group</title>
<path d="M12.448 26.080h3.808v-15.296h-3.808v1.216c-1.279-0.92-2.877-1.472-4.604-1.472-4.383 0-7.936 3.553-7.936 7.936s3.553 7.936 7.936 7.936c0.021 0 0.042-0 0.063-0l-0.003 0c0.018 0 0.040 0 0.061 0 1.678 0 3.233-0.527 4.508-1.425l-0.025 0.017v1.088zM3.712 18.528c-0-0.009-0-0.021-0-0.032 0-2.421 1.963-4.384 4.384-4.384s4.384 1.963 4.384 4.384c0 2.421-1.963 4.384-4.384 4.384v0c-0.009 0-0.021 0-0.032 0-2.404 0-4.352-1.948-4.352-4.352 0-0 0-0 0-0v0zM30.24 5.568v6.432c-1.257-0.881-2.818-1.408-4.503-1.408-4.365 0-7.904 3.539-7.904 7.904 0 4.351 3.515 7.88 7.86 7.904h0.002c0.024 0 0.052 0 0.081 0 1.671 0 3.22-0.527 4.487-1.425l-0.024 0.016v1.088h3.808v-20.512zM21.504 18.528c-0-0.009-0-0.021-0-0.032 0-2.421 1.963-4.384 4.384-4.384s4.384 1.963 4.384 4.384c0 2.421-1.963 4.384-4.384 4.384v0c-0.009 0-0.021 0-0.032 0-2.404 0-4.352-1.948-4.352-4.352 0-0 0-0 0-0v0zM39.68 9.344v-3.776h-3.776v3.776zM39.68 26.048v-15.264h-3.776v15.296zM53.696 5.568v6.432c-1.279-0.92-2.877-1.472-4.604-1.472-4.383 0-7.936 3.553-7.936 7.936s3.553 7.936 7.936 7.936c0.021 0 0.042-0 0.063-0l-0.003 0c0.018 0 0.039 0 0.061 0 1.678 0 3.233-0.527 4.508-1.425l-0.025 0.017v1.088h3.808v-20.512zM44.96 18.528c-0-0.009-0-0.021-0-0.032 0-2.421 1.963-4.384 4.384-4.384s4.384 1.963 4.384 4.384c0 2.421-1.963 4.384-4.384 4.384v0c-0.010 0-0.021 0-0.032 0-2.404 0-4.352-1.948-4.352-4.352 0-0 0-0 0-0v0zM71.488 26.080h3.808v-15.296h-3.808v1.216c-1.257-0.881-2.818-1.408-4.503-1.408-4.365 0-7.904 3.539-7.904 7.904 0 4.362 3.534 7.899 7.894 7.904h0.001c0.015 0 0.032 0 0.049 0 1.671 0 3.219-0.527 4.487-1.424l-0.024 0.016v1.088zM62.752 18.528c-0-0.009-0-0.021-0-0.032 0-2.421 1.963-4.384 4.384-4.384s4.384 1.963 4.384 4.384c0 2.421-1.963 4.384-4.384 4.384v0c-0.010 0-0.021 0-0.032 0-2.404 0-4.352-1.948-4.352-4.352 0-0 0-0 0-0v0zM76.704 21.12c0.096 3.104 2.752 5.344 7.136 5.344 3.616 0 6.56-1.568 6.56-5.024 0-2.4-1.312-3.808-4.448-4.416l-2.432-0.48c-1.536-0.288-2.656-0.576-2.656-1.504s1.024-1.472 2.336-1.472c1.92 0 2.688 0.96 2.784 2.112h3.84c-0.192-3.072-2.592-5.024-6.464-5.024s-6.336 2.208-6.336 5.024c0 3.488 2.816 4 5.248 4.512l2.016 0.352c1.44 0.256 2.048 0.704 2.048 1.536s-0.704 1.504-2.4 1.504c-2.496 0-3.296-1.344-3.36-2.4z"></path>
</svg>
