<!-- Generated by IcoMoon.io -->
<svg version="1.1" xmlns="http://www.w3.org/2000/svg" width="32" height="32" viewBox="0 0 32 32">
<title>logo-stella-mccartney</title>
<path d="M166.88 13.024l-2.432 2.656-2.464-2.656h-0.64l2.848 3.104v2.88h0.544v-2.88l2.88-3.104zM158.016 18.528h-3.584v-2.272h2.656v-0.512h-2.656v-2.24h3.584v-0.48h-4.096v5.984h4.096zM149.76 13.024h-0.512v5.152l-4.544-5.152h-0.448v5.984h0.512v-5.184l4.576 5.184h0.416zM140.704 13.024h-5.984v0.48h2.688v5.504h0.512v-5.504h2.656zM130.944 15.040c-0.053 0.137-0.129 0.254-0.224 0.352l0-0c-0.107 0.108-0.234 0.194-0.376 0.253l-0.008 0.003c-0.154 0.061-0.333 0.097-0.52 0.097-0.020 0-0.039-0-0.059-0.001l0.003 0h-2.56v-2.24h2.56c0.017-0.001 0.036-0.001 0.056-0.001 0.187 0 0.366 0.036 0.53 0.101l-0.010-0.003c0.15 0.062 0.277 0.148 0.384 0.256l0 0c0.095 0.098 0.171 0.215 0.222 0.345l0.002 0.007c0.041 0.122 0.064 0.263 0.064 0.41 0 0.002 0 0.004 0 0.007v-0c-0.002 0.149-0.025 0.292-0.067 0.427l0.003-0.011M129.28 16.224h0.48c0.019 0.001 0.042 0.001 0.064 0.001 0.253 0 0.495-0.047 0.717-0.134l-0.014 0.005c0.227-0.087 0.419-0.218 0.575-0.383l0.001-0.001c0.134-0.144 0.242-0.314 0.316-0.501l0.004-0.011c0.075-0.169 0.122-0.366 0.128-0.574l0-0.002c0-0 0-0.001 0-0.001 0-0.22-0.047-0.428-0.132-0.617l0.004 0.009c-0.078-0.198-0.186-0.368-0.321-0.513l0.001 0.001c-0.158-0.155-0.351-0.275-0.565-0.349l-0.011-0.003c-0.209-0.082-0.451-0.129-0.704-0.129-0.023 0-0.045 0-0.067 0.001l0.003-0h-3.104v5.984h0.544v-2.784h1.44l2.56 2.784h0.704zM120.16 13.024h-0.608l2.208 4h-1.984v0.48h2.24l0.864 1.568h0.576zM115.84 17.472c-0.19 0.186-0.4 0.355-0.624 0.502l-0.016 0.010c-0.229 0.142-0.493 0.272-0.769 0.374l-0.031 0.010c-0.242 0.099-0.531 0.187-0.83 0.25l-0.034 0.006c-0.276 0.056-0.596 0.091-0.924 0.096l-0.004 0c-0 0-0 0-0 0-0.388 0-0.762-0.058-1.114-0.167l0.027 0.007c-0.357-0.1-0.667-0.265-0.932-0.483l0.004 0.003c-0.27-0.223-0.486-0.501-0.634-0.818l-0.006-0.014c-0.154-0.369-0.243-0.798-0.243-1.248s0.089-0.879 0.251-1.27l-0.008 0.022c0.307-0.642 0.869-1.12 1.551-1.308l0.017-0.004c0.325-0.102 0.7-0.16 1.088-0.16 0 0 0 0 0.001 0h-0c0.029-0.001 0.063-0.001 0.098-0.001 0.293 0 0.581 0.024 0.861 0.069l-0.031-0.004c0.333 0.069 0.622 0.157 0.899 0.268l-0.035-0.012c0.308 0.112 0.571 0.242 0.819 0.395l-0.019-0.011c0.24 0.157 0.45 0.326 0.641 0.513l-0.001-0.001 0.352-0.384c-0.204-0.208-0.435-0.389-0.689-0.536l-0.015-0.008c-0.237-0.141-0.511-0.27-0.798-0.373l-0.034-0.011c-0.275-0.109-0.598-0.198-0.933-0.252l-0.027-0.004c-0.3-0.061-0.644-0.096-0.996-0.096-0.010 0-0.019 0-0.029 0h0.001c-0.030-0.001-0.065-0.001-0.1-0.001-0.431 0-0.849 0.059-1.245 0.169l0.033-0.008c-0.431 0.12-0.805 0.318-1.125 0.58l0.005-0.004c-0.315 0.265-0.565 0.597-0.729 0.975l-0.007 0.017c-0.202 0.408-0.32 0.888-0.32 1.396 0 0.016 0 0.031 0 0.047l-0-0.002c-0.001 0.033-0.002 0.071-0.002 0.109 0 0.483 0.107 0.94 0.298 1.351l-0.008-0.020c0.18 0.397 0.441 0.729 0.763 0.988l0.005 0.004c0.306 0.254 0.669 0.452 1.066 0.57l0.022 0.006c0.364 0.103 0.783 0.162 1.215 0.162 0.046 0 0.091-0.001 0.136-0.002l-0.007 0c0.008 0 0.018 0 0.028 0 0.353 0 0.697-0.035 1.030-0.102l-0.033 0.006c0.362-0.058 0.685-0.147 0.992-0.267l-0.032 0.011c0.332-0.122 0.617-0.262 0.885-0.428l-0.021 0.012c0.269-0.155 0.5-0.336 0.703-0.543l0.001-0.001zM105.344 17.952c-0.293 0.216-0.633 0.39-0.999 0.505l-0.025 0.007c-0.352 0.113-0.758 0.183-1.179 0.192l-0.005 0c-0.025 0.001-0.053 0.001-0.082 0.001-0.244 0-0.48-0.036-0.703-0.102l0.017 0.004c-0.259-0.073-0.484-0.194-0.675-0.354l0.003 0.002c-0.202-0.151-0.364-0.344-0.476-0.567l-0.004-0.009c-0.109-0.26-0.172-0.563-0.172-0.88s0.063-0.62 0.178-0.895l-0.006 0.015c0.112-0.245 0.275-0.448 0.476-0.605l0.004-0.003c0.19-0.146 0.415-0.257 0.66-0.317l0.012-0.003c0.224-0.061 0.481-0.096 0.746-0.096 0.008 0 0.015 0 0.023 0h-0.001c0.424 0.002 0.831 0.072 1.211 0.2l-0.027-0.008c0.39 0.118 0.73 0.281 1.038 0.489l-0.014-0.009 0.288-0.384c-0.33-0.241-0.712-0.437-1.124-0.568l-0.028-0.008c-0.372-0.102-0.8-0.161-1.241-0.161-0.036 0-0.072 0-0.108 0.001l0.005-0c-0.017-0-0.038-0.001-0.058-0.001-0.332 0-0.654 0.047-0.958 0.134l0.024-0.006c-0.319 0.091-0.596 0.234-0.838 0.42l0.006-0.004c-0.242 0.197-0.437 0.443-0.571 0.723l-0.005 0.013c-0.142 0.304-0.224 0.659-0.224 1.034 0 0.008 0 0.016 0 0.024v-0.001c-0.001 0.022-0.001 0.047-0.001 0.073 0 0.368 0.083 0.717 0.231 1.029l-0.006-0.015c0.136 0.295 0.331 0.541 0.572 0.733l0.004 0.003c0.236 0.182 0.514 0.324 0.814 0.412l0.018 0.004c0.297 0.080 0.639 0.127 0.991 0.128h0.001c0.016 0 0.036 0 0.055 0 0.46 0 0.903-0.070 1.32-0.201l-0.031 0.008c0.44-0.139 0.822-0.335 1.163-0.584l-0.011 0.008zM96.672 13.024h-0.416l-2.912 3.104-2.848-3.104h-0.416v5.984h0.576v-5.152l2.592 2.848h0.32l2.656-2.88v5.184h0.512zM86.016 13.024l-3.36 5.984h0.608l0.864-1.568h2.208v-0.48h-2.016l2.176-4zM78.816 18.528h-2.656v-5.504h-0.544v5.984h3.2zM71.104 18.528h-2.688v-5.504h-0.512v5.984h3.2zM63.36 18.528h-3.68v-2.272h2.688v-0.512h-2.688v-2.24h3.616v-0.48h-4.128v5.984h4.128zM55.616 13.024h-5.984v0.48h2.688v5.504h0.512v-5.504h2.72zM46.944 16.576c-0.145-0.187-0.326-0.338-0.535-0.444l-0.009-0.004c-0.233-0.11-0.503-0.189-0.787-0.223l-0.013-0.001c-0.32 0-0.608-0.096-0.928-0.128l-0.896-0.096c-0.294-0.023-0.566-0.080-0.824-0.167l0.024 0.007c-0.227-0.070-0.421-0.192-0.576-0.352l-0-0c-0.122-0.14-0.196-0.324-0.196-0.525 0-0.029 0.002-0.058 0.005-0.087l-0 0.004c-0-0.010-0.001-0.021-0.001-0.032 0-0.192 0.060-0.369 0.162-0.515l-0.002 0.003c0.121-0.157 0.27-0.285 0.441-0.38l0.007-0.004c0.185-0.106 0.4-0.185 0.629-0.222l0.011-0.002c0.219-0.056 0.472-0.091 0.733-0.096l0.003-0c0.105-0.009 0.228-0.015 0.352-0.015s0.247 0.005 0.368 0.016l-0.016-0.001c0.253 0.042 0.478 0.109 0.692 0.199l-0.020-0.007c0.238 0.079 0.438 0.166 0.631 0.267l-0.023-0.011c0.194 0.121 0.362 0.259 0.511 0.415l0.001 0.001 0.32-0.352c-0.161-0.167-0.339-0.315-0.532-0.441l-0.012-0.007c-0.191-0.116-0.413-0.224-0.644-0.311l-0.028-0.009c-0.217-0.078-0.476-0.145-0.742-0.188l-0.026-0.004c-0.12-0.013-0.259-0.020-0.4-0.020s-0.28 0.007-0.417 0.021l0.017-0.001c-0.002 0-0.004 0-0.006 0-0.327 0-0.645 0.035-0.952 0.101l0.029-0.005c-0.314 0.062-0.593 0.173-0.843 0.326l0.011-0.006c-0.229 0.132-0.421 0.304-0.572 0.507l-0.004 0.005c-0.141 0.209-0.224 0.466-0.224 0.743 0 0.009 0 0.017 0 0.026l-0-0.001c-0 0.003-0 0.007-0 0.010 0 0.292 0.083 0.565 0.228 0.796l-0.004-0.006c0.144 0.198 0.325 0.359 0.536 0.476l0.008 0.004c0.23 0.108 0.498 0.197 0.778 0.252l0.022 0.004c0.288 0 0.608 0.096 0.928 0.128l0.896 0.096c0.297 0.030 0.569 0.086 0.829 0.168l-0.029-0.008c0.213 0.066 0.395 0.176 0.544 0.32l-0-0c0.154 0.133 0.252 0.327 0.256 0.543v0.001c0.001 0.013 0.001 0.028 0.001 0.044 0 0.198-0.060 0.383-0.163 0.536l0.002-0.003c-0.132 0.157-0.291 0.286-0.471 0.38l-0.008 0.004c-0.194 0.101-0.42 0.178-0.657 0.222l-0.015 0.002c-0.219 0.056-0.472 0.091-0.733 0.096l-0.003 0c-0.023 0.001-0.051 0.001-0.079 0.001-0.554 0-1.077-0.13-1.541-0.362l0.020 0.009c-0.45-0.237-0.825-0.56-1.114-0.951l-0.006-0.009-0.352 0.384c0.324 0.425 0.73 0.77 1.196 1.015l0.020 0.009c0.492 0.224 1.068 0.355 1.674 0.355 0.053 0 0.105-0.001 0.157-0.003l-0.008 0c0.015 0 0.032 0 0.050 0 0.322 0 0.637-0.035 0.939-0.102l-0.029 0.005c0.314-0.059 0.593-0.171 0.842-0.326l-0.010 0.006c0.246-0.123 0.45-0.296 0.605-0.507l0.003-0.005c0.141-0.209 0.225-0.467 0.225-0.745 0-0.019-0-0.039-0.001-0.058l0 0.003c0.001-0.019 0.002-0.041 0.002-0.062 0-0.265-0.085-0.51-0.228-0.709l0.002 0.004M2.592 24.576c-0.769 0-1.392-0.623-1.392-1.392s0.623-1.392 1.392-1.392v0c0.769 0 1.392 0.623 1.392 1.392s-0.623 1.392-1.392 1.392v0M4 21.056c-0.391-0.261-0.873-0.416-1.39-0.416-0.018 0-0.035 0-0.053 0.001l0.003-0c-0.085-0.010-0.184-0.016-0.284-0.016-1.396 0-2.528 1.132-2.528 2.528s1.132 2.528 2.528 2.528c0.1 0 0.199-0.006 0.296-0.017l-0.012 0.001c0.015 0 0.032 0 0.050 0 0.518 0 0.999-0.155 1.399-0.422l-0.009 0.006v0.32h1.184v-4.896h-1.184zM27.456 22.656c-0.768-0.192-1.792-0.16-1.792-0.672s0.352-0.448 0.832-0.448c0.736 0 0.8 0.416 0.8 0.672h1.216c-0.123-0.916-0.9-1.616-1.84-1.616-0.084 0-0.168 0.006-0.249 0.017l0.010-0.001c-1.248 0-2.016 0.704-2.016 1.568 0 0.001 0 0.001 0 0.002 0 0.508 0.282 0.95 0.697 1.178l0.007 0.003c0.384 0.163 0.829 0.277 1.295 0.319l0.017 0.001c0.544 0.096 1.024 0.128 1.056 0.512s-0.288 0.576-0.832 0.576c-0.8 0-0.992-0.48-0.992-0.768h-1.344c0 0.96 0.864 1.664 2.208 1.664s2.208-0.48 2.208-1.664c0-0.672-0.48-1.152-1.248-1.344M21.248 24.544c-0.714-0.035-1.28-0.623-1.28-1.342 0-0.742 0.602-1.344 1.344-1.344s1.343 0.601 1.344 1.342v0c-0.035 0.75-0.651 1.344-1.407 1.344-0 0-0.001 0-0.002 0h0M22.656 21.056c-0.385-0.261-0.86-0.417-1.371-0.417-0.024 0-0.048 0-0.072 0.001l0.004-0c-1.395 0.002-2.525 1.133-2.525 2.528 0 1.396 1.132 2.528 2.528 2.528 0.537 0 1.035-0.168 1.445-0.453l-0.008 0.005v0.32h1.216v-4.896h-1.216zM11.392 25.568h1.216v-4.896h-1.216zM24.48 19.008l-7.36-12.704-4.224 2.464 5.92 10.24zM8.16 24.544c-0.769 0-1.392-0.623-1.392-1.392s0.623-1.392 1.392-1.392v0c0.769 0 1.392 0.623 1.392 1.392s-0.623 1.392-1.392 1.392v0M9.6 19.392v1.664c-0.388-0.261-0.866-0.417-1.381-0.417-0.021 0-0.042 0-0.062 0.001l0.003-0c-0.085-0.010-0.184-0.016-0.284-0.016-1.396 0-2.528 1.132-2.528 2.528s1.132 2.528 2.528 2.528c0.1 0 0.199-0.006 0.296-0.017l-0.012 0.001c0.009 0 0.020 0 0.031 0 0.524 0 1.011-0.155 1.419-0.422l-0.010 0.006v0.32h1.184v-6.56h-1.184zM15.648 24.544c-0.769 0-1.392-0.623-1.392-1.392s0.623-1.392 1.392-1.392v0c0.769 0 1.392 0.623 1.392 1.392s-0.623 1.392-1.392 1.392v0M17.056 19.392v1.664c-0.385-0.261-0.86-0.417-1.371-0.417-0.024 0-0.048 0-0.072 0.001l0.004-0c-1.395 0.002-2.525 1.133-2.525 2.528 0 1.396 1.132 2.528 2.528 2.528 0.537 0 1.035-0.168 1.445-0.453l-0.008 0.005v0.32h1.216v-6.56h-1.216zM9.536 19.008l-2.24-3.872-4.224 2.464 0.832 1.408zM12.288 10.784l-4.288 2.432 3.36 5.792v1.216h1.216v-1.216h4.416z"></path>
</svg>
