<!-- Generated by IcoMoon.io -->
<svg version="1.1" xmlns="http://www.w3.org/2000/svg" width="32" height="32" viewBox="0 0 32 32">
<title>logo-adidas-neo</title>
<path d="M8.736 13.184c-0.873-0.601-1.952-0.96-3.116-0.96-0.018 0-0.037 0-0.055 0l0.003-0c-0.013-0-0.028-0-0.043-0-1.010 0-1.955 0.273-2.767 0.75l0.026-0.014c-0.844 0.477-1.526 1.15-2.002 1.959l-0.014 0.025c-0.482 0.773-0.768 1.711-0.768 2.716 0 0.024 0 0.048 0.001 0.072l-0-0.004c-0 0.010-0 0.022-0 0.034 0 1.012 0.273 1.961 0.75 2.776l-0.014-0.026c0.499 0.856 1.192 1.549 2.022 2.034l0.026 0.014c0.775 0.463 1.709 0.737 2.707 0.737 0.027 0 0.054-0 0.081-0.001l-0.004 0c0.024 0 0.053 0.001 0.081 0.001 1.154 0 2.224-0.359 3.105-0.972l-0.018 0.012v0.704h2.688v-10.656h-2.688zM8.32 19.264c-0.278 0.464-0.656 0.842-1.106 1.112l-0.014 0.008c-0.44 0.262-0.969 0.416-1.535 0.416-0.011 0-0.023-0-0.034-0h0.002c-0.555-0.001-1.074-0.155-1.517-0.423l0.013 0.007c-0.478-0.272-0.868-0.651-1.144-1.106l-0.008-0.014c-0.261-0.428-0.416-0.946-0.416-1.5 0-0.001 0-0.003 0-0.004v0c-0-0.005-0-0.012-0-0.018 0-0.56 0.155-1.084 0.424-1.531l-0.007 0.013c0.278-0.483 0.669-0.874 1.137-1.144l0.015-0.008c0.43-0.261 0.949-0.415 1.504-0.416h0c0.005-0 0.012-0 0.018-0 0.56 0 1.084 0.155 1.531 0.424l-0.013-0.008c0.48 0.283 0.869 0.672 1.144 1.137l0.008 0.015c0.262 0.434 0.417 0.959 0.417 1.52s-0.155 1.086-0.425 1.533l0.008-0.013zM24.992 8.704h2.688v2.656h-2.688zM20.992 13.184c-0.889-0.596-1.983-0.951-3.16-0.951-1.025 0-1.988 0.269-2.82 0.741l0.028-0.015c-0.851 0.493-1.543 1.174-2.034 1.991l-0.014 0.025c-0.463 0.766-0.736 1.692-0.736 2.681 0 0.025 0 0.050 0.001 0.075l-0-0.004c-0 0.023-0.001 0.050-0.001 0.077 0 0.998 0.274 1.932 0.75 2.732l-0.014-0.024c0.5 0.855 1.193 1.548 2.022 2.034l0.026 0.014c0.775 0.463 1.71 0.737 2.708 0.737 0.038 0 0.076-0 0.113-0.001l-0.006 0c1.17-0.002 2.256-0.36 3.156-0.973l-0.020 0.013v0.704h2.688v-14.336h-2.688zM20.576 19.264c-0.271 0.469-0.651 0.849-1.106 1.112l-0.014 0.008c-0.444 0.265-0.98 0.421-1.552 0.421s-1.108-0.156-1.566-0.429l0.014 0.008c-0.478-0.272-0.867-0.651-1.144-1.106l-0.008-0.014c-0.261-0.428-0.416-0.946-0.416-1.5 0-0.001 0-0.003 0-0.004v0c-0-0.005-0-0.012-0-0.018 0-0.56 0.155-1.084 0.424-1.531l-0.008 0.013c0.283-0.48 0.672-0.869 1.137-1.144l0.015-0.008c0.444-0.264 0.98-0.421 1.552-0.421s1.108 0.156 1.566 0.429l-0.014-0.008c0.471 0.282 0.85 0.672 1.112 1.137l0.008 0.015c0.261 0.434 0.416 0.958 0.416 1.518 0 0.006-0 0.013-0 0.019v-0.001c0 0.017 0.001 0.037 0.001 0.058 0 0.532-0.143 1.031-0.392 1.46l0.007-0.014zM24.96 12.32h2.656v10.688h-2.656zM37.408 13.184c-0.889-0.596-1.983-0.951-3.16-0.951-1.025 0-1.988 0.269-2.82 0.741l0.028-0.015c-0.84 0.494-1.522 1.176-2.002 1.99l-0.014 0.026c-0.481 0.785-0.766 1.735-0.768 2.752v0c0 0.003 0 0.006 0 0.010 0 2.050 1.108 3.841 2.758 4.808l0.026 0.014c0.775 0.463 1.709 0.737 2.707 0.737 0.027 0 0.054-0 0.081-0.001l-0.004 0c0.027 0 0.059 0.001 0.091 0.001 1.151 0 2.218-0.36 3.095-0.972l-0.017 0.012v0.704h2.656v-14.336h-2.656zM36.992 19.264c-0.549 0.915-1.53 1.521-2.654 1.536l-0.002 0c-0.013 0-0.029 0-0.044 0-0.551 0-1.066-0.155-1.504-0.424l0.013 0.007c-0.466-0.276-0.844-0.654-1.112-1.106l-0.008-0.014c-0.242-0.413-0.385-0.909-0.385-1.438 0-0.023 0-0.046 0.001-0.069l-0 0.003c-0.001-0.021-0.001-0.047-0.001-0.072 0-0.538 0.143-1.043 0.393-1.478l-0.008 0.015c0.272-0.478 0.651-0.867 1.106-1.144l0.014-0.008c0.425-0.262 0.941-0.417 1.493-0.417 0.026 0 0.053 0 0.079 0.001l-0.004-0c0.005-0 0.012-0 0.018-0 0.56 0 1.084 0.155 1.531 0.424l-0.013-0.008c0.471 0.282 0.85 0.672 1.112 1.137l0.008 0.015c0.261 0.434 0.416 0.958 0.416 1.518 0 0.006-0 0.013-0 0.019v-0.001c0 0.004 0 0.008 0 0.013 0 0.551-0.155 1.066-0.423 1.504l0.007-0.013zM85.344 13.12c-0.775-0.463-1.709-0.736-2.707-0.736-0.016 0-0.032 0-0.048 0l0.002-0c-0.003 0-0.007 0-0.011 0-1.009 0-1.955 0.273-2.767 0.75l0.026-0.014c-0.812 0.469-1.471 1.118-1.939 1.896l-0.013 0.024c-0.438 0.796-0.696 1.744-0.696 2.752s0.258 1.956 0.711 2.782l-0.015-0.030c0.471 0.82 1.132 1.481 1.927 1.939l0.025 0.013c0.773 0.444 1.7 0.706 2.688 0.706 0.045 0 0.090-0.001 0.135-0.002l-0.007 0c0.072 0.003 0.157 0.006 0.242 0.006 1.963 0 3.679-1.059 4.608-2.636l0.014-0.025-0.864-0.544c-0.382 0.656-0.9 1.194-1.517 1.589l-0.019 0.011c-0.673 0.345-1.468 0.547-2.311 0.547-0.065 0-0.13-0.001-0.194-0.004l0.009 0c-0.017 0-0.036 0-0.056 0-0.749 0-1.456-0.177-2.083-0.492l0.027 0.012c-0.635-0.307-1.155-0.766-1.527-1.33l-0.009-0.014c-0.409-0.616-0.675-1.36-0.735-2.161l-0.001-0.015h9.568c0.008-0.101 0.012-0.218 0.012-0.336s-0.004-0.235-0.013-0.351l0.001 0.015c0-0.015 0-0.034 0-0.052 0-0.913-0.25-1.767-0.685-2.499l0.012 0.023c-0.437-0.758-1.043-1.375-1.769-1.811l-0.023-0.013zM78.272 17.216c0.096-0.763 0.37-1.447 0.778-2.031l-0.010 0.015c0.813-1.102 2.106-1.809 3.564-1.809 0.719 0 1.397 0.172 1.997 0.476l-0.025-0.012c0.625 0.323 1.142 0.778 1.527 1.33l0.009 0.014c0.394 0.567 0.649 1.257 0.703 2.003l0.001 0.013zM99.040 15.040c-0.943-1.6-2.658-2.656-4.619-2.656-0.019 0-0.037 0-0.056 0l0.003-0c-0.017-0-0.038-0-0.058-0-0.99 0-1.918 0.261-2.721 0.719l0.027-0.014c-1.615 0.979-2.678 2.727-2.678 4.723 0 1.005 0.27 1.948 0.74 2.759l-0.014-0.026c0.477 0.805 1.137 1.455 1.926 1.906l0.026 0.014c0.783 0.462 1.725 0.736 2.732 0.736 1.99 0 3.73-1.068 4.679-2.663l0.014-0.025c0.443-0.789 0.705-1.732 0.705-2.736s-0.261-1.947-0.719-2.765l0.015 0.029zM98.112 20c-0.371 0.673-0.904 1.217-1.548 1.589l-0.020 0.011c-0.619 0.363-1.363 0.577-2.157 0.577-0.029 0-0.059-0-0.088-0.001l0.004 0c-0.020 0-0.043 0-0.067 0-0.799 0-1.549-0.214-2.194-0.588l0.021 0.011c-0.667-0.379-1.201-0.924-1.558-1.579l-0.010-0.021c-0.343-0.619-0.545-1.357-0.545-2.142 0-0.035 0-0.069 0.001-0.103l-0 0.005c-0-0.022-0.001-0.049-0.001-0.075 0-0.793 0.202-1.539 0.557-2.189l-0.012 0.024c0.371-0.673 0.904-1.217 1.548-1.589l0.020-0.011c0.624-0.363 1.374-0.576 2.173-0.576 0.023 0 0.047 0 0.070 0.001l-0.004-0c0.025-0.001 0.054-0.001 0.083-0.001 0.794 0 1.538 0.214 2.177 0.588l-0.020-0.011c0.66 0.389 1.192 0.931 1.557 1.579l0.011 0.021c0.344 0.627 0.546 1.374 0.546 2.168 0 0.048-0.001 0.096-0.002 0.143l0-0.007c0 0.011 0 0.023 0 0.036 0 0.784-0.202 1.522-0.556 2.163l0.012-0.023zM75.456 14.368c0.343 0.644 0.544 1.409 0.544 2.22 0 0.018-0 0.036-0 0.055l0-0.003v6.4h-1.024v-6.272c0.004-0.062 0.006-0.135 0.006-0.208 0-0.864-0.317-1.655-0.842-2.261l0.004 0.004c-0.556-0.594-1.345-0.964-2.22-0.964-0.052 0-0.104 0.001-0.155 0.004l0.007-0c-0.057-0.004-0.124-0.006-0.192-0.006-0.902 0-1.718 0.369-2.304 0.965l-0 0c-0.58 0.66-0.933 1.532-0.933 2.486 0 0.071 0.002 0.142 0.006 0.212l-0-0.010v5.984h-0.992v-10.4h0.992v1.568c0.708-1.071 1.906-1.768 3.268-1.768 0.089 0 0.177 0.003 0.264 0.009l-0.012-0.001c0.018-0 0.040-0 0.061-0 0.765 0 1.483 0.202 2.104 0.555l-0.021-0.011c0.617 0.343 1.109 0.846 1.431 1.453l0.009 0.019zM62.272 17.792c0.436 0.458 0.705 1.080 0.705 1.764 0 0.021-0 0.042-0.001 0.063l0-0.003c0.005 0.064 0.007 0.139 0.007 0.214 0 1.088-0.543 2.049-1.373 2.627l-0.010 0.007c-0.875 0.53-1.932 0.843-3.062 0.843-0.127 0-0.254-0.004-0.379-0.012l0.017 0.001c-0.051 0.001-0.11 0.002-0.17 0.002-0.849 0-1.66-0.165-2.401-0.466l0.043 0.015c-0.678-0.303-1.239-0.762-1.656-1.332l-0.008-0.012c-0.362-0.532-0.595-1.179-0.639-1.877l-0.001-0.011h2.816c-0 0.011-0 0.024-0 0.036 0 0.407 0.158 0.777 0.417 1.052l-0.001-0.001c0.445 0.399 1.036 0.642 1.684 0.642 0.038 0 0.076-0.001 0.114-0.003l-0.005 0c0.029 0.002 0.063 0.002 0.097 0.002 0.476 0 0.912-0.17 1.25-0.453l-0.003 0.003c0.254-0.189 0.416-0.487 0.416-0.824 0-0.003 0-0.006-0-0.008v0c-0.038-0.349-0.279-0.634-0.602-0.734l-0.006-0.002c-0.385-0.127-0.84-0.228-1.309-0.285l-0.035-0.003h-0.32c-1.043-0.119-1.995-0.379-2.882-0.761l0.066 0.025c-0.461-0.244-0.832-0.604-1.081-1.043l-0.007-0.013c-0.242-0.429-0.384-0.942-0.384-1.488 0-0.017 0-0.034 0-0.051l-0 0.003c-0-0.007-0-0.015-0-0.023 0-0.639 0.204-1.231 0.55-1.714l-0.006 0.009c0.38-0.54 0.888-0.966 1.481-1.239l0.023-0.009c0.651-0.285 1.409-0.45 2.207-0.45 0.057 0 0.113 0.001 0.17 0.002l-0.008-0c0.066-0.003 0.143-0.005 0.22-0.005 1.13 0 2.175 0.362 3.027 0.975l-0.015-0.011c0.754 0.603 1.251 1.502 1.312 2.518l0 0.010h-2.656c0.001-0.017 0.001-0.038 0.001-0.058 0-0.323-0.096-0.624-0.261-0.876l0.004 0.006c-0.319-0.324-0.763-0.525-1.254-0.525-0.077 0-0.152 0.005-0.226 0.014l0.009-0.001c-0.067-0.005-0.146-0.008-0.225-0.008-0.402 0-0.786 0.073-1.141 0.207l0.022-0.007c-0.298 0.128-0.51 0.403-0.544 0.732l-0 0.004c0 0.384 0.256 0.64 0.736 0.832 0.484 0.165 1.057 0.299 1.648 0.379l0.048 0.005c0.704 0.096 1.216 0.224 1.536 0.288 0.8 0.144 1.499 0.507 2.050 1.026l-0.002-0.002zM49.664 13.184c-0.853-0.601-1.913-0.961-3.058-0.961-0.039 0-0.078 0-0.116 0.001l0.006-0c-0.003 0-0.007 0-0.011 0-1.009 0-1.955 0.273-2.767 0.75l0.026-0.014c-0.844 0.477-1.526 1.15-2.002 1.959l-0.014 0.025c-0.482 0.773-0.768 1.711-0.768 2.716 0 0.024 0 0.048 0.001 0.072l-0-0.004c0 0.003 0 0.006 0 0.010 0 2.050 1.108 3.841 2.758 4.808l0.026 0.014c0.799 0.461 1.757 0.733 2.779 0.733 1.172 0 2.26-0.358 3.161-0.97l-0.020 0.013v0.704h2.656v-10.656h-2.656zM49.248 19.264c-0.261 0.468-0.63 0.847-1.075 1.113l-0.014 0.007c-0.425 0.261-0.94 0.416-1.492 0.416-0.016 0-0.031-0-0.047-0l0.002 0c-0.005 0-0.012 0-0.018 0-0.56 0-1.084-0.155-1.531-0.424l0.013 0.008c-0.469-0.271-0.849-0.651-1.112-1.106l-0.008-0.014c-0.261-0.425-0.416-0.94-0.416-1.491 0-0.005 0-0.009 0-0.014v0.001c0.007-0.57 0.173-1.099 0.455-1.548l-0.007 0.012c0.27-0.48 0.649-0.87 1.106-1.144l0.014-0.008c0.434-0.261 0.958-0.416 1.518-0.416 0.006 0 0.013 0 0.019 0h-0.001c0.013-0 0.029-0 0.044-0 0.551 0 1.066 0.155 1.504 0.424l-0.013-0.007c0.46 0.283 0.829 0.673 1.080 1.136l0.008 0.016c0.259 0.441 0.413 0.97 0.416 1.535v0.001c-0.016 0.559-0.181 1.075-0.455 1.517l0.007-0.013z"></path>
</svg>
