<!-- Generated by IcoMoon.io -->
<svg version="1.1" xmlns="http://www.w3.org/2000/svg" width="32" height="32" viewBox="0 0 32 32">
<title>logo-porsche-design</title>
<path d="M4.96 20.928c-0.192-0.14-0.433-0.225-0.694-0.225-0.015 0-0.029 0-0.044 0.001l0.002-0c-0.368 0.001-0.699 0.161-0.927 0.415l-0.001 0.001c-0.236 0.212-0.384 0.518-0.384 0.859 0 0.002 0 0.004 0 0.006v-0c-0 0.012-0.001 0.026-0.001 0.041 0 0.35 0.148 0.665 0.384 0.887l0.001 0.001c0.222 0.237 0.538 0.385 0.887 0.385 0.014 0 0.028-0 0.043-0.001l-0.002 0c0.274-0.001 0.529-0.085 0.741-0.227l-0.005 0.003v0.192h0.608v-3.36h-0.608zM4.736 22.528c-0.125 0.118-0.294 0.191-0.48 0.192h-0c-0.005 0-0.010 0-0.016 0-0.191 0-0.366-0.073-0.497-0.193l0.001 0c-0.138-0.118-0.224-0.292-0.224-0.487 0-0.009 0-0.018 0.001-0.026l-0 0.001c0.001-0.202 0.087-0.384 0.224-0.512l0-0c0.117-0.102 0.271-0.164 0.44-0.164 0.025 0 0.051 0.001 0.075 0.004l-0.003-0c0.007-0 0.015-0 0.023-0 0.179 0 0.341 0.074 0.457 0.192l0 0c0.137 0.128 0.223 0.31 0.224 0.512v0c-0.006 0.191-0.091 0.361-0.223 0.479l-0.001 0.001zM14.496 20.096v0zM13.344 12.576v0zM5.888 20.736h0.608v2.528h-0.608zM5.344 10.912c-1.459 0.401-2.713 0.881-3.907 1.466l0.131-0.058c0.31-0.742 0.755-1.371 1.309-1.885l0.003-0.003c0.581-0.554 1.273-0.999 2.038-1.297l0.043-0.015c0.735-0.304 1.588-0.48 2.482-0.48 0.016 0 0.032 0 0.048 0h-0.002c0.814 0.001 1.595 0.141 2.321 0.399l-0.049-0.015c0.736 0.255 1.373 0.613 1.932 1.065l-0.012-0.009c-2.256 0.007-4.437 0.311-6.512 0.873l0.176-0.041zM5.888 19.904h0.608v0.608h-0.608zM60.896 17.856h-0.896v-3.776h0.896v1.504h4v-1.504h0.864v3.776h-0.864v-1.536h-4zM5.792 14.592c2.177-0.887 4.72-1.591 7.362-1.992l0.19-0.024c0.162 0.434 0.256 0.936 0.256 1.459 0 0.004 0 0.009-0 0.013v-0.001c-0.016-0-0.035-0-0.054-0-2.669 0-5.236 0.433-7.636 1.233l0.17-0.049c-1.48 0.49-2.76 1.097-3.949 1.837l0.077-0.045c-0.114-0.154-0.23-0.332-0.337-0.516l-0.015-0.028c1.116-0.677 2.413-1.312 3.767-1.831l0.169-0.057zM1.344 14.976c-0.047-0.196-0.082-0.426-0.095-0.661l-0-0.011c1.049-0.62 2.281-1.222 3.562-1.729l0.182-0.063c2.072-0.812 4.498-1.46 7.013-1.833l0.187-0.023c0.413 0.437 0.756 0.944 1.010 1.502l0.014 0.034c-0.267-0.011-0.581-0.017-0.896-0.017-1.837 0-3.626 0.204-5.346 0.591l0.162-0.031c-1.536 0.362-2.87 0.824-4.139 1.401l0.139-0.057c-0.701 0.289-1.29 0.589-1.852 0.93l0.060-0.034zM3.456 18.144c1.098-0.65 2.384-1.274 3.722-1.794l0.182-0.062c1.766-0.718 3.858-1.338 6.021-1.757l0.219-0.035c-0.073 0.951-0.423 1.809-0.968 2.506l0.008-0.010c-0.589 0.761-1.34 1.369-2.203 1.776l-0.037 0.016c-0.843 0.404-1.832 0.64-2.877 0.64-0.024 0-0.047-0-0.070-0l0.004 0c-0.754-0.001-1.481-0.118-2.163-0.334l0.051 0.014c-0.733-0.223-1.372-0.551-1.937-0.972l0.017 0.012zM14.336 20.352v0-0.352h0.224ch-0.096-0.064v0.128h0.064s0 0 0.096 0v0s0 0 0 0 0 0.064-0.064 0.064l0.064 0.128v-0.128h-0.064zM8.832 20.928c-0.209-0.133-0.462-0.215-0.734-0.224l-0.002-0c-0.368 0.001-0.699 0.161-0.927 0.415l-0.001 0.001c-0.236 0.212-0.384 0.518-0.384 0.859 0 0.002 0 0.004 0 0.006v-0c0 0 0 0 0 0 0 0.731 0.584 1.326 1.31 1.344l0.002 0c0.007 0 0.016 0 0.025 0 0.277 0 0.534-0.084 0.748-0.227l-0.005 0.003v0.192h0.608v-3.392h-0.64zM8.608 22.528c-0.126 0.119-0.296 0.193-0.484 0.193-0.010 0-0.020-0-0.030-0.001l0.001 0c-0.186-0.004-0.354-0.076-0.481-0.192l0.001 0c-0.138-0.118-0.224-0.292-0.224-0.487 0-0.009 0-0.018 0.001-0.026l-0 0.001c0.001-0.202 0.087-0.384 0.224-0.512l0-0c0.117-0.1 0.27-0.161 0.437-0.161 0.015 0 0.030 0 0.045 0.002l-0.002-0c0.005-0 0.010-0 0.016-0 0.191 0 0.366 0.073 0.496 0.193l-0.001-0c0.137 0.128 0.223 0.31 0.224 0.512v0c-0.006 0.191-0.091 0.361-0.223 0.479l-0.001 0.001zM2.080 20.928c-0.202-0.156-0.457-0.251-0.735-0.256l-0.001-0c-0.304 0.007-0.582 0.115-0.803 0.29l0.003-0.002c-0.218 0.159-0.385 0.377-0.477 0.631l-0.003 0.009c-0.040 0.124-0.063 0.268-0.063 0.416s0.023 0.292 0.066 0.426l-0.003-0.010c0.092 0.272 0.273 0.494 0.507 0.637l0.005 0.003c0.209 0.14 0.466 0.224 0.743 0.224 0.009 0 0.017-0 0.026-0l-0.001 0c0.274-0.001 0.529-0.085 0.741-0.227l-0.005 0.003v0.192h0.576v-2.528h-0.576zM1.888 22.528c-0.119 0.086-0.267 0.137-0.428 0.137-0.041 0-0.081-0.003-0.12-0.010l0.004 0.001c-0.005 0-0.010 0-0.016 0-0.191 0-0.366-0.073-0.496-0.193l0.001 0c-0.138-0.118-0.225-0.292-0.225-0.487 0-0.009 0-0.018 0.001-0.026l-0 0.001c0.001-0.202 0.087-0.384 0.224-0.512l0-0c0.104-0.070 0.232-0.111 0.37-0.111 0.050 0 0.099 0.006 0.146 0.016l-0.004-0.001c0.008-0 0.018-0.001 0.028-0.001 0.188 0 0.358 0.073 0.484 0.193l-0-0c0.132 0.132 0.216 0.311 0.224 0.51l0 0.002c-0.001 0.186-0.074 0.355-0.192 0.48l0-0zM14.4 20.512c0.002 0 0.005 0 0.007 0 0.136 0 0.251-0.095 0.28-0.222l0-0.002c0.013-0.033 0.020-0.072 0.020-0.113 0-0.065-0.020-0.126-0.053-0.177l0.001 0.001c-0.053-0.040-0.12-0.064-0.192-0.064-0.177 0-0.32 0.143-0.32 0.32v0c-0 0.003-0 0.006-0 0.009 0 0.085 0.037 0.162 0.096 0.215l0 0c0.041 0.021 0.089 0.033 0.141 0.033 0.007 0 0.014-0 0.020-0.001l-0.001 0zM14.208 20c0.028-0.012 0.061-0.019 0.096-0.019s0.068 0.007 0.098 0.019l-0.002-0.001c0.135 0.015 0.241 0.121 0.256 0.255l0 0.001c0.003 0.015 0.005 0.032 0.005 0.049 0 0.068-0.026 0.129-0.069 0.175l0-0c-0.045 0.040-0.105 0.065-0.17 0.065-0.008 0-0.015-0-0.023-0.001l0.001 0c-0.159 0-0.288-0.129-0.288-0.288v0c-0.003-0.016-0.005-0.034-0.005-0.052 0-0.083 0.040-0.157 0.101-0.204l0.001-0zM96.32 15.808c0.134 0.13 0.219 0.311 0.224 0.511l0 0.001v0.768c-0.001 0.202-0.087 0.384-0.224 0.512l-0 0c-0.129 0.138-0.312 0.225-0.516 0.225-0.010 0-0.020-0-0.030-0.001l0.001 0h-5.12v-0.704h4.896c0.088 0 0.16-0.072 0.16-0.16v0-0.48c0-0.088-0.072-0.16-0.16-0.16v0h-4.192c-0.001 0-0.001 0-0.002 0-0.212 0-0.403-0.086-0.542-0.224l0 0c-0.138-0.139-0.224-0.331-0.224-0.542 0-0.001 0-0.001 0-0.002v0-0.736c-0-0.005-0-0.010-0-0.015 0-0.207 0.086-0.395 0.224-0.529l0-0c0.129-0.138 0.312-0.225 0.516-0.225 0.010 0 0.020 0 0.030 0.001l-0.001-0h5.056v0.736h-4.768c-0.019-0.008-0.041-0.013-0.064-0.013s-0.045 0.005-0.065 0.014l0.001-0c-0.005 0.019-0.008 0.041-0.008 0.064s0.003 0.045 0.009 0.066l-0-0.002v0.448c0.013 0.082 0.078 0.147 0.159 0.16l0.001 0h4.16c0.2 0.023 0.371 0.131 0.479 0.286l0.001 0.002zM76.672 20.544h4v0.48h-1.696v2.176h-0.608v-2.176h-1.696zM72.672 17.888h-5.888v-3.808h5.952v0.704h-5.056v0.8h4.896v0.736h-4.896v0.8h5.056zM70.848 20.544h-3.104c-0.004-0-0.008-0-0.012-0-0.146 0-0.278 0.061-0.372 0.16l-0 0c-0.097 0.087-0.158 0.212-0.16 0.352v1.6c-0 0.008-0.001 0.017-0.001 0.026 0 0.142 0.062 0.27 0.16 0.358l0 0c0.094 0.099 0.226 0.16 0.372 0.16 0.004 0 0.008-0 0.013-0h3.167c0.149-0.004 0.284-0.064 0.384-0.16l-0 0c0.099-0.094 0.16-0.226 0.16-0.372 0-0.004-0-0.008-0-0.013v0.001-1.6c-0.002-0.14-0.063-0.265-0.16-0.352l-0-0c-0.1-0.096-0.235-0.156-0.383-0.16h-0.001zM70.752 22.56c0.003 0.010 0.004 0.021 0.004 0.032s-0.001 0.022-0.004 0.033l0-0.001h-2.752c-0.010 0.003-0.021 0.004-0.032 0.004s-0.022-0.001-0.033-0.004l0.001 0c-0.003-0.010-0.005-0.021-0.005-0.032s0.002-0.022 0.006-0.033l-0 0.001v-1.344c-0.003-0.010-0.005-0.021-0.005-0.032s0.002-0.022 0.006-0.033l-0 0.001c0.010-0.003 0.021-0.006 0.032-0.006s0.022 0.002 0.033 0.006l-0.001-0h2.656c0.003 0.010 0.004 0.021 0.004 0.032s-0.001 0.022-0.004 0.033l0-0.001zM81.856 14.080h-5.12v3.776h5.152c0.004 0 0.010 0 0.015 0 0.207 0 0.395-0.086 0.529-0.224l0-0c0.138-0.124 0.224-0.302 0.224-0.501 0-0.004-0-0.008-0-0.012v0.001-2.336c0-0.003 0-0.007 0-0.011 0-0.199-0.086-0.377-0.223-0.5l-0.001-0.001c-0.13-0.12-0.305-0.193-0.497-0.193-0.016 0-0.033 0.001-0.049 0.002l0.002-0zM81.728 16.96c0.011 0.018 0.017 0.040 0.017 0.064s-0.006 0.046-0.017 0.065l0-0.001c-0.014 0.005-0.031 0.007-0.048 0.007s-0.034-0.003-0.049-0.008l0.001 0h-4v-2.304h4c0.014-0.005 0.031-0.007 0.048-0.007s0.034 0.003 0.049 0.008l-0.001-0c0.008 0.019 0.013 0.041 0.013 0.064s-0.005 0.045-0.014 0.065l0-0.001zM76.16 21.856c0.069-0.066 0.116-0.154 0.128-0.254l0-0.002v-0.544c-0.002-0.14-0.063-0.265-0.16-0.352l-0-0c-0.1-0.096-0.235-0.156-0.383-0.16h-3.585v2.656h0.608v-1.056h2.144c0.544 0 0.8 0.288 0.8 0.896v0.16h0.608v-0.256c0.004-0.032 0.006-0.070 0.006-0.108 0-0.32-0.152-0.605-0.388-0.787l-0.002-0.002c0.097-0.036 0.175-0.103 0.223-0.19l0.001-0.002zM75.648 21.504c0.003 0.010 0.005 0.021 0.005 0.032s-0.002 0.022-0.006 0.033l0-0.001c-0.014 0.006-0.031 0.009-0.048 0.009s-0.034-0.003-0.049-0.010l0.001 0h-2.784v-0.576h2.752c0.014-0.008 0.030-0.013 0.048-0.013s0.034 0.005 0.048 0.013l-0-0c0.004 0.014 0.006 0.031 0.006 0.048s-0.002 0.034-0.006 0.049l0-0.001zM100.384 14.080h5.152v0.704h-4.896c-0.014-0.005-0.031-0.007-0.048-0.007s-0.034 0.003-0.049 0.008l0.001-0c-0.008 0.019-0.013 0.041-0.013 0.064s0.005 0.045 0.014 0.065l-0-0.001v1.984c-0.011 0.018-0.017 0.040-0.017 0.064s0.006 0.046 0.017 0.065l-0-0.001c0.014 0.005 0.031 0.007 0.048 0.007s0.034-0.003 0.049-0.008l-0.001 0h3.84c0.019 0.007 0.041 0.011 0.064 0.011s0.045-0.004 0.065-0.011l-0.001 0c0.008-0.019 0.013-0.041 0.013-0.064s-0.005-0.045-0.014-0.065l0 0.001v-0.608h-1.952v-0.768h2.88v1.536c0 0.008 0.001 0.016 0.001 0.025 0 0.194-0.087 0.369-0.224 0.486l-0.001 0.001c-0.13 0.134-0.311 0.219-0.511 0.224l-0.001 0h-4.416c-0.001 0-0.001 0-0.002 0-0.212 0-0.403-0.086-0.542-0.224l0 0c-0.137-0.128-0.223-0.31-0.224-0.512v-2.24c0.005-0.201 0.090-0.382 0.224-0.512l0-0c0.129-0.138 0.312-0.225 0.516-0.225 0.010 0 0.020 0 0.030 0.001l-0.001-0zM112.512 14.080v3.776h-0.864l-4.192-2.848v2.848h-0.864v-3.776h0.864l4.192 2.848v-2.848zM97.664 14.080h0.864v3.776h-0.864zM83.68 14.080h5.92v0.704h-5.056v0.8h4.96v0.736h-4.96v0.8h5.056v0.736h-5.92zM45.344 16c0.061-0.102 0.097-0.225 0.097-0.356 0-0.010-0-0.020-0.001-0.030l0 0.001v-0.736c0-0.005 0-0.010 0-0.015 0-0.207-0.086-0.395-0.224-0.529l-0-0c-0.129-0.138-0.312-0.225-0.516-0.225-0.010 0-0.020 0-0.030 0.001l0.001-0h-5.12v3.744h0.864v-1.536h3.104c0.022-0.002 0.047-0.002 0.072-0.002 0.298 0 0.567 0.124 0.759 0.322l0 0c0.183 0.228 0.294 0.52 0.294 0.838 0 0.043-0.002 0.085-0.006 0.127l0-0.005v0.256h0.864v-0.352c0.005-0.045 0.007-0.097 0.007-0.15 0-0.477-0.213-0.904-0.549-1.192l-0.002-0.002c0.148-0.010 0.282-0.069 0.385-0.161l-0.001 0.001zM44.576 15.488c0.006 0.014 0.009 0.031 0.009 0.048s-0.003 0.034-0.010 0.049l0-0.001c-0.014 0.005-0.031 0.007-0.048 0.007s-0.034-0.003-0.049-0.008l0.001 0h-4v-0.8h4c0.014-0.005 0.031-0.007 0.048-0.007s0.034 0.003 0.049 0.008l-0.001-0c0.008 0.019 0.013 0.041 0.013 0.064s-0.005 0.045-0.014 0.065l0-0.001zM11.68 20.928c-0.207-0.139-0.462-0.223-0.736-0.224h-0c-0.004-0-0.008-0-0.012-0-0.365 0-0.692 0.16-0.915 0.415l-0.001 0.001c-0.183 0.227-0.293 0.52-0.293 0.838 0 0.699 0.534 1.273 1.216 1.338l0.005 0c0.274-0.001 0.529-0.085 0.741-0.227l-0.005 0.003v0.192h0.64v-2.528h-0.64zM11.456 22.528c-0.121 0.119-0.287 0.192-0.47 0.192-0.003 0-0.007-0-0.010-0h0.001c-0.005 0-0.010 0-0.016 0-0.191 0-0.366-0.073-0.496-0.193l0.001 0c-0.138-0.118-0.225-0.292-0.225-0.487 0-0.009 0-0.018 0.001-0.026l-0 0.001c0.001-0.202 0.087-0.384 0.224-0.512l0-0c0.117-0.102 0.271-0.164 0.44-0.164 0.025 0 0.051 0.001 0.075 0.004l-0.003-0c0.007-0 0.015-0 0.023-0 0.179 0 0.341 0.074 0.457 0.192l0 0c0.137 0.128 0.223 0.31 0.224 0.512v0c-0.002 0.192-0.088 0.363-0.223 0.479l-0.001 0.001zM30.912 14.080h-5.184v3.776h0.928v-1.536h4.32c0.005 0 0.010 0 0.015 0 0.207 0 0.395-0.086 0.529-0.224l0-0c0.12-0.135 0.193-0.313 0.193-0.509 0-0.012-0-0.025-0.001-0.037l0 0.002v-0.736c0-0.005 0-0.010 0-0.016 0-0.191-0.073-0.366-0.193-0.496l0 0.001c-0.124-0.142-0.305-0.232-0.508-0.232-0.035 0-0.070 0.003-0.104 0.008l0.004-0.001zM30.784 15.392c0.011 0.018 0.017 0.040 0.017 0.064s-0.006 0.046-0.017 0.065l0-0.001c-0.014 0.005-0.031 0.007-0.048 0.007s-0.034-0.003-0.049-0.008l0.001 0h-4.032v-0.8h4c0.019-0.008 0.041-0.013 0.064-0.013s0.045 0.005 0.065 0.014l-0.001-0c0.008 0.019 0.013 0.041 0.013 0.064s-0.005 0.045-0.014 0.065l0-0.001zM66.080 20.512h-3.616v2.688h0.608v-1.088h3.008c0.008 0 0.017 0.001 0.026 0.001 0.142 0 0.27-0.062 0.358-0.16l0-0c0.099-0.098 0.16-0.234 0.16-0.384v-0.512c-0.002-0.14-0.063-0.265-0.16-0.352l-0-0c-0.094-0.099-0.226-0.16-0.372-0.16-0.004 0-0.008 0-0.013 0h0.001zM66.016 21.472c0.003 0.010 0.005 0.021 0.005 0.032s-0.002 0.022-0.006 0.033l0-0.001c-0.014 0.006-0.031 0.009-0.048 0.009s-0.034-0.003-0.049-0.010l0.001 0h-2.848v-0.576h2.816c0.014-0.008 0.030-0.013 0.048-0.013s0.034 0.005 0.048 0.013l-0-0c0.006 0.014 0.009 0.031 0.009 0.048s-0.003 0.034-0.010 0.049l0-0.001zM14.656 22.016c0.1 0.112 0.16 0.261 0.16 0.424 0 0.009-0 0.017-0.001 0.025l0-0.001c0.002 0.021 0.003 0.045 0.003 0.070 0 0.234-0.114 0.441-0.289 0.569l-0.002 0.001c-0.213 0.123-0.468 0.195-0.74 0.195-0.032 0-0.064-0.001-0.096-0.003l0.004 0c-0.025 0.002-0.054 0.003-0.083 0.003-0.269 0-0.518-0.085-0.721-0.229l0.004 0.003c-0.187-0.141-0.31-0.359-0.32-0.606l-0-0.002h0.64c0.021 0.079 0.066 0.145 0.127 0.191l0.001 0.001c0.106 0.080 0.24 0.129 0.385 0.129 0.011 0 0.022-0 0.033-0.001l-0.002 0c0.018 0.003 0.039 0.004 0.060 0.004 0.085 0 0.164-0.026 0.23-0.069l-0.002 0.001c0.059-0.053 0.096-0.13 0.096-0.215 0-0.003-0-0.006-0-0.010v0c0.002-0.009 0.003-0.019 0.003-0.030 0-0.053-0.026-0.101-0.066-0.13l-0-0c-0.094-0.034-0.203-0.057-0.317-0.064l-0.003-0h-0.128c-0.248-0.025-0.476-0.082-0.689-0.166l0.017 0.006c-0.092-0.068-0.168-0.153-0.222-0.252l-0.002-0.004c-0.056-0.102-0.091-0.222-0.096-0.351l-0-0.001c-0-0.002-0-0.005-0-0.008 0-0.232 0.113-0.438 0.286-0.567l0.002-0.001c0.188-0.16 0.434-0.257 0.702-0.257 0.012 0 0.024 0 0.036 0.001l-0.002-0c0.018-0.001 0.040-0.002 0.062-0.002 0.254 0 0.489 0.085 0.677 0.228l-0.003-0.002c0.187 0.141 0.31 0.359 0.32 0.606l0 0.002h-0.608c-0.006-0.077-0.042-0.144-0.096-0.192l-0-0c-0.065-0.080-0.164-0.131-0.274-0.131-0.016 0-0.032 0.001-0.048 0.003l0.002-0c-0.256 0-0.416 0.096-0.416 0.256s0 0.128 0.16 0.16l0.384 0.096c0.003-0 0.007-0 0.011-0 0.134 0 0.262 0.023 0.381 0.067l-0.008-0.002c0.177 0.044 0.329 0.134 0.448 0.256l0 0zM37.792 14.016h-4.544c-0.202 0.001-0.384 0.087-0.512 0.224l-0 0c-0.136 0.141-0.221 0.332-0.224 0.543v2.273c0.005 0.201 0.090 0.382 0.224 0.512l0 0c0.13 0.134 0.311 0.219 0.511 0.224l0.001 0h4.544c0.001 0 0.001 0 0.002 0 0.212 0 0.403-0.086 0.542-0.224l-0 0c0.138-0.118 0.224-0.292 0.224-0.487 0-0.009-0-0.018-0.001-0.026l0 0.001v-2.24c-0.001-0.202-0.087-0.384-0.224-0.512l-0-0c-0.129-0.139-0.313-0.226-0.517-0.226-0.021 0-0.041 0.001-0.061 0.003l0.003-0zM37.696 16.896c0.008 0.019 0.013 0.041 0.013 0.064s-0.005 0.045-0.014 0.065l0-0.001h-4.128c-0.088 0-0.16-0.072-0.16-0.16v0-1.888c-0.006-0.019-0.009-0.041-0.009-0.064s0.003-0.045 0.010-0.066l-0 0.002c0.019-0.008 0.041-0.013 0.064-0.013s0.045 0.005 0.065 0.014l-0.001-0h4c0.014-0.003 0.031-0.005 0.048-0.005s0.034 0.002 0.050 0.005l-0.002-0c0.006 0.019 0.009 0.041 0.009 0.064s-0.003 0.045-0.010 0.066l0-0.002zM61.696 21.728c0.080 0.098 0.128 0.225 0.128 0.363 0 0.008-0 0.015-0 0.023l0-0.001v0.544c0.001 0.010 0.001 0.021 0.001 0.032 0 0.134-0.049 0.258-0.13 0.352l0.001-0.001c-0.094 0.099-0.226 0.16-0.372 0.16-0.004 0-0.008-0-0.013-0h-3.711v-0.544h3.424c0.014 0.006 0.031 0.009 0.048 0.009s0.034-0.003 0.049-0.010l-0.001 0c0.002-0.010 0.003-0.021 0.003-0.032s-0.001-0.022-0.003-0.033l0 0.001v-0.32c0.004-0.014 0.006-0.031 0.006-0.048s-0.002-0.034-0.006-0.049l0 0.001h-3.008c-0.14-0.002-0.265-0.063-0.352-0.16l-0-0c-0.096-0.1-0.156-0.235-0.16-0.383v-0.577c0-0.283 0.229-0.512 0.512-0.512v0h3.552v0.48h-3.328c-0.014-0.008-0.030-0.013-0.048-0.013s-0.034 0.005-0.048 0.013l0-0c-0.004 0.014-0.006 0.031-0.006 0.048s0.002 0.034 0.006 0.049l-0-0.001v0.32c-0.003 0.010-0.005 0.021-0.005 0.032s0.002 0.022 0.006 0.033l-0-0.001c0.014 0.006 0.031 0.009 0.048 0.009s0.034-0.003 0.049-0.010l-0.001 0h2.88c0.167 0.015 0.309 0.114 0.383 0.253l0.001 0.003zM52.256 15.744c0.138 0.134 0.224 0.321 0.224 0.529 0 0.005-0 0.011-0 0.016v-0.001 0.768c0 0.003 0 0.007 0 0.011 0 0.199-0.086 0.377-0.223 0.5l-0.001 0.001c-0.134 0.138-0.321 0.224-0.529 0.224-0.005 0-0.011-0-0.016-0h-5.247v-0.736h4.896c0.088 0 0.16-0.072 0.16-0.16v0-0.448c0-0.088-0.072-0.16-0.16-0.16v0h-4.16c-0.201-0.005-0.382-0.090-0.512-0.224l-0-0c-0.134-0.143-0.218-0.333-0.224-0.543l-0-0.001v-0.736c0.003-0.212 0.088-0.403 0.224-0.544l-0 0c0.124-0.138 0.302-0.224 0.501-0.224 0.004 0 0.008 0 0.012 0h5.055v0.704h-4.736c-0.023-0.013-0.051-0.021-0.080-0.021s-0.057 0.008-0.081 0.022l0.001-0s0 0.096 0 0.16v0.448c-0.006 0.014-0.009 0.031-0.009 0.048s0.003 0.034 0.010 0.049l-0-0.001c0.019 0.005 0.041 0.008 0.064 0.008s0.045-0.003 0.066-0.009l-0.002 0h4.128c0.241 0.024 0.443 0.173 0.542 0.38l0.002 0.004zM59.2 17.792h-5.024c-0.001 0-0.001 0-0.002 0-0.212 0-0.403-0.086-0.542-0.224l0 0c-0.137-0.128-0.223-0.31-0.224-0.512v-2.24c0.005-0.201 0.090-0.382 0.224-0.512l0-0c0.134-0.138 0.321-0.224 0.529-0.224 0.005 0 0.011 0 0.016 0h4.959v0.704h-4.672c-0.019-0.008-0.041-0.013-0.064-0.013s-0.045 0.005-0.065 0.014l0.001-0c-0.006 0.019-0.009 0.041-0.009 0.064s0.003 0.045 0.010 0.066l-0-0.002v1.984c0 0.088 0.072 0.16 0.16 0.16v0h4.672z"></path>
</svg>
