<!-- Generated by IcoMoon.io -->
<svg version="1.1" xmlns="http://www.w3.org/2000/svg" width="59" height="32" viewBox="0 0 59 32">
<title>midsole-drop</title>
<path d="M27.648 26.144v1.44h-1.312v-1.44zM26.24 16.896l-2.624 1.76 5.312 5.472q1.92 0 3.904-0.32zM28.896 26.080v1.408h1.344v-1.408zM23.584 26.272v1.408h1.312v-1.408zM12.896 27.616h1.344v-1.408h-1.312zM31.584 25.92v1.408h1.312v-1.408zM20.896 26.336v1.44h1.344v-1.44zM15.584 27.776h1.312v-1.376h-1.312zM18.24 26.368v1.408h1.248v-1.376zM47.52 24l0.224 1.408 1.312-0.224-0.224-1.184zM31.808 13.344l8.96 9.376h0.928c0.864 0 1.856-0.224 2.816-0.288l-10.144-10.688zM34.304 25.76v1.408h1.312v-1.408zM50.112 23.616l0.256 1.408 1.344-0.32-0.32-1.408zM52.768 22.944l0.384 1.376 1.344-0.48-0.512-1.312zM45.024 24.544l0.192 1.44 1.312-0.224-0.192-1.408zM37.024 25.504v1.44h1.312v-1.44zM28.544 15.424l-0.736 0.576 7.2 7.552 3.744-0.48-8.352-8.832zM42.272 24.896l0.16 1.408 1.344-0.16-0.16-1.44zM39.616 25.216l0.128 1.408 1.312-0.16-0.128-1.408zM57.056 29.792c-1.408 1.312-4.288 1.728-8.48 1.984-2.208 0.128-9.472 0.192-15.648 0.192-3.936 0-7.392 0-8.736 0-6.848-0.32-14.56-1.088-19.648-4.512-1.572-0.955-2.861-2.224-3.812-3.729l-0.028-0.047c-0.47-0.72-0.749-1.601-0.749-2.547 0-0.23 0.017-0.456 0.048-0.678l-0.003 0.025c0.253-1.702 1.549-3.041 3.207-3.356l0.025-0.004c1.413-0.321 3.053-0.529 4.733-0.575l0.035-0.001c1.024 0 2.048-0.16 2.976-0.32 2.607-0.341 4.972-1.072 7.142-2.139l-0.134 0.059c3.507-1.831 6.526-3.828 9.317-6.095l-0.101 0.079c2.272-1.76 6.304-5.344 8-6.784l0.864-0.704c0.469-0.424 1.093-0.683 1.778-0.683 0.596 0 1.146 0.196 1.589 0.528l-0.007-0.005c0.525 0.39 0.91 0.941 1.083 1.58l0.005 0.020c0.075 0.303 0.117 0.65 0.117 1.008s-0.043 0.705-0.124 1.038l0.006-0.030c-0.736 3.904 0.352 5.344 2.24 5.984 0.705 0.425 1.557 0.677 2.467 0.677 0.818 0 1.588-0.203 2.263-0.562l-0.026 0.013c1.122-0.766 2.090-1.643 2.926-2.634l0.018-0.022c0.586-0.932 1.608-1.542 2.773-1.542 0.288 0 0.568 0.037 0.834 0.107l-0.023-0.005c1.108 0.439 1.878 1.502 1.878 2.744 0 0.127-0.008 0.252-0.024 0.374l0.002-0.015c-0.049 0.588-0.162 1.132-0.334 1.65l0.014-0.050c-0.185 0.519-0.292 1.119-0.292 1.743 0 0.074 0.002 0.147 0.004 0.22l-0-0.010c0.108 0.775 0.321 1.476 0.627 2.124l-0.019-0.044c0.334 0.774 0.652 1.712 0.898 2.679l0.030 0.137c0.245 1.017 0.385 2.185 0.385 3.385 0 0.351-0.012 0.7-0.036 1.045l0.003-0.047c0.558 0.847 1.026 1.823 1.353 2.861l0.023 0.083c0.113 0.384 0.178 0.825 0.178 1.282 0 1.414-0.624 2.683-1.612 3.545l-0.006 0.005zM19.584 16.224c0.114 0.269 0.302 0.488 0.538 0.637l0.006 0.003c0.087 0.024 0.188 0.039 0.291 0.039 0.238 0 0.459-0.074 0.64-0.201l-0.004 0.002 0.576-0.32 2.656-1.6 1.728-1.12 1.184-0.736 1.28-0.832 1.696-1.088 2.272-1.472 1.76-1.088c0.751-0.47 1.663-0.75 2.64-0.75 0.13 0 0.258 0.005 0.385 0.015l-0.017-0.001c0.308 0.032 0.59 0.1 0.856 0.2l-0.024-0.008c-0.084-0.52-0.133-1.119-0.133-1.729 0-0.907 0.107-1.79 0.308-2.636l-0.016 0.077c0.015-0.115 0.023-0.249 0.023-0.384s-0.008-0.269-0.024-0.4l0.002 0.016c-0.092-0.072-0.209-0.116-0.336-0.116s-0.244 0.044-0.337 0.117l0.001-0.001-0.704 0.576c-1.28 1.12-3.776 3.296-5.92 5.088l-2.176 1.792-2.080 1.376-0.576 0.448c-1.024 0.736-1.984 1.376-2.944 1.984l-1.728 1.056-0.896 0.512zM56 25.568c-0.294-0.831-0.662-1.549-1.109-2.209l0.021 0.034-0.416-1.248c0.041-0.374 0.064-0.807 0.064-1.246 0-0.931-0.105-1.837-0.304-2.707l0.016 0.081c-0.238-0.966-0.512-1.788-0.843-2.58l0.043 0.116c-0.393-0.839-0.675-1.812-0.796-2.835l-0.004-0.045c-0.006-0.12-0.010-0.259-0.010-0.4 0-0.886 0.144-1.739 0.41-2.536l-0.016 0.056c0.119-0.283 0.219-0.616 0.283-0.961l0.005-0.031c0-0.416 0-0.448-0.224-0.512s-0.704 0.48-0.928 0.704c-1.026 1.225-2.195 2.282-3.493 3.162l-0.059 0.038c-0.986 0.559-2.167 0.889-3.424 0.889s-2.437-0.33-3.459-0.907l0.035 0.018c-1.426-0.534-2.573-1.536-3.28-2.816l-0.016-0.032c-0.45-0.331-0.991-0.568-1.578-0.669l-0.022-0.003c-0.076-0.005-0.165-0.009-0.254-0.009-0.749 0-1.446 0.218-2.033 0.594l0.015-0.009-1.408 0.896-2.688 1.664-1.184 0.96-1.536 0.96-1.056 0.704-1.568 1.024-2.688 1.632-0.768 0.48c-0.36 0.245-0.801 0.397-1.275 0.416l-0.005 0c-0.256-0.006-0.497-0.065-0.715-0.165l0.011 0.005c-0.553-0.274-0.987-0.719-1.241-1.264l-0.007-0.016c-2.091 0.978-4.518 1.707-7.064 2.064l-0.136 0.016c-0.992 0.16-2.080 0.224-3.2 0.32-1.533 0.063-2.982 0.258-4.386 0.575l0.162-0.031c-1.056 0.256-1.248 0.768-1.344 1.28-0.011 0.079-0.018 0.17-0.018 0.263 0 0.389 0.114 0.752 0.31 1.057l-0.005-0.008c0.327 0.539 0.709 1.002 1.147 1.404l0.005 0.004 1.376 1.024 1.152 0.416v0.32c0.324 0.222 0.701 0.445 1.093 0.645l0.059 0.027 0.128-0.704 1.28 0.256-0.064 0.928 1.312 0.448 0.16-1.248 1.312 0.16v1.44h-0.576c3.978 1.053 8.564 1.701 13.287 1.791l0.057 0.001c3.392 0.16 20.512 0 24 0 0.071 0.001 0.155 0.002 0.24 0.002 2.453 0 4.79-0.495 6.918-1.39l-0.118 0.044c0.382-0.367 0.619-0.883 0.619-1.454 0-0.321-0.075-0.625-0.209-0.894l0.005 0.012z"></path>
</svg>
