<!-- Generated by IcoMoon.io -->
<svg version="1.1" xmlns="http://www.w3.org/2000/svg" width="32" height="32" viewBox="0 0 32 32">
<title>my-location</title>
<path d="M29.344 17.664h-2.688c-0.188 1.22-0.558 2.319-1.084 3.322l0.028-0.058c-1.071 2.031-2.682 3.653-4.644 4.707l-0.060 0.029c-0.945 0.498-2.044 0.868-3.205 1.048l-0.059 0.008v2.656h-3.328v-2.72c-1.22-0.188-2.319-0.558-3.322-1.084l0.058 0.028c-2.014-1.067-3.624-2.667-4.675-4.613l-0.029-0.059c-0.478-0.948-0.826-2.048-0.986-3.209l-0.006-0.055h-2.688v-3.328h2.688c0.166-1.216 0.514-2.316 1.020-3.325l-0.028 0.061c1.079-2.034 2.701-3.657 4.675-4.707l0.061-0.029c0.948-0.478 2.048-0.826 3.209-0.986l0.055-0.006v-2.688h3.328v2.688c1.22 0.188 2.319 0.558 3.322 1.084l-0.058-0.028c2.027 1.063 3.648 2.663 4.707 4.613l0.029 0.059c0.478 0.948 0.826 2.048 0.986 3.209l0.006 0.055h2.688zM12.384 9.44c-0.662 0.334-1.232 0.74-1.73 1.218l0.002-0.002c-0.509 0.487-0.945 1.046-1.293 1.66l-0.019 0.036c-0.328 0.562-0.592 1.213-0.758 1.902l-0.010 0.050h2.656c0.513-1.435 1.63-2.542 3.037-3.030l0.035-0.010v-2.688c-0.73 0.212-1.368 0.506-1.949 0.881l0.029-0.017zM9.44 19.616c0.335 0.662 0.74 1.231 1.218 1.731l-0.002-0.003c0.48 0.505 1.028 0.941 1.629 1.293l0.035 0.019c0.562 0.331 1.214 0.596 1.904 0.759l0.048 0.009v-2.72c-1.429-0.506-2.534-1.611-3.029-3.006l-0.011-0.034h-2.656c0.202 0.742 0.498 1.391 0.88 1.979l-0.016-0.027zM17.184 17.184c0.317-0.308 0.514-0.739 0.514-1.216 0-0.937-0.759-1.696-1.696-1.696s-1.696 0.759-1.696 1.696c0 0.936 0.758 1.695 1.694 1.696h0c0.012 0 0.027 0.001 0.041 0.001 0.448 0 0.852-0.184 1.143-0.48l0-0zM22.528 12.352c-0.328-0.649-0.723-1.207-1.187-1.699l0.003 0.003c-0.485-0.49-1.044-0.906-1.659-1.23l-0.037-0.018c-0.562-0.328-1.213-0.592-1.902-0.758l-0.050-0.010v2.688c1.429 0.506 2.534 1.611 3.029 3.006l0.011 0.034h2.624c-0.182-0.763-0.457-1.435-0.819-2.051l0.019 0.035zM19.616 22.56c0.662-0.336 1.231-0.741 1.731-1.219l-0.003 0.003c0.974-0.961 1.683-2.189 2.006-3.566l0.010-0.050h-2.624c-0.513 1.435-1.63 2.542-3.037 3.030l-0.035 0.010v2.592c0.751-0.178 1.413-0.454 2.015-0.818l-0.031 0.018z"></path>
</svg>
