<!-- Generated by IcoMoon.io -->
<svg version="1.1" xmlns="http://www.w3.org/2000/svg" width="32" height="32" viewBox="0 0 32 32">
<title>phone</title>
<path d="M21.6 27.072c-0.938-0.271-1.756-0.631-2.512-1.083l0.048 0.027c-0.896-0.544-1.856-1.12-2.784-1.792s-1.824-1.344-2.656-2.080c-0.762-0.605-1.44-1.201-2.086-1.83l0.006 0.006c-0.638-0.643-1.245-1.321-1.816-2.029l-0.040-0.051c-0.704-0.832-1.344-1.728-2.016-2.656-0.558-0.763-1.14-1.651-1.678-2.568l-0.082-0.152c-0.41-0.697-0.768-1.502-1.034-2.349l-0.022-0.083-0.832-2.432c-0.033-0.070-0.066-0.155-0.093-0.243l-0.003-0.013c-0.003-0.043-0.005-0.093-0.005-0.144s0.002-0.101 0.006-0.151l-0 0.007v-0.32c0-0.096 0-0.192 0.064-0.32 0.058-0.213 0.123-0.394 0.202-0.568l-0.010 0.024c0.094-0.17 0.2-0.317 0.322-0.45l-0.002 0.002 0.224-0.192s0 0 0 0l0.16-0.096 0.384-0.192 0.224-0.128 3.328-1.12c0.208-0.063 0.447-0.1 0.694-0.1 0.048 0 0.097 0.001 0.144 0.004l-0.007-0c0.295 0.020 0.568 0.1 0.811 0.229l-0.011-0.005c0.251 0.132 0.464 0.304 0.637 0.509l0.003 0.003c0.189 0.221 0.35 0.474 0.472 0.748l0.008 0.020 1.088 3.296c0.069 0.206 0.109 0.443 0.109 0.689 0 0.084-0.005 0.167-0.014 0.249l0.001-0.010c-0.001 0.292-0.072 0.567-0.197 0.81l0.005-0.010c-0.126 0.254-0.299 0.468-0.508 0.637l-0.004 0.003c-0.226 0.2-0.492 0.362-0.782 0.474l-0.018 0.006-0.544 0.192 0.608 1.024c0.224 0.384 0.512 0.8 0.768 1.216s0.672 0.896 1.12 1.344 0.896 1.024 1.44 1.6 0.896 0.704 1.184 0.96c0.196 0.157 0.364 0.336 0.506 0.536l0.006 0.008c0.125 0.175 0.273 0.323 0.442 0.444l0.006 0.004 0.992 0.736 1.28 0.864 1.024 0.608 0.224-0.544c0.079-0.31 0.224-0.578 0.418-0.802l-0.002 0.002c0.196-0.21 0.429-0.382 0.69-0.506l0.014-0.006c0.232-0.124 0.505-0.204 0.794-0.224l0.006-0c0.061-0.008 0.131-0.012 0.202-0.012 0.24 0 0.468 0.052 0.673 0.145l-0.010-0.004 3.328 1.088c0.298 0.099 0.554 0.252 0.77 0.449l-0.002-0.001c0.201 0.192 0.372 0.413 0.505 0.658l0.007 0.014c0.131 0.231 0.212 0.505 0.224 0.797l0 0.003c0.001 0.027 0.002 0.059 0.002 0.091 0 0.277-0.048 0.543-0.135 0.79l0.005-0.017-1.056 3.328-0.128 0.288c-0.044 0.075-0.097 0.138-0.159 0.191l-0.001 0.001-0.32 0.448c-0.148 0.11-0.315 0.216-0.49 0.309l-0.022 0.011c-0.138 0.065-0.308 0.13-0.483 0.184l-0.029 0.008c-0.091 0.017-0.197 0.026-0.304 0.026s-0.213-0.010-0.315-0.028l0.011 0.002h-0.576z"></path>
</svg>
