<!-- Generated by IcoMoon.io -->
<svg version="1.1" xmlns="http://www.w3.org/2000/svg" width="32" height="32" viewBox="0 0 32 32">
<title>pinterest</title>
<path d="M16.8 0c-4.32 0-7.616 1.568-9.824 3.776s-3.296 5.056-3.296 7.712c0 1.6 0.288 3.072 0.928 4.288s1.568 2.208 2.816 2.72c0.128 0.032 0.224 0.064 0.32 0.064 0.16 0 0.352-0.096 0.48-0.224 0.064-0.064 0.128-0.16 0.16-0.288 0-0.128 0.096-0.48 0.192-0.736 0.032-0.128 0.064-0.256 0.096-0.416s0.064-0.256 0.064-0.32c0.032-0.128 0.064-0.224 0.064-0.32 0-0.16-0.032-0.288-0.096-0.448-0.032-0.096-0.096-0.16-0.192-0.256-0.416-0.48-0.704-0.96-0.928-1.568s-0.32-1.216-0.32-2.048c0-2.336 0.832-4.544 2.432-6.144s3.872-2.656 6.624-2.656c2.496 0 4.384 0.736 5.664 1.984s1.952 3.072 1.952 5.056c0 2.656-0.544 5.12-1.6 6.88s-2.464 2.88-4.224 2.88c-0.896 0-1.792-0.416-2.336-1.024s-0.768-1.568-0.512-2.464c0.128-0.608 0.256-1.184 0.448-1.792 0.384-1.216 0.736-2.336 0.992-3.392 0.096-0.512 0.16-0.992 0.16-1.376 0-0.768-0.192-1.44-0.608-1.952s-1.024-0.8-1.888-0.8c-0.992 0-1.824 0.512-2.496 1.376s-1.056 2.016-1.056 3.36c0 0.896 0.16 1.632 0.32 2.112 0.096 0.256 0.16 0.448 0.224 0.608l0.064 0.224-0.32 1.344-0.768 3.104c-0.48 2.048-0.736 3.168-0.768 3.36s-0.192 0.896-0.512 2.176c-0.32 1.504-0.384 3.2-0.32 4.48 0.032 0.672 0.096 1.216 0.16 1.696s0.096 0.736 0.096 0.832 0.096 0.192 0.192 0.192 0.16-0.032 0.256-0.128c0.032-0.032 0.192-0.256 0.48-0.576 0.512-0.736 1.28-1.888 1.984-3.264 0.352-0.672 0.64-1.408 0.832-2.144 0.032-0.224 0.128-0.608 0.288-1.152s0.288-1.088 0.448-1.664 0.288-1.12 0.416-1.568l0.192-0.704c0.32 0.672 0.928 1.216 1.696 1.632s1.792 0.704 2.784 0.704c2.912 0 5.44-1.376 7.168-3.616s2.72-5.376 2.72-9.024c0-2.656-1.12-5.312-3.168-7.264s-4.96-3.232-8.48-3.232z"></path>
</svg>
