<!-- Generated by IcoMoon.io -->
<svg version="1.1" xmlns="http://www.w3.org/2000/svg" width="1145" height="1024" viewBox="0 0 1145 1024">
<title></title>
<g id="icomoon-ignore">
</g>
<path d="M423.936 488.448l43.008 166.912c9.216 16.384 19.456 24.576 27.648 24.576h477.184c21.504 0 39.936 18.432 39.936 39.936s-18.432 38.912-39.936 38.912h-477.184c-43.008 0-78.848-29.696-99.328-72.704l-3.072-7.168-68.608-265.216-2.048-6.144-41.984-163.84v-2.048c-1.024 0-1.024-1.024-1.024-1.024l-30.72-119.808c-2.048-7.168-22.528-21.504-30.72-21.504h-156.672c-21.504 0-38.912-17.408-38.912-38.912s17.408-38.912 38.912-38.912h156.672c41.984 0 94.208 34.816 106.496 79.872l31.744 120.832 41.984 164.864c9.216 15.36 18.432 22.528 25.6 22.528h495.616c8.192 0 21.504-11.264 26.624-23.552l96.256-279.552c-2.048-4.096-6.144-7.168-9.216-7.168h-530.432c-21.504 0-38.912-17.408-38.912-38.912s17.408-38.912 38.912-38.912h530.432c48.128 0 88.064 39.936 88.064 89.088l-2.048 12.288-99.328 290.816c-18.432 41.984-57.344 74.752-100.352 74.752h-494.592zM591.872 908.288c0 45.056-35.84 80.896-78.848 80.896-44.032 0-78.848-35.84-78.848-80.896s34.816-80.896 78.848-80.896c43.008 0 78.848 35.84 78.848 80.896M1008.64 908.288c0 45.056-35.84 80.896-78.848 80.896-44.032 0-78.848-35.84-78.848-80.896s34.816-80.896 78.848-80.896c43.008 0 78.848 35.84 78.848 80.896"></path>
</svg>
