<!-- Generated by IcoMoon.io -->
<svg version="1.1" xmlns="http://www.w3.org/2000/svg" width="32" height="32" viewBox="0 0 32 32">
<title>reminder-default</title>
<path d="M17.152 25.92h1.152c0 1.29-1.046 2.336-2.336 2.336s-2.336-1.046-2.336-2.336v0h1.216c0 0.636 0.516 1.152 1.152 1.152v0 0c0.629-0.017 1.135-0.523 1.152-1.15l0-0.002zM28 24.736h-24l2.656-5.6 1.792-3.84v-4c0-4.189 3.395-7.584 7.584-7.584s7.584 3.395 7.584 7.584v0 4l0.224 0.512 1.504 3.328zM16 23.584h10.176l-0.544-1.184-3.136-6.784-0.128-0.224v-4.064c0-3.543-2.873-6.416-6.416-6.416s-6.416 2.873-6.416 6.416v0 4.32l-3.168 6.752-0.544 1.184z"></path>
</svg>
