<!-- Generated by IcoMoon.io -->
<svg version="1.1" xmlns="http://www.w3.org/2000/svg" width="32" height="32" viewBox="0 0 32 32">
<title>search</title>
<path d="M31.136 27.584l-5.728-5.696c1.568-2.24 2.464-4.96 2.464-7.904 0-7.648-6.208-13.856-13.856-13.856s-13.888 6.208-13.888 13.856 6.208 13.888 13.888 13.888c2.912 0 5.632-0.896 7.872-2.464l5.696 5.728c0.992 0.96 2.56 0.96 3.552 0v0c0.96-0.992 0.96-2.56 0-3.552zM14.016 23.136c-5.056 0-9.152-4.096-9.152-9.152s4.096-9.12 9.152-9.12 9.12 4.096 9.12 9.12-4.096 9.152-9.12 9.152z"></path>
</svg>
