<!-- Generated by IcoMoon.io -->
<svg version="1.1" xmlns="http://www.w3.org/2000/svg" width="32" height="32" viewBox="0 0 32 32">
<title>ticket</title>
<path d="M30.016 18.816l-3.264-12.256c-0.192-0.64-0.864-1.024-1.504-0.864l-5.856 1.568c-0.032 0.32-0.256 0.576-0.544 0.672s-0.608-0.064-0.8-0.32l-15.2 4.096c-0.672 0.16-1.056 0.832-0.864 1.472l1.248 4.736c0.064-0.032 0.096-0.032 0.128-0.064 0.96-0.256 1.952 0.352 2.24 1.312s-0.32 1.984-1.28 2.24c-0.064 0-0.096 0-0.128 0.032l1.056 4c0.192 0.64 0.864 1.024 1.504 0.864l15.168-4.064c-0.096-0.416 0.128-0.8 0.512-0.896s0.8 0.128 0.896 0.512v0l5.856-1.568c0.64-0.16 1.024-0.832 0.832-1.472zM18.528 9.536c-0.096-0.416 0.128-0.8 0.512-0.896 0.384-0.128 0.768 0.128 0.896 0.512s-0.128 0.768-0.512 0.896c-0.384 0.096-0.8-0.128-0.896-0.512zM19.104 11.648c-0.128-0.384 0.096-0.8 0.512-0.896 0.384-0.096 0.768 0.128 0.864 0.512s-0.128 0.8-0.512 0.896c-0.384 0.096-0.768-0.128-0.864-0.512zM19.648 13.76c-0.096-0.384 0.128-0.8 0.512-0.896s0.8 0.128 0.896 0.512-0.128 0.8-0.512 0.896c-0.384 0.096-0.768-0.128-0.896-0.512zM20.224 15.872c-0.096-0.384 0.128-0.8 0.512-0.896s0.8 0.128 0.896 0.512-0.128 0.8-0.512 0.896c-0.384 0.128-0.8-0.128-0.896-0.512zM20.8 17.984c-0.128-0.384 0.128-0.768 0.512-0.896 0.384-0.096 0.768 0.128 0.896 0.544s-0.128 0.768-0.512 0.896c-0.416 0.096-0.8-0.128-0.896-0.544zM22.24 20.64c-0.384 0.096-0.768-0.128-0.896-0.512s0.128-0.8 0.512-0.896c0.416-0.128 0.8 0.128 0.896 0.512 0.128 0.384-0.128 0.8-0.512 0.896z"></path>
</svg>
