<!-- Generated by IcoMoon.io -->
<svg version="1.1" xmlns="http://www.w3.org/2000/svg" width="32" height="32" viewBox="0 0 32 32">
<title>twitter</title>
<path d="M0.8 13.76c0 1.632 0.704 2.816 1.728 3.776s2.464 1.44 3.968 1.76c-0.16 0-0.32 0.064-0.416 0.16-0.192 0.224-0.544 0.256-1.184 0.352-0.288 0.032-0.704 0.032-1.216-0.064 0.416 1.408 1.184 2.208 2.24 2.848s2.368 0.736 3.776 0.832c-1.152 0.864-2.4 1.536-3.776 1.888s-2.848 0.544-4.352 0.448c-0.128 0.032-0.256 0.064-0.416 0.032s-0.288-0.032-0.416 0-0.224 0-0.352-0.032-0.256-0.032-0.384 0c0.736 0.384 1.472 0.864 2.24 1.344 1.6 0.96 3.264 1.6 5.024 2.048 0.864 0.224 1.76 0.32 2.688 0.288 5.984 0.096 10.368-2.272 13.344-5.664s4.384-7.936 4.384-12.288v-0.928c0.608-0.416 1.44-1.024 2.208-1.632s1.472-1.344 1.856-1.92c-0.576 0.16-1.216 0.256-1.856 0.192-0.352-0.032-0.672-0.064-1.024-0.064h-0.928c0.672-0.352 1.344-0.928 1.984-1.536s1.056-1.568 1.152-2.72c-0.288 0.16-0.64 0.384-0.992 0.576s-0.768 0.448-1.152 0.608-0.736 0.352-1.152 0.544-0.768 0.288-1.152 0.32c-0.576-0.576-1.312-1.28-2.080-1.664s-1.664-0.736-2.656-0.64c-1.76-0.096-3.264 0.864-4.288 2.144s-1.664 3.168-1.664 4.928v0.736l0.032 0.32 0.096 0.384c-2.752-0.256-5.504-0.704-8-1.728s-4.704-2.432-6.304-4.544c-0.352 0.608-0.544 1.056-0.704 1.632s-0.192 1.056-0.192 1.824c0 1.088 0.416 2.272 1.088 3.168s1.504 1.824 2.368 2.336c-0.512 0.096-0.8 0.128-1.152 0.256-0.192 0.064-0.48 0.064-0.832 0s-0.864-0.16-1.536-0.256v-0.064z"></path>
</svg>
