<!-- Generated by IcoMoon.io -->
<svg version="1.1" xmlns="http://www.w3.org/2000/svg" width="32" height="32" viewBox="0 0 32 32">
<title>user</title>
<path d="M21.344 9.344c0 2.944-2.4 5.312-5.344 5.312s-5.344-2.368-5.344-5.312c0-2.944 2.4-5.344 5.344-5.344s5.344 2.4 5.344 5.344zM25.472 28c0.128-1.344 0.128-2.144 0.128-2.944 0-4-1.472-7.712-3.872-9.856-1.472 1.472-3.456 2.272-5.728 2.272s-4.256-0.928-5.728-2.528c-2.4 2.112-3.872 6.112-3.872 10.112 0 0.8 0.128 1.6 0.128 2.944h18.944z"></path>
</svg>
