<!-- Generated by IcoMoon.io -->
<svg version="1.1" xmlns="http://www.w3.org/2000/svg" width="39" height="32" viewBox="0 0 39 32">
<title>waterproof</title>
<path d="M24.192 28.832c-0.379-0.010-0.742-0.056-1.093-0.135l0.037 0.007 0.16-0.832c0.279 0.086 0.599 0.135 0.93 0.135 1.636 0 2.991-1.204 3.227-2.773l0.002-0.018 0.896 0.192c-0.289 1.95-1.951 3.429-3.959 3.429-0.071 0-0.141-0.002-0.211-0.005l0.010 0zM22.944 20.192l10.208-2.4-2.464 9.792c-0.527 2.050-2.11 3.633-4.12 4.151l-0.040 0.009c-0.485 0.147-1.045 0.24-1.623 0.256l-0.009 0c-0.017 0-0.037 0-0.058 0-1.75 0-3.341-0.682-4.522-1.795l0.003 0.003c-1.178-1.096-1.913-2.655-1.913-4.386 0-0.569 0.079-1.119 0.228-1.64l-0.010 0.042c0.594-2.035 2.233-3.578 4.282-4.025l0.038-0.007zM23.36 21.856c-1.447 0.314-2.585 1.378-3.001 2.756l-0.007 0.028c-0.099 0.343-0.156 0.737-0.156 1.145 0 1.241 0.527 2.358 1.369 3.141l0.003 0.002c0.847 0.828 2.007 1.338 3.286 1.338 0.424 0 0.836-0.056 1.227-0.162l-0.033 0.008c1.419-0.366 2.514-1.461 2.874-2.852l0.006-0.028 1.76-7.104zM19.104 15.296c-0.833 3.152-3.274 5.582-6.37 6.386l-0.062 0.014c-0.777 0.221-1.669 0.349-2.591 0.352h-0.001c-2.762-0.008-5.266-1.104-7.107-2.883l0.003 0.003c-1.822-1.704-2.958-4.123-2.958-6.808 0-0.88 0.122-1.731 0.35-2.538l-0.016 0.066c0.956-3.135 3.513-5.5 6.694-6.166l0.058-0.010 15.84-3.712zM17.056 14.816l3.040-12.064-12.544 2.912c-2.488 0.534-4.449 2.356-5.171 4.719l-0.013 0.049c-0.169 0.586-0.266 1.26-0.266 1.957 0 2.136 0.914 4.059 2.373 5.399l0.005 0.005c1.446 1.389 3.414 2.245 5.582 2.245 0.723 0 1.423-0.095 2.090-0.273l-0.056 0.013c2.442-0.632 4.328-2.518 4.949-4.912l0.011-0.048zM6.912 16l-0.448 0.736c1.026 0.571 2.244 0.922 3.541 0.96l0.011 0c0.017 0 0.036 0 0.056 0 2.455 0 4.583-1.404 5.624-3.452l0.017-0.036-0.8-0.416c-0.975 1.821-2.864 3.039-5.038 3.039-1.095 0-2.118-0.309-2.986-0.845l0.025 0.014zM39.104 0l-2.56 10.208c-0.553 2.108-2.18 3.735-4.247 4.279l-0.041 0.009c-0.536 0.159-1.152 0.252-1.79 0.256h-0.002c-1.818-0.023-3.462-0.751-4.674-1.922l0.002 0.002c-1.242-1.139-2.018-2.769-2.018-4.581 0-0.591 0.082-1.162 0.237-1.703l-0.011 0.044c0.635-2.075 2.313-3.647 4.408-4.12l0.040-0.008zM36.576 2.432l-7.648 1.792c-1.494 0.326-2.67 1.426-3.096 2.851l-0.008 0.029c-0.105 0.359-0.165 0.772-0.165 1.199 0 1.297 0.555 2.465 1.441 3.278l0.003 0.003c0.88 0.851 2.080 1.375 3.402 1.375 0.44 0 0.866-0.058 1.272-0.167l-0.034 0.008c1.471-0.389 2.603-1.532 2.97-2.979l0.006-0.029zM28.672 10.432l-0.224 0.832c0.411 0.115 0.884 0.185 1.372 0.192l0.004 0c0.008 0 0.016 0 0.025 0 0.566 0 1.107-0.106 1.605-0.298l-0.030 0.010c1.201-0.52 2.086-1.574 2.363-2.853l0.005-0.027-0.896-0.224c-0.358 1.462-1.657 2.529-3.206 2.529-0.364 0-0.714-0.059-1.042-0.168l0.023 0.007z"></path>
</svg>
