<!-- Generated by IcoMoon.io -->
<svg version="1.1" xmlns="http://www.w3.org/2000/svg" width="23" height="32" viewBox="0 0 23 32">
<title>weight</title>
<path d="M23.264 8.736c0-0.011 0-0.023 0-0.036 0-1.882-0.536-3.638-1.464-5.125l0.024 0.041c-1.049-1.427-2.555-2.465-4.3-2.901l-0.052-0.011c-1.649-0.449-3.542-0.706-5.496-0.706-0.115 0-0.231 0.001-0.346 0.003l0.017-0c-0.098-0.002-0.213-0.002-0.328-0.002-1.953 0-3.847 0.258-5.648 0.741l0.152-0.035c-1.797 0.447-3.303 1.485-4.337 2.891l-0.015 0.021c-0.921 1.453-1.469 3.222-1.472 5.119v0.001c0.061 2.81 1.157 5.352 2.919 7.272l-0.007-0.008c-1.704 1.929-2.754 4.471-2.784 7.258l-0 0.006c0 0.007-0 0.014-0 0.022 0 2.906 1.16 5.541 3.042 7.468l-0.002-0.002 0.128 0.096h0.128c2.346 0.734 5.043 1.157 7.839 1.157 0.18 0 0.361-0.002 0.54-0.005l-0.027 0c0.205 0.005 0.447 0.008 0.689 0.008 2.504 0 4.936-0.306 7.261-0.883l-0.207 0.043 0.32-0.128 0.192-0.128c1.938-1.935 3.136-4.609 3.136-7.563 0-0.030-0-0.059-0-0.089l0 0.005c-0.039-2.797-1.1-5.338-2.826-7.275l0.010 0.011c1.755-1.912 2.851-4.454 2.912-7.252l0-0.012zM2.528 13.088c-0.708-1.255-1.142-2.749-1.184-4.34l-0-0.012c-0-0.029-0.001-0.063-0.001-0.096 0-1.583 0.44-3.063 1.205-4.325l-0.021 0.037c0.87-1.161 2.109-2.005 3.541-2.359l0.043-0.009c1.525-0.41 3.277-0.645 5.083-0.645 0.159 0 0.318 0.002 0.476 0.005l-0.024-0c0.126-0.003 0.274-0.004 0.423-0.004 1.806 0 3.556 0.235 5.223 0.676l-0.142-0.032c1.464 0.338 2.701 1.148 3.574 2.258l0.010 0.014c0.744 1.224 1.184 2.704 1.184 4.287 0 0.023-0 0.046-0 0.068l0-0.004c-0.009 1.644-0.434 3.186-1.177 4.529l0.025-0.049c-0.23-0.295-0.493-0.548-0.789-0.76l-0.011-0.008c-0.303-0.201-0.654-0.365-1.029-0.473l-0.027-0.007c0.404-0.902 0.64-1.955 0.64-3.063 0-0.014-0-0.029-0-0.043v0.002c0.005-0.071 0.007-0.155 0.007-0.239 0-1.255-0.573-2.376-1.472-3.115l-0.007-0.006c-0.821-0.568-1.813-0.948-2.886-1.054l-0.026-0.002c-1.063-0.173-2.288-0.272-3.536-0.272s-2.473 0.099-3.668 0.29l0.132-0.017c-1.099 0.108-2.091 0.488-2.933 1.070l0.021-0.014c-0.888 0.745-1.449 1.855-1.449 3.096 0 0.093 0.003 0.185 0.009 0.277l-0.001-0.012c0.001 1.161 0.26 2.261 0.724 3.247l-0.020-0.047c-0.426 0.119-0.799 0.295-1.134 0.521l0.014-0.009c-0.305 0.184-0.568 0.396-0.798 0.638l-0.002 0.002zM5.088 8.736c-0.008-0.079-0.013-0.171-0.013-0.264 0-0.825 0.363-1.565 0.938-2.069l0.003-0.003c0.656-0.42 1.441-0.696 2.285-0.767l0.018-0.001c0.995-0.162 2.143-0.255 3.312-0.255s2.316 0.093 3.435 0.271l-0.123-0.016c0.863 0.072 1.648 0.348 2.324 0.78l-0.020-0.012c0.578 0.507 0.941 1.247 0.941 2.072 0 0.093-0.005 0.185-0.014 0.276l0.001-0.011c-0.005 1.691-0.675 3.225-1.762 4.354l0.002-0.002c-1.406-0.649-3.051-1.028-4.784-1.028s-3.378 0.379-4.856 1.058l0.072-0.030c-1.085-1.127-1.755-2.661-1.76-4.351v-0.001zM5.632 13.728c-0.687 0.423-1.284 0.877-1.832 1.383l0.008-0.007c-0.309-0.384-0.605-0.812-0.869-1.262l-0.027-0.050c0.214-0.341 0.481-0.628 0.792-0.858l0.008-0.006c0.302-0.201 0.656-0.356 1.034-0.444l0.022-0.004c0.267 0.46 0.552 0.858 0.872 1.225l-0.008-0.009zM18.528 12.512c0.4 0.092 0.754 0.247 1.068 0.455l-0.012-0.007c0.321 0.245 0.588 0.543 0.792 0.882l0.008 0.014c-0.292 0.473-0.588 0.88-0.91 1.265l0.014-0.017c-0.54-0.499-1.137-0.953-1.774-1.347l-0.050-0.029c0.314-0.375 0.6-0.794 0.844-1.24l0.020-0.040zM21.824 23.264c0 0.004 0 0.010 0 0.015 0 2.552-1.026 4.864-2.689 6.546l0.001-0.001c-2.005 0.493-4.307 0.776-6.674 0.776-0.241 0-0.482-0.003-0.721-0.009l0.036 0.001c-0.223 0.007-0.486 0.010-0.749 0.010-2.476 0-4.874-0.331-7.154-0.95l0.191 0.044c-1.596-1.67-2.581-3.935-2.592-6.43v-0.002c0.108-5.502 4.593-9.92 10.11-9.92 0.023 0 0.046 0 0.069 0l-0.004-0c0.020-0 0.043-0 0.066-0 5.517 0 10.003 4.419 10.11 9.91l0 0.010z"></path>
</svg>
