<!-- Generated by IcoMoon.io -->
<svg version="1.1" xmlns="http://www.w3.org/2000/svg" width="32" height="32" viewBox="0 0 32 32">
<title>windproof</title>
<path d="M23.264 20.352h-23.264v1.472h23.264c2.404 0 4.352 1.948 4.352 4.352s-1.948 4.352-4.352 4.352c-2.404 0-4.352-1.948-4.352-4.352v0c0.004-0.517 0.097-1.012 0.266-1.47l-0.010 0.030h-1.44c-0.115 0.432-0.181 0.928-0.181 1.439 0 3.216 2.607 5.824 5.824 5.824s5.824-2.608 5.824-5.824c0-3.216-2.608-5.824-5.824-5.824-0.038 0-0.075 0-0.113 0.001l0.006-0zM18.912 5.824c0-3.216-2.608-5.824-5.824-5.824s-5.824 2.607-5.824 5.824v0c0.015 0.519 0.096 1.012 0.234 1.481l-0.010-0.041h1.44c-0.123-0.385-0.195-0.828-0.195-1.287 0-0.054 0.001-0.107 0.003-0.161l-0 0.008c0-2.404 1.948-4.352 4.352-4.352s4.352 1.948 4.352 4.352c0 2.404-1.948 4.352-4.352 4.352v0h-13.088v1.472h13.088c3.216 0 5.824-2.607 5.824-5.824v0zM26.176 5.824c-3.198 0.024-5.781 2.623-5.781 5.824 0 0.512 0.066 1.008 0.19 1.481l-0.009-0.041h1.44c-0.123-0.385-0.195-0.828-0.195-1.287 0-0.054 0.001-0.107 0.003-0.161l-0 0.008c0-2.404 1.948-4.352 4.352-4.352s4.352 1.948 4.352 4.352c0 2.404-1.948 4.352-4.352 4.352v0h-26.176v1.44h26.176c3.025-0.232 5.393-2.743 5.393-5.808s-2.367-5.577-5.373-5.807l-0.020-0.001z"></path>
</svg>
