<!-- Generated by IcoMoon.io -->
<svg version="1.1" xmlns="http://www.w3.org/2000/svg" width="32" height="32" viewBox="0 0 32 32">
<title>youtube</title>
<path d="M31.456 8.448c-0.384-1.728-1.792-2.976-3.456-3.168-3.968-0.448-8-0.448-12-0.448s-8 0-11.968 0.448c-1.696 0.192-3.072 1.44-3.456 3.168-0.576 2.4-0.576 5.056-0.576 7.552s0 5.152 0.544 7.552c0.416 1.728 1.792 2.976 3.456 3.168 4 0.416 8 0.448 12 0.416 4 0.032 8 0 11.968-0.416 1.696-0.192 3.072-1.44 3.488-3.168 0.544-2.4 0.544-5.056 0.544-7.552s0-5.152-0.544-7.552zM11.872 20.96v-10.592c3.392 1.792 6.752 3.552 10.176 5.312-3.392 1.792-6.784 3.52-10.176 5.28z"></path>
</svg>
