<!-- Generated by IcoMoon.io -->
<svg version="1.1" xmlns="http://www.w3.org/2000/svg" width="32" height="32" viewBox="0 0 32 32">
<title>zoom-in</title>
<path d="M23.264 21.856c1.568-1.888 2.528-4.32 2.528-6.976 0-6.016-4.896-10.88-10.912-10.88s-10.88 4.864-10.88 10.88 4.864 10.912 10.88 10.912c2.656 0 5.088-0.96 6.976-2.528l4.8 4.768 1.408-1.376-4.8-4.8zM14.88 23.584c-4.8 0-8.672-3.904-8.672-8.704s3.872-8.704 8.672-8.704 8.704 3.904 8.704 8.704-3.904 8.704-8.704 8.704zM16 9.984h-1.984v4h-4v2.016h4v4h1.984v-4h4v-2.016h-4z"></path>
</svg>
