<svg id="Layer_2" data-name="Layer 2" xmlns="http://www.w3.org/2000/svg" viewBox="0 0 24 24"><title>0</title><polygon points="19.36 21 4.64 21 2.01 4.15 3.99 3.85 6.36 19 17.64 19 20.01 3.85 21.99 4.15 19.36 21"/><rect x="11.5" y="-0.73" width="1" height="25.46" transform="translate(-4.97 12) rotate(-45)"/><rect x="-0.73" y="11.5" width="25.46" height="1" transform="translate(-4.97 12) rotate(-45)"/><path d="M18,7.75a2.39,2.39,0,0,1-1.84-.9,1.35,1.35,0,0,0-2.25,0,2.32,2.32,0,0,1-3.67,0,1.44,1.44,0,0,0-1.12-.6A1.44,1.44,0,0,0,8,6.85a2.39,2.39,0,0,1-1.83.9,2.39,2.39,0,0,1-1.83-.9,1.44,1.44,0,0,0-1.12-.6v-1a2.39,2.39,0,0,1,1.83.9,1.44,1.44,0,0,0,1.12.6,1.44,1.44,0,0,0,1.12-.6,2.32,2.32,0,0,1,3.67,0,1.35,1.35,0,0,0,2.24,0,2.32,2.32,0,0,1,3.67,0,1.35,1.35,0,0,0,2.25,0A2.4,2.4,0,0,1,21,5.25v1a1.44,1.44,0,0,0-1.13.6A2.4,2.4,0,0,1,18,7.75Z"/></svg>