<svg id="Layer_2" data-name="Layer 2" xmlns="http://www.w3.org/2000/svg" viewBox="0 0 24 24"><title>0</title><polygon points="19.36 21.68 4.64 21.68 2.01 4.1 3.99 3.79 6.36 19.64 17.64 19.64 20.01 3.79 21.99 4.1 19.36 21.68"/><path d="M18,7.91a2.31,2.31,0,0,1-1.86-1.08c-.38-.46-.61-.71-1.1-.71s-.72.26-1.1.71a2.31,2.31,0,0,1-1.86,1.08,2.31,2.31,0,0,1-1.86-1.08c-.38-.46-.61-.71-1.1-.71s-.72.26-1.1.71A2.31,2.31,0,0,1,6.21,7.91,2.31,2.31,0,0,1,4.35,6.83c-.38-.46-.61-.71-1.1-.71v-1A2.31,2.31,0,0,1,5.11,6.17c.38.46.61.71,1.1.71s.72-.26,1.1-.71A2.31,2.31,0,0,1,9.16,5.1,2.3,2.3,0,0,1,11,6.17c.38.46.61.71,1.1.71s.72-.26,1.1-.71A2.31,2.31,0,0,1,15.08,5.1a2.31,2.31,0,0,1,1.86,1.08c.38.46.61.71,1.1.71s.72-.26,1.1-.71A2.31,2.31,0,0,1,21,5.1v1c-.48,0-.72.26-1.1.71A2.31,2.31,0,0,1,18,7.91Z"/><path d="M18,4.25a6.88,6.88,0,0,0-4.89-2h-.86L12,3.34a10.61,10.61,0,0,1-1,3.33l-.19.06-.19.06A4.6,4.6,0,0,0,8.84,8a1.13,1.13,0,0,1-.58.37,2.14,2.14,0,0,0-.68.27,1.31,1.31,0,0,0-.38,1.94,2,2,0,0,0,.61.53,2.59,2.59,0,0,0,.71.27L7.47,13.7A1.85,1.85,0,0,0,7.35,15l0,.16.34.5.15.1a1.67,1.67,0,0,0,.57.29,1.57,1.57,0,0,0,1.87,1l.19-.07a1.56,1.56,0,0,0,.78.21l.22,0a1.46,1.46,0,0,0,.72-.32,1.54,1.54,0,0,0,.6.09,1.44,1.44,0,0,0,1.21-.82l.1-.19.2-.44.86-1.85a10,10,0,0,0,1-3.84,3.06,3.06,0,0,1,.12-.65,12.17,12.17,0,0,1,1.31-2.92l.85-1.43ZM15.4,8.9a4,4,0,0,0-.16.89,9.07,9.07,0,0,1-.92,3.45l-1.06,2.29c0,.07-.07.13-.11.2a.49.49,0,0,1-.83,0,.37.37,0,0,1,0-.36L13,13.66l.16-.36L13,13.23l-.06.13c-.4.84-.8,1.68-1.19,2.52a.53.53,0,0,1-.88.13.48.48,0,0,1-.06-.55l.45-1,.65-1.47,0-.11-.14-.06-.41.88c-.34.71-.67,1.42-1,2.12a.51.51,0,0,1-.79.22.51.51,0,0,1-.18-.66c.17-.4.33-.8.51-1.2.25-.56.51-1.12.77-1.68l0-.08-.15-.07L10,13.61c-.18.37-.37.73-.54,1.1a.59.59,0,0,1-.95.2l-.06,0-.11-.17a.83.83,0,0,1,.07-.58l1.8-4,.06-.13a4.4,4.4,0,0,1-.39.21,1.71,1.71,0,0,1-1.56,0A1,1,0,0,1,8,9.94a.27.27,0,0,1,.09-.41,1.18,1.18,0,0,1,.37-.15,2.08,2.08,0,0,0,1.1-.65A4.62,4.62,0,0,1,10.43,8a2.42,2.42,0,0,0,1.7.67,2.51,2.51,0,0,0,1.8-.76,1.55,1.55,0,0,1,1.16-.52,1.32,1.32,0,0,1,.77.21A10.26,10.26,0,0,0,15.4,8.9ZM8.62,10.39h0Z"/><path d="M15.57,7.47a10.64,10.64,0,0,0-.47,1.34,4.3,4.3,0,0,0-.17,1A8.7,8.7,0,0,1,14,13.1l-1,2.06-.1.22,0,.09-.06.1a.1.1,0,0,1-.09.06.26.26,0,0,1-.21-.09s0,0,0-.06l.71-1.69.1-.24.17-.4-.67-.34-.16.32,0,.09-.34.71-.85,1.81a.2.2,0,0,1-.15.13.26.26,0,0,1-.22-.07s-.06-.07,0-.21l.45-1,.43-1,.22-.49,0-.09.13-.33-.7-.29-.26.56-.28.59-.17.37c-.27.58-.56,1.17-.84,1.75a.25.25,0,0,1-.14.14.24.24,0,0,1-.19,0c-.07,0-.13-.11-.06-.27.19-.47.35-.84.51-1.19l.53-1.17.23-.51,0-.06.13-.32-.7-.33-.32.67-.44.91-.19.38c-.12.24-.24.48-.35.73a.27.27,0,0,1-.18.17.34.34,0,0,1-.29-.08l0,0,0-.07a.54.54,0,0,1,.06-.31l1.26-2.77.54-1.19,0-.07L11,9.27l-.86.47L10,9.83l-.22.12a1.4,1.4,0,0,1-1.29,0,.73.73,0,0,1-.18-.14.81.81,0,0,1,.23-.09A2.42,2.42,0,0,0,9.76,9a4.06,4.06,0,0,1,.93-.74c-.14-.1-.26-.2-.37-.3l-.15-.13a5.14,5.14,0,0,0-.85.72,1.75,1.75,0,0,1-.94.56,1.44,1.44,0,0,0-.46.19.61.61,0,0,0-.3.41.6.6,0,0,0,.12.48,1.35,1.35,0,0,0,.4.35,1.92,1.92,0,0,0,1.47.17l-.25.56L8.1,14a1.14,1.14,0,0,0-.09.8v0l.17.26.09.06a1,1,0,0,0,.82.21.81.81,0,0,0,.35.9.84.84,0,0,0,.7.13.82.82,0,0,0,.42-.28l.09.12a.88.88,0,0,0,.77.28.81.81,0,0,0,.63-.49l0-.07a.88.88,0,0,0,.72.33h.11a.72.72,0,0,0,.5-.39l0-.07.07-.14.1-.22,1-2.07a9.32,9.32,0,0,0,1-3.57A3.69,3.69,0,0,1,15.7,9a9.87,9.87,0,0,1,.41-1.18A1.68,1.68,0,0,0,15.57,7.47Z"/></svg>