<svg id="Layer_2" data-name="Layer 2" xmlns="http://www.w3.org/2000/svg" viewBox="0 0 24 24"><title>0</title><polygon points="19.34 18.63 4.66 18.63 2.02 3.67 3.98 3.33 6.34 16.63 17.66 16.63 20.02 3.33 21.98 3.67 19.34 18.63"/><rect x="4.63" y="19.5" width="14.75" height="2"/><path d="M18,8.25a2.39,2.39,0,0,1-1.84-.9,1.35,1.35,0,0,0-2.25,0,2.32,2.32,0,0,1-3.67,0,1.44,1.44,0,0,0-1.12-.6A1.44,1.44,0,0,0,8,7.35a2.39,2.39,0,0,1-1.83.9,2.39,2.39,0,0,1-1.83-.9,1.44,1.44,0,0,0-1.12-.6v-1a2.39,2.39,0,0,1,1.83.9,1.44,1.44,0,0,0,1.12.6,1.44,1.44,0,0,0,1.12-.6,2.32,2.32,0,0,1,3.67,0,1.35,1.35,0,0,0,2.24,0,2.32,2.32,0,0,1,3.67,0,1.35,1.35,0,0,0,2.25,0A2.4,2.4,0,0,1,21,5.75v1a1.44,1.44,0,0,0-1.13.6A2.4,2.4,0,0,1,18,8.25Z"/><path d="M11.67,13.35a1.56,1.56,0,0,1-.52,1.26A1.92,1.92,0,0,1,9.86,15a2.41,2.41,0,0,1-.68-.1,1.61,1.61,0,0,1-.58-.3,1.47,1.47,0,0,1-.4-.53A1.85,1.85,0,0,1,8,13.37h1a.71.71,0,0,0,.23.56.81.81,0,0,0,.55.19.76.76,0,0,0,.56-.21.78.78,0,0,0,.21-.58.77.77,0,0,0-.21-.57.8.8,0,0,0-.59-.21H9.68v-.9h.15a.7.7,0,0,0,.54-.2.73.73,0,0,0,.18-.52.71.71,0,0,0-.2-.54.74.74,0,0,0-1,0,.71.71,0,0,0-.21.5h-1A1.56,1.56,0,0,1,8.62,9.7a1.79,1.79,0,0,1,1.23-.44,2,2,0,0,1,.7.12,1.67,1.67,0,0,1,.55.34,1.5,1.5,0,0,1,.36.52,1.68,1.68,0,0,1,.13.66,1.36,1.36,0,0,1-.18.72,1.22,1.22,0,0,1-.48.45,1.38,1.38,0,0,1,.54.5A1.49,1.49,0,0,1,11.67,13.35Z"/><path d="M15.84,13.35a1.59,1.59,0,0,1-.5,1.24,1.89,1.89,0,0,1-2.46,0,1.59,1.59,0,0,1-.5-1.24V11a1.59,1.59,0,0,1,.5-1.24,1.89,1.89,0,0,1,2.46,0,1.6,1.6,0,0,1,.5,1.24Zm-1,0V11a.82.82,0,0,0-.19-.56.64.64,0,0,0-.5-.21.65.65,0,0,0-.5.21.81.81,0,0,0-.19.56v2.38a.8.8,0,0,0,.19.56.65.65,0,0,0,.5.21.64.64,0,0,0,.5-.21A.81.81,0,0,0,14.8,13.34Z"/></svg>