<svg id="Layer_2" data-name="Layer 2" xmlns="http://www.w3.org/2000/svg" viewBox="0 0 24 24"><defs><style>.cls-1{font-size:8px;font-family:AdiHaus-Bold, AdiHaus;font-weight:700;}</style></defs><title>0</title><polygon points="19.3 16 4.7 16 2.02 3.97 3.98 3.53 6.3 14 17.7 14 20.02 3.53 21.98 3.97 19.3 16"/><rect x="4" y="20" width="16" height="2"/><rect x="4" y="17" width="16" height="2"/><path d="M18,6.2a2.44,2.44,0,0,1-1.83-.84,1.43,1.43,0,0,0-2.27,0,2.4,2.4,0,0,1-3.64,0A1.42,1.42,0,0,0,8,5.36a2.4,2.4,0,0,1-3.64,0A1.48,1.48,0,0,0,3.25,4.8v-1a2.43,2.43,0,0,1,1.82.84,1.42,1.42,0,0,0,2.27,0,2.4,2.4,0,0,1,3.64,0,1.42,1.42,0,0,0,2.27,0,2.41,2.41,0,0,1,3.65,0,1.43,1.43,0,0,0,2.28,0A2.44,2.44,0,0,1,21,3.8v1a1.48,1.48,0,0,0-1.14.56A2.44,2.44,0,0,1,18,6.2Z"/><text class="cls-1" transform="translate(8.28 13)">40</text></svg>