<svg id="Layer_2" data-name="Layer 2" xmlns="http://www.w3.org/2000/svg" viewBox="0 0 24 24"><title>0</title><polygon points="19.34 18.63 4.66 18.63 2.02 3.67 3.98 3.33 6.34 16.63 17.66 16.63 20.02 3.33 21.98 3.67 19.34 18.63"/><rect x="4.63" y="19.5" width="14.75" height="2"/><path d="M18,8.25a2.39,2.39,0,0,1-1.84-.9,1.35,1.35,0,0,0-2.25,0,2.32,2.32,0,0,1-3.67,0,1.44,1.44,0,0,0-1.12-.6A1.44,1.44,0,0,0,8,7.35a2.39,2.39,0,0,1-1.83.9,2.39,2.39,0,0,1-1.83-.9,1.44,1.44,0,0,0-1.12-.6v-1a2.39,2.39,0,0,1,1.83.9,1.44,1.44,0,0,0,1.12.6,1.44,1.44,0,0,0,1.12-.6,2.32,2.32,0,0,1,3.67,0,1.35,1.35,0,0,0,2.24,0,2.32,2.32,0,0,1,3.67,0,1.35,1.35,0,0,0,2.25,0A2.4,2.4,0,0,1,21,5.75v1a1.44,1.44,0,0,0-1.13.6A2.4,2.4,0,0,1,18,8.25Z"/><path d="M11.81,14.19h-.52V15h-1v-.81H8v-1l2-3.9H11l-2,3.9h1.19V12.14h1v1.06h.52Z"/><path d="M15.84,13.35a1.59,1.59,0,0,1-.5,1.24,1.89,1.89,0,0,1-2.46,0,1.59,1.59,0,0,1-.5-1.24V11a1.59,1.59,0,0,1,.5-1.24,1.89,1.89,0,0,1,2.46,0,1.6,1.6,0,0,1,.5,1.24Zm-1,0V11a.82.82,0,0,0-.19-.56.64.64,0,0,0-.5-.21.65.65,0,0,0-.5.21.81.81,0,0,0-.19.56v2.38a.8.8,0,0,0,.19.56.65.65,0,0,0,.5.21.64.64,0,0,0,.5-.21A.81.81,0,0,0,14.8,13.34Z"/></svg>