<svg id="Layer_2" data-name="Layer 2" xmlns="http://www.w3.org/2000/svg" viewBox="0 0 24 24"><title>0</title><polygon points="19.36 20 4.64 20 2.01 3.15 3.99 2.85 6.36 18 17.64 18 20.01 2.85 21.99 3.15 19.36 20"/><path d="M18,6.75a2.39,2.39,0,0,1-1.84-.9,1.35,1.35,0,0,0-2.25,0,2.32,2.32,0,0,1-3.67,0,1.44,1.44,0,0,0-1.12-.6A1.44,1.44,0,0,0,8,5.85a2.39,2.39,0,0,1-1.83.9,2.39,2.39,0,0,1-1.83-.9,1.44,1.44,0,0,0-1.12-.6v-1a2.39,2.39,0,0,1,1.83.9,1.44,1.44,0,0,0,1.12.6,1.44,1.44,0,0,0,1.12-.6,2.32,2.32,0,0,1,3.67,0,1.35,1.35,0,0,0,2.24,0,2.32,2.32,0,0,1,3.67,0,1.35,1.35,0,0,0,2.25,0A2.4,2.4,0,0,1,21,4.25v1a1.44,1.44,0,0,0-1.13.6A2.4,2.4,0,0,1,18,6.75Z"/><path d="M11.65,13.27a1.71,1.71,0,0,1-.5,1.3A1.78,1.78,0,0,1,9.87,15a1.79,1.79,0,0,1-1.28-.47,1.68,1.68,0,0,1-.5-1.29,2.06,2.06,0,0,1,.12-.69,7.75,7.75,0,0,1,.36-.83L9.78,9.3h1.14L9.73,11.66a1.1,1.1,0,0,1,.42-.07,1.41,1.41,0,0,1,.56.12,1.45,1.45,0,0,1,.48.34,1.55,1.55,0,0,1,.33.54A2,2,0,0,1,11.65,13.27Zm-1,0a.87.87,0,0,0-.2-.6.68.68,0,0,0-.53-.23.69.69,0,0,0-.53.22,1,1,0,0,0,0,1.22.75.75,0,0,0,1.06,0A.87.87,0,0,0,10.61,13.28Z"/><path d="M15.84,13.35a1.59,1.59,0,0,1-.5,1.24,1.89,1.89,0,0,1-2.46,0,1.59,1.59,0,0,1-.5-1.24V11a1.59,1.59,0,0,1,.5-1.24,1.89,1.89,0,0,1,2.46,0,1.6,1.6,0,0,1,.5,1.24Zm-1,0V11a.82.82,0,0,0-.19-.56.64.64,0,0,0-.5-.21.65.65,0,0,0-.5.21.81.81,0,0,0-.19.56v2.38a.8.8,0,0,0,.19.56.65.65,0,0,0,.5.21.64.64,0,0,0,.5-.21A.81.81,0,0,0,14.8,13.34Z"/></svg>