<svg id="Layer_2" data-name="Layer 2" xmlns="http://www.w3.org/2000/svg" viewBox="0 0 24 24"><title>0</title><polygon points="19.3 16 4.7 16 2.02 3.97 3.98 3.53 6.3 14 17.7 14 20.02 3.53 21.98 3.97 19.3 16"/><rect x="4" y="20" width="16" height="2"/><rect x="4" y="17" width="16" height="2"/><path d="M18,6.2a2.44,2.44,0,0,1-1.83-.84,1.43,1.43,0,0,0-2.27,0,2.4,2.4,0,0,1-3.64,0A1.42,1.42,0,0,0,8,5.36a2.4,2.4,0,0,1-3.64,0A1.48,1.48,0,0,0,3.25,4.8v-1a2.43,2.43,0,0,1,1.82.84,1.42,1.42,0,0,0,2.27,0,2.4,2.4,0,0,1,3.64,0,1.42,1.42,0,0,0,2.27,0,2.41,2.41,0,0,1,3.65,0,1.43,1.43,0,0,0,2.28,0A2.44,2.44,0,0,1,21,3.8v1a1.48,1.48,0,0,0-1.14.56A2.44,2.44,0,0,1,18,6.2Z"/><path d="M11.67,11.35a1.56,1.56,0,0,1-.52,1.26A1.92,1.92,0,0,1,9.86,13a2.41,2.41,0,0,1-.68-.1,1.61,1.61,0,0,1-.58-.3,1.47,1.47,0,0,1-.4-.53A1.85,1.85,0,0,1,8,11.37h1a.71.71,0,0,0,.23.56.81.81,0,0,0,.55.19.76.76,0,0,0,.56-.21.78.78,0,0,0,.21-.58.77.77,0,0,0-.21-.57.8.8,0,0,0-.59-.21H9.68v-.9h.15a.7.7,0,0,0,.54-.2.73.73,0,0,0,.18-.52.71.71,0,0,0-.2-.54.74.74,0,0,0-1,0,.71.71,0,0,0-.21.5h-1A1.56,1.56,0,0,1,8.62,7.7a1.79,1.79,0,0,1,1.23-.44,2,2,0,0,1,.7.12,1.67,1.67,0,0,1,.55.34,1.5,1.5,0,0,1,.36.52,1.68,1.68,0,0,1,.13.66,1.36,1.36,0,0,1-.18.72,1.22,1.22,0,0,1-.48.45,1.38,1.38,0,0,1,.54.5A1.49,1.49,0,0,1,11.67,11.35Z"/><path d="M15.84,11.35a1.59,1.59,0,0,1-.5,1.24,1.89,1.89,0,0,1-2.46,0,1.59,1.59,0,0,1-.5-1.24V9a1.59,1.59,0,0,1,.5-1.24,1.89,1.89,0,0,1,2.46,0A1.6,1.6,0,0,1,15.84,9Zm-1,0V9a.82.82,0,0,0-.19-.56.64.64,0,0,0-.5-.21.65.65,0,0,0-.5.21.81.81,0,0,0-.19.56v2.38a.8.8,0,0,0,.19.56.65.65,0,0,0,.5.21.64.64,0,0,0,.5-.21A.81.81,0,0,0,14.8,11.34Z"/></svg>