<svg id="Layer_2" data-name="Layer 2" xmlns="http://www.w3.org/2000/svg" viewBox="0 0 24 24"><defs><style>.cls-1{fill:#fff;}</style></defs><title>0</title><path d="M18,8.71A2.54,2.54,0,0,1,16.24,8a1.57,1.57,0,0,0-2.31,0,2.56,2.56,0,0,1-3.6,0A1.57,1.57,0,0,0,8,8a2.56,2.56,0,0,1-3.6,0,1.57,1.57,0,0,0-1.16-.51v-1a2.54,2.54,0,0,1,1.8.74,1.57,1.57,0,0,0,2.31,0,2.56,2.56,0,0,1,3.6,0,1.57,1.57,0,0,0,2.31,0,2.56,2.56,0,0,1,3.6,0,1.57,1.57,0,0,0,2.31,0A2.54,2.54,0,0,1,21,6.46v1A1.57,1.57,0,0,0,19.84,8,2.54,2.54,0,0,1,18,8.71Z"/><path d="M11.59,14.35a1.71,1.71,0,0,1-.5,1.3,1.78,1.78,0,0,1-1.28.48,1.79,1.79,0,0,1-1.28-.47A1.68,1.68,0,0,1,8,14.37a2.07,2.07,0,0,1,.12-.69,7.75,7.75,0,0,1,.36-.83l1.2-2.46h1.14L9.67,12.74a1.12,1.12,0,0,1,.42-.07,1.41,1.41,0,0,1,.56.12,1.47,1.47,0,0,1,.48.34,1.55,1.55,0,0,1,.33.54A2,2,0,0,1,11.59,14.35Zm-1,0a.87.87,0,0,0-.2-.6.68.68,0,0,0-.53-.23.69.69,0,0,0-.53.22,1,1,0,0,0,0,1.22.74.74,0,0,0,1.06,0A.87.87,0,0,0,10.55,14.36Z"/><path d="M15.78,14.43a1.59,1.59,0,0,1-.5,1.24,1.89,1.89,0,0,1-2.46,0,1.59,1.59,0,0,1-.5-1.24V12a1.59,1.59,0,0,1,.5-1.24,1.89,1.89,0,0,1,2.46,0,1.6,1.6,0,0,1,.5,1.24Zm-1,0V12a.82.82,0,0,0-.19-.56.64.64,0,0,0-.5-.21.65.65,0,0,0-.5.21.81.81,0,0,0-.19.56v2.38a.79.79,0,0,0,.19.56.65.65,0,0,0,.5.21.64.64,0,0,0,.5-.21A.81.81,0,0,0,14.74,14.42Z"/><path d="M20,17.11,22,4.24l-2-.31L18.28,15A10.56,10.56,0,0,1,20,17.11Z"/><path d="M13.66,19.14s0,0,0-.06H6.36L4,3.93,2,4.24,4.64,21.08h9.64A3.32,3.32,0,0,1,13.66,19.14Z"/><path d="M17.64,19.08H14.5s0,0,0,.06a2.51,2.51,0,0,0,.94,1.94h3.41a2.59,2.59,0,0,0,.63-.76l.25-1.63A6.33,6.33,0,0,0,18.12,16Z"/><path d="M17.14,15.09s2.64,2.22,2.64,4a2.65,2.65,0,0,1-5.29,0C14.5,17.27,17.14,15.09,17.14,15.09Z"/><path class="cls-1" d="M17.14,19.72a.84.84,0,0,1-.86-.81,2.69,2.69,0,0,1,.86-1.42A2.8,2.8,0,0,1,18,18.91.84.84,0,0,1,17.14,19.72Z"/></svg>