<svg id="Layer_2" data-name="Layer 2" xmlns="http://www.w3.org/2000/svg" viewBox="0 0 24 24"><title>0</title><path d="M22,18.63H2l.45-1.32a9.67,9.67,0,0,1,9.15-6.55H22Zm-17.08-2H20V12.75H11.58A7.67,7.67,0,0,0,4.92,16.63Z"/><path d="M22,18.63H2l.45-1.32a9.67,9.67,0,0,1,9.15-6.55h8.3a4,4,0,0,0-3.85-3H9.13v-2H16a6,6,0,0,1,6,6Zm-17.08-2H20V12.75H11.58A7.67,7.67,0,0,0,4.92,16.63Z"/><rect x="11.5" y="-0.73" width="1" height="25.46" transform="translate(-4.97 12) rotate(-45)"/><rect x="-0.73" y="11.5" width="25.46" height="1" transform="translate(-4.97 12) rotate(-45)"/></svg>