<svg id="Layer_2" data-name="Layer 2" xmlns="http://www.w3.org/2000/svg" viewBox="0 0 24 24"><title>0</title><path d="M12,4a6,6,0,1,1-6,6,6,6,0,0,1,6-6m0-2a8,8,0,1,0,8,8,8,8,0,0,0-8-8Z"/><path d="M14.73,8.64a2.24,2.24,0,0,1-.16.84,2,2,0,0,1-.45.69,2.12,2.12,0,0,1-.73.47,2.91,2.91,0,0,1-1,.11H11.12v2.63H9.75V6.5h2.63a3,3,0,0,1,1,.14,2,2,0,0,1,.73.47,2.09,2.09,0,0,1,.45.69A2.24,2.24,0,0,1,14.73,8.64Zm-1.35,0a.89.89,0,0,0-.28-.68,1,1,0,0,0-.72-.32H11.12v2h1.25a1,1,0,0,0,.72-.3A.94.94,0,0,0,13.37,8.62Z"/><rect x="4" y="19" width="16" height="2"/></svg>