<svg id="Layer_2" data-name="Layer 2" xmlns="http://www.w3.org/2000/svg" viewBox="0 0 24 24"><title>0</title><path d="M18,6V18H6V6H18m2-2H4V20H20V4Z"/><rect x="2.7" y="9.73" width="15.56" height="2" transform="translate(-4.52 10.55) rotate(-45)"/><rect x="4.11" y="6.68" width="7.51" height="2" transform="translate(-3.13 7.81) rotate(-45)"/><path d="M9.36,8.31l-.76.76a8.7,8.7,0,0,0,1,.37l.83-.83A7.83,7.83,0,0,1,9.36,8.31Z"/><path d="M6.72,6.71a7.83,7.83,0,0,1-1-1h2l1-1H4A8.84,8.84,0,0,0,6,7.41Z"/><path d="M16.13,4.67l.91.91.09.09h1.1A7.87,7.87,0,0,1,15.29,8L13.74,9.58A8.83,8.83,0,0,0,20,4.67Z"/></svg>