<?xml version="1.0" standalone="no"?>
<!DOCTYPE svg PUBLIC "-//W3C//DTD SVG 1.1//EN" "http://www.w3.org/Graphics/SVG/1.1/DTD/svg11.dtd" >
<svg xmlns="http://www.w3.org/2000/svg" xmlns:xlink="http://www.w3.org/1999/xlink" version="1.1">
<metadata>
Created by FontForge 20170924 at Fri Jan 30 20:29:58 2015
 By www-data
(c) 2014 adidas. All rights reserved.
</metadata>
<defs>
<font id="adineuePRO-BlackItalic" horiz-adv-x="554" >
  <font-face 
    font-family="adineue PRO Black"
    font-weight="800"
    font-style="italic"
    font-stretch="normal"
    units-per-em="1000"
    panose-1="2 11 10 3 2 2 1 13 0 4"
    ascent="750"
    descent="-250"
    x-height="518"
    cap-height="685"
    bbox="-273 -231 1315 947"
    underline-thickness="40"
    underline-position="-120"
    slope="-16"
    unicode-range="U+0020-F8FF"
  />
<missing-glyph horiz-adv-x="381" 
 />
    <glyph glyph-name=".notdef" horiz-adv-x="381" 
 />
    <glyph glyph-name=".null" horiz-adv-x="0" 
 />
    <glyph glyph-name="nonmarkingreturn" horiz-adv-x="333" 
 />
    <glyph glyph-name="space" unicode=" " horiz-adv-x="188" 
 />
    <glyph glyph-name="exclam" unicode="!" horiz-adv-x="251" 
d="M335 685l-138 -481h-175l138 481h175zM139 0h-175l50 175h175z" />
    <glyph glyph-name="quotedbl" unicode="&#x22;" horiz-adv-x="442" 
d="M226 399h-145l64 286h187zM435 399h-144l63 286h186z" />
    <glyph glyph-name="numbersign" unicode="#" horiz-adv-x="587" 
d="M306 385l-29 -82h50l28 82h-49zM580 560h60l-50 -175h-72l-28 -82h77l-51 -176h-88l-44 -127h-163l44 127h-50l-45 -127h-163l44 127h-57l51 176h69l28 82h-74l50 175h85l44 125h164l-44 -125h50l43 125h163z" />
    <glyph glyph-name="dollar" unicode="$" horiz-adv-x="604" 
d="M285 489q0 -19 21 -37l24 85q-45 -12 -45 -48zM368 180q0 18 -23 34l-24 -82q47 9 47 48zM257 -91h-107l25 85q-175 38 -159 206h180q-1 -39 22 -55l32 111q-77 34 -116 76.5t-39 108.5q0 110 76 179.5t194 69.5h9l24 83h107l-28 -97q78 -22 118 -76t36 -139h-183
q4 35 -16 57l-32 -110q76 -28 120 -67t44 -109q0 -107 -79.5 -177t-205.5 -70z" />
    <glyph glyph-name="percent" unicode="%" horiz-adv-x="841" 
d="M189 288q-64 0 -102 40t-19 107l33 114q38 140 182 140q66 0 102.5 -40.5t17.5 -105.5l-32 -114q-40 -141 -182 -141zM270 0h-145l494 685h145zM211 393q36 0 48 43l31 106q5 19 -2.5 30.5t-24.5 11.5q-36 0 -50 -43l-30 -105q-6 -19 2 -31t26 -12zM607 -6q-64 0 -102 40
t-19 107l33 114q38 140 182 140q66 0 102.5 -40.5t17.5 -105.5l-32 -114q-40 -141 -182 -141zM629 99q36 0 48 43l31 106q5 19 -2.5 30.5t-24.5 11.5q-36 0 -50 -43l-30 -105q-6 -19 2 -31t26 -12z" />
    <glyph glyph-name="ampersand" unicode="&#x26;" horiz-adv-x="757" 
d="M334 500q0 -26 18 -62q90 29 90 78q0 19 -13.5 32t-35.5 13q-25 0 -42 -16t-17 -45zM288 135q30 0 63 12l-90 133q-60 -29 -60 -83q0 -29 24 -45.5t63 -16.5zM451 0l-19 28q-86 -36 -178 -36q-110 0 -174 50t-64 138q0 69 43 125t132 90q-20 47 -20 92q0 91 66.5 152
t164.5 61q91 0 147 -44t56 -113q0 -148 -180 -214l63 -87q75 82 113 188h173q-75 -199 -198 -311l86 -119h-211z" />
    <glyph glyph-name="quotesingle" unicode="'" horiz-adv-x="241" 
d="M232 399h-149l63 286h192z" />
    <glyph glyph-name="parenleft" unicode="(" horiz-adv-x="372" 
d="M292 698l134 -79q-159 -155 -216 -354q-26 -91 -26 -173q0 -100 41 -185l-152 -81q-68 112 -68 262q0 85 23 177q30 121 102 237t162 196z" />
    <glyph glyph-name="parenright" unicode=")" horiz-adv-x="372" 
d="M79 -174l-134 79q159 155 216 354q26 91 26 173q0 100 -41 185l152 81q68 -112 68 -262q0 -85 -23 -177q-30 -121 -102 -237t-162 -196z" />
    <glyph glyph-name="asterisk" unicode="*" horiz-adv-x="342" 
d="M330 622l65 32l25 -97l-71 -31l49 -31l-74 -87l-46 30l-20 -69h-110l20 71l-65 -32l-26 95l70 33l-48 29l75 89l46 -32l20 68h110z" />
    <glyph glyph-name="plus" unicode="+" horiz-adv-x="434" 
d="M333 367h118l-47 -166h-118l-38 -130h-168l38 130h-121l47 166h121l38 133h168z" />
    <glyph glyph-name="comma" unicode="," horiz-adv-x="231" 
d="M141 31l-101 -137h-121l79 106h-49l52 181h183z" />
    <glyph glyph-name="hyphen" unicode="-" horiz-adv-x="355" 
d="M311 200h-301l48 166h301z" />
    <glyph glyph-name="period" unicode="." horiz-adv-x="231" 
d="M132 0h-183l52 181h183z" />
    <glyph glyph-name="slash" unicode="/" horiz-adv-x="385" 
d="M130 0h-198l372 685h198z" />
    <glyph glyph-name="zero" unicode="0" horiz-adv-x="583" 
d="M240 -11q-117 0 -181.5 74.5t-31.5 190.5l58 203q32 114 108.5 174.5t196.5 60.5q117 0 181 -74.5t31 -190.5l-58 -203q-32 -114 -108.5 -174.5t-195.5 -60.5zM269 157q37 0 62 22t36 60l56 193q12 40 -6.5 66t-55.5 26t-62 -22t-36 -60l-56 -193q-12 -40 6 -66t56 -26z
" />
    <glyph glyph-name="one" unicode="1" horiz-adv-x="323" 
d="M219 0h-192l145 508h-78l51 177h270z" />
    <glyph glyph-name="two" unicode="2" horiz-adv-x="559" 
d="M462 0h-486l42 145l309 229q47 35 63.5 60t16.5 49q0 21 -15.5 33t-40.5 12q-61 0 -121 -82l-139 85q117 165 294 165q99 0 158.5 -50t59.5 -128q0 -70 -57 -144t-218 -185l-44 -30h224z" />
    <glyph glyph-name="three" unicode="3" horiz-adv-x="580" 
d="M247 -13q-102 0 -165 48t-80 144l168 65q14 -92 94 -92q43 0 69 27t26 59q0 34 -21.5 54t-55.5 20q-36 0 -63 -16l-44 115l192 109h-219l47 165h438l-51 -180l-128 -83q93 -51 93 -157q0 -108 -83 -193t-217 -85z" />
    <glyph glyph-name="four" unicode="4" horiz-adv-x="609" 
d="M527 288h62l-47 -161h-62l-36 -127h-186l36 127h-303l47 161l395 399h208zM341 288l46 161l-156 -161h110z" />
    <glyph glyph-name="five" unicode="5" horiz-adv-x="580" 
d="M247 -13q-106 0 -168 51t-77 141l168 65q7 -46 31 -69t62 -23q42 0 69.5 28.5t27.5 70.5q0 34 -20.5 55.5t-55.5 21.5q-52 0 -86 -48l-137 62l155 343h399l-48 -163h-259l-26 -60q38 8 65 8q89 0 145 -53.5t56 -144.5q0 -114 -83 -199.5t-218 -85.5z" />
    <glyph glyph-name="six" unicode="6" horiz-adv-x="555" 
d="M245 -11q-112 0 -171.5 60.5t-59.5 151.5q0 123 110 251l199 233h216l-188 -209q73 0 130 -52t57 -146q0 -111 -84.5 -200t-208.5 -89zM263 150q44 0 71.5 32.5t27.5 74.5q0 34 -21.5 55t-54.5 21q-39 0 -68 -31t-29 -75q0 -34 20.5 -55.5t53.5 -21.5z" />
    <glyph glyph-name="seven" unicode="7" horiz-adv-x="546" 
d="M216 0h-222l395 511h-287l51 174h483l-49 -171z" />
    <glyph glyph-name="eight" unicode="8" horiz-adv-x="576" 
d="M231 -9q-95 0 -152 50t-57 131q0 70 38.5 127.5t105.5 88.5q-23 42 -23 89q0 83 68 148.5t179 65.5q86 0 134.5 -43.5t48.5 -113.5q0 -99 -94 -170q48 -45 48 -118q0 -102 -83.5 -178.5t-212.5 -76.5zM345 436q28 0 48 22t20 49q0 20 -13 32.5t-32 12.5q-28 0 -48 -21
t-20 -49q0 -21 13 -33.5t32 -12.5zM259 134q39 0 66 31t27 70q0 29 -17.5 44.5t-44.5 15.5q-37 0 -65 -29t-28 -70q0 -28 18 -45t44 -17z" />
    <glyph glyph-name="nine" unicode="9" horiz-adv-x="555" 
d="M361 696q112 0 171.5 -60.5t59.5 -151.5q0 -123 -110 -251l-199 -233h-216l188 209q-73 0 -130 52t-57 146q0 111 84.5 200t208.5 89zM343 535q-44 0 -71.5 -32.5t-27.5 -74.5q0 -34 21.5 -55t54.5 -21q39 0 68 31t29 75q0 34 -20.5 55.5t-53.5 21.5z" />
    <glyph glyph-name="colon" unicode=":" horiz-adv-x="231" 
d="M229 337h-183l52 181h183zM132 0h-183l52 181h183z" />
    <glyph glyph-name="semicolon" unicode=";" horiz-adv-x="231" 
d="M229 337h-183l52 181h183zM141 31l-101 -137h-121l79 106h-49l52 181h183z" />
    <glyph glyph-name="less" unicode="&#x3c;" horiz-adv-x="434" 
d="M442 332l-186 -57l155 -51l-51 -174l-360 161l40 142l453 160z" />
    <glyph glyph-name="equal" unicode="=" horiz-adv-x="434" 
d="M432 301h-407l51 176h407zM372 91h-407l51 176h407z" />
    <glyph glyph-name="greater" unicode="&#x3e;" horiz-adv-x="434" 
d="M447 353l-40 -142l-454 -161l53 184l182 51l-151 57l49 171z" />
    <glyph glyph-name="question" unicode="?" horiz-adv-x="485" 
d="M172 377h37q75 0 112 29.5t37 75.5q0 24 -15 38.5t-39 14.5q-56 0 -77 -65h-162q21 106 93 164.5t175 58.5q97 0 149.5 -50t52.5 -133q0 -98 -66 -168t-156 -89l-15 -49h-176zM240 0h-176l50 175h176z" />
    <glyph glyph-name="at" unicode="@" horiz-adv-x="762" 
d="M375 -82q-155 0 -252 87.5t-97 225.5q0 107 56 201t153 150.5t211 56.5q139 0 229 -79.5t90 -203.5q0 -110 -59.5 -186t-156.5 -76q-76 0 -111 43q-49 -42 -111 -42q-63 0 -102.5 43t-39.5 106q0 85 62 148t140 63q32 0 57.5 -13.5t37.5 -33.5l9 35h128l-66 -231
q-7 -26 23 -26q38 0 65.5 45t27.5 117q0 89 -65 145t-168 56q-135 0 -223 -95t-88 -219q0 -103 71.5 -165t187.5 -62q70 0 144 25l17 -83q-73 -32 -170 -32zM366 202q31 0 54.5 25t23.5 54q0 24 -16 41t-42 17q-31 0 -54 -23.5t-23 -55.5q0 -24 16.5 -41t40.5 -17z" />
    <glyph glyph-name="A" unicode="A" horiz-adv-x="712" 
d="M430 259l-4 228l-134 -228h138zM435 0l-2 100h-235l-59 -100h-207l422 685h253l25 -685h-197z" />
    <glyph glyph-name="B" unicode="B" horiz-adv-x="619" 
d="M298 0h-336l196 685h299q79 0 124 -41.5t45 -112.5q0 -134 -136 -180q88 -39 88 -131q0 -102 -76.5 -161t-203.5 -59zM382 527h-72l-30 -105h77q31 0 50 18.5t19 46.5q0 18 -11.5 29t-32.5 11zM338 269h-102l-32 -111h105q36 0 57.5 18.5t21.5 49.5q0 43 -50 43z" />
    <glyph glyph-name="C" unicode="C" horiz-adv-x="709" 
d="M455 699q217 0 279 -172l-170 -99q-30 86 -128 86q-80 0 -136.5 -62t-56.5 -141q0 -64 35.5 -103.5t98.5 -39.5q98 0 165 92l129 -113q-131 -162 -327 -162q-135 0 -220 83t-85 212q0 115 58.5 212.5t154 152t203.5 54.5z" />
    <glyph glyph-name="D" unicode="D" horiz-adv-x="704" 
d="M277 0h-316l196 685h240q153 0 234 -80.5t81 -203.5q0 -80 -28.5 -151.5t-81.5 -127.5t-137 -89t-188 -33zM208 174h95q98 0 151 58.5t53 137.5q0 61 -35.5 101t-97.5 40h-69z" />
    <glyph glyph-name="E" unicode="E" horiz-adv-x="577" 
d="M-39 0l196 685h514l-48 -168h-317l-26 -90h287l-47 -166h-287l-27 -93h319l-48 -168h-516z" />
    <glyph glyph-name="F" unicode="F" horiz-adv-x="561" 
d="M499 219h-278l-63 -219h-197l196 685h505l-49 -174h-308l-36 -124h278z" />
    <glyph glyph-name="G" unicode="G" horiz-adv-x="755" 
d="M772 395q-28 -194 -142.5 -302t-271.5 -108q-148 0 -233.5 87.5t-85.5 215.5q0 75 31.5 149t86 132t136 94t173.5 36q99 0 176.5 -41.5t108.5 -119.5l-176 -104q-30 83 -132 83q-84 0 -143 -64.5t-59 -148.5q0 -63 39 -102.5t106 -39.5q47 0 83 20.5t53 54.5h-165l43 158
h372z" />
    <glyph glyph-name="H" unicode="H" horiz-adv-x="682" 
d="M376 0l72 250h-218l-72 -250h-197l196 685h197l-74 -261h218l74 261h197l-196 -685h-197z" />
    <glyph glyph-name="I" unicode="I" horiz-adv-x="267" 
d="M158 0h-197l196 685h197z" />
    <glyph glyph-name="J" unicode="J" horiz-adv-x="582" 
d="M21 256h195q-21 -91 52 -91q60 0 80 69l129 451h197l-133 -466q-31 -107 -102.5 -168t-185.5 -61q-125 0 -191.5 68t-40.5 198z" />
    <glyph glyph-name="K" unicode="K" horiz-adv-x="658" 
d="M370 0l-127 299l-85 -299h-197l196 685h197l-83 -290l268 290h244l-340 -342l149 -343h-222z" />
    <glyph glyph-name="L" unicode="L" horiz-adv-x="533" 
d="M-39 0l196 685h197l-146 -511h281l-50 -174h-478z" />
    <glyph glyph-name="M" unicode="M" horiz-adv-x="861" 
d="M308 0l-49 386l-111 -386h-187l196 685h246l40 -351l241 351h264l-196 -685h-183l110 386l-270 -386h-101z" />
    <glyph glyph-name="N" unicode="N" horiz-adv-x="690" 
d="M363 0l-107 363l-104 -363h-191l196 685h218l105 -370l106 370h191l-196 -685h-218z" />
    <glyph glyph-name="O" unicode="O" horiz-adv-x="757" 
d="M358 -15q-139 0 -228 87t-89 219q0 105 53.5 199t148 152t205.5 58q139 0 228 -87t89 -219q0 -105 -53.5 -199t-148 -152t-205.5 -58zM376 171q74 0 130.5 60t56.5 141q0 60 -36 101t-98 41q-72 0 -129.5 -61t-57.5 -140q0 -60 36 -101t98 -41z" />
    <glyph glyph-name="P" unicode="P" horiz-adv-x="602" 
d="M304 173h-96l-50 -173h-197l196 685h275q108 0 161 -56t53 -143q0 -135 -94 -224t-248 -89zM258 347h73q48 0 79 28t31 76q0 27 -16 43.5t-47 16.5h-73z" />
    <glyph glyph-name="Q" unicode="Q" horiz-adv-x="757" 
d="M489 -61l-30 59q-52 -13 -101 -13q-139 0 -228 87t-89 219q0 105 53.5 199t148 152t205.5 58q139 0 228 -87t89 -219q0 -91 -41.5 -175.5t-113.5 -142.5l50 -101zM321 273l172 36l29 -59q41 54 41 122q0 60 -36 101t-98 41q-72 0 -129.5 -61t-57.5 -140
q0 -59 35.5 -100.5t94.5 -41.5z" />
    <glyph glyph-name="R" unicode="R" horiz-adv-x="615" 
d="M264 370h59q53 0 80.5 24.5t27.5 62.5q0 54 -72 54h-54zM313 0l-91 223l-64 -223h-197l196 685h269q93 0 151 -55.5t58 -142.5q0 -95 -58.5 -169t-144.5 -95l108 -223h-227z" />
    <glyph glyph-name="S" unicode="S" horiz-adv-x="602" 
d="M274 -14q-125 0 -198 55.5t-61 179.5h192q-2 -40 19 -60t68 -20q31 0 49 12.5t18 31.5t-18.5 32.5t-55.5 27.5q-100 40 -148 86t-48 127q0 105 78.5 173.5t198.5 68.5q123 0 194 -61.5t59 -174.5h-187q6 34 -13.5 55t-59.5 21q-36 0 -53.5 -13.5t-17.5 -34.5
q0 -22 24.5 -37.5t73.5 -34.5q41 -15 67.5 -27.5t56.5 -34.5t44.5 -53.5t14.5 -73.5q0 -106 -82.5 -175.5t-214.5 -69.5z" />
    <glyph glyph-name="T" unicode="T" horiz-adv-x="599" 
d="M324 0h-197l147 511h-185l49 174h566l-49 -174h-184z" />
    <glyph glyph-name="U" unicode="U" horiz-adv-x="656" 
d="M748 685l-126 -442q-34 -120 -120.5 -188t-217.5 -68q-145 0 -210.5 96t-24.5 240l103 362h197l-110 -382q-18 -63 1.5 -100.5t76.5 -37.5q85 0 115 104l119 416h197z" />
    <glyph glyph-name="V" unicode="V" horiz-adv-x="681" 
d="M396 0h-253l-15 685h200l-3 -473l263 473h209z" />
    <glyph glyph-name="W" unicode="W" horiz-adv-x="960" 
d="M504 0l6 352l-199 -352h-228l46 685h201l-43 -419l235 419h156l-5 -426l198 426h207l-347 -685h-227z" />
    <glyph glyph-name="X" unicode="X" horiz-adv-x="695" 
d="M406 0l-69 195l-168 -195h-230l323 357l-127 328h217l64 -181l153 181h232l-311 -338l132 -347h-216z" />
    <glyph glyph-name="Y" unicode="Y" horiz-adv-x="667" 
d="M357 0h-197l70 246l-105 439h201l47 -258l191 258h220l-356 -436z" />
    <glyph glyph-name="Z" unicode="Z" horiz-adv-x="538" 
d="M606 527l-370 -358h265l-48 -169h-512l44 154l366 362h-268l48 169h520z" />
    <glyph glyph-name="bracketleft" unicode="[" horiz-adv-x="359" 
d="M399 527h-116l-150 -525h116l-47 -162h-294l242 845h294z" />
    <glyph glyph-name="backslash" unicode="\" horiz-adv-x="415" 
d="M361 0h-178l-80 685h178z" />
    <glyph glyph-name="bracketright" unicode="]" horiz-adv-x="359" 
d="M-43 -2h116l150 525h-116l47 162h294l-242 -845h-294z" />
    <glyph glyph-name="asciicircum" unicode="^" horiz-adv-x="434" 
d="M388 74h-164l-4 173l-105 -173h-172l263 413h157z" />
    <glyph glyph-name="underscore" unicode="_" horiz-adv-x="492" 
d="M362 -196h-492l47 166h492z" />
    <glyph glyph-name="grave" unicode="`" horiz-adv-x="394" 
d="M440 698l-44 -155l-233 52l45 157z" />
    <glyph glyph-name="a" unicode="a" horiz-adv-x="598" 
d="M400 272q0 39 -24.5 64t-62.5 25q-49 0 -86.5 -38t-37.5 -88q0 -39 25 -64.5t63 -25.5q47 0 85 38.5t38 88.5zM329 0l8 29q-48 -32 -112 -32q-87 0 -148.5 60t-61.5 158q0 121 89.5 213.5t212.5 92.5q84 0 139 -52l14 49h179l-149 -518h-171z" />
    <glyph glyph-name="b" unicode="b" horiz-adv-x="599" 
d="M282 -3q-84 0 -139 52l-15 -49h-178l196 685h176l-53 -188q52 24 103 24q87 0 149.5 -60t62.5 -158q0 -121 -89.5 -213.5t-212.5 -92.5zM199 246q0 -39 24.5 -64t62.5 -25q49 0 86.5 38t37.5 88q0 39 -25 64.5t-63 25.5q-47 0 -85 -38.5t-38 -88.5z" />
    <glyph glyph-name="c" unicode="c" horiz-adv-x="551" 
d="M260 -13q-110 0 -177 66.5t-67 166.5q0 123 89.5 216.5t223.5 93.5q73 0 133 -35t85 -105l-150 -82q-20 57 -85 57q-54 0 -88.5 -37.5t-34.5 -84.5q0 -41 25.5 -69t67.5 -28q64 0 109 63l117 -93q-44 -60 -109.5 -94.5t-138.5 -34.5z" />
    <glyph glyph-name="d" unicode="d" horiz-adv-x="598" 
d="M400 272q0 39 -24.5 64t-62.5 25q-49 0 -86.5 -38t-37.5 -88q0 -39 25 -64.5t63 -25.5q47 0 85 38.5t38 88.5zM329 0l8 29q-48 -32 -112 -32q-87 0 -148.5 60t-61.5 158q0 121 89.5 213.5t212.5 92.5q83 0 140 -53l61 217h179l-197 -685h-171z" />
    <glyph glyph-name="e" unicode="e" horiz-adv-x="569" 
d="M501 95q-34 -45 -95.5 -76t-136.5 -31q-111 0 -181 66.5t-70 171.5q0 127 90.5 215.5t216.5 88.5q107 0 169.5 -61t62.5 -161q0 -44 -18 -100h-351q8 -38 36 -59t69 -21q61 0 108 54zM309 392q-68 0 -103 -66h188q-15 66 -85 66z" />
    <glyph glyph-name="f" unicode="f" horiz-adv-x="400" 
d="M352 518h102l-45 -157h-102l-104 -361h-176l104 361h-80l45 157h80l11 32q55 162 255 162h68l-39 -138h-44q-59 0 -75 -56z" />
    <glyph glyph-name="g" unicode="g" horiz-adv-x="592" 
d="M393 276q0 39 -24 63t-59 24q-49 0 -85.5 -37.5t-36.5 -86.5q0 -37 24 -62.5t61 -25.5q47 0 83.5 38.5t36.5 86.5zM164 -196q-159 0 -215 92l119 105q39 -54 115 -54q47 0 86 22t55 58q-51 -24 -102 -24q-85 0 -146 60t-61 156q0 121 89.5 212.5t209.5 91.5q80 0 136 -53
l13 48h179l-144 -493q-31 -105 -123 -163t-211 -58z" />
    <glyph glyph-name="h" unicode="h" 
d="M204 271l-78 -271h-176l196 685h176l-60 -211q71 54 148 54q83 0 125.5 -59.5t15.5 -149.5l-93 -319h-176l79 277q11 38 -3 63.5t-50 25.5q-76 0 -104 -95z" />
    <glyph glyph-name="i" unicode="i" horiz-adv-x="225" 
d="M283 547h-176l39 138h176zM126 0h-176l149 518h176z" />
    <glyph glyph-name="j" unicode="j" horiz-adv-x="225" 
d="M283 547h-176l39 138h176zM99 518h175l-147 -517q-33 -117 -103 -161t-190 -26l43 154q36 -5 52.5 8.5t27.5 51.5z" />
    <glyph glyph-name="k" unicode="k" horiz-adv-x="545" 
d="M274 0l-86 218l-62 -218h-176l196 685h176l-106 -371l187 204h216l-257 -262l112 -256h-200z" />
    <glyph glyph-name="l" unicode="l" horiz-adv-x="225" 
d="M126 0h-176l196 685h176z" />
    <glyph glyph-name="m" unicode="m" horiz-adv-x="855" 
d="M204 271l-78 -271h-176l149 518h173l-12 -46q69 56 145 56q86 0 123 -71q76 71 178 71q83 0 127 -60.5t18 -148.5l-93 -319h-176l82 287q9 34 -3 56.5t-44 22.5q-68 0 -96 -95l-79 -271h-176l82 287q9 34 -3 56.5t-45 22.5q-68 0 -96 -95z" />
    <glyph glyph-name="n" unicode="n" 
d="M204 271l-78 -271h-176l149 518h173l-12 -46q71 56 150 56q84 0 125 -62t12 -163l-89 -303h-176l79 277q12 40 -1 64.5t-50 24.5q-78 0 -106 -95z" />
    <glyph glyph-name="o" unicode="o" horiz-adv-x="582" 
d="M325 530q105 0 173.5 -66.5t68.5 -165.5q0 -126 -90.5 -218.5t-218.5 -92.5q-107 0 -175 67t-68 167q0 126 92.5 217.5t217.5 91.5zM394 273q0 39 -24.5 65t-63.5 26q-48 0 -83 -36.5t-35 -89.5q0 -38 24 -64t64 -26q50 0 84 38t34 87z" />
    <glyph glyph-name="p" unicode="p" horiz-adv-x="599" 
d="M199 246q0 -39 24.5 -64t62.5 -25q49 0 86.5 38t37.5 88q0 39 -25 64.5t-63 25.5q-47 0 -85 -38.5t-38 -88.5zM282 -3q-83 0 -140 53l-65 -233h-179l201 701h171l-8 -29q48 32 112 32q87 0 148.5 -60t61.5 -158q0 -121 -89.5 -213.5t-212.5 -92.5z" />
    <glyph glyph-name="q" unicode="q" horiz-adv-x="598" 
d="M448 -183h-176l58 204q-52 -24 -103 -24q-87 0 -149.5 60t-62.5 158q0 121 89.5 213.5t212.5 92.5q83 0 138 -52l15 49h179zM400 272q0 39 -24.5 64t-62.5 25q-49 0 -86.5 -38t-37.5 -88q0 -39 25 -64.5t63 -25.5q47 0 85 38.5t38 88.5z" />
    <glyph glyph-name="r" unicode="r" horiz-adv-x="352" 
d="M413 525l-51 -176q-136 0 -173 -130l-63 -219h-176l149 518h175l-18 -61q7 8 20.5 19t54.5 30t82 19z" />
    <glyph glyph-name="s" unicode="s" horiz-adv-x="485" 
d="M-11 161h165q-3 -24 12.5 -39t47.5 -15q43 0 43 28q0 19 -54 35q-80 25 -110 46q-56 40 -56 114q0 85 69 141.5t176 56.5q96 0 148.5 -45.5t38.5 -131.5h-167q4 25 -7.5 38.5t-37.5 13.5q-20 0 -32.5 -9.5t-12.5 -23.5q0 -24 75 -47q5 -2 8 -3q31 -9 51.5 -17.5t45 -25
t37 -42.5t12.5 -61q0 -86 -70 -136t-178 -50q-111 0 -165.5 49t-38.5 124z" />
    <glyph glyph-name="t" unicode="t" horiz-adv-x="401" 
d="M297 361l-41 -145q-19 -68 41 -68h53l-41 -148h-99q-94 0 -126.5 57t-4.5 155l43 149h-71l45 157h71l36 127h176l-36 -127h114l-45 -157h-115z" />
    <glyph glyph-name="u" unicode="u" 
d="M283 0l12 46q-71 -56 -150 -56q-84 0 -125 62t-12 163l89 303h176l-79 -277q-12 -40 1 -64.5t50 -24.5q78 0 106 95l78 271h176l-149 -518h-173z" />
    <glyph glyph-name="v" unicode="v" horiz-adv-x="589" 
d="M336 0h-232l-18 518h183l-7 -348l192 348h198z" />
    <glyph glyph-name="w" unicode="w" horiz-adv-x="810" 
d="M390 0l16 256l-129 -256h-198l10 518h175l-21 -298l159 298h153l-12 -299l149 299h181l-286 -518h-197z" />
    <glyph glyph-name="x" unicode="x" horiz-adv-x="567" 
d="M291 0l-40 124l-107 -124h-212l253 266l-94 252h191l39 -123l107 123h207l-247 -263l94 -255h-191z" />
    <glyph glyph-name="y" unicode="y" horiz-adv-x="551" 
d="M278 -25q-70 -111 -141.5 -143t-194.5 -15l43 156q60 -9 88 4t45 56l-35 485h182l2 -272l156 272h202z" />
    <glyph glyph-name="z" unicode="z" horiz-adv-x="472" 
d="M493 387l-262 -237h188l-43 -150h-429l37 128l262 238h-202l44 152h443z" />
    <glyph glyph-name="braceleft" unicode="{" horiz-adv-x="380" 
d="M419 524h-50q-17 0 -29 -13t-12 -38q0 -7 3.5 -26.5t3.5 -33.5q0 -51 -34.5 -93t-79.5 -57q49 -25 49 -78q0 -33 -35.5 -89t-35.5 -69q0 -24 29 -24h42l-47 -162h-111q-52 0 -81 28t-29 74q0 40 19 75t38.5 64.5t19.5 56.5q0 55 -68 55h-3l40 140h3q54 0 85 30t31 65
q0 11 -5 35t-5 42q0 66 55 123t143 57h111z" />
    <glyph glyph-name="bar" unicode="|" horiz-adv-x="223" 
d="M85 -143h-178l237 828h178z" />
    <glyph glyph-name="braceright" unicode="}" horiz-adv-x="380" 
d="M-38 3h50q17 0 29 13t12 38q0 7 -3.5 26.5t-3.5 33.5q0 51 34.5 93t79.5 57q-49 25 -49 78q0 34 35.5 90t35.5 68q0 24 -29 24h-42l47 162h111q52 0 81 -28t29 -74q0 -32 -12 -61.5t-26.5 -47.5t-26.5 -41.5t-12 -45.5q0 -55 68 -55h3l-40 -140h-3q-54 0 -85 -30t-31 -65
q0 -11 5 -35.5t5 -41.5q0 -66 -55 -123t-143 -57h-111z" />
    <glyph glyph-name="asciitilde" unicode="~" horiz-adv-x="434" 
d="M458 391l-44 -155q-8 -6 -21 -15t-50.5 -23.5t-71.5 -14.5q-40 0 -93 22t-82 22q-20 0 -45.5 -8.5t-40.5 -16.5l-16 -9l45 155q7 6 20 15t50 23.5t70 14.5q41 0 94 -22t82 -22q20 0 46 8.5t41 16.5z" />
    <glyph glyph-name="exclamdown" unicode="&#xa1;" horiz-adv-x="251" 
d="M160 685h175l-50 -175h-175zM-36 0l138 481h175l-138 -481h-175z" />
    <glyph glyph-name="cent" unicode="&#xa2;" horiz-adv-x="577" 
d="M203 259q0 -41 25 -71l55 193q-37 -16 -58.5 -50t-21.5 -72zM278 -92h-130l26 91q-75 28 -117 91t-42 144q0 129 92 229.5t231 107.5l21 74h130l-26 -92q107 -39 140 -134l-163 -89q-7 22 -30 40l-59 -207q42 17 72 59l127 -101q-45 -61 -111 -98t-140 -41z" />
    <glyph glyph-name="sterling" unicode="&#xa3;" horiz-adv-x="571" 
d="M152 466q30 103 97 165.5t166 62.5q90 0 137.5 -40t69.5 -113l-161 -76q-5 30 -19 46.5t-47 16.5q-55 0 -74 -67l-18 -63h172l-47 -166h-172l-11 -35q20 -6 51 -17.5t55 -18t49 -6.5q24 0 57 10t54 20l21 10l-47 -164q-8 -5 -22.5 -12t-58.5 -19t-88 -12q-51 0 -122 26.5
t-108 26.5q-25 0 -58 -11t-54 -22l-21 -11l48 166q27 17 73 31l11 38h-64l47 166h64z" />
    <glyph glyph-name="yen" unicode="&#xa5;" horiz-adv-x="615" 
d="M511 400h99l-39 -134h-169l-10 -36h169l-38 -134h-169l-28 -96h-186l28 96h-170l38 134h170l10 36h-170l39 134h101l-63 285h196l36 -247l181 247h200z" />
    <glyph glyph-name="brokenbar" unicode="&#xa6;" horiz-adv-x="223" 
d="M230 361h-178l92 324h178zM85 -143h-178l93 323h178z" />
    <glyph glyph-name="section" unicode="&#xa7;" horiz-adv-x="483" 
d="M202 338q-22 -9 -22 -35q0 -27 49 -44q1 0 48 -17q16 1 25 9.5t9 20.5q0 23 -43 41q-8 4 -31 12t-35 13zM191 -52q-105 0 -162.5 37.5t-53.5 117.5h156q0 -45 56 -45q50 0 50 28q0 4 -1 7t-4 6l-5.5 5.5t-7.5 5l-9 4.5t-11 4.5t-12 4t-13.5 4.5t-13.5 5
q-30 10 -49.5 18.5t-43.5 24.5t-36.5 39.5t-12.5 53.5q0 96 88 149q-8 21 -8 45q0 73 57 124t154 51q101 0 154.5 -45t46.5 -119h-158q2 22 -11 35t-39 13q-21 0 -32.5 -9.5t-11.5 -23.5q0 -17 18 -27.5t72 -28.5q28 -9 47 -18t40 -23.5t32 -36.5t11 -50q0 -85 -83 -141
q11 -23 11 -47q0 -71 -55.5 -119.5t-159.5 -48.5z" />
    <glyph glyph-name="dieresis" unicode="&#xa8;" horiz-adv-x="394" 
d="M269 562h-157l38 133h157zM456 562h-157l38 133h157z" />
    <glyph glyph-name="copyright" unicode="&#xa9;" horiz-adv-x="617" 
d="M384 695q113 0 185 -71t72 -179q0 -132 -94.5 -233t-229.5 -101q-115 0 -186.5 71.5t-71.5 178.5q0 136 97 235t228 99zM553 439q0 75 -47 125t-125 50q-94 0 -163.5 -75t-69.5 -173q0 -76 47 -125t125 -49q97 0 165 76.5t68 170.5zM397 380l76 -64q-22 -30 -59 -49
t-79 -19q-59 0 -99 38.5t-40 93.5q0 71 54 123.5t125 52.5q54 0 88.5 -27t45.5 -74l-105 -37q-10 38 -42 38q-26 0 -43 -19.5t-17 -43.5q0 -20 12.5 -32t31.5 -12q25 0 51 31z" />
    <glyph glyph-name="ordfeminine" unicode="&#xaa;" horiz-adv-x="380" 
d="M327 532q0 25 -15.5 40.5t-38.5 15.5q-31 0 -54.5 -24t-23.5 -55q0 -25 15.5 -40.5t39.5 -15.5q30 0 53.5 23.5t23.5 55.5zM283 362l5 18q-30 -20 -70 -20q-55 0 -93.5 37.5t-38.5 98.5q0 76 56 134t133 58q53 0 87 -34l9 32h112l-94 -324h-106z" />
    <glyph glyph-name="guillemotleft" unicode="&#xab;" horiz-adv-x="585" 
d="M402 276l65 -223h-159l-69 233l209 238h170zM177 286l67 -233h-159l-71 243l201 228h170z" />
    <glyph glyph-name="registered" unicode="&#xae;" horiz-adv-x="617" 
d="M384 695q113 0 185 -71t72 -179q0 -132 -94.5 -233t-229.5 -101q-115 0 -186.5 71.5t-71.5 178.5q0 136 97 235t228 99zM553 439q0 75 -47 125t-125 50q-94 0 -163.5 -75t-69.5 -173q0 -76 47 -125t125 -49q97 0 165 76.5t68 170.5zM502 548l-33 -114q-70 0 -91 -8
t-30 -38l-36 -128h-122l81 285h122l-9 -34q27 22 51 29t67 8z" />
    <glyph glyph-name="macron" unicode="&#xaf;" horiz-adv-x="394" 
d="M426 564h-282l45 157h282z" />
    <glyph glyph-name="degree" unicode="&#xb0;" horiz-adv-x="388" 
d="M74 477q0 86 65.5 150t151.5 64q70 0 117 -45.5t47 -113.5q0 -86 -66.5 -149.5t-151.5 -63.5q-71 0 -117 44.5t-46 113.5zM328 512q0 24 -16 39.5t-39 15.5q-29 0 -50.5 -23t-21.5 -52q0 -23 15.5 -38.5t38.5 -15.5q29 0 51 24t22 50z" />
    <glyph glyph-name="plusminus" unicode="&#xb1;" horiz-adv-x="434" 
d="M354 448h120l-45 -157h-120l-33 -117h-165l33 117h-122l45 157h122l35 120h165zM346 0h-407l40 138h407z" />
    <glyph glyph-name="acute" unicode="&#xb4;" horiz-adv-x="394" 
d="M423 605l-262 -52l44 155l263 54z" />
    <glyph glyph-name="paragraph" unicode="&#xb6;" horiz-adv-x="522" 
d="M269 0h-103l72 252q-76 14 -118 61t-42 117q0 18 3 37q13 94 85.5 156t164.5 62h134zM421 0h-104l196 685h104z" />
    <glyph glyph-name="periodcentered" unicode="&#xb7;" horiz-adv-x="231" 
d="M187 193h-183l52 181h183z" />
    <glyph glyph-name="cedilla" unicode="&#xb8;" horiz-adv-x="394" 
d="M183 -108q0 -46 -33 -80.5t-88 -34.5q-44 0 -70 28.5t-18 66.5h81q0 -21 20 -21q10 0 17 7.5t7 17.5q0 19 -22 19h-65l83 114h72l-38 -49q26 -3 40 -21t14 -47z" />
    <glyph glyph-name="ordmasculine" unicode="&#xba;" horiz-adv-x="367" 
d="M280 692q65 0 107.5 -41.5t42.5 -102.5q0 -78 -56.5 -135.5t-135.5 -57.5q-67 0 -109 41.5t-42 103.5q0 78 57.5 135t135.5 57zM322 532q0 25 -15 41t-39 16q-30 0 -51.5 -22.5t-21.5 -55.5q0 -23 14.5 -39.5t39.5 -16.5q31 0 52 23.5t21 53.5z" />
    <glyph glyph-name="guillemotright" unicode="&#xbb;" horiz-adv-x="542" 
d="M158 301l-65 223h159l69 -233l-209 -238h-170zM383 291l-67 233h159l71 -243l-201 -228h-170z" />
    <glyph glyph-name="onequarter" unicode="&#xbc;" horiz-adv-x="712" 
d="M167 0h-145l494 685h145zM185 294h-121l80 279h-44l32 111h165zM639 171h35l-30 -100h-34l-20 -71h-117l20 71h-169l29 100l219 221h130zM522 171l22 77l-73 -77h51z" />
    <glyph glyph-name="onehalf" unicode="&#xbd;" horiz-adv-x="725" 
d="M167 0h-145l494 685h145zM185 294h-121l80 279h-44l32 111h165zM639 0h-280l25 88l180 142q32 28 32 44q0 19 -24 19q-28 0 -62 -47l-89 49q66 103 174 103q58 0 92.5 -29t34.5 -73q0 -82 -168 -196h114z" />
    <glyph glyph-name="threequarters" unicode="&#xbe;" horiz-adv-x="830" 
d="M286 0h-145l494 685h145zM194 286q-123 0 -142 111l105 41q8 -49 48 -49q20 0 32 12t12 25q0 16 -10.5 26t-27.5 10q-21 0 -36 -9l-27 70l110 59h-125l29 103h255l-33 -116l-64 -40q48 -30 48 -87q0 -60 -46.5 -108t-127.5 -48zM756 171h35l-30 -100h-34l-20 -71h-117
l20 71h-169l29 100l219 221h130zM639 171l22 77l-73 -77h51z" />
    <glyph glyph-name="questiondown" unicode="&#xbf;" horiz-adv-x="485" 
d="M285 685h176l-50 -175h-176zM353 308h-37q-75 0 -112 -29.5t-37 -75.5q0 -24 15 -38.5t39 -14.5q56 0 77 65h162q-21 -106 -93 -164.5t-175 -58.5q-97 0 -149.5 50t-52.5 133q0 98 66 168t156 89l15 49h176z" />
    <glyph glyph-name="Agrave" unicode="&#xc0;" horiz-adv-x="712" 
d="M652 865l-44 -155l-233 52l45 157zM430 259l-4 228l-134 -228h138zM435 0l-2 100h-235l-59 -100h-207l422 685h253l25 -685h-197z" />
    <glyph glyph-name="Aacute" unicode="&#xc1;" horiz-adv-x="712" 
d="M627 772l-262 -52l44 155l263 54zM430 259l-4 228l-134 -228h138zM435 0l-2 100h-235l-59 -100h-207l422 685h253l25 -685h-197z" />
    <glyph glyph-name="Acircumflex" unicode="&#xc2;" horiz-adv-x="712" 
d="M364 827l167 43l141 -43l-31 -109l-132 23l-176 -23zM430 259l-4 228l-134 -228h138zM435 0l-2 100h-235l-59 -100h-207l422 685h253l25 -685h-197z" />
    <glyph glyph-name="Atilde" unicode="&#xc3;" horiz-adv-x="712" 
d="M339 735l32 112q54 46 108 46q30 0 70 -15.5t63 -15.5q15 0 34 5.5t31 10.5l12 6l-33 -112q-59 -44 -107 -44q-30 0 -70.5 14.5t-63.5 14.5q-15 0 -34 -5.5t-31 -11.5zM430 259l-4 228l-134 -228h138zM435 0l-2 100h-235l-59 -100h-207l422 685h253l25 -685h-197z" />
    <glyph glyph-name="Adieresis" unicode="&#xc4;" horiz-adv-x="712" 
d="M475 729h-157l38 133h157zM662 729h-157l38 133h157zM430 259l-4 228l-134 -228h138zM435 0l-2 100h-235l-59 -100h-207l422 685h253l25 -685h-197z" />
    <glyph glyph-name="Aring" unicode="&#xc5;" horiz-adv-x="712" 
d="M410 812q0 51 37.5 87.5t86.5 36.5q41 0 67.5 -26.5t26.5 -68.5q0 -53 -36.5 -89t-87.5 -36q-40 0 -67 27t-27 69zM550 832q0 13 -7.5 21t-18.5 8q-15 0 -25.5 -12t-10.5 -29q0 -13 7.5 -21t18.5 -8q15 0 25.5 12.5t10.5 28.5zM430 259l-4 228l-134 -228h138zM435 0
l-2 100h-235l-59 -100h-207l422 685h253l25 -685h-197z" />
    <glyph glyph-name="AE" unicode="&#xc6;" horiz-adv-x="982" 
d="M429 259l-4 228l-134 -228h138zM435 0l-2 100h-235l-59 -100h-207l420 685h724l-48 -168h-416l3 -90h357l-47 -166h-303l3 -93h305l-48 -168h-447z" />
    <glyph glyph-name="Ccedilla" unicode="&#xc7;" horiz-adv-x="710" 
d="M294 -223q-44 0 -70 28.5t-18 66.5h81q0 -21 20 -21q10 0 17 7.5t7 17.5q0 19 -22 19h-65l67 91q-122 11 -197 92.5t-75 201.5q0 115 58.5 212.5t154 152t203.5 54.5q217 0 279 -172l-170 -99q-30 86 -128 86q-80 0 -136.5 -62t-56.5 -141q0 -64 35.5 -103.5t98.5 -39.5
q98 0 165 92l129 -113q-117 -147 -289 -161l-21 -26q26 -3 40 -21t14 -47q0 -46 -33 -80.5t-88 -34.5z" />
    <glyph glyph-name="Egrave" unicode="&#xc8;" horiz-adv-x="577" 
d="M589 865l-44 -155l-233 52l45 157zM-39 0l196 685h514l-48 -168h-317l-26 -90h287l-47 -166h-287l-27 -93h319l-48 -168h-516z" />
    <glyph glyph-name="Eacute" unicode="&#xc9;" horiz-adv-x="577" 
d="M564 772l-262 -52l44 155l263 54zM-39 0l196 685h514l-48 -168h-317l-26 -90h287l-47 -166h-287l-27 -93h319l-48 -168h-516z" />
    <glyph glyph-name="Ecircumflex" unicode="&#xca;" horiz-adv-x="577" 
d="M301 827l167 43l141 -43l-31 -109l-132 23l-176 -23zM-39 0l196 685h514l-48 -168h-317l-26 -90h287l-47 -166h-287l-27 -93h319l-48 -168h-516z" />
    <glyph glyph-name="Edieresis" unicode="&#xcb;" horiz-adv-x="577" 
d="M412 729h-157l38 133h157zM599 729h-157l38 133h157zM-39 0l196 685h514l-48 -168h-317l-26 -90h287l-47 -166h-287l-27 -93h319l-48 -168h-516z" />
    <glyph glyph-name="Igrave" unicode="&#xcc;" horiz-adv-x="267" 
d="M429 865l-44 -155l-233 52l45 157zM158 0h-197l196 685h197z" />
    <glyph glyph-name="Iacute" unicode="&#xcd;" horiz-adv-x="267" 
d="M404 772l-262 -52l44 155l263 54zM158 0h-197l196 685h197z" />
    <glyph glyph-name="Icircumflex" unicode="&#xce;" horiz-adv-x="267" 
d="M141 827l167 43l141 -43l-31 -109l-132 23l-176 -23zM158 0h-197l196 685h197z" />
    <glyph glyph-name="Idieresis" unicode="&#xcf;" horiz-adv-x="267" 
d="M252 729h-157l38 133h157zM439 729h-157l38 133h157zM158 0h-197l196 685h197z" />
    <glyph glyph-name="Eth" unicode="&#xd0;" horiz-adv-x="709" 
d="M288 0h-316l76 264h-37l44 156h37l76 265h240q153 0 234 -80.5t81 -203.5q0 -80 -28.5 -151.5t-81.5 -127.5t-137 -89t-188 -33zM219 174h95q98 0 151 58.5t53 137.5q0 61 -35.5 101t-97.5 40h-69l-26 -91h89l-44 -156h-90z" />
    <glyph glyph-name="Ntilde" unicode="&#xd1;" horiz-adv-x="690" 
d="M328 735l32 112q54 46 108 46q30 0 70 -15.5t63 -15.5q15 0 34 5.5t31 10.5l12 6l-33 -112q-59 -44 -107 -44q-30 0 -70.5 14.5t-63.5 14.5q-15 0 -34 -5.5t-30 -11.5zM363 0l-107 363l-104 -363h-191l196 685h218l105 -370l106 370h191l-196 -685h-218z" />
    <glyph glyph-name="Ograve" unicode="&#xd2;" horiz-adv-x="757" 
d="M651 865l-44 -155l-233 52l45 157zM358 -15q-139 0 -228 87t-89 219q0 105 53.5 199t148 152t205.5 58q139 0 228 -87t89 -219q0 -105 -53.5 -199t-148 -152t-205.5 -58zM376 171q74 0 130.5 60t56.5 141q0 60 -36 101t-98 41q-72 0 -129.5 -61t-57.5 -140q0 -60 36 -101
t98 -41z" />
    <glyph glyph-name="Oacute" unicode="&#xd3;" horiz-adv-x="757" 
d="M626 772l-262 -52l44 155l263 54zM358 -15q-139 0 -228 87t-89 219q0 105 53.5 199t148 152t205.5 58q139 0 228 -87t89 -219q0 -105 -53.5 -199t-148 -152t-205.5 -58zM376 171q74 0 130.5 60t56.5 141q0 60 -36 101t-98 41q-72 0 -129.5 -61t-57.5 -140q0 -60 36 -101
t98 -41z" />
    <glyph glyph-name="Ocircumflex" unicode="&#xd4;" horiz-adv-x="757" 
d="M363 827l167 43l141 -43l-31 -109l-132 23l-176 -23zM358 -15q-139 0 -228 87t-89 219q0 105 53.5 199t148 152t205.5 58q139 0 228 -87t89 -219q0 -105 -53.5 -199t-148 -152t-205.5 -58zM376 171q74 0 130.5 60t56.5 141q0 60 -36 101t-98 41q-72 0 -129.5 -61
t-57.5 -140q0 -60 36 -101t98 -41z" />
    <glyph glyph-name="Otilde" unicode="&#xd5;" horiz-adv-x="757" 
d="M338 735l32 112q54 46 108 46q30 0 70 -15.5t63 -15.5q15 0 34 5.5t31 10.5l12 6l-33 -112q-59 -44 -107 -44q-30 0 -70.5 14.5t-63.5 14.5q-15 0 -34 -5.5t-30 -11.5zM358 -15q-139 0 -228 87t-89 219q0 105 53.5 199t148 152t205.5 58q139 0 228 -87t89 -219
q0 -105 -53.5 -199t-148 -152t-205.5 -58zM376 171q74 0 130.5 60t56.5 141q0 60 -36 101t-98 41q-72 0 -129.5 -61t-57.5 -140q0 -60 36 -101t98 -41z" />
    <glyph glyph-name="Odieresis" unicode="&#xd6;" horiz-adv-x="757" 
d="M474 729h-157l38 133h157zM661 729h-157l38 133h157zM358 -15q-139 0 -228 87t-89 219q0 105 53.5 199t148 152t205.5 58q139 0 228 -87t89 -219q0 -105 -53.5 -199t-148 -152t-205.5 -58zM376 171q74 0 130.5 60t56.5 141q0 60 -36 101t-98 41q-72 0 -129.5 -61
t-57.5 -140q0 -60 36 -101t98 -41z" />
    <glyph glyph-name="multiply" unicode="&#xd7;" horiz-adv-x="430" 
d="M462 379l-120 -95l65 -94l-164 -129l-61 90l-110 -90l-91 129l116 94l-61 95l165 126l58 -87l112 87z" />
    <glyph glyph-name="Oslash" unicode="&#xd8;" horiz-adv-x="757" 
d="M243 313q0 -26 8 -53l222 248q-19 6 -43 6q-72 0 -129.5 -61t-57.5 -140zM377 171q74 0 130.5 60t56.5 141q0 26 -8 53l-221 -248q19 -6 42 -6zM359 -15q-89 0 -161 39l-57 -64h-158l124 139q-65 81 -65 192q0 105 53.5 199t148 152t205.5 58q88 0 161 -38l57 63h157
l-123 -138q65 -82 65 -193q0 -105 -53.5 -199t-148 -152t-205.5 -58z" />
    <glyph glyph-name="Ugrave" unicode="&#xd9;" horiz-adv-x="656" 
d="M618 865l-44 -155l-233 52l45 157zM748 685l-126 -442q-34 -120 -120.5 -188t-217.5 -68q-145 0 -210.5 96t-24.5 240l103 362h197l-110 -382q-18 -63 1.5 -100.5t76.5 -37.5q85 0 115 104l119 416h197z" />
    <glyph glyph-name="Uacute" unicode="&#xda;" horiz-adv-x="656" 
d="M593 772l-262 -52l44 155l263 54zM748 685l-126 -442q-34 -120 -120.5 -188t-217.5 -68q-145 0 -210.5 96t-24.5 240l103 362h197l-110 -382q-18 -63 1.5 -100.5t76.5 -37.5q85 0 115 104l119 416h197z" />
    <glyph glyph-name="Ucircumflex" unicode="&#xdb;" horiz-adv-x="656" 
d="M330 827l167 43l141 -43l-31 -109l-132 23l-176 -23zM748 685l-126 -442q-34 -120 -120.5 -188t-217.5 -68q-145 0 -210.5 96t-24.5 240l103 362h197l-110 -382q-18 -63 1.5 -100.5t76.5 -37.5q85 0 115 104l119 416h197z" />
    <glyph glyph-name="Udieresis" unicode="&#xdc;" horiz-adv-x="656" 
d="M441 729h-157l38 133h157zM628 729h-157l38 133h157zM748 685l-126 -442q-34 -120 -120.5 -188t-217.5 -68q-145 0 -210.5 96t-24.5 240l103 362h197l-110 -382q-18 -63 1.5 -100.5t76.5 -37.5q85 0 115 104l119 416h197z" />
    <glyph glyph-name="Yacute" unicode="&#xdd;" horiz-adv-x="667" 
d="M596 772l-262 -52l44 155l263 54zM357 0h-197l70 246l-105 439h201l47 -258l191 258h220l-356 -436z" />
    <glyph glyph-name="Thorn" unicode="&#xde;" horiz-adv-x="602" 
d="M279 87h-96l-25 -87h-197l196 685h197l-24 -86h77q108 0 161 -56t53 -143q0 -135 -94 -224t-248 -89zM233 261h73q48 0 79 28t31 76q0 27 -16 43.5t-47 16.5h-73z" />
    <glyph glyph-name="germandbls" unicode="&#xdf;" horiz-adv-x="499" 
d="M261 479l-137 -479h-175l146 509q23 81 90.5 131.5t162.5 50.5q84 0 138.5 -50t54.5 -121q0 -119 -98 -180q32 -39 32 -94q0 -105 -81.5 -175.5t-212.5 -70.5h-30l45 157h28q32 0 52.5 23t20.5 57q0 19 -10.5 32t-27.5 13h-27l45 156h39q23 0 39 16.5t16 37.5
q0 42 -45 42q-49 0 -65 -55z" />
    <glyph glyph-name="agrave" unicode="&#xe0;" horiz-adv-x="598" 
d="M527 698l-44 -155l-233 52l45 157zM400 272q0 39 -24.5 64t-62.5 25q-49 0 -86.5 -38t-37.5 -88q0 -39 25 -64.5t63 -25.5q47 0 85 38.5t38 88.5zM329 0l8 29q-48 -32 -112 -32q-87 0 -148.5 60t-61.5 158q0 121 89.5 213.5t212.5 92.5q84 0 139 -52l14 49h179l-149 -518
h-171z" />
    <glyph glyph-name="aacute" unicode="&#xe1;" horiz-adv-x="598" 
d="M502 605l-262 -52l44 155l263 54zM400 272q0 39 -24.5 64t-62.5 25q-49 0 -86.5 -38t-37.5 -88q0 -39 25 -64.5t63 -25.5q47 0 85 38.5t38 88.5zM329 0l8 29q-48 -32 -112 -32q-87 0 -148.5 60t-61.5 158q0 121 89.5 213.5t212.5 92.5q84 0 139 -52l14 49h179l-149 -518
h-171z" />
    <glyph glyph-name="acircumflex" unicode="&#xe2;" horiz-adv-x="598" 
d="M239 660l167 43l141 -43l-31 -109l-132 23l-176 -23zM400 272q0 39 -24.5 64t-62.5 25q-49 0 -86.5 -38t-37.5 -88q0 -39 25 -64.5t63 -25.5q47 0 85 38.5t38 88.5zM329 0l8 29q-48 -32 -112 -32q-87 0 -148.5 60t-61.5 158q0 121 89.5 213.5t212.5 92.5q84 0 139 -52
l14 49h179l-149 -518h-171z" />
    <glyph glyph-name="atilde" unicode="&#xe3;" horiz-adv-x="598" 
d="M214 568l32 112q54 46 108 46q30 0 70 -15.5t63 -15.5q15 0 34 5.5t31 11.5l12 5l-33 -112q-59 -44 -107 -44q-30 0 -70.5 14.5t-63.5 14.5q-15 0 -34 -5.5t-30 -10.5zM400 272q0 39 -24.5 64t-62.5 25q-49 0 -86.5 -38t-37.5 -88q0 -39 25 -64.5t63 -25.5q47 0 85 38.5
t38 88.5zM329 0l8 29q-48 -32 -112 -32q-87 0 -148.5 60t-61.5 158q0 121 89.5 213.5t212.5 92.5q84 0 139 -52l14 49h179l-149 -518h-171z" />
    <glyph glyph-name="adieresis" unicode="&#xe4;" horiz-adv-x="598" 
d="M350 562h-157l38 133h157zM537 562h-157l38 133h157zM400 272q0 39 -24.5 64t-62.5 25q-49 0 -86.5 -38t-37.5 -88q0 -39 25 -64.5t63 -25.5q47 0 85 38.5t38 88.5zM329 0l8 29q-48 -32 -112 -32q-87 0 -148.5 60t-61.5 158q0 121 89.5 213.5t212.5 92.5q84 0 139 -52
l14 49h179l-149 -518h-171z" />
    <glyph glyph-name="aring" unicode="&#xe5;" horiz-adv-x="598" 
d="M285 645q0 51 37.5 87.5t86.5 36.5q41 0 67.5 -26.5t26.5 -68.5q0 -53 -36.5 -89t-87.5 -36q-40 0 -67 27t-27 69zM425 665q0 13 -7.5 21t-18.5 8q-15 0 -25.5 -12t-10.5 -29q0 -13 7.5 -21t18.5 -8q15 0 25.5 12.5t10.5 28.5zM400 272q0 39 -24.5 64t-62.5 25
q-49 0 -86.5 -38t-37.5 -88q0 -39 25 -64.5t63 -25.5q47 0 85 38.5t38 88.5zM329 0l8 29q-48 -32 -112 -32q-87 0 -148.5 60t-61.5 158q0 121 89.5 213.5t212.5 92.5q84 0 139 -52l14 49h179l-149 -518h-171z" />
    <glyph glyph-name="ae" unicode="&#xe6;" horiz-adv-x="973" 
d="M674 -12q-98 0 -162 54l-12 -42h-171l8 29q-48 -32 -110 -32q-87 0 -149.5 60t-62.5 158q0 121 89.5 213.5t212.5 92.5q84 0 139 -52l14 49h179l-6 -22q52 24 103 24q100 0 158 -58t58 -154q0 -44 -18 -100h-351q8 -38 36 -59t69 -21q61 0 108 54l100 -87
q-34 -45 -95.5 -76t-136.5 -31zM714 392q-68 0 -103 -66h188q-15 66 -85 66zM400 272q0 39 -24.5 64t-62.5 25q-49 0 -86.5 -38t-37.5 -88q0 -39 25 -64.5t63 -25.5q47 0 85 38.5t38 88.5z" />
    <glyph glyph-name="ccedilla" unicode="&#xe7;" horiz-adv-x="551" 
d="M202 -223q-44 0 -70 28.5t-18 66.5h81q0 -21 20 -21q10 0 17 7.5t7 17.5q0 19 -22 19h-65l69 94q-94 13 -149.5 77t-55.5 154q0 123 89.5 216.5t223.5 93.5q73 0 133 -35t85 -105l-150 -82q-20 57 -85 57q-54 0 -88.5 -37.5t-34.5 -84.5q0 -41 25.5 -69t67.5 -28
q64 0 109 63l117 -93q-39 -53 -96 -86.5t-121 -40.5l-22 -29q26 -3 40 -21t14 -47q0 -46 -33 -80.5t-88 -34.5z" />
    <glyph glyph-name="egrave" unicode="&#xe8;" horiz-adv-x="569" 
d="M519 698l-44 -155l-233 52l45 157zM501 95q-34 -45 -95.5 -76t-136.5 -31q-111 0 -181 66.5t-70 171.5q0 127 90.5 215.5t216.5 88.5q107 0 169.5 -61t62.5 -161q0 -44 -18 -100h-351q8 -38 36 -59t69 -21q61 0 108 54zM309 392q-68 0 -103 -66h188q-15 66 -85 66z" />
    <glyph glyph-name="eacute" unicode="&#xe9;" horiz-adv-x="569" 
d="M494 605l-262 -52l44 155l263 54zM501 95q-34 -45 -95.5 -76t-136.5 -31q-111 0 -181 66.5t-70 171.5q0 127 90.5 215.5t216.5 88.5q107 0 169.5 -61t62.5 -161q0 -44 -18 -100h-351q8 -38 36 -59t69 -21q61 0 108 54zM309 392q-68 0 -103 -66h188q-15 66 -85 66z" />
    <glyph glyph-name="ecircumflex" unicode="&#xea;" horiz-adv-x="569" 
d="M231 660l167 43l141 -43l-31 -109l-132 23l-176 -23zM501 95q-34 -45 -95.5 -76t-136.5 -31q-111 0 -181 66.5t-70 171.5q0 127 90.5 215.5t216.5 88.5q107 0 169.5 -61t62.5 -161q0 -44 -18 -100h-351q8 -38 36 -59t69 -21q61 0 108 54zM309 392q-68 0 -103 -66h188
q-15 66 -85 66z" />
    <glyph glyph-name="edieresis" unicode="&#xeb;" horiz-adv-x="569" 
d="M342 562h-157l38 133h157zM529 562h-157l38 133h157zM501 95q-34 -45 -95.5 -76t-136.5 -31q-111 0 -181 66.5t-70 171.5q0 127 90.5 215.5t216.5 88.5q107 0 169.5 -61t62.5 -161q0 -44 -18 -100h-351q8 -38 36 -59t69 -21q61 0 108 54zM309 392q-68 0 -103 -66h188
q-15 66 -85 66z" />
    <glyph glyph-name="igrave" unicode="&#xec;" horiz-adv-x="225" 
d="M361 698l-44 -155l-233 52l45 157zM126 0h-176l149 518h176z" />
    <glyph glyph-name="iacute" unicode="&#xed;" horiz-adv-x="225" 
d="M336 605l-262 -52l44 155l263 54zM126 0h-176l149 518h176z" />
    <glyph glyph-name="icircumflex" unicode="&#xee;" horiz-adv-x="225" 
d="M73 660l167 43l141 -43l-31 -109l-132 23l-176 -23zM126 0h-176l149 518h176z" />
    <glyph glyph-name="idieresis" unicode="&#xef;" horiz-adv-x="225" 
d="M184 562h-157l38 133h157zM371 562h-157l38 133h157zM126 0h-176l149 518h176z" />
    <glyph glyph-name="eth" unicode="&#xf0;" horiz-adv-x="565" 
d="M246 -13q-103 0 -168 64t-65 160q0 118 85.5 205t200.5 87q27 0 53 -6l-5 37l-81 -11l28 98l36 5l-10 59h178l6 -36l79 12l-29 -98l-34 -5l25 -147q9 -57 9 -89q0 -58 -19.5 -115.5t-56.5 -107.5t-97.5 -81t-134.5 -31zM376 260q0 38 -23.5 63t-60.5 25q-46 0 -79.5 -35
t-33.5 -86q0 -36 23 -61t61 -25q47 0 80 36.5t33 82.5z" />
    <glyph glyph-name="ntilde" unicode="&#xf1;" 
d="M216 568l32 112q54 46 108 46q30 0 70 -15.5t63 -15.5q15 0 34 5.5t31 11.5l12 5l-33 -112q-59 -44 -107 -44q-30 0 -70.5 14.5t-63.5 14.5q-15 0 -34 -5.5t-30 -10.5zM204 271l-78 -271h-176l149 518h173l-12 -46q71 56 150 56q84 0 125 -62t12 -163l-89 -303h-176
l79 277q12 40 -1 64.5t-50 24.5q-78 0 -106 -95z" />
    <glyph glyph-name="ograve" unicode="&#xf2;" horiz-adv-x="582" 
d="M523 698l-44 -155l-233 52l45 157zM325 530q105 0 173.5 -66.5t68.5 -165.5q0 -126 -90.5 -218.5t-218.5 -92.5q-107 0 -175 67t-68 167q0 126 92.5 217.5t217.5 91.5zM394 273q0 39 -24.5 65t-63.5 26q-48 0 -83 -36.5t-35 -89.5q0 -38 24 -64t64 -26q50 0 84 38t34 87z
" />
    <glyph glyph-name="oacute" unicode="&#xf3;" horiz-adv-x="582" 
d="M498 605l-262 -52l44 155l263 54zM325 530q105 0 173.5 -66.5t68.5 -165.5q0 -126 -90.5 -218.5t-218.5 -92.5q-107 0 -175 67t-68 167q0 126 92.5 217.5t217.5 91.5zM394 273q0 39 -24.5 65t-63.5 26q-48 0 -83 -36.5t-35 -89.5q0 -38 24 -64t64 -26q50 0 84 38t34 87z
" />
    <glyph glyph-name="ocircumflex" unicode="&#xf4;" horiz-adv-x="582" 
d="M235 660l167 43l141 -43l-31 -109l-132 23l-176 -23zM325 530q105 0 173.5 -66.5t68.5 -165.5q0 -126 -90.5 -218.5t-218.5 -92.5q-107 0 -175 67t-68 167q0 126 92.5 217.5t217.5 91.5zM394 273q0 39 -24.5 65t-63.5 26q-48 0 -83 -36.5t-35 -89.5q0 -38 24 -64t64 -26
q50 0 84 38t34 87z" />
    <glyph glyph-name="otilde" unicode="&#xf5;" horiz-adv-x="582" 
d="M210 568l32 112q54 46 108 46q30 0 70 -15.5t63 -15.5q15 0 34 5.5t31 11.5l12 5l-33 -112q-59 -44 -107 -44q-30 0 -70.5 14.5t-63.5 14.5q-15 0 -34 -5.5t-30 -10.5zM325 530q105 0 173.5 -66.5t68.5 -165.5q0 -126 -90.5 -218.5t-218.5 -92.5q-107 0 -175 67t-68 167
q0 126 92.5 217.5t217.5 91.5zM394 273q0 39 -24.5 65t-63.5 26q-48 0 -83 -36.5t-35 -89.5q0 -38 24 -64t64 -26q50 0 84 38t34 87z" />
    <glyph glyph-name="odieresis" unicode="&#xf6;" horiz-adv-x="582" 
d="M346 562h-157l38 133h157zM533 562h-157l38 133h157zM325 530q105 0 173.5 -66.5t68.5 -165.5q0 -126 -90.5 -218.5t-218.5 -92.5q-107 0 -175 67t-68 167q0 126 92.5 217.5t217.5 91.5zM394 273q0 39 -24.5 65t-63.5 26q-48 0 -83 -36.5t-35 -89.5q0 -38 24 -64t64 -26
q50 0 84 38t34 87z" />
    <glyph glyph-name="divide" unicode="&#xf7;" horiz-adv-x="434" 
d="M348 402h-178l39 135h178zM404 201h-407l47 166h407zM241 29h-178l40 137h178z" />
    <glyph glyph-name="oslash" unicode="&#xf8;" horiz-adv-x="579" 
d="M188 238q0 -9 1 -13l124 139h-7q-48 0 -83 -36.5t-35 -89.5zM276 148q50 0 84 38t34 87q0 7 -2 19l-128 -143q4 -1 12 -1zM258 -13q-63 0 -115 25l-47 -52h-144l108 121q-45 59 -45 140q0 126 92.5 217.5t217.5 91.5q62 0 114 -25l47 52h143l-107 -120q45 -59 45 -139
q0 -126 -90.5 -218.5t-218.5 -92.5z" />
    <glyph glyph-name="ugrave" unicode="&#xf9;" 
d="M525 698l-44 -155l-233 52l45 157zM283 0l12 46q-71 -56 -150 -56q-84 0 -125 62t-12 163l89 303h176l-79 -277q-12 -40 1 -64.5t50 -24.5q78 0 106 95l78 271h176l-149 -518h-173z" />
    <glyph glyph-name="uacute" unicode="&#xfa;" 
d="M500 605l-262 -52l44 155l263 54zM283 0l12 46q-71 -56 -150 -56q-84 0 -125 62t-12 163l89 303h176l-79 -277q-12 -40 1 -64.5t50 -24.5q78 0 106 95l78 271h176l-149 -518h-173z" />
    <glyph glyph-name="ucircumflex" unicode="&#xfb;" 
d="M237 660l167 43l141 -43l-31 -109l-132 23l-176 -23zM283 0l12 46q-71 -56 -150 -56q-84 0 -125 62t-12 163l89 303h176l-79 -277q-12 -40 1 -64.5t50 -24.5q78 0 106 95l78 271h176l-149 -518h-173z" />
    <glyph glyph-name="udieresis" unicode="&#xfc;" 
d="M348 562h-157l38 133h157zM535 562h-157l38 133h157zM283 0l12 46q-71 -56 -150 -56q-84 0 -125 62t-12 163l89 303h176l-79 -277q-12 -40 1 -64.5t50 -24.5q78 0 106 95l78 271h176l-149 -518h-173z" />
    <glyph glyph-name="yacute" unicode="&#xfd;" horiz-adv-x="551" 
d="M492 605l-262 -52l44 155l263 54zM278 -25q-70 -111 -141.5 -143t-194.5 -15l43 156q60 -9 88 4t45 56l-35 485h182l2 -272l156 272h202z" />
    <glyph glyph-name="thorn" unicode="&#xfe;" horiz-adv-x="599" 
d="M199 246q0 -39 24.5 -64t62.5 -25q49 0 86.5 38t37.5 88q0 39 -25 64.5t-63 25.5q-47 0 -85 -38.5t-38 -88.5zM282 -3q-83 0 -140 53l-65 -233h-179l249 868h176l-54 -188q52 24 103 24q87 0 149.5 -60t62.5 -158q0 -121 -89.5 -213.5t-212.5 -92.5z" />
    <glyph glyph-name="ydieresis" unicode="&#xff;" horiz-adv-x="551" 
d="M340 562h-157l38 133h157zM527 562h-157l38 133h157zM278 -25q-70 -111 -141.5 -143t-194.5 -15l43 156q60 -9 88 4t45 56l-35 485h182l2 -272l156 272h202z" />
    <glyph glyph-name="Amacron" unicode="&#x100;" horiz-adv-x="712" 
d="M632 731h-282l45 157h282zM430 259l-4 228l-134 -228h138zM435 0l-2 100h-235l-59 -100h-207l422 685h253l25 -685h-197z" />
    <glyph glyph-name="amacron" unicode="&#x101;" horiz-adv-x="598" 
d="M507 564h-282l45 157h282zM400 272q0 39 -24.5 64t-62.5 25q-49 0 -86.5 -38t-37.5 -88q0 -39 25 -64.5t63 -25.5q47 0 85 38.5t38 88.5zM329 0l8 29q-48 -32 -112 -32q-87 0 -148.5 60t-61.5 158q0 121 89.5 213.5t212.5 92.5q84 0 139 -52l14 49h179l-149 -518h-171z
" />
    <glyph glyph-name="Abreve" unicode="&#x102;" horiz-adv-x="712" 
d="M687 900l-35 -121q-64 -52 -152 -52q-99 0 -142 62l31 111q63 -37 140 -37q90 0 158 37zM430 259l-4 228l-134 -228h138zM435 0l-2 100h-235l-59 -100h-207l422 685h253l25 -685h-197z" />
    <glyph glyph-name="abreve" unicode="&#x103;" horiz-adv-x="598" 
d="M562 733l-35 -121q-64 -52 -152 -52q-99 0 -142 62l31 111q63 -37 140 -37q90 0 158 37zM400 272q0 39 -24.5 64t-62.5 25q-49 0 -86.5 -38t-37.5 -88q0 -39 25 -64.5t63 -25.5q47 0 85 38.5t38 88.5zM329 0l8 29q-48 -32 -112 -32q-87 0 -148.5 60t-61.5 158
q0 121 89.5 213.5t212.5 92.5q84 0 139 -52l14 49h179l-149 -518h-171z" />
    <glyph glyph-name="Aogonek" unicode="&#x104;" horiz-adv-x="712" 
d="M499 -168q-28 -18 -69 -18q-38 0 -59 18t-21 49q0 33 25.5 67t61.5 52h-1l-2 100h-235l-59 -100h-207l422 685h253l25 -685h-115q-29 -16 -46 -39.5t-17 -42.5q0 -21 28 -21q9 0 18 1.5t13 3.5l5 1zM431 259l-4 228l-134 -228h138z" />
    <glyph glyph-name="aogonek" unicode="&#x105;" horiz-adv-x="591" 
d="M455 -168q-28 -18 -69 -18q-38 0 -59 18t-21 49q0 33 25.5 67t61.5 52h-63l8 29q-48 -32 -112 -32q-87 0 -148.5 60t-61.5 158q0 121 89.5 213.5t212.5 92.5q84 0 139 -52l14 49h179l-149 -518h-27q-29 -16 -46 -39.5t-17 -42.5q0 -21 28 -21q9 0 18 1.5t13 3.5l5 1z
M401 272q0 39 -24.5 64t-62.5 25q-49 0 -86.5 -38t-37.5 -88q0 -39 25 -64.5t63 -25.5q47 0 85 38.5t38 88.5z" />
    <glyph glyph-name="Cacute" unicode="&#x106;" horiz-adv-x="709" 
d="M619 772l-262 -52l44 155l263 54zM455 699q217 0 279 -172l-170 -99q-30 86 -128 86q-80 0 -136.5 -62t-56.5 -141q0 -64 35.5 -103.5t98.5 -39.5q98 0 165 92l129 -113q-131 -162 -327 -162q-135 0 -220 83t-85 212q0 115 58.5 212.5t154 152t203.5 54.5z" />
    <glyph glyph-name="cacute" unicode="&#x107;" horiz-adv-x="551" 
d="M492 605l-262 -52l44 155l263 54zM260 -13q-110 0 -177 66.5t-67 166.5q0 123 89.5 216.5t223.5 93.5q73 0 133 -35t85 -105l-150 -82q-20 57 -85 57q-54 0 -88.5 -37.5t-34.5 -84.5q0 -41 25.5 -69t67.5 -28q64 0 109 63l117 -93q-44 -60 -109.5 -94.5t-138.5 -34.5z
" />
    <glyph glyph-name="Ccircumflex" unicode="&#x108;" horiz-adv-x="709" 
d="M356 827l167 43l141 -43l-31 -109l-132 23l-176 -23zM455 699q217 0 279 -172l-170 -99q-30 86 -128 86q-80 0 -136.5 -62t-56.5 -141q0 -64 35.5 -103.5t98.5 -39.5q98 0 165 92l129 -113q-131 -162 -327 -162q-135 0 -220 83t-85 212q0 115 58.5 212.5t154 152
t203.5 54.5z" />
    <glyph glyph-name="ccircumflex" unicode="&#x109;" horiz-adv-x="551" 
d="M229 660l167 43l141 -43l-31 -109l-132 23l-176 -23zM260 -13q-110 0 -177 66.5t-67 166.5q0 123 89.5 216.5t223.5 93.5q73 0 133 -35t85 -105l-150 -82q-20 57 -85 57q-54 0 -88.5 -37.5t-34.5 -84.5q0 -41 25.5 -69t67.5 -28q64 0 109 63l117 -93
q-44 -60 -109.5 -94.5t-138.5 -34.5z" />
    <glyph glyph-name="Cdotaccent" unicode="&#x10a;" horiz-adv-x="709" 
d="M571 729h-178l38 133h178zM455 699q217 0 279 -172l-170 -99q-30 86 -128 86q-80 0 -136.5 -62t-56.5 -141q0 -64 35.5 -103.5t98.5 -39.5q98 0 165 92l129 -113q-131 -162 -327 -162q-135 0 -220 83t-85 212q0 115 58.5 212.5t154 152t203.5 54.5z" />
    <glyph glyph-name="cdotaccent" unicode="&#x10b;" horiz-adv-x="551" 
d="M444 562h-178l38 133h178zM260 -13q-110 0 -177 66.5t-67 166.5q0 123 89.5 216.5t223.5 93.5q73 0 133 -35t85 -105l-150 -82q-20 57 -85 57q-54 0 -88.5 -37.5t-34.5 -84.5q0 -41 25.5 -69t67.5 -28q64 0 109 63l117 -93q-44 -60 -109.5 -94.5t-138.5 -34.5z" />
    <glyph glyph-name="Ccaron" unicode="&#x10c;" horiz-adv-x="709" 
d="M648 769l-167 -43l-141 43l31 109l132 -23l176 23zM455 699q217 0 279 -172l-170 -99q-30 86 -128 86q-80 0 -136.5 -62t-56.5 -141q0 -64 35.5 -103.5t98.5 -39.5q98 0 165 92l129 -113q-131 -162 -327 -162q-135 0 -220 83t-85 212q0 115 58.5 212.5t154 152
t203.5 54.5z" />
    <glyph glyph-name="ccaron" unicode="&#x10d;" horiz-adv-x="551" 
d="M521 602l-167 -43l-141 43l31 109l132 -23l176 23zM260 -13q-110 0 -177 66.5t-67 166.5q0 123 89.5 216.5t223.5 93.5q73 0 133 -35t85 -105l-150 -82q-20 57 -85 57q-54 0 -88.5 -37.5t-34.5 -84.5q0 -41 25.5 -69t67.5 -28q64 0 109 63l117 -93q-44 -60 -109.5 -94.5
t-138.5 -34.5z" />
    <glyph glyph-name="Dcaron" unicode="&#x10e;" horiz-adv-x="704" 
d="M666 769l-167 -43l-141 43l31 109l132 -23l176 23zM277 0h-316l196 685h240q153 0 234 -80.5t81 -203.5q0 -80 -28.5 -151.5t-81.5 -127.5t-137 -89t-188 -33zM208 174h95q98 0 151 58.5t53 137.5q0 61 -35.5 101t-97.5 40h-69z" />
    <glyph glyph-name="dcaron" unicode="&#x10f;" horiz-adv-x="826" 
d="M882 535l-101 -137h-121l79 106h-49l52 181h183zM400 272q0 39 -24.5 64t-62.5 25q-49 0 -86.5 -38t-37.5 -88q0 -39 25 -64.5t63 -25.5q47 0 85 38.5t38 88.5zM329 0l8 29q-48 -32 -112 -32q-87 0 -148.5 60t-61.5 158q0 121 89.5 213.5t212.5 92.5q83 0 140 -53l61 217
h179l-197 -685h-171z" />
    <glyph glyph-name="Dcroat" unicode="&#x110;" horiz-adv-x="709" 
d="M288 0h-316l76 264h-37l44 156h37l76 265h240q153 0 234 -80.5t81 -203.5q0 -80 -28.5 -151.5t-81.5 -127.5t-137 -89t-188 -33zM219 174h95q98 0 151 58.5t53 137.5q0 61 -35.5 101t-97.5 40h-69l-26 -91h89l-44 -156h-90z" />
    <glyph glyph-name="dcroat" unicode="&#x111;" horiz-adv-x="596" 
d="M398 272q0 39 -24.5 64t-62.5 25q-49 0 -86.5 -38t-37.5 -88q0 -39 25 -64.5t63 -25.5q47 0 85 38.5t38 88.5zM327 0l8 29q-48 -32 -112 -32q-87 0 -148.5 60t-61.5 158q0 121 89.5 213.5t212.5 92.5q83 0 140 -53l21 77h-115l28 96h115l12 44h179l-13 -44h38l-28 -96
h-37l-157 -545h-171z" />
    <glyph glyph-name="Emacron" unicode="&#x112;" horiz-adv-x="577" 
d="M569 731h-282l45 157h282zM-39 0l196 685h514l-48 -168h-317l-26 -90h287l-47 -166h-287l-27 -93h319l-48 -168h-516z" />
    <glyph glyph-name="emacron" unicode="&#x113;" horiz-adv-x="569" 
d="M499 564h-282l45 157h282zM501 95q-34 -45 -95.5 -76t-136.5 -31q-111 0 -181 66.5t-70 171.5q0 127 90.5 215.5t216.5 88.5q107 0 169.5 -61t62.5 -161q0 -44 -18 -100h-351q8 -38 36 -59t69 -21q61 0 108 54zM309 392q-68 0 -103 -66h188q-15 66 -85 66z" />
    <glyph glyph-name="Ebreve" unicode="&#x114;" horiz-adv-x="577" 
d="M624 900l-35 -121q-64 -52 -152 -52q-99 0 -142 62l31 111q63 -37 140 -37q90 0 158 37zM-39 0l196 685h514l-48 -168h-317l-26 -90h287l-47 -166h-287l-27 -93h319l-48 -168h-516z" />
    <glyph glyph-name="ebreve" unicode="&#x115;" horiz-adv-x="569" 
d="M554 733l-35 -121q-64 -52 -152 -52q-99 0 -142 62l31 111q63 -37 140 -37q90 0 158 37zM501 95q-34 -45 -95.5 -76t-136.5 -31q-111 0 -181 66.5t-70 171.5q0 127 90.5 215.5t216.5 88.5q107 0 169.5 -61t62.5 -161q0 -44 -18 -100h-351q8 -38 36 -59t69 -21
q61 0 108 54zM309 392q-68 0 -103 -66h188q-15 66 -85 66z" />
    <glyph glyph-name="Edotaccent" unicode="&#x116;" horiz-adv-x="577" 
d="M516 729h-178l38 133h178zM-39 0l196 685h514l-48 -168h-317l-26 -90h287l-47 -166h-287l-27 -93h319l-48 -168h-516z" />
    <glyph glyph-name="edotaccent" unicode="&#x117;" horiz-adv-x="569" 
d="M446 562h-178l38 133h178zM501 95q-34 -45 -95.5 -76t-136.5 -31q-111 0 -181 66.5t-70 171.5q0 127 90.5 215.5t216.5 88.5q107 0 169.5 -61t62.5 -161q0 -44 -18 -100h-351q8 -38 36 -59t69 -21q61 0 108 54zM309 392q-68 0 -103 -66h188q-15 66 -85 66z" />
    <glyph glyph-name="Eogonek" unicode="&#x118;" horiz-adv-x="576" 
d="M433 -168q-28 -18 -69 -18q-38 0 -59 18t-21 49q0 33 25.5 67t61.5 52h-409l196 685h514l-48 -168h-317l-26 -90h287l-47 -166h-287l-27 -93h319l-48 -168h-26q-29 -16 -46 -39.5t-17 -42.5q0 -21 28 -21q9 0 18 1.5t13 3.5l5 1z" />
    <glyph glyph-name="eogonek" unicode="&#x119;" horiz-adv-x="562" 
d="M221 -186q-38 0 -59 18t-21 49q0 29 21 60.5t53 51.5q-89 16 -142.5 79t-53.5 154q0 127 90.5 215.5t216.5 88.5q107 0 169.5 -61t62.5 -161q0 -44 -18 -100h-351q8 -38 36 -59t69 -21q61 0 108 54l100 -87q-32 -41 -87 -71.5t-123 -34.5q-46 -35 -46 -71q0 -21 28 -21
q9 0 18 1.5t14 3.5l4 1l-20 -71q-28 -18 -69 -18zM310 392q-68 0 -103 -66h188q-15 66 -85 66z" />
    <glyph glyph-name="Ecaron" unicode="&#x11a;" horiz-adv-x="577" 
d="M593 769l-167 -43l-141 43l31 109l132 -23l176 23zM-39 0l196 685h514l-48 -168h-317l-26 -90h287l-47 -166h-287l-27 -93h319l-48 -168h-516z" />
    <glyph glyph-name="ecaron" unicode="&#x11b;" horiz-adv-x="569" 
d="M523 602l-167 -43l-141 43l31 109l132 -23l176 23zM501 95q-34 -45 -95.5 -76t-136.5 -31q-111 0 -181 66.5t-70 171.5q0 127 90.5 215.5t216.5 88.5q107 0 169.5 -61t62.5 -161q0 -44 -18 -100h-351q8 -38 36 -59t69 -21q61 0 108 54zM309 392q-68 0 -103 -66h188
q-15 66 -85 66z" />
    <glyph glyph-name="Gcircumflex" unicode="&#x11c;" horiz-adv-x="755" 
d="M371 827l167 43l141 -43l-31 -109l-132 23l-176 -23zM772 395q-28 -194 -142.5 -302t-271.5 -108q-148 0 -233.5 87.5t-85.5 215.5q0 75 31.5 149t86 132t136 94t173.5 36q99 0 176.5 -41.5t108.5 -119.5l-176 -104q-30 83 -132 83q-84 0 -143 -64.5t-59 -148.5
q0 -63 39 -102.5t106 -39.5q47 0 83 20.5t53 54.5h-165l43 158h372z" />
    <glyph glyph-name="gcircumflex" unicode="&#x11d;" horiz-adv-x="592" 
d="M233 660l167 43l141 -43l-31 -109l-132 23l-176 -23zM393 276q0 39 -24 63t-59 24q-49 0 -85.5 -37.5t-36.5 -86.5q0 -37 24 -62.5t61 -25.5q47 0 83.5 38.5t36.5 86.5zM164 -196q-159 0 -215 92l119 105q39 -54 115 -54q47 0 86 22t55 58q-51 -24 -102 -24
q-85 0 -146 60t-61 156q0 121 89.5 212.5t209.5 91.5q80 0 136 -53l13 48h179l-144 -493q-31 -105 -123 -163t-211 -58z" />
    <glyph glyph-name="Gbreve" unicode="&#x11e;" horiz-adv-x="755" 
d="M694 900l-35 -121q-64 -52 -152 -52q-99 0 -142 62l31 111q63 -37 140 -37q90 0 158 37zM772 395q-28 -194 -142.5 -302t-271.5 -108q-148 0 -233.5 87.5t-85.5 215.5q0 75 31.5 149t86 132t136 94t173.5 36q99 0 176.5 -41.5t108.5 -119.5l-176 -104q-30 83 -132 83
q-84 0 -143 -64.5t-59 -148.5q0 -63 39 -102.5t106 -39.5q47 0 83 20.5t53 54.5h-165l43 158h372z" />
    <glyph glyph-name="gbreve" unicode="&#x11f;" horiz-adv-x="592" 
d="M556 733l-35 -121q-64 -52 -152 -52q-99 0 -142 62l31 111q63 -37 140 -37q90 0 158 37zM393 276q0 39 -24 63t-59 24q-49 0 -85.5 -37.5t-36.5 -86.5q0 -37 24 -62.5t61 -25.5q47 0 83.5 38.5t36.5 86.5zM164 -196q-159 0 -215 92l119 105q39 -54 115 -54q47 0 86 22
t55 58q-51 -24 -102 -24q-85 0 -146 60t-61 156q0 121 89.5 212.5t209.5 91.5q80 0 136 -53l13 48h179l-144 -493q-31 -105 -123 -163t-211 -58z" />
    <glyph glyph-name="Gdotaccent" unicode="&#x120;" horiz-adv-x="755" 
d="M586 729h-178l38 133h178zM772 395q-28 -194 -142.5 -302t-271.5 -108q-148 0 -233.5 87.5t-85.5 215.5q0 75 31.5 149t86 132t136 94t173.5 36q99 0 176.5 -41.5t108.5 -119.5l-176 -104q-30 83 -132 83q-84 0 -143 -64.5t-59 -148.5q0 -63 39 -102.5t106 -39.5
q47 0 83 20.5t53 54.5h-165l43 158h372z" />
    <glyph glyph-name="gdotaccent" unicode="&#x121;" horiz-adv-x="592" 
d="M448 562h-178l38 133h178zM393 276q0 39 -24 63t-59 24q-49 0 -85.5 -37.5t-36.5 -86.5q0 -37 24 -62.5t61 -25.5q47 0 83.5 38.5t36.5 86.5zM164 -196q-159 0 -215 92l119 105q39 -54 115 -54q47 0 86 22t55 58q-51 -24 -102 -24q-85 0 -146 60t-61 156
q0 121 89.5 212.5t209.5 91.5q80 0 136 -53l13 48h179l-144 -493q-31 -105 -123 -163t-211 -58z" />
    <glyph glyph-name="uni0122" unicode="&#x122;" horiz-adv-x="755" 
d="M772 395q-28 -194 -142.5 -302t-271.5 -108q-148 0 -233.5 87.5t-85.5 215.5q0 75 31.5 149t86 132t136 94t173.5 36q99 0 176.5 -41.5t108.5 -119.5l-176 -104q-30 83 -132 83q-84 0 -143 -64.5t-59 -148.5q0 -63 39 -102.5t106 -39.5q47 0 83 20.5t53 54.5h-165l43 158
h372zM377 -130l-75 -101h-115l57 69h-37l36 128h161z" />
    <glyph glyph-name="uni0123" unicode="&#x123;" horiz-adv-x="582" 
d="M316 658l75 101h115l-57 -69h37l-36 -128h-161zM393 276q0 39 -24 63t-59 24q-49 0 -85.5 -37.5t-36.5 -86.5q0 -37 24 -62.5t61 -25.5q47 0 83.5 38.5t36.5 86.5zM164 -196q-159 0 -215 92l119 105q39 -54 115 -54q47 0 86 22t55 58q-51 -24 -102 -24q-85 0 -146 60
t-61 156q0 121 89.5 212.5t209.5 91.5q80 0 136 -53l13 48h179l-144 -493q-31 -105 -123 -163t-211 -58z" />
    <glyph glyph-name="Hcircumflex" unicode="&#x124;" horiz-adv-x="682" 
d="M349 827l167 43l141 -43l-31 -109l-132 23l-176 -23zM376 0l72 250h-218l-72 -250h-197l196 685h197l-74 -261h218l74 261h197l-196 -685h-197z" />
    <glyph glyph-name="hcircumflex" unicode="&#x125;" 
d="M116 827l167 43l141 -43l-31 -109l-132 23l-176 -23zM204 271l-78 -271h-176l196 685h176l-60 -211q71 54 148 54q83 0 125.5 -59.5t15.5 -149.5l-93 -319h-176l79 277q11 38 -3 63.5t-50 25.5q-76 0 -104 -95z" />
    <glyph glyph-name="Hbar" unicode="&#x126;" horiz-adv-x="682" 
d="M281 424h218l15 53h-218zM231 250l-72 -250h-197l136 477h-36l45 156h36l15 52h197l-15 -52h218l15 52h197l-15 -52h38l-45 -156h-38l-136 -477h-197l72 250h-218z" />
    <glyph glyph-name="hbar" unicode="&#x127;" horiz-adv-x="555" 
d="M204 271l-78 -271h-176l156 545h-38l28 96h37l13 44h176l-12 -44h117l-28 -96h-117l-20 -71q71 54 148 54q83 0 125.5 -59.5t15.5 -149.5l-93 -319h-176l79 277q11 38 -3 63.5t-50 25.5q-76 0 -104 -95z" />
    <glyph glyph-name="Itilde" unicode="&#x128;" horiz-adv-x="267" 
d="M116 735l32 112q54 46 108 46q30 0 70 -15.5t63 -15.5q15 0 34 5.5t31 10.5l12 6l-33 -112q-59 -44 -107 -44q-30 0 -70.5 14.5t-63.5 14.5q-15 0 -34 -5.5t-30 -11.5zM158 0h-197l196 685h197z" />
    <glyph glyph-name="itilde" unicode="&#x129;" horiz-adv-x="225" 
d="M48 568l32 112q54 46 108 46q30 0 70 -15.5t63 -15.5q15 0 34 5.5t31 11.5l12 5l-33 -112q-59 -44 -107 -44q-30 0 -70.5 14.5t-63.5 14.5q-15 0 -34 -5.5t-30 -10.5zM126 0h-176l149 518h176z" />
    <glyph glyph-name="Imacron" unicode="&#x12a;" horiz-adv-x="267" 
d="M409 731h-282l45 157h282zM158 0h-197l196 685h197z" />
    <glyph glyph-name="imacron" unicode="&#x12b;" horiz-adv-x="225" 
d="M341 564h-282l45 157h282zM126 0h-176l149 518h176z" />
    <glyph glyph-name="Ibreve" unicode="&#x12c;" horiz-adv-x="267" 
d="M464 900l-35 -121q-64 -52 -152 -52q-99 0 -142 62l31 111q63 -37 140 -37q90 0 158 37zM158 0h-197l196 685h197z" />
    <glyph glyph-name="ibreve" unicode="&#x12d;" horiz-adv-x="225" 
d="M396 733l-35 -121q-64 -52 -152 -52q-99 0 -142 62l31 111q63 -37 140 -37q90 0 158 37zM126 0h-176l149 518h176z" />
    <glyph glyph-name="Iogonek" unicode="&#x12e;" horiz-adv-x="267" 
d="M112 -168q-28 -18 -69 -18q-38 0 -59 18t-21 49q0 33 25.5 67t61.5 52h-88l196 685h197l-196 -685h-28q-29 -16 -46 -39.5t-17 -42.5q0 -21 28 -21q9 0 18 1.5t14 3.5l4 1z" />
    <glyph glyph-name="iogonek" unicode="&#x12f;" horiz-adv-x="225" 
d="M284 547h-176l39 138h176zM82 -168q-28 -18 -69 -18q-38 0 -59 18t-21 49q0 33 25.5 67t61.5 52h-69l149 518h176l-149 -518h-26q-29 -16 -46 -39.5t-17 -42.5q0 -21 28 -21q9 0 18 1.5t14 3.5l4 1z" />
    <glyph glyph-name="dotlessi" unicode="&#x131;" horiz-adv-x="225" 
d="M126 0h-176l149 518h176z" />
    <glyph glyph-name="IJ" unicode="&#x132;" horiz-adv-x="849" 
d="M158 0h-197l196 685h197zM288 256h195q-21 -91 52 -91q60 0 80 69l129 451h197l-133 -466q-31 -107 -102.5 -168t-185.5 -61q-125 0 -191.5 68t-40.5 198z" />
    <glyph glyph-name="ij" unicode="&#x133;" horiz-adv-x="450" 
d="M508 547h-176l39 138h176zM283 547h-176l39 138h176zM126 0h-176l149 518h176zM324 518h175l-147 -517q-33 -117 -103 -161t-190 -26l43 154q36 -5 52.5 8.5t27.5 51.5z" />
    <glyph glyph-name="Jcircumflex" unicode="&#x134;" horiz-adv-x="582" 
d="M459 827l167 43l141 -43l-31 -109l-132 23l-176 -23zM21 256h195q-21 -91 52 -91q60 0 80 69l129 451h197l-133 -466q-31 -107 -102.5 -168t-185.5 -61q-125 0 -191.5 68t-40.5 198z" />
    <glyph glyph-name="jcircumflex" unicode="&#x135;" horiz-adv-x="225" 
d="M73 660l167 43l141 -43l-31 -109l-132 23l-176 -23zM99 518h175l-147 -517q-33 -117 -103 -161t-190 -26l43 154q36 -5 52.5 8.5t27.5 51.5z" />
    <glyph glyph-name="uni0136" unicode="&#x136;" horiz-adv-x="658" 
d="M370 0l-127 299l-85 -299h-197l196 685h197l-83 -290l268 290h244l-340 -342l149 -343h-222zM314 -130l-75 -101h-115l57 69h-37l36 128h161z" />
    <glyph glyph-name="uni0137" unicode="&#x137;" horiz-adv-x="545" 
d="M274 0l-86 218l-62 -218h-176l196 685h176l-106 -371l187 204h216l-257 -262l112 -256h-200zM256 -130l-75 -101h-115l57 69h-37l36 128h161z" />
    <glyph glyph-name="kgreenlandic" unicode="&#x138;" horiz-adv-x="545" 
d="M274 0l-86 218l-62 -218h-176l148 518h176l-58 -205l187 205h216l-257 -262l112 -256h-200z" />
    <glyph glyph-name="Lacute" unicode="&#x139;" horiz-adv-x="533" 
d="M405 772l-262 -52l44 155l263 54zM-39 0l196 685h197l-146 -511h281l-50 -174h-478z" />
    <glyph glyph-name="lacute" unicode="&#x13a;" horiz-adv-x="225" 
d="M383 772l-262 -52l44 155l263 54zM126 0h-176l196 685h176z" />
    <glyph glyph-name="uni013B" unicode="&#x13b;" horiz-adv-x="533" 
d="M-39 0l196 685h197l-146 -511h281l-50 -174h-478zM245 -130l-75 -101h-115l57 69h-37l36 128h161z" />
    <glyph glyph-name="uni013C" unicode="&#x13c;" horiz-adv-x="225" 
d="M126 0h-176l196 685h176zM82 -130l-75 -101h-115l57 69h-37l36 128h161z" />
    <glyph glyph-name="Lcaron" unicode="&#x13d;" horiz-adv-x="533" 
d="M581 535l-101 -137h-121l79 106h-49l52 181h183zM-39 0l196 685h197l-146 -511h281l-50 -174h-478z" />
    <glyph glyph-name="lcaron" unicode="&#x13e;" horiz-adv-x="460" 
d="M515 535l-101 -137h-121l79 106h-49l52 181h183zM126 0h-176l196 685h176z" />
    <glyph glyph-name="Ldot" unicode="&#x13f;" horiz-adv-x="533" 
d="M-39 0l196 685h197l-146 -511h281l-50 -174h-478zM501 307h-178l38 133h178z" />
    <glyph glyph-name="ldot" unicode="&#x140;" horiz-adv-x="399" 
d="M126 0h-176l196 685h176zM411 295h-178l38 133h178z" />
    <glyph glyph-name="Lslash" unicode="&#x141;" horiz-adv-x="543" 
d="M450 0h-478l75 262l-42 -20l38 132l42 20l83 291h197l-53 -184l51 24l-39 -133l-49 -23l-56 -195h281z" />
    <glyph glyph-name="lslash" unicode="&#x142;" horiz-adv-x="235" 
d="M270 378l-36 -19l-103 -359h-175l76 264l-34 -17l36 127l34 17l84 294h175l-56 -197l36 18z" />
    <glyph glyph-name="Nacute" unicode="&#x143;" horiz-adv-x="690" 
d="M616 772l-262 -52l44 155l263 54zM363 0l-107 363l-104 -363h-191l196 685h218l105 -370l106 370h191l-196 -685h-218z" />
    <glyph glyph-name="nacute" unicode="&#x144;" 
d="M504 605l-262 -52l44 155l263 54zM204 271l-78 -271h-176l149 518h173l-12 -46q71 56 150 56q84 0 125 -62t12 -163l-89 -303h-176l79 277q12 40 -1 64.5t-50 24.5q-78 0 -106 -95z" />
    <glyph glyph-name="uni0145" unicode="&#x145;" horiz-adv-x="690" 
d="M363 0l-107 363l-104 -363h-191l196 685h218l105 -370l106 370h191l-196 -685h-218zM312 -130l-75 -101h-115l57 69h-37l36 128h161z" />
    <glyph glyph-name="uni0146" unicode="&#x146;" 
d="M204 271l-78 -271h-176l149 518h173l-12 -46q71 56 150 56q84 0 125 -62t12 -163l-89 -303h-176l79 277q12 40 -1 64.5t-50 24.5q-78 0 -106 -95zM250 -130l-75 -101h-115l57 69h-37l36 128h161z" />
    <glyph glyph-name="Ncaron" unicode="&#x147;" horiz-adv-x="690" 
d="M645 769l-167 -43l-141 43l31 109l132 -23l176 23zM363 0l-107 363l-104 -363h-191l196 685h218l105 -370l106 370h191l-196 -685h-218z" />
    <glyph glyph-name="ncaron" unicode="&#x148;" 
d="M533 602l-167 -43l-141 43l31 109l132 -23l176 23zM204 271l-78 -271h-176l149 518h173l-12 -46q71 56 150 56q84 0 125 -62t12 -163l-89 -303h-176l79 277q12 40 -1 64.5t-50 24.5q-78 0 -106 -95z" />
    <glyph glyph-name="napostrophe" unicode="&#x149;" 
d="M296 654l-75 -101h-115l57 69h-37l36 128h161zM204 271l-78 -271h-176l149 518h173l-12 -46q71 56 150 56q84 0 125 -62t12 -163l-89 -303h-176l79 277q12 40 -1 64.5t-50 24.5q-78 0 -106 -95z" />
    <glyph glyph-name="Eng" unicode="&#x14a;" horiz-adv-x="690" 
d="M581 1q-33 -117 -103 -161t-190 -26l43 154q48 -7 63 25l-137 374l-105 -367h-191l196 685h218l119 -322l92 322h191z" />
    <glyph glyph-name="eng" unicode="&#x14b;" 
d="M272 518l-14 -48q69 58 156 58q88 0 125 -58t10 -151l-83 -290q-34 -117 -106 -170t-195 -52l44 156q36 0 53.5 15.5t28.5 53.5l70 245q12 39 -1 64t-49 25q-35 0 -65 -25.5t-42 -69.5l-78 -271h-176l149 518h173z" />
    <glyph glyph-name="Omacron" unicode="&#x14c;" horiz-adv-x="757" 
d="M631 731h-282l45 157h282zM358 -15q-139 0 -228 87t-89 219q0 105 53.5 199t148 152t205.5 58q139 0 228 -87t89 -219q0 -105 -53.5 -199t-148 -152t-205.5 -58zM376 171q74 0 130.5 60t56.5 141q0 60 -36 101t-98 41q-72 0 -129.5 -61t-57.5 -140q0 -60 36 -101t98 -41z
" />
    <glyph glyph-name="omacron" unicode="&#x14d;" horiz-adv-x="582" 
d="M503 564h-282l45 157h282zM325 530q105 0 173.5 -66.5t68.5 -165.5q0 -126 -90.5 -218.5t-218.5 -92.5q-107 0 -175 67t-68 167q0 126 92.5 217.5t217.5 91.5zM394 273q0 39 -24.5 65t-63.5 26q-48 0 -83 -36.5t-35 -89.5q0 -38 24 -64t64 -26q50 0 84 38t34 87z" />
    <glyph glyph-name="Obreve" unicode="&#x14e;" horiz-adv-x="757" 
d="M686 900l-35 -121q-64 -52 -152 -52q-99 0 -142 62l31 111q63 -37 140 -37q90 0 158 37zM358 -15q-139 0 -228 87t-89 219q0 105 53.5 199t148 152t205.5 58q139 0 228 -87t89 -219q0 -105 -53.5 -199t-148 -152t-205.5 -58zM376 171q74 0 130.5 60t56.5 141
q0 60 -36 101t-98 41q-72 0 -129.5 -61t-57.5 -140q0 -60 36 -101t98 -41z" />
    <glyph glyph-name="obreve" unicode="&#x14f;" horiz-adv-x="582" 
d="M558 733l-35 -121q-64 -52 -152 -52q-99 0 -142 62l31 111q63 -37 140 -37q90 0 158 37zM325 530q105 0 173.5 -66.5t68.5 -165.5q0 -126 -90.5 -218.5t-218.5 -92.5q-107 0 -175 67t-68 167q0 126 92.5 217.5t217.5 91.5zM394 273q0 39 -24.5 65t-63.5 26
q-48 0 -83 -36.5t-35 -89.5q0 -38 24 -64t64 -26q50 0 84 38t34 87z" />
    <glyph glyph-name="Ohungarumlaut" unicode="&#x150;" horiz-adv-x="757" 
d="M469 725h-168l91 147h172zM676 725h-169l94 147h173zM358 -15q-139 0 -228 87t-89 219q0 105 53.5 199t148 152t205.5 58q139 0 228 -87t89 -219q0 -105 -53.5 -199t-148 -152t-205.5 -58zM376 171q74 0 130.5 60t56.5 141q0 60 -36 101t-98 41q-72 0 -129.5 -61
t-57.5 -140q0 -60 36 -101t98 -41z" />
    <glyph glyph-name="ohungarumlaut" unicode="&#x151;" horiz-adv-x="582" 
d="M341 558h-168l91 147h172zM548 558h-169l94 147h173zM325 530q105 0 173.5 -66.5t68.5 -165.5q0 -126 -90.5 -218.5t-218.5 -92.5q-107 0 -175 67t-68 167q0 126 92.5 217.5t217.5 91.5zM394 273q0 39 -24.5 65t-63.5 26q-48 0 -83 -36.5t-35 -89.5q0 -38 24 -64t64 -26
q50 0 84 38t34 87z" />
    <glyph glyph-name="OE" unicode="&#x152;" horiz-adv-x="1014" 
d="M356 0q-153 0 -234 80.5t-81 203.5q0 80 28.5 151.5t81.5 127.5t137 89t188 33h632l-48 -168h-316l-26 -90h287l-47 -166h-287l-27 -93h319l-48 -168h-559zM545 511h-95q-98 0 -151 -58.5t-53 -137.5q0 -61 35.5 -101t97.5 -40h69z" />
    <glyph glyph-name="oe" unicode="&#x153;" horiz-adv-x="944" 
d="M687 392q-68 0 -103 -66h188q-15 66 -85 66zM394 273q0 39 -24.5 65t-63.5 26q-48 0 -83 -36.5t-35 -89.5q0 -38 24 -64t64 -26q50 0 84 38t34 87zM647 -12q-120 0 -188 79q-85 -80 -201 -80q-107 0 -175 67t-68 167q0 126 92.5 217.5t217.5 91.5q114 0 178 -77
q83 77 200 77q107 0 169.5 -61t62.5 -161q0 -44 -18 -100h-351q8 -38 36 -59t69 -21q61 0 108 54l100 -87q-34 -45 -95.5 -76t-136.5 -31z" />
    <glyph glyph-name="Racute" unicode="&#x154;" horiz-adv-x="615" 
d="M600 772l-262 -52l44 155l263 54zM264 370h59q53 0 80.5 24.5t27.5 62.5q0 54 -72 54h-54zM313 0l-91 223l-64 -223h-197l196 685h269q93 0 151 -55.5t58 -142.5q0 -95 -58.5 -169t-144.5 -95l108 -223h-227z" />
    <glyph glyph-name="racute" unicode="&#x155;" horiz-adv-x="352" 
d="M461 605l-262 -52l44 155l263 54zM413 525l-51 -176q-136 0 -173 -130l-63 -219h-176l149 518h175l-18 -61q7 8 20.5 19t54.5 30t82 19z" />
    <glyph glyph-name="uni0156" unicode="&#x156;" horiz-adv-x="615" 
d="M264 370h59q53 0 80.5 24.5t27.5 62.5q0 54 -72 54h-54zM313 0l-91 223l-64 -223h-197l196 685h269q93 0 151 -55.5t58 -142.5q0 -95 -58.5 -169t-144.5 -95l108 -223h-227zM288 -130l-75 -101h-115l57 69h-37l36 128h161z" />
    <glyph glyph-name="uni0157" unicode="&#x157;" horiz-adv-x="352" 
d="M413 525l-51 -176q-136 0 -173 -130l-63 -219h-176l149 518h175l-18 -61q7 8 20.5 19t54.5 30t82 19zM77 -130l-75 -101h-115l57 69h-37l36 128h161z" />
    <glyph glyph-name="Rcaron" unicode="&#x158;" horiz-adv-x="615" 
d="M629 769l-167 -43l-141 43l31 109l132 -23l176 23zM264 370h59q53 0 80.5 24.5t27.5 62.5q0 54 -72 54h-54zM313 0l-91 223l-64 -223h-197l196 685h269q93 0 151 -55.5t58 -142.5q0 -95 -58.5 -169t-144.5 -95l108 -223h-227z" />
    <glyph glyph-name="rcaron" unicode="&#x159;" horiz-adv-x="352" 
d="M490 602l-167 -43l-141 43l31 109l132 -23l176 23zM413 525l-51 -176q-136 0 -173 -130l-63 -219h-176l149 518h175l-18 -61q7 8 20.5 19t54.5 30t82 19z" />
    <glyph glyph-name="Sacute" unicode="&#x15a;" horiz-adv-x="602" 
d="M542 772l-262 -52l44 155l263 54zM274 -14q-125 0 -198 55.5t-61 179.5h192q-2 -40 19 -60t68 -20q31 0 49 12.5t18 31.5t-18.5 32.5t-55.5 27.5q-100 40 -148 86t-48 127q0 105 78.5 173.5t198.5 68.5q123 0 194 -61.5t59 -174.5h-187q6 34 -13.5 55t-59.5 21
q-36 0 -53.5 -13.5t-17.5 -34.5q0 -22 24.5 -37.5t73.5 -34.5q41 -15 67.5 -27.5t56.5 -34.5t44.5 -53.5t14.5 -73.5q0 -106 -82.5 -175.5t-214.5 -69.5z" />
    <glyph glyph-name="sacute" unicode="&#x15b;" horiz-adv-x="485" 
d="M450 605l-262 -52l44 155l263 54zM-11 161h165q-3 -24 12.5 -39t47.5 -15q43 0 43 28q0 19 -54 35q-80 25 -110 46q-56 40 -56 114q0 85 69 141.5t176 56.5q96 0 148.5 -45.5t38.5 -131.5h-167q4 25 -7.5 38.5t-37.5 13.5q-20 0 -32.5 -9.5t-12.5 -23.5q0 -24 75 -47
q5 -2 8 -3q31 -9 51.5 -17.5t45 -25t37 -42.5t12.5 -61q0 -86 -70 -136t-178 -50q-111 0 -165.5 49t-38.5 124z" />
    <glyph glyph-name="Scircumflex" unicode="&#x15c;" horiz-adv-x="602" 
d="M279 827l167 43l141 -43l-31 -109l-132 23l-176 -23zM274 -14q-125 0 -198 55.5t-61 179.5h192q-2 -40 19 -60t68 -20q31 0 49 12.5t18 31.5t-18.5 32.5t-55.5 27.5q-100 40 -148 86t-48 127q0 105 78.5 173.5t198.5 68.5q123 0 194 -61.5t59 -174.5h-187q6 34 -13.5 55
t-59.5 21q-36 0 -53.5 -13.5t-17.5 -34.5q0 -22 24.5 -37.5t73.5 -34.5q41 -15 67.5 -27.5t56.5 -34.5t44.5 -53.5t14.5 -73.5q0 -106 -82.5 -175.5t-214.5 -69.5z" />
    <glyph glyph-name="scircumflex" unicode="&#x15d;" horiz-adv-x="485" 
d="M187 660l167 43l141 -43l-31 -109l-132 23l-176 -23zM-11 161h165q-3 -24 12.5 -39t47.5 -15q43 0 43 28q0 19 -54 35q-80 25 -110 46q-56 40 -56 114q0 85 69 141.5t176 56.5q96 0 148.5 -45.5t38.5 -131.5h-167q4 25 -7.5 38.5t-37.5 13.5q-20 0 -32.5 -9.5
t-12.5 -23.5q0 -24 75 -47q5 -2 8 -3q31 -9 51.5 -17.5t45 -25t37 -42.5t12.5 -61q0 -86 -70 -136t-178 -50q-111 0 -165.5 49t-38.5 124z" />
    <glyph glyph-name="uni015E" unicode="&#x15e;" horiz-adv-x="602" 
d="M201 -223q-44 0 -70 28.5t-18 66.5h81q0 -21 20 -21q10 0 17 7.5t7 17.5q0 19 -22 19h-65l68 94q-102 11 -158.5 66.5t-45.5 165.5h192q-2 -40 19 -60t68 -20q31 0 49 12.5t18 31.5t-18.5 32.5t-55.5 27.5q-100 40 -148 86t-48 127q0 105 78.5 173.5t198.5 68.5
q123 0 194 -61.5t59 -174.5h-187q6 34 -13.5 55t-59.5 21q-36 0 -53.5 -13.5t-17.5 -34.5q0 -22 24.5 -37.5t73.5 -34.5q41 -15 67.5 -27.5t56.5 -34.5t44.5 -53.5t14.5 -73.5q0 -103 -78 -172t-205 -73l-20 -26q26 -3 40 -21t14 -47q0 -46 -33 -80.5t-88 -34.5z" />
    <glyph glyph-name="uni015F" unicode="&#x15f;" horiz-adv-x="485" 
d="M130 -223q-44 0 -70 28.5t-18 66.5h81q0 -21 20 -21q10 0 17 7.5t7 17.5q0 19 -22 19h-65l69 95q-89 10 -132 57t-28 114h165q-3 -24 12.5 -39t47.5 -15q43 0 43 28q0 19 -54 35q-80 25 -110 46q-56 40 -56 114q0 85 69 141.5t176 56.5q96 0 148.5 -45.5t38.5 -131.5
h-167q4 25 -7.5 38.5t-37.5 13.5q-20 0 -32.5 -9.5t-12.5 -23.5q0 -24 75 -47q5 -2 8 -3q31 -9 51.5 -17.5t45 -25t37 -42.5t12.5 -61q0 -80 -62 -129.5t-160 -55.5l-22 -29q26 -3 40 -21t14 -47q0 -46 -33 -80.5t-88 -34.5z" />
    <glyph glyph-name="Scaron" unicode="&#x160;" horiz-adv-x="602" 
d="M571 769l-167 -43l-141 43l31 109l132 -23l176 23zM274 -14q-125 0 -198 55.5t-61 179.5h192q-2 -40 19 -60t68 -20q31 0 49 12.5t18 31.5t-18.5 32.5t-55.5 27.5q-100 40 -148 86t-48 127q0 105 78.5 173.5t198.5 68.5q123 0 194 -61.5t59 -174.5h-187q6 34 -13.5 55
t-59.5 21q-36 0 -53.5 -13.5t-17.5 -34.5q0 -22 24.5 -37.5t73.5 -34.5q41 -15 67.5 -27.5t56.5 -34.5t44.5 -53.5t14.5 -73.5q0 -106 -82.5 -175.5t-214.5 -69.5z" />
    <glyph glyph-name="scaron" unicode="&#x161;" horiz-adv-x="485" 
d="M479 602l-167 -43l-141 43l31 109l132 -23l176 23zM-11 161h165q-3 -24 12.5 -39t47.5 -15q43 0 43 28q0 19 -54 35q-80 25 -110 46q-56 40 -56 114q0 85 69 141.5t176 56.5q96 0 148.5 -45.5t38.5 -131.5h-167q4 25 -7.5 38.5t-37.5 13.5q-20 0 -32.5 -9.5t-12.5 -23.5
q0 -24 75 -47q5 -2 8 -3q31 -9 51.5 -17.5t45 -25t37 -42.5t12.5 -61q0 -86 -70 -136t-178 -50q-111 0 -165.5 49t-38.5 124z" />
    <glyph glyph-name="uni0162" unicode="&#x162;" horiz-adv-x="599" 
d="M164 -223q-44 0 -70 28.5t-18 66.5h81q0 -21 20 -21q10 0 17 7.5t7 17.5q0 19 -22 19h-65l76 105h-62l147 511h-185l49 174h566l-49 -174h-184l-147 -511h-63l-31 -40q26 -3 40 -21t14 -47q0 -46 -33 -80.5t-88 -34.5z" />
    <glyph glyph-name="uni0163" unicode="&#x163;" horiz-adv-x="401" 
d="M100 -223q-44 0 -70 28.5t-18 66.5h81q0 -21 20 -21q10 0 17 7.5t7 17.5q0 19 -22 19h-65l83 114h14q-57 18 -73.5 72t6.5 131l43 149h-71l45 157h71l36 127h176l-36 -127h114l-45 -157h-115l-41 -145q-19 -68 41 -68h53l-41 -148h-112l-31 -40q26 -3 40 -21t14 -47
q0 -46 -33 -80.5t-88 -34.5z" />
    <glyph glyph-name="Tcaron" unicode="&#x164;" horiz-adv-x="599" 
d="M599 769l-167 -43l-141 43l31 109l132 -23l176 23zM324 0h-197l147 511h-185l49 174h566l-49 -174h-184z" />
    <glyph glyph-name="tcaron" unicode="&#x165;" horiz-adv-x="401" 
d="M619 700l-101 -137h-121l79 106h-49l52 181h183zM297 361l-41 -145q-19 -68 41 -68h53l-41 -148h-99q-94 0 -126.5 57t-4.5 155l43 149h-71l45 157h71l36 127h176l-36 -127h114l-45 -157h-115z" />
    <glyph glyph-name="Tbar" unicode="&#x166;" horiz-adv-x="599" 
d="M532 232h-140l-67 -232h-197l67 232h-141l44 156h142l35 123h-185l49 174h566l-49 -174h-184l-35 -123h139z" />
    <glyph glyph-name="tbar" unicode="&#x167;" horiz-adv-x="402" 
d="M350 148l-41 -148h-99q-89 0 -122.5 51t-13.5 140h-72l38 132h71l11 38h-71l45 157h71l36 127h176l-36 -127h114l-45 -157h-115l-11 -38h116l-38 -132h-113q-1 -21 10 -32t36 -11h53z" />
    <glyph glyph-name="Utilde" unicode="&#x168;" horiz-adv-x="656" 
d="M305 735l32 112q54 46 108 46q30 0 70 -15.5t63 -15.5q15 0 34 5.5t31 10.5l12 6l-33 -112q-59 -44 -107 -44q-30 0 -70.5 14.5t-63.5 14.5q-15 0 -34 -5.5t-31 -11.5zM748 685l-126 -442q-34 -120 -120.5 -188t-217.5 -68q-145 0 -210.5 96t-24.5 240l103 362h197
l-110 -382q-18 -63 1.5 -100.5t76.5 -37.5q85 0 115 104l119 416h197z" />
    <glyph glyph-name="utilde" unicode="&#x169;" 
d="M212 568l32 112q54 46 108 46q30 0 70 -15.5t63 -15.5q15 0 34 5.5t31 11.5l12 5l-33 -112q-59 -44 -107 -44q-30 0 -70.5 14.5t-63.5 14.5q-15 0 -34 -5.5t-30 -10.5zM283 0l12 46q-71 -56 -150 -56q-84 0 -125 62t-12 163l89 303h176l-79 -277q-12 -40 1 -64.5
t50 -24.5q78 0 106 95l78 271h176l-149 -518h-173z" />
    <glyph glyph-name="Umacron" unicode="&#x16a;" horiz-adv-x="656" 
d="M598 731h-282l45 157h282zM748 685l-126 -442q-34 -120 -120.5 -188t-217.5 -68q-145 0 -210.5 96t-24.5 240l103 362h197l-110 -382q-18 -63 1.5 -100.5t76.5 -37.5q85 0 115 104l119 416h197z" />
    <glyph glyph-name="umacron" unicode="&#x16b;" 
d="M505 564h-282l45 157h282zM283 0l12 46q-71 -56 -150 -56q-84 0 -125 62t-12 163l89 303h176l-79 -277q-12 -40 1 -64.5t50 -24.5q78 0 106 95l78 271h176l-149 -518h-173z" />
    <glyph glyph-name="Ubreve" unicode="&#x16c;" horiz-adv-x="656" 
d="M653 900l-35 -121q-64 -52 -152 -52q-99 0 -142 62l31 111q63 -37 140 -37q90 0 158 37zM748 685l-126 -442q-34 -120 -120.5 -188t-217.5 -68q-145 0 -210.5 96t-24.5 240l103 362h197l-110 -382q-18 -63 1.5 -100.5t76.5 -37.5q85 0 115 104l119 416h197z" />
    <glyph glyph-name="ubreve" unicode="&#x16d;" 
d="M560 733l-35 -121q-64 -52 -152 -52q-99 0 -142 62l31 111q63 -37 140 -37q90 0 158 37zM283 0l12 46q-71 -56 -150 -56q-84 0 -125 62t-12 163l89 303h176l-79 -277q-12 -40 1 -64.5t50 -24.5q78 0 106 95l78 271h176l-149 -518h-173z" />
    <glyph glyph-name="Uring" unicode="&#x16e;" horiz-adv-x="656" 
d="M376 812q0 51 37.5 87.5t86.5 36.5q41 0 67.5 -26.5t26.5 -68.5q0 -53 -36.5 -89t-87.5 -36q-40 0 -67 27t-27 69zM516 832q0 13 -7.5 21t-18.5 8q-15 0 -25.5 -12t-10.5 -29q0 -13 7.5 -21t18.5 -8q15 0 25.5 12.5t10.5 28.5zM748 685l-126 -442q-34 -120 -120.5 -188
t-217.5 -68q-145 0 -210.5 96t-24.5 240l103 362h197l-110 -382q-18 -63 1.5 -100.5t76.5 -37.5q85 0 115 104l119 416h197z" />
    <glyph glyph-name="uring" unicode="&#x16f;" 
d="M283 645q0 51 37.5 87.5t86.5 36.5q41 0 67.5 -26.5t26.5 -68.5q0 -53 -36.5 -89t-87.5 -36q-40 0 -67 27t-27 69zM423 665q0 13 -7.5 21t-18.5 8q-15 0 -25.5 -12t-10.5 -29q0 -13 7.5 -21t18.5 -8q15 0 25.5 12.5t10.5 28.5zM283 0l12 46q-71 -56 -150 -56
q-84 0 -125 62t-12 163l89 303h176l-79 -277q-12 -40 1 -64.5t50 -24.5q78 0 106 95l78 271h176l-149 -518h-173z" />
    <glyph glyph-name="Uhungarumlaut" unicode="&#x170;" horiz-adv-x="656" 
d="M436 725h-168l91 147h172zM643 725h-169l94 147h173zM748 685l-126 -442q-34 -120 -120.5 -188t-217.5 -68q-145 0 -210.5 96t-24.5 240l103 362h197l-110 -382q-18 -63 1.5 -100.5t76.5 -37.5q85 0 115 104l119 416h197z" />
    <glyph glyph-name="uhungarumlaut" unicode="&#x171;" 
d="M343 558h-168l91 147h172zM550 558h-169l94 147h173zM283 0l12 46q-71 -56 -150 -56q-84 0 -125 62t-12 163l89 303h176l-79 -277q-12 -40 1 -64.5t50 -24.5q78 0 106 95l78 271h176l-149 -518h-173z" />
    <glyph glyph-name="Uogonek" unicode="&#x172;" horiz-adv-x="656" 
d="M268 -186q-38 0 -59 18t-21 49q0 28 19 57.5t48 49.5q-130 11 -187 105.5t-18 229.5l103 362h197l-110 -382q-18 -63 1.5 -100.5t76.5 -37.5q85 0 115 104l119 416h197l-126 -442q-30 -106 -102 -172t-180 -80q-48 -36 -48 -73q0 -21 28 -21q9 0 18 1.5t13 3.5l5 1
l-20 -71q-28 -18 -69 -18z" />
    <glyph glyph-name="uogonek" unicode="&#x173;" 
d="M410 -168q-28 -18 -69 -18q-38 0 -59 18t-21 49q0 33 25.5 67t61.5 52h-64l12 46q-71 -56 -150 -56q-84 0 -125 62t-12 163l89 303h176l-79 -277q-12 -40 1 -64.5t50 -24.5q78 0 106 95l78 271h176l-149 -518h-28q-29 -16 -46 -39.5t-17 -42.5q0 -21 28 -21q9 0 18 1.5
t14 3.5l4 1z" />
    <glyph glyph-name="Wcircumflex" unicode="&#x174;" horiz-adv-x="960" 
d="M487 827l167 43l141 -43l-31 -109l-132 23l-176 -23zM504 0l6 352l-199 -352h-228l46 685h201l-43 -419l235 419h156l-5 -426l198 426h207l-347 -685h-227z" />
    <glyph glyph-name="wcircumflex" unicode="&#x175;" horiz-adv-x="810" 
d="M367 660l167 43l141 -43l-31 -109l-132 23l-176 -23zM390 0l16 256l-129 -256h-198l10 518h175l-21 -298l159 298h153l-12 -299l149 299h181l-286 -518h-197z" />
    <glyph glyph-name="Ycircumflex" unicode="&#x176;" horiz-adv-x="667" 
d="M333 827l167 43l141 -43l-31 -109l-132 23l-176 -23zM357 0h-197l70 246l-105 439h201l47 -258l191 258h220l-356 -436z" />
    <glyph glyph-name="ycircumflex" unicode="&#x177;" horiz-adv-x="551" 
d="M229 660l167 43l141 -43l-31 -109l-132 23l-176 -23zM278 -25q-70 -111 -141.5 -143t-194.5 -15l43 156q60 -9 88 4t45 56l-35 485h182l2 -272l156 272h202z" />
    <glyph glyph-name="Ydieresis" unicode="&#x178;" horiz-adv-x="667" 
d="M444 729h-157l38 133h157zM631 729h-157l38 133h157zM357 0h-197l70 246l-105 439h201l47 -258l191 258h220l-356 -436z" />
    <glyph glyph-name="Zacute" unicode="&#x179;" horiz-adv-x="538" 
d="M540 772l-262 -52l44 155l263 54zM606 527l-370 -358h265l-48 -169h-512l44 154l366 362h-268l48 169h520z" />
    <glyph glyph-name="zacute" unicode="&#x17a;" horiz-adv-x="472" 
d="M455 605l-262 -52l44 155l263 54zM493 387l-262 -237h188l-43 -150h-429l37 128l262 238h-202l44 152h443z" />
    <glyph glyph-name="Zdotaccent" unicode="&#x17b;" horiz-adv-x="538" 
d="M492 729h-178l38 133h178zM606 527l-370 -358h265l-48 -169h-512l44 154l366 362h-268l48 169h520z" />
    <glyph glyph-name="zdotaccent" unicode="&#x17c;" horiz-adv-x="472" 
d="M407 562h-178l38 133h178zM493 387l-262 -237h188l-43 -150h-429l37 128l262 238h-202l44 152h443z" />
    <glyph glyph-name="Zcaron" unicode="&#x17d;" horiz-adv-x="538" 
d="M569 769l-167 -43l-141 43l31 109l132 -23l176 23zM606 527l-370 -358h265l-48 -169h-512l44 154l366 362h-268l48 169h520z" />
    <glyph glyph-name="zcaron" unicode="&#x17e;" horiz-adv-x="472" 
d="M484 602l-167 -43l-141 43l31 109l132 -23l176 23zM493 387l-262 -237h188l-43 -150h-429l37 128l262 238h-202l44 152h443z" />
    <glyph glyph-name="uni0192" unicode="&#x192;" horiz-adv-x="396" 
d="M465 570h-48q-55 0 -70 -52l-1 -1h103l-43 -152h-103l-89 -309q-36 -125 -112 -181.5t-206 -56.5l43 152q46 0 68 18t34 62l91 315h-80l43 152h80l1 3q25 87 90.5 136t168.5 49h69z" />
    <glyph glyph-name="uni0218" unicode="&#x218;" horiz-adv-x="602" 
d="M274 -14q-125 0 -198 55.5t-61 179.5h192q-2 -40 19 -60t68 -20q31 0 49 12.5t18 31.5t-18.5 32.5t-55.5 27.5q-100 40 -148 86t-48 127q0 105 78.5 173.5t198.5 68.5q123 0 194 -61.5t59 -174.5h-187q6 34 -13.5 55t-59.5 21q-36 0 -53.5 -13.5t-17.5 -34.5
q0 -22 24.5 -37.5t73.5 -34.5q41 -15 67.5 -27.5t56.5 -34.5t44.5 -53.5t14.5 -73.5q0 -106 -82.5 -175.5t-214.5 -69.5zM301 -130l-75 -101h-115l57 69h-37l36 128h161z" />
    <glyph glyph-name="uni0219" unicode="&#x219;" horiz-adv-x="485" 
d="M-11 161h165q-3 -24 12.5 -39t47.5 -15q43 0 43 28q0 19 -54 35q-80 25 -110 46q-56 40 -56 114q0 85 69 141.5t176 56.5q96 0 148.5 -45.5t38.5 -131.5h-167q4 25 -7.5 38.5t-37.5 13.5q-20 0 -32.5 -9.5t-12.5 -23.5q0 -24 75 -47q5 -2 8 -3q31 -9 51.5 -17.5t45 -25
t37 -42.5t12.5 -61q0 -86 -70 -136t-178 -50q-111 0 -165.5 49t-38.5 124zM230 -130l-75 -101h-115l57 69h-37l36 128h161z" />
    <glyph glyph-name="uni021A" unicode="&#x21a;" horiz-adv-x="599" 
d="M324 0h-197l147 511h-185l49 174h566l-49 -174h-184zM269 -130l-75 -101h-115l57 69h-37l36 128h161z" />
    <glyph glyph-name="uni021B" unicode="&#x21b;" horiz-adv-x="401" 
d="M297 361l-41 -145q-19 -68 41 -68h53l-41 -148h-99q-94 0 -126.5 57t-4.5 155l43 149h-71l45 157h71l36 127h176l-36 -127h114l-45 -157h-115zM245 -130l-75 -101h-115l57 69h-37l36 128h161z" />
    <glyph glyph-name="uni0237" unicode="&#x237;" horiz-adv-x="225" 
d="M99 518h175l-147 -517q-33 -117 -103 -161t-190 -26l43 154q36 -5 52.5 8.5t27.5 51.5z" />
    <glyph glyph-name="circumflex" unicode="&#x2c6;" horiz-adv-x="394" 
d="M158 660l167 43l141 -43l-31 -109l-132 23l-176 -23z" />
    <glyph glyph-name="caron" unicode="&#x2c7;" horiz-adv-x="394" 
d="M450 602l-167 -43l-141 43l31 109l132 -23l176 23z" />
    <glyph glyph-name="breve" unicode="&#x2d8;" horiz-adv-x="394" 
d="M481 733l-35 -121q-64 -52 -152 -52q-99 0 -142 62l31 111q63 -37 140 -37q90 0 158 37z" />
    <glyph glyph-name="dotaccent" unicode="&#x2d9;" horiz-adv-x="394" 
d="M372 562h-178l38 133h178z" />
    <glyph glyph-name="ring" unicode="&#x2da;" horiz-adv-x="394" 
d="M204 645q0 51 37.5 87.5t86.5 36.5q41 0 67.5 -26.5t26.5 -68.5q0 -53 -36.5 -89t-87.5 -36q-40 0 -67 27t-27 69zM344 665q0 13 -7.5 21t-18.5 8q-15 0 -25.5 -12t-10.5 -29q0 -13 7.5 -21t18.5 -8q15 0 25.5 12.5t10.5 28.5z" />
    <glyph glyph-name="ogonek" unicode="&#x2db;" horiz-adv-x="394" 
d="M172 22l9 -22q-29 -16 -46 -39.5t-17 -42.5q0 -21 28 -21q9 0 18 1.5t14 3.5l4 1l-20 -71q-28 -18 -69 -18q-38 0 -59 18t-21 49q0 39 34 78t77 50z" />
    <glyph glyph-name="tilde" unicode="&#x2dc;" horiz-adv-x="394" 
d="M133 568l32 112q54 46 108 46q30 0 70 -15.5t63 -15.5q15 0 34 5.5t31 11.5l12 5l-33 -112q-59 -44 -107 -44q-30 0 -70.5 14.5t-63.5 14.5q-15 0 -34 -5.5t-31 -10.5z" />
    <glyph glyph-name="hungarumlaut" unicode="&#x2dd;" horiz-adv-x="394" 
d="M264 558h-168l91 147h172zM471 558h-169l94 147h173z" />
    <glyph glyph-name="uni04D9" unicode="&#x4d9;" horiz-adv-x="562" 
d="M59 422q34 45 95.5 76t136.5 31q111 0 181 -66.5t70 -171.5q0 -127 -90.5 -215.5t-216.5 -88.5q-107 0 -169.5 61t-62.5 161q0 44 18 100h351q-8 38 -36 59t-69 21q-61 0 -108 -54zM251 125q68 0 103 66h-188q15 -66 85 -66z" />
    <glyph glyph-name="Wgrave" unicode="&#x1e80;" horiz-adv-x="960" 
d="M775 865l-44 -155l-233 52l45 157zM504 0l6 352l-199 -352h-228l46 685h201l-43 -419l235 419h156l-5 -426l198 426h207l-347 -685h-227z" />
    <glyph glyph-name="wgrave" unicode="&#x1e81;" horiz-adv-x="810" 
d="M655 698l-44 -155l-233 52l45 157zM390 0l16 256l-129 -256h-198l10 518h175l-21 -298l159 298h153l-12 -299l149 299h181l-286 -518h-197z" />
    <glyph glyph-name="Wacute" unicode="&#x1e82;" horiz-adv-x="960" 
d="M750 772l-262 -52l44 155l263 54zM504 0l6 352l-199 -352h-228l46 685h201l-43 -419l235 419h156l-5 -426l198 426h207l-347 -685h-227z" />
    <glyph glyph-name="wacute" unicode="&#x1e83;" horiz-adv-x="810" 
d="M630 605l-262 -52l44 155l263 54zM390 0l16 256l-129 -256h-198l10 518h175l-21 -298l159 298h153l-12 -299l149 299h181l-286 -518h-197z" />
    <glyph glyph-name="Wdieresis" unicode="&#x1e84;" horiz-adv-x="960" 
d="M598 729h-157l38 133h157zM785 729h-157l38 133h157zM504 0l6 352l-199 -352h-228l46 685h201l-43 -419l235 419h156l-5 -426l198 426h207l-347 -685h-227z" />
    <glyph glyph-name="wdieresis" unicode="&#x1e85;" horiz-adv-x="810" 
d="M478 562h-157l38 133h157zM665 562h-157l38 133h157zM390 0l16 256l-129 -256h-198l10 518h175l-21 -298l159 298h153l-12 -299l149 299h181l-286 -518h-197z" />
    <glyph glyph-name="Ygrave" unicode="&#x1ef2;" horiz-adv-x="667" 
d="M621 865l-44 -155l-233 52l45 157zM357 0h-197l70 246l-105 439h201l47 -258l191 258h220l-356 -436z" />
    <glyph glyph-name="ygrave" unicode="&#x1ef3;" horiz-adv-x="551" 
d="M517 698l-44 -155l-233 52l45 157zM278 -25q-70 -111 -141.5 -143t-194.5 -15l43 156q60 -9 88 4t45 56l-35 485h182l2 -272l156 272h202z" />
    <glyph glyph-name="uni2002" unicode="&#x2002;" horiz-adv-x="492" 
 />
    <glyph glyph-name="uni2003" unicode="&#x2003;" horiz-adv-x="982" 
 />
    <glyph glyph-name="uni2008" unicode="&#x2008;" horiz-adv-x="149" 
 />
    <glyph glyph-name="uni2009" unicode="&#x2009;" horiz-adv-x="2" 
 />
    <glyph glyph-name="uni2010" unicode="&#x2010;" horiz-adv-x="100" 
 />
    <glyph glyph-name="figuredash" unicode="&#x2012;" horiz-adv-x="434" 
d="M404 203h-407l48 166h407z" />
    <glyph glyph-name="endash" unicode="&#x2013;" horiz-adv-x="434" 
d="M404 201h-407l48 168h407z" />
    <glyph glyph-name="emdash" unicode="&#x2014;" horiz-adv-x="822" 
d="M792 201h-795l47 166h795z" />
    <glyph glyph-name="quoteleft" unicode="&#x2018;" horiz-adv-x="231" 
d="M106 548l101 137h121l-79 -106h49l-52 -181h-183z" />
    <glyph glyph-name="quoteright" unicode="&#x2019;" horiz-adv-x="231" 
d="M285 535l-101 -137h-121l79 106h-49l52 181h183z" />
    <glyph glyph-name="quotesinglbase" unicode="&#x201a;" horiz-adv-x="231" 
d="M142 31l-101 -137h-121l79 106h-49l52 181h183z" />
    <glyph glyph-name="quotedblleft" unicode="&#x201c;" horiz-adv-x="431" 
d="M316 548l101 137h116l-79 -106h49l-52 -181h-178zM106 548l102 137h115l-79 -106h49l-52 -181h-178z" />
    <glyph glyph-name="quotedblright" unicode="&#x201d;" horiz-adv-x="424" 
d="M280 535l-101 -137h-116l80 106h-49l51 181h178zM490 535l-102 -137h-116l81 106h-49l51 181h178z" />
    <glyph glyph-name="quotedblbase" unicode="&#x201e;" horiz-adv-x="435" 
d="M136 31l-101 -137h-116l79 106h-49l52 181h178zM346 31l-102 -137h-116l80 106h-49l52 181h178z" />
    <glyph glyph-name="dagger" unicode="&#x2020;" horiz-adv-x="367" 
d="M331 468h85l-46 -162h-85l-129 -449h-174l129 449h-87l46 162h87l47 162h174z" />
    <glyph glyph-name="daggerdbl" unicode="&#x2021;" horiz-adv-x="367" 
d="M332 471h85l-47 -163h-85l-35 -123h85l-46 -162h-85l-48 -166h-174l48 166h-87l46 162h87l35 123h-87l47 163h87l46 159h174z" />
    <glyph glyph-name="bullet" unicode="&#x2022;" horiz-adv-x="283" 
d="M37 269q0 52 37.5 90.5t90.5 38.5q43 0 69.5 -27t26.5 -68q0 -52 -37.5 -90.5t-90.5 -38.5q-43 0 -69.5 27t-26.5 68z" />
    <glyph glyph-name="ellipsis" unicode="&#x2026;" horiz-adv-x="693" 
d="M594 0h-183l52 181h183zM363 0h-183l52 181h183zM132 0h-183l52 181h183z" />
    <glyph glyph-name="guilsinglleft" unicode="&#x2039;" horiz-adv-x="328" 
d="M192 281l66 -228h-174l-70 238l205 233h185z" />
    <glyph glyph-name="guilsinglright" unicode="&#x203a;" horiz-adv-x="328" 
d="M152 296l-66 228h174l70 -238l-205 -233h-185z" />
    <glyph glyph-name="fraction" unicode="&#x2044;" horiz-adv-x="22" 
d="M-128 0h-145l494 685h145z" />
    <glyph glyph-name="Euro" unicode="&#x20ac;" horiz-adv-x="596" 
d="M558 124q-105 -135 -274 -135q-109 0 -172.5 59.5t-50.5 160.5h-60l33 115h57l11 37h-57l32 115h59q39 105 121 162t203 57q85 0 140.5 -37.5t71.5 -104.5l-161 -86q-6 30 -29.5 48t-58.5 18q-67 0 -101 -57h103l-32 -115h-110l-11 -37h110l-33 -115h-105q1 -58 79 -58
q79 0 122 66z" />
    <glyph glyph-name="trademark" unicode="&#x2122;" horiz-adv-x="905" 
d="M295 597h77l-33 -116h-77l-28 -97q-12 -44 25 -44h39l-31 -109h-66q-73 0 -96 31.5t-3 99.5l34 119h-51l33 116h51l26 89h126zM537 597l-8 -30q58 37 102 37q62 0 85 -45q61 45 129 45q65 0 91 -41t7 -107l-65 -225h-129l57 199q16 55 -27 55q-21 0 -39 -17t-26 -45
l-55 -192h-128l57 199q16 55 -26 55q-21 0 -40.5 -17t-27.5 -45l-55 -192h-126l105 366h119z" />
    <glyph glyph-name="uni2153" unicode="&#x2153;" horiz-adv-x="740" 
d="M167 0h-145l494 685h145zM185 294h-121l80 279h-44l32 111h165zM517 -8q-123 0 -142 111l105 41q8 -49 48 -49q20 0 32 12t12 25q0 16 -10.5 26t-27.5 10q-21 0 -36 -9l-27 70l110 59h-125l29 103h255l-33 -116l-64 -40q48 -30 48 -87q0 -60 -46.5 -108t-127.5 -48z" />
    <glyph glyph-name="uni2154" unicode="&#x2154;" horiz-adv-x="873" 
d="M317 294h-280l25 88l180 142q32 28 32 44q0 19 -24 19q-28 0 -62 -47l-89 49q66 103 174 103q58 0 92.5 -29t34.5 -73q0 -82 -168 -196h114zM301 0h-145l494 685h145zM651 -8q-123 0 -142 111l105 41q8 -49 48 -49q20 0 32 12t12 25q0 16 -10.5 26t-27.5 10q-21 0 -36 -9
l-27 70l110 59h-125l29 103h255l-33 -116l-64 -40q48 -30 48 -87q0 -60 -46.5 -108t-127.5 -48z" />
    <glyph glyph-name="minus" unicode="&#x2212;" horiz-adv-x="434" 
d="M404 203h-407l48 166h407z" />
    <glyph glyph-name="approxequal" unicode="&#x2248;" horiz-adv-x="434" 
d="M484 481l-42 -145q-6 -5 -17 -13t-42.5 -21.5t-59.5 -13.5q-43 0 -103 17t-92 17q-20 0 -46.5 -8.5t-43.5 -17.5l-16 -8l43 150q61 43 132 43q42 0 98 -17t86 -17q20 0 45.5 8.5t41.5 16.5zM427 281l-43 -150q-62 -43 -135 -43q-41 0 -97 17t-86 17q-20 0 -45.5 -8.5
t-40.5 -17.5l-16 -8l42 145q56 48 118 48q44 0 104 -17t91 -17q21 0 48 8.5t43 16.5z" />
    <glyph glyph-name="notequal" unicode="&#x2260;" horiz-adv-x="434" 
d="M390 474h92l-48 -166h-135l-24 -45h146l-47 -166h-190l-56 -105h-126l56 105h-91l47 166h135l25 45h-147l48 166h190l55 104h126z" />
    <glyph glyph-name="lessequal" unicode="&#x2264;" horiz-adv-x="434" 
d="M463 405l-180 -29l158 -46l-46 -158l-368 134l36 127l445 133zM346 0h-407l44 153h407z" />
    <glyph glyph-name="greaterequal" unicode="&#x2265;" horiz-adv-x="434" 
d="M470 432l-37 -127l-445 -133l46 161l179 39l-157 36l45 158zM346 0h-407l44 153h407z" />
    <glyph glyph-name="uniE001" unicode="&#xe001;" horiz-adv-x="699" 
d="M472 259l75 260l-202 -260h127zM397 0l29 100h-204l-78 -100h-218l556 685h304l-196 -685h-193z" />
    <glyph glyph-name="uniE002" unicode="&#xe002;" horiz-adv-x="688" 
d="M344 259l-59 242l-66 -242h125zM408 0l-25 100h-208l-27 -100h-187l196 685h263l194 -685h-206z" />
    <glyph glyph-name="uniE003" unicode="&#xe003;" horiz-adv-x="619" 
d="M298 0h-336l196 685h320q86 0 127.5 -44.5t41.5 -109.5q0 -142 -148 -183q79 -41 79 -128q0 -102 -76.5 -161t-203.5 -59zM407 527h-97l-29 -105h97q31 0 50 18.5t19 46.5q0 40 -40 40zM341 269h-105l-32 -111h108q34 0 55 18.5t21 49.5q0 43 -47 43z" />
    <glyph glyph-name="uniE004" unicode="&#xe004;" horiz-adv-x="615" 
d="M264 370h59q53 0 80.5 24.5t27.5 62.5q0 54 -72 54h-54zM220 216l-62 -216h-197l196 685h269q93 0 151 -55.5t58 -142.5q0 -80 -42.5 -145t-110.5 -96l58 -246h-227l-31 216h-62z" />
    <glyph glyph-name="uniE005" unicode="&#xe005;" horiz-adv-x="616" 
d="M264 370h59q53 0 80.5 24.5t27.5 62.5q0 54 -72 54h-54zM381 0l-159 224l-64 -224h-197l196 685h269q93 0 151 -55.5t58 -142.5q0 -92 -55 -164.5t-138 -96.5l176 -226h-237z" />
    <glyph glyph-name="uniE006" unicode="&#xe006;" horiz-adv-x="1017" 
d="M336 0l115 400l-306 -400h-219l542 685h223l-97 -341l272 341h238l-196 -685h-194l113 392l-313 -392h-178z" />
    <glyph glyph-name="uniE007" unicode="&#xe007;" horiz-adv-x="1017" 
d="M362 0l-98 432l-118 -432h-185l196 685h223l77 -378l113 378h223l150 -685h-195l-83 433l-133 -433h-170z" />
    <glyph glyph-name="uniE008" unicode="&#xe008;" horiz-adv-x="688" 
d="M316 0l-194 685h206l123 -501l137 501h187l-196 -685h-263z" />
    <glyph glyph-name="uniE009" unicode="&#xe009;" horiz-adv-x="699" 
d="M-39 0l196 685h193l-144 -498l387 498h228l-556 -685h-304z" />
    <glyph glyph-name="uniE00A" unicode="&#xe00a;" horiz-adv-x="1017" 
d="M685 0l-77 378l-113 -378h-223l-150 685h195l83 -433l133 433h170l98 -432l118 432h185l-196 -685h-223z" />
    <glyph glyph-name="uniE00B" unicode="&#xe00b;" horiz-adv-x="1017" 
d="M374 0l97 341l-272 -341h-238l196 685h194l-113 -392l313 392h178l-115 -400l306 400h219l-542 -685h-223z" />
    <glyph glyph-name="uniE00C" unicode="&#xe00c;" horiz-adv-x="690" 
d="M362 851l-75 -101h-115l57 69h-37l36 128h161zM363 0l-107 363l-104 -363h-191l196 685h218l105 -370l106 370h191l-196 -685h-218z" />
    <glyph glyph-name="uniE00E" unicode="&#xe00e;" horiz-adv-x="544" 
d="M274 0l-33 166l-92 -85l-23 -81h-176l196 685h176l-106 -371l187 204h216l-228 -212l83 -306h-200z" />
    <glyph glyph-name="uniE011" unicode="&#xe011;" horiz-adv-x="625" 
d="M352 518h102l-45 -157h-102l-104 -361h-176l104 361h-80l45 157h80l11 32q55 162 255 162h68l-39 -138h-44q-59 0 -75 -56zM683 547h-176l39 138h176zM526 0h-176l149 518h176z" />
    <glyph glyph-name="uniE012" unicode="&#xe012;" horiz-adv-x="625" 
d="M352 518h102l-45 -157h-102l-104 -361h-176l104 361h-80l45 157h80l11 32q55 162 255 162h68l-39 -138h-44q-59 0 -75 -56zM526 0h-176l196 685h176z" />
    <glyph glyph-name="uniE013" unicode="&#xe013;" horiz-adv-x="582" 
d="M240 -11q-117 0 -181.5 74.5t-31.5 190.5l58 203q32 114 108.5 174.5t196.5 60.5q117 0 181 -74.5t31 -190.5l-58 -203q-32 -114 -108.5 -174.5t-195.5 -60.5zM207 249q-2 -6 -2 -10l155 285q-36 0 -61 -22t-36 -60zM269 157q37 0 62 22t36 60l56 193q2 7 4 17z" />
    <glyph glyph-name="uniE014" unicode="&#xe014;" horiz-adv-x="609" 
d="M445 0h-187l32 111h-303l46 162l345 416h218l-359 -416h99l33 113h187l-33 -113h64l-46 -162h-64z" />
    <glyph glyph-name="uniE015" unicode="&#xe015;" horiz-adv-x="541" 
d="M223 -10q-109 0 -169 69t-29 177l54 189q62 218 283 218q109 0 168.5 -69.5t28.5 -177.5l-54 -188q-62 -218 -282 -218zM250 145q34 0 57.5 21t33.5 56l52 179q11 38 -6 62t-52 24q-34 0 -57.5 -20.5t-33.5 -55.5l-52 -180q-11 -37 5.5 -61.5t52.5 -24.5z" />
    <glyph glyph-name="uniE016" unicode="&#xe016;" horiz-adv-x="300" 
d="M203 0h-178l135 472h-72l47 163h250z" />
    <glyph glyph-name="uniE017" unicode="&#xe017;" horiz-adv-x="519" 
d="M429 0h-451l39 134l286 213q76 55 76 102q0 20 -14 31t-36 11q-59 0 -116 -76l-128 79q49 71 119 112t152 41q93 0 148.5 -46.5t55.5 -119.5q0 -65 -53 -134t-202 -171l-43 -29h210z" />
    <glyph glyph-name="uniE018" unicode="&#xe018;" horiz-adv-x="539" 
d="M229 -12q-94 0 -153 44.5t-74 133.5l155 60q14 -85 88 -85q41 0 65 25t24 55q0 32 -20.5 50.5t-51.5 18.5q-35 0 -59 -14l-40 106l177 102h-202l43 152h407l-47 -166l-119 -77q86 -48 86 -147q0 -100 -77 -179t-202 -79z" />
    <glyph glyph-name="uniE019" unicode="&#xe019;" horiz-adv-x="565" 
d="M489 267h58l-44 -149h-57l-34 -118h-172l33 118h-281l43 149l367 371h193zM317 267l42 150l-145 -150h103z" />
    <glyph glyph-name="uniE01A" unicode="&#xe01a;" horiz-adv-x="539" 
d="M229 -12q-98 0 -155 47t-72 131l156 60q12 -85 86 -85q39 0 65 26.5t26 65.5q0 31 -19.5 51.5t-51.5 20.5q-49 0 -80 -45l-127 58l144 318h370l-44 -151h-241l-24 -56q34 8 60 8q83 0 135 -50t52 -134q0 -106 -77.5 -185.5t-202.5 -79.5z" />
    <glyph glyph-name="uniE01B" unicode="&#xe01b;" horiz-adv-x="516" 
d="M228 -10q-104 0 -159.5 56t-55.5 141q0 114 102 233l185 216h200l-175 -194q68 0 121.5 -48.5t53.5 -135.5q0 -103 -78.5 -185.5t-193.5 -82.5zM244 139q41 0 67 30.5t26 69.5q0 31 -20 51t-51 20q-37 0 -64 -29t-27 -70q0 -32 19 -52t50 -20z" />
    <glyph glyph-name="uniE01C" unicode="&#xe01c;" horiz-adv-x="507" 
d="M200 0h-205l366 475h-266l47 161h449l-46 -158z" />
    <glyph glyph-name="uniE01D" unicode="&#xe01d;" horiz-adv-x="535" 
d="M211 -8q-89 0 -142 46t-53 121q0 65 36 119t98 83q-22 37 -22 81q0 77 63.5 138.5t166.5 61.5q80 0 125 -40t45 -105q0 -92 -88 -159q45 -44 45 -110q0 -94 -77.5 -165t-196.5 -71zM316 405q26 0 44.5 21t18.5 45q0 19 -12 30.5t-30 11.5q-26 0 -44.5 -19.5t-18.5 -45.5
q0 -20 12 -31.5t30 -11.5zM236 124q36 0 61.5 29t25.5 65q0 27 -16 41.5t-42 14.5q-35 0 -61 -27t-26 -65q0 -26 16.5 -42t41.5 -16z" />
    <glyph glyph-name="uniE01E" unicode="&#xe01e;" horiz-adv-x="516" 
d="M263 0h-200l174 194q-68 0 -121 48.5t-53 135.5q0 103 78.5 186t193.5 83q104 0 159.5 -56t55.5 -141q0 -114 -102 -233zM319 498q-41 0 -67 -30.5t-26 -69.5q0 -31 20 -51t51 -20q37 0 64 29t27 70q0 32 -19 52t-50 20z" />
    <glyph glyph-name="uniE01F" unicode="&#xe01f;" horiz-adv-x="540" 
d="M223 -10q-109 0 -169 69t-29 177l54 189q62 218 283 218q109 0 168.5 -69.5t28.5 -177.5l-54 -188q-62 -218 -282 -218zM192 231q-2 -6 -2 -9l144 265q-33 0 -56.5 -20.5t-33.5 -55.5zM249 145q70 0 92 77l52 179q3 9 3 16z" />
    <glyph glyph-name="uniE020" unicode="&#xe020;" horiz-adv-x="565" 
d="M413 0h-173l30 103h-282l43 150l321 387h203l-335 -387h92l30 105h173l-30 -105h60l-43 -150h-59z" />
    <glyph glyph-name="uniE021" unicode="&#xe021;" horiz-adv-x="401" 
d="M349 143q-21 -73 -73.5 -113t-119.5 -40q-86 0 -129.5 54.5t-16.5 147.5l87 300q20 74 73 114t120 40q85 0 129 -55t17 -148zM147 177q-6 -24 2 -37t24 -13q29 0 40 40l84 292q7 24 -0.5 36.5t-23.5 12.5q-30 0 -41 -40z" />
    <glyph glyph-name="uniE022" unicode="&#xe022;" horiz-adv-x="225" 
d="M131 0h-155l144 503h-48l38 133h203z" />
    <glyph glyph-name="uniE023" unicode="&#xe023;" horiz-adv-x="401" 
d="M299 0h-326l40 138l197 206q92 95 92 136q0 29 -28 29q-19 0 -33 -17.5t-18 -50.5h-135q9 98 69 152t144 54q71 0 110.5 -38.5t39.5 -99.5q0 -56 -30.5 -108.5t-99.5 -123.5l-141 -144h157z" />
    <glyph glyph-name="uniE024" unicode="&#xe024;" horiz-adv-x="401" 
d="M144 -11q-79 0 -119.5 47t-16.5 138l5 17h131l-4 -15q-11 -51 28 -51q32 0 48 52l19 69q7 25 -2 38t-28 13q-21 0 -42 -16l-59 97l157 125h-156l38 133h326l-32 -115l-134 -112q53 -16 72 -59t2 -104l-22 -79q-52 -178 -211 -178z" />
    <glyph glyph-name="uniE025" unicode="&#xe025;" horiz-adv-x="401" 
d="M359 252h38l-38 -133h-38l-34 -119h-146l34 119h-195l38 133l288 384h163zM213 252l42 145l-109 -145h67z" />
    <glyph glyph-name="uniE026" unicode="&#xe026;" horiz-adv-x="401" 
d="M142 -11q-80 0 -119.5 47t-15.5 138l4 17h131l-4 -15q-11 -51 28 -51q34 0 48 52l21 77q7 22 -1.5 34.5t-26.5 12.5q-33 0 -44 -42h-126l113 377h316l-39 -136h-183l-23 -76q26 8 49 8q68 0 101 -42.5t13 -114.5l-31 -108q-52 -178 -211 -178z" />
    <glyph glyph-name="uniE027" unicode="&#xe027;" horiz-adv-x="401" 
d="M153 -9q-84 0 -126.5 55.5t-16.5 147.5l22 79q29 99 100 194l126 169h170l-164 -207q5 1 16 1q63 0 95 -47.5t10 -124.5l-32 -111q-22 -75 -74 -115.5t-126 -40.5zM212 164l26 90q6 22 -1 35t-24 13q-28 0 -40 -39l-26 -90q-7 -24 -0.5 -38t24.5 -14q30 0 41 43z" />
    <glyph glyph-name="uniE028" unicode="&#xe028;" horiz-adv-x="401" 
d="M140 0h-163l315 500h-185l39 136h330l-39 -136z" />
    <glyph glyph-name="uniE029" unicode="&#xe029;" horiz-adv-x="401" 
d="M144 -10q-85 0 -125 51t-16 134l17 62q10 35 35.5 65t54.5 45q-37 40 -17 107l13 45q20 68 72.5 107.5t119.5 39.5q80 0 119.5 -50t17.5 -127l-10 -32q-18 -69 -77 -101q19 -19 25 -51t-3 -68l-22 -76q-20 -71 -75.5 -111t-128.5 -40zM291 437l10 36q6 21 -1.5 34
t-23.5 13q-31 0 -43 -41l-10 -37q-7 -24 0.5 -36.5t21.5 -12.5q34 0 46 44zM211 162l17 54q8 25 -0.5 38t-24.5 13q-28 0 -42 -44l-16 -55q-15 -49 22 -49q32 0 44 43z" />
    <glyph glyph-name="uniE02A" unicode="&#xe02a;" horiz-adv-x="401" 
d="M187 0h-170l163 207q-5 -1 -16 -1q-62 0 -94.5 47.5t-10.5 124.5l33 112q22 75 74 115.5t126 40.5q83 0 125.5 -56t17.5 -148l-23 -78q-28 -100 -99 -194zM233 473l-26 -90q-6 -23 1 -36t24 -13q28 0 40 40l26 90q7 23 0.5 37t-24.5 14q-30 0 -41 -42z" />
    <glyph glyph-name="uniE02B" unicode="&#xe02b;" horiz-adv-x="401" 
d="M349 143q-21 -73 -73.5 -113t-119.5 -40q-86 0 -129.5 54.5t-16.5 147.5l87 300q20 74 73 114t120 40q85 0 129 -55t17 -148zM232 468l-52 -180l115 210q-7 10 -22 10q-30 0 -41 -40zM173 127q29 0 40 40l49 169l-109 -201q8 -8 20 -8z" />
    <glyph glyph-name="uniE02C" unicode="&#xe02c;" horiz-adv-x="401" 
d="M-53 0l38 133h109l106 370h-77l38 133h232l-144 -503h105l-38 -133h-369z" />
    <glyph glyph-name="uniE02D" unicode="&#xe02d;" horiz-adv-x="401" 
d="M143 -11q-79 0 -119.5 47t-16.5 138l5 17h131l-4 -15q-11 -51 27 -51q33 0 45 41l14 47q14 47 -29 47h-63l38 133h63q35 0 47 40l8 31q6 21 -2 33t-26 12q-31 0 -41 -32l-6 -19h-129l6 25q42 163 196 163q80 0 123.5 -45t25.5 -119l-8 -30q-18 -74 -88 -119
q48 -40 27 -120l-13 -46q-50 -178 -211 -178z" />
    <glyph glyph-name="uniE02E" unicode="&#xe02e;" horiz-adv-x="401" 
d="M145 -11q-79 0 -119.5 47t-16.5 138l5 17h131l-4 -15q-11 -51 27 -51q33 0 45 41l23 80q7 24 -1.5 38t-26.5 14h-126l187 205h-164l38 133h326l-32 -115l-114 -119q86 -41 54 -156l-22 -79q-51 -178 -210 -178z" />
    <glyph glyph-name="uniE02F" unicode="&#xe02f;" horiz-adv-x="401" 
d="M349 143q-21 -72 -74 -112.5t-119 -40.5q-89 0 -131 55.5t-15 146.5l79 275q52 179 211 179q79 0 117 -48.5t13 -143.5h-131q15 55 -23 55q-32 0 -44 -41l-16 -55q25 5 45 5q73 0 105.5 -52.5t6.5 -141.5zM169 245l-21 -69q-6 -23 2 -36t24 -13q27 0 40 40l20 69
q7 23 -1 36.5t-24 13.5q-28 0 -40 -41z" />
    <glyph glyph-name="uniE030" unicode="&#xe030;" horiz-adv-x="401" 
d="M277 391l21 69q6 23 -2 36t-24 13q-27 0 -40 -40l-20 -69q-7 -23 1 -36.5t24 -13.5q28 0 40 41zM97 493q21 72 74 112.5t119 40.5q89 0 131 -55.5t15 -146.5l-79 -275q-52 -179 -209 -179q-80 0 -118.5 48.5t-13.5 143.5h131q-15 -55 23 -55q32 0 44 41l16 55
q-25 -5 -45 -5q-73 0 -105.5 52.5t-6.5 141.5z" />
    <glyph glyph-name="uniE031" unicode="&#xe031;" horiz-adv-x="401" 
d="M287 0h-149l30 104h-193l38 134l293 398h148l-293 -398h45l18 61h149l-18 -61h38l-38 -134h-38z" />
    <glyph glyph-name="uniE032" unicode="&#xe032;" horiz-adv-x="432" 
d="M376 154q-23 -79 -79.5 -122t-128.5 -43q-92 0 -139 59t-18 159l93 323q23 79 79.5 122t128.5 43q92 0 139 -59t18 -159zM159 190q-7 -25 1.5 -39t25.5 -14q30 0 43 43l91 314q7 25 -1.5 39t-24.5 14q-31 0 -44 -43z" />
    <glyph glyph-name="uniE033" unicode="&#xe033;" horiz-adv-x="243" 
d="M141 0h-167l155 541h-52l41 144h219z" />
    <glyph glyph-name="uniE034" unicode="&#xe034;" horiz-adv-x="432" 
d="M322 0h-351l43 149l212 221q99 103 99 146q0 32 -30 32q-21 0 -36 -19t-19 -54h-145q10 105 74.5 163t154.5 58q76 0 119 -41.5t43 -106.5q0 -61 -33 -117.5t-107 -132.5l-151 -154h168z" />
    <glyph glyph-name="uniE035" unicode="&#xe035;" horiz-adv-x="432" 
d="M155 -12q-86 0 -129 51t-17 148l5 19h141l-4 -17q-12 -54 30 -54q35 0 51 56l21 74q7 27 -2.5 41t-29.5 14q-22 0 -45 -17l-64 104l168 134h-167l41 144h351l-35 -124l-144 -120q58 -18 78 -64t2 -112l-24 -85q-55 -192 -227 -192z" />
    <glyph glyph-name="uniE036" unicode="&#xe036;" horiz-adv-x="432" 
d="M387 272h41l-41 -144h-41l-37 -128h-158l37 128h-210l41 144l310 413h176zM229 272l44 155l-115 -155h71z" />
    <glyph glyph-name="uniE037" unicode="&#xe037;" horiz-adv-x="432" 
d="M153 -12q-86 0 -129 51t-17 148l5 19h141l-4 -17q-12 -54 30 -54q35 0 51 56l23 82q7 24 -2 37.5t-28 13.5q-36 0 -47 -45h-136l121 406h341l-42 -147h-197l-26 -81q29 8 54 8q73 0 108.5 -46t13.5 -123l-33 -116q-55 -192 -227 -192z" />
    <glyph glyph-name="uniE038" unicode="&#xe038;" horiz-adv-x="432" 
d="M165 -10q-90 0 -136 60t-18 159l24 85q31 108 107 209l135 182h184l-176 -223q5 1 17 1q68 0 102.5 -51.5t10.5 -133.5l-35 -120q-24 -81 -80 -124.5t-135 -43.5zM228 176l28 97q7 25 -1 38.5t-26 13.5q-30 0 -42 -42l-28 -97q-16 -55 25 -55q32 0 44 45z" />
    <glyph glyph-name="uniE039" unicode="&#xe039;" horiz-adv-x="432" 
d="M151 0h-176l338 538h-198l42 147h355l-42 -147z" />
    <glyph glyph-name="uniE03A" unicode="&#xe03a;" horiz-adv-x="432" 
d="M155 -11q-92 0 -135 55t-17 145l19 66q11 38 38 70t58 48q-39 44 -18 116l14 48q21 73 78 115.5t129 42.5q86 0 128.5 -53.5t18.5 -136.5l-10 -35q-21 -74 -82 -108q19 -21 25.5 -55.5t-3.5 -72.5l-23 -82q-21 -77 -81.5 -120t-138.5 -43zM313 470l11 39q6 23 -2 36.5
t-25 13.5q-34 0 -46 -44l-11 -39q-8 -26 0.5 -39.5t23.5 -13.5q35 0 49 47zM227 174l18 59q8 26 -1 40t-25 14q-31 0 -45 -47l-18 -59q-8 -27 -0.5 -40t24.5 -13q33 0 47 46z" />
    <glyph glyph-name="uniE03B" unicode="&#xe03b;" horiz-adv-x="432" 
d="M314 695q90 0 136 -60t18 -159l-24 -85q-31 -108 -107 -209l-135 -182h-184l176 223q-5 -1 -17 -1q-68 0 -102.5 51.5t-10.5 133.5l35 120q24 81 80 124.5t135 43.5zM251 509l-28 -97q-7 -25 1 -38.5t26 -13.5q30 0 42 42l28 97q16 55 -25 55q-32 0 -44 -45z" />
    <glyph glyph-name="uniE03C" unicode="&#xe03c;" horiz-adv-x="432" 
d="M376 154q-23 -79 -79.5 -122t-128.5 -43q-92 0 -139 59t-18 159l93 323q23 79 79.5 122t128.5 43q92 0 139 -59t18 -159zM250 504l-56 -192l123 224q-9 11 -23 11q-31 0 -44 -43zM186 137q30 0 43 43l52 181l-116 -216q10 -8 21 -8z" />
    <glyph glyph-name="uniE03D" unicode="&#xe03d;" horiz-adv-x="432" 
d="M-57 0l41 144h117l114 397h-83l41 144h250l-155 -541h113l-41 -144h-397z" />
    <glyph glyph-name="uniE03E" unicode="&#xe03e;" horiz-adv-x="432" 
d="M154 -12q-86 0 -129 51t-17 148l5 19h141l-4 -17q-12 -54 29 -54q34 0 48 44l15 50q16 51 -31 51h-68l41 143h68q38 0 50 43l9 33q6 23 -2.5 36t-27.5 13q-34 0 -44 -35l-6 -20h-140l7 27q45 175 211 175q86 0 133 -48t27 -128l-8 -32q-19 -79 -94 -128q52 -45 28 -129
l-14 -50q-53 -192 -227 -192z" />
    <glyph glyph-name="uniE03F" unicode="&#xe03f;" horiz-adv-x="432" 
d="M156 -12q-86 0 -129 51t-17 148l5 19h141l-4 -17q-12 -54 29 -54q34 0 48 44l25 86q8 26 -1.5 41t-28.5 15h-136l201 220h-176l41 144h351l-35 -124l-122 -128q45 -22 60 -66t-2 -102l-24 -85q-54 -192 -226 -192z" />
    <glyph glyph-name="uniE040" unicode="&#xe040;" horiz-adv-x="432" 
d="M376 154q-23 -78 -79.5 -121.5t-128.5 -43.5q-95 0 -140 60t-17 158l85 296q55 192 227 192q85 0 126.5 -52.5t13.5 -154.5h-141q15 60 -28 60q-32 0 -44 -44l-17 -60q22 6 48 6q78 0 113 -56.5t7 -152.5zM182 264l-21 -74q-7 -25 2 -39t25 -14q30 0 43 43l21 74
q7 25 -1.5 39t-25.5 14q-31 0 -43 -43z" />
    <glyph glyph-name="uniE041" unicode="&#xe041;" horiz-adv-x="432" 
d="M298 420l21 74q7 25 -2 39t-25 14q-30 0 -43 -43l-21 -74q-7 -25 1.5 -39t25.5 -14q31 0 43 43zM104 530q23 78 79.5 121.5t128.5 43.5q95 0 140 -60t17 -158l-85 -296q-55 -192 -227 -192q-85 0 -126.5 52.5t-13.5 154.5h141q-15 -60 28 -60q32 0 44 44l17 60
q-22 -6 -48 -6q-78 0 -113 56.5t-7 152.5z" />
    <glyph glyph-name="uniE042" unicode="&#xe042;" horiz-adv-x="432" 
d="M309 0h-161l32 112h-207l41 144l315 429h159l-314 -429h47l20 66h161l-20 -66h41l-41 -144h-41z" />
    <glyph glyph-name="uniE043" unicode="&#xe043;" horiz-adv-x="337" 
d="M104 -6q-64 0 -102 40t-19 107l33 114q38 140 182 140q66 0 102.5 -40.5t17.5 -105.5l-32 -114q-40 -141 -182 -141zM126 99q36 0 48 43l31 106q5 19 -2.5 30.5t-24.5 11.5q-36 0 -50 -43l-30 -105q-6 -19 2 -31t26 -12z" />
    <glyph glyph-name="uniE044" unicode="&#xe044;" horiz-adv-x="194" 
d="M105 0h-121l80 279h-44l32 111h165z" />
    <glyph glyph-name="uniE045" unicode="&#xe045;" horiz-adv-x="323" 
d="M237 0h-280l25 88l180 142q32 28 32 44q0 19 -24 19q-28 0 -62 -47l-89 49q66 103 174 103q58 0 92.5 -29t34.5 -73q0 -82 -168 -196h114z" />
    <glyph glyph-name="uniE046" unicode="&#xe046;" horiz-adv-x="336" 
d="M114 -8q-123 0 -142 111l105 41q8 -49 48 -49q20 0 32 12t12 25q0 16 -10.5 26t-27.5 10q-21 0 -36 -9l-27 70l110 59h-125l29 103h255l-33 -116l-64 -40q48 -30 48 -87q0 -60 -46.5 -108t-127.5 -48z" />
    <glyph glyph-name="uniE047" unicode="&#xe047;" horiz-adv-x="354" 
d="M280 171h35l-30 -100h-34l-20 -71h-117l20 71h-169l29 100l219 221h130zM163 171l22 77l-73 -77h51z" />
    <glyph glyph-name="uniE048" unicode="&#xe048;" horiz-adv-x="336" 
d="M111 -8q-123 0 -142 111l105 41q4 -24 17 -36.5t30 -12.5q19 0 32 13t13 34q0 16 -10 27t-28 11q-23 0 -40 -23l-86 37l87 197h236l-30 -100h-146l-10 -26q18 3 30 3q53 0 84.5 -31t31.5 -84q0 -64 -46.5 -112.5t-127.5 -48.5z" />
    <glyph glyph-name="uniE049" unicode="&#xe049;" horiz-adv-x="318" 
d="M110 -7q-66 0 -99.5 35.5t-33.5 86.5q0 71 65 148l107 128h137l-108 -119q40 -3 70.5 -32t30.5 -82q0 -63 -48.5 -114t-120.5 -51zM122 95q22 0 34 15.5t12 35.5q0 16 -10.5 27t-25.5 11q-18 0 -31.5 -15t-13.5 -37q0 -17 9.5 -27t25.5 -10z" />
    <glyph glyph-name="uniE04A" unicode="&#xe04a;" horiz-adv-x="318" 
d="M103 0h-141l223 282h-159l32 109h280l-31 -107z" />
    <glyph glyph-name="uniE04B" unicode="&#xe04b;" horiz-adv-x="334" 
d="M95 -5q-53 0 -85 28.5t-32 74.5q0 41 22.5 73.5t58.5 48.5q-12 24 -12 50q0 48 38.5 86t104.5 38q51 0 79.5 -24.5t28.5 -64.5q0 -56 -53 -99q26 -26 26 -65q0 -58 -48.5 -102t-127.5 -44zM165 250q13 0 23 11t10 25q0 9 -6.5 15.5t-14.5 6.5q-13 0 -23 -10t-10 -25
q0 -10 6.5 -16.5t14.5 -6.5zM116 83q18 0 31.5 15.5t13.5 35.5q0 29 -29 29q-16 0 -30 -13.5t-14 -35.5q0 -14 8.5 -22.5t19.5 -8.5z" />
    <glyph glyph-name="uniE04C" unicode="&#xe04c;" horiz-adv-x="318" 
d="M138 0h-137l108 120q-39 3 -69.5 31.5t-30.5 81.5q0 64 48 114.5t121 50.5q66 0 99.5 -35.5t33.5 -86.5q0 -71 -65 -147zM166 297q-22 0 -34.5 -16t-12.5 -36q0 -16 10.5 -26.5t25.5 -10.5q18 0 32 15t14 36q0 17 -10 27.5t-25 10.5z" />
    <glyph glyph-name="uniE04D" unicode="&#xe04d;" horiz-adv-x="337" 
d="M184 288q-64 0 -102 40t-19 107l33 114q38 140 182 140q66 0 102.5 -40.5t17.5 -105.5l-32 -114q-40 -141 -182 -141zM206 393q36 0 48 43l31 106q5 19 -2.5 30.5t-24.5 11.5q-36 0 -50 -43l-30 -105q-6 -19 2 -31t26 -12z" />
    <glyph glyph-name="uniE04E" unicode="&#xe04e;" horiz-adv-x="194" 
d="M185 294h-121l80 279h-44l32 111h165z" />
    <glyph glyph-name="uniE04F" unicode="&#xe04f;" horiz-adv-x="323" 
d="M317 294h-280l25 88l180 142q32 28 32 44q0 19 -24 19q-28 0 -62 -47l-89 49q66 103 174 103q58 0 92.5 -29t34.5 -73q0 -82 -168 -196h114z" />
    <glyph glyph-name="uniE050" unicode="&#xe050;" horiz-adv-x="336" 
d="M194 286q-123 0 -142 111l105 41q8 -49 48 -49q20 0 32 12t12 25q0 16 -10.5 26t-27.5 10q-21 0 -36 -9l-27 70l110 59h-125l29 103h255l-33 -116l-64 -40q48 -30 48 -87q0 -60 -46.5 -108t-127.5 -48z" />
    <glyph glyph-name="uniE051" unicode="&#xe051;" horiz-adv-x="354" 
d="M360 465h35l-30 -100h-34l-20 -71h-117l20 71h-169l29 100l219 221h130zM243 465l22 77l-73 -77h51z" />
    <glyph glyph-name="uniE052" unicode="&#xe052;" horiz-adv-x="336" 
d="M191 286q-123 0 -142 111l105 41q4 -24 17 -36.5t30 -12.5q19 0 32 13t13 34q0 16 -10 27t-28 11q-23 0 -40 -23l-86 37l87 197h236l-30 -100h-146l-10 -26q18 3 30 3q53 0 84.5 -31t31.5 -84q0 -64 -46.5 -112.5t-127.5 -48.5z" />
    <glyph glyph-name="uniE053" unicode="&#xe053;" horiz-adv-x="318" 
d="M190 287q-66 0 -99.5 35.5t-33.5 86.5q0 71 65 148l107 128h137l-108 -119q40 -3 70.5 -32t30.5 -82q0 -63 -48.5 -114t-120.5 -51zM202 389q22 0 34 15.5t12 35.5q0 16 -10.5 27t-25.5 11q-18 0 -31.5 -15t-13.5 -37q0 -17 9.5 -27t25.5 -10z" />
    <glyph glyph-name="uniE054" unicode="&#xe054;" horiz-adv-x="318" 
d="M183 294h-141l223 282h-159l32 109h280l-31 -107z" />
    <glyph glyph-name="uniE055" unicode="&#xe055;" horiz-adv-x="334" 
d="M175 289q-53 0 -85 28.5t-32 74.5q0 41 22.5 73.5t58.5 48.5q-12 24 -12 50q0 48 38.5 86t104.5 38q51 0 79.5 -24.5t28.5 -64.5q0 -56 -53 -99q26 -26 26 -65q0 -58 -48.5 -102t-127.5 -44zM245 544q13 0 23 11t10 25q0 9 -6.5 15.5t-14.5 6.5q-13 0 -23 -10t-10 -25
q0 -10 6.5 -16.5t14.5 -6.5zM196 377q18 0 31.5 15.5t13.5 35.5q0 29 -29 29q-16 0 -30 -13.5t-14 -35.5q0 -14 8.5 -22.5t19.5 -8.5z" />
    <glyph glyph-name="uniE056" unicode="&#xe056;" horiz-adv-x="318" 
d="M218 294h-137l108 120q-39 3 -69.5 31.5t-30.5 81.5q0 64 48 114.5t121 50.5q66 0 99.5 -35.5t33.5 -86.5q0 -71 -65 -147zM246 591q-22 0 -34.5 -16t-12.5 -36q0 -16 10.5 -26.5t25.5 -10.5q18 0 32 15t14 36q0 17 -10 27.5t-25 10.5z" />
    <glyph glyph-name="uniE062" unicode="&#xe062;" horiz-adv-x="700" 
d="M313 465q0 -24 15 -57q79 26 79 67q0 17 -11.5 28.5t-31.5 11.5q-22 0 -36.5 -13t-14.5 -37zM265 129q27 0 54 10l-78 117q-49 -26 -49 -73q0 -25 20 -39.5t53 -14.5zM412 0l-16 23q-75 -30 -157 -30q-106 0 -166 47t-60 121q0 144 161 205q-19 42 -19 82q0 84 63 141
t153 57q87 0 139.5 -40t52.5 -104q0 -135 -165 -199l53 -74q66 71 105 169h167q-73 -186 -187 -287l79 -111h-203z" />
    <glyph glyph-name="uniE063" unicode="&#xe063;" horiz-adv-x="564" 
d="M266 456q0 -18 19 -34l23 79q-42 -11 -42 -45zM343 168q0 16 -21 32l-23 -77q44 9 44 45zM240 -85h-100l23 79q-163 36 -148 193h168q-1 -36 20 -52l30 104q-71 32 -107.5 71.5t-36.5 100.5q0 104 70.5 168.5t181.5 64.5h8l22 77h100l-26 -90q151 -42 144 -201h-171
q4 32 -15 53l-30 -102q71 -26 112 -62.5t41 -102.5q0 -100 -74 -165t-192 -65z" />
    <glyph glyph-name="uniE064" unicode="&#xe064;" horiz-adv-x="538" 
d="M189 242q0 -38 24 -67l51 180q-34 -15 -54.5 -46.5t-20.5 -66.5zM259 -86h-121l24 85q-69 27 -108.5 85.5t-39.5 133.5q0 121 85.5 214.5t215.5 100.5l20 69h121l-24 -86q99 -37 131 -125l-152 -83q-8 21 -28 37l-56 -193q39 15 68 55l118 -94q-41 -57 -103 -91.5
t-131 -38.5z" />
    <glyph glyph-name="uniE065" unicode="&#xe065;" horiz-adv-x="533" 
d="M142 435q28 96 90.5 154.5t154.5 58.5q85 0 129 -37.5t64 -105.5l-150 -71q-4 28 -17 43.5t-44 15.5q-51 0 -70 -63l-16 -59h160l-44 -155h-160l-10 -32q19 -5 47.5 -16t51 -17t45.5 -6t54 9.5t50 18.5l19 9l-43 -153q-67 -40 -158 -40q-48 0 -114 24.5t-101 24.5
q-23 0 -54 -10t-50 -20l-20 -11l45 155q25 16 68 29l10 35h-59l43 155h60z" />
    <glyph glyph-name="uniE066" unicode="&#xe066;" horiz-adv-x="574" 
d="M477 373h92l-36 -125h-158l-9 -33h157l-35 -125h-158l-26 -90h-173l26 90h-159l36 125h158l10 33h-159l36 125h95l-59 263h183l33 -227l169 227h187z" />
    <glyph glyph-name="uniE067" unicode="&#xe067;" horiz-adv-x="557" 
d="M521 113q-99 -126 -256 -126q-102 0 -161 55.5t-47 149.5h-56l31 107h53l10 35h-53l30 107h55q36 97 112.5 150.5t189.5 53.5q80 0 131.5 -35t66.5 -97l-150 -80q-6 28 -28 44.5t-54 16.5q-63 0 -95 -53h97l-30 -107h-103l-10 -35h102l-30 -107h-98q2 -54 73 -54
q74 0 114 61z" />
    <glyph glyph-name="uniE068" unicode="&#xe068;" horiz-adv-x="548" 
d="M285 359l-27 -76h47l26 76h-46zM541 522h56l-47 -163h-67l-26 -76h72l-48 -165h-82l-41 -118h-152l41 118h-46l-42 -118h-152l41 118h-54l48 165h64l26 76h-69l47 163h79l41 117h153l-41 -117h47l40 117h152z" />
    <glyph glyph-name="uniE069" unicode="&#xe069;" horiz-adv-x="760" 
d="M473 259l-18 240l-152 -240h170zM492 0l-7 100h-283l-63 -100h-207l447 685h253l57 -685h-197z" />
    <glyph glyph-name="uniE06A" unicode="&#xe06a;" horiz-adv-x="677" 
d="M361 0h-399l196 685h362q86 0 127.5 -44.5t41.5 -109.5q0 -136 -136 -180q88 -39 88 -131q0 -102 -76.5 -161t-203.5 -59zM445 527h-135l-30 -105h140q31 0 50 18.5t19 46.5q0 40 -44 40zM401 269h-165l-32 -111h168q36 0 57.5 18.5t21.5 49.5q0 43 -50 43z" />
    <glyph glyph-name="uniE06B" unicode="&#xe06b;" horiz-adv-x="626" 
d="M-39 0l196 685h564l-48 -168h-367l-26 -90h337l-47 -166h-337l-27 -93h369l-48 -168h-566z" />
    <glyph glyph-name="uniE06C" unicode="&#xe06c;" horiz-adv-x="712" 
d="M406 0l72 250h-248l-72 -250h-197l196 685h197l-74 -261h248l74 261h197l-196 -685h-197z" />
    <glyph glyph-name="uniE06D" unicode="&#xe06d;" horiz-adv-x="671" 
d="M264 370h108q53 0 80.5 24.5t27.5 62.5q0 54 -72 54h-103zM366 0l-142 230l-66 -230h-197l196 685h318q93 0 151 -55.5t58 -142.5q0 -95 -62 -169.5t-173 -96.5l149 -221h-232z" />
    <glyph glyph-name="uniE06E" unicode="&#xe06e;" horiz-adv-x="624" 
d="M358 259l14 194l-97 -194h83zM341 0l7 100h-153l-50 -100h-207l370 685h253l-23 -685h-197z" />
    <glyph glyph-name="uniE06F" unicode="&#xe06f;" horiz-adv-x="569" 
d="M256 0h-294l196 685h257q86 0 127.5 -44.5t41.5 -109.5q0 -136 -136 -180q88 -39 88 -131q0 -102 -76.5 -161t-203.5 -59zM340 527h-30l-30 -105h35q31 0 50 18.5t19 46.5q0 40 -44 40zM296 269h-60l-32 -111h63q36 0 57.5 18.5t21.5 49.5q0 43 -50 43z" />
    <glyph glyph-name="uniE070" unicode="&#xe070;" horiz-adv-x="498" 
d="M-39 0l196 685h435l-48 -168h-238l-26 -90h209l-47 -166h-209l-27 -93h240l-48 -168h-437z" />
    <glyph glyph-name="uniE071" unicode="&#xe071;" horiz-adv-x="491" 
d="M439 251h-209l-72 -251h-197l196 685h436l-48 -168h-239l-28 -100h209z" />
    <glyph glyph-name="uniE072" unicode="&#xe072;" horiz-adv-x="604" 
d="M298 0l72 250h-140l-72 -250h-197l196 685h197l-74 -261h140l74 261h197l-196 -685h-197z" />
    <glyph glyph-name="uniE073" unicode="&#xe073;" horiz-adv-x="589" 
d="M287 0l-46 290l-83 -290h-197l196 685h197l-80 -281l197 281h229l-262 -340l71 -345h-222z" />
    <glyph glyph-name="uniE074" unicode="&#xe074;" horiz-adv-x="467" 
d="M-39 0l196 685h197l-146 -511h202l-50 -174h-399z" />
    <glyph glyph-name="uniE075" unicode="&#xe075;" horiz-adv-x="763" 
d="M245 0l-30 257l-74 -257h-180l196 685h185l36 -414l280 414h192l-196 -685h-182l74 257l-178 -257h-123z" />
    <glyph glyph-name="uniE076" unicode="&#xe076;" horiz-adv-x="575" 
d="M264 370h34q53 0 80.5 24.5t27.5 62.5q0 54 -72 54h-29zM273 0l-51 222l-64 -222h-197l196 685h244q93 0 151 -55.5t58 -142.5q0 -89 -52 -160.5t-132 -97.5l74 -229h-227z" />
    <glyph glyph-name="uniE077" unicode="&#xe077;" horiz-adv-x="510" 
d="M279 0h-197l147 511h-145l49 174h488l-49 -174h-146z" />
    <glyph glyph-name="uniE078" unicode="&#xe078;" horiz-adv-x="811" 
d="M403 0l16 308l-159 -308h-227l95 685h193l-81 -425l218 425h137l-26 -429l165 429h193l-295 -685h-229z" />
    <glyph glyph-name="uniE079" unicode="&#xe079;" horiz-adv-x="454" 
d="M519 527l-302 -358h197l-48 -169h-425l44 154l299 362h-201l48 169h433z" />
    <glyph glyph-name="uniE07A" unicode="&#xe07a;" horiz-adv-x="559" 
d="M238 0h-279l-8 171l147 514h299q86 0 127.5 -44.5t41.5 -109.5q0 -136 -136 -180q88 -39 88 -131q0 -102 -76.5 -161t-203.5 -59zM322 527h-72l-29 -105h76q31 0 50 18.5t19 46.5q0 40 -44 40zM278 269h-102l-32 -111h105q36 0 57.5 18.5t21.5 49.5q0 43 -50 43z" />
    <glyph glyph-name="uniE07B" unicode="&#xe07b;" horiz-adv-x="644" 
d="M217 0h-258l-8 173l146 512h240q153 0 234 -80.5t81 -203.5q0 -80 -28.5 -151.5t-81.5 -127.5t-137 -89t-188 -33zM148 174h95q98 0 151 58.5t53 137.5q0 61 -35.5 101t-97.5 40h-69z" />
    <glyph glyph-name="uniE07C" unicode="&#xe07c;" horiz-adv-x="517" 
d="M466 168l-48 -168h-459l-8 174l146 511h515l-48 -168h-318l-26 -90h288l-47 -166h-288l-27 -93h320z" />
    <glyph glyph-name="uniE07D" unicode="&#xe07d;" horiz-adv-x="501" 
d="M161 219l-63 -219h-139l-8 174l146 511h505l-49 -174h-308l-36 -124h279l-48 -168h-279z" />
    <glyph glyph-name="uniE07E" unicode="&#xe07e;" horiz-adv-x="623" 
d="M170 250l-72 -250h-139l-8 174l146 511h197l-74 -261h219l74 261h197l-196 -685h-197l72 250h-219z" />
    <glyph glyph-name="uniE07F" unicode="&#xe07f;" horiz-adv-x="207" 
d="M98 0h-139l-8 174l146 511h197z" />
    <glyph glyph-name="uniE080" unicode="&#xe080;" horiz-adv-x="598" 
d="M310 0l-127 299l-85 -299h-139l-8 174l146 511h197l-83 -290l268 290h244l-340 -342l149 -343h-222z" />
    <glyph glyph-name="uniE081" unicode="&#xe081;" horiz-adv-x="475" 
d="M380 0h-421l-8 174l146 511h197l-146 -511h282z" />
    <glyph glyph-name="uniE082" unicode="&#xe082;" horiz-adv-x="803" 
d="M248 0l-49 386l-111 -386h-129l-8 174l146 511h246l40 -351l241 351h264l-196 -685h-183l110 386l-270 -386h-101z" />
    <glyph glyph-name="uniE083" unicode="&#xe083;" horiz-adv-x="631" 
d="M303 0l-107 363l-104 -363h-133l-8 174l146 511h218l105 -370l106 370h191l-196 -685h-218z" />
    <glyph glyph-name="uniE084" unicode="&#xe084;" horiz-adv-x="542" 
d="M148 173l-50 -173h-139l-8 174l146 511h275q108 0 161 -56t53 -143q0 -135 -94 -224t-248 -89h-96zM198 347h73q48 0 79 28t31 76q0 27 -16 43.5t-47 16.5h-73z" />
    <glyph glyph-name="uniE085" unicode="&#xe085;" horiz-adv-x="556" 
d="M204 370h59q53 0 80.5 24.5t27.5 62.5q0 54 -72 54h-54zM253 0l-91 223l-64 -223h-139l-8 174l146 511h269q93 0 151 -55.5t58 -142.5q0 -95 -58.5 -169t-144.5 -95l108 -223h-227z" />
    <glyph glyph-name="uniE086" unicode="&#xe086;" horiz-adv-x="505" 
d="M421 0h-462l-7 154l366 362h-267l48 169h519l-45 -158l-369 -358h265z" />
    <glyph glyph-name="uniE087" unicode="&#xe087;" horiz-adv-x="492" 
d="M170 0h-199l-69 238l128 447h299q86 0 127.5 -44.5t41.5 -109.5q0 -136 -136 -180q88 -39 88 -131q0 -102 -76.5 -161t-203.5 -59zM254 527h-72l-29 -105h76q31 0 50 18.5t19 46.5q0 40 -44 40zM210 269h-102l-32 -111h105q36 0 57.5 18.5t21.5 49.5q0 43 -50 43z" />
    <glyph glyph-name="uniE088" unicode="&#xe088;" horiz-adv-x="577" 
d="M150 0h-179l-69 238l128 447h240q153 0 234 -80.5t81 -203.5q0 -80 -28.5 -151.5t-81.5 -127.5t-137 -89t-188 -33zM81 174h95q98 0 151 58.5t53 137.5q0 61 -35.5 101t-97.5 40h-69z" />
    <glyph glyph-name="uniE089" unicode="&#xe089;" horiz-adv-x="448" 
d="M348 0h-377l-71 238l128 447h514l-48 -168h-317l-26 -90h288l-47 -166h-288l-27 -93h319z" />
    <glyph glyph-name="uniE08A" unicode="&#xe08a;" horiz-adv-x="432" 
d="M29 0h-58l-71 238l128 447h505l-49 -174h-308l-36 -124h278l-48 -168h-278z" />
    <glyph glyph-name="uniE08B" unicode="&#xe08b;" 
d="M-100 238l128 447h197l-74 -261h218l74 261h197l-196 -685h-197l72 250h-218l-72 -250h-58z" />
    <glyph glyph-name="uniE08C" unicode="&#xe08c;" horiz-adv-x="138" 
d="M29 0h-58l-71 238l128 447h197z" />
    <glyph glyph-name="uniE08D" unicode="&#xe08d;" horiz-adv-x="529" 
d="M241 0l-127 299l-85 -299h-58l-71 238l128 447h197l-83 -290l268 290h244l-340 -342l149 -343h-222z" />
    <glyph glyph-name="uniE08E" unicode="&#xe08e;" horiz-adv-x="408" 
d="M313 0h-342l-69 238l128 447h197l-146 -511h282z" />
    <glyph glyph-name="uniE08F" unicode="&#xe08f;" horiz-adv-x="734" 
d="M19 0h-48l-71 238l128 447h246l40 -351l241 351h264l-196 -685h-183l110 386l-270 -386h-101l-49 386z" />
    <glyph glyph-name="uniE090" unicode="&#xe090;" horiz-adv-x="562" 
d="M234 0l-107 363l-104 -363h-52l-71 238l128 447h218l105 -370l106 370h191l-196 -685h-218z" />
    <glyph glyph-name="uniE091" unicode="&#xe091;" horiz-adv-x="473" 
d="M79 173l-50 -173h-58l-71 238l128 447h275q108 0 161 -56t53 -143q0 -135 -94 -224t-248 -89h-96zM129 347h73q48 0 79 28t31 76q0 27 -16 43.5t-47 16.5h-73z" />
    <glyph glyph-name="uniE092" unicode="&#xe092;" horiz-adv-x="487" 
d="M135 370h59q53 0 80.5 24.5t27.5 62.5q0 54 -72 54h-54zM184 0l-91 223l-64 -223h-58l-71 238l128 447h269q93 0 151 -55.5t58 -142.5q0 -95 -58.5 -169t-144.5 -95l108 -223h-227z" />
    <glyph glyph-name="uniE093" unicode="&#xe093;" horiz-adv-x="464" 
d="M380 0h-409l-47 167l353 349h-268l48 169h520l-45 -158l-369 -358h265z" />
    <glyph glyph-name="uniE094" unicode="&#xe094;" horiz-adv-x="888" 
d="M595 0l-75 401l-115 -401h-178l-90 400l-115 -400h-51l-71 238l128 447h237l74 -341l97 341h228l150 -685h-219z" />
    <glyph glyph-name="uniE095" unicode="&#xe095;" horiz-adv-x="559" 
d="M215 259l-59 242l-66 -242h125zM279 0l-25 100h-208l-27 -100h-48l-71 238l128 447h263l194 -685h-206z" />
    <glyph glyph-name="uniE096" unicode="&#xe096;" horiz-adv-x="419" 
d="M108 0h-137l-30 104l40 142l-105 439h201l47 -258l191 258h220l-356 -436z" />
    <glyph glyph-name="uniE097" unicode="&#xe097;" horiz-adv-x="358" 
d="M-72 147l105 364h-185l49 174h567l-49 -174h-185l-147 -511h-112z" />
    <glyph glyph-name="uniE098" unicode="&#xe098;" horiz-adv-x="477" 
d="M155 0h-186l-67 288l113 397h299q86 0 127.5 -44.5t41.5 -109.5q0 -136 -136 -180q88 -39 88 -131q0 -102 -76.5 -161t-203.5 -59zM239 527h-72l-30 -105h77q31 0 50 18.5t19 46.5q0 40 -44 40zM195 269h-102l-32 -111h105q36 0 57.5 18.5t21.5 49.5q0 43 -50 43z" />
    <glyph glyph-name="uniE099" unicode="&#xe099;" 
d="M135 0h-166l-67 288l113 397h240q153 0 234 -80.5t81 -203.5q0 -80 -28.5 -151.5t-81.5 -127.5t-137 -89t-188 -33zM66 174h95q98 0 151 58.5t53 137.5q0 61 -35.5 101t-97.5 40h-69z" />
    <glyph glyph-name="uniE09A" unicode="&#xe09a;" horiz-adv-x="462" 
d="M363 0h-394l-55 236l128 449h514l-48 -168h-317l-26 -90h288l-47 -166h-288l-27 -93h320z" />
    <glyph glyph-name="uniE09B" unicode="&#xe09b;" horiz-adv-x="446" 
d="M43 0h-74l-55 236l128 449h505l-49 -174h-308l-36 -124h279l-48 -168h-279z" />
    <glyph glyph-name="uniE09C" unicode="&#xe09c;" horiz-adv-x="568" 
d="M-31 0l-55 236l128 449h197l-74 -261h219l74 261h197l-196 -685h-197l72 250h-219l-72 -250h-74z" />
    <glyph glyph-name="uniE09D" unicode="&#xe09d;" horiz-adv-x="152" 
d="M43 0h-74l-55 236l128 449h197z" />
    <glyph glyph-name="uniE09E" unicode="&#xe09e;" horiz-adv-x="543" 
d="M255 0l-127 299l-85 -299h-74l-55 236l128 449h197l-83 -290l268 290h244l-340 -342l149 -343h-222z" />
    <glyph glyph-name="uniE09F" unicode="&#xe09f;" horiz-adv-x="393" 
d="M298 0h-329l-67 288l113 397h197l-146 -511h282z" />
    <glyph glyph-name="uniE0A0" unicode="&#xe0a0;" horiz-adv-x="576" 
d="M249 0l-107 363l-104 -363h-69l-55 236l129 449h218l105 -370l106 370h191l-196 -685h-218z" />
    <glyph glyph-name="uniE0A1" unicode="&#xe0a1;" horiz-adv-x="487" 
d="M43 0h-74l-55 236l128 449h275q108 0 161 -56t53 -143q0 -135 -94 -224t-248 -89h-96zM143 347h73q48 0 79 28t31 76q0 27 -16 43.5t-47 16.5h-73z" />
    <glyph glyph-name="uniE0A2" unicode="&#xe0a2;" horiz-adv-x="501" 
d="M149 370h59q53 0 80.5 24.5t27.5 62.5q0 54 -72 54h-54zM198 0l-91 223l-64 -223h-74l-55 236l128 449h269q93 0 151 -55.5t58 -142.5q0 -95 -58.5 -169t-144.5 -95l108 -223h-227z" />
    <glyph glyph-name="uniE0A3" unicode="&#xe0a3;" horiz-adv-x="573" 
d="M229 259l-59 242l-66 -242h125zM293 0l-25 100h-208l-27 -100h-64l-55 236l128 449h263l194 -685h-206z" />
    <glyph glyph-name="uniE0A4" unicode="&#xe0a4;" horiz-adv-x="904" 
d="M247 0l-98 432l-118 -432h-62l-55 237l128 448h223l77 -378l113 378h223l150 -685h-195l-83 433l-133 -433h-170z" />
    <glyph glyph-name="uniE0A5" unicode="&#xe0a5;" horiz-adv-x="444" 
d="M133 0h-164l-15 66l52 180l-105 439h201l47 -258l191 258h220l-356 -436z" />
    <glyph glyph-name="uniE0A6" unicode="&#xe0a6;" horiz-adv-x="388" 
d="M-54 106l117 405h-185l49 174h567l-49 -174h-185l-147 -511h-144z" />
    <glyph glyph-name="uniE0A7" unicode="&#xe0a7;" horiz-adv-x="575" 
d="M254 0h-279l-34 78l149 519l84 88h239q86 0 127.5 -44.5t41.5 -109.5q0 -136 -136 -180q88 -39 88 -131q0 -102 -76.5 -161t-203.5 -59zM338 527h-72l-30 -105h77q31 0 50 18.5t19 46.5q0 40 -44 40zM294 269h-102l-32 -111h105q36 0 57.5 18.5t21.5 49.5q0 43 -50 43z
" />
    <glyph glyph-name="uniE0A8" unicode="&#xe0a8;" horiz-adv-x="602" 
d="M320 259l-4 228l-134 -228h138zM326 0l-2 100h-235l-59 -100h-55l-64 144l332 541h253l27 -685h-197z" />
    <glyph glyph-name="uniE0A9" unicode="&#xe0a9;" horiz-adv-x="651" 
d="M301 259l-59 242l-66 -242h125zM365 0l-25 100h-208l-27 -100h-129l-35 79l148 517l86 89h202l194 -685h-206z" />
    <glyph glyph-name="uniE0AA" unicode="&#xe0aa;" horiz-adv-x="652" 
d="M175 685h179q153 0 234 -80.5t81 -203.5q0 -80 -28.5 -151.5t-81.5 -127.5t-137 -89t-188 -33h-258l-35 79l148 517zM165 174h95q98 0 151 58.5t53 137.5q0 61 -35.5 101t-97.5 40h-69z" />
    <glyph glyph-name="uniE0AB" unicode="&#xe0ab;" horiz-adv-x="534" 
d="M434 0h-458l-36 79l148 517l87 89h453l-48 -168h-317l-26 -90h287l-47 -166h-287l-27 -93h319z" />
    <glyph glyph-name="uniE0AC" unicode="&#xe0ac;" horiz-adv-x="517" 
d="M-24 0l-35 79l148 517l86 89h444l-49 -174h-308l-36 -124h278l-48 -168h-278l-63 -219h-139z" />
    <glyph glyph-name="uniE0AD" unicode="&#xe0ad;" horiz-adv-x="639" 
d="M115 0h-139l-35 79l148 517l86 89h136l-74 -261h218l74 261h197l-196 -685h-197l72 250h-218z" />
    <glyph glyph-name="uniE0AE" unicode="&#xe0ae;" horiz-adv-x="224" 
d="M-24 0l-35 79l148 517l86 89h136l-196 -685h-139z" />
    <glyph glyph-name="uniE0AF" unicode="&#xe0af;" horiz-adv-x="615" 
d="M327 0l-127 299l-85 -299h-139l-35 79l148 517l86 89h136l-83 -290l268 290h244l-340 -342l149 -343h-222z" />
    <glyph glyph-name="uniE0B0" unicode="&#xe0b0;" horiz-adv-x="491" 
d="M-24 0l-35 79l148 517l86 89h136l-146 -511h281l-50 -174h-420z" />
    <glyph glyph-name="uniE0B1" unicode="&#xe0b1;" horiz-adv-x="820" 
d="M265 0l-49 386l-111 -386h-129l-35 79l148 517l86 89h185l40 -351l241 351h264l-196 -685h-183l110 386l-270 -386h-101z" />
    <glyph glyph-name="uniE0B2" unicode="&#xe0b2;" horiz-adv-x="975" 
d="M319 0l-98 432l-118 -432h-127l-35 79l148 517l86 89h162l77 -378l113 378h223l150 -685h-195l-83 433l-133 -433h-170z" />
    <glyph glyph-name="uniE0B3" unicode="&#xe0b3;" horiz-adv-x="648" 
d="M109 0h-133l-35 79l148 517l86 89h157l105 -370l106 370h191l-196 -685h-218l-107 363z" />
    <glyph glyph-name="uniE0B4" unicode="&#xe0b4;" horiz-adv-x="559" 
d="M115 0h-139l-35 79l148 517l86 89h214q108 0 161 -56t53 -143q0 -135 -94 -224t-248 -89h-96zM215 347h73q48 0 79 28t31 76q0 27 -16 43.5t-47 16.5h-73z" />
    <glyph glyph-name="uniE0B5" unicode="&#xe0b5;" horiz-adv-x="573" 
d="M221 370h59q53 0 80.5 24.5t27.5 62.5q0 54 -72 54h-54zM270 0l-91 223l-64 -223h-139l-35 79l148 517l86 89h208q93 0 151 -55.5t58 -142.5q0 -95 -58.5 -169t-144.5 -95l108 -223h-227z" />
    <glyph glyph-name="uniE0B6" unicode="&#xe0b6;" horiz-adv-x="574" 
d="M287 0h-253l-9 529l156 156h40l-5 -473l265 473h209z" />
    <glyph glyph-name="uniE0B7" unicode="&#xe0b7;" horiz-adv-x="860" 
d="M405 352l-196 -352h-227l36 522l163 163h55l-46 -423l237 423h157l-5 -423l198 423h199l-346 -685h-228z" />
    <glyph glyph-name="uniE0B8" unicode="&#xe0b8;" horiz-adv-x="571" 
d="M261 0h-197l70 246l-75 319l118 120h53l47 -258l191 258h220l-356 -436z" />
    <glyph glyph-name="uniE0B9" unicode="&#xe0b9;" horiz-adv-x="509" 
d="M380 511l-147 -511h-197l147 511h-177l169 174h439l-49 -174h-185z" />
    <glyph glyph-name="uniE0BA" unicode="&#xe0ba;" horiz-adv-x="520" 
d="M411 0h-193l29 100h-204l-70 -90l-77 174l407 501h304zM293 259l75 260l-202 -260h127z" />
    <glyph glyph-name="uniE0BB" unicode="&#xe0bb;" horiz-adv-x="825" 
d="M522 0l113 392l-313 -392h-178l115 400l-290 -379l-78 177l385 487h223l-97 -341l272 341h238l-196 -685h-194z" />
    <glyph glyph-name="uniE0BC" unicode="&#xe0bc;" horiz-adv-x="618" 
d="M336 259l-4 228l-134 -228h138zM342 0l-2 100h-235l-59 -100h-74l-61 119l348 566h253l27 -685h-197z" />
    <glyph glyph-name="uniE0BD" unicode="&#xe0bd;" horiz-adv-x="606" 
d="M284 0h-231l-77 95l168 590h299q86 0 127.5 -44.5t41.5 -109.5q0 -136 -136 -180q88 -39 88 -131q0 -102 -76.5 -161t-203.5 -59zM368 527h-72l-30 -105h77q31 0 50 18.5t19 46.5q0 40 -44 40zM324 269h-102l-32 -111h105q36 0 57.5 18.5t21.5 49.5q0 43 -50 43z" />
    <glyph glyph-name="uniE0BE" unicode="&#xe0be;" horiz-adv-x="682" 
d="M-24 95l168 590h240q153 0 234 -80.5t81 -203.5q0 -80 -28.5 -151.5t-81.5 -127.5t-137 -89t-188 -33h-211zM195 174h95q98 0 151 58.5t53 137.5q0 61 -35.5 101t-97.5 40h-69z" />
    <glyph glyph-name="uniE0BF" unicode="&#xe0bf;" horiz-adv-x="565" 
d="M465 0h-412l-77 95l168 590h515l-48 -168h-318l-26 -90h288l-47 -166h-288l-27 -93h320z" />
    <glyph glyph-name="uniE0C0" unicode="&#xe0c0;" horiz-adv-x="548" 
d="M145 0h-92l-77 95l168 590h506l-49 -174h-309l-36 -124h279l-48 -168h-279z" />
    <glyph glyph-name="uniE0C1" unicode="&#xe0c1;" horiz-adv-x="670" 
d="M217 250l-72 -250h-92l-77 95l168 590h197l-74 -261h219l74 261h197l-196 -685h-197l72 250h-219z" />
    <glyph glyph-name="uniE0C2" unicode="&#xe0c2;" horiz-adv-x="254" 
d="M145 0h-92l-77 95l168 590h197z" />
    <glyph glyph-name="uniE0C3" unicode="&#xe0c3;" horiz-adv-x="645" 
d="M355 0l-125 299l-85 -299h-92l-77 95l168 590h197l-83 -290l270 290h244l-342 -342l147 -343h-222z" />
    <glyph glyph-name="uniE0C4" unicode="&#xe0c4;" horiz-adv-x="522" 
d="M427 0h-374l-77 95l168 590h197l-146 -511h282z" />
    <glyph glyph-name="uniE0C5" unicode="&#xe0c5;" horiz-adv-x="850" 
d="M135 0h-82l-77 95l168 590h246l40 -351l241 351h264l-196 -685h-183l110 386l-270 -386h-101l-49 386z" />
    <glyph glyph-name="uniE0C6" unicode="&#xe0c6;" horiz-adv-x="678" 
d="M350 0l-107 363l-104 -363h-86l-77 95l168 590h218l105 -370l106 370h191l-196 -685h-218z" />
    <glyph glyph-name="uniE0C7" unicode="&#xe0c7;" horiz-adv-x="590" 
d="M195 173l-50 -173h-92l-77 95l168 590h275q108 0 161 -56t53 -143q0 -135 -94 -224t-248 -89h-96zM245 347h73q48 0 79 28t31 76q0 27 -16 43.5t-47 16.5h-73z" />
    <glyph glyph-name="uniE0C8" unicode="&#xe0c8;" horiz-adv-x="603" 
d="M251 370h59q53 0 80.5 24.5t27.5 62.5q0 54 -72 54h-54zM300 0l-91 223l-64 -223h-92l-77 95l168 590h269q93 0 151 -55.5t58 -142.5q0 -95 -58.5 -169t-144.5 -95l108 -223h-227z" />
    <glyph glyph-name="uniE0C9" unicode="&#xe0c9;" horiz-adv-x="590" 
d="M363 259l75 260l-202 -260h127zM288 0l29 100h-204l-78 -100h-66l-58 116l462 569h304l-196 -685h-193z" />
    <glyph glyph-name="uniE0CA" unicode="&#xe0ca;" horiz-adv-x="897" 
d="M216 0l115 400l-306 -400h-56l-63 124l442 561h223l-97 -341l272 341h238l-196 -685h-194l113 392l-313 -392h-178z" />
    <glyph glyph-name="uniE0CB" unicode="&#xe0cb;" horiz-adv-x="675" 
d="M331 259l-59 242l-66 -242h125zM395 0l-25 100h-208l-27 -100h-82l-79 92l170 593h263l194 -685h-206z" />
    <glyph glyph-name="uniE0CC" unicode="&#xe0cc;" horiz-adv-x="1006" 
d="M343 0l-90 400l-115 -400h-85l-77 95l168 590h237l74 -341l97 341h228l150 -685h-218l-76 401l-115 -401h-178z" />
    <glyph glyph-name="uniE0CD" unicode="&#xe0cd;" horiz-adv-x="1006" 
d="M361 0l97 341l-272 -341h-133l-78 95l169 590h194l-113 -392l313 392h178l-115 -400l306 400h219l-542 -685h-223z" />
    <glyph glyph-name="uniE0CE" unicode="&#xe0ce;" horiz-adv-x="686" 
d="M53 0l-77 95l168 590h193l-144 -498l387 498h228l-556 -685h-199z" />
    <glyph glyph-name="uniE0CF" unicode="&#xe0cf;" horiz-adv-x="497" 
d="M175 0h-336l120 421l213 264h162q86 0 127.5 -44.5t41.5 -109.5q0 -136 -136 -180q88 -39 88 -131q0 -102 -76.5 -161t-203.5 -59zM259 527h-72l-30 -105h77q31 0 50 18.5t19 46.5q0 40 -44 40zM215 269h-102l-32 -111h105q36 0 57.5 18.5t21.5 49.5q0 43 -50 43z" />
    <glyph glyph-name="uniE0D0" unicode="&#xe0d0;" horiz-adv-x="573" 
d="M-161 0l120 421l213 264h103q153 0 234 -80.5t81 -203.5q0 -80 -28.5 -151.5t-81.5 -127.5t-137 -89t-188 -33h-316zM86 174h95q98 0 151 58.5t53 137.5q0 61 -35.5 101t-97.5 40h-69z" />
    <glyph glyph-name="uniE0D1" unicode="&#xe0d1;" horiz-adv-x="455" 
d="M-41 421l213 264h378l-48 -168h-318l-26 -90h288l-47 -166h-288l-27 -93h320l-48 -168h-517z" />
    <glyph glyph-name="uniE0D2" unicode="&#xe0d2;" horiz-adv-x="439" 
d="M-41 421l213 264h369l-49 -174h-309l-36 -124h279l-48 -168h-279l-63 -219h-197z" />
    <glyph glyph-name="uniE0D3" unicode="&#xe0d3;" horiz-adv-x="559" 
d="M-42 420l214 265h58l-74 -261h218l74 261h197l-196 -685h-197l72 250h-218l-72 -250h-197z" />
    <glyph glyph-name="uniE0D4" unicode="&#xe0d4;" horiz-adv-x="143" 
d="M-41 421l213 264h58l-196 -685h-197z" />
    <glyph glyph-name="uniE0D5" unicode="&#xe0d5;" horiz-adv-x="534" 
d="M119 299l-85 -299h-197l122 421l213 264h58l-83 -290l268 290h244l-340 -342l149 -343h-222z" />
    <glyph glyph-name="uniE0D6" unicode="&#xe0d6;" horiz-adv-x="411" 
d="M-163 0l122 421l213 264h58l-146 -511h281l-50 -174h-478z" />
    <glyph glyph-name="uniE0D7" unicode="&#xe0d7;" horiz-adv-x="741" 
d="M186 0l-49 386l-111 -386h-187l120 421l213 264h109l40 -351l241 351h264l-196 -685h-183l110 386l-270 -386h-101z" />
    <glyph glyph-name="uniE0D8" unicode="&#xe0d8;" horiz-adv-x="569" 
d="M241 0l-107 363l-104 -363h-191l120 421l213 264h81l105 -370l106 370h191l-196 -685h-218z" />
    <glyph glyph-name="uniE0D9" unicode="&#xe0d9;" horiz-adv-x="481" 
d="M-41 421l213 264h138q108 0 161 -56t53 -143q0 -135 -94 -224t-248 -89h-96l-50 -173h-197zM136 347h73q48 0 79 28t31 76q0 27 -16 43.5t-47 16.5h-73z" />
    <glyph glyph-name="uniE0DA" unicode="&#xe0da;" horiz-adv-x="494" 
d="M142 370h59q53 0 80.5 24.5t27.5 62.5q0 54 -72 54h-54zM191 0l-91 223l-64 -223h-197l120 421l213 264h132q93 0 151 -55.5t58 -142.5q0 -95 -58.5 -169t-144.5 -95l108 -223h-227z" />
    <glyph glyph-name="uniE0DB" unicode="&#xe0db;" horiz-adv-x="500" 
d="M371 511l-147 -511h-197l147 511h-143l141 174h433l-49 -174h-185z" />
    <glyph glyph-name="uniE0DC" unicode="&#xe0dc;" horiz-adv-x="895" 
d="M251 0l97 341l-272 -341h-238l121 421l213 264h56l-113 -392l313 392h178l-115 -400l306 400h219l-542 -685h-223z" />
    <glyph glyph-name="uniE0DD" unicode="&#xe0dd;" horiz-adv-x="571" 
d="M-41 421l213 264h56l-139 -486l389 486h213l-576 -685h-278z" />
    <glyph glyph-name="uniE0DE" unicode="&#xe0de;" horiz-adv-x="530" 
d="M208 0h-336l106 370l190 315h199q86 0 127.5 -44.5t41.5 -109.5q0 -136 -136 -180q88 -39 88 -131q0 -102 -76.5 -161t-203.5 -59zM292 527h-72l-30 -105h77q31 0 50 18.5t19 46.5q0 40 -44 40zM248 269h-102l-32 -111h105q36 0 57.5 18.5t21.5 49.5q0 43 -50 43z" />
    <glyph glyph-name="uniE0DF" unicode="&#xe0df;" horiz-adv-x="604" 
d="M-25 366l193 319h138q153 0 234 -80.5t81 -203.5q0 -80 -28.5 -151.5t-81.5 -127.5t-137 -89t-188 -33h-316zM117 174h95q98 0 151 58.5t53 137.5q0 61 -35.5 101t-97.5 40h-69z" />
    <glyph glyph-name="uniE0E0" unicode="&#xe0e0;" horiz-adv-x="486" 
d="M-130 0l105 366l193 319h413l-48 -168h-318l-26 -90h288l-47 -166h-288l-27 -93h320l-48 -168h-517z" />
    <glyph glyph-name="uniE0E1" unicode="&#xe0e1;" horiz-adv-x="470" 
d="M-130 0l105 366l193 319h404l-49 -174h-309l-36 -124h279l-48 -168h-279l-63 -219h-197z" />
    <glyph glyph-name="uniE0E2" unicode="&#xe0e2;" horiz-adv-x="592" 
d="M168 685h95l-74 -261h219l74 261h197l-196 -685h-197l72 250h-219l-72 -250h-197l105 366z" />
    <glyph glyph-name="uniE0E3" unicode="&#xe0e3;" horiz-adv-x="176" 
d="M-130 0l105 366l193 319h95l-196 -685h-197z" />
    <glyph glyph-name="uniE0E4" unicode="&#xe0e4;" horiz-adv-x="567" 
d="M279 0l-127 299l-85 -299h-197l105 366l193 319h95l-83 -290l268 290h244l-340 -342l149 -343h-222z" />
    <glyph glyph-name="uniE0E5" unicode="&#xe0e5;" horiz-adv-x="444" 
d="M-130 0l105 366l193 319h95l-146 -511h282l-50 -174h-479z" />
    <glyph glyph-name="uniE0E6" unicode="&#xe0e6;" horiz-adv-x="772" 
d="M57 0h-187l105 366l193 319h144l40 -351l241 351h264l-196 -685h-183l110 386l-270 -386h-101l-49 386z" />
    <glyph glyph-name="uniE0E7" unicode="&#xe0e7;" horiz-adv-x="600" 
d="M272 0l-107 363l-104 -363h-191l105 366l193 319h116l105 -370l106 370h191l-196 -685h-218z" />
    <glyph glyph-name="uniE0E8" unicode="&#xe0e8;" horiz-adv-x="512" 
d="M67 0h-197l105 366l193 319h173q108 0 161 -56t53 -143q0 -135 -94 -224t-248 -89h-96zM167 347h73q48 0 79 28t31 76q0 27 -16 43.5t-47 16.5h-73z" />
    <glyph glyph-name="uniE0E9" unicode="&#xe0e9;" horiz-adv-x="525" 
d="M173 370h59q53 0 80.5 24.5t27.5 62.5q0 54 -72 54h-54zM222 0l-91 223l-64 -223h-197l105 366l193 319h167q93 0 151 -55.5t58 -142.5q0 -95 -58.5 -169t-144.5 -95l108 -223h-227z" />
    <glyph glyph-name="uniE0EA" unicode="&#xe0ea;" horiz-adv-x="509" 
d="M380 511l-147 -511h-197l147 511h-122l104 174h449l-49 -174h-185z" />
    <glyph glyph-name="uniE0EB" unicode="&#xe0eb;" horiz-adv-x="557" 
d="M236 0h-336l107 374l158 311h230q86 0 127.5 -44.5t41.5 -109.5q0 -136 -136 -180q88 -39 88 -131q0 -102 -76.5 -161t-203.5 -59zM320 527h-72l-30 -105h77q31 0 50 18.5t19 46.5q0 40 -44 40zM276 269h-102l-32 -111h105q36 0 57.5 18.5t21.5 49.5q0 43 -50 43z" />
    <glyph glyph-name="uniE0EC" unicode="&#xe0ec;" horiz-adv-x="633" 
d="M215 0h-316l106 369l160 316h170q153 0 234 -80.5t81 -203.5q0 -80 -28.5 -151.5t-81.5 -127.5t-137 -89t-188 -33zM146 174h95q98 0 151 58.5t53 137.5q0 61 -35.5 101t-97.5 40h-69z" />
    <glyph glyph-name="uniE0ED" unicode="&#xe0ed;" horiz-adv-x="515" 
d="M-101 0l106 369l160 316h444l-48 -168h-317l-26 -90h288l-47 -166h-288l-27 -93h319l-48 -168h-516z" />
    <glyph glyph-name="uniE0EE" unicode="&#xe0ee;" horiz-adv-x="499" 
d="M-101 0l106 369l160 316h435l-49 -174h-308l-36 -124h279l-48 -168h-279l-63 -219h-197z" />
    <glyph glyph-name="uniE0EF" unicode="&#xe0ef;" horiz-adv-x="621" 
d="M168 250l-72 -250h-197l106 369l160 316h127l-74 -261h219l74 261h197l-196 -685h-197l72 250h-219z" />
    <glyph glyph-name="uniE0F0" unicode="&#xe0f0;" horiz-adv-x="205" 
d="M-101 0l106 369l160 316h127l-196 -685h-197z" />
    <glyph glyph-name="uniE0F1" unicode="&#xe0f1;" horiz-adv-x="596" 
d="M308 0l-127 299l-85 -299h-197l106 369l160 316h127l-83 -290l268 290h244l-340 -342l149 -343h-222z" />
    <glyph glyph-name="uniE0F2" unicode="&#xe0f2;" horiz-adv-x="473" 
d="M-101 0l106 369l160 316h127l-146 -511h281l-50 -174h-478z" />
    <glyph glyph-name="uniE0F3" unicode="&#xe0f3;" horiz-adv-x="799" 
d="M86 0h-187l106 369l160 316h176l40 -351l241 351h264l-196 -685h-183l110 386l-270 -386h-101l-49 386z" />
    <glyph glyph-name="uniE0F4" unicode="&#xe0f4;" horiz-adv-x="629" 
d="M301 0l-107 363l-104 -363h-191l106 369l160 316h148l105 -370l106 370h191l-196 -685h-218z" />
    <glyph glyph-name="uniE0F5" unicode="&#xe0f5;" horiz-adv-x="540" 
d="M96 0h-197l106 369l160 316h205q108 0 161 -56t53 -143q0 -135 -94 -224t-248 -89h-96zM196 347h73q48 0 79 28t31 76q0 27 -16 43.5t-47 16.5h-73z" />
    <glyph glyph-name="uniE0F6" unicode="&#xe0f6;" 
d="M202 370h59q53 0 80.5 24.5t27.5 62.5q0 54 -72 54h-54zM251 0l-91 223l-64 -223h-197l106 369l160 316h199q93 0 151 -55.5t58 -142.5q0 -95 -58.5 -169t-144.5 -95l108 -223h-227z" />
    <glyph glyph-name="uniE0F7" unicode="&#xe0f7;" horiz-adv-x="531" 
d="M402 511l-147 -511h-197l147 511h-135l88 174h478l-49 -174h-185z" />
    <glyph glyph-name="uniE0F8" unicode="&#xe0f8;" horiz-adv-x="485" 
d="M163 0h-336l109 382l237 303h149q86 0 127.5 -44.5t41.5 -109.5q0 -136 -136 -180q88 -39 88 -131q0 -102 -76.5 -161t-203.5 -59zM247 527h-72l-30 -105h77q31 0 50 18.5t19 46.5q0 40 -44 40zM203 269h-102l-32 -111h105q36 0 57.5 18.5t21.5 49.5q0 43 -50 43z" />
    <glyph glyph-name="uniE0F9" unicode="&#xe0f9;" horiz-adv-x="562" 
d="M-64 382l237 303h90q153 0 234 -80.5t81 -203.5q0 -80 -28.5 -151.5t-81.5 -127.5t-137 -89t-188 -33h-316zM74 174h95q98 0 151 58.5t53 137.5q0 61 -35.5 101t-97.5 40h-69z" />
    <glyph glyph-name="uniE0FA" unicode="&#xe0fa;" horiz-adv-x="443" 
d="M-65 380l237 305h365l-48 -168h-318l-26 -90h288l-47 -166h-288l-27 -93h320l-48 -168h-517z" />
    <glyph glyph-name="uniE0FB" unicode="&#xe0fb;" horiz-adv-x="426" 
d="M-65 380l237 305h356l-49 -174h-309l-36 -124h279l-48 -168h-279l-63 -219h-197z" />
    <glyph glyph-name="uniE0FC" unicode="&#xe0fc;" horiz-adv-x="575" 
d="M-21 436l193 249h74l-74 -261h219l74 261h197l-196 -685h-197l72 250h-219l-72 -250h-197z" />
    <glyph glyph-name="uniE0FD" unicode="&#xe0fd;" horiz-adv-x="159" 
d="M50 0h-197l125 435l194 250h74z" />
    <glyph glyph-name="uniE0FE" unicode="&#xe0fe;" horiz-adv-x="550" 
d="M262 0l-127 299l-85 -299h-197l125 435l194 250h74l-83 -290l268 290h244l-340 -342l149 -343h-222z" />
    <glyph glyph-name="uniE0FF" unicode="&#xe0ff;" horiz-adv-x="427" 
d="M-22 435l194 250h74l-146 -511h281l-50 -174h-478z" />
    <glyph glyph-name="uniE100" unicode="&#xe100;" horiz-adv-x="726" 
d="M173 0l-49 386l-111 -386h-187l109 380l237 305h96l40 -351l241 351h264l-196 -685h-183l110 386l-270 -386h-101z" />
    <glyph glyph-name="uniE101" unicode="&#xe101;" horiz-adv-x="556" 
d="M228 0l-107 363l-104 -363h-191l109 380l237 305h68l105 -370l106 370h191l-196 -685h-218z" />
    <glyph glyph-name="uniE102" unicode="&#xe102;" horiz-adv-x="468" 
d="M-65 380l237 305h125q108 0 161 -56t53 -143q0 -135 -94 -224t-248 -89h-96l-50 -173h-197zM123 347h73q48 0 79 28t31 76q0 27 -16 43.5t-47 16.5h-73z" />
    <glyph glyph-name="uniE103" unicode="&#xe103;" horiz-adv-x="481" 
d="M129 370h59q53 0 80.5 24.5t27.5 62.5q0 54 -72 54h-54zM178 0l-91 223l-64 -223h-197l109 380l237 305h119q93 0 151 -55.5t58 -142.5q0 -95 -58.5 -169t-144.5 -95l108 -223h-227z" />
    <glyph glyph-name="uniE104" unicode="&#xe104;" horiz-adv-x="464" 
d="M335 511l-147 -511h-197l147 511h-101l135 174h397l-49 -174h-185z" />
    <glyph glyph-name="uniE105" unicode="&#xe105;" horiz-adv-x="587" 
d="M-22 436l194 249h72l-139 -486l389 486h213l-576 -685h-278z" />
    <glyph glyph-name="uniE106" unicode="&#xe106;" horiz-adv-x="911" 
d="M266 0l97 341l-272 -341h-238l125 436l194 249h71l-113 -392l313 392h178l-115 -400l306 400h219l-542 -685h-223z" />
    <glyph glyph-name="uniE107" unicode="&#xe107;" horiz-adv-x="651" 
d="M368 259l-4 228l-134 -228h138zM374 0l-2 100h-235l-59 -100h-112l-37 95l362 590h253l27 -685h-197z" />
    <glyph glyph-name="uniE108" unicode="&#xe108;" horiz-adv-x="628" 
d="M284 259l-59 242l-66 -242h125zM348 0l-25 100h-208l-27 -100h-122l-36 101l144 501l78 83h208l194 -685h-206z" />
    <glyph glyph-name="uniE109" unicode="&#xe109;" horiz-adv-x="589" 
d="M362 259l75 260l-202 -260h127zM287 0l29 100h-204l-78 -100h-66l-49 127l453 558h304l-196 -685h-193z" />
    <glyph glyph-name="uniE10A" unicode="&#xe10a;" horiz-adv-x="560" 
d="M238 0h-272l-37 94l145 504l78 87h245q86 0 127.5 -44.5t41.5 -109.5q0 -136 -136 -180q88 -39 88 -131q0 -102 -76.5 -161t-203.5 -59zM322 527h-72l-30 -105h77q31 0 50 18.5t19 46.5q0 40 -44 40zM278 269h-102l-32 -111h105q36 0 57.5 18.5t21.5 49.5q0 43 -50 43z
" />
    <glyph glyph-name="uniE10B" unicode="&#xe10b;" horiz-adv-x="636" 
d="M-34 0l-37 96l144 501l79 88h185q153 0 234 -80.5t81 -203.5q0 -80 -28.5 -151.5t-81.5 -127.5t-137 -89t-188 -33h-251zM148 174h95q98 0 151 58.5t53 137.5q0 61 -35.5 101t-97.5 40h-69z" />
    <glyph glyph-name="uniE10C" unicode="&#xe10c;" horiz-adv-x="518" 
d="M418 0h-452l-37 96l144 501l79 88h460l-48 -168h-318l-26 -90h288l-47 -166h-288l-27 -93h320z" />
    <glyph glyph-name="uniE10D" unicode="&#xe10d;" horiz-adv-x="501" 
d="M-34 0l-37 96l144 501l79 88h451l-49 -174h-309l-36 -124h279l-48 -168h-279l-63 -219h-132z" />
    <glyph glyph-name="uniE10E" unicode="&#xe10e;" horiz-adv-x="623" 
d="M98 0h-132l-37 96l144 501l79 88h142l-74 -261h219l74 261h197l-196 -685h-197l72 250h-219z" />
    <glyph glyph-name="uniE10F" unicode="&#xe10f;" horiz-adv-x="208" 
d="M-34 0l-37 96l144 501l79 88h142l-196 -685h-132z" />
    <glyph glyph-name="uniE110" unicode="&#xe110;" horiz-adv-x="598" 
d="M310 0l-127 299l-85 -299h-132l-37 96l144 501l79 88h142l-83 -290l268 290h244l-340 -342l149 -343h-222z" />
    <glyph glyph-name="uniE111" unicode="&#xe111;" horiz-adv-x="475" 
d="M380 0h-414l-37 96l144 501l79 88h142l-146 -511h282z" />
    <glyph glyph-name="uniE112" unicode="&#xe112;" horiz-adv-x="801" 
d="M248 0l-49 386l-111 -386h-122l-37 96l144 501l79 88h191l40 -351l241 351h264l-196 -685h-183l110 386l-270 -386h-101z" />
    <glyph glyph-name="uniE113" unicode="&#xe113;" horiz-adv-x="959" 
d="M303 0l-98 432l-118 -432h-121l-37 96l144 501l79 88h169l77 -378l113 378h223l150 -685h-195l-83 433l-133 -433h-170z" />
    <glyph glyph-name="uniE114" unicode="&#xe114;" horiz-adv-x="631" 
d="M92 0h-126l-37 96l144 501l79 88h163l105 -370l106 370h191l-196 -685h-218l-107 363z" />
    <glyph glyph-name="uniE115" unicode="&#xe115;" horiz-adv-x="543" 
d="M98 0h-132l-37 96l144 501l79 88h220q108 0 161 -56t53 -143q0 -135 -94 -224t-248 -89h-96zM198 347h73q48 0 79 28t31 76q0 27 -16 43.5t-47 16.5h-73z" />
    <glyph glyph-name="uniE116" unicode="&#xe116;" horiz-adv-x="556" 
d="M204 370h59q53 0 80.5 24.5t27.5 62.5q0 54 -72 54h-54zM253 0l-91 223l-64 -223h-132l-37 96l144 501l79 88h214q93 0 151 -55.5t58 -142.5q0 -95 -58.5 -169t-144.5 -95l108 -223h-227z" />
    <glyph glyph-name="uniE117" unicode="&#xe117;" horiz-adv-x="500" 
d="M224 0h-197l147 511h-173l152 174h452l-49 -174h-185z" />
    <glyph glyph-name="uniE118" unicode="&#xe118;" horiz-adv-x="624" 
d="M280 259l-59 242l-66 -242h125zM344 0l-25 100h-208l-27 -100h-187l157 548l111 137h191l194 -685h-206z" />
    <glyph glyph-name="uniE119" unicode="&#xe119;" horiz-adv-x="555" 
d="M233 0h-336l158 550l109 135h228q86 0 127.5 -44.5t41.5 -109.5q0 -136 -136 -180q88 -39 88 -131q0 -102 -76.5 -161t-203.5 -59zM317 527h-72l-30 -105h77q31 0 50 18.5t19 46.5q0 40 -44 40zM273 269h-102l-32 -111h105q36 0 57.5 18.5t21.5 49.5q0 43 -50 43z" />
    <glyph glyph-name="uniE11A" unicode="&#xe11a;" horiz-adv-x="631" 
d="M53 548l111 137h168q153 0 234 -80.5t81 -203.5q0 -80 -28.5 -151.5t-81.5 -127.5t-137 -89t-188 -33h-316zM143 174h95q98 0 151 58.5t53 137.5q0 61 -35.5 101t-97.5 40h-69z" />
    <glyph glyph-name="uniE11B" unicode="&#xe11b;" horiz-adv-x="513" 
d="M413 0h-517l157 548l111 137h443l-48 -168h-318l-26 -90h288l-47 -166h-288l-27 -93h320z" />
    <glyph glyph-name="uniE11C" unicode="&#xe11c;" horiz-adv-x="496" 
d="M93 0h-197l157 548l111 137h434l-49 -174h-309l-36 -124h279l-48 -168h-279z" />
    <glyph glyph-name="uniE11D" unicode="&#xe11d;" horiz-adv-x="618" 
d="M165 250l-72 -250h-197l157 548l111 137h125l-74 -261h219l74 261h197l-196 -685h-197l72 250h-219z" />
    <glyph glyph-name="uniE11E" unicode="&#xe11e;" horiz-adv-x="202" 
d="M289 685l-196 -685h-197l157 548l111 137h125z" />
    <glyph glyph-name="uniE11F" unicode="&#xe11f;" horiz-adv-x="593" 
d="M305 0l-127 299l-85 -299h-197l157 548l111 137h125l-83 -290l268 290h244l-340 -342l149 -343h-222z" />
    <glyph glyph-name="uniE120" unicode="&#xe120;" horiz-adv-x="470" 
d="M-104 0l157 548l111 137h125l-146 -511h282l-50 -174h-479z" />
    <glyph glyph-name="uniE121" unicode="&#xe121;" horiz-adv-x="796" 
d="M83 0h-187l157 548l111 137h174l40 -351l241 351h264l-196 -685h-183l110 386l-270 -386h-101l-49 386z" />
    <glyph glyph-name="uniE122" unicode="&#xe122;" horiz-adv-x="954" 
d="M81 0h-185l157 548l111 137h151l77 -378l113 378h223l150 -685h-195l-83 433l-133 -433h-170l-98 432z" />
    <glyph glyph-name="uniE123" unicode="&#xe123;" horiz-adv-x="626" 
d="M298 0l-107 363l-104 -363h-191l157 548l111 137h146l105 -370l106 370h191l-196 -685h-218z" />
    <glyph glyph-name="uniE124" unicode="&#xe124;" horiz-adv-x="538" 
d="M93 0h-197l157 548l111 137h203q108 0 161 -56t53 -143q0 -135 -94 -224t-248 -89h-96zM193 347h73q48 0 79 28t31 76q0 27 -16 43.5t-47 16.5h-73z" />
    <glyph glyph-name="uniE125" unicode="&#xe125;" horiz-adv-x="551" 
d="M199 370h59q53 0 80.5 24.5t27.5 62.5q0 54 -72 54h-54zM248 0l-91 223l-64 -223h-197l157 548l111 137h197q93 0 151 -55.5t58 -142.5q0 -95 -58.5 -169t-144.5 -95l108 -223h-227z" />
    <glyph glyph-name="uniE126" unicode="&#xe126;" horiz-adv-x="536" 
d="M405 511l-147 -511h-197l147 511h-181l136 174h476l-49 -174h-185z" />
    <glyph glyph-name="uniE127" unicode="&#xe127;" horiz-adv-x="478" 
d="M163 685h428l-45 -158l-369 -358h265l-48 -169h-513l44 154l366 362h-264z" />
    <glyph glyph-name="uniE128" unicode="&#xe128;" horiz-adv-x="517" 
d="M298 0h-336l196 685h299q86 0 127.5 -44.5t41.5 -109.5q0 -137 -136 -180q87 -37 87 -127l-176 -211q-50 -13 -103 -13zM382 527h-72l-30 -105h77q31 0 50 18.5t19 46.5q0 40 -44 40zM338 269h-102l-32 -111h105q36 0 57.5 18.5t21.5 49.5q0 43 -50 43z" />
    <glyph glyph-name="uniE129" unicode="&#xe129;" horiz-adv-x="538" 
d="M277 0h-316l196 685h240q153 0 234 -80.5t81 -203.5q0 -4 -2 -32l-290 -351q-64 -18 -143 -18zM208 174h95q98 0 151 58.5t53 137.5q0 61 -35.5 101t-97.5 40h-69z" />
    <glyph glyph-name="uniE12A" unicode="&#xe12a;" horiz-adv-x="486" 
d="M357 0h-396l196 685h514l-48 -168h-317l-26 -90h287l-47 -166h-287l-27 -93h290z" />
    <glyph glyph-name="uniE12B" unicode="&#xe12b;" horiz-adv-x="563" 
d="M647 258l-213 -258h-58l72 250h-218l-72 -250h-197l196 685h197l-74 -261h218l74 261h197z" />
    <glyph glyph-name="uniE12C" unicode="&#xe12c;" horiz-adv-x="148" 
d="M354 685l-122 -427l-213 -258h-58l196 685h197z" />
    <glyph glyph-name="uniE12D" unicode="&#xe12d;" horiz-adv-x="742" 
d="M308 0l-49 386l-111 -386h-187l196 685h246l40 -351l241 351h264l-122 -427l-213 -258h-44l110 386l-270 -386h-101z" />
    <glyph glyph-name="uniE12E" unicode="&#xe12e;" horiz-adv-x="571" 
d="M363 0l-107 363l-104 -363h-191l196 685h218l105 -370l106 370h191l-122 -427l-213 -258h-79z" />
    <glyph glyph-name="uniE12F" unicode="&#xe12f;" horiz-adv-x="788" 
d="M226 0l115 400l-306 -400h-56l-65 123l444 562h223l-97 -341l272 341h238l-122 -427l-213 -258h-55l113 392l-313 -392h-178z" />
    <glyph glyph-name="uniE130" unicode="&#xe130;" horiz-adv-x="900" 
d="M336 0l115 400l-306 -400h-219l542 685h223l-97 -341l272 341h238l-123 -431l-210 -254h-57l113 392l-313 -392h-178z" />
    <glyph glyph-name="uniE131" unicode="&#xe131;" horiz-adv-x="580" 
d="M473 259l75 260l-202 -260h127zM398 0l29 100h-204l-78 -100h-218l556 685h304l-123 -427l-213 -258h-53z" />
    <glyph glyph-name="uniE132" unicode="&#xe132;" horiz-adv-x="424" 
d="M297 0h-138l70 246l-105 439h201l47 -258l191 258h220l-356 -436l-39 -139z" />
    <glyph glyph-name="uniE133" unicode="&#xe133;" horiz-adv-x="372" 
d="M471 511l-104 -361l-124 -150h-116l147 511h-185l49 174h566l-49 -174h-184z" />
    <glyph glyph-name="uniE134" unicode="&#xe134;" horiz-adv-x="466" 
d="M337 0h-396l44 154l366 362h-268l48 169h520l-45 -158l-370 -358h242z" />
    <glyph glyph-name="uniE135" unicode="&#xe135;" horiz-adv-x="519" 
d="M298 0h-336l196 685h299q86 0 127.5 -44.5t41.5 -109.5q0 -137 -136 -180q86 -37 86 -127l-173 -210q-54 -14 -105 -14zM382 527h-72l-30 -105h77q31 0 50 18.5t19 46.5q0 40 -44 40zM338 269h-102l-32 -111h105q36 0 57.5 18.5t21.5 49.5q0 43 -50 43z" />
    <glyph glyph-name="uniE136" unicode="&#xe136;" horiz-adv-x="559" 
d="M277 0h-316l196 685h240q153 0 234 -80.5t81 -203.5q0 -31 -4 -55l-246 -311q-84 -35 -185 -35zM208 174h95q98 0 151 58.5t53 137.5q0 61 -35.5 101t-97.5 40h-69z" />
    <glyph glyph-name="uniE137" unicode="&#xe137;" horiz-adv-x="499" 
d="M372 0h-411l196 685h514l-48 -168h-317l-26 -90h287l-47 -166h-287l-27 -93h305z" />
    <glyph glyph-name="uniE138" unicode="&#xe138;" horiz-adv-x="576" 
d="M-39 0l196 685h197l-74 -261h218l74 261h197l-128 -449l-191 -236h-74l72 250h-218l-72 -250h-197z" />
    <glyph glyph-name="uniE139" unicode="&#xe139;" horiz-adv-x="161" 
d="M35 0h-74l196 685h197l-128 -449z" />
    <glyph glyph-name="uniE13A" unicode="&#xe13a;" horiz-adv-x="584" 
d="M255 358l-103 -358h-191l196 685h223l102 -365l104 365h191l-128 -449l-191 -236h-100z" />
    <glyph glyph-name="uniE13B" unicode="&#xe13b;" horiz-adv-x="593" 
d="M472 259l75 260l-202 -260h127zM397 0l29 100h-204l-78 -100h-218l556 685h304l-129 -450l-189 -235h-71z" />
    <glyph glyph-name="uniE13C" unicode="&#xe13c;" horiz-adv-x="912" 
d="M337 0l115 400l-306 -400h-219l542 685h223l-97 -341l272 341h238l-128 -449l-191 -236h-71l113 392l-313 -392h-178z" />
    <glyph glyph-name="uniE13D" unicode="&#xe13d;" horiz-adv-x="444" 
d="M324 0h-165l70 246l-105 439h201l47 -258l191 258h220l-356 -436l-52 -181z" />
    <glyph glyph-name="uniE13E" unicode="&#xe13e;" horiz-adv-x="395" 
d="M271 0h-144l147 511h-185l49 174h566l-49 -174h-184l-117 -405z" />
    <glyph glyph-name="uniE13F" unicode="&#xe13f;" horiz-adv-x="553" 
d="M298 0h-336l196 685h299q86 0 127.5 -44.5t41.5 -109.5q0 -137 -136 -180q85 -37 88 -126l-122 -194q-67 -31 -158 -31zM382 527h-72l-30 -105h77q31 0 50 18.5t19 46.5q0 40 -44 40zM338 269h-102l-32 -111h105q36 0 57.5 18.5t21.5 49.5q0 43 -50 43z" />
    <glyph glyph-name="uniE140" unicode="&#xe140;" horiz-adv-x="596" 
d="M277 0h-316l196 685h240q153 0 234 -80.5t81 -203.5v-20l-203 -328q-98 -53 -232 -53zM208 174h95q98 0 151 58.5t53 137.5q0 61 -35.5 101t-97.5 40h-69z" />
    <glyph glyph-name="uniE141" unicode="&#xe141;" horiz-adv-x="617" 
d="M455 699q217 0 279 -172l-170 -99q-30 86 -128 86q-80 0 -136.5 -62t-56.5 -141q0 -64 35.5 -103.5t98.5 -39.5q98 0 165 92l83 -72l-110 -166q-79 -37 -171 -37q-135 0 -220 83t-85 212q0 115 58.5 212.5t154 152t203.5 54.5z" />
    <glyph glyph-name="uniE142" unicode="&#xe142;" horiz-adv-x="532" 
d="M418 0h-457l196 685h514l-48 -168h-317l-26 -90h287l-47 -166h-287l-27 -93h316z" />
    <glyph glyph-name="uniE143" unicode="&#xe143;" horiz-adv-x="628" 
d="M515 0h-139l72 250h-218l-72 -250h-197l196 685h197l-74 -261h218l74 261h197l-145 -506z" />
    <glyph glyph-name="uniE144" unicode="&#xe144;" horiz-adv-x="213" 
d="M-39 0l196 685h197l-145 -506l-110 -179h-138z" />
    <glyph glyph-name="uniE145" unicode="&#xe145;" horiz-adv-x="495" 
d="M381 0h-420l196 685h197l-146 -511h281z" />
    <glyph glyph-name="uniE146" unicode="&#xe146;" horiz-adv-x="807" 
d="M308 0l-49 386l-111 -386h-187l196 685h246l40 -351l241 351h264l-145 -506l-109 -179h-125l110 386l-270 -386h-101z" />
    <glyph glyph-name="uniE147" unicode="&#xe147;" horiz-adv-x="636" 
d="M363 0l-107 363l-104 -363h-191l196 685h218l105 -370l106 370h191l-145 -506l-109 -179h-160z" />
    <glyph glyph-name="uniE148" unicode="&#xe148;" horiz-adv-x="511" 
d="M502 169l-105 -169h-457l44 154l366 362h-268l48 169h520l-45 -158l-370 -358h267z" />
    <glyph glyph-name="uniE149" unicode="&#xe149;" horiz-adv-x="627" 
d="M400 259l75 260l-202 -260h127zM325 0l29 100h-204l-78 -100h-137l-30 59l505 626h304l-196 -685h-193z" />
    <glyph glyph-name="uniE14A" unicode="&#xe14a;" horiz-adv-x="370" 
d="M439 0h-478l196 685h197l-146 -511h183q16 -63 65 -114z" />
    <glyph glyph-name="uniE14B" unicode="&#xe14b;" horiz-adv-x="376" 
d="M439 0h-478l196 685h197l-146 -511h185q14 -69 62 -117z" />
    <glyph glyph-name="uniE14C" unicode="&#xe14c;" horiz-adv-x="371" 
d="M439 0h-478l196 685h197l-146 -511h182q19 -69 65 -117z" />
    <glyph glyph-name="uniE14D" unicode="&#xe14d;" horiz-adv-x="370" 
d="M439 0h-478l196 685h197l-146 -511h183q16 -63 65 -114z" />
    <glyph glyph-name="uniE14E" unicode="&#xe14e;" horiz-adv-x="457" 
d="M439 0h-478l196 685h197l-146 -511h228q-4 -54 22 -108z" />
    <glyph glyph-name="uniE14F" unicode="&#xe14f;" horiz-adv-x="425" 
d="M439 0h-478l196 685h197l-146 -511h218q1 -63 34 -102z" />
    <glyph glyph-name="uniE150" unicode="&#xe150;" horiz-adv-x="459" 
d="M327 0h-366l196 685h197l-146 -511h264z" />
    <glyph glyph-name="uniE151" unicode="&#xe151;" horiz-adv-x="469" 
d="M344 0h-383l196 685h197l-146 -511h275z" />
    <glyph glyph-name="uniE154" unicode="&#xe154;" horiz-adv-x="479" 
d="M477 0h-516l196 685h403l47 -168h-301l-26 -90h287l-47 -166h-287l-27 -93h319z" />
    <glyph glyph-name="uniE155" unicode="&#xe155;" horiz-adv-x="467" 
d="M158 0h-197l196 685h391l49 -174h-292l-36 -124h278l-48 -168h-278z" />
    <glyph glyph-name="uniE156" unicode="&#xe156;" horiz-adv-x="550" 
d="M700 442l-127 -442h-197l72 250h-218l-72 -250h-197l196 685h197l-74 -261h218l74 261h58z" />
    <glyph glyph-name="uniE157" unicode="&#xe157;" horiz-adv-x="135" 
d="M215 685l70 -243l-127 -442h-197l196 685h58z" />
    <glyph glyph-name="uniE158" unicode="&#xe158;" horiz-adv-x="729" 
d="M148 0h-187l196 685h246l40 -351l241 351h125l70 -243l-127 -442h-183l110 386l-270 -386h-101l-49 386z" />
    <glyph glyph-name="uniE159" unicode="&#xe159;" horiz-adv-x="558" 
d="M152 0h-191l196 685h223l102 -365l104 365h52l70 -243l-127 -442h-223l-103 358z" />
    <glyph glyph-name="uniE15A" unicode="&#xe15a;" horiz-adv-x="490" 
d="M127 0l147 511h-185l49 174h433l48 -174h-148l-147 -511h-197z" />
    <glyph glyph-name="uniE15B" unicode="&#xe15b;" horiz-adv-x="884" 
d="M685 0l-77 378l-113 -378h-223l-150 685h195l83 -433l133 433h170l98 -432l118 432h45l71 -242l-127 -443h-223z" />
    <glyph glyph-name="uniE15C" unicode="&#xe15c;" horiz-adv-x="557" 
d="M317 0l-194 685h206l123 -501l137 501h48l70 -243l-127 -442h-263z" />
    <glyph glyph-name="uniE15D" unicode="&#xe15d;" horiz-adv-x="491" 
d="M477 0h-516l196 685h414l37 -168h-302l-26 -90h287l-47 -166h-287l-27 -93h319z" />
    <glyph glyph-name="uniE15E" unicode="&#xe15e;" horiz-adv-x="486" 
d="M158 0h-197l196 685h409l39 -174h-300l-36 -124h278l-48 -168h-278z" />
    <glyph glyph-name="uniE15F" unicode="&#xe15f;" horiz-adv-x="566" 
d="M158 0h-197l196 685h197l-74 -261h218l74 261h74l55 -241l-128 -444h-197l72 250h-218z" />
    <glyph glyph-name="uniE160" unicode="&#xe160;" horiz-adv-x="151" 
d="M157 685h74l55 -241l-128 -444h-197z" />
    <glyph glyph-name="uniE161" unicode="&#xe161;" horiz-adv-x="745" 
d="M148 0h-187l196 685h246l40 -351l241 351h141l55 -241l-128 -444h-183l110 386l-270 -386h-101l-49 386z" />
    <glyph glyph-name="uniE162" unicode="&#xe162;" horiz-adv-x="574" 
d="M363 0l-107 363l-104 -363h-191l196 685h218l105 -370l106 370h68l55 -241l-128 -444h-218z" />
    <glyph glyph-name="uniE163" unicode="&#xe163;" horiz-adv-x="455" 
d="M127 0l147 511h-185l49 174h397l39 -174h-103l-147 -511h-197z" />
    <glyph glyph-name="uniE164" unicode="&#xe164;" horiz-adv-x="572" 
d="M317 0l-194 685h206l123 -501l137 501h63l55 -243l-127 -442h-263z" />
    <glyph glyph-name="uniE165" unicode="&#xe165;" horiz-adv-x="902" 
d="M686 0l-77 378l-113 -378h-223l-150 685h195l83 -433l133 433h170l98 -432l118 432h62l55 -239l-128 -446h-223z" />
    <glyph glyph-name="uniE166" unicode="&#xe166;" horiz-adv-x="529" 
d="M477 0h-516l196 685h462l2 -168h-315l-26 -90h287l-47 -166h-287l-27 -93h319z" />
    <glyph glyph-name="uniE167" unicode="&#xe167;" horiz-adv-x="518" 
d="M158 0h-197l196 685h451l2 -174h-305l-36 -124h278l-48 -168h-278z" />
    <glyph glyph-name="uniE168" unicode="&#xe168;" horiz-adv-x="581" 
d="M498 424l74 261h97l9 -322l-105 -363h-197l72 250h-218l-72 -250h-197l196 685h197l-74 -261h218z" />
    <glyph glyph-name="uniE169" unicode="&#xe169;" horiz-adv-x="164" 
d="M158 0h-197l196 685h95l10 -325z" />
    <glyph glyph-name="uniE16A" unicode="&#xe16a;" horiz-adv-x="762" 
d="M148 0h-187l196 685h246l40 -351l241 351h167l6 -325l-105 -360h-183l110 386l-270 -386h-101l-49 386z" />
    <glyph glyph-name="uniE16B" unicode="&#xe16b;" horiz-adv-x="588" 
d="M363 0l-107 363l-104 -363h-191l196 685h218l105 -370l106 370h90l9 -325l-104 -360h-218z" />
    <glyph glyph-name="uniE16C" unicode="&#xe16c;" horiz-adv-x="516" 
d="M324 0h-197l147 511h-185l49 174h468l3 -174h-138z" />
    <glyph glyph-name="uniE16D" unicode="&#xe16d;" horiz-adv-x="546" 
d="M477 0h-516l196 685h478l-10 -168h-319l-26 -90h287l-47 -166h-287l-27 -93h319z" />
    <glyph glyph-name="uniE16E" unicode="&#xe16e;" horiz-adv-x="533" 
d="M158 0h-197l196 685h464l-9 -174h-307l-36 -124h278l-48 -168h-278z" />
    <glyph glyph-name="uniE16F" unicode="&#xe16f;" horiz-adv-x="610" 
d="M158 0h-197l196 685h197l-74 -261h218l74 261h127l-20 -316l-106 -369h-197l72 250h-218z" />
    <glyph glyph-name="uniE170" unicode="&#xe170;" horiz-adv-x="194" 
d="M158 0h-197l196 685h126l-19 -316z" />
    <glyph glyph-name="uniE171" unicode="&#xe171;" horiz-adv-x="789" 
d="M308 0l-49 386l-111 -386h-187l196 685h246l40 -351l241 351h194l-20 -316l-106 -369h-183l110 386l-270 -386h-101z" />
    <glyph glyph-name="uniE172" unicode="&#xe172;" horiz-adv-x="618" 
d="M363 0l-107 363l-104 -363h-191l196 685h218l105 -370l106 370h121l-20 -316l-106 -369h-218z" />
    <glyph glyph-name="uniE173" unicode="&#xe173;" horiz-adv-x="526" 
d="M324 0h-197l147 511h-185l49 174h477l-10 -174h-134z" />
    <glyph glyph-name="uniE174" unicode="&#xe174;" horiz-adv-x="634" 
d="M472 259l75 260l-202 -260h127zM397 0l29 100h-204l-78 -100h-218l556 685h250l30 -84l-143 -500l-92 -101h-130z" />
    <glyph glyph-name="uniE175" unicode="&#xe175;" horiz-adv-x="576" 
d="M344 259l-59 242l-66 -242h125zM408 0l-25 100h-208l-27 -100h-187l196 685h263l160 -563l-113 -122h-59z" />
    <glyph glyph-name="uniE176" unicode="&#xe176;" horiz-adv-x="654" 
d="M429 259l-4 228l-134 -228h138zM435 0l-2 100h-235l-59 -100h-207l420 685h253l24 -596l-83 -89h-111z" />
    <glyph glyph-name="uniE177" unicode="&#xe177;" horiz-adv-x="464" 
d="M354 0h-393l196 685h401l64 -168h-316l-26 -90h287l-47 -166h-287l-27 -93h301z" />
    <glyph glyph-name="uniE178" unicode="&#xe178;" horiz-adv-x="453" 
d="M158 0h-197l196 685h392l66 -174h-310l-36 -124h278l-48 -168h-278z" />
    <glyph glyph-name="uniE179" unicode="&#xe179;" horiz-adv-x="616" 
d="M508 0h-132l72 250h-218l-72 -250h-197l196 685h197l-74 -261h218l74 261h142l31 -86l-143 -498z" />
    <glyph glyph-name="uniE17A" unicode="&#xe17a;" horiz-adv-x="201" 
d="M-39 0l196 685h142l31 -85l-143 -500l-94 -100h-132z" />
    <glyph glyph-name="uniE17B" unicode="&#xe17b;" horiz-adv-x="795" 
d="M145 0h-184l196 685h255l40 -353l241 353h200l31 -86l-143 -498l-94 -101h-121l111 386l-271 -386h-101l-49 386z" />
    <glyph glyph-name="uniE17C" unicode="&#xe17c;" horiz-adv-x="950" 
d="M337 0l115 400l-306 -400h-219l542 685h223l-97 -341l272 341h180l33 -89l-141 -492l-98 -104h-126l113 392l-313 -392h-178z" />
    <glyph glyph-name="uniE17D" unicode="&#xe17d;" horiz-adv-x="622" 
d="M363 0l-107 363l-104 -363h-191l196 685h218l105 -370l106 370h134l32 -89l-141 -492l-97 -104h-151z" />
    <glyph glyph-name="uniE17E" unicode="&#xe17e;" horiz-adv-x="494" 
d="M324 0h-197l147 511h-185l49 174h453l64 -174h-184z" />
    <glyph glyph-name="uniE17F" unicode="&#xe17f;" horiz-adv-x="632" 
d="M472 259l75 260l-202 -260h127zM397 0l29 100h-204l-78 -100h-218l556 685h237l30 -129l-159 -556h-193z" />
    <glyph glyph-name="uniE180" unicode="&#xe180;" horiz-adv-x="497" 
d="M477 0h-516l196 685h424l40 -168h-315l-26 -90h287l-47 -166h-287l-27 -93h319z" />
    <glyph glyph-name="uniE181" unicode="&#xe181;" horiz-adv-x="483" 
d="M158 0h-197l196 685h411l42 -174h-305l-36 -124h278l-48 -168h-278z" />
    <glyph glyph-name="uniE182" unicode="&#xe182;" horiz-adv-x="614" 
d="M573 0h-197l72 250h-218l-72 -250h-197l196 685h197l-74 -261h218l74 261h130l30 -129z" />
    <glyph glyph-name="uniE183" unicode="&#xe183;" horiz-adv-x="199" 
d="M158 0h-197l196 685h128l32 -131z" />
    <glyph glyph-name="uniE184" unicode="&#xe184;" horiz-adv-x="793" 
d="M308 0l-49 386l-111 -386h-187l196 685h246l40 -351l241 351h196l31 -131l-159 -554h-183l110 386l-270 -386h-101z" />
    <glyph glyph-name="uniE185" unicode="&#xe185;" horiz-adv-x="950" 
d="M337 0l115 400l-306 -400h-219l542 685h223l-97 -341l272 341h170l31 -131l-159 -554h-194l113 392l-313 -392h-178z" />
    <glyph glyph-name="uniE186" unicode="&#xe186;" horiz-adv-x="622" 
d="M363 0l-107 363l-104 -363h-191l196 685h218l105 -370l106 370h122l32 -132l-159 -553h-218z" />
    <glyph glyph-name="uniE187" unicode="&#xe187;" horiz-adv-x="526" 
d="M324 0h-197l147 511h-185l49 174h473l42 -174h-182z" />
    <glyph glyph-name="uniE188" unicode="&#xe188;" horiz-adv-x="492" 
d="M181 0h-197l71 249l-50 221l159 204l42 -247l195 258h207l-356 -439z" />
    <glyph glyph-name="uniE189" unicode="&#xe189;" horiz-adv-x="492" 
d="M180 0h-196l71 249l-53 225l162 200l41 -247l195 258h208l-357 -439z" />
    <glyph glyph-name="uniE18A" unicode="&#xe18a;" horiz-adv-x="483" 
d="M453 0h-512l44 154l366 362h-268l48 169h437l38 -158l-370 -358h265z" />
    <glyph glyph-name="uniE18B" unicode="&#xe18b;" horiz-adv-x="1294" 
d="M699 591q62 -78 74 -222q4 -43 11.5 -74t23 -60.5t44 -45t69.5 -15.5q70 0 124.5 58t54.5 141q0 60 -36 101t-98 41q-100 0 -164 -90q-10 114 -69 179q117 96 255 96q137 -1 225 -87.5t88 -217.5q0 -168 -118.5 -288.5t-288.5 -120.5q-165 1 -249 108q-63 79 -75 223
q-4 43 -11.5 74t-23 60.5t-44 45t-69.5 15.5q-70 0 -124.5 -58t-54.5 -141q0 -60 36 -101t98 -41q100 0 164 90q10 -114 69 -179q-117 -96 -255 -96q-137 1 -225 87.5t-88 217.5q0 168 118.5 288.5t288.5 120.5q166 -1 250 -109z" />
    <glyph glyph-name="uniE18C" unicode="&#xe18c;" horiz-adv-x="1251" 
d="M890 -14q-136 -2 -219 80q-49 46 -71.5 104.5t-29.5 146.5q-4 43 -11.5 74t-23 60.5t-44 45t-69.5 15.5q-70 0 -124.5 -58t-54.5 -141q0 -60 36 -101t98 -41q100 0 164 90q10 -114 69 -179q-117 -96 -255 -96q-137 1 -225 87.5t-88 217.5q0 168 118.5 288.5t288.5 120.5
q195 -1 275 -146q18 -31 29 -72t14.5 -65.5t8.5 -73.5q10 -85 40.5 -130t103.5 -45q98 0 165 92l129 -113q-133 -160 -324 -161zM971 515q-102 0 -169 -92q-13 118 -69 181q116 95 265 95q217 0 279 -172l-170 -99q-30 87 -136 87z" />
    <glyph glyph-name="uniE18D" unicode="&#xe18d;" horiz-adv-x="1298" 
d="M901 -16q-145 -2 -230 82q-49 46 -71.5 104.5t-29.5 146.5q-4 43 -11.5 74t-23 60.5t-44 45t-69.5 15.5q-70 0 -124.5 -58t-54.5 -141q0 -60 36 -101t98 -41q100 0 164 90q10 -114 69 -179q-117 -96 -255 -96q-137 1 -225 87.5t-88 217.5q0 168 118.5 288.5t288.5 120.5
q195 -1 275 -146q18 -31 29 -72t14.5 -65.5t8.5 -73.5q10 -88 43 -135t110 -47q47 0 83 20.5t53 54.5h-165l43 158h372q-28 -194 -142.5 -302t-271.5 -108zM986 516q-58 -1 -106.5 -26.5t-77.5 -66.5q-13 118 -69 181q114 94 276 94q99 0 176.5 -41.5t108.5 -119.5
l-176 -104q-30 83 -132 83z" />
    <glyph glyph-name="uniE18E" unicode="&#xe18e;" horiz-adv-x="1294" 
d="M1026 -61l-30 60q-48 -13 -102 -13q-165 1 -249 108q-63 79 -75 223q-4 43 -11.5 74t-23 60.5t-44 45t-69.5 15.5q-70 0 -124.5 -58t-54.5 -141q0 -60 36 -101t98 -41q100 0 164 90q10 -114 69 -179q-117 -96 -255 -96q-137 1 -225 87.5t-88 217.5q0 168 118.5 288.5
t288.5 120.5q166 -1 250 -109q62 -78 74 -222q4 -42 11 -71.5t21 -58.5t40 -45.5t63 -19.5l-50 99l172 36l30 -60q40 57 40 124q0 60 -36 101t-98 41q-100 0 -164 -90q-10 114 -69 179q117 96 255 96q137 -1 225 -87.5t88 -217.5q0 -95 -41 -179t-113 -141l50 -100z" />
    <glyph glyph-name="uniE18F" unicode="&#xe18f;" horiz-adv-x="556" 
d="M204 370h59q53 0 80.5 24.5t27.5 62.5q0 54 -72 54h-54zM321 0l-159 224l-64 -224h-139l-8 174l146 511h269q93 0 151 -55.5t58 -142.5q0 -92 -55 -164.5t-138 -96.5l176 -226h-237z" />
    <glyph glyph-name="uniE190" unicode="&#xe190;" horiz-adv-x="603" 
d="M251 370h59q53 0 80.5 24.5t27.5 62.5q0 54 -72 54h-54zM368 0l-159 224l-64 -224h-92l-77 95l168 590h269q93 0 151 -55.5t58 -142.5q0 -92 -55 -164.5t-138 -96.5l176 -226h-237z" />
    <glyph glyph-name="uniE191" unicode="&#xe191;" 
d="M202 370h59q53 0 80.5 24.5t27.5 62.5q0 54 -72 54h-54zM319 0l-159 224l-64 -224h-197l106 369l160 316h199q93 0 151 -55.5t58 -142.5q0 -92 -55 -164.5t-138 -96.5l176 -226h-237z" />
    <glyph glyph-name="uniE192" unicode="&#xe192;" horiz-adv-x="494" 
d="M142 370h59q53 0 80.5 24.5t27.5 62.5q0 54 -72 54h-54zM259 0l-159 224l-64 -224h-197l120 421l213 264h132q93 0 151 -55.5t58 -142.5q0 -92 -55 -164.5t-138 -96.5l176 -226h-237z" />
    <glyph glyph-name="uniE193" unicode="&#xe193;" horiz-adv-x="481" 
d="M129 370h59q53 0 80.5 24.5t27.5 62.5q0 54 -72 54h-54zM246 0l-159 224l-64 -224h-197l109 380l237 305h119q93 0 151 -55.5t58 -142.5q0 -92 -55 -164.5t-138 -96.5l176 -226h-237z" />
    <glyph glyph-name="uniE194" unicode="&#xe194;" horiz-adv-x="573" 
d="M221 370h59q53 0 80.5 24.5t27.5 62.5q0 54 -72 54h-54zM338 0l-159 224l-64 -224h-138l-36 79l148 517l87 89h207q93 0 151 -55.5t58 -142.5q0 -92 -55 -164.5t-138 -96.5l176 -226h-237z" />
    <glyph glyph-name="uniE195" unicode="&#xe195;" horiz-adv-x="525" 
d="M173 370h59q53 0 80.5 24.5t27.5 62.5q0 54 -72 54h-54zM290 0l-159 224l-64 -224h-197l105 366l193 319h167q93 0 151 -55.5t58 -142.5q0 -92 -55 -164.5t-138 -96.5l176 -226h-237z" />
    <glyph glyph-name="uniE196" unicode="&#xe196;" horiz-adv-x="501" 
d="M149 370h59q53 0 80.5 24.5t27.5 62.5q0 54 -72 54h-54zM266 0l-159 224l-64 -224h-74l-55 236l128 449h269q93 0 151 -55.5t58 -142.5q0 -92 -55 -164.5t-138 -96.5l176 -226h-237z" />
    <glyph glyph-name="uniE197" unicode="&#xe197;" horiz-adv-x="487" 
d="M135 370h59q53 0 80.5 24.5t27.5 62.5q0 54 -72 54h-54zM252 0l-159 224l-64 -224h-58l-71 238l128 447h269q93 0 151 -55.5t58 -142.5q0 -92 -55 -164.5t-138 -96.5l176 -226h-237z" />
    <glyph glyph-name="uniE198" unicode="&#xe198;" horiz-adv-x="556" 
d="M204 370h59q53 0 80.5 24.5t27.5 62.5q0 54 -72 54h-54zM321 0l-159 224l-64 -224h-132l-37 96l144 501l79 88h214q93 0 151 -55.5t58 -142.5q0 -92 -55 -164.5t-138 -96.5l176 -226h-237z" />
    <glyph glyph-name="uniE199" unicode="&#xe199;" horiz-adv-x="551" 
d="M199 370h59q53 0 80.5 24.5t27.5 62.5q0 54 -72 54h-54zM316 0l-159 224l-64 -224h-197l157 548l111 137h197q93 0 151 -55.5t58 -142.5q0 -92 -55 -164.5t-138 -96.5l176 -226h-237z" />
    <glyph glyph-name="uniE19A" unicode="&#xe19a;" horiz-adv-x="1296" 
d="M358 -15q-139 0 -228 87t-89 219q0 105 53.5 199t148 152t205.5 58q139 0 228 -87t89 -219q0 -105 -53.5 -199t-148 -152t-205.5 -58zM376 171q74 0 130.5 60t56.5 141q0 60 -36 101t-98 41q-72 0 -129.5 -61t-57.5 -140q0 -60 36 -101t98 -41zM1028 -61l-30 59
q-52 -13 -101 -13q-153 0 -235 94q76 70 115 182q18 -43 54 -66.5t80 -23.5l-51 102l172 36l29 -59q41 54 41 122q0 60 -36.5 101.5t-98.5 41.5q-46 0 -92 -26t-74 -65q-14 115 -70 178q114 96 260 98q137 -1 225 -88t88 -218q0 -91 -41.5 -175.5t-113.5 -142.5l50 -101z
" />
    <glyph glyph-name="uniE19B" unicode="&#xe19b;" horiz-adv-x="569" 
d="M306 0l-107 363l-104 -363h-133l-8 175l146 510h218l105 -370l106 370h121l33 -132l-159 -553h-218z" />
    <glyph glyph-name="uniE19C" unicode="&#xe19c;" horiz-adv-x="579" 
d="M306 0l-107 363l-104 -363h-133l-8 175l146 510h218l105 -370l106 370h191l-145 -506l-110 -179h-159z" />
    <glyph glyph-name="uniE19D" unicode="&#xe19d;" horiz-adv-x="1246" 
d="M358 -15q-139 0 -228 87t-89 219q0 105 53.5 199t148 152t205.5 58q139 0 228 -87t89 -219q0 -105 -53.5 -199t-148 -152t-205.5 -58zM970 515q-47 0 -94.5 -26t-74.5 -65q-14 115 -70 178q114 96 260 98q219 0 281 -173l-170 -99q-29 87 -132 87zM376 171q74 0 130.5 60
t56.5 141q0 60 -36 101t-98 41q-72 0 -129.5 -61t-57.5 -140q0 -60 36 -101t98 -41zM889 -15q-144 0 -227 94q75 71 114 180q38 -91 139 -91q98 0 165 92l129 -113q-133 -162 -320 -162z" />
    <glyph glyph-name="uniE19E" unicode="&#xe19e;" horiz-adv-x="1285" 
d="M358 -15q-139 0 -228 87t-89 219q0 105 53.5 199t148 152t205.5 58q139 0 228 -87t89 -219q0 -105 -53.5 -199t-148 -152t-205.5 -58zM991 700q100 1 179 -41.5t111 -121.5l-176 -104q-30 82 -138 82q-46 0 -92 -26t-74 -65q-14 115 -70 178q116 98 260 98zM376 171
q74 0 130.5 60t56.5 141q0 60 -36 101t-98 41q-72 0 -129.5 -61t-57.5 -140q0 -60 36 -101t98 -41zM893 -15q-150 0 -231 94q75 69 112 175q18 -44 56.5 -68t85.5 -24t83 20.5t53 54.5h-165l43 158h372q-28 -193 -141 -301t-268 -109z" />
    <glyph glyph-name="uniE19F" unicode="&#xe19f;" horiz-adv-x="1296" 
d="M358 -15q-139 0 -228 87t-89 219q0 105 53.5 199t148 152t205.5 58q139 0 228 -87t89 -219q0 -105 -53.5 -199t-148 -152t-205.5 -58zM376 171q74 0 130.5 60t56.5 141q0 60 -36 101t-98 41q-72 0 -129.5 -61t-57.5 -140q0 -60 36 -101t98 -41zM897 -15q-153 0 -235 94
q76 70 115 182q38 -90 138 -90q74 0 130.5 60t56.5 141q0 60 -36.5 101.5t-98.5 41.5q-46 0 -92 -26t-74 -65q-14 115 -70 178q114 96 260 98q137 -1 225 -88t88 -218q0 -105 -53.5 -199t-148 -152t-205.5 -58z" />
    <glyph glyph-name="uniE1A0" unicode="&#xe1a0;" horiz-adv-x="790" 
d="M135 0h-82l-77 95l168 590h246l40 -351l241 351h264l-144 -506l-110 -179h-125l110 386l-270 -386h-101l-49 386z" />
    <glyph glyph-name="uniE1A1" unicode="&#xe1a1;" horiz-adv-x="886" 
d="M554 0l-77 378l-113 -378h-223l-116 528l154 157h7l83 -433l133 433h170l98 -432l118 432h185l-196 -685h-223z" />
    <glyph glyph-name="uniF8FF" unicode="&#xf8ff;" horiz-adv-x="1105" 
d="M809 168v15h45v-182h-45v12q-24 -16 -53 -16q-39 0 -66.5 28t-27.5 66q0 39 27.5 66t66.5 27q31 0 53 -16zM758 40q21 0 36 15t15 36t-15 36.5t-36 15.5q-22 0 -37 -15.5t-15 -36.5t15 -36t37 -15zM118 168v15h44v-182h-44v12q-24 -16 -54 -16q-39 0 -66.5 28t-27.5 66
q0 39 27.5 66t66.5 27q31 0 54 -16zM13 91q0 -21 15.5 -36t36.5 -15q22 0 37.5 15t15.5 36t-15.5 36.5t-37.5 15.5q-21 0 -36.5 -15.5t-15.5 -36.5zM988 108q47 -11 47 -49q0 -62 -82 -62q-37 0 -58.5 17t-23.5 45h47q0 -11 9 -19.5t29 -9.5q14 0 22 7t8 14q0 2 -1 4
t-1.5 3.5t-2.5 2.5t-3.5 2t-4 2t-4 1.5t-5 1t-5.5 1t-5.5 1t-5.5 0.5q-30 5 -48 13q-25 12 -25 43q0 25 20.5 41.5t54.5 16.5t54.5 -16t22.5 -43h-45q-1 9 -9 17t-22 8q-30 0 -30 -16q0 -9 9 -13t29.5 -7.5t28.5 -5.5zM878 244h-210l-219 380l157 91zM392 1v182h45v-182h-45
zM603 168v76h44v-243h-44v12q-24 -16 -54 -16q-39 0 -66.5 28t-27.5 66q0 39 27.5 66t66.5 27q31 0 54 -16zM550 40q22 0 37.5 15t15.5 36t-15.5 36.5t-37.5 15.5q-21 0 -36.5 -15.5t-15.5 -36.5t15.5 -36t36.5 -15zM268 459l158 90l177 -305h-166v-45h-45v45zM85 297
l157 91l83 -144h-210zM325 168v76h45v-243h-45v12q-26 -16 -53 -16q-39 0 -67 28t-28 66q0 39 28 66t67 27q30 0 53 -16zM273 40q21 0 36.5 15t15.5 36t-15.5 36.5t-36.5 15.5q-22 0 -37.5 -15.5t-15.5 -36.5t15.5 -36t37.5 -15z" />
    <glyph glyph-name="uni00200326" horiz-adv-x="385" 
d="M162 -130l-75 -101h-115l57 69h-37l36 128h161z" />
    <glyph glyph-name="parenleft.cap" horiz-adv-x="372" 
d="M302 713l127 -84q-140 -141 -190 -314q-24 -87 -24 -158q0 -89 36 -160l-150 -86q-64 107 -64 247q0 74 20 157q29 112 95 218.5t150 179.5z" />
    <glyph glyph-name="parenright.cap" horiz-adv-x="372" 
d="M101 -89l-127 84q140 141 190 314q24 87 24 158q0 89 -36 160l150 86q64 -107 64 -247q0 -74 -20 -157q-29 -112 -95 -218.5t-150 -179.5z" />
    <glyph glyph-name="bracketleft.cap" horiz-adv-x="359" 
d="M399 527h-116l-122 -425h116l-46 -162h-294l213 745h294z" />
    <glyph glyph-name="bracketright.cap" horiz-adv-x="359" 
d="M-9 98h116l122 425h-116l46 162h294l-213 -745h-294z" />
    <glyph glyph-name="braceleft.cap" horiz-adv-x="380" 
d="M333 445q0 -102 -97 -132q44 -26 44 -63q0 -33 -28.5 -79.5t-28.5 -56.5q0 -26 31 -26h41l-42 -147h-98q-60 0 -91 25t-31 69q0 35 16.5 65.5t32.5 56t16 49.5q0 43 -72 43h-3l38 130h3q113 0 113 80q0 7 -3.5 27.5t-3.5 42.5q0 57 50 107t136 50h111l-42 -147h-52
q-19 0 -30.5 -14t-11.5 -32q0 -6 1 -22t1 -26z" />
    <glyph glyph-name="braceright.cap" horiz-adv-x="380" 
d="M79 182q0 102 97 132q-44 26 -44 63q0 33 28.5 79.5t28.5 56.5q0 26 -31 26h-41l42 147h98q60 0 91 -25t31 -69t-32.5 -94t-32.5 -77q0 -43 72 -43h3l-38 -130h-3q-113 0 -113 -80q0 -7 3.5 -27.5t3.5 -42.5q0 -57 -50 -107t-136 -50h-111l42 147h52q19 0 30.5 14
t11.5 32q0 6 -1 22t-1 26z" />
    <glyph glyph-name="at.cap" horiz-adv-x="763" 
d="M376 -18q-155 0 -252 87.5t-97 225.5q0 107 56 201t153 150.5t211 56.5q139 0 229 -79.5t90 -203.5q0 -110 -59.5 -186t-156.5 -76q-76 0 -111 43q-49 -42 -111 -42q-63 0 -102.5 43t-39.5 106q0 85 62 148t140 63q32 0 57.5 -13.5t37.5 -33.5l9 35h128l-66 -231
q-7 -26 23 -26q38 0 65.5 45t27.5 117q0 89 -65 145t-168 56q-135 0 -223 -95t-88 -219q0 -103 71.5 -165t187.5 -62q70 0 144 25l17 -83q-73 -32 -170 -32zM367 266q31 0 54.5 25t23.5 54q0 24 -16 41t-42 17q-31 0 -54 -23.5t-23 -55.5q0 -24 16.5 -41t40.5 -17z" />
    </font>
</defs>
</svg>
