<svg xmlns="http://www.w3.org/2000/svg" width="32" height="32"><path d="M0 11.776h7.488v1.568H0zm1.504 2.528h5.984v1.472H1.504zm5.984 4h-4.48V16.8h4.48zm2.688-8.512h-.003a1.15 1.15 0 0 0-.829.352 1.117 1.117 0 0 0-.352.799v8.705c0 .654.53 1.184 1.184 1.184h1.056v.224c0 .695.295 1.32.767 1.759l.002.001a2.495 2.495 0 0 0 4.256-1.77v-.023.001-.192h7.008v.192l-.001.062c0 .679.282 1.293.736 1.73l.001.001a2.496 2.496 0 0 0 4.256-1.77v-.023.001-.192h2.609c.321 0 .611-.135.815-.352v-.001a1.15 1.15 0 0 0 .321-.797l-.001-.036v.002-2.848l-7.008-7.008z"/></svg>