<svg xmlns="http://www.w3.org/2000/svg" width="32" height="32"><path d="M28.96 7.488C21.44 7.488 19.872 2.56 16 0c-3.904 2.56-5.536 7.456-12.992 7.456l-.16.001c-1.004 0-1.992-.07-2.959-.205l.112.013c1.472 11.648 7.264 24.736 16 24.736s14.464-13.088 16-24.736c-.912.141-1.966.222-3.038.224h-.002zM16 30.56c-7.168 0-12.544-10.88-14.304-21.696h1.312c5.824 0 8.544-2.752 10.944-5.152.642-.67 1.31-1.298 2.01-1.888L16 1.792a25.31 25.31 0 0 1 2.032 1.967l.015.017c2.304 2.432 5.024 5.184 10.912 5.184h1.312c-1.824 10.752-7.232 21.6-14.272 21.6zm5.568-18.72a.735.735 0 0 1 .19 1.027l.002-.002-5.888 8.64a.739.739 0 0 1-.541.32h-.003a.737.737 0 0 1-.512-.224l-4.384-4.352a.745.745 0 0 1 .528-1.275c.206 0 .393.084.528.219l3.744 3.744 5.408-7.904a.736.736 0 0 1 .932-.19l-.004-.002z"/></svg>