<svg xmlns="http://www.w3.org/2000/svg" width="59" height="32"><path d="M58.496 24.928a11.75 11.75 0 0 0-1.403-2.988l.027.044a15.074 15.074 0 0 0-.373-4.487l.02.102a19.522 19.522 0 0 0-.977-2.946l.049.13a7.127 7.127 0 0 1-.604-2.041l-.004-.039a5.315 5.315 0 0 1 .3-2.085l-.012.037a6.752 6.752 0 0 0 .318-1.574l.002-.026a2.946 2.946 0 0 0-1.836-3.097l-.02-.007a3.26 3.26 0 0 0-3.576 1.427l-.008.014a14.45 14.45 0 0 1-2.895 2.624l-.049.032a4.782 4.782 0 0 1-2.428.654 4.81 4.81 0 0 1-2.396-.635l.024.012c-1.888-.768-2.976-2.08-2.24-5.984a4.383 4.383 0 0 0-.007-2.046l.006.03a2.922 2.922 0 0 0-1.08-1.594l-.008-.006a2.633 2.633 0 0 0-1.565-.51c-.678 0-1.297.254-1.766.672l.003-.002-.864.704c-1.728 1.504-5.76 5.024-8 6.784A54.308 54.308 0 0 1 18.278 14l-.296.143c-2.065 1.018-4.464 1.751-6.992 2.069l-.112.011c-.928.16-1.952.224-2.944.32a25.896 25.896 0 0 0-4.843.608l.171-.032a4.008 4.008 0 0 0-3.261 3.338l-.003.022A4.687 4.687 0 0 0 .617 23.7l-.012-.021a11.623 11.623 0 0 0 3.85 3.683l.054.029c5.056 3.424 12.768 4.192 19.648 4.512h8.736c6.144 0 13.344 0 15.648-.224 4.192-.256 7.072-.704 8.512-1.984a4.698 4.698 0 0 0 1.432-4.801l.008.033zm-37.92-9.28l.928-.512 1.728-1.056c.96-.608 1.952-1.248 2.944-1.984l.48-.416 1.92-1.44 2.208-1.792c2.144-1.824 4.672-3.968 5.92-5.056l.768-.736a.542.542 0 0 1 .705.001l-.001-.001a3.113 3.113 0 0 1-.002.784l.002-.016c-.241.872-.38 1.874-.38 2.908 0 .589.045 1.167.132 1.731L37.92 8a3.36 3.36 0 0 0-.847-.222l-.017-.002a4.992 4.992 0 0 0-2.996.78l.02-.012-1.76 1.088-2.304 1.472-1.664 1.088-1.28.832-1.184.736-1.728 1.088-2.656 1.6-.608.352a1.104 1.104 0 0 1-.904.126l.008.002a1.388 1.388 0 0 1-.541-.631l-.003-.009zm34.88 12.16c-2.031.871-4.394 1.377-6.875 1.377l-.173-.001h.009c-1.856 0-7.488.192-12.896.192l-.352-.512-.672.512H24.353a45.89 45.89 0 0 1-16.95-3.278l.31.11a40.553 40.553 0 0 1-3.883-2.573l.107.077a6.347 6.347 0 0 1-1.265-1.416l-.015-.024a1.935 1.935 0 0 1-.254-1.356l-.002.012c0-.512.32-1.024 1.344-1.28a23.312 23.312 0 0 1 4.217-.511l.039-.001c1.088 0 2.176-.16 3.168-.32a25.744 25.744 0 0 0 7.391-2.146l-.159.066c.253.557.676 1 1.201 1.273l.015.007c.216.1.469.158.735.16h.001a2.45 2.45 0 0 0 1.29-.39l-.01.006.768-.48 2.656-1.664 1.6-.96 1.088-.704 1.6-.96 1.408-.928 2.656-1.632 1.248-.896a3.739 3.739 0 0 1 2.317-.576l-.013-.001a3.763 3.763 0 0 1 1.578.679l-.01-.007a6.21 6.21 0 0 0 3.285 2.834l.043.014c.986.559 2.167.889 3.424.889s2.437-.33 3.459-.907l-.035.018a16.993 16.993 0 0 0 3.531-3.174l.021-.026c.16-.256.672-.8.928-.704s.224 0 .192.512a4.931 4.931 0 0 1-.201 1.027l.009-.035a7.829 7.829 0 0 0-.383 2.9l-.001-.019a9.526 9.526 0 0 0 .825 2.939l-.025-.059c.286.666.56 1.476.774 2.311l.026.121c.199.821.313 1.764.313 2.733 0 .412-.021.82-.061 1.222l.004-.051.384 1.216a9.395 9.395 0 0 1 1.068 2.141l.02.067a2.014 2.014 0 0 1-.668 2.173l-.004.003zm-13.728-5.344h-.896l-9.024-9.12 2.688-1.664 10.112 10.656c-.992.032-1.952.128-2.88.256zm-2.976.416l-3.744.48-7.2-7.36.736-.448 1.856-1.216zM26.24 16.896l6.496 6.848Q30.784 24 28.832 24l-5.216-5.344zm11.104 10.528l.64 1.248-1.088.672-.704-1.248zm2.272-1.28l.608 1.28-1.12.608-.576-1.376zm9.568-4.064l.384 1.344-1.184.416L48 22.496zm2.592-.736l.288 1.376-1.216.32-.352-1.376zm2.656-.448v1.408c-.452.03-.869.087-1.276.17l.06-.01-.192-1.44c.411-.058.888-.093 1.372-.096h.004zm-12.416 4.096l.544 1.312-1.152.544-.544-1.28zm4.8-2.048l.448 1.344-1.184.448-.48-1.312zm-2.4.96l.48 1.312-1.152.512-.544-1.312z"/></svg>