<svg xmlns="http://www.w3.org/2000/svg" width="32" height="32"><path d="M26.016-.032H5.984c-3.296 0-6.016 2.688-6.016 6.016v20.032c0 3.328 2.72 6.016 6.016 6.016h20.032a6.009 6.009 0 0 0 6.016-6.016V5.984a6.009 6.009 0 0 0-6.016-6.016zM21.408 16c0 2.976-2.432 5.408-5.408 5.408S10.592 18.976 10.592 16c0-2.976 2.432-5.408 5.408-5.408s5.408 2.432 5.408 5.408zM22.4 4.192h4.544V9.6H22.4V4.192zM26.016 28.8H5.984A2.786 2.786 0 0 1 3.2 26.016V12.8h4.608c-.416.992-.608 2.08-.608 3.2 0 4.864 3.936 8.8 8.8 8.8s8.8-3.936 8.8-8.8a8.87 8.87 0 0 0-.576-3.2H28.8v13.216a2.786 2.786 0 0 1-2.784 2.784z"/></svg>