<svg xmlns="http://www.w3.org/2000/svg" width="32" height="32"><path d="M16.8 0c-4.32 0-7.616 1.568-9.824 3.776S3.68 8.832 3.68 11.488c0 1.6.288 3.072.928 4.288s1.568 2.208 2.816 2.72c.128.032.224.064.32.064.16 0 .352-.096.48-.224a.619.619 0 0 0 .16-.288c0-.128.096-.48.192-.736.032-.128.064-.256.096-.416s.064-.256.064-.32c.032-.128.064-.224.064-.32 0-.16-.032-.288-.096-.448-.032-.096-.096-.16-.192-.256-.416-.48-.704-.96-.928-1.568s-.32-1.216-.32-2.048c0-2.336.832-4.544 2.432-6.144s3.872-2.656 6.624-2.656c2.496 0 4.384.736 5.664 1.984s1.952 3.072 1.952 5.056c0 2.656-.544 5.12-1.6 6.88s-2.464 2.88-4.224 2.88c-.896 0-1.792-.416-2.336-1.024s-.768-1.568-.512-2.464c.128-.608.256-1.184.448-1.792.384-1.216.736-2.336.992-3.392.096-.512.16-.992.16-1.376 0-.768-.192-1.44-.608-1.952s-1.024-.8-1.888-.8c-.992 0-1.824.512-2.496 1.376s-1.056 2.016-1.056 3.36c0 .896.16 1.632.32 2.112.096.256.16.448.224.608l.064.224-.32 1.344-.768 3.104c-.48 2.048-.736 3.168-.768 3.36s-.192.896-.512 2.176c-.32 1.504-.384 3.2-.32 4.48.032.672.096 1.216.16 1.696s.096.736.096.832.096.192.192.192.16-.032.256-.128c.032-.032.192-.256.48-.576a28.454 28.454 0 0 0 1.984-3.264c.352-.672.64-1.408.832-2.144.032-.224.128-.608.288-1.152s.288-1.088.448-1.664.288-1.12.416-1.568l.192-.704c.32.672.928 1.216 1.696 1.632s1.792.704 2.784.704c2.912 0 5.44-1.376 7.168-3.616s2.72-5.376 2.72-9.024c0-2.656-1.12-5.312-3.168-7.264S20.32 0 16.8 0z"/></svg>