<?xml version="1.0" standalone="no"?>
<!DOCTYPE svg PUBLIC "-//W3C//DTD SVG 1.1//EN" "http://www.w3.org/Graphics/SVG/1.1/DTD/svg11.dtd" >
<svg xmlns="http://www.w3.org/2000/svg">
<metadata>Generated by IcoMoon</metadata>
<defs>
<font id="icomoon" horiz-adv-x="512">
<font-face units-per-em="512" ascent="480" descent="-32" />
<missing-glyph horiz-adv-x="512" />
<glyph unicode="&#x20;" horiz-adv-x="256" d="" />
<glyph unicode="&#xe600;" glyph-name="svg" d="M256 480c-141.385 0-256-114.615-256-255.99s114.615-256.010 256-256.010 256 114.635 256 256.010-114.613 255.99-256 255.99zM216.231 56.478l-55.42 55.016 112.665 113.445-112.665 113.469 55.42 55.036 167.328-168.505-167.328-168.461z" />
<glyph unicode="&#xe601;" glyph-name="svg2" d="M255.965 480c-141.362 0-255.965-114.632-255.965-256.021 0-141.375 114.604-255.979 255.965-255.979 141.376 0 255.98 114.604 255.98 255.98 0 141.389-114.604 256.021-255.98 256.021zM284.844 54.029h-60.594v60.594h60.594v-60.594zM347.021 217.066c-15.755-18.012-36.012-29.76-62.177-35.227v-45.183h-60.594v90.546c26.166 0 48.419 3.774 64.505 11.334s24.044 22.599 24.044 45.114c0 14.804-4.779 26.785-14.267 35.957-9.488 9.158-21.827 13.441-36.935 13.441-27.019 0-44.096-13.234-51.16-39.399h-58.39c4.173 28.919 15.919 50.885 35.227 68.099s44.55 25.987 75.756 25.987c21.552 0 40.446-4.517 56.696-13.689 16.236-9.171 28.782-21.594 37.637-37.348 8.841-15.768 13.289-33.12 13.289-52.082 0-27.033-7.849-49.535-23.632-67.548z" />
<glyph unicode="&#xe602;" glyph-name="svg3" d="M255.986 480c-141.379 0-255.986-114.621-255.986-256.014s114.607-255.986 255.986-255.986c141.365 0 255.972 114.594 255.972 255.986s-114.607 256.014-255.972 256.014zM285.306 54.169h-60.595v246.512h60.595v-246.512zM285.306 324.092h-60.595v60.595h60.595v-60.595z" />
<glyph unicode="&#xe603;" glyph-name="svg4" d="M255.965 480c-141.362 0-255.965-114.632-255.965-256.021 0-141.375 114.604-255.979 255.965-255.979 141.376 0 255.965 114.604 255.965 255.98 0 141.389-114.591 256.021-255.965 256.021zM286 54.166h-60.594v60.594h60.594v-60.594zM286 136.794h-60.594v247.882h60.594v-247.882z" />
<glyph unicode="&#xe604;" glyph-name="svg5" d="M255.968 480c-141.367 0-255.968-114.626-255.968-256.012 0-141.383 114.602-255.987 255.968-255.987 141.368 0 255.97 114.603 255.97 255.986 0 141.385-114.601 256.012-255.97 256.012zM255.496 107.029c-57.27 48.849-117.268 104.466-117.268 149.253 0 35.276 28.691 64.174 64.088 64.174 22.148 0 41.669-11.434 53.181-28.423 11.51 16.989 31.032 28.337 53.181 28.337 35.397 0 64.085-28.813 64.085-64.089-0.002-54.273-59.997-100.401-117.267-149.252z" />
<glyph unicode="&#xe605;" glyph-name="svg6" d="M255.97 480c-141.368 0-255.97-114.626-255.97-256.012 0-141.383 114.603-255.987 255.97-255.987s255.97 114.603 255.97 255.986c-0.002 141.386-114.604 256.012-255.97 256.012zM238.095 132.123l-0.5 0.51-25.046-25.626-95.693 105.806 27.7 28.337 69.975-77.37 173.859 177.947 27.25-27.884-177.546-181.719z" />
<glyph unicode="&#xe606;" glyph-name="svg7" d="M255.968 480c-141.365 0-255.968-114.627-255.968-256.012 0-141.384 114.602-255.988 255.968-255.988 141.369 0 255.969 114.603 255.969 255.988 0.002 141.386-114.6 256.012-255.969 256.012zM372.836 140.712l-33.654-33.712-72.88 73.012-73.034-72.911-33.712 33.654 73.096 72.964-72.935 73.072 33.631 33.712 73.011-73.135 72.989 72.855 33.712-33.631-73.051-72.927 72.829-72.955z" />
<glyph unicode="&#xe607;" glyph-name="svg8" horiz-adv-x="514" d="M375.649 341.489v69.631l-33.866 65.021h-181.252l-37.251-65.021v-69.629h-89.406v-38.202l333.918-333.783h42.129l70.441 70.441v301.543h-104.712zM335.824 341.489h-171.77l0.677 56.626 20.322 39.014h131.265l19.507-39.014c0 0 0-56.626 0-56.626zM231.381-30.495h-40.91l-156.597 156.595v40.91zM321.464-30.495h-43.755l-243.835 243.835v43.62zM144.141-30.495h-39.691l-70.576 70.441v39.826z" />
<glyph unicode="&#xe608;" glyph-name="svg9" horiz-adv-x="514" d="M257.151 460.827l75.793-166.746 179.946-9.474-145.839-117.484 41.686-179.952-151.587 104.158-154.75-104.158 46.739 179.952-147.798 117.484 185.696 9.474z" />
<glyph unicode="&#xe609;" glyph-name="svg10" horiz-adv-x="514" d="M470.075 353.044l-23.641-23.641-101.296 101.296 23.641 23.641c9.313 9.361 24.452 9.361 33.765 0l67.531-67.531c9.361-9.313 9.361-24.452 0-33.766zM328.231 413.842l-287.031-287.079-38.829-140.125 140.125 38.829 287.079 287.031-101.344 101.344zM108.73 113.295l-16.86 16.86 233.017 233.014 16.86-16.86-233.017-233.014zM511.865 275.245v-42.982h-118.346l42.982 42.982zM511.865 194.055v-42.984h-199.538l42.984 42.984zM511.865 112.863v-42.982h-280.728l42.982 42.982z" />
<glyph unicode="&#xe60a;" glyph-name="svg11" horiz-adv-x="514" d="M490.961 165.228l-35.3 0.019c0.426-2.507 0.689-5.078 0.689-7.718 0-24.067-18.604-43.603-41.565-43.603-22.954 0-41.575 19.536-41.575 43.603 0 2.654 0.262 5.241 0.696 7.767l-112.286 0.065c0.441-2.544 0.706-5.155 0.706-7.834 0-24.067-18.607-43.603-41.565-43.603-22.954 0-41.575 19.536-41.575 43.603 0 2.693 0.268 5.319 0.713 7.88l-22.036 0.012c-8.775 0-15.889 6.983-15.889 16.183v132.583c0.002 9.192 7.116 19.89 15.889 19.89h257.976l95.995-115.909v-34.187c0.002-9.204-12.098-18.751-20.87-18.751zM23.881 268.632h92.612v-22.148h-92.612v22.148zM2.404 305.938h114.090v-22.202h-114.090v22.202zM116.494 209.315h-71.291v22.193h71.291v-22.193z" />
<glyph unicode="&#xe60b;" glyph-name="svg12" d="M256-32c-141.385 0-256 114.615-256 256s114.615 256 256 256 256-114.614 256-256c-0.002-141.384-114.617-256-256-256zM391.283 220.188l-66.443 76.299h-178.561c-6.072 0-10.999-7.038-10.999-13.089v-87.267c0-6.058 4.924-10.654 10.999-10.654l15.285-0.009c-0.31-1.687-0.525-3.41-0.525-5.185 0-15.839 12.891-28.697 28.776-28.697 15.893 0 28.77 12.858 28.77 28.697 0 1.765-0.215 3.476-0.521 5.154l77.787-0.043c-0.302-1.665-0.517-3.36-0.517-5.112 0-15.839 12.888-28.697 28.776-28.697 15.892 0 28.771 12.858 28.771 28.697 0 1.74-0.216 3.425-0.514 5.080l24.469-0.014c6.071 0 14.445 6.279 14.445 12.341l0.002 22.497z" />
<glyph unicode="&#xe60c;" glyph-name="svg13" horiz-adv-x="514" d="M514.11 166.919v-198.548h-0.123v-0.371h-198.546v72.966h74.206l-104.112 104.238 51.62 51.623 103.99-104.115v74.209zM228.7 145.203l-104.112-104.238h74.206v-72.965h-198.546v0.371h-0.123v198.548h72.966v-74.209l103.987 104.115zM124.713 407.034l104.112-103.99-51.623-51.745-104.237 104.237v-74.206h-72.966v198.545h0.373v0.123h198.546v-72.966zM514.236 479.877v-198.546h-72.967v74.206l-104.235-104.238-51.623 51.745 104.112 103.99h-74.331v72.965l198.671-0.123z" />
<glyph unicode="&#xe60d;" glyph-name="svg14" horiz-adv-x="514" d="M484.423-31.728v0 0zM115.053 251.536v73.1h284.131v-73.1l72.987 66.902-215.053 161.289-215.039-161.289 72.975-66.902zM257.118 91.372l-227.305 208.372v-316.899l60.969 80.007 12.76-12.327-62.663-82.252h432.461l-62.663 82.254 12.793 12.305 60.95-79.99v316.901l-227.303-208.371z" />
<glyph unicode="&#xe60e;" glyph-name="svg15" horiz-adv-x="514" d="M145.774 436.531c29.015 25.862 66.972 38.805 113.882 38.805 32.39 0 60.805-6.889 85.229-20.671 24.411-13.781 43.271-32.527 56.577-56.214 13.294-23.701 19.948-49.811 19.948-78.339 0-40.618-11.856-74.474-35.543-101.551-23.699-27.088-54.889-44.733-93.571-52.95v-67.459h-91.395v135.642c40.619 0 73.013 5.678 97.196 17.046 24.175 11.358 36.271 33.968 36.271 67.822 0 22.236-7.14 40.257-21.401 54.038-14.271 13.781-32.766 20.673-55.491 20.673-40.618 0-66.257-19.584-76.887-58.755h-87.766c6.278 42.072 23.937 76.036 52.95 101.913zM200.901-27.337v91.394h91.394v-91.394h-91.394z" />
<glyph unicode="&#xe60f;" glyph-name="svg16" horiz-adv-x="514" d="M210.029 387.315v92.685h94.175v-92.685h-94.175zM210.029-32v381.944h94.175v-381.944h-94.175z" />
<glyph unicode="&#xe610;" glyph-name="svg17" horiz-adv-x="514" d="M511.827 224.71c0 68.326-65.084 123.72-145.365 123.72-26.209 0-50.789-5.902-72.028-16.228-18.789 50.51-75.577 87.214-142.708 87.214-82.466 0-149.317-55.397-149.317-123.723 0-39.277 22.090-74.283 56.536-96.943-4.163-33.293-12.095-70.4-26.861-103.358 42.534 24.747 80.852 53.029 110.303 76.829 3.090-0.166 6.208-0.25 9.339-0.25 27.558 0 53.379 6.179 75.536 16.981 18.012-50.9 73.517-87.966 139.2-87.966 4.329 0 8.602 0.166 12.832 0.486 28.755-22.923 65.194-49.481 105.418-72.89-14.309 31.93-22.186 67.728-26.459 100.2 32.696 22.675 53.574 57.235 53.574 95.929zM224.952 245.74h-151.712v20.878h151.712v-20.878zM224.952 280.536h-151.712v20.878h151.712v-20.878zM224.952 316.726h-151.712v20.878h151.712v-20.878zM440.69 176.147h-151.712v20.878h151.712v-20.878zM440.69 210.944h-151.712v20.878h151.712v-20.878zM440.69 247.132h-151.712v20.878h151.712v-20.878z" />
<glyph unicode="&#xe611;" glyph-name="svg18" horiz-adv-x="514" d="M376.984-15.065l51.478-17.192c17.156-5.729 35.271-1.115 47.595 10.45 5.55 5.215 9.932 11.832 12.512 19.563l23.686 70.942c8.311 24.882-5.128 51.791-30.012 60.099l-70.942 23.692c-24.884 8.308-51.788-5.123-60.104-30.007l-4.009-12.001c-26.832 15.694-66.259 38.603-116.853 89.197-48.416 48.414-69.453 85.971-85.147 112.801l12.001 4.009c24.884 8.315 38.316 35.22 30.007 60.104l-23.689 70.94c-8.309 24.884-35.218 38.325-60.1 30.012l-70.942-23.687c-7.727-2.582-14.345-6.962-19.56-12.514-11.568-12.321-16.175-30.436-10.45-47.592l17.192-51.481c17.481-60.707 95.905-164.92 143.006-212.024 47.103-47.103 153.62-127.828 214.328-145.309z" />
<glyph unicode="&#xe612;" glyph-name="svg19" horiz-adv-x="514" d="M513.433 378.176l-305.098-313.096-0.839 0.86-43.059-44.179-164.438 182.336 47.597 48.847 120.235-133.334 298.774 306.625 46.827-48.060z" />
<glyph unicode="&#xe613;" glyph-name="svg20" horiz-adv-x="514" d="M256.005-8.2c-125.024 106.271-256.005 227.32-256.005 324.75 0 76.755 62.633 139.651 139.906 139.651 48.356 0 90.969-24.853 116.099-61.877 25.127 37.025 67.748 61.682 116.096 61.682 77.272 0 139.904-62.698 139.904-139.453 0-118.091-130.978-218.481-256-324.752z" />
<glyph unicode="&#xe614;" glyph-name="svg21" horiz-adv-x="514" d="M501.481 16.031h-220.351c-6.846 0-12.418 5.546-12.418 12.425v391.088c0 6.861 5.572 12.425 12.418 12.425h220.351c6.868 0 12.423-5.565 12.423-12.425v-391.091c-0.003-6.877-5.558-12.423-12.423-12.423zM446.931 358.416c0 6.478-4.827 11.777-10.707 11.777h-89.769c-5.921 0-10.753-5.299-10.753-11.777v-118.799c0-6.456 4.832-11.758 10.753-11.758h89.769c5.877 0 10.707 5.299 10.707 11.758v118.799zM232.771 16.031h-220.353c-6.863 0-12.418 5.546-12.418 12.425v391.088c0 6.861 5.555 12.425 12.418 12.425h220.353c6.846 0 12.418-5.565 12.418-12.425v-391.091c0-6.877-5.572-12.423-12.418-12.423zM178.197 358.416c0 6.478-4.827 11.777-10.751 11.777h-89.769c-5.88 0-10.71-5.299-10.71-11.777v-118.799c0-6.456 4.828-11.758 10.71-11.758h89.768c5.923 0 10.751 5.299 10.751 11.758v118.799z" />
<glyph unicode="&#xe615;" glyph-name="svg22" horiz-adv-x="514" d="M304.828 394.159c68.521 0 124.282-55.754 124.282-124.318 0-68.536-55.761-124.315-124.282-124.315h-139.123v95.929l-165.705-138.249 165.705-138.268v94.751h139.123c116.031 0 210.106 94.079 210.106 210.154 0 116.058-94.075 210.156-210.106 210.156-109.492 0-199.396-83.798-209.169-190.765h86.549c9.366 59.343 60.695 104.924 122.62 104.924z" />
<glyph unicode="&#xe616;" glyph-name="svg23" horiz-adv-x="514" d="M348.443 110.224h-120.887v241.776h128.001l156.443 128.001v-512l-163.557 142.224zM135.112-24.889h-99.557v135.112h-35.555v241.775h184.889v-241.778l-49.778-42.666c0 0.002 0-92.443 0-92.443z" />
<glyph unicode="&#xe617;" glyph-name="svg24" horiz-adv-x="514" d="M422.086 265.267h-6.952c-7.752 0-14.106 6.357-14.482 14.367-0.041 0.255-0.041 0.515-0.041 0.751 0 0.277 0 0.537 0.041 0.795v39.583c0 42.714-15.544 81.909-41.252 110.577-25.575 28.584-61.978 46.969-102.151 46.969-0.041 0-0.089 0-0.135 0-0.019 0-0.065 0-0.106 0-40.192 0-76.598-18.361-102.151-46.966-25.686-28.671-41.252-67.865-41.252-110.58v-40.375h-0.041c0-8.333-6.487-15.12-14.507-15.12h-6.885c-12.023 0-21.764-10.161-21.764-22.702v-250.13c0-12.541 9.742-22.743 21.764-22.743h329.914c12.003 0 21.745 10.202 21.745 22.743v250.13c0.002 12.541-9.741 22.702-21.745 22.702zM283.067 121.333c-0.521-0.494-1.096-0.945-1.672-1.373-5.208-4.704-8.493-11.642-8.493-19.394v-40.202h-0.111c0-9.084-7.067-16.493-15.786-16.493-8.029 0-14.655 6.251-15.674 14.348v42.349c0 7.754-3.286 14.69-8.465 19.394-0.576 0.429-1.123 0.879-1.674 1.373-8.766 7.73-14.326 19.221-14.326 32.13 0 23.171 18.028 41.963 40.245 41.963 22.253 0 40.281-18.792 40.281-41.963 0.002-12.909-5.586-24.397-14.325-32.13zM349.858 278.621c-0.841-7.515-6.974-13.357-14.417-13.357h-156.602c-7.508 0-13.707 5.969-14.458 13.594-0.024 0.496-0.046 1.029-0.046 1.525 0 0.537 0.024 1.072 0.046 1.566v38.815c0 28.153 9.785 54.591 27.543 74.37l0.046 0.022 0.046 0.065c17.096 19.136 40.814 30.108 64.995 30.108h0.241c24.183 0 47.877-10.975 64.995-30.108l0.022-0.065 0.046-0.022c17.759-19.803 27.548-46.217 27.548-74.37v-38.617c0.065-0.537 0.089-1.159 0.089-1.759-0.005-0.583-0.026-1.163-0.091-1.765z" />
<glyph unicode="&#xe618;" glyph-name="svg25" horiz-adv-x="514" d="M171.111 380.836c0-12.9 0-70.492 0-70.492h-51.644v-86.2h51.644v-256.144h106.087v256.144h71.188c0 0 6.668 41.332 9.896 86.525-9.267 0-80.683 0-80.683 0s0 50.151 0 58.936c0 8.805 11.567 20.656 23 20.656 11.411 0 35.5 0 57.801 0 0 11.738 0 52.29 0 89.738-29.779 0-63.65 0-78.59 0-111.32-0.002-108.699-86.281-108.699-99.164z" />
<glyph unicode="&#xe619;" glyph-name="svg26" horiz-adv-x="514" d="M269.114 479.974c-139.711 0-210.156-100.169-210.156-183.7 0-50.575 19.146-95.572 60.218-112.344 6.733-2.751 12.767-0.094 14.72 7.361 1.358 5.163 4.572 18.18 6.008 23.598 1.968 7.376 1.204 9.963-4.23 16.39-11.842 13.969-19.411 32.055-19.411 57.666 0 74.315 55.602 140.84 144.779 140.84 78.968 0 122.355-48.25 122.355-112.692 0-84.788-37.524-156.344-93.229-156.344-30.764 0-53.791 25.438-46.41 56.642 8.838 37.254 25.958 77.455 25.958 104.349 0 24.070-12.919 44.148-39.66 44.148-31.448 0-56.708-32.535-56.708-76.114 0-27.755 9.378-46.53 9.378-46.53s-32.183-136.357-37.822-160.234c-11.235-47.558-1.689-105.861-0.881-111.749 0.472-3.49 4.958-4.319 6.988-1.679 2.898 3.787 40.356 50.028 53.090 96.228 3.601 13.082 20.685 80.83 20.685 80.83 10.216-19.49 40.077-36.654 71.83-36.654 94.529 0 158.661 86.18 158.661 201.533 0 87.221-73.88 168.453-186.164 168.453z" />
<glyph unicode="&#xe61a;" glyph-name="svg27" horiz-adv-x="514" d="M12.726 260.413c0-52.041 43.398-78.819 90.902-88.676-8.718-2.459-12.174-11.076-44.914-7.998 13.218-42.661 50.572-57.291 96.016-58.165-35.541-28.779-81.308-37.832-129.962-37.832-8.378 0-16.648 0.51-24.768 1.513 45.955-30.458 100.537-60.478 159.179-60.478 191.003 0 283.731 146.658 283.731 288.539 0 4.647-0.099 9.274-0.298 13.901 20.288 15.137 51.305 36.102 65.226 57.635-18.62-8.563-40.327-0.456-61.33-3.040 21.439 13.278 47.197 30.055 50.724 69.131-20.059-12.314-47.359-28.926-71.012-33.737-18.938 20.878-45.928 38.017-75.796 38.017-57.351 0-95.392-55.084-95.392-114.36 0-8.414-0.075-13.533 1.699-21.405-86.301 4.481-177.887 33.736-229.1 98.712-8.942-15.865-14.063-34.32-14.063-53.993 0-37.234 27.633-70.13 55.493-89.387-17.021 0.583-13.682-10.69-56.334 1.621z" />
<glyph unicode="&#xe61b;" glyph-name="svg28" horiz-adv-x="514" d="M513.192 377.947h-44.615v-43.988h-22.311v43.988h-44.615v22.005h44.615v43.991h22.311v-43.991h44.615v-22.005zM359.932 330.249l-27.45-7.533 14.603 25.601c-20.974 20.336-45.029 35.066-71.522 43.211-42.257 13.061-81.247 5.865-113.733-9.482-66.528-31.409-105.89-107.533-90.608-188.038 16.111-84.81 84.142-152.844 173.389-159.984 26.296-2.154 55.082-0.889 80.582 5.584 18.125 5.644 17.983 7.347 17.983 17.944v74.748l-89.365-2.577 46.014 24.992h124.25l-19.837-22.413v-84.788h-0.034l0.034-7.735c-85.289-41.486-226.886-53.321-308.572-0.205-49.455 32.19-98.222 96.146-95.563 177.075 2.531 76.865 54.212 145.7 125.275 180.337 81.697 39.853 205.014 32.32 276.904-25.084l-42.351-41.654z" />
<glyph unicode="&#xe61c;" glyph-name="svg29" d="M336.529 224l175.471-175.471-80.513-80.529-175.487 175.471-175.471-175.471-80.529 80.529 175.471 175.471-175.471 175.471 80.529 80.529 175.471-175.471 175.487 175.471 80.513-80.529z" />
<glyph unicode="&#xe61d;" glyph-name="svg30" horiz-adv-x="514" d="M423.295 222.271l-253.456-253.468-74.801 74.786 178.764 178.763-182.862 182.861 74.804 74.787z" />
<glyph unicode="&#xe61e;" glyph-name="svg31" horiz-adv-x="514" d="M257.118 476.659c106.538 0 190.883-86.373 190.883-192.909 0 0 8.537-77.677-48.293-127.611 0 0-125.836-106.27-142.91-184.8h0.641c-17.072 78.53-142.91 184.8-142.91 184.8-56.828 49.934-48.293 127.611-48.293 127.611 0 106.538 84.345 192.909 190.883 192.909z" />
<glyph unicode="&#xe61f;" glyph-name="svg32" horiz-adv-x="514" d="M394.745 210.276h81.257l-32.337-173.327h-174.62l32.337 173.327h0.245c20.579 112.288 92.343 193.181 212.608 200.774l-12.935-83.791c-61.412-15.703-94.448-48.443-106.555-116.983zM245.191 411.050l-12.935-83.791c-61.415-15.703-94.45-48.44-106.558-116.983h81.256l-32.334-173.327h-174.62l32.337 173.327h0.245c20.579 112.286 92.343 193.181 212.608 200.774z" />
<glyph unicode="&#xe620;" glyph-name="svg33" d="M512 271.404v-94.806h-512v94.806h512z" />
<glyph unicode="&#xe621;" glyph-name="svg34" horiz-adv-x="514" d="M31.491-28.014v269.974h451.25v-269.974h-451.25zM31.491 332.597h451.25v-60.432h-451.25v60.432zM107.015 453.44c88.739 88.719 151.047-120.842 151.047-120.842s-239.788 32.077-151.047 120.842zM151.546 386.559c25.195-22.52 52.733-32.78 61.508-22.971 8.773 9.838-4.541 36.040-29.733 58.538-25.195 22.521-52.736 32.805-61.504 22.95-8.778-9.814 4.534-36.018 29.728-58.517zM409.106 453.44c90.627-90.639-151.047-120.842-151.047-120.842s60.422 211.457 151.047 120.842zM308.695 362.442c9.195-9.197 32.699-0.576 52.497 19.221 19.794 19.794 28.391 43.295 19.197 52.492-9.197 9.195-32.699 0.595-52.492-19.203-19.801-19.792-28.396-43.29-19.202-52.509z" />
<glyph unicode="&#xe622;" glyph-name="svg35" d="M511.993 176.596h-208.588v-208.596h-94.817v208.596h-208.589v94.81h208.591v208.594h94.817v-208.594h208.588v-94.81z" />
<glyph unicode="&#xe623;" glyph-name="svg36" horiz-adv-x="514" d="M304.524-32v512h94.814v-512h-94.814zM114.897 480h94.814v-512h-94.814v512z" />
<glyph unicode="&#xe624;" glyph-name="svg37" d="M256.002-32c-141.385 0-256.002 114.604-256.002 255.978 0 141.398 114.617 256.022 256.002 256.022 141.387 0 256-114.625 256-256.022 0.001-141.374-114.613-255.978-256-255.978zM417.187 217.68c0 29.423-8.010 56.916-21.776 80.661l-220.051-220.065c23.739-13.761 51.228-21.768 80.643-21.768 89.019 0.002 161.183 72.158 161.183 161.173zM256.002 378.877c-89.021 0-161.187-72.171-161.187-161.2 0-28.595 7.522-55.401 20.584-78.685l219.305 219.291c-23.288 13.067-50.099 20.593-78.702 20.593z" />
<glyph unicode="&#xe625;" glyph-name="svg38" horiz-adv-x="511" d="M499.009 41.945l-93.647 90.873c27.532 36.175 43.848 80.863 43.848 129.203 0 120.167-100.76 217.98-224.606 217.98-123.85 0-224.603-97.813-224.603-217.98 0-120.208 100.754-217.981 224.603-217.981 41.283 0 79.97 10.928 113.246 29.853l97.052-94.183c16.089-15.614 42.18-15.614 58.279 0.017l5.825 5.647c16.094 15.613 16.094 40.938 0.005 56.571zM82.423 262.020c0 76.076 63.779 137.973 142.18 137.973 78.398 0 142.183-61.898 142.183-137.973 0-76.098-63.785-137.995-142.183-137.995-78.401 0-142.18 61.897-142.18 137.995z" />
<glyph unicode="&#xe626;" glyph-name="svg39" horiz-adv-x="514" d="M256.063 75.434l-0.241 0.241-0.244-0.241-255.578 256.063 41.069 41.069 214.752-214.752 214.75 214.752 41.069-41.069z" />
<glyph unicode="&#xe627;" glyph-name="svg40" horiz-adv-x="514" d="M119.433 224l253.716-253.716 21.654 21.654-232.060 232.063 232.060 232.060-21.654 21.656z" />
<glyph unicode="&#xe628;" glyph-name="svg41" horiz-adv-x="514" d="M395.733 224.573l-255.427-255.429-21.803 21.8 233.629 233.629-233.629 233.624 21.803 21.803z" />
<glyph unicode="&#xe629;" glyph-name="svg42" d="M512 240.863v-33.724h-239.137v-239.137h-30.659v239.137h-242.203v33.725h242.203v239.137h30.659v-239.137z" />
<glyph unicode="&#xe62a;" glyph-name="svg43" d="M0 240.862h512v-33.725h-512v33.725z" />
<glyph unicode="&#xe62b;" glyph-name="adidas" horiz-adv-x="753" d="M732.053 112.296c-8.743 0-15.918 7.099-15.918 16.034 0 8.731 7.175 15.833 15.918 15.833 8.768 0 15.864-7.103 15.864-15.833 0-8.938-7.096-16.034-15.864-16.034zM732.053 141.854c-7.374 0-13.382-6.118-13.382-13.525 0-7.553 6.009-13.64 13.382-13.64 7.32 0 13.405 6.085 13.405 13.64 0 7.406-6.085 13.525-13.405 13.525zM735.904 119.507l-3.961 7.181h-2.627v-7.182h-2.405v17.44h5.893c2.991 0 5.502-2.168 5.502-5.239 0-2.455-1.563-4.065-3.744-4.735l4.135-7.469h-2.793zM735.798 131.711c0 1.829-1.403 3.179-3.297 3.179h-3.181v-6.17h3.181c1.894 0 3.297 1.382 3.297 2.991zM747.888 59.404h-32.198c-0.424 6.707-1.624 17.418-20.702 17.418-12.681 0-21.111-2.542-21.98-11.496 0-13.274 26.649-12.404 47.394-17.953 19.802-5.067 32.597-17.465 32.597-34.967 0-32.010-25.84-44.405-57.566-44.405-35.554 0-56.611 18.313-57.948 44.405h33.404c0-8.116 5.078-20.086 26.64-20.481 14.385 0 21.172 8.565 21.172 14.906-0.84 10.252-13.574 11.070-27.12 13.269-13.49 2.114-24.913 4.704-33.35 8.962-10.586 5.55-17.79 17.55-17.79 31.106 0 23.021 19.885 41.505 52.957 41.505 32.062-0.002 52.339-17.132 54.49-42.269zM338.806 415.139l111.33 64.861 192.434-335.807h-148.922l-154.842 270.946zM478.842 144.193v-173.153h-31.31v8.486c-10.526-7.243-23.683-11.527-38.065-11.527-36.405 0-66.428 30.344-66.428 67.031 0 37.112 30.024 66.617 66.428 66.617 14.383 0 27.118-3.923 38.065-11.611v54.127h-117.156v-31.929h-31.774v31.929l-87.546 153.195 111.704 64.441 124.785-217.603h31.298zM410.36 72.143c-19.534 0-36.405-17.076-36.405-37.112 0-20.061 16.872-36.686 36.405-36.686 20.276 0 37.172 16.625 37.172 36.686 0.002 20.038-16.894 37.112-37.172 37.112zM282.973-28.959h-31.695v8.486c-11.032-7.243-23.724-11.527-37.691-11.527-36.841 0-66.834 30.344-66.834 67.031 0 37.112 29.993 66.617 66.834 66.617 13.965 0 26.659-3.923 37.691-11.611v54.158h31.695v-173.153zM214.449 72.143c-20.344 0-37.215-17.076-37.215-37.112 0-20.061 16.871-36.686 37.215-36.686 19.933 0 36.829 16.625 36.829 36.686 0 20.038-16.894 37.112-36.829 37.112zM102.792 144.193l-21.594 37.892 111.258 64.557 58.822-102.447h-148.486zM104.478 100.349h31.283v-129.308h-31.284v8.486c-10.611-7.243-23.684-11.527-38.067-11.527-36.376 0-66.41 30.344-66.41 67.031 0 37.112 30.035 66.617 66.412 66.617 13.955 0 27.052-3.923 38.067-11.611v10.313zM67.237 72.143c-19.873 0-36.81-17.076-36.81-37.112 0-20.061 16.938-36.686 36.81-36.686 20.331 0 37.24 16.625 37.24 36.686 0 20.038-16.909 37.112-37.24 37.112zM330.356-28.985h-31.755v129.333h31.755v-129.333zM555.875 101.647c13.962 0 27.033-3.923 37.596-11.611v10.313h31.78v-129.308h-31.78v8.486c-10.563-7.243-23.213-11.527-37.596-11.527-36.393 0-66.472 30.344-66.472 67.031 0 37.112 30.080 66.617 66.472 66.617zM557.131-1.656c19.854 0 36.341 16.625 36.341 36.686 0 20.038-16.486 37.112-36.341 37.112-19.914 0-36.756-17.076-36.756-37.112 0-20.061 16.842-36.686 36.756-36.686z" />
<glyph unicode="&#xe62c;" glyph-name="originals" horiz-adv-x="527" d="M343.584 261.159c5.716 9.868 12.994 19.244 21.31 28.561 44.698 52.519 113.315 84.757 161.135 87.853 3.12-33.8-7.795-74.832-28.589-116.413h-153.854zM198.041 261.159c-2.079 11.945-2.079 23.379-2.079 36.898 0 72.772 32.225 148.144 68.611 181.944 35.863-33.8 68.613-109.172 68.613-181.944 0-13.519-1.043-24.951-2.079-36.898h-133.065zM3.635 377.574c47.303-3.096 116.434-35.334 161.136-87.853 7.798-9.319 15.594-18.693 21.309-28.561h-154.377c-20.791 41.582-31.189 82.614-28.069 116.413zM46.26 60.483c9.876 0 19.23-2.573 27.030-7.784v6.774h21.832v-89.388h-21.832v5.707c-7.799-4.688-16.631-7.793-27.029-7.793-25.468 0-46.26 20.777-46.26 46.243 0 25.988 20.793 46.241 46.26 46.241zM46.779-11.223c14.556 0 26.511 11.957 26.511 25.466 0 14.043-11.954 25.988-26.511 25.988-13.512 0-25.468-11.945-25.468-25.988 0-13.509 11.955-25.466 25.468-25.466zM149.18 60.483c9.875 0 18.71-2.573 26.508-7.784v37.42h22.352v-120.034h-22.352v5.707c-7.798-4.688-16.633-7.793-26.508-7.793-25.469 0-46.781 20.777-46.781 46.243 0 25.988 21.311 46.241 46.781 46.241zM150.218-11.223c13.514 0 25.471 11.957 25.471 25.466 0 14.043-11.957 25.988-25.471 25.988-14.55 0-26.507-11.945-26.507-25.988 0-13.509 11.955-25.466 26.507-25.466zM230.786 67.781h-21.828v22.339h21.828v-22.339zM230.786-29.913h-21.828v89.388h21.828v-89.388zM264.573 114.567c-11.957 11.43-22.357 27.026-33.269 46.765h66.015c-10.394-19.74-21.832-35.336-32.745-46.765zM286.403 60.483c9.873 0 18.71-2.573 26.507-7.784v37.42h21.834v-120.034h-21.834v5.707c-7.272-4.688-16.633-7.793-26.507-7.793-25.469 0-46.26 20.777-46.26 46.243 0 25.988 20.791 46.241 46.26 46.241zM286.924-11.223c14.031 0 25.986 11.957 25.986 25.466 0 14.043-11.957 25.988-25.986 25.988-13.514 0-25.469-11.945-25.469-25.988 0-13.509 11.954-25.466 25.469-25.466zM388.8 60.483c9.88 0 18.714-2.573 25.995-7.784v6.774h22.353v-89.388h-22.353v5.707c-7.282-4.688-16.114-7.793-25.995-7.793-25.468 0-46.779 20.777-46.779 46.243 0 25.988 21.312 46.241 46.779 46.241zM389.844-11.223c13.512 0 24.95 11.957 24.95 25.466 0 14.043-11.44 25.988-24.95 25.988-14.034 0-25.993-11.945-25.993-25.988 0-13.509 11.96-25.466 25.993-25.466zM42.102 241.392h444.943c-3.118-6.25-8.838-15.071-14.034-20.255h-417.397c-3.117 4.147-10.395 13.49-13.513 20.255zM300.437 117.663c0 11.461 0 27.054 3.118 43.67h104.997c-36.899-27.524-77.445-41.555-108.115-43.67zM227.668 117.663c-29.627 2.115-70.171 16.144-107.597 43.67h106.038c2.077-16.614 2.077-32.209 1.558-43.67zM72.772 199.818h383.084c-5.197-7.269-12.998-14.043-21.31-18.729h-342.024c-6.759 4.686-13.514 11.461-19.751 18.729zM514.59 64.659c-6.238 0-11.434 5.201-11.434 11.451 0 6.746 5.195 11.957 11.434 11.957 6.242 0 11.436-5.211 11.436-11.957 0-6.25-5.193-11.451-11.436-11.451zM514.59 86.5c-5.716 0-9.872-4.686-9.872-10.392 0-5.203 4.156-9.861 9.872-9.861 5.199 0 9.878 4.658 9.878 9.861 0 5.707-4.678 10.392-9.878 10.392zM517.192 71.42c0 2.611-0.52 3.649-2.077 3.649h-2.6v-5.211h-2.079v12.994h4.154c2.601 0 4.684-1.534 4.684-3.622 0-1.579-1.043-3.124-2.082-3.124 0.517 0 2.082-0.543 2.082-2.601v-3.647h-2.082v1.562zM515.115 80.793h-2.6v-3.639h2.075c1.039 0 2.601 0.498 2.601 1.562 0 1.011-1.043 2.077-2.077 2.077zM487.561-15.358c10.397 0 15.075 5.697 15.075 10.385-0.515 6.746-9.357 7.791-19.231 8.804-9.357 1.589-17.154 3.677-22.872 6.25-7.795 4.161-12.474 12.496-12.474 21.841 0 16.091 13.512 28.561 36.901 28.561 22.347 0 36.386-11.945 37.946-29.074h-22.351c-0.517 4.688-1.039 11.945-14.554 11.945-8.838 0-14.556-1.562-15.594-7.812 0-9.346 18.71-8.802 33.262-12.469 14.035-3.622 22.874-11.957 22.874-24.426 0-21.846-18.193-30.648-40.019-30.648-24.952 0-40.027 12.481-40.551 30.647h23.394c0.002-5.697 3.122-14.005 18.193-14.005z" />
<glyph unicode="&#xe62d;" glyph-name="porche" horiz-adv-x="518" d="M478.241 42.096c-8.759 0-14.534-1.706-15.075-7.824 0-9.051 18.237-8.479 32.621-12.243 13.563-3.497 22.382-11.95 22.382-23.821 0-21.81-17.793-30.207-39.647-30.207-24.445 0-38.981 12.467-39.802 30.207h22.912c0-5.519 3.5-13.707 18.317-13.964 9.885 0 14.677 5.861 14.677 10.176-0.668 6.959-9.37 7.553-18.706 9.014-9.3 1.498-17.183 3.182-22.978 6.058-7.334 3.813-12.193 11.941-12.193 21.238 0 15.683 13.692 28.277 36.379 28.277 22.067 0 36.111-11.659 37.422-28.779h-22.089c-0.223 4.628-1.1 11.867-14.219 11.867zM503.659 66.257c-6.068 0-10.904 4.83-10.904 10.852 0 5.966 4.834 10.865 10.904 10.865 5.998 0 10.822-4.899 10.822-10.865-0.002-6.022-4.827-10.852-10.822-10.852zM503.659 86.395c-5.058 0-9.159-4.186-9.159-9.285s4.101-9.248 9.159-9.248c5.014 0 9.161 4.151 9.161 9.248-0.002 5.099-4.147 9.285-9.161 9.285zM506.258 71.146l-2.74 4.864h-1.782v-4.864h-1.604v11.906h4.007c2.075 0 3.76-1.556 3.76-3.579 0-1.661-1.076-2.784-2.575-3.217l2.902-5.11h-1.969zM506.214 79.473c0 1.191-0.939 2.139-2.248 2.139h-2.226v-4.21h2.226c1.31 0 2.248 0.913 2.248 2.071zM65.365 207.026c43.295 26.407 187.849 105.883 403.063 137.353 5.575-16.431 8.433-33.892 8.526-51.865-214.287-1.043-355.731-76.424-399.618-103.463-4.346 5.803-8.376 11.765-11.971 17.976zM45.123 259.652c-1.569 7.822-2.652 15.822-3.105 24.019 42.947 25.143 180.953 97.943 385.038 128.279 15.003-15.861 27.244-33.892 35.783-53.386-244.547 6.422-398.582-86.703-417.717-98.911zM259.424 480c57.135 0 109.163-19.050 147.899-50.18-173.421 0.584-297.651-48.826-353.57-76.496 29.397 73.724 110.403 126.676 205.671 126.676zM71.882 51.185v6.911h21.53v-88.062h-21.53v5.768c-7.302-4.983-16.308-7.804-26.16-7.804-25.090 0.002-45.721 20.608-45.721 45.633 0 25.272 20.631 45.375 45.721 45.375 9.585 0 18.529-2.654 26.16-7.822zM21.024 13.631c0-13.741 11.513-25.025 25.314-25.025 13.956 0 25.544 11.286 25.544 25.025 0 13.613-11.59 25.272-25.544 25.272-13.801 0-25.314-11.658-25.314-25.272zM147.015 59.007c9.587 0 18.391-2.656 25.911-7.824v36.779h21.778v-117.928h-21.78v5.768c-7.52-4.983-16.323-7.804-25.911-7.804-25.41 0-46.009 20.606-46.009 45.633 0.002 25.272 20.599 45.375 46.010 45.375zM147.472-11.394c13.803 0 25.453 11.286 25.453 25.025 0 13.613-11.649 25.272-25.453 25.272-13.862 0-25.511-11.658-25.511-25.272-0.002-13.74 11.649-25.025 25.511-25.025zM227.347 66.247h-21.88v21.716h21.88v-21.716zM227.382-29.966h-21.913v88.062h21.913v-88.062zM281.771 59.007c9.955 0 18.67-2.656 26.19-7.824v36.779h21.586v-117.928h-21.586v5.768c-7.238-4.983-16.235-7.804-26.19-7.804-24.955 0-45.705 20.606-45.705 45.633 0 25.272 20.75 45.375 45.705 45.375zM282.31-11.394c13.984 0 25.651 11.286 25.651 25.025 0 13.613-11.669 25.272-25.651 25.272-13.271 0-24.879-11.658-24.879-25.272 0.002-13.74 11.608-25.025 24.879-25.025zM259.424 103.88c-53.562 0-102.605 16.865-140.554 44.601 61.897 36.053 185.671 96.856 357.452 128.571-8.856-96.841-102.533-173.172-216.897-173.172zM382.488 59.007c9.584 0 18.615-2.656 25.873-7.824v6.923h21.95v-88.072h-21.95v5.768c-7.259-4.983-15.962-7.804-25.873-7.804-25.088 0-45.69 20.606-45.69 45.633 0.002 25.272 20.602 45.375 45.69 45.375zM383.414-11.394c13.645 0 24.947 11.286 24.947 25.025 0 13.613-11.302 25.272-24.947 25.272-13.726 0-25.416-11.658-25.416-25.272 0-13.74 11.69-25.025 25.416-25.025z" />
<glyph unicode="&#xe62e;" glyph-name="neo" horiz-adv-x="1281" d="M1221.447 251.828c-12.116 92.943-85.847 165.342-174.402 165.239-89.308 0.069-164.062-71.426-176.231-165.239h-58.946c12.753 128.686 112.419 228.141 235.177 228.172 121.411-0.101 221.91-100.827 233.604-228.172h-59.201zM1047.051 30.933c89.61 0 162.52 75.724 174.374 166.617h58.874c-13.037-128.284-110.757-229.484-233.251-229.55-122.812 0.066-223.314 100.459-235.346 229.55h59.13c12.161-94.651 86.613-166.617 176.22-166.617zM466.553 467.348h317.914v-58.909h-255.42v-156.614h213.12v-54.275h-213.108v-161.277h255.409v-58.94h-317.914v490.014zM62.505 358.594v-381.264h-62.505v490.017h59.54l271.5-383.179v383.179h62.488v-490.017h-60.197l-270.825 381.264z" />
<glyph unicode="&#xe62f;" glyph-name="svg44" d="M288.19 223.25l223.699-223.683-31.551-31.536-223.683 223.683-223.683-223.683-31.552 31.536 223.683 223.699-223.683 223.683 31.535 31.536 223.683-223.683 223.699 223.699 31.551-31.551z" />
<glyph unicode="&#xe630;" glyph-name="svg45" horiz-adv-x="514" d="M254.335 57.257l-254.335 254.321 75.041 75.056 179.375-179.373 183.483 183.483 75.042-75.056z" />
<glyph unicode="&#xe901;" d="M256 475.429c141.4 0 256-114.6 256-256s-114.6-256-256-256-256 114.6-256 256 114.6 256 256 256zM255 441.429c123.2 0 223-99.8 223-223s-99.8-223-223-223-223 99.8-223 223 99.8 223 223 223z" />
<glyph unicode="&#xe902;" d="M256 475.429c-141.4 0-256-114.6-256-256h32c0.6 122.6 100.2 222 223 222 123.2 0 223-99.8 223-223 0-122.8-99.4-222.4-222-223v-32c141.4 0 256 114.6 256 256s-114.6 256-256 256z" />
<glyph unicode="&#xe903;" d="M255-4.571c-123.2 0-223 99.8-223 223 0 0.4 0 0.6 0 1h-32c0-141.4 114.6-256 256-256v32c-0.4 0-0.6 0-1 0z" />
<glyph unicode="&#xe919;" glyph-name="excl" horiz-adv-x="94" d="M93.92 56.069v-92.64h-93.92v92.64zM93.92 475.429v-381.92h-93.92v381.92z" />
<glyph unicode="&#xf096;" glyph-name="placeholder" horiz-adv-x="403" d="M320 402.286h-237.714q-18.857 0-32.285-13.428t-13.428-32.286v-237.714q0-18.857 13.428-32.286t32.285-13.428h237.714q18.857 0 32.286 13.428t13.428 32.286v237.714q0 18.857-13.428 32.286t-32.286 13.428zM402.286 356.572v-237.714q0-34-24.143-58.143t-58.143-24.143h-237.714q-34 0-58.143 24.143t-24.143 58.143v237.714q0 34 24.143 58.143t58.143 24.143h237.714q34 0 58.143-24.143t24.143-58.143z" />
</font>
</defs>
</svg>
