<?xml version="1.0" encoding="utf-8"?>
<!-- Generator: Adobe Illustrator 19.2.0, SVG Export Plug-In . SVG Version: 6.00 Build 0)  -->
<!DOCTYPE svg PUBLIC "-//W3C//DTD SVG 1.1//EN" "http://www.w3.org/Graphics/SVG/1.1/DTD/svg11.dtd">
<svg version="1.1" id="Layer_1" xmlns="http://www.w3.org/2000/svg" xmlns:xlink="http://www.w3.org/1999/xlink" x="0px" y="0px"
	 viewBox="0 0 503.8 503.8" enable-background="new 0 0 503.8 503.8" xml:space="preserve">
<g>
	<defs>
		<rect id="SVGID_1_" width="503.8" height="503.8"/>
	</defs>
	<clipPath id="SVGID_2_">
		<use xlink:href="#SVGID_1_"  overflow="visible"/>
	</clipPath>
	<path clip-path="url(#SVGID_2_)" fill="#999999" d="M502.3,148c-1.2-26.8-5.5-45.1-11.7-61.1c-6.4-16.6-15.1-30.6-29.1-44.6
		c-14-14-28.1-22.6-44.6-29.1c-16-6.2-34.3-10.5-61.2-11.7C328.9,0.3,320.3,0,251.9,0s-77,0.3-103.9,1.5
		C121.2,2.7,102.9,7,86.9,13.2c-16.6,6.4-30.6,15.1-44.6,29.1c-14,14-22.6,28.1-29.1,44.6C7,102.9,2.7,121.2,1.5,148
		C0.3,174.9,0,183.5,0,251.9s0.3,77,1.5,103.9c1.2,26.8,5.5,45.1,11.7,61.2c6.4,16.6,15.1,30.6,29.1,44.6c14,14,28.1,22.6,44.6,29.1
		c16,6.2,34.3,10.5,61.1,11.7c26.9,1.2,35.5,1.5,103.9,1.5s77-0.3,103.9-1.5c26.8-1.2,45.1-5.5,61.2-11.7
		c16.6-6.4,30.6-15.1,44.6-29.1c14-14,22.6-28.1,29.1-44.6c6.2-16,10.5-34.3,11.7-61.2c1.2-26.9,1.5-35.5,1.5-103.9
		S503.5,174.9,502.3,148 M251.9,381.3c-71.4,0-129.4-57.9-129.4-129.4s57.9-129.4,129.4-129.4s129.4,57.9,129.4,129.4
		S323.4,381.3,251.9,381.3 M386.4,147.7c-16.7,0-30.2-13.5-30.2-30.2c0-16.7,13.5-30.2,30.2-30.2c16.7,0,30.2,13.5,30.2,30.2
		C416.6,134.1,403.1,147.7,386.4,147.7 M251.9,167.9c-46.4,0-84,37.6-84,84s37.6,84,84,84s84-37.6,84-84S298.3,167.9,251.9,167.9"/>
</g>
</svg>
