<?xml version="1.0" standalone="no"?>
<!DOCTYPE svg PUBLIC "-//W3C//DTD SVG 1.1//EN" "http://www.w3.org/Graphics/SVG/1.1/DTD/svg11.dtd" >
<svg xmlns="http://www.w3.org/2000/svg" xmlns:xlink="http://www.w3.org/1999/xlink" version="1.1">
<metadata>
Created by FontForge 20170924 at Fri Jan 30 20:29:58 2015
 By www-data
(c) 2014 adidas. All rights reserved.
</metadata>
<defs>
<font id="adineuePRO-BoldItalic" horiz-adv-x="533" >
  <font-face 
    font-family="adineue PRO"
    font-weight="700"
    font-style="italic"
    font-stretch="normal"
    units-per-em="1000"
    panose-1="2 11 8 3 2 2 1 13 0 4"
    ascent="750"
    descent="-250"
    x-height="513"
    cap-height="685"
    bbox="-266 -219 1335 929"
    underline-thickness="40"
    underline-position="-120"
    slope="-16"
    unicode-range="U+0020-F8FF"
  />
<missing-glyph horiz-adv-x="390" 
 />
    <glyph glyph-name=".notdef" horiz-adv-x="390" 
 />
    <glyph glyph-name=".null" horiz-adv-x="0" 
 />
    <glyph glyph-name="nonmarkingreturn" horiz-adv-x="333" 
 />
    <glyph glyph-name="space" unicode=" " horiz-adv-x="195" 
 />
    <glyph glyph-name="exclam" unicode="!" horiz-adv-x="218" 
d="M300 685l-144 -504h-138l144 504h138zM104 0h-138l40 139h138z" />
    <glyph glyph-name="quotedbl" unicode="&#x22;" horiz-adv-x="372" 
d="M378 444h-112l53 241h147zM209 444h-113l54 241h147z" />
    <glyph glyph-name="numbersign" unicode="#" horiz-adv-x="582" 
d="M293 405l-44 -123h86l43 123h-85zM560 544h68l-40 -139h-77l-44 -123h86l-40 -139h-96l-52 -143h-131l51 143h-86l-52 -143h-131l52 143h-66l40 139h75l44 123h-84l40 139h94l50 141h132l-51 -141h86l50 141h132z" />
    <glyph glyph-name="dollar" unicode="$" horiz-adv-x="581" 
d="M254 500q0 -36 38 -62l36 131q-37 -5 -55.5 -24t-18.5 -45zM386 176q0 36 -45 63l-36 -133q41 5 61 24t20 46zM249 -93h-105l24 88q-81 20 -119 72.5t-33 128.5h151q-2 -50 37 -74l44 159q-72 32 -110 75.5t-38 112.5q0 96 69 160t194 64l26 93h105l-30 -107
q70 -22 107.5 -73t35.5 -122h-151q2 41 -29 63l-42 -153q78 -32 120.5 -72t42.5 -111q0 -97 -73 -162t-205 -65z" />
    <glyph glyph-name="percent" unicode="%" horiz-adv-x="825" 
d="M194 287q-71 0 -106.5 45.5t-16.5 111.5l34 119q17 58 60.5 92t103.5 34q67 0 104.5 -44.5t17.5 -112.5l-34 -119q-17 -58 -60 -92t-103 -34zM255 0h-131l496 685h131zM205 378q46 0 61 49l32 110q8 26 -4.5 43.5t-37.5 17.5q-22 0 -38 -13t-22 -35l-31 -110
q-7 -27 4.5 -44.5t35.5 -17.5zM605 -7q-71 0 -106.5 45.5t-16.5 111.5l34 119q17 58 60.5 92t103.5 34q67 0 104.5 -44.5t17.5 -112.5l-34 -119q-17 -58 -60 -92t-103 -34zM616 84q46 0 61 49l32 110q8 26 -4.5 43.5t-37.5 17.5q-22 0 -38 -13t-22 -35l-31 -110
q-7 -27 4.5 -44.5t35.5 -17.5z" />
    <glyph glyph-name="ampersand" unicode="&#x26;" horiz-adv-x="721" 
d="M311 492q0 -31 23 -71q65 16 91 40t26 59q0 26 -16.5 42t-43.5 16q-34 0 -57 -23t-23 -63zM279 114q44 0 94 22l-111 152q-92 -32 -92 -99q0 -35 27 -55t82 -20zM473 0l-27 37q-88 -45 -191 -45q-106 0 -169.5 47t-63.5 130q0 72 44 132.5t136 90.5q-21 50 -21 91
q0 91 61 152t160 61q82 0 132.5 -44t50.5 -112q0 -153 -184 -215l82 -110q84 91 111 216h140q-53 -195 -177 -315l86 -116h-170z" />
    <glyph glyph-name="quotesingle" unicode="'" horiz-adv-x="204" 
d="M210 444h-115l53 241h150z" />
    <glyph glyph-name="parenleft" unicode="(" horiz-adv-x="334" 
d="M294 697l108 -63q-163 -152 -226 -369q-28 -96 -28 -183q0 -105 43 -189l-115 -64q-66 105 -66 257q0 85 23 179q30 122 100.5 237.5t160.5 194.5z" />
    <glyph glyph-name="parenright" unicode=")" horiz-adv-x="334" 
d="M43 -171l-108 63q163 152 226 369q28 96 28 183q0 105 -43 189l115 64q66 -105 66 -257q0 -85 -23 -179q-30 -122 -100.5 -237.5t-160.5 -194.5z" />
    <glyph glyph-name="asterisk" unicode="*" horiz-adv-x="340" 
d="M314 606l78 40l22 -79l-81 -40l55 -38l-61 -71l-56 39l-23 -81h-88l23 82l-78 -40l-22 79l81 40l-53 39l59 70l56 -40l23 80h88z" />
    <glyph glyph-name="plus" unicode="+" horiz-adv-x="433" 
d="M310 350h131l-37 -131h-131l-41 -142h-133l41 142h-133l37 131h133l41 143h133z" />
    <glyph glyph-name="comma" unicode="," horiz-adv-x="201" 
d="M106 23l-85 -119h-92l65 96h-38l42 145h143z" />
    <glyph glyph-name="hyphen" unicode="-" horiz-adv-x="352" 
d="M310 218h-290l37 131h290z" />
    <glyph glyph-name="period" unicode="." horiz-adv-x="201" 
d="M98 0h-144l42 145h144z" />
    <glyph glyph-name="slash" unicode="/" horiz-adv-x="348" 
d="M90 0h-154l372 685h154z" />
    <glyph glyph-name="zero" unicode="0" horiz-adv-x="572" 
d="M250 -12q-127 0 -188 82.5t-28 198.5l61 211q27 95 102.5 153.5t173.5 58.5q118 0 183.5 -81t31.5 -201l-61 -211q-27 -94 -103 -152.5t-172 -58.5zM261 122q46 0 79 26t47 72l61 209q16 55 -12 91.5t-82 36.5q-42 0 -75 -26.5t-46 -70.5l-60 -209q-16 -54 10.5 -91.5
t77.5 -37.5z" />
    <glyph glyph-name="one" unicode="1" horiz-adv-x="289" 
d="M182 0h-151l156 545h-79l40 140h230z" />
    <glyph glyph-name="two" unicode="2" horiz-adv-x="546" 
d="M451 0h-477l36 127l289 196q76 52 107 87t31 79q0 33 -25 51t-65 18q-77 0 -142 -79l-102 81q113 135 266 135q97 0 156 -47t59 -130v-1q0 -84 -52 -153.5t-175 -152.5l-124 -84h254z" />
    <glyph glyph-name="three" unicode="3" horiz-adv-x="564" 
d="M236 -11q-102 0 -162.5 50.5t-75.5 136.5l137 52q15 -107 115 -107q57 0 94 39.5t37 92.5q0 46 -28.5 70.5t-71.5 24.5q-31 0 -61 -14l-38 96l189 123h-216l37 132h422l-37 -131l-160 -110q53 -22 82 -66t29 -102q0 -115 -86.5 -201t-205.5 -86z" />
    <glyph glyph-name="four" unicode="4" horiz-adv-x="586" 
d="M493 263h65l-37 -129h-65l-38 -134h-147l38 134h-317l37 129l418 424h168zM346 263l62 218l-214 -218h152z" />
    <glyph glyph-name="five" unicode="5" horiz-adv-x="564" 
d="M250 -11q-104 0 -165.5 50.5t-76.5 136.5l137 52q15 -108 114 -108q59 0 96.5 41t37.5 97q0 45 -27.5 70.5t-67.5 25.5q-72 0 -119 -62l-107 54l161 339h370l-42 -136h-263l-43 -92q43 15 90 15q82 0 138 -52t56 -141q0 -117 -85.5 -203.5t-203.5 -86.5z" />
    <glyph glyph-name="six" unicode="6" horiz-adv-x="553" 
d="M246 -10q-102 0 -164.5 57.5t-62.5 152.5q0 121 102 236l221 249h168l-188 -209q7 1 21 1q76 0 133 -53.5t57 -143.5q0 -112 -84 -201t-203 -89zM258 118q55 0 94.5 43t39.5 98q0 44 -27.5 71t-73.5 27q-53 0 -93 -41t-40 -99q0 -44 27.5 -71.5t72.5 -27.5z" />
    <glyph glyph-name="seven" unicode="7" horiz-adv-x="525" 
d="M181 0h-172l408 546h-306l40 139h467l-39 -135z" />
    <glyph glyph-name="eight" unicode="8" horiz-adv-x="556" 
d="M225 -10q-94 0 -149.5 48t-55.5 128q0 70 36.5 129.5t109.5 98.5q-24 40 -24 84q0 85 70 150.5t170 65.5q79 0 124.5 -42.5t45.5 -107.5q0 -106 -95 -175q51 -50 51 -117q0 -105 -85.5 -183.5t-197.5 -78.5zM334 431q38 0 63 28.5t25 61.5q0 27 -16.5 43t-44.5 16
q-40 0 -64.5 -28t-24.5 -61q0 -28 17 -44t45 -16zM245 109q55 0 89.5 40.5t34.5 86.5q0 36 -23 58t-64 22q-55 0 -89 -40t-34 -86q0 -36 23.5 -58.5t62.5 -22.5z" />
    <glyph glyph-name="nine" unicode="9" horiz-adv-x="553" 
d="M356 695q102 0 164.5 -57.5t62.5 -152.5q0 -121 -102 -236l-221 -249h-168l188 209q-7 -1 -21 -1q-76 0 -133 53.5t-57 143.5q0 112 84 201t203 89zM344 567q-55 0 -94.5 -43t-39.5 -98q0 -44 27.5 -71t73.5 -27q53 0 93 41t40 99q0 44 -27.5 71.5t-72.5 27.5z" />
    <glyph glyph-name="colon" unicode=":" horiz-adv-x="201" 
d="M204 368h-144l42 145h144zM98 0h-144l42 145h144z" />
    <glyph glyph-name="semicolon" unicode=";" horiz-adv-x="201" 
d="M204 368h-144l42 145h144zM106 23l-85 -119h-92l65 96h-38l42 145h143z" />
    <glyph glyph-name="less" unicode="&#x3c;" horiz-adv-x="433" 
d="M444 358l-238 -80l193 -77l-40 -137l-350 162l33 115l443 161z" />
    <glyph glyph-name="equal" unicode="=" horiz-adv-x="433" 
d="M430 309h-397l39 138h397zM376 121h-397l39 138h397z" />
    <glyph glyph-name="greater" unicode="&#x3e;" horiz-adv-x="433" 
d="M439 341l-33 -115l-444 -162l43 150l237 77l-192 80l38 131z" />
    <glyph glyph-name="question" unicode="?" horiz-adv-x="478" 
d="M205 491h-132q19 91 89.5 146.5t163.5 55.5q92 0 145.5 -50.5t53.5 -130.5q0 -95 -66 -168.5t-168 -83.5l-23 -79h-138l53 185h31q86 0 130.5 34t44.5 91q0 36 -21.5 56.5t-57.5 20.5q-78 0 -105 -77zM216 0h-139l40 139h139z" />
    <glyph glyph-name="at" unicode="@" horiz-adv-x="759" 
d="M349 -77q-141 0 -231.5 85.5t-90.5 218.5q0 101 51 194t146 154t210 61q141 0 229 -78t88 -204q0 -117 -61.5 -189t-151.5 -72q-67 0 -97 41q-48 -41 -111 -41q-64 0 -106.5 42.5t-42.5 108.5q0 84 62 149.5t145 65.5q65 0 101 -47l10 37h113l-72 -246q-4 -14 2.5 -21.5
t18.5 -7.5q41 0 73.5 51.5t32.5 127.5q0 91 -66 147.5t-174 56.5q-91 0 -164 -51.5t-110 -126t-37 -152.5q0 -102 68.5 -162t171.5 -60q68 0 160 35l22 -75q-92 -42 -189 -42zM358 191q36 0 64 28.5t28 65.5q0 31 -20 50.5t-48 19.5q-35 0 -62.5 -30t-27.5 -66
q0 -33 19 -50.5t47 -17.5z" />
    <glyph glyph-name="A" unicode="A" horiz-adv-x="676" 
d="M429 255l-10 269l-164 -269h174zM439 0l-5 118h-263l-72 -118h-166l432 685h191l39 -685h-156z" />
    <glyph glyph-name="B" unicode="B" horiz-adv-x="603" 
d="M282 0h-314l196 685h273q85 0 126 -45.5t41 -110.5q0 -61 -34 -109t-96 -73q87 -42 87 -130q0 -96 -73 -156.5t-206 -60.5zM387 552h-106l-39 -140h107q46 0 71.5 22.5t25.5 60.5q0 25 -14.5 41t-44.5 16zM338 281h-135l-42 -148h138q51 0 80.5 21.5t29.5 61.5
q0 28 -18 46.5t-53 18.5z" />
    <glyph glyph-name="C" unicode="C" horiz-adv-x="706" 
d="M463 698q97 0 170.5 -45.5t99.5 -126.5l-137 -81q-36 110 -156 110q-100 0 -168.5 -79t-68.5 -181q0 -76 45 -120t121 -44q116 0 197 103l106 -89q-53 -73 -136 -116t-184 -43q-141 0 -224.5 82t-83.5 213q0 82 33.5 159t90 133.5t134 90.5t161.5 34z" />
    <glyph glyph-name="D" unicode="D" horiz-adv-x="691" 
d="M287 0h-319l196 685h216q140 0 227 -81t87 -211q0 -157 -118.5 -275t-288.5 -118zM367 543h-88l-115 -401h136q106 0 171 71t65 166q0 76 -46.5 120t-122.5 44z" />
    <glyph glyph-name="E" unicode="E" horiz-adv-x="563" 
d="M-32 0l196 685h492l-40 -140h-337l-37 -129h311l-39 -136h-311l-40 -140h338l-40 -140h-493z" />
    <glyph glyph-name="F" unicode="F" horiz-adv-x="544" 
d="M488 243h-295l-70 -243h-155l196 685h476l-40 -142h-321l-47 -164h295z" />
    <glyph glyph-name="G" unicode="G" horiz-adv-x="757" 
d="M769 384q-22 -130 -85.5 -222t-148 -134t-182.5 -42q-142 0 -226.5 83t-84.5 212q0 75 31 149t85 133.5t136.5 96t177.5 36.5q111 0 186 -47t98 -123l-139 -82q-36 107 -166 107q-107 0 -179 -80t-72 -179q0 -74 45.5 -118.5t123.5 -44.5q62 0 112.5 31t78.5 89h-187
l43 135h353z" />
    <glyph glyph-name="H" unicode="H" horiz-adv-x="673" 
d="M402 0l77 268h-279l-77 -268h-155l196 685h155l-78 -275h279l78 275h155l-196 -685h-155z" />
    <glyph glyph-name="I" unicode="I" horiz-adv-x="237" 
d="M123 0h-155l196 685h155z" />
    <glyph glyph-name="J" unicode="J" horiz-adv-x="567" 
d="M19 245h154q-14 -56 9 -85t70 -29q41 0 71.5 28t44.5 77l129 449h154l-134 -470q-30 -108 -102 -167.5t-176 -59.5q-118 0 -180 67.5t-40 189.5z" />
    <glyph glyph-name="K" unicode="K" horiz-adv-x="619" 
d="M372 0l-160 312l-89 -312h-155l196 685h155l-86 -300l300 300h201l-364 -342l180 -343h-178z" />
    <glyph glyph-name="L" unicode="L" horiz-adv-x="535" 
d="M-32 0l196 685h155l-155 -543h309l-41 -142h-464z" />
    <glyph glyph-name="M" unicode="M" horiz-adv-x="844" 
d="M299 0l-62 415l-118 -415h-151l196 685h182l64 -448l322 448h192l-196 -685h-148l117 409l-298 -409h-100z" />
    <glyph glyph-name="N" unicode="N" horiz-adv-x="668" 
d="M388 0l-143 441l-126 -441h-151l196 685h164l143 -440l126 440h151l-196 -685h-164z" />
    <glyph glyph-name="O" unicode="O" horiz-adv-x="763" 
d="M359 -15q-138 0 -226 87t-88 218q0 162 121.5 286t285.5 124q138 0 226 -87t88 -218q0 -162 -121.5 -286t-285.5 -124zM439 555q-95 0 -166 -78t-71 -175q0 -74 47.5 -123t122.5 -49q95 0 165.5 77.5t70.5 175.5q0 74 -47 123t-122 49z" />
    <glyph glyph-name="P" unicode="P" horiz-adv-x="596" 
d="M319 191h-141l-55 -191h-155l196 685h267q94 0 146 -57t52 -144q0 -120 -86 -206.5t-224 -86.5zM383 543h-104l-61 -210h121q61 0 96 36t35 91q0 37 -23 60t-64 23z" />
    <glyph glyph-name="Q" unicode="Q" horiz-adv-x="764" 
d="M529 -46l-33 56q-66 -25 -136 -25q-138 0 -226 87t-88 218q0 162 121.5 286t285.5 124q138 0 226 -87t88 -218q0 -88 -39.5 -169.5t-107.5 -140.5l60 -104zM373 130q27 0 51 7l-79 136l151 27l49 -85q64 77 64 168q0 74 -47 123t-122 49q-95 0 -166 -78t-71 -175
q0 -74 47.5 -123t122.5 -49z" />
    <glyph glyph-name="R" unicode="R" horiz-adv-x="611" 
d="M226 360h105q64 0 100.5 30t36.5 83q0 31 -18 50.5t-54 19.5h-117zM332 0l-140 239l-69 -239h-155l196 685h252q101 0 155.5 -54t54.5 -137q0 -100 -68.5 -176.5t-190.5 -85.5l148 -232h-183z" />
    <glyph glyph-name="S" unicode="S" horiz-adv-x="588" 
d="M267 -13q-139 0 -204.5 60t-55.5 167h155q-6 -46 21 -74.5t93 -28.5q53 0 80.5 20.5t27.5 50.5q0 21 -17 38.5t-36.5 27t-56.5 24.5q-90 36 -135 84t-45 120q0 100 73.5 162.5t194.5 62.5q126 0 189 -63t55 -164h-154q7 47 -21.5 74t-83.5 27q-45 0 -71 -20.5t-26 -51.5
t29.5 -52t86.5 -43q43 -17 70.5 -30.5t56.5 -36t43.5 -52.5t14.5 -68q0 -97 -72 -165.5t-212 -68.5z" />
    <glyph glyph-name="T" unicode="T" horiz-adv-x="584" 
d="M296 0h-155l156 543h-199l40 142h552l-40 -142h-198z" />
    <glyph glyph-name="U" unicode="U" horiz-adv-x="655" 
d="M739 685l-129 -453q-33 -115 -111.5 -179.5t-194.5 -64.5q-156 0 -223.5 90.5t-26.5 234.5l106 372h155l-106 -373q-24 -83 4 -131.5t103 -48.5q111 0 151 143l117 410h155z" />
    <glyph glyph-name="V" unicode="V" horiz-adv-x="666" 
d="M354 0h-191l-34 685h157l14 -527l317 527h165z" />
    <glyph glyph-name="W" unicode="W" horiz-adv-x="943" 
d="M514 0l7 422l-237 -422h-185l33 685h155l-38 -493l273 493h135l-8 -495l246 495h161l-358 -685h-184z" />
    <glyph glyph-name="X" unicode="X" horiz-adv-x="640" 
d="M403 0l-80 221l-198 -221h-188l326 353l-129 332h164l76 -218l190 218h184l-315 -347l133 -338h-163z" />
    <glyph glyph-name="Y" unicode="Y" horiz-adv-x="660" 
d="M175 0l73 255l-120 430h159l72 -288l234 288h177l-366 -429l-73 -256h-156z" />
    <glyph glyph-name="Z" unicode="Z" horiz-adv-x="575" 
d="M627 555l-436 -416h322l-40 -139h-520l37 128l435 418h-315l39 139h515z" />
    <glyph glyph-name="bracketleft" unicode="[" horiz-adv-x="319" 
d="M374 560h-114l-170 -592h114l-37 -128h-254l242 845h254z" />
    <glyph glyph-name="backslash" unicode="\" horiz-adv-x="368" 
d="M316 0h-139l-80 685h139z" />
    <glyph glyph-name="bracketright" unicode="]" horiz-adv-x="319" 
d="M-57 -35h114l170 592h-114l37 128h254l-242 -845h-254z" />
    <glyph glyph-name="asciicircum" unicode="^" horiz-adv-x="433" 
d="M365 81h-137l2 197l-110 -197h-151l250 403h127z" />
    <glyph glyph-name="underscore" unicode="_" horiz-adv-x="492" 
d="M368 -175h-492l37 130h492z" />
    <glyph glyph-name="grave" unicode="`" horiz-adv-x="394" 
d="M423 666l-35 -123l-215 55l36 125z" />
    <glyph glyph-name="a" unicode="a" horiz-adv-x="585" 
d="M418 275q0 49 -32.5 82.5t-83.5 33.5q-63 0 -108.5 -49t-45.5 -112q0 -52 32.5 -83t82.5 -31q62 0 108.5 48t46.5 111zM349 0l11 39q-56 -43 -131 -43q-93 0 -155.5 61t-62.5 157q0 122 91 213.5t207 91.5q49 0 93.5 -20t69.5 -51l19 65h139l-147 -513h-134z" />
    <glyph glyph-name="b" unicode="b" horiz-adv-x="586" 
d="M275 -6q-49 0 -93.5 20t-69.5 51l-19 -65h-139l196 685h139l-56 -196q50 29 118 29q96 0 159 -61t63 -158q0 -122 -91 -213.5t-207 -91.5zM166 238q0 -49 32.5 -82.5t83.5 -33.5q63 0 108.5 49t45.5 112q0 52 -32.5 83t-82.5 31q-62 0 -108.5 -48t-46.5 -111z" />
    <glyph glyph-name="c" unicode="c" horiz-adv-x="539" 
d="M251 -14q-106 0 -171.5 62.5t-65.5 164.5q0 127 91 217.5t220 90.5q80 0 135 -34.5t78 -97.5l-122 -67q-26 71 -110 71q-61 0 -106 -48.5t-45 -116.5q0 -55 33.5 -86t84.5 -31q72 0 131 77l94 -71q-96 -131 -247 -131z" />
    <glyph glyph-name="d" unicode="d" horiz-adv-x="585" 
d="M418 275q0 49 -32.5 82.5t-83.5 33.5q-63 0 -108.5 -49t-45.5 -112q0 -52 32.5 -83t82.5 -31q62 0 108.5 48t46.5 111zM349 0l11 39q-56 -43 -132 -43q-93 0 -155 61t-62 157q0 122 91 213.5t207 91.5q49 0 93.5 -20t69.5 -51l68 237h139l-196 -685h-134z" />
    <glyph glyph-name="e" unicode="e" horiz-adv-x="561" 
d="M493 102q-91 -115 -240 -115q-112 0 -177 64.5t-65 165.5q0 125 90.5 215.5t216.5 90.5q106 0 164 -60.5t58 -149.5q0 -58 -14 -100h-380q4 -50 37.5 -79.5t88.5 -29.5q74 0 131 67zM303 409q-93 0 -135 -93h238q-2 40 -26.5 66.5t-76.5 26.5z" />
    <glyph glyph-name="f" unicode="f" horiz-adv-x="372" 
d="M311 513h113l-35 -124h-113l-112 -389h-139l112 389h-78l35 124h78l11 33q49 146 242 146h51l-33 -114h-43q-73 0 -87 -57z" />
    <glyph glyph-name="g" unicode="g" horiz-adv-x="578" 
d="M412 278q0 48 -31.5 80.5t-81.5 32.5q-60 0 -105.5 -47.5t-45.5 -110.5q0 -49 31 -80t81 -31q62 0 107 47.5t45 108.5zM176 -191q-176 0 -223 125l115 68q31 -72 120 -72q109 0 153 100q-49 -29 -114 -29q-93 0 -154.5 62t-61.5 156q0 118 86.5 209t204.5 91
q52 0 96 -19.5t68 -50.5l19 64h139l-138 -476q-31 -107 -114 -167.5t-196 -60.5z" />
    <glyph glyph-name="h" unicode="h" 
d="M174 280l-81 -280h-139l196 685h139l-63 -220q74 57 159 57q81 0 121.5 -58.5t14.5 -148.5l-90 -315h-138l83 291q13 45 -7 74t-62 29q-49 0 -83.5 -30.5t-49.5 -83.5z" />
    <glyph glyph-name="i" unicode="i" horiz-adv-x="195" 
d="M253 557h-139l36 128h139zM93 0h-139l147 513h139z" />
    <glyph glyph-name="j" unicode="j" horiz-adv-x="195" 
d="M253 557h-139l36 128h139zM101 513h139l-144 -502q-33 -115 -95 -157t-175 -26l34 122q77 -10 100 70z" />
    <glyph glyph-name="k" unicode="k" horiz-adv-x="498" 
d="M268 0l-110 224l-64 -224h-140l196 685h140l-110 -384l210 212h175l-269 -257l129 -256h-157z" />
    <glyph glyph-name="l" unicode="l" horiz-adv-x="196" 
d="M94 0h-140l196 685h140z" />
    <glyph glyph-name="m" unicode="m" horiz-adv-x="836" 
d="M174 280l-81 -280h-139l147 513h137l-14 -50q71 59 151 59q42 0 74.5 -19.5t49.5 -54.5q76 74 178 74q89 0 131 -58t16 -149l-90 -315h-138l83 291q13 44 -5.5 73.5t-56.5 29.5q-45 0 -76.5 -30.5t-46.5 -83.5l-80 -280h-138l83 291q13 44 -5.5 73.5t-56.5 29.5
q-45 0 -76.5 -30.5t-46.5 -83.5z" />
    <glyph glyph-name="n" unicode="n" 
d="M174 280l-81 -280h-139l147 513h137l-14 -51q72 60 161 60q81 0 121.5 -58.5t14.5 -148.5l-90 -315h-138l83 291q13 45 -7 74t-62 29q-49 0 -83.5 -30.5t-49.5 -83.5z" />
    <glyph glyph-name="o" unicode="o" horiz-adv-x="577" 
d="M323 524q102 0 170.5 -64t68.5 -165q0 -118 -89.5 -212.5t-218.5 -94.5q-102 0 -170.5 64t-68.5 165q0 118 89.5 212.5t218.5 94.5zM424 283q0 51 -31 83t-80 32q-65 0 -112.5 -50.5t-47.5 -118.5q0 -51 31 -83t80 -32q65 0 112.5 50.5t47.5 118.5z" />
    <glyph glyph-name="p" unicode="p" horiz-adv-x="585" 
d="M166 238q0 -49 32.5 -82.5t83.5 -33.5q63 0 108.5 49t45.5 112q0 52 -32.5 83t-82.5 31q-62 0 -108.5 -48t-46.5 -111zM275 -6q-49 0 -93.5 20t-69.5 51l-69 -241h-139l197 689h134l-11 -39q56 43 133 43q92 0 154 -61t62 -157q0 -122 -91 -213.5t-207 -91.5z" />
    <glyph glyph-name="q" unicode="q" horiz-adv-x="585" 
d="M433 -176h-139l57 200q-50 -29 -118 -29q-96 0 -159 61t-63 158q0 122 91 213.5t207 91.5q49 0 93.5 -20t69.5 -51l19 65h139zM418 275q0 49 -32.5 82.5t-83.5 33.5q-63 0 -108.5 -49t-45.5 -112q0 -52 32.5 -83t82.5 -31q62 0 108.5 48t46.5 111z" />
    <glyph glyph-name="r" unicode="r" horiz-adv-x="334" 
d="M387 520l-40 -140q-143 0 -186 -146l-67 -234h-140l147 513h139l-20 -71q3 3 8 8.5t22 19t35 23.5t46 18.5t56 8.5z" />
    <glyph glyph-name="s" unicode="s" horiz-adv-x="491" 
d="M-7 161h140q-5 -36 17.5 -53.5t62.5 -17.5q37 0 57.5 14t20.5 34q0 18 -21 30t-68 23q-33 8 -58 17.5t-49 26t-37 41.5t-13 58q0 82 64 133.5t171 51.5q95 0 144 -45t39 -125h-138q10 66 -65 66q-33 0 -52 -14t-19 -34q0 -19 22.5 -32t77.5 -27q71 -19 110.5 -50.5
t39.5 -85.5q0 -80 -63 -131t-179 -51q-107 0 -162 45.5t-42 125.5z" />
    <glyph glyph-name="t" unicode="t" horiz-adv-x="379" 
d="M269 389l-56 -201q-20 -69 51 -69h52l-35 -119h-65q-94 0 -129.5 56t-9.5 145l54 188h-72l35 124h72l38 132h139l-38 -132h123l-35 -124h-124z" />
    <glyph glyph-name="u" unicode="u" 
d="M294 0l14 51q-72 -60 -161 -60q-81 0 -121.5 58.5t-14.5 148.5l90 315h138l-83 -291q-13 -45 7 -74t62 -29q49 0 83.5 30.5t49.5 83.5l81 280h139l-147 -513h-137z" />
    <glyph glyph-name="v" unicode="v" horiz-adv-x="535" 
d="M286 0h-185l-17 513h144l-2 -382l216 382h155z" />
    <glyph glyph-name="w" unicode="w" horiz-adv-x="766" 
d="M376 0l16 290l-151 -290h-176l18 513h137l-19 -344l182 344h138l-17 -357l185 357h139l-277 -513h-175z" />
    <glyph glyph-name="x" unicode="x" horiz-adv-x="522" 
d="M283 0l-51 146l-124 -146h-172l247 269l-92 244h153l48 -138l120 138h171l-242 -260l95 -253h-153z" />
    <glyph glyph-name="y" unicode="y" horiz-adv-x="523" 
d="M434 513h154l-320 -505q-74 -116 -144 -155.5t-184 -23.5l35 124q18 -3 33.5 -2.5t27 2t23 7.5t18.5 10.5t16.5 15.5t14.5 17.5t16 21.5l-41 488h148l12 -317z" />
    <glyph glyph-name="z" unicode="z" horiz-adv-x="470" 
d="M487 403l-307 -282h226l-35 -121h-421l31 108l307 282h-228l35 123h423z" />
    <glyph glyph-name="braceleft" unicode="{" horiz-adv-x="346" 
d="M400 559h-39q-38 0 -59.5 -21.5t-21.5 -52.5q0 -16 4.5 -42t4.5 -40q0 -49 -29 -85.5t-70 -54.5q41 -27 41 -68q0 -34 -22.5 -70.5t-44.5 -67.5t-22 -53q0 -36 50 -36h39l-37 -127h-78q-58 0 -91.5 28.5t-33.5 77.5q0 35 14.5 66.5t32 51.5t32 46.5t14.5 51.5
q0 46 -62 46h-6l31 110h11q48 0 73.5 26t25.5 57q0 16 -8.5 48t-8.5 58q0 68 57 123t142 55h98z" />
    <glyph glyph-name="bar" unicode="|" horiz-adv-x="195" 
d="M53 -143h-140l237 828h140z" />
    <glyph glyph-name="braceright" unicode="}" horiz-adv-x="346" 
d="M-54 -32h39q38 0 59.5 21.5t21.5 52.5q0 16 -4.5 42t-4.5 40q0 49 29 85.5t70 54.5q-41 27 -41 68q0 34 22.5 70.5t44.5 67.5t22 53q0 36 -50 36h-39l37 127h78q58 0 91.5 -28.5t33.5 -77.5q0 -35 -14.5 -66.5t-32 -51.5t-32 -46.5t-14.5 -51.5q0 -46 62 -46h6l-31 -110
h-11q-48 0 -73.5 -26t-25.5 -57q0 -17 8.5 -49t8.5 -57q0 -68 -57 -123t-142 -55h-98z" />
    <glyph glyph-name="asciitilde" unicode="~" horiz-adv-x="433" 
d="M278 198q-39 0 -88 22t-78 22q-50 0 -109 -36l35 121q68 54 134 54q40 0 89 -22t78 -22q50 0 109 36l-35 -121q-68 -54 -135 -54z" />
    <glyph glyph-name="exclamdown" unicode="&#xa1;" horiz-adv-x="218" 
d="M163 685h138l-40 -139h-138zM-33 0l144 504h138l-144 -504h-138z" />
    <glyph glyph-name="cent" unicode="&#xa2;" horiz-adv-x="576" 
d="M170 249q0 -74 54 -108l82 287q-57 -12 -96.5 -62.5t-39.5 -116.5zM550 126q-102 -140 -263 -144l-21 -75h-109l25 88q-78 25 -123 87.5t-45 149.5q0 138 97 237t237 103l23 81h109l-27 -94q106 -32 141 -132l-135 -74q-15 39 -48 60l-83 -291q63 11 118 83z" />
    <glyph glyph-name="sterling" unicode="&#xa3;" horiz-adv-x="572" 
d="M308 469l-24 -84h176l-39 -136h-176l-21 -75q20 -5 72.5 -26.5t87.5 -21.5q28 0 63 11.5t56 22.5l21 12l-39 -136q-8 -5 -22 -13t-57 -21.5t-86 -13.5q-51 0 -117.5 28.5t-104.5 28.5q-28 0 -63 -12t-57 -24l-21 -12l39 137q33 23 85 37l22 78h-74l39 136h74l26 89
q30 101 95.5 162.5t164.5 61.5q150 0 198 -138l-131 -65q-26 67 -87 67q-73 0 -100 -93z" />
    <glyph glyph-name="yen" unicode="&#xa5;" horiz-adv-x="560" 
d="M439 392h127l-33 -116h-173l-10 -36h173l-34 -117h-173l-35 -123h-151l35 123h-174l34 117h174l10 36h-174l33 116h128l-69 293h158l44 -238l182 238h165z" />
    <glyph glyph-name="brokenbar" unicode="&#xa6;" horiz-adv-x="195" 
d="M198 361h-140l92 324h140zM53 -143h-140l93 323h140z" />
    <glyph glyph-name="section" unicode="&#xa7;" horiz-adv-x="480" 
d="M203 359q-43 -19 -43 -57q0 -13 7.5 -22.5t23 -17.5t29.5 -13t37.5 -13t37.5 -13q20 5 32.5 20t12.5 33q0 13 -7.5 23t-23 18.5t-30 14t-38.5 13.5t-38 14zM507 477l-130 1q3 29 -13.5 45t-53.5 16q-33 0 -51.5 -12t-18.5 -32q0 -21 24 -33.5t72 -26.5q9 -3 14 -4
q127 -40 127 -127q0 -94 -92 -139q15 -23 15 -52q0 -65 -55 -116.5t-154 -51.5q-97 0 -150 43t-49 115h131q-2 -25 15 -41.5t58 -16.5q29 0 46 12t17 29q0 10 -6 18t-19.5 14.5t-26 10.5t-33.5 10.5t-34 11.5q-51 20 -81 49t-30 77q0 101 92 141q-16 24 -16 56
q0 65 56.5 114t149.5 49q98 0 149.5 -44.5t46.5 -115.5z" />
    <glyph glyph-name="dieresis" unicode="&#xa8;" horiz-adv-x="394" 
d="M433 556h-133l37 129h133zM264 556h-133l37 129h133z" />
    <glyph glyph-name="copyright" unicode="&#xa9;" horiz-adv-x="616" 
d="M389 695q110 0 181 -68t71 -177q0 -85 -42 -162.5t-119 -127t-168 -49.5q-114 0 -184 69.5t-70 174.5q0 132 96.5 236t234.5 104zM561 439q0 79 -49.5 130.5t-130.5 51.5q-99 0 -170.5 -78t-71.5 -178q0 -76 50 -128t129 -52q99 0 171 78t72 176zM336 248
q-60 0 -100.5 38t-40.5 98q0 74 52 126.5t128 52.5q43 0 77 -20.5t49 -61.5l-85 -46q-4 14 -17 23.5t-31 9.5q-31 0 -52 -21.5t-21 -50.5q0 -23 15.5 -39t39.5 -16q40 0 62 36l68 -54q-57 -75 -144 -75z" />
    <glyph glyph-name="ordfeminine" unicode="&#xaa;" horiz-adv-x="380" 
d="M274 602q-32 0 -57.5 -23t-30.5 -57q-5 -33 13.5 -56t50.5 -23q33 0 58.5 23t30.5 56q5 34 -13.5 57t-51.5 23zM298 362l5 17q-32 -19 -73 -19q-60 0 -99.5 38t-39.5 99q0 77 57.5 135t130.5 58q63 0 99 -41l11 37h93l-93 -324h-91z" />
    <glyph glyph-name="guillemotleft" unicode="&#xab;" horiz-adv-x="525" 
d="M416 514h138l-203 -235l66 -217h-131l-67 222zM209 514h140l-195 -228l66 -224h-129l-68 234z" />
    <glyph glyph-name="registered" unicode="&#xae;" horiz-adv-x="616" 
d="M389 695q110 0 181 -68t71 -177q0 -85 -42 -162.5t-119 -127t-168 -49.5q-114 0 -184 69.5t-70 174.5q0 132 96.5 236t234.5 104zM561 439q0 79 -49.5 130.5t-130.5 51.5q-99 0 -170.5 -78t-71.5 -178q0 -76 50 -128t129 -52q99 0 171 78t72 176zM488 549l-27 -97
q-85 0 -106 -71l-34 -120h-96l81 284h95l-9 -34q38 38 96 38z" />
    <glyph glyph-name="macron" unicode="&#xaf;" horiz-adv-x="394" 
d="M423 571h-272l35 123h272z" />
    <glyph glyph-name="degree" unicode="&#xb0;" horiz-adv-x="379" 
d="M438 545q0 -78 -57 -138.5t-140 -60.5q-66 0 -110 40.5t-44 105.5q0 78 57 138.5t140 60.5q66 0 110 -40.5t44 -105.5zM194 503q0 -26 16.5 -41.5t41.5 -15.5q33 0 56 26t23 61q0 26 -16.5 41.5t-41.5 15.5q-33 0 -56 -26t-23 -61z" />
    <glyph glyph-name="plusminus" unicode="&#xb1;" horiz-adv-x="433" 
d="M329 421h133l-36 -126h-133l-41 -140h-130l41 140h-134l36 126h134l40 141h130zM341 0h-397l35 123h397z" />
    <glyph glyph-name="acute" unicode="&#xb4;" horiz-adv-x="394" 
d="M414 601l-245 -54l35 123l246 57z" />
    <glyph glyph-name="paragraph" unicode="&#xb6;" horiz-adv-x="492" 
d="M389 0h-87l196 685h87zM252 0h-86l72 252q-76 13 -119 60.5t-43 117.5q0 18 3 37q13 94 85.5 156t164.5 62h119z" />
    <glyph glyph-name="periodcentered" unicode="&#xb7;" horiz-adv-x="201" 
d="M158 211h-144l42 145h144z" />
    <glyph glyph-name="cedilla" unicode="&#xb8;" horiz-adv-x="394" 
d="M62 -217q-42 0 -64.5 26t-15.5 64h70q-2 -11 4 -18.5t17 -7.5q10 0 19.5 7t12.5 17q4 13 -2 21t-18 8h-73l80 109h60l-40 -51q37 -2 53.5 -26t9.5 -59q-9 -38 -39.5 -64t-73.5 -26z" />
    <glyph glyph-name="ordmasculine" unicode="&#xba;" horiz-adv-x="367" 
d="M93 524q11 71 67 119.5t126 48.5q64 0 106 -40.5t42 -102.5q0 -7 -2 -25q-10 -71 -66.5 -120t-127.5 -49q-64 0 -105.5 41t-41.5 103q0 7 2 25zM340 536q0 29 -18.5 47.5t-47.5 18.5q-32 0 -57.5 -23t-30.5 -57q-1 -5 -1 -13q0 -29 18 -47.5t47 -18.5q33 0 58.5 23
t30.5 56q1 5 1 14z" />
    <glyph glyph-name="guillemotright" unicode="&#xbb;" horiz-adv-x="494" 
d="M92 62h-138l203 235l-66 217h131l67 -222zM299 62h-140l195 228l-66 224h129l68 -234z" />
    <glyph glyph-name="onequarter" unicode="&#xbc;" horiz-adv-x="712" 
d="M160 0h-131l496 685h131zM165 294h-95l87 303h-45l25 88h140zM615 155h36l-23 -80h-37l-21 -75h-92l21 75h-178l23 80l234 237h105zM523 155l32 113l-110 -113h78z" />
    <glyph glyph-name="onehalf" unicode="&#xbd;" horiz-adv-x="725" 
d="M160 0h-131l496 685h131zM165 294h-95l87 303h-45l25 88h140zM630 0h-274l21 76l170 119q37 26 51.5 44t14.5 39q0 17 -12.5 26t-31.5 8q-41 0 -77 -45l-66 47q64 82 155 83q57 1 92 -26.5t35 -74.5q0 -45 -30.5 -84.5t-109.5 -93.5l-57 -39h142z" />
    <glyph glyph-name="threequarters" unicode="&#xbe;" horiz-adv-x="829" 
d="M278 0h-131l496 685h131zM190 287q-58 0 -93.5 28.5t-43.5 79.5l84 33q9 -58 62 -58q29 0 48 20t19 45q0 24 -15 37t-37 13q-20 0 -36 -8l-23 59l110 67h-125l23 82h245l-24 -85l-85 -57q60 -29 60 -94q0 -64 -49 -113t-120 -49zM732 155h36l-23 -80h-37l-21 -75h-92
l21 75h-178l23 80l234 237h105zM640 155l32 113l-110 -113h78z" />
    <glyph glyph-name="questiondown" unicode="&#xbf;" horiz-adv-x="478" 
d="M302 685h139l-40 -139h-139zM313 194h132q-19 -91 -89.5 -146.5t-163.5 -55.5q-92 0 -145.5 50.5t-53.5 130.5q0 95 66 168.5t168 83.5l23 79h138l-53 -185h-31q-86 0 -130.5 -34t-44.5 -91q0 -36 21.5 -56.5t57.5 -20.5q78 0 105 77z" />
    <glyph glyph-name="Agrave" unicode="&#xc0;" horiz-adv-x="676" 
d="M613 838l-35 -123l-215 55l36 125zM429 255l-10 269l-164 -269h174zM439 0l-5 118h-263l-72 -118h-166l432 685h191l39 -685h-156z" />
    <glyph glyph-name="Aacute" unicode="&#xc1;" horiz-adv-x="676" 
d="M604 773l-245 -54l35 123l246 57zM429 255l-10 269l-164 -269h174zM439 0l-5 118h-263l-72 -118h-166l432 685h191l39 -685h-156z" />
    <glyph glyph-name="Acircumflex" unicode="&#xc2;" horiz-adv-x="676" 
d="M645 823l-30 -101l-119 37l-171 -39l30 103l160 54zM429 255l-10 269l-164 -269h174zM439 0l-5 118h-263l-72 -118h-166l432 685h191l39 -685h-156z" />
    <glyph glyph-name="Atilde" unicode="&#xc3;" horiz-adv-x="676" 
d="M402 751q-38 0 -78 -26l28 94q48 41 99 41q30 0 68.5 -16t60.5 -16q38 0 78 26l-28 -94q-48 -41 -100 -41q-30 0 -68 16t-60 16zM429 255l-10 269l-164 -269h174zM439 0l-5 118h-263l-72 -118h-166l432 685h191l39 -685h-156z" />
    <glyph glyph-name="Adieresis" unicode="&#xc4;" horiz-adv-x="676" 
d="M623 728h-133l37 129h133zM454 728h-133l37 129h133zM429 255l-10 269l-164 -269h174zM439 0l-5 118h-263l-72 -118h-166l432 685h191l39 -685h-156z" />
    <glyph glyph-name="Aring" unicode="&#xc5;" horiz-adv-x="676" 
d="M397 811q0 46 35 82t84 36q38 0 63.5 -25t25.5 -63q0 -47 -35 -83t-84 -36q-38 0 -63.5 25t-25.5 64zM537 832q0 15 -9 24t-23 9q-17 0 -28.5 -13t-11.5 -32q0 -15 9 -24t23 -9q17 0 28.5 13.5t11.5 31.5zM429 255l-10 269l-164 -269h174zM439 0l-5 118h-263l-72 -118
h-166l432 685h191l39 -685h-156z" />
    <glyph glyph-name="AE" unicode="&#xc6;" horiz-adv-x="922" 
d="M429 255l-10 269l-164 -269h174zM439 0l-5 118h-263l-72 -118h-166l432 685h650l-40 -140h-411l7 -129h341l-39 -136h-294l8 -140h273l-40 -140h-381z" />
    <glyph glyph-name="Ccedilla" unicode="&#xc7;" horiz-adv-x="706" 
d="M281 -218q-42 0 -64.5 26t-15.5 64h70q-2 -11 4 -18.5t17 -7.5q10 0 19.5 7t12.5 17q4 13 -2 21t-18 8h-73l66 91q-117 16 -185 95t-68 196q0 82 33.5 159t90 133.5t134 90.5t161.5 34q97 0 170.5 -45.5t99.5 -126.5l-137 -81q-36 110 -156 110q-100 0 -168.5 -79
t-68.5 -181q0 -76 45 -120t121 -44q116 0 197 103l106 -89q-53 -73 -136 -116t-182 -43l-23 -29q37 -2 53.5 -26t9.5 -59q-9 -38 -39.5 -64t-73.5 -26z" />
    <glyph glyph-name="Egrave" unicode="&#xc8;" horiz-adv-x="563" 
d="M561 838l-35 -123l-215 55l36 125zM-32 0l196 685h492l-40 -140h-337l-37 -129h311l-39 -136h-311l-40 -140h338l-40 -140h-493z" />
    <glyph glyph-name="Eacute" unicode="&#xc9;" horiz-adv-x="563" 
d="M552 773l-245 -54l35 123l246 57zM-32 0l196 685h492l-40 -140h-337l-37 -129h311l-39 -136h-311l-40 -140h338l-40 -140h-493z" />
    <glyph glyph-name="Ecircumflex" unicode="&#xca;" horiz-adv-x="563" 
d="M593 823l-30 -101l-119 37l-171 -39l30 103l160 54zM-32 0l196 685h492l-40 -140h-337l-37 -129h311l-39 -136h-311l-40 -140h338l-40 -140h-493z" />
    <glyph glyph-name="Edieresis" unicode="&#xcb;" horiz-adv-x="563" 
d="M571 728h-133l37 129h133zM402 728h-133l37 129h133zM-32 0l196 685h492l-40 -140h-337l-37 -129h311l-39 -136h-311l-40 -140h338l-40 -140h-493z" />
    <glyph glyph-name="Igrave" unicode="&#xcc;" horiz-adv-x="237" 
d="M394 838l-35 -123l-215 55l36 125zM123 0h-155l196 685h155z" />
    <glyph glyph-name="Iacute" unicode="&#xcd;" horiz-adv-x="237" 
d="M385 773l-245 -54l35 123l246 57zM123 0h-155l196 685h155z" />
    <glyph glyph-name="Icircumflex" unicode="&#xce;" horiz-adv-x="237" 
d="M426 823l-30 -101l-119 37l-171 -39l30 103l160 54zM123 0h-155l196 685h155z" />
    <glyph glyph-name="Idieresis" unicode="&#xcf;" horiz-adv-x="237" 
d="M404 728h-133l37 129h133zM235 728h-133l37 129h133zM123 0h-155l196 685h155z" />
    <glyph glyph-name="Eth" unicode="&#xd0;" horiz-adv-x="701" 
d="M298 0h-319l80 278h-49l37 131h49l79 276h216q140 0 227 -81t87 -211q0 -157 -118.5 -275t-288.5 -118zM175 142h136q106 0 171 71t65 166q0 76 -46.5 120t-122.5 44h-88l-38 -134h122l-37 -131h-123z" />
    <glyph glyph-name="Ntilde" unicode="&#xd1;" horiz-adv-x="668" 
d="M399 751q-38 0 -78 -26l28 94q48 41 99 41q30 0 68.5 -16t60.5 -16q38 0 78 26l-28 -94q-48 -41 -100 -41q-30 0 -68 16t-60 16zM388 0l-143 441l-126 -441h-151l196 685h164l143 -440l126 440h151l-196 -685h-164z" />
    <glyph glyph-name="Ograve" unicode="&#xd2;" horiz-adv-x="763" 
d="M620 838l-35 -123l-215 55l36 125zM359 -15q-138 0 -226 87t-88 218q0 162 121.5 286t285.5 124q138 0 226 -87t88 -218q0 -162 -121.5 -286t-285.5 -124zM439 555q-95 0 -166 -78t-71 -175q0 -74 47.5 -123t122.5 -49q95 0 165.5 77.5t70.5 175.5q0 74 -47 123t-122 49z
" />
    <glyph glyph-name="Oacute" unicode="&#xd3;" horiz-adv-x="763" 
d="M611 773l-245 -54l35 123l246 57zM359 -15q-138 0 -226 87t-88 218q0 162 121.5 286t285.5 124q138 0 226 -87t88 -218q0 -162 -121.5 -286t-285.5 -124zM439 555q-95 0 -166 -78t-71 -175q0 -74 47.5 -123t122.5 -49q95 0 165.5 77.5t70.5 175.5q0 74 -47 123t-122 49z
" />
    <glyph glyph-name="Ocircumflex" unicode="&#xd4;" horiz-adv-x="763" 
d="M652 823l-30 -101l-119 37l-171 -39l30 103l160 54zM359 -15q-138 0 -226 87t-88 218q0 162 121.5 286t285.5 124q138 0 226 -87t88 -218q0 -162 -121.5 -286t-285.5 -124zM439 555q-95 0 -166 -78t-71 -175q0 -74 47.5 -123t122.5 -49q95 0 165.5 77.5t70.5 175.5
q0 74 -47 123t-122 49z" />
    <glyph glyph-name="Otilde" unicode="&#xd5;" horiz-adv-x="763" 
d="M409 751q-38 0 -78 -26l28 94q48 41 99 41q30 0 68.5 -16t60.5 -16q38 0 78 26l-28 -94q-48 -41 -100 -41q-30 0 -68 16t-60 16zM359 -15q-138 0 -226 87t-88 218q0 162 121.5 286t285.5 124q138 0 226 -87t88 -218q0 -162 -121.5 -286t-285.5 -124zM439 555
q-95 0 -166 -78t-71 -175q0 -74 47.5 -123t122.5 -49q95 0 165.5 77.5t70.5 175.5q0 74 -47 123t-122 49z" />
    <glyph glyph-name="Odieresis" unicode="&#xd6;" horiz-adv-x="763" 
d="M630 728h-133l37 129h133zM461 728h-133l37 129h133zM359 -15q-138 0 -226 87t-88 218q0 162 121.5 286t285.5 124q138 0 226 -87t88 -218q0 -162 -121.5 -286t-285.5 -124zM439 555q-95 0 -166 -78t-71 -175q0 -74 47.5 -123t122.5 -49q95 0 165.5 77.5t70.5 175.5
q0 74 -47 123t-122 49z" />
    <glyph glyph-name="multiply" unicode="&#xd7;" horiz-adv-x="410" 
d="M253 82l-61 96l-129 -106l-76 106l134 111l-68 107l125 94l65 -102l123 102l76 -104l-130 -108l64 -100z" />
    <glyph glyph-name="Oslash" unicode="&#xd8;" horiz-adv-x="764" 
d="M203 302q0 -47 22 -88l297 322q-38 19 -82 19q-95 0 -166 -78t-71 -175zM373 130q95 0 165.5 77.5t70.5 175.5q0 48 -21 87l-296 -322q38 -18 81 -18zM360 -15q-100 0 -175 47l-67 -72h-128l124 134q-68 82 -68 196q0 162 121.5 286t285.5 124q100 0 176 -48l67 73h128
l-124 -135q67 -81 67 -195q0 -162 -121.5 -286t-285.5 -124z" />
    <glyph glyph-name="Ugrave" unicode="&#xd9;" horiz-adv-x="655" 
d="M586 838l-35 -123l-215 55l36 125zM739 685l-129 -453q-33 -115 -111.5 -179.5t-194.5 -64.5q-156 0 -223.5 90.5t-26.5 234.5l106 372h155l-106 -373q-24 -83 4 -131.5t103 -48.5q111 0 151 143l117 410h155z" />
    <glyph glyph-name="Uacute" unicode="&#xda;" horiz-adv-x="655" 
d="M577 773l-245 -54l35 123l246 57zM739 685l-129 -453q-33 -115 -111.5 -179.5t-194.5 -64.5q-156 0 -223.5 90.5t-26.5 234.5l106 372h155l-106 -373q-24 -83 4 -131.5t103 -48.5q111 0 151 143l117 410h155z" />
    <glyph glyph-name="Ucircumflex" unicode="&#xdb;" horiz-adv-x="655" 
d="M618 823l-30 -101l-119 37l-171 -39l30 103l160 54zM739 685l-129 -453q-33 -115 -111.5 -179.5t-194.5 -64.5q-156 0 -223.5 90.5t-26.5 234.5l106 372h155l-106 -373q-24 -83 4 -131.5t103 -48.5q111 0 151 143l117 410h155z" />
    <glyph glyph-name="Udieresis" unicode="&#xdc;" horiz-adv-x="655" 
d="M596 728h-133l37 129h133zM427 728h-133l37 129h133zM739 685l-129 -453q-33 -115 -111.5 -179.5t-194.5 -64.5q-156 0 -223.5 90.5t-26.5 234.5l106 372h155l-106 -373q-24 -83 4 -131.5t103 -48.5q111 0 151 143l117 410h155z" />
    <glyph glyph-name="Yacute" unicode="&#xdd;" horiz-adv-x="660" 
d="M587 773l-245 -54l35 123l246 57zM175 0l73 255l-120 430h159l72 -288l234 288h177l-366 -429l-73 -256h-156z" />
    <glyph glyph-name="Thorn" unicode="&#xde;" horiz-adv-x="596" 
d="M320 685l-28 -95h112q94 0 146 -57t52 -144q0 -121 -86 -207t-224 -86h-141l-28 -96h-155l196 685h156zM356 448h-104l-61 -210h121q61 0 96 36.5t35 90.5q0 37 -23 60t-64 23z" />
    <glyph glyph-name="germandbls" unicode="&#xdf;" horiz-adv-x="489" 
d="M235 498l-143 -498h-138l149 521q22 76 85 121.5t146 45.5q84 0 136 -44.5t52 -118.5q0 -56 -28 -102.5t-80 -72.5q43 -46 43 -111q0 -101 -78 -170t-202 -69h-45l36 124h41q48 0 79.5 33t31.5 78q0 27 -15 44.5t-43 17.5h-45l35 123h46q37 0 62.5 25.5t25.5 60.5
q0 27 -18.5 43t-50.5 16q-62 0 -82 -67z" />
    <glyph glyph-name="agrave" unicode="&#xe0;" horiz-adv-x="585" 
d="M494 666l-35 -123l-215 55l36 125zM418 275q0 49 -32.5 82.5t-83.5 33.5q-63 0 -108.5 -49t-45.5 -112q0 -52 32.5 -83t82.5 -31q62 0 108.5 48t46.5 111zM349 0l11 39q-56 -43 -131 -43q-93 0 -155.5 61t-62.5 157q0 122 91 213.5t207 91.5q49 0 93.5 -20t69.5 -51
l19 65h139l-147 -513h-134z" />
    <glyph glyph-name="aacute" unicode="&#xe1;" horiz-adv-x="585" 
d="M485 601l-245 -54l35 123l246 57zM418 275q0 49 -32.5 82.5t-83.5 33.5q-63 0 -108.5 -49t-45.5 -112q0 -52 32.5 -83t82.5 -31q62 0 108.5 48t46.5 111zM349 0l11 39q-56 -43 -131 -43q-93 0 -155.5 61t-62.5 157q0 122 91 213.5t207 91.5q49 0 93.5 -20t69.5 -51l19 65
h139l-147 -513h-134z" />
    <glyph glyph-name="acircumflex" unicode="&#xe2;" horiz-adv-x="585" 
d="M526 651l-30 -101l-119 37l-171 -39l30 103l160 54zM418 275q0 49 -32.5 82.5t-83.5 33.5q-63 0 -108.5 -49t-45.5 -112q0 -52 32.5 -83t82.5 -31q62 0 108.5 48t46.5 111zM349 0l11 39q-56 -43 -131 -43q-93 0 -155.5 61t-62.5 157q0 122 91 213.5t207 91.5
q49 0 93.5 -20t69.5 -51l19 65h139l-147 -513h-134z" />
    <glyph glyph-name="atilde" unicode="&#xe3;" horiz-adv-x="585" 
d="M283 579q-38 0 -78 -26l28 94q48 41 99 41q30 0 68.5 -16t60.5 -16q38 0 78 26l-28 -94q-48 -41 -100 -41q-30 0 -68 16t-60 16zM418 275q0 49 -32.5 82.5t-83.5 33.5q-63 0 -108.5 -49t-45.5 -112q0 -52 32.5 -83t82.5 -31q62 0 108.5 48t46.5 111zM349 0l11 39
q-56 -43 -131 -43q-93 0 -155.5 61t-62.5 157q0 122 91 213.5t207 91.5q49 0 93.5 -20t69.5 -51l19 65h139l-147 -513h-134z" />
    <glyph glyph-name="adieresis" unicode="&#xe4;" horiz-adv-x="585" 
d="M504 556h-133l37 129h133zM335 556h-133l37 129h133zM418 275q0 49 -32.5 82.5t-83.5 33.5q-63 0 -108.5 -49t-45.5 -112q0 -52 32.5 -83t82.5 -31q62 0 108.5 48t46.5 111zM349 0l11 39q-56 -43 -131 -43q-93 0 -155.5 61t-62.5 157q0 122 91 213.5t207 91.5
q49 0 93.5 -20t69.5 -51l19 65h139l-147 -513h-134z" />
    <glyph glyph-name="aring" unicode="&#xe5;" horiz-adv-x="585" 
d="M278 639q0 46 35 82t84 36q38 0 63.5 -25t25.5 -63q0 -47 -35 -83t-84 -36q-38 0 -63.5 25t-25.5 64zM418 660q0 15 -9 24t-23 9q-17 0 -28.5 -13t-11.5 -32q0 -15 9 -24t23 -9q17 0 28.5 13.5t11.5 31.5zM418 275q0 49 -32.5 82.5t-83.5 33.5q-63 0 -108.5 -49
t-45.5 -112q0 -52 32.5 -83t82.5 -31q62 0 108.5 48t46.5 111zM349 0l11 39q-56 -43 -131 -43q-93 0 -155.5 61t-62.5 157q0 122 91 213.5t207 91.5q49 0 93.5 -20t69.5 -51l19 65h139l-147 -513h-134z" />
    <glyph glyph-name="ae" unicode="&#xe6;" horiz-adv-x="971" 
d="M668 -13q-106 0 -172 61l-13 -48h-134l11 39q-56 -43 -131 -43q-93 0 -155.5 61t-62.5 157q0 122 91 213.5t207 91.5q49 0 93.5 -20t69.5 -51l19 65h139l-7 -24q49 29 115 29q104 0 160.5 -59t56.5 -146q0 -58 -14 -100h-380q4 -50 37.5 -79.5t88.5 -29.5q74 0 131 67
l90 -69q-91 -115 -240 -115zM718 409q-93 0 -135 -93h238q-2 40 -26.5 66.5t-76.5 26.5zM418 275q0 49 -32.5 82.5t-83.5 33.5q-63 0 -108.5 -49t-45.5 -112q0 -52 32.5 -83t82.5 -31q62 0 108.5 48t46.5 111z" />
    <glyph glyph-name="ccedilla" unicode="&#xe7;" horiz-adv-x="539" 
d="M174 -217q-42 0 -64.5 26t-15.5 64h70q-2 -11 4 -18.5t17 -7.5q10 0 19.5 7t12.5 17q4 13 -2 21t-18 8h-73l67 92q-81 17 -129 76t-48 145q0 127 91 217.5t220 90.5q80 0 135 -34.5t78 -97.5l-122 -67q-26 71 -110 71q-61 0 -106 -48.5t-45 -116.5q0 -55 33.5 -86
t84.5 -31q72 0 131 77l94 -71q-96 -131 -247 -131h-5l-22 -28q37 -2 53.5 -26t9.5 -59q-9 -38 -39.5 -64t-73.5 -26z" />
    <glyph glyph-name="egrave" unicode="&#xe8;" horiz-adv-x="561" 
d="M492 666l-35 -123l-215 55l36 125zM493 102q-91 -115 -240 -115q-112 0 -177 64.5t-65 165.5q0 125 90.5 215.5t216.5 90.5q106 0 164 -60.5t58 -149.5q0 -58 -14 -100h-380q4 -50 37.5 -79.5t88.5 -29.5q74 0 131 67zM303 409q-93 0 -135 -93h238q-2 40 -26.5 66.5
t-76.5 26.5z" />
    <glyph glyph-name="eacute" unicode="&#xe9;" horiz-adv-x="561" 
d="M483 601l-245 -54l35 123l246 57zM493 102q-91 -115 -240 -115q-112 0 -177 64.5t-65 165.5q0 125 90.5 215.5t216.5 90.5q106 0 164 -60.5t58 -149.5q0 -58 -14 -100h-380q4 -50 37.5 -79.5t88.5 -29.5q74 0 131 67zM303 409q-93 0 -135 -93h238q-2 40 -26.5 66.5
t-76.5 26.5z" />
    <glyph glyph-name="ecircumflex" unicode="&#xea;" horiz-adv-x="561" 
d="M524 651l-30 -101l-119 37l-171 -39l30 103l160 54zM493 102q-91 -115 -240 -115q-112 0 -177 64.5t-65 165.5q0 125 90.5 215.5t216.5 90.5q106 0 164 -60.5t58 -149.5q0 -58 -14 -100h-380q4 -50 37.5 -79.5t88.5 -29.5q74 0 131 67zM303 409q-93 0 -135 -93h238
q-2 40 -26.5 66.5t-76.5 26.5z" />
    <glyph glyph-name="edieresis" unicode="&#xeb;" horiz-adv-x="561" 
d="M502 556h-133l37 129h133zM333 556h-133l37 129h133zM493 102q-91 -115 -240 -115q-112 0 -177 64.5t-65 165.5q0 125 90.5 215.5t216.5 90.5q106 0 164 -60.5t58 -149.5q0 -58 -14 -100h-380q4 -50 37.5 -79.5t88.5 -29.5q74 0 131 67zM303 409q-93 0 -135 -93h238
q-2 40 -26.5 66.5t-76.5 26.5z" />
    <glyph glyph-name="igrave" unicode="&#xec;" horiz-adv-x="195" 
d="M324 666l-35 -123l-215 55l36 125zM93 0h-139l147 513h139z" />
    <glyph glyph-name="iacute" unicode="&#xed;" horiz-adv-x="195" 
d="M315 601l-245 -54l35 123l246 57zM93 0h-139l147 513h139z" />
    <glyph glyph-name="icircumflex" unicode="&#xee;" horiz-adv-x="195" 
d="M356 651l-30 -101l-119 37l-171 -39l30 103l160 54zM93 0h-139l147 513h139z" />
    <glyph glyph-name="idieresis" unicode="&#xef;" horiz-adv-x="195" 
d="M334 556h-133l37 129h133zM165 556h-133l37 129h133zM93 0h-139l147 513h139z" />
    <glyph glyph-name="eth" unicode="&#xf0;" horiz-adv-x="578" 
d="M253 -12q-102 0 -170.5 62.5t-68.5 161.5q0 116 89.5 209t218.5 93q36 0 69 -11l-7 40l-79 -11l25 89l36 5l-12 59h136l9 -40l87 12l-25 -89l-45 -6l33 -158q13 -64 13 -108q0 -53 -22.5 -107.5t-61.5 -99.5t-98.5 -73t-126.5 -28zM263 114q64 0 112 49t48 115
q0 49 -31 79.5t-80 30.5q-64 0 -112 -49t-48 -115q0 -49 31 -79.5t80 -30.5z" />
    <glyph glyph-name="ntilde" unicode="&#xf1;" 
d="M290 579q-38 0 -78 -26l28 94q48 41 99 41q30 0 68.5 -16t60.5 -16q38 0 78 26l-28 -94q-48 -41 -100 -41q-30 0 -68 16t-60 16zM174 280l-81 -280h-139l147 513h137l-14 -51q72 60 161 60q81 0 121.5 -58.5t14.5 -148.5l-90 -315h-138l83 291q13 45 -7 74t-62 29
q-49 0 -83.5 -30.5t-49.5 -83.5z" />
    <glyph glyph-name="ograve" unicode="&#xf2;" horiz-adv-x="577" 
d="M497 666l-35 -123l-215 55l36 125zM323 524q102 0 170.5 -64t68.5 -165q0 -118 -89.5 -212.5t-218.5 -94.5q-102 0 -170.5 64t-68.5 165q0 118 89.5 212.5t218.5 94.5zM424 283q0 51 -31 83t-80 32q-65 0 -112.5 -50.5t-47.5 -118.5q0 -51 31 -83t80 -32q65 0 112.5 50.5
t47.5 118.5z" />
    <glyph glyph-name="oacute" unicode="&#xf3;" horiz-adv-x="577" 
d="M488 601l-245 -54l35 123l246 57zM323 524q102 0 170.5 -64t68.5 -165q0 -118 -89.5 -212.5t-218.5 -94.5q-102 0 -170.5 64t-68.5 165q0 118 89.5 212.5t218.5 94.5zM424 283q0 51 -31 83t-80 32q-65 0 -112.5 -50.5t-47.5 -118.5q0 -51 31 -83t80 -32q65 0 112.5 50.5
t47.5 118.5z" />
    <glyph glyph-name="ocircumflex" unicode="&#xf4;" horiz-adv-x="577" 
d="M529 651l-30 -101l-119 37l-171 -39l30 103l160 54zM323 524q102 0 170.5 -64t68.5 -165q0 -118 -89.5 -212.5t-218.5 -94.5q-102 0 -170.5 64t-68.5 165q0 118 89.5 212.5t218.5 94.5zM424 283q0 51 -31 83t-80 32q-65 0 -112.5 -50.5t-47.5 -118.5q0 -51 31 -83t80 -32
q65 0 112.5 50.5t47.5 118.5z" />
    <glyph glyph-name="otilde" unicode="&#xf5;" horiz-adv-x="577" 
d="M286 579q-38 0 -78 -26l28 94q48 41 99 41q30 0 68.5 -16t60.5 -16q38 0 78 26l-28 -94q-48 -41 -100 -41q-30 0 -68 16t-60 16zM323 524q102 0 170.5 -64t68.5 -165q0 -118 -89.5 -212.5t-218.5 -94.5q-102 0 -170.5 64t-68.5 165q0 118 89.5 212.5t218.5 94.5zM424 283
q0 51 -31 83t-80 32q-65 0 -112.5 -50.5t-47.5 -118.5q0 -51 31 -83t80 -32q65 0 112.5 50.5t47.5 118.5z" />
    <glyph glyph-name="odieresis" unicode="&#xf6;" horiz-adv-x="577" 
d="M507 556h-133l37 129h133zM338 556h-133l37 129h133zM323 524q102 0 170.5 -64t68.5 -165q0 -118 -89.5 -212.5t-218.5 -94.5q-102 0 -170.5 64t-68.5 165q0 118 89.5 212.5t218.5 94.5zM424 283q0 51 -31 83t-80 32q-65 0 -112.5 -50.5t-47.5 -118.5q0 -51 31 -83
t80 -32q65 0 112.5 50.5t47.5 118.5z" />
    <glyph glyph-name="divide" unicode="&#xf7;" horiz-adv-x="433" 
d="M320 374h-140l38 131h140zM404 219h-397l37 131h397zM232 65h-140l37 131h140z" />
    <glyph glyph-name="oslash" unicode="&#xf8;" horiz-adv-x="577" 
d="M153 229q0 -28 9 -49l189 212q-18 6 -38 6q-65 0 -112.5 -50.5t-47.5 -118.5zM264 114q65 0 112.5 50.5t47.5 118.5q0 21 -7 44l-186 -209q15 -4 33 -4zM254 -12q-63 0 -115 26l-48 -54h-124l99 111q-51 61 -51 146q0 118 89.5 212.5t218.5 94.5q66 0 120 -28l51 57h123
l-103 -116q48 -61 48 -142q0 -118 -89.5 -212.5t-218.5 -94.5z" />
    <glyph glyph-name="ugrave" unicode="&#xf9;" 
d="M494 666l-35 -123l-215 55l36 125zM294 0l14 51q-72 -60 -161 -60q-81 0 -121.5 58.5t-14.5 148.5l90 315h138l-83 -291q-13 -45 7 -74t62 -29q49 0 83.5 30.5t49.5 83.5l81 280h139l-147 -513h-137z" />
    <glyph glyph-name="uacute" unicode="&#xfa;" 
d="M485 601l-245 -54l35 123l246 57zM294 0l14 51q-72 -60 -161 -60q-81 0 -121.5 58.5t-14.5 148.5l90 315h138l-83 -291q-13 -45 7 -74t62 -29q49 0 83.5 30.5t49.5 83.5l81 280h139l-147 -513h-137z" />
    <glyph glyph-name="ucircumflex" unicode="&#xfb;" 
d="M526 651l-30 -101l-119 37l-171 -39l30 103l160 54zM294 0l14 51q-72 -60 -161 -60q-81 0 -121.5 58.5t-14.5 148.5l90 315h138l-83 -291q-13 -45 7 -74t62 -29q49 0 83.5 30.5t49.5 83.5l81 280h139l-147 -513h-137z" />
    <glyph glyph-name="udieresis" unicode="&#xfc;" 
d="M504 556h-133l37 129h133zM335 556h-133l37 129h133zM294 0l14 51q-72 -60 -161 -60q-81 0 -121.5 58.5t-14.5 148.5l90 315h138l-83 -291q-13 -45 7 -74t62 -29q49 0 83.5 30.5t49.5 83.5l81 280h139l-147 -513h-137z" />
    <glyph glyph-name="yacute" unicode="&#xfd;" horiz-adv-x="523" 
d="M479 601l-245 -54l35 123l246 57zM434 513h154l-320 -505q-74 -116 -144 -155.5t-184 -23.5l35 124q18 -3 33.5 -2.5t27 2t23 7.5t18.5 10.5t16.5 15.5t14.5 17.5t16 21.5l-41 488h148l12 -317z" />
    <glyph glyph-name="thorn" unicode="&#xfe;" horiz-adv-x="585" 
d="M166 238q0 -49 32.5 -82.5t83.5 -33.5q63 0 108.5 49t45.5 112q0 52 -32.5 83t-82.5 31q-62 0 -108.5 -48t-46.5 -111zM275 -6q-49 0 -93.5 20t-69.5 51l-70 -242h-139l247 862h139l-56 -196q50 29 118 29q96 0 159 -61t63 -158q0 -122 -91 -213.5t-207 -91.5z" />
    <glyph glyph-name="ydieresis" unicode="&#xff;" horiz-adv-x="523" 
d="M498 556h-133l37 129h133zM329 556h-133l37 129h133zM434 513h154l-320 -505q-74 -116 -144 -155.5t-184 -23.5l35 124q18 -3 33.5 -2.5t27 2t23 7.5t18.5 10.5t16.5 15.5t14.5 17.5t16 21.5l-41 488h148l12 -317z" />
    <glyph glyph-name="Amacron" unicode="&#x100;" horiz-adv-x="676" 
d="M613 743h-272l35 123h272zM429 255l-10 269l-164 -269h174zM439 0l-5 118h-263l-72 -118h-166l432 685h191l39 -685h-156z" />
    <glyph glyph-name="amacron" unicode="&#x101;" horiz-adv-x="585" 
d="M494 571h-272l35 123h272zM418 275q0 49 -32.5 82.5t-83.5 33.5q-63 0 -108.5 -49t-45.5 -112q0 -52 32.5 -83t82.5 -31q62 0 108.5 48t46.5 111zM349 0l11 39q-56 -43 -131 -43q-93 0 -155.5 61t-62.5 157q0 122 91 213.5t207 91.5q49 0 93.5 -20t69.5 -51l19 65h139
l-147 -513h-134z" />
    <glyph glyph-name="Abreve" unicode="&#x102;" horiz-adv-x="676" 
d="M658 876l-31 -107q-58 -50 -152 -50q-49 0 -83.5 18.5t-48.5 44.5l28 94q50 -43 132 -43q81 0 155 43zM429 255l-10 269l-164 -269h174zM439 0l-5 118h-263l-72 -118h-166l432 685h191l39 -685h-156z" />
    <glyph glyph-name="abreve" unicode="&#x103;" horiz-adv-x="585" 
d="M539 704l-31 -107q-58 -50 -152 -50q-49 0 -83.5 18.5t-48.5 44.5l28 94q50 -43 132 -43q81 0 155 43zM418 275q0 49 -32.5 82.5t-83.5 33.5q-63 0 -108.5 -49t-45.5 -112q0 -52 32.5 -83t82.5 -31q62 0 108.5 48t46.5 111zM349 0l11 39q-56 -43 -131 -43
q-93 0 -155.5 61t-62.5 157q0 122 91 213.5t207 91.5q49 0 93.5 -20t69.5 -51l19 65h139l-147 -513h-134z" />
    <glyph glyph-name="Aogonek" unicode="&#x104;" horiz-adv-x="676" 
d="M505 -165q-28 -18 -70 -18q-38 0 -58.5 17t-20.5 45q0 36 25 70t61 51h-2l-5 118h-263l-72 -118h-166l432 685h191l39 -685h-75q-34 -15 -55 -41.5t-21 -46.5q0 -24 31 -24q12 0 23.5 2t16.5 4l6 3zM430 255l-10 269l-164 -269h174z" />
    <glyph glyph-name="aogonek" unicode="&#x105;" horiz-adv-x="585" 
d="M442 -165q-28 -18 -70 -18q-38 0 -58.5 17t-20.5 45q0 36 25 70t61 51h-29l11 39q-56 -43 -131 -43q-93 0 -155.5 61t-62.5 157q0 122 91 213.5t207 91.5q49 0 93.5 -20t69.5 -51l19 65h139l-147 -513h-26q-34 -15 -55 -41.5t-21 -46.5q0 -24 31 -24q12 0 23.5 2t17.5 4
l5 3zM419 275q0 49 -32.5 82.5t-83.5 33.5q-63 0 -108.5 -49t-45.5 -112q0 -52 32.5 -83t82.5 -31q62 0 108.5 48t46.5 111z" />
    <glyph glyph-name="Cacute" unicode="&#x106;" horiz-adv-x="706" 
d="M631 773l-245 -54l35 123l246 57zM463 698q97 0 170.5 -45.5t99.5 -126.5l-137 -81q-36 110 -156 110q-100 0 -168.5 -79t-68.5 -181q0 -76 45 -120t121 -44q116 0 197 103l106 -89q-53 -73 -136 -116t-184 -43q-141 0 -224.5 82t-83.5 213q0 82 33.5 159t90 133.5
t134 90.5t161.5 34z" />
    <glyph glyph-name="cacute" unicode="&#x107;" horiz-adv-x="539" 
d="M481 601l-245 -54l35 123l246 57zM251 -14q-106 0 -171.5 62.5t-65.5 164.5q0 127 91 217.5t220 90.5q80 0 135 -34.5t78 -97.5l-122 -67q-26 71 -110 71q-61 0 -106 -48.5t-45 -116.5q0 -55 33.5 -86t84.5 -31q72 0 131 77l94 -71q-96 -131 -247 -131z" />
    <glyph glyph-name="Ccircumflex" unicode="&#x108;" horiz-adv-x="706" 
d="M672 823l-30 -101l-119 37l-171 -39l30 103l160 54zM463 698q97 0 170.5 -45.5t99.5 -126.5l-137 -81q-36 110 -156 110q-100 0 -168.5 -79t-68.5 -181q0 -76 45 -120t121 -44q116 0 197 103l106 -89q-53 -73 -136 -116t-184 -43q-141 0 -224.5 82t-83.5 213
q0 82 33.5 159t90 133.5t134 90.5t161.5 34z" />
    <glyph glyph-name="ccircumflex" unicode="&#x109;" horiz-adv-x="539" 
d="M522 651l-30 -101l-119 37l-171 -39l30 103l160 54zM251 -14q-106 0 -171.5 62.5t-65.5 164.5q0 127 91 217.5t220 90.5q80 0 135 -34.5t78 -97.5l-122 -67q-26 71 -110 71q-61 0 -106 -48.5t-45 -116.5q0 -55 33.5 -86t84.5 -31q72 0 131 77l94 -71q-96 -131 -247 -131z
" />
    <glyph glyph-name="Cdotaccent" unicode="&#x10a;" horiz-adv-x="706" 
d="M570 729h-140l36 128h140zM463 698q97 0 170.5 -45.5t99.5 -126.5l-137 -81q-36 110 -156 110q-100 0 -168.5 -79t-68.5 -181q0 -76 45 -120t121 -44q116 0 197 103l106 -89q-53 -73 -136 -116t-184 -43q-141 0 -224.5 82t-83.5 213q0 82 33.5 159t90 133.5t134 90.5
t161.5 34z" />
    <glyph glyph-name="cdotaccent" unicode="&#x10b;" horiz-adv-x="539" 
d="M420 557h-140l36 128h140zM251 -14q-106 0 -171.5 62.5t-65.5 164.5q0 127 91 217.5t220 90.5q80 0 135 -34.5t78 -97.5l-122 -67q-26 71 -110 71q-61 0 -106 -48.5t-45 -116.5q0 -55 33.5 -86t84.5 -31q72 0 131 77l94 -71q-96 -131 -247 -131z" />
    <glyph glyph-name="Ccaron" unicode="&#x10c;" horiz-adv-x="706" 
d="M366 770l30 101l119 -37l171 39l-30 -103l-160 -54zM463 698q97 0 170.5 -45.5t99.5 -126.5l-137 -81q-36 110 -156 110q-100 0 -168.5 -79t-68.5 -181q0 -76 45 -120t121 -44q116 0 197 103l106 -89q-53 -73 -136 -116t-184 -43q-141 0 -224.5 82t-83.5 213
q0 82 33.5 159t90 133.5t134 90.5t161.5 34z" />
    <glyph glyph-name="ccaron" unicode="&#x10d;" horiz-adv-x="539" 
d="M216 598l30 101l119 -37l171 39l-30 -103l-160 -54zM251 -14q-106 0 -171.5 62.5t-65.5 164.5q0 127 91 217.5t220 90.5q80 0 135 -34.5t78 -97.5l-122 -67q-26 71 -110 71q-61 0 -106 -48.5t-45 -116.5q0 -55 33.5 -86t84.5 -31q72 0 131 77l94 -71q-96 -131 -247 -131z
" />
    <glyph glyph-name="Dcaron" unicode="&#x10e;" horiz-adv-x="691" 
d="M344 770l30 101l119 -37l171 39l-30 -103l-160 -54zM287 0h-319l196 685h216q140 0 227 -81t87 -211q0 -157 -118.5 -275t-288.5 -118zM367 543h-88l-115 -401h136q106 0 171 71t65 166q0 76 -46.5 120t-122.5 44z" />
    <glyph glyph-name="dcaron" unicode="&#x10f;" horiz-adv-x="790" 
d="M851 563l-85 -119h-92l65 96h-38l42 145h143zM418 275q0 49 -32.5 82.5t-83.5 33.5q-63 0 -108.5 -49t-45.5 -112q0 -52 32.5 -83t82.5 -31q62 0 108.5 48t46.5 111zM349 0l11 39q-56 -43 -132 -43q-93 0 -155 61t-62 157q0 122 91 213.5t207 91.5q49 0 93.5 -20
t69.5 -51l68 237h139l-196 -685h-134z" />
    <glyph glyph-name="Dcroat" unicode="&#x110;" horiz-adv-x="701" 
d="M298 0h-319l80 278h-49l37 131h49l79 276h216q140 0 227 -81t87 -211q0 -157 -118.5 -275t-288.5 -118zM175 142h136q106 0 171 71t65 166q0 76 -46.5 120t-122.5 44h-88l-38 -134h122l-37 -131h-123z" />
    <glyph glyph-name="dcroat" unicode="&#x111;" horiz-adv-x="582" 
d="M418 275q0 49 -32.5 82.5t-83.5 33.5q-63 0 -108.5 -49t-45.5 -112q0 -52 32.5 -83t82.5 -31q62 0 108.5 48t46.5 111zM349 0l11 39q-56 -43 -132 -43q-93 0 -155 61t-62 157q0 122 91 213.5t207 91.5q49 0 93.5 -20t69.5 -51l25 89h-101l31 107h101l12 41h139l-12 -41
h31l-31 -107h-30l-154 -537h-134z" />
    <glyph glyph-name="Emacron" unicode="&#x112;" horiz-adv-x="563" 
d="M561 743h-272l35 123h272zM-32 0l196 685h492l-40 -140h-337l-37 -129h311l-39 -136h-311l-40 -140h338l-40 -140h-493z" />
    <glyph glyph-name="emacron" unicode="&#x113;" horiz-adv-x="561" 
d="M492 571h-272l35 123h272zM493 102q-91 -115 -240 -115q-112 0 -177 64.5t-65 165.5q0 125 90.5 215.5t216.5 90.5q106 0 164 -60.5t58 -149.5q0 -58 -14 -100h-380q4 -50 37.5 -79.5t88.5 -29.5q74 0 131 67zM303 409q-93 0 -135 -93h238q-2 40 -26.5 66.5t-76.5 26.5z
" />
    <glyph glyph-name="Ebreve" unicode="&#x114;" horiz-adv-x="563" 
d="M606 876l-31 -107q-58 -50 -152 -50q-49 0 -83.5 18.5t-48.5 44.5l28 94q50 -43 132 -43q81 0 155 43zM-32 0l196 685h492l-40 -140h-337l-37 -129h311l-39 -136h-311l-40 -140h338l-40 -140h-493z" />
    <glyph glyph-name="ebreve" unicode="&#x115;" horiz-adv-x="561" 
d="M537 704l-31 -107q-58 -50 -152 -50q-49 0 -83.5 18.5t-48.5 44.5l28 94q50 -43 132 -43q81 0 155 43zM493 102q-91 -115 -240 -115q-112 0 -177 64.5t-65 165.5q0 125 90.5 215.5t216.5 90.5q106 0 164 -60.5t58 -149.5q0 -58 -14 -100h-380q4 -50 37.5 -79.5
t88.5 -29.5q74 0 131 67zM303 409q-93 0 -135 -93h238q-2 40 -26.5 66.5t-76.5 26.5z" />
    <glyph glyph-name="Edotaccent" unicode="&#x116;" horiz-adv-x="563" 
d="M491 729h-140l36 128h140zM-32 0l196 685h492l-40 -140h-337l-37 -129h311l-39 -136h-311l-40 -140h338l-40 -140h-493z" />
    <glyph glyph-name="edotaccent" unicode="&#x117;" horiz-adv-x="561" 
d="M422 557h-140l36 128h140zM493 102q-91 -115 -240 -115q-112 0 -177 64.5t-65 165.5q0 125 90.5 215.5t216.5 90.5q106 0 164 -60.5t58 -149.5q0 -58 -14 -100h-380q4 -50 37.5 -79.5t88.5 -29.5q74 0 131 67zM303 409q-93 0 -135 -93h238q-2 40 -26.5 66.5t-76.5 26.5z
" />
    <glyph glyph-name="Eogonek" unicode="&#x118;" horiz-adv-x="572" 
d="M423 -165q-28 -18 -70 -18q-38 0 -58.5 17t-20.5 45q0 36 25 70t61 51h-391l196 685h492l-40 -140h-337l-37 -129h311l-39 -136h-311l-40 -140h338l-40 -140h-23q-34 -15 -55 -41.5t-21 -46.5q0 -24 31 -24q12 0 23.5 2t16.5 4l6 3z" />
    <glyph glyph-name="eogonek" unicode="&#x119;" horiz-adv-x="561" 
d="M220 -183q-38 0 -58.5 17t-20.5 45q0 32 19 61.5t49 49.5q-92 13 -144.5 75t-52.5 152q0 125 90.5 215.5t216.5 90.5q106 0 164 -60.5t58 -149.5q0 -58 -14 -100h-380q4 -50 37.5 -79.5t88.5 -29.5q74 0 131 67l90 -69q-81 -101 -209 -114q-25 -16 -40 -38t-15 -38
q0 -24 31 -24q12 0 23.5 2t17.5 4l5 3l-17 -62q-28 -18 -70 -18zM304 409q-93 0 -135 -93h238q-2 40 -26.5 66.5t-76.5 26.5z" />
    <glyph glyph-name="Ecaron" unicode="&#x11a;" horiz-adv-x="563" 
d="M287 770l30 101l119 -37l171 39l-30 -103l-160 -54zM-32 0l196 685h492l-40 -140h-337l-37 -129h311l-39 -136h-311l-40 -140h338l-40 -140h-493z" />
    <glyph glyph-name="ecaron" unicode="&#x11b;" horiz-adv-x="561" 
d="M218 598l30 101l119 -37l171 39l-30 -103l-160 -54zM493 102q-91 -115 -240 -115q-112 0 -177 64.5t-65 165.5q0 125 90.5 215.5t216.5 90.5q106 0 164 -60.5t58 -149.5q0 -58 -14 -100h-380q4 -50 37.5 -79.5t88.5 -29.5q74 0 131 67zM303 409q-93 0 -135 -93h238
q-2 40 -26.5 66.5t-76.5 26.5z" />
    <glyph glyph-name="Gcircumflex" unicode="&#x11c;" horiz-adv-x="757" 
d="M674 823l-30 -101l-119 37l-171 -39l30 103l160 54zM769 384q-22 -130 -85.5 -222t-148 -134t-182.5 -42q-142 0 -226.5 83t-84.5 212q0 75 31 149t85 133.5t136.5 96t177.5 36.5q111 0 186 -47t98 -123l-139 -82q-36 107 -166 107q-107 0 -179 -80t-72 -179
q0 -74 45.5 -118.5t123.5 -44.5q62 0 112.5 31t78.5 89h-187l43 135h353z" />
    <glyph glyph-name="gcircumflex" unicode="&#x11d;" horiz-adv-x="578" 
d="M516 651l-30 -101l-119 37l-171 -39l30 103l160 54zM412 278q0 48 -31.5 80.5t-81.5 32.5q-60 0 -105.5 -47.5t-45.5 -110.5q0 -49 31 -80t81 -31q62 0 107 47.5t45 108.5zM176 -191q-176 0 -223 125l115 68q31 -72 120 -72q109 0 153 100q-49 -29 -114 -29
q-93 0 -154.5 62t-61.5 156q0 118 86.5 209t204.5 91q52 0 96 -19.5t68 -50.5l19 64h139l-138 -476q-31 -107 -114 -167.5t-196 -60.5z" />
    <glyph glyph-name="Gbreve" unicode="&#x11e;" horiz-adv-x="757" 
d="M687 876l-31 -107q-58 -50 -152 -50q-49 0 -83.5 18.5t-48.5 44.5l28 94q50 -43 132 -43q81 0 155 43zM769 384q-22 -130 -85.5 -222t-148 -134t-182.5 -42q-142 0 -226.5 83t-84.5 212q0 75 31 149t85 133.5t136.5 96t177.5 36.5q111 0 186 -47t98 -123l-139 -82
q-36 107 -166 107q-107 0 -179 -80t-72 -179q0 -74 45.5 -118.5t123.5 -44.5q62 0 112.5 31t78.5 89h-187l43 135h353z" />
    <glyph glyph-name="gbreve" unicode="&#x11f;" horiz-adv-x="578" 
d="M529 704l-31 -107q-58 -50 -152 -50q-49 0 -83.5 18.5t-48.5 44.5l28 94q50 -43 132 -43q81 0 155 43zM412 278q0 48 -31.5 80.5t-81.5 32.5q-60 0 -105.5 -47.5t-45.5 -110.5q0 -49 31 -80t81 -31q62 0 107 47.5t45 108.5zM176 -191q-176 0 -223 125l115 68
q31 -72 120 -72q109 0 153 100q-49 -29 -114 -29q-93 0 -154.5 62t-61.5 156q0 118 86.5 209t204.5 91q52 0 96 -19.5t68 -50.5l19 64h139l-138 -476q-31 -107 -114 -167.5t-196 -60.5z" />
    <glyph glyph-name="Gdotaccent" unicode="&#x120;" horiz-adv-x="757" 
d="M572 729h-140l36 128h140zM769 384q-22 -130 -85.5 -222t-148 -134t-182.5 -42q-142 0 -226.5 83t-84.5 212q0 75 31 149t85 133.5t136.5 96t177.5 36.5q111 0 186 -47t98 -123l-139 -82q-36 107 -166 107q-107 0 -179 -80t-72 -179q0 -74 45.5 -118.5t123.5 -44.5
q62 0 112.5 31t78.5 89h-187l43 135h353z" />
    <glyph glyph-name="gdotaccent" unicode="&#x121;" horiz-adv-x="578" 
d="M414 557h-140l36 128h140zM412 278q0 48 -31.5 80.5t-81.5 32.5q-60 0 -105.5 -47.5t-45.5 -110.5q0 -49 31 -80t81 -31q62 0 107 47.5t45 108.5zM176 -191q-176 0 -223 125l115 68q31 -72 120 -72q109 0 153 100q-49 -29 -114 -29q-93 0 -154.5 62t-61.5 156
q0 118 86.5 209t204.5 91q52 0 96 -19.5t68 -50.5l19 64h139l-138 -476q-31 -107 -114 -167.5t-196 -60.5z" />
    <glyph glyph-name="uni0122" unicode="&#x122;" horiz-adv-x="757" 
d="M769 384q-22 -130 -85.5 -222t-148 -134t-182.5 -42q-142 0 -226.5 83t-84.5 212q0 75 31 149t85 133.5t136.5 96t177.5 36.5q111 0 186 -47t98 -123l-139 -82q-36 107 -166 107q-107 0 -179 -80t-72 -179q0 -74 45.5 -118.5t123.5 -44.5q62 0 112.5 31t78.5 89h-187
l43 135h353zM362 -124l-65 -94h-89l51 70h-32l31 107h128z" />
    <glyph glyph-name="uni0123" unicode="&#x123;" horiz-adv-x="578" 
d="M328 640l65 94h89l-51 -70h32l-31 -107h-128zM412 278q0 48 -31.5 80.5t-81.5 32.5q-60 0 -105.5 -47.5t-45.5 -110.5q0 -49 31 -80t81 -31q62 0 107 47.5t45 108.5zM176 -191q-176 0 -223 125l115 68q31 -72 120 -72q109 0 153 100q-49 -29 -114 -29q-93 0 -154.5 62
t-61.5 156q0 118 86.5 209t204.5 91q52 0 96 -19.5t68 -50.5l19 64h139l-138 -476q-31 -107 -114 -167.5t-196 -60.5z" />
    <glyph glyph-name="Hcircumflex" unicode="&#x124;" horiz-adv-x="673" 
d="M643 823l-30 -101l-119 37l-171 -39l30 103l160 54zM402 0l77 268h-279l-77 -268h-155l196 685h155l-78 -275h279l78 275h155l-196 -685h-155z" />
    <glyph glyph-name="hcircumflex" unicode="&#x125;" 
d="M410 823l-30 -101l-119 37l-171 -39l30 103l160 54zM174 280l-81 -280h-139l196 685h139l-63 -220q74 57 159 57q81 0 121.5 -58.5t14.5 -148.5l-90 -315h-138l83 291q13 45 -7 74t-62 29q-49 0 -83.5 -30.5t-49.5 -83.5z" />
    <glyph glyph-name="Hbar" unicode="&#x126;" horiz-adv-x="673" 
d="M242 410h279l22 78h-279zM201 268l-77 -268h-155l140 488h-47l37 131h47l19 66h155l-19 -66h279l19 66h155l-19 -66h47l-37 -131h-47l-140 -488h-155l77 268h-279z" />
    <glyph glyph-name="hbar" unicode="&#x127;" 
d="M174 280l-81 -280h-139l154 537h-28l31 107h27l12 41h139l-12 -41h105l-31 -107h-104l-21 -72q74 57 159 57q81 0 121.5 -58.5t14.5 -148.5l-90 -315h-138l83 291q13 45 -7 74t-62 29q-49 0 -83.5 -30.5t-49.5 -83.5z" />
    <glyph glyph-name="Itilde" unicode="&#x128;" horiz-adv-x="237" 
d="M183 751q-38 0 -78 -26l28 94q48 41 99 41q30 0 68.5 -16t60.5 -16q38 0 78 26l-28 -94q-48 -41 -100 -41q-30 0 -68 16t-60 16zM123 0h-155l196 685h155z" />
    <glyph glyph-name="itilde" unicode="&#x129;" horiz-adv-x="195" 
d="M113 579q-38 0 -78 -26l28 94q48 41 99 41q30 0 68.5 -16t60.5 -16q38 0 78 26l-28 -94q-48 -41 -100 -41q-30 0 -68 16t-60 16zM93 0h-139l147 513h139z" />
    <glyph glyph-name="Imacron" unicode="&#x12a;" horiz-adv-x="237" 
d="M394 743h-272l35 123h272zM123 0h-155l196 685h155z" />
    <glyph glyph-name="imacron" unicode="&#x12b;" horiz-adv-x="195" 
d="M324 571h-272l35 123h272zM93 0h-139l147 513h139z" />
    <glyph glyph-name="Ibreve" unicode="&#x12c;" horiz-adv-x="237" 
d="M439 876l-31 -107q-58 -50 -152 -50q-49 0 -83.5 18.5t-48.5 44.5l28 94q50 -43 132 -43q81 0 155 43zM123 0h-155l196 685h155z" />
    <glyph glyph-name="ibreve" unicode="&#x12d;" horiz-adv-x="195" 
d="M369 704l-31 -107q-58 -50 -152 -50q-49 0 -83.5 18.5t-48.5 44.5l28 94q50 -43 132 -43q81 0 155 43zM93 0h-139l147 513h139z" />
    <glyph glyph-name="Iogonek" unicode="&#x12e;" horiz-adv-x="237" 
d="M81 -165q-28 -18 -70 -18q-38 0 -58.5 17t-20.5 45q0 36 25 70t61 51h-49l196 685h155l-196 -685h-27q-34 -15 -55 -41.5t-21 -46.5q0 -24 31 -24q12 0 23.5 2t16.5 4l6 3z" />
    <glyph glyph-name="iogonek" unicode="&#x12f;" horiz-adv-x="196" 
d="M254 557h-139l36 128h139zM56 -165q-28 -18 -70 -18q-38 0 -58.5 17t-20.5 45q0 36 25 70t61 51h-38l147 513h139l-147 -513h-22q-34 -15 -55 -41.5t-21 -46.5q0 -24 31 -24q12 0 23.5 2t17.5 4l5 3z" />
    <glyph glyph-name="dotlessi" unicode="&#x131;" horiz-adv-x="195" 
d="M93 0h-139l147 513h139z" />
    <glyph glyph-name="IJ" unicode="&#x132;" horiz-adv-x="804" 
d="M123 0h-155l196 685h155zM256 245h154q-14 -56 9 -85t70 -29q41 0 71.5 28t44.5 77l129 449h154l-134 -470q-30 -108 -102 -167.5t-176 -59.5q-118 0 -180 67.5t-40 189.5z" />
    <glyph glyph-name="ij" unicode="&#x133;" horiz-adv-x="390" 
d="M448 557h-139l36 128h139zM253 557h-139l36 128h139zM93 0h-139l147 513h139zM296 513h139l-144 -502q-33 -115 -95 -157t-175 -26l34 122q77 -10 100 70z" />
    <glyph glyph-name="Jcircumflex" unicode="&#x134;" horiz-adv-x="567" 
d="M759 823l-30 -101l-119 37l-171 -39l30 103l160 54zM19 245h154q-14 -56 9 -85t70 -29q41 0 71.5 28t44.5 77l129 449h154l-134 -470q-30 -108 -102 -167.5t-176 -59.5q-118 0 -180 67.5t-40 189.5z" />
    <glyph glyph-name="jcircumflex" unicode="&#x135;" horiz-adv-x="195" 
d="M355 651l-30 -101l-119 37l-171 -39l30 103l160 54zM101 513h139l-144 -502q-33 -115 -95 -157t-175 -26l34 122q77 -10 100 70z" />
    <glyph glyph-name="uni0136" unicode="&#x136;" horiz-adv-x="619" 
d="M372 0l-160 312l-89 -312h-155l196 685h155l-86 -300l300 300h201l-364 -342l180 -343h-178zM276 -125l-65 -94h-89l51 70h-32l31 107h128z" />
    <glyph glyph-name="uni0137" unicode="&#x137;" horiz-adv-x="498" 
d="M268 0l-110 224l-64 -224h-140l196 685h140l-110 -384l210 212h175l-269 -257l129 -256h-157zM210 -125l-65 -94h-89l51 70h-32l31 107h128z" />
    <glyph glyph-name="kgreenlandic" unicode="&#x138;" horiz-adv-x="498" 
d="M268 0l-110 224l-64 -224h-140l147 513h140l-61 -212l210 212h175l-269 -257l129 -256h-157z" />
    <glyph glyph-name="Lacute" unicode="&#x139;" horiz-adv-x="535" 
d="M383 773l-245 -54l35 123l246 57zM-32 0l196 685h155l-155 -543h309l-41 -142h-464z" />
    <glyph glyph-name="lacute" unicode="&#x13a;" horiz-adv-x="196" 
d="M364 773l-245 -54l35 123l246 57zM94 0h-140l196 685h140z" />
    <glyph glyph-name="uni013B" unicode="&#x13b;" horiz-adv-x="535" 
d="M-32 0l196 685h155l-155 -543h309l-41 -142h-464zM234 -125l-65 -94h-89l51 70h-32l31 107h128z" />
    <glyph glyph-name="uni013C" unicode="&#x13c;" horiz-adv-x="196" 
d="M94 0h-140l196 685h140zM52 -125l-65 -94h-89l51 70h-32l31 107h128z" />
    <glyph glyph-name="Lcaron" unicode="&#x13d;" horiz-adv-x="535" 
d="M551 563l-85 -119h-92l65 96h-38l42 145h143zM-32 0l196 685h155l-155 -543h309l-41 -142h-464z" />
    <glyph glyph-name="lcaron" unicode="&#x13e;" horiz-adv-x="399" 
d="M461 563l-85 -119h-92l65 96h-38l42 145h143zM94 0h-140l196 685h140z" />
    <glyph glyph-name="Ldot" unicode="&#x13f;" horiz-adv-x="535" 
d="M-32 0l196 685h155l-155 -543h309l-41 -142h-464zM467 309h-140l36 128h140z" />
    <glyph glyph-name="ldot" unicode="&#x140;" horiz-adv-x="380" 
d="M94 0h-140l196 685h140zM357 257h-140l36 128h140z" />
    <glyph glyph-name="Lslash" unicode="&#x141;" horiz-adv-x="545" 
d="M443 0h-464l82 287l-51 -24l31 107l51 24l83 291h155l-59 -206l89 42l-31 -108l-89 -42l-65 -229h309z" />
    <glyph glyph-name="lslash" unicode="&#x142;" horiz-adv-x="197" 
d="M95 0h-140l82 287l-41 -20l29 102l41 20l85 296h140l-62 -216l46 22l-30 -103l-45 -22z" />
    <glyph glyph-name="Nacute" unicode="&#x143;" horiz-adv-x="668" 
d="M601 773l-245 -54l35 123l246 57zM388 0l-143 441l-126 -441h-151l196 685h164l143 -440l126 440h151l-196 -685h-164z" />
    <glyph glyph-name="nacute" unicode="&#x144;" 
d="M492 601l-245 -54l35 123l246 57zM174 280l-81 -280h-139l147 513h137l-14 -51q72 60 161 60q81 0 121.5 -58.5t14.5 -148.5l-90 -315h-138l83 291q13 45 -7 74t-62 29q-49 0 -83.5 -30.5t-49.5 -83.5z" />
    <glyph glyph-name="uni0145" unicode="&#x145;" horiz-adv-x="668" 
d="M388 0l-143 441l-126 -441h-151l196 685h164l143 -440l126 440h151l-196 -685h-164zM287 -125l-65 -94h-89l51 70h-32l31 107h128z" />
    <glyph glyph-name="uni0146" unicode="&#x146;" 
d="M174 280l-81 -280h-139l147 513h137l-14 -51q72 60 161 60q81 0 121.5 -58.5t14.5 -148.5l-90 -315h-138l83 291q13 45 -7 74t-62 29q-49 0 -83.5 -30.5t-49.5 -83.5zM225 -125l-65 -94h-89l51 70h-32l31 107h128z" />
    <glyph glyph-name="Ncaron" unicode="&#x147;" horiz-adv-x="668" 
d="M336 770l30 101l119 -37l171 39l-30 -103l-160 -54zM388 0l-143 441l-126 -441h-151l196 685h164l143 -440l126 440h151l-196 -685h-164z" />
    <glyph glyph-name="ncaron" unicode="&#x148;" 
d="M227 598l30 101l119 -37l171 39l-30 -103l-160 -54zM174 280l-81 -280h-139l147 513h137l-14 -51q72 60 161 60q81 0 121.5 -58.5t14.5 -148.5l-90 -315h-138l83 291q13 45 -7 74t-62 29q-49 0 -83.5 -30.5t-49.5 -83.5z" />
    <glyph glyph-name="napostrophe" unicode="&#x149;" 
d="M273 667l-65 -94h-89l51 70h-32l31 107h128zM174 280l-81 -280h-139l147 513h137l-14 -51q72 60 161 60q81 0 121.5 -58.5t14.5 -148.5l-90 -315h-138l83 291q13 45 -7 74t-62 29q-49 0 -83.5 -30.5t-49.5 -83.5z" />
    <glyph glyph-name="Eng" unicode="&#x14a;" horiz-adv-x="668" 
d="M555 11q-33 -115 -95 -157t-175 -26l34 122q58 -7 77 26l-151 465l-126 -441h-151l196 685h164l143 -440l126 440h151z" />
    <glyph glyph-name="eng" unicode="&#x14b;" 
d="M434 11q-33 -115 -94.5 -157t-174.5 -26l34 122q77 -10 100 70l77 271q13 45 -7 74t-62 29q-49 0 -83.5 -30.5t-49.5 -83.5l-81 -280h-139l147 513h137l-14 -51q72 60 161 60q81 0 121.5 -58.5t14.5 -148.5z" />
    <glyph glyph-name="Omacron" unicode="&#x14c;" horiz-adv-x="763" 
d="M620 743h-272l35 123h272zM359 -15q-138 0 -226 87t-88 218q0 162 121.5 286t285.5 124q138 0 226 -87t88 -218q0 -162 -121.5 -286t-285.5 -124zM439 555q-95 0 -166 -78t-71 -175q0 -74 47.5 -123t122.5 -49q95 0 165.5 77.5t70.5 175.5q0 74 -47 123t-122 49z" />
    <glyph glyph-name="omacron" unicode="&#x14d;" horiz-adv-x="577" 
d="M497 571h-272l35 123h272zM323 524q102 0 170.5 -64t68.5 -165q0 -118 -89.5 -212.5t-218.5 -94.5q-102 0 -170.5 64t-68.5 165q0 118 89.5 212.5t218.5 94.5zM424 283q0 51 -31 83t-80 32q-65 0 -112.5 -50.5t-47.5 -118.5q0 -51 31 -83t80 -32q65 0 112.5 50.5
t47.5 118.5z" />
    <glyph glyph-name="Obreve" unicode="&#x14e;" horiz-adv-x="763" 
d="M665 876l-31 -107q-58 -50 -152 -50q-49 0 -83.5 18.5t-48.5 44.5l28 94q50 -43 132 -43q81 0 155 43zM359 -15q-138 0 -226 87t-88 218q0 162 121.5 286t285.5 124q138 0 226 -87t88 -218q0 -162 -121.5 -286t-285.5 -124zM439 555q-95 0 -166 -78t-71 -175
q0 -74 47.5 -123t122.5 -49q95 0 165.5 77.5t70.5 175.5q0 74 -47 123t-122 49z" />
    <glyph glyph-name="obreve" unicode="&#x14f;" horiz-adv-x="577" 
d="M542 704l-31 -107q-58 -50 -152 -50q-49 0 -83.5 18.5t-48.5 44.5l28 94q50 -43 132 -43q81 0 155 43zM323 524q102 0 170.5 -64t68.5 -165q0 -118 -89.5 -212.5t-218.5 -94.5q-102 0 -170.5 64t-68.5 165q0 118 89.5 212.5t218.5 94.5zM424 283q0 51 -31 83t-80 32
q-65 0 -112.5 -50.5t-47.5 -118.5q0 -51 31 -83t80 -32q65 0 112.5 50.5t47.5 118.5z" />
    <glyph glyph-name="Ohungarumlaut" unicode="&#x150;" horiz-adv-x="763" 
d="M621 730h-132l94 147h136zM452 730h-132l90 147h136zM359 -15q-138 0 -226 87t-88 218q0 162 121.5 286t285.5 124q138 0 226 -87t88 -218q0 -162 -121.5 -286t-285.5 -124zM439 555q-95 0 -166 -78t-71 -175q0 -74 47.5 -123t122.5 -49q95 0 165.5 77.5t70.5 175.5
q0 74 -47 123t-122 49z" />
    <glyph glyph-name="ohungarumlaut" unicode="&#x151;" horiz-adv-x="577" 
d="M498 558h-132l94 147h136zM329 558h-132l90 147h136zM323 524q102 0 170.5 -64t68.5 -165q0 -118 -89.5 -212.5t-218.5 -94.5q-102 0 -170.5 64t-68.5 165q0 118 89.5 212.5t218.5 94.5zM424 283q0 51 -31 83t-80 32q-65 0 -112.5 -50.5t-47.5 -118.5q0 -51 31 -83
t80 -32q65 0 112.5 50.5t47.5 118.5z" />
    <glyph glyph-name="OE" unicode="&#x152;" horiz-adv-x="1025" 
d="M370 0q-140 0 -227 81t-87 211q0 157 118.5 275t288.5 118h655l-40 -140h-336l-37 -129h311l-39 -136h-311l-40 -140h338l-40 -140h-554zM383 142h88l115 401h-136q-106 0 -171 -71t-65 -166q0 -76 46.5 -120t122.5 -44z" />
    <glyph glyph-name="oe" unicode="&#x153;" horiz-adv-x="963" 
d="M903 102q-91 -115 -240 -115q-131 0 -198 88q-90 -87 -211 -87q-102 0 -170.5 64t-68.5 165q0 118 89.5 212.5t218.5 94.5q123 0 192 -88q90 87 213 87q106 0 164 -60.5t58 -149.5q0 -58 -14 -100h-380q4 -50 37.5 -79.5t88.5 -29.5q74 0 131 67zM713 409q-93 0 -135 -93
h238q-2 40 -26.5 66.5t-76.5 26.5zM424 283q0 51 -31 83t-80 32q-65 0 -112.5 -50.5t-47.5 -118.5q0 -51 31 -83t80 -32q65 0 112.5 50.5t47.5 118.5z" />
    <glyph glyph-name="Racute" unicode="&#x154;" horiz-adv-x="611" 
d="M574 772l-245 -54l35 123l246 57zM226 360h105q64 0 100.5 30t36.5 83q0 31 -18 50.5t-54 19.5h-117zM332 0l-140 239l-69 -239h-155l196 685h252q101 0 155.5 -54t54.5 -137q0 -100 -68.5 -176.5t-190.5 -85.5l148 -232h-183z" />
    <glyph glyph-name="racute" unicode="&#x155;" horiz-adv-x="334" 
d="M425 601l-245 -54l35 123l246 57zM387 520l-40 -140q-143 0 -186 -146l-67 -234h-140l147 513h139l-20 -71q3 3 8 8.5t22 19t35 23.5t46 18.5t56 8.5z" />
    <glyph glyph-name="uni0156" unicode="&#x156;" horiz-adv-x="611" 
d="M226 360h105q64 0 100.5 30t36.5 83q0 31 -18 50.5t-54 19.5h-117zM332 0l-140 239l-69 -239h-155l196 685h252q101 0 155.5 -54t54.5 -137q0 -100 -68.5 -176.5t-190.5 -85.5l148 -232h-183zM267 -125l-65 -94h-89l51 70h-32l31 107h128z" />
    <glyph glyph-name="uni0157" unicode="&#x157;" horiz-adv-x="334" 
d="M387 520l-40 -140q-143 0 -186 -146l-67 -234h-140l147 513h139l-20 -71q3 3 8 8.5t22 19t35 23.5t46 18.5t56 8.5zM52 -125l-65 -94h-89l51 70h-32l31 107h128z" />
    <glyph glyph-name="Rcaron" unicode="&#x158;" horiz-adv-x="611" 
d="M309 769l30 101l119 -37l171 39l-30 -103l-160 -54zM226 360h105q64 0 100.5 30t36.5 83q0 31 -18 50.5t-54 19.5h-117zM332 0l-140 239l-69 -239h-155l196 685h252q101 0 155.5 -54t54.5 -137q0 -100 -68.5 -176.5t-190.5 -85.5l148 -232h-183z" />
    <glyph glyph-name="rcaron" unicode="&#x159;" horiz-adv-x="334" 
d="M160 598l30 101l119 -37l171 39l-30 -103l-160 -54zM387 520l-40 -140q-143 0 -186 -146l-67 -234h-140l147 513h139l-20 -71q3 3 8 8.5t22 19t35 23.5t46 18.5t56 8.5z" />
    <glyph glyph-name="Sacute" unicode="&#x15a;" horiz-adv-x="588" 
d="M532 773l-245 -54l35 123l246 57zM267 -13q-139 0 -204.5 60t-55.5 167h155q-6 -46 21 -74.5t93 -28.5q53 0 80.5 20.5t27.5 50.5q0 21 -17 38.5t-36.5 27t-56.5 24.5q-90 36 -135 84t-45 120q0 100 73.5 162.5t194.5 62.5q126 0 189 -63t55 -164h-154q7 47 -21.5 74
t-83.5 27q-45 0 -71 -20.5t-26 -51.5t29.5 -52t86.5 -43q43 -17 70.5 -30.5t56.5 -36t43.5 -52.5t14.5 -68q0 -97 -72 -165.5t-212 -68.5z" />
    <glyph glyph-name="sacute" unicode="&#x15b;" horiz-adv-x="491" 
d="M444 601l-245 -54l35 123l246 57zM-7 161h140q-5 -36 17.5 -53.5t62.5 -17.5q37 0 57.5 14t20.5 34q0 18 -21 30t-68 23q-33 8 -58 17.5t-49 26t-37 41.5t-13 58q0 82 64 133.5t171 51.5q95 0 144 -45t39 -125h-138q10 66 -65 66q-33 0 -52 -14t-19 -34q0 -19 22.5 -32
t77.5 -27q71 -19 110.5 -50.5t39.5 -85.5q0 -80 -63 -131t-179 -51q-107 0 -162 45.5t-42 125.5z" />
    <glyph glyph-name="Scircumflex" unicode="&#x15c;" horiz-adv-x="588" 
d="M573 823l-30 -101l-119 37l-171 -39l30 103l160 54zM267 -13q-139 0 -204.5 60t-55.5 167h155q-6 -46 21 -74.5t93 -28.5q53 0 80.5 20.5t27.5 50.5q0 21 -17 38.5t-36.5 27t-56.5 24.5q-90 36 -135 84t-45 120q0 100 73.5 162.5t194.5 62.5q126 0 189 -63t55 -164h-154
q7 47 -21.5 74t-83.5 27q-45 0 -71 -20.5t-26 -51.5t29.5 -52t86.5 -43q43 -17 70.5 -30.5t56.5 -36t43.5 -52.5t14.5 -68q0 -97 -72 -165.5t-212 -68.5z" />
    <glyph glyph-name="scircumflex" unicode="&#x15d;" horiz-adv-x="491" 
d="M485 651l-30 -101l-119 37l-171 -39l30 103l160 54zM-7 161h140q-5 -36 17.5 -53.5t62.5 -17.5q37 0 57.5 14t20.5 34q0 18 -21 30t-68 23q-33 8 -58 17.5t-49 26t-37 41.5t-13 58q0 82 64 133.5t171 51.5q95 0 144 -45t39 -125h-138q10 66 -65 66q-33 0 -52 -14t-19 -34
q0 -19 22.5 -32t77.5 -27q71 -19 110.5 -50.5t39.5 -85.5q0 -80 -63 -131t-179 -51q-107 0 -162 45.5t-42 125.5z" />
    <glyph glyph-name="uni015E" unicode="&#x15e;" horiz-adv-x="588" 
d="M190 -217q-42 0 -64.5 26t-15.5 64h70q-2 -11 4 -18.5t17 -7.5q10 0 19.5 7t12.5 17q4 13 -2 21t-18 8h-73l66 90q-108 13 -158 71.5t-41 152.5h155q-6 -46 21 -74.5t93 -28.5q53 0 80.5 20.5t27.5 50.5q0 21 -17 38.5t-36.5 27t-56.5 24.5q-90 36 -135 84t-45 120
q0 100 73.5 162.5t194.5 62.5q126 0 189 -63t55 -164h-154q7 47 -21.5 74t-83.5 27q-45 0 -71 -20.5t-26 -51.5t29.5 -52t86.5 -43q43 -17 70.5 -30.5t56.5 -36t43.5 -52.5t14.5 -68q0 -97 -72 -165.5t-212 -68.5h-4l-23 -29q37 -2 53.5 -26t9.5 -59q-9 -38 -39.5 -64
t-73.5 -26z" />
    <glyph glyph-name="uni015F" unicode="&#x15f;" horiz-adv-x="491" 
d="M125 -217q-42 0 -64.5 26t-15.5 64h70q-2 -11 4 -18.5t17 -7.5q10 0 19.5 7t12.5 17q4 13 -2 21t-18 8h-73l69 93q-82 11 -122 55t-29 113h140q-5 -36 17.5 -53.5t62.5 -17.5q37 0 57.5 14t20.5 34q0 18 -21 30t-68 23q-33 8 -58 17.5t-49 26t-37 41.5t-13 58
q0 82 64 133.5t171 51.5q95 0 144 -45t39 -125h-138q10 66 -65 66q-33 0 -52 -14t-19 -34q0 -19 22.5 -32t77.5 -27q71 -19 110.5 -50.5t39.5 -85.5q0 -79 -62.5 -130.5t-176.5 -51.5l-25 -32q37 -2 53.5 -26t9.5 -59q-9 -38 -39.5 -64t-73.5 -26z" />
    <glyph glyph-name="Scaron" unicode="&#x160;" horiz-adv-x="588" 
d="M267 770l30 101l119 -37l171 39l-30 -103l-160 -54zM267 -13q-139 0 -204.5 60t-55.5 167h155q-6 -46 21 -74.5t93 -28.5q53 0 80.5 20.5t27.5 50.5q0 21 -17 38.5t-36.5 27t-56.5 24.5q-90 36 -135 84t-45 120q0 100 73.5 162.5t194.5 62.5q126 0 189 -63t55 -164h-154
q7 47 -21.5 74t-83.5 27q-45 0 -71 -20.5t-26 -51.5t29.5 -52t86.5 -43q43 -17 70.5 -30.5t56.5 -36t43.5 -52.5t14.5 -68q0 -97 -72 -165.5t-212 -68.5z" />
    <glyph glyph-name="scaron" unicode="&#x161;" horiz-adv-x="491" 
d="M179 598l30 101l119 -37l171 39l-30 -103l-160 -54zM-7 161h140q-5 -36 17.5 -53.5t62.5 -17.5q37 0 57.5 14t20.5 34q0 18 -21 30t-68 23q-33 8 -58 17.5t-49 26t-37 41.5t-13 58q0 82 64 133.5t171 51.5q95 0 144 -45t39 -125h-138q10 66 -65 66q-33 0 -52 -14t-19 -34
q0 -19 22.5 -32t77.5 -27q71 -19 110.5 -50.5t39.5 -85.5q0 -80 -63 -131t-179 -51q-107 0 -162 45.5t-42 125.5z" />
    <glyph glyph-name="uni0162" unicode="&#x162;" horiz-adv-x="584" 
d="M170 -217q-42 0 -64.5 26t-15.5 64h70q-2 -11 4 -18.5t17 -7.5q10 0 19.5 7t12.5 17q4 13 -2 21t-18 8h-73l73 100h-51l156 543h-199l40 142h552l-40 -142h-198l-156 -543h-44l-33 -42q37 -2 53.5 -26t9.5 -59q-9 -38 -39.5 -64t-73.5 -26z" />
    <glyph glyph-name="uni0163" unicode="&#x163;" horiz-adv-x="379" 
d="M111 -217q-42 0 -64.5 26t-15.5 64h70q-2 -11 4 -18.5t17 -7.5q10 0 19.5 7t12.5 17q4 13 -2 21t-18 8h-73l80 109h11q-57 18 -76 70.5t2 121.5l54 188h-72l35 124h72l38 132h139l-38 -132h123l-35 -124h-124l-56 -201q-20 -69 51 -69h52l-35 -119h-65q-15 0 -22 1
l-34 -43q37 -2 53.5 -26t9.5 -59q-9 -38 -39.5 -64t-73.5 -26z" />
    <glyph glyph-name="Tcaron" unicode="&#x164;" horiz-adv-x="584" 
d="M294 770l30 101l119 -37l171 39l-30 -103l-160 -54zM296 0h-155l156 543h-199l40 142h552l-40 -142h-198z" />
    <glyph glyph-name="tcaron" unicode="&#x165;" horiz-adv-x="379" 
d="M526 685l-85 -119h-92l65 96h-38l42 145h143zM269 389l-56 -201q-20 -69 51 -69h52l-35 -119h-65q-94 0 -129.5 56t-9.5 145l54 188h-72l35 124h72l38 132h139l-38 -132h123l-35 -124h-124z" />
    <glyph glyph-name="Tbar" unicode="&#x166;" horiz-adv-x="584" 
d="M507 250h-138l-72 -250h-155l72 250h-137l37 131h137l47 162h-199l40 142h552l-40 -142h-198l-47 -162h138z" />
    <glyph glyph-name="tbar" unicode="&#x167;" horiz-adv-x="379" 
d="M316 119l-35 -119h-65q-94 0 -129.5 56t-9.5 145l4 15h-72l32 112h72l18 61h-72l35 124h72l38 132h139l-38 -132h123l-35 -124h-124l-17 -61h115l-32 -112h-114l-8 -28q-20 -69 51 -69h52z" />
    <glyph glyph-name="Utilde" unicode="&#x168;" horiz-adv-x="655" 
d="M375 751q-38 0 -78 -26l28 94q48 41 99 41q30 0 68.5 -16t60.5 -16q38 0 78 26l-28 -94q-48 -41 -100 -41q-30 0 -68 16t-60 16zM739 685l-129 -453q-33 -115 -111.5 -179.5t-194.5 -64.5q-156 0 -223.5 90.5t-26.5 234.5l106 372h155l-106 -373q-24 -83 4 -131.5
t103 -48.5q111 0 151 143l117 410h155z" />
    <glyph glyph-name="utilde" unicode="&#x169;" 
d="M283 579q-38 0 -78 -26l28 94q48 41 99 41q30 0 68.5 -16t60.5 -16q38 0 78 26l-28 -94q-48 -41 -100 -41q-30 0 -68 16t-60 16zM294 0l14 51q-72 -60 -161 -60q-81 0 -121.5 58.5t-14.5 148.5l90 315h138l-83 -291q-13 -45 7 -74t62 -29q49 0 83.5 30.5t49.5 83.5
l81 280h139l-147 -513h-137z" />
    <glyph glyph-name="Umacron" unicode="&#x16a;" horiz-adv-x="655" 
d="M586 743h-272l35 123h272zM739 685l-129 -453q-33 -115 -111.5 -179.5t-194.5 -64.5q-156 0 -223.5 90.5t-26.5 234.5l106 372h155l-106 -373q-24 -83 4 -131.5t103 -48.5q111 0 151 143l117 410h155z" />
    <glyph glyph-name="umacron" unicode="&#x16b;" 
d="M494 571h-272l35 123h272zM294 0l14 51q-72 -60 -161 -60q-81 0 -121.5 58.5t-14.5 148.5l90 315h138l-83 -291q-13 -45 7 -74t62 -29q49 0 83.5 30.5t49.5 83.5l81 280h139l-147 -513h-137z" />
    <glyph glyph-name="Ubreve" unicode="&#x16c;" horiz-adv-x="655" 
d="M631 876l-31 -107q-58 -50 -152 -50q-49 0 -83.5 18.5t-48.5 44.5l28 94q50 -43 132 -43q81 0 155 43zM739 685l-129 -453q-33 -115 -111.5 -179.5t-194.5 -64.5q-156 0 -223.5 90.5t-26.5 234.5l106 372h155l-106 -373q-24 -83 4 -131.5t103 -48.5q111 0 151 143
l117 410h155z" />
    <glyph glyph-name="ubreve" unicode="&#x16d;" 
d="M539 704l-31 -107q-58 -50 -152 -50q-49 0 -83.5 18.5t-48.5 44.5l28 94q50 -43 132 -43q81 0 155 43zM294 0l14 51q-72 -60 -161 -60q-81 0 -121.5 58.5t-14.5 148.5l90 315h138l-83 -291q-13 -45 7 -74t62 -29q49 0 83.5 30.5t49.5 83.5l81 280h139l-147 -513h-137z
" />
    <glyph glyph-name="Uring" unicode="&#x16e;" horiz-adv-x="655" 
d="M370 811q0 46 35 82t84 36q38 0 63.5 -25t25.5 -63q0 -47 -35 -83t-84 -36q-38 0 -63.5 25t-25.5 64zM510 832q0 15 -9 24t-23 9q-17 0 -28.5 -13t-11.5 -32q0 -15 9 -24t23 -9q17 0 28.5 13.5t11.5 31.5zM739 685l-129 -453q-33 -115 -111.5 -179.5t-194.5 -64.5
q-156 0 -223.5 90.5t-26.5 234.5l106 372h155l-106 -373q-24 -83 4 -131.5t103 -48.5q111 0 151 143l117 410h155z" />
    <glyph glyph-name="uring" unicode="&#x16f;" 
d="M278 639q0 46 35 82t84 36q38 0 63.5 -25t25.5 -63q0 -47 -35 -83t-84 -36q-38 0 -63.5 25t-25.5 64zM418 660q0 15 -9 24t-23 9q-17 0 -28.5 -13t-11.5 -32q0 -15 9 -24t23 -9q17 0 28.5 13.5t11.5 31.5zM294 0l14 51q-72 -60 -161 -60q-81 0 -121.5 58.5t-14.5 148.5
l90 315h138l-83 -291q-13 -45 7 -74t62 -29q49 0 83.5 30.5t49.5 83.5l81 280h139l-147 -513h-137z" />
    <glyph glyph-name="Uhungarumlaut" unicode="&#x170;" horiz-adv-x="655" 
d="M587 730h-132l94 147h136zM418 730h-132l90 147h136zM739 685l-129 -453q-33 -115 -111.5 -179.5t-194.5 -64.5q-156 0 -223.5 90.5t-26.5 234.5l106 372h155l-106 -373q-24 -83 4 -131.5t103 -48.5q111 0 151 143l117 410h155z" />
    <glyph glyph-name="uhungarumlaut" unicode="&#x171;" 
d="M495 558h-132l94 147h136zM326 558h-132l90 147h136zM294 0l14 51q-72 -60 -161 -60q-81 0 -121.5 58.5t-14.5 148.5l90 315h138l-83 -291q-13 -45 7 -74t62 -29q49 0 83.5 30.5t49.5 83.5l81 280h139l-147 -513h-137z" />
    <glyph glyph-name="Uogonek" unicode="&#x172;" horiz-adv-x="654" 
d="M274 -183q-38 0 -58.5 17t-20.5 45q0 32 19 61.5t49 49.5q-134 13 -190 101.5t-18 221.5l106 372h155l-106 -373q-24 -83 4 -131.5t103 -48.5q111 0 151 143l117 410h155l-129 -453q-31 -105 -100 -168.5t-170 -73.5q-26 -16 -41.5 -38.5t-15.5 -39.5q0 -24 31 -24
q12 0 23.5 2t17.5 4l5 3l-17 -62q-28 -18 -70 -18z" />
    <glyph glyph-name="uogonek" unicode="&#x173;" 
d="M390 -165q-28 -18 -70 -18q-38 0 -58.5 17t-20.5 45q0 36 25 70t61 51h-32l14 51q-72 -60 -161 -60q-81 0 -121.5 58.5t-14.5 148.5l90 315h138l-83 -291q-13 -45 7 -74t62 -29q49 0 83.5 30.5t49.5 83.5l81 280h139l-147 -513h-26q-34 -15 -55 -41.5t-21 -46.5
q0 -24 31 -24q12 0 23.5 2t17.5 4l5 3z" />
    <glyph glyph-name="Wcircumflex" unicode="&#x174;" horiz-adv-x="943" 
d="M770 823l-30 -101l-119 37l-171 -39l30 103l160 54zM514 0l7 422l-237 -422h-185l33 685h155l-38 -493l273 493h135l-8 -495l246 495h161l-358 -685h-184z" />
    <glyph glyph-name="wcircumflex" unicode="&#x175;" horiz-adv-x="766" 
d="M641 651l-30 -101l-119 37l-171 -39l30 103l160 54zM376 0l16 290l-151 -290h-176l18 513h137l-19 -344l182 344h138l-17 -357l185 357h139l-277 -513h-175z" />
    <glyph glyph-name="Ycircumflex" unicode="&#x176;" horiz-adv-x="660" 
d="M628 823l-30 -101l-119 37l-171 -39l30 103l160 54zM175 0l73 255l-120 430h159l72 -288l234 288h177l-366 -429l-73 -256h-156z" />
    <glyph glyph-name="ycircumflex" unicode="&#x177;" horiz-adv-x="523" 
d="M520 651l-30 -101l-119 37l-171 -39l30 103l160 54zM434 513h154l-320 -505q-74 -116 -144 -155.5t-184 -23.5l35 124q18 -3 33.5 -2.5t27 2t23 7.5t18.5 10.5t16.5 15.5t14.5 17.5t16 21.5l-41 488h148l12 -317z" />
    <glyph glyph-name="Ydieresis" unicode="&#x178;" horiz-adv-x="660" 
d="M606 728h-133l37 129h133zM437 728h-133l37 129h133zM175 0l73 255l-120 430h159l72 -288l234 288h177l-366 -429l-73 -256h-156z" />
    <glyph glyph-name="Zacute" unicode="&#x179;" horiz-adv-x="575" 
d="M554 773l-245 -54l35 123l246 57zM627 555l-436 -416h322l-40 -139h-520l37 128l435 418h-315l39 139h515z" />
    <glyph glyph-name="zacute" unicode="&#x17a;" horiz-adv-x="470" 
d="M452 601l-245 -54l35 123l246 57zM487 403l-307 -282h226l-35 -121h-421l31 108l307 282h-228l35 123h423z" />
    <glyph glyph-name="Zdotaccent" unicode="&#x17b;" horiz-adv-x="575" 
d="M493 729h-140l36 128h140zM627 555l-436 -416h322l-40 -139h-520l37 128l435 418h-315l39 139h515z" />
    <glyph glyph-name="zdotaccent" unicode="&#x17c;" horiz-adv-x="470" 
d="M391 557h-140l36 128h140zM487 403l-307 -282h226l-35 -121h-421l31 108l307 282h-228l35 123h423z" />
    <glyph glyph-name="Zcaron" unicode="&#x17d;" horiz-adv-x="575" 
d="M289 770l30 101l119 -37l171 39l-30 -103l-160 -54zM627 555l-436 -416h322l-40 -139h-520l37 128l435 418h-315l39 139h515z" />
    <glyph glyph-name="zcaron" unicode="&#x17e;" horiz-adv-x="470" 
d="M187 598l30 101l119 -37l171 39l-30 -103l-160 -54zM487 403l-307 -282h226l-35 -121h-421l31 108l307 282h-228l35 123h423z" />
    <glyph glyph-name="uni0192" unicode="&#x192;" horiz-adv-x="372" 
d="M31 20l106 369h-78l35 124h78l11 33q49 146 242 146h51l-33 -114h-43q-73 0 -87 -57l-2 -8h113l-35 -124h-113l-109 -378q-33 -115 -95 -157t-175 -26l34 122q77 -10 100 70z" />
    <glyph glyph-name="uni0218" unicode="&#x218;" horiz-adv-x="588" 
d="M267 -13q-139 0 -204.5 60t-55.5 167h155q-6 -46 21 -74.5t93 -28.5q53 0 80.5 20.5t27.5 50.5q0 21 -17 38.5t-36.5 27t-56.5 24.5q-90 36 -135 84t-45 120q0 100 73.5 162.5t194.5 62.5q126 0 189 -63t55 -164h-154q7 47 -21.5 74t-83.5 27q-45 0 -71 -20.5t-26 -51.5
t29.5 -52t86.5 -43q43 -17 70.5 -30.5t56.5 -36t43.5 -52.5t14.5 -68q0 -97 -72 -165.5t-212 -68.5zM279 -125l-65 -94h-89l51 70h-32l31 107h128z" />
    <glyph glyph-name="uni0219" unicode="&#x219;" horiz-adv-x="491" 
d="M-7 161h140q-5 -36 17.5 -53.5t62.5 -17.5q37 0 57.5 14t20.5 34q0 18 -21 30t-68 23q-33 8 -58 17.5t-49 26t-37 41.5t-13 58q0 82 64 133.5t171 51.5q95 0 144 -45t39 -125h-138q10 66 -65 66q-33 0 -52 -14t-19 -34q0 -19 22.5 -32t77.5 -27q71 -19 110.5 -50.5
t39.5 -85.5q0 -80 -63 -131t-179 -51q-107 0 -162 45.5t-42 125.5zM214 -125l-65 -94h-89l51 70h-32l31 107h128z" />
    <glyph glyph-name="uni021A" unicode="&#x21a;" horiz-adv-x="584" 
d="M296 0h-155l156 543h-199l40 142h552l-40 -142h-198zM247 -125l-65 -94h-89l51 70h-32l31 107h128z" />
    <glyph glyph-name="uni021B" unicode="&#x21b;" horiz-adv-x="379" 
d="M269 389l-56 -201q-20 -69 51 -69h52l-35 -119h-65q-94 0 -129.5 56t-9.5 145l54 188h-72l35 124h72l38 132h139l-38 -132h123l-35 -124h-124zM216 -125l-65 -94h-89l51 70h-32l31 107h128z" />
    <glyph glyph-name="uni0237" unicode="&#x237;" horiz-adv-x="195" 
d="M101 513h139l-144 -502q-33 -115 -95 -157t-175 -26l34 122q77 -10 100 70z" />
    <glyph glyph-name="circumflex" unicode="&#x2c6;" horiz-adv-x="394" 
d="M455 651l-30 -101l-119 37l-171 -39l30 103l160 54z" />
    <glyph glyph-name="caron" unicode="&#x2c7;" horiz-adv-x="394" 
d="M149 598l30 101l119 -37l171 39l-30 -103l-160 -54z" />
    <glyph glyph-name="breve" unicode="&#x2d8;" horiz-adv-x="394" 
d="M468 704l-31 -107q-58 -50 -152 -50q-49 0 -83.5 18.5t-48.5 44.5l28 94q50 -43 132 -43q81 0 155 43z" />
    <glyph glyph-name="dotaccent" unicode="&#x2d9;" horiz-adv-x="394" 
d="M353 557h-140l36 128h140z" />
    <glyph glyph-name="ring" unicode="&#x2da;" horiz-adv-x="394" 
d="M206 639q0 46 35 82t84 36q38 0 63.5 -25t25.5 -63q0 -47 -35 -83t-84 -36q-38 0 -63.5 25t-25.5 64zM346 660q0 15 -9 24t-23 9q-17 0 -28.5 -13t-11.5 -32q0 -15 9 -24t23 -9q17 0 28.5 13.5t11.5 31.5z" />
    <glyph glyph-name="ogonek" unicode="&#x2db;" horiz-adv-x="394" 
d="M172 22l7 -22q-34 -15 -55 -41.5t-21 -46.5q0 -24 31 -24q12 0 23.5 2t16.5 4l6 3l-17 -62q-28 -18 -70 -18q-38 0 -58.5 17t-20.5 45q0 43 33 80.5t77 49.5z" />
    <glyph glyph-name="tilde" unicode="&#x2dc;" horiz-adv-x="394" 
d="M212 579q-38 0 -78 -26l28 94q48 41 99 41q30 0 68.5 -16t60.5 -16q38 0 78 26l-28 -94q-48 -41 -100 -41q-30 0 -68 16t-60 16z" />
    <glyph glyph-name="hungarumlaut" unicode="&#x2dd;" horiz-adv-x="394" 
d="M424 558h-132l94 147h136zM255 558h-132l90 147h136z" />
    <glyph glyph-name="uni04D9" unicode="&#x4d9;" horiz-adv-x="561" 
d="M67 409q91 115 240 115q112 0 177 -64.5t65 -165.5q0 -125 -90.5 -215.5t-216.5 -90.5q-106 0 -164 60.5t-58 149.5q0 58 14 100h380q-4 50 -37.5 79.5t-88.5 29.5q-74 0 -131 -67zM257 102q93 0 135 93h-238q2 -40 26.5 -66.5t76.5 -26.5z" />
    <glyph glyph-name="Wgrave" unicode="&#x1e80;" horiz-adv-x="943" 
d="M738 838l-35 -123l-215 55l36 125zM514 0l7 422l-237 -422h-185l33 685h155l-38 -493l273 493h135l-8 -495l246 495h161l-358 -685h-184z" />
    <glyph glyph-name="wgrave" unicode="&#x1e81;" horiz-adv-x="766" 
d="M609 666l-35 -123l-215 55l36 125zM376 0l16 290l-151 -290h-176l18 513h137l-19 -344l182 344h138l-17 -357l185 357h139l-277 -513h-175z" />
    <glyph glyph-name="Wacute" unicode="&#x1e82;" horiz-adv-x="943" 
d="M729 773l-245 -54l35 123l246 57zM514 0l7 422l-237 -422h-185l33 685h155l-38 -493l273 493h135l-8 -495l246 495h161l-358 -685h-184z" />
    <glyph glyph-name="wacute" unicode="&#x1e83;" horiz-adv-x="766" 
d="M600 601l-245 -54l35 123l246 57zM376 0l16 290l-151 -290h-176l18 513h137l-19 -344l182 344h138l-17 -357l185 357h139l-277 -513h-175z" />
    <glyph glyph-name="Wdieresis" unicode="&#x1e84;" horiz-adv-x="943" 
d="M748 728h-133l37 129h133zM579 728h-133l37 129h133zM514 0l7 422l-237 -422h-185l33 685h155l-38 -493l273 493h135l-8 -495l246 495h161l-358 -685h-184z" />
    <glyph glyph-name="wdieresis" unicode="&#x1e85;" horiz-adv-x="766" 
d="M619 556h-133l37 129h133zM450 556h-133l37 129h133zM376 0l16 290l-151 -290h-176l18 513h137l-19 -344l182 344h138l-17 -357l185 357h139l-277 -513h-175z" />
    <glyph glyph-name="Ygrave" unicode="&#x1ef2;" horiz-adv-x="660" 
d="M596 838l-35 -123l-215 55l36 125zM175 0l73 255l-120 430h159l72 -288l234 288h177l-366 -429l-73 -256h-156z" />
    <glyph glyph-name="ygrave" unicode="&#x1ef3;" horiz-adv-x="523" 
d="M488 666l-35 -123l-215 55l36 125zM434 513h154l-320 -505q-74 -116 -144 -155.5t-184 -23.5l35 124q18 -3 33.5 -2.5t27 2t23 7.5t18.5 10.5t16.5 15.5t14.5 17.5t16 21.5l-41 488h148l12 -317z" />
    <glyph glyph-name="uni2002" unicode="&#x2002;" horiz-adv-x="492" 
 />
    <glyph glyph-name="uni2003" unicode="&#x2003;" horiz-adv-x="982" 
 />
    <glyph glyph-name="uni2008" unicode="&#x2008;" horiz-adv-x="149" 
 />
    <glyph glyph-name="uni2009" unicode="&#x2009;" horiz-adv-x="2" 
 />
    <glyph glyph-name="uni2010" unicode="&#x2010;" horiz-adv-x="100" 
 />
    <glyph glyph-name="figuredash" unicode="&#x2012;" horiz-adv-x="433" 
d="M404 221h-397l38 130h397z" />
    <glyph glyph-name="endash" unicode="&#x2013;" horiz-adv-x="433" 
d="M404 219h-397l38 132h397z" />
    <glyph glyph-name="emdash" unicode="&#x2014;" horiz-adv-x="819" 
d="M789 219h-782l37 131h782z" />
    <glyph glyph-name="quoteleft" unicode="&#x2018;" horiz-adv-x="201" 
d="M119 566l85 119h92l-65 -96h38l-42 -145h-143z" />
    <glyph glyph-name="quoteright" unicode="&#x2019;" horiz-adv-x="201" 
d="M261 563l-85 -119h-92l65 96h-38l42 145h143z" />
    <glyph glyph-name="quotesinglbase" unicode="&#x201a;" horiz-adv-x="201" 
d="M106 23l-85 -119h-92l65 96h-38l42 145h143z" />
    <glyph glyph-name="quotedblleft" unicode="&#x201c;" horiz-adv-x="367" 
d="M116 566l85 119h86l-65 -96h38l-41 -145h-138zM287 566l84 119h87l-64 -96h38l-41 -145h-139z" />
    <glyph glyph-name="quotedblright" unicode="&#x201d;" horiz-adv-x="363" 
d="M424 563l-85 -119h-86l65 96h-38l41 145h138zM253 563l-84 -119h-87l64 96h-38l41 145h139z" />
    <glyph glyph-name="quotedblbase" unicode="&#x201e;" horiz-adv-x="366" 
d="M269 23l-85 -119h-86l65 96h-38l41 145h138zM98 23l-84 -119h-87l64 96h-38l41 145h139z" />
    <glyph glyph-name="dagger" unicode="&#x2020;" horiz-adv-x="380" 
d="M317 459h105l-37 -128h-105l-136 -474h-137l136 474h-106l37 128h106l49 171h137z" />
    <glyph glyph-name="daggerdbl" unicode="&#x2021;" horiz-adv-x="380" 
d="M317 460h105l-37 -128h-105l-48 -169h105l-37 -128h-105l-51 -178h-137l51 178h-106l37 128h106l48 169h-106l37 128h106l49 170h137z" />
    <glyph glyph-name="bullet" unicode="&#x2022;" horiz-adv-x="282" 
d="M163 398q47 0 74.5 -32t20.5 -80t-43.5 -80t-83.5 -32t-74.5 32t-20.5 80t43.5 80t83.5 32z" />
    <glyph glyph-name="ellipsis" unicode="&#x2026;" horiz-adv-x="603" 
d="M500 0h-144l42 145h144zM299 0h-144l42 145h144zM98 0h-144l42 145h144z" />
    <glyph glyph-name="guilsinglleft" unicode="&#x2039;" horiz-adv-x="305" 
d="M165 271l65 -209h-137l-68 224l197 228h155z" />
    <glyph glyph-name="guilsinglright" unicode="&#x203a;" horiz-adv-x="305" 
d="M157 305l-65 209h137l68 -224l-197 -228h-155z" />
    <glyph glyph-name="fraction" unicode="&#x2044;" horiz-adv-x="22" 
d="M-135 0h-131l496 685h131z" />
    <glyph glyph-name="Euro" unicode="&#x20ac;" horiz-adv-x="573" 
d="M520 112q-37 -54 -99 -88t-135 -34q-100 0 -155.5 63t-49.5 156h-78l32 113h73l12 42h-73l32 112h74l3 9q29 95 104.5 153.5t172.5 58.5q158 0 209 -133l-133 -70q-11 34 -36.5 51t-56.5 17q-39 0 -71 -23t-47 -63h142l-32 -112h-144l-12 -42h144l-32 -113h-139
q1 -38 25.5 -61t60.5 -23q61 0 99 58z" />
    <glyph glyph-name="trademark" unicode="&#x2122;" horiz-adv-x="886" 
d="M282 597h83l-31 -108h-83l-30 -107q-8 -28 1 -40t37 -12h30l-30 -103h-41q-81 0 -108 35.5t-6 109.5l33 117h-50l31 108h50l26 89h114zM526 597l-8 -29q11 13 40 24t54 11q58 0 87 -42q55 42 122 42t94.5 -41.5t7.5 -108.5l-65 -226h-116l60 210q8 25 0 40.5t-30 15.5
q-25 0 -45 -17t-28 -45l-59 -204h-115l60 210q8 25 0 40.5t-29 15.5q-25 0 -46 -17.5t-29 -45.5l-58 -203h-115l106 370h112z" />
    <glyph glyph-name="uni2153" unicode="&#x2153;" horiz-adv-x="726" 
d="M160 0h-131l496 685h131zM165 294h-95l87 303h-45l25 88h140zM507 -7q-58 0 -93.5 28.5t-43.5 79.5l84 33q9 -58 62 -58q29 0 48 20t19 45q0 24 -15 37t-37 13q-20 0 -36 -8l-23 59l110 67h-125l23 82h245l-24 -85l-85 -57q60 -29 60 -94q0 -64 -49 -113t-120 -49z" />
    <glyph glyph-name="uni2154" unicode="&#x2154;" horiz-adv-x="845" 
d="M313 294h-274l21 76l170 119q37 26 51.5 44t14.5 39q0 17 -12.5 26t-31.5 8q-41 0 -77 -45l-66 47q64 82 155 83q57 1 92 -26.5t35 -74.5q0 -45 -30.5 -84.5t-109.5 -93.5l-57 -39h142zM279 0h-131l496 685h131zM626 -7q-58 0 -93.5 28.5t-43.5 79.5l84 33q9 -58 62 -58
q29 0 48 20t19 45q0 24 -15 37t-37 13q-20 0 -36 -8l-23 59l110 67h-125l23 82h245l-24 -85l-85 -57q60 -29 60 -94q0 -64 -49 -113t-120 -49z" />
    <glyph glyph-name="minus" unicode="&#x2212;" horiz-adv-x="433" 
d="M404 221h-397l38 130h397z" />
    <glyph glyph-name="approxequal" unicode="&#x2248;" horiz-adv-x="433" 
d="M472 457l-31 -110q-7 -6 -19 -15.5t-46.5 -25t-65.5 -15.5q-40 0 -93 20.5t-83 20.5q-21 0 -47.5 -9t-42.5 -18l-15 -9l32 112q7 6 19.5 15t47.5 24.5t67 15.5q40 0 92 -21t81 -21q22 0 48 9t41 18zM419 271l-32 -112q-7 -6 -19 -15t-47.5 -24.5t-67.5 -15.5
q-40 0 -92 21t-81 21q-22 0 -48 -9t-42 -19l-15 -9l32 111q7 6 18.5 15.5t45.5 25t65 15.5q40 0 93.5 -21t83.5 -21q22 0 48.5 9t42.5 19z" />
    <glyph glyph-name="notequal" unicode="&#x2260;" horiz-adv-x="433" 
d="M375 447h94l-39 -138h-130l-27 -50h142l-39 -138h-178l-70 -129h-126l70 129h-93l39 138h129l28 50h-142l39 138h178l70 131h126z" />
    <glyph glyph-name="lessequal" unicode="&#x2264;" horiz-adv-x="433" 
d="M462 423l-235 -70l196 -68l-38 -131l-354 148l31 111l439 146zM341 0h-397l36 126h397z" />
    <glyph glyph-name="greaterequal" unicode="&#x2265;" horiz-adv-x="433" 
d="M459 413l-32 -112l-439 -147l40 142l235 69l-195 69l36 125zM341 0h-397l36 126h397z" />
    <glyph glyph-name="uniE001" unicode="&#xe001;" horiz-adv-x="664" 
d="M467 252l81 284l-235 -284h154zM395 0l35 122h-224l-101 -122h-179l588 685h230l-196 -685h-153z" />
    <glyph glyph-name="uniE002" unicode="&#xe002;" horiz-adv-x="649" 
d="M346 252l-75 292l-83 -292h158zM411 0l-31 122h-228l-35 -122h-149l196 685h215l196 -685h-164z" />
    <glyph glyph-name="uniE003" unicode="&#xe003;" horiz-adv-x="603" 
d="M282 0h-314l196 685h293q85 0 126 -45.5t41 -110.5q0 -60 -36 -110.5t-105 -76.5q78 -42 78 -125q0 -96 -73 -156.5t-206 -60.5zM407 552h-126l-39 -140h127q46 0 71.5 22.5t25.5 60.5q0 25 -14.5 41t-44.5 16zM338 281h-135l-42 -148h138q51 0 80.5 21.5t29.5 61.5
q0 28 -18 46.5t-53 18.5z" />
    <glyph glyph-name="uniE004" unicode="&#xe004;" horiz-adv-x="601" 
d="M226 360h105q67 0 102 31.5t35 81.5q0 31 -18 50.5t-54 19.5h-117zM190 232l-67 -232h-155l196 685h252q101 0 155.5 -54t54.5 -137q0 -84 -48.5 -151t-144.5 -96l87 -247h-183l-76 232h-71z" />
    <glyph glyph-name="uniE005" unicode="&#xe005;" horiz-adv-x="597" 
d="M226 360h105q67 0 102 31.5t35 81.5q0 31 -18 50.5t-54 19.5h-117zM379 0l-187 237l-69 -237h-155l196 685h252q101 0 155.5 -54t54.5 -137q0 -61 -24.5 -114t-81.5 -95t-139 -52l191 -233h-193z" />
    <glyph glyph-name="uniE006" unicode="&#xe006;" horiz-adv-x="999" 
d="M332 0l124 434l-347 -434h-183l560 685h181l-115 -403l338 403h189l-196 -685h-156l127 442l-372 -442h-150z" />
    <glyph glyph-name="uniE007" unicode="&#xe007;" horiz-adv-x="977" 
d="M361 0l-110 466l-131 -466h-152l196 685h175l97 -422l114 422h175l178 -685h-165l-111 461l-126 -461h-140z" />
    <glyph glyph-name="uniE008" unicode="&#xe008;" horiz-adv-x="648" 
d="M318 0l-196 685h164l140 -544l154 544h149l-196 -685h-215z" />
    <glyph glyph-name="uniE009" unicode="&#xe009;" horiz-adv-x="664" 
d="M-32 0l196 685h153l-151 -527l436 527h184l-588 -685h-230z" />
    <glyph glyph-name="uniE00A" unicode="&#xe00a;" horiz-adv-x="977" 
d="M686 0l-97 422l-114 -422h-175l-178 685h165l112 -460l125 460h140l110 -464l131 464h152l-196 -685h-175z" />
    <glyph glyph-name="uniE00B" unicode="&#xe00b;" horiz-adv-x="999" 
d="M380 0l115 403l-338 -403h-189l196 685h156l-127 -442l372 442h150l-124 -434l347 434h183l-560 -685h-181z" />
    <glyph glyph-name="uniE00C" unicode="&#xe00c;" horiz-adv-x="668" 
d="M326 820l-65 -94h-89l51 70h-32l31 107h128zM388 0l-143 441l-126 -441h-151l196 685h164l143 -440l126 440h151l-196 -685h-164z" />
    <glyph glyph-name="uniE00E" unicode="&#xe00e;" horiz-adv-x="505" 
d="M268 0l-39 214l-99 -88l-36 -126h-140l196 685h140l-107 -375l207 203h175l-218 -194l78 -319h-157z" />
    <glyph glyph-name="uniE011" unicode="&#xe011;" horiz-adv-x="567" 
d="M311 513h113l-35 -124h-113l-112 -389h-139l112 389h-78l35 124h78l11 33q49 146 242 146h51l-33 -114h-43q-73 0 -87 -57zM625 557h-139l36 128h139zM465 0h-139l147 513h139z" />
    <glyph glyph-name="uniE012" unicode="&#xe012;" horiz-adv-x="568" 
d="M311 513h113l-35 -124h-113l-112 -389h-139l112 389h-78l35 124h78l11 33q49 146 242 146h51l-33 -114h-43q-73 0 -87 -57zM466 0h-140l196 685h140z" />
    <glyph glyph-name="uniE013" unicode="&#xe013;" horiz-adv-x="572" 
d="M250 -12q-127 0 -188 82.5t-28 198.5l61 211q27 95 102.5 153.5t173.5 58.5q118 0 183.5 -81t31.5 -201l-61 -211q-27 -94 -103 -152.5t-172 -58.5zM173 251q-11 -37 0 -70l204 374q-14 2 -23 2q-42 0 -75 -26.5t-46 -70.5zM261 122q46 0 79 26t47 72l61 209q10 34 2 63
l-200 -369q4 -1 11 -1z" />
    <glyph glyph-name="uniE014" unicode="&#xe014;" horiz-adv-x="586" 
d="M418 0h-147l38 134h-317l37 129l418 422h178l-421 -422h142l40 137h147l-40 -137h65l-37 -129h-65z" />
    <glyph glyph-name="uniE015" unicode="&#xe015;" horiz-adv-x="527" 
d="M224 -11q-116 0 -172 76t-26 182l56 193q25 88 94.5 141.5t159.5 53.5q109 0 169 -74t28 -184l-55 -194q-26 -87 -95.5 -140.5t-158.5 -53.5zM235 113q42 0 72 24t43 66l56 191q15 49 -10.5 82.5t-75.5 33.5q-38 0 -68.5 -23.5t-41.5 -64.5l-55 -192q-14 -48 9.5 -82.5
t70.5 -34.5z" />
    <glyph glyph-name="uniE016" unicode="&#xe016;" horiz-adv-x="266" 
d="M168 0h-140l143 499h-72l37 130h212z" />
    <glyph glyph-name="uniE017" unicode="&#xe017;" horiz-adv-x="502" 
d="M414 0h-438l33 117l266 181q70 47 97.5 78t27.5 70q0 31 -22 48t-59 17q-70 0 -130 -72l-95 74q104 125 245 125q89 0 143.5 -43.5t54.5 -118.5q0 -77 -48 -142t-162 -141l-112 -75h233z" />
    <glyph glyph-name="uniE018" unicode="&#xe018;" horiz-adv-x="518" 
d="M217 -10q-94 0 -149.5 46.5t-69.5 125.5l127 48q14 -98 105 -98q52 0 85.5 36t33.5 84q0 42 -26 64t-65 22q-31 0 -56 -13l-35 89l174 113h-199l34 122h388l-34 -122l-146 -100q101 -43 101 -154q0 -106 -79 -184.5t-189 -78.5z" />
    <glyph glyph-name="uniE019" unicode="&#xe019;" horiz-adv-x="539" 
d="M454 242h59l-34 -119h-60l-34 -123h-137l35 123h-290l34 119l383 389h155zM318 242l57 199l-196 -199h139z" />
    <glyph glyph-name="uniE01A" unicode="&#xe01a;" horiz-adv-x="518" 
d="M228 -10q-95 0 -151 46t-70 126l127 48q14 -98 105 -98q53 0 87.5 37t34.5 87q0 41 -25 64.5t-63 23.5q-65 0 -108 -56l-99 50l147 311h341l-39 -126h-241l-39 -84q42 14 82 14q75 0 126.5 -47.5t51.5 -129.5q0 -107 -79 -186.5t-188 -79.5z" />
    <glyph glyph-name="uniE01B" unicode="&#xe01b;" horiz-adv-x="508" 
d="M226 -9q-94 0 -151.5 53t-57.5 140q0 110 94 217l202 228h156l-173 -192q6 1 19 1q69 0 122 -49t53 -132q0 -103 -77 -184.5t-187 -81.5zM237 109q50 0 86 39t36 90q0 40 -25 64.5t-67 24.5q-48 0 -84.5 -37.5t-36.5 -89.5q0 -41 25 -66t66 -25z" />
    <glyph glyph-name="uniE01C" unicode="&#xe01c;" horiz-adv-x="483" 
d="M167 0h-159l375 500h-281l37 129h429l-36 -125z" />
    <glyph glyph-name="uniE01D" unicode="&#xe01d;" horiz-adv-x="511" 
d="M203 -9q-87 0 -137.5 44t-50.5 118q0 64 33.5 118t100.5 90q-22 37 -22 78q0 78 64 138t156 60q74 0 115.5 -39t41.5 -99q0 -96 -88 -160q47 -46 47 -108q0 -96 -78.5 -168t-181.5 -72zM303 396q35 0 58 26t23 56q0 25 -15 39.5t-41 14.5q-36 0 -58.5 -25.5t-22.5 -55.5
q0 -26 15.5 -40.5t40.5 -14.5zM222 101q50 0 81.5 37t31.5 79q0 33 -21.5 52.5t-57.5 19.5q-50 0 -81 -36t-31 -78q0 -33 21.5 -53.5t56.5 -20.5z" />
    <glyph glyph-name="uniE01E" unicode="&#xe01e;" horiz-adv-x="508" 
d="M239 0h-155l173 192q-6 -1 -19 -1q-69 0 -122 49t-53 132q0 103 77 184.5t187 81.5q94 0 151.5 -53t57.5 -140q0 -110 -94 -217zM316 520q-51 0 -86.5 -39t-35.5 -90q0 -40 25 -64.5t67 -24.5q48 0 84.5 37.5t36.5 89.5q0 41 -25.5 66t-65.5 25z" />
    <glyph glyph-name="uniE01F" unicode="&#xe01f;" horiz-adv-x="527" 
d="M224 -11q-116 0 -172 76t-26 182l56 193q25 88 94.5 141.5t159.5 53.5q109 0 169 -74t28 -184l-55 -194q-26 -87 -95.5 -140.5t-158.5 -53.5zM155 230q-10 -31 -1 -62l186 340q-12 2 -20 2q-38 0 -68.5 -23.5t-41.5 -64.5zM235 113q42 0 72 24t43 66l56 191q9 32 2 57
l-183 -337q3 -1 10 -1z" />
    <glyph glyph-name="uniE020" unicode="&#xe020;" horiz-adv-x="539" 
d="M385 0h-137l35 122h-290l34 120l381 387h166l-384 -387h127l37 124h136l-36 -124h59l-34 -120h-60z" />
    <glyph glyph-name="uniE021" unicode="&#xe021;" horiz-adv-x="388" 
d="M335 143q-21 -74 -73 -113t-118 -39q-81 0 -123.5 54.5t-17.5 144.5l83 294q20 73 72 112.5t118 39.5q82 0 123.5 -53.5t16.5 -145.5zM122 177q-10 -34 2 -52t35 -18q44 0 59 56l80 287q10 34 -2 52t-34 18q-43 0 -60 -56z" />
    <glyph glyph-name="uniE022" unicode="&#xe022;" horiz-adv-x="206" 
d="M109 0h-131l148 514h-49l32 115h180z" />
    <glyph glyph-name="uniE023" unicode="&#xe023;" horiz-adv-x="388" 
d="M287 0h-314l34 117l219 232q79 83 79 132q0 19 -11 29.5t-28 10.5q-56 0 -64 -83h-117q10 98 67 148.5t135 50.5q68 0 107 -35t39 -93q0 -54 -31.5 -109t-114.5 -141l-138 -145h171z" />
    <glyph glyph-name="uniE024" unicode="&#xe024;" horiz-adv-x="388" 
d="M141 -10q-72 0 -113 43.5t-22 137.5l4 17h116l-4 -20q-15 -65 37 -65q45 0 64 67l17 57q9 31 -2.5 49t-34.5 18q-26 0 -51 -20l-52 77l177 165h-164l33 113h306l-28 -98l-143 -137q56 -11 78 -54.5t3 -109.5l-19 -65q-50 -175 -202 -175z" />
    <glyph glyph-name="uniE025" unicode="&#xe025;" horiz-adv-x="388" 
d="M342 237h37l-33 -114h-37l-35 -123h-125l35 123h-200l33 114l297 392h140zM217 237l49 175l-129 -175h80z" />
    <glyph glyph-name="uniE026" unicode="&#xe026;" horiz-adv-x="388" 
d="M140 -10q-72 0 -113 43.5t-22 137.5l4 17h116l-4 -20q-15 -65 37 -65q45 0 64 67l22 77q9 31 -2 50t-34 19q-46 0 -62 -53h-110l109 365h307l-33 -115h-191l-31 -101q32 16 69 16q64 0 94 -48t7 -128l-25 -87q-52 -175 -202 -175z" />
    <glyph glyph-name="uniE027" unicode="&#xe027;" horiz-adv-x="388" 
d="M136 -10q-75 0 -116.5 51.5t-17.5 134.5l20 73q13 48 33.5 85.5t66.5 101.5l138 193h141l-149 -197h11q59 0 92.5 -46.5t12.5 -120.5l-33 -114q-22 -76 -72 -118.5t-127 -42.5zM219 167l25 87q9 31 -2 48t-34 17q-43 0 -62 -64l-25 -87q-9 -31 2 -48t34 -17q46 0 62 64z
" />
    <glyph glyph-name="uniE028" unicode="&#xe028;" horiz-adv-x="388" 
d="M133 0h-141l321 513h-191l33 116h317l-33 -116z" />
    <glyph glyph-name="uniE029" unicode="&#xe029;" horiz-adv-x="388" 
d="M132 -10q-76 0 -116 44.5t-18 127.5l18 68q20 73 92 111q-38 41 -19 108l11 39q21 71 72 109t119 38q71 0 109.5 -44.5t17.5 -119.5l-11 -38q-19 -64 -78 -99q45 -44 25 -116l-18 -67q-22 -80 -76 -120.5t-128 -40.5zM295 436l10 37q7 23 -4.5 37.5t-32.5 14.5
q-43 0 -57 -48l-11 -38q-7 -22 3.5 -37t32.5 -15q21 0 37 13.5t22 35.5zM220 161l15 54q8 27 -3 43t-36 16q-49 0 -64 -57l-16 -54q-8 -27 3 -44t34 -17q49 0 67 59z" />
    <glyph glyph-name="uniE02A" unicode="&#xe02a;" horiz-adv-x="388" 
d="M165 0h-142l151 197h-13q-59 0 -92.5 47t-11.5 120l33 114q22 76 72 118.5t127 42.5q74 0 115.5 -51.5t18.5 -134.5l-20 -73q-14 -47 -34.5 -85t-65.5 -102zM205 462l-25 -87q-9 -31 2.5 -48t34.5 -17q43 0 61 64l26 87q9 31 -2 47.5t-34 16.5q-45 0 -63 -63z" />
    <glyph glyph-name="uniE02B" unicode="&#xe02b;" horiz-adv-x="388" 
d="M342 143q-21 -74 -73 -113t-118 -39q-81 0 -123.5 54.5t-17.5 144.5l83 294q20 73 72 112.5t118 39.5q82 0 123.5 -53.5t16.5 -145.5zM209 464l-58 -207l146 252q-10 11 -28 11q-43 0 -60 -56zM166 107q44 0 59 56l57 205l-145 -251q11 -10 29 -10z" />
    <glyph glyph-name="uniE02C" unicode="&#xe02c;" horiz-adv-x="388" 
d="M-45 0l33 114h103l114 400h-80l32 115h211l-147 -515h109l-33 -114h-342z" />
    <glyph glyph-name="uniE02D" unicode="&#xe02d;" horiz-adv-x="388" 
d="M142 -10q-72 0 -113 43.5t-22 137.5l4 17h116l-5 -20q-15 -65 38 -65q45 0 64 67l9 32q9 30 -0.5 48.5t-36.5 18.5h-64l33 114h67q42 0 58 57l7 23q8 27 -4.5 43t-33.5 16q-44 0 -58 -52l-3 -14h-116l4 17q19 82 71.5 123.5t123.5 41.5q78 0 118 -49t20 -120l-11 -40
q-22 -77 -87 -108q53 -43 32 -121l-11 -40q-23 -81 -73.5 -125.5t-126.5 -44.5z" />
    <glyph glyph-name="uniE02E" unicode="&#xe02e;" horiz-adv-x="388" 
d="M140 -10q-72 0 -113 43.5t-22 137.5l4 17h116l-4 -20q-15 -65 37 -65q45 0 64 67l21 72q9 32 -2.5 49.5t-35.5 17.5h-113l189 207h-168l33 113h306l-28 -98l-118 -129q93 -27 59 -157l-22 -80q-23 -83 -74.5 -129t-128.5 -46z" />
    <glyph glyph-name="uniE02F" unicode="&#xe02f;" horiz-adv-x="388" 
d="M333 143q-21 -73 -72 -112.5t-116 -39.5q-89 0 -128 54.5t-13 144.5l78 273q23 81 78 128t130 47q73 0 111.5 -42t14.5 -137h-116q15 66 -32 66q-46 0 -66 -67l-20 -68q37 20 78 20q62 0 91.5 -48t6.5 -128zM142 244l-22 -72q-10 -33 1.5 -51.5t35.5 -18.5q43 0 59 56
l22 73q11 35 -1 52.5t-35 17.5q-43 0 -60 -57z" />
    <glyph glyph-name="uniE030" unicode="&#xe030;" horiz-adv-x="388" 
d="M279 385l22 72q10 33 -1.5 51.5t-35.5 18.5q-43 0 -59 -56l-22 -73q-11 -35 1 -52.5t35 -17.5q43 0 60 57zM88 486q21 73 72 112.5t116 39.5q89 0 128 -54.5t13 -144.5l-78 -273q-23 -81 -78 -128t-130 -47q-73 0 -111.5 42t-14.5 137h116q-15 -66 32 -66q46 0 66 67
l20 68q-37 -20 -78 -20q-62 0 -91.5 48t-6.5 128z" />
    <glyph glyph-name="uniE031" unicode="&#xe031;" horiz-adv-x="388" 
d="M274 0h-125l35 122h-200l33 115l298 392h136l-308 -392h74l22 77h125l-22 -77h37l-34 -115h-36z" />
    <glyph glyph-name="uniE032" unicode="&#xe032;" horiz-adv-x="422" 
d="M370 156q-22 -80 -79 -123t-129 -43q-88 0 -134.5 59.5t-18.5 157.5l90 320q23 80 79 123t128 43q89 0 134.5 -58.5t18.5 -158.5zM138 193q-11 -37 2 -57t39 -20q47 0 65 62l87 312q10 38 -3 57.5t-37 19.5q-48 0 -66 -62z" />
    <glyph glyph-name="uniE033" unicode="&#xe033;" horiz-adv-x="224" 
d="M118 0h-142l161 561h-53l35 124h195z" />
    <glyph glyph-name="uniE034" unicode="&#xe034;" horiz-adv-x="422" 
d="M312 0h-341l36 127l240 253q86 91 86 144q0 21 -12.5 32.5t-31.5 11.5q-60 0 -70 -91h-126q11 107 72.5 162t146.5 55q74 0 116.5 -38.5t42.5 -100.5q0 -59 -34.5 -119t-124.5 -155l-150 -157h186z" />
    <glyph glyph-name="uniE035" unicode="&#xe035;" horiz-adv-x="422" 
d="M156 -11q-78 0 -123 47.5t-24 149.5l4 19h126l-5 -22q-16 -72 41 -72q50 0 71 74l18 62q10 34 -2.5 53.5t-38.5 19.5q-30 0 -55 -22l-57 84l194 181h-179l35 122h333l-30 -106l-156 -150q61 -11 84.5 -59t3.5 -120l-20 -71q-26 -90 -81 -140t-139 -50z" />
    <glyph glyph-name="uniE036" unicode="&#xe036;" horiz-adv-x="422" 
d="M372 258h40l-36 -124h-40l-38 -134h-135l38 134h-218l36 124l323 427h152zM237 258l54 193l-141 -193h87z" />
    <glyph glyph-name="uniE037" unicode="&#xe037;" horiz-adv-x="422" 
d="M155 -11q-78 0 -123 47.5t-24 149.5l4 19h126l-5 -22q-16 -72 41 -72q50 0 71 74l24 84q10 34 -2 55t-38 21q-50 0 -68 -58h-119l118 397h334l-35 -124h-209l-33 -111q36 17 75 17q69 0 102 -52.5t8 -139.5l-27 -94q-27 -90 -82 -140.5t-138 -50.5z" />
    <glyph glyph-name="uniE038" unicode="&#xe038;" horiz-adv-x="422" 
d="M153 -11q-81 0 -126 56t-20 146l22 79q14 52 36.5 92.5t72.5 111.5l151 211h153l-163 -214h13q64 0 101 -51t13 -131l-36 -124q-24 -83 -78.5 -129.5t-138.5 -46.5zM245 182l27 95q9 34 -3 52.5t-37 18.5q-47 0 -68 -70l-28 -95q-10 -34 2 -52.5t38 -18.5q50 0 69 70z
" />
    <glyph glyph-name="uniE039" unicode="&#xe039;" horiz-adv-x="422" 
d="M145 0h-153l350 560h-208l35 125h345l-35 -125z" />
    <glyph glyph-name="uniE03A" unicode="&#xe03a;" horiz-adv-x="422" 
d="M148 -11q-83 0 -126.5 48.5t-19.5 138.5l20 74q20 78 101 122q-42 44 -22 117l12 42q22 78 77.5 119.5t130.5 41.5q77 0 119.5 -48.5t18.5 -130.5l-12 -41q-20 -70 -85 -108q50 -46 28 -126l-20 -73q-24 -87 -82.5 -131.5t-139.5 -44.5zM326 475l11 40q7 26 -5 41.5
t-36 15.5q-48 0 -62 -53l-12 -41q-7 -24 4.5 -40t35.5 -16q22 0 39.5 14.5t24.5 38.5zM244 175l17 59q9 30 -3 47.5t-40 17.5q-52 0 -71 -62l-17 -59q-9 -30 3.5 -48.5t37.5 -18.5q55 0 73 64z" />
    <glyph glyph-name="uniE03B" unicode="&#xe03b;" horiz-adv-x="422" 
d="M319 696q81 0 126 -56t20 -146l-22 -79q-14 -52 -36.5 -92.5t-72.5 -111.5l-151 -211h-153l163 214h-13q-64 0 -101 51t-13 131l36 124q24 83 78.5 129.5t138.5 46.5zM227 503l-27 -95q-9 -34 3 -52.5t37 -18.5q47 0 68 70l28 95q10 34 -2 52.5t-38 18.5q-50 0 -69 -70z
" />
    <glyph glyph-name="uniE03C" unicode="&#xe03c;" horiz-adv-x="422" 
d="M372 156q-22 -80 -79 -123t-129 -43q-88 0 -134.5 59.5t-18.5 157.5l90 320q23 80 79 123t128 43q89 0 134.5 -58.5t18.5 -158.5zM227 505l-63 -225l160 275q-12 12 -31 12q-48 0 -66 -62zM181 116q47 0 65 62l62 224l-159 -275q14 -11 32 -11z" />
    <glyph glyph-name="uniE03D" unicode="&#xe03d;" horiz-adv-x="422" 
d="M-49 0l36 124h112l125 437h-88l35 124h229l-160 -561h119l-36 -124h-372z" />
    <glyph glyph-name="uniE03E" unicode="&#xe03e;" horiz-adv-x="422" 
d="M157 -11q-78 0 -123 47.5t-24 149.5l4 19h126l-5 -22q-16 -72 41 -72q50 0 71 74l10 35q10 33 -1 53.5t-40 20.5h-70l36 123h73q46 0 64 63l7 25q8 30 -5 47t-37 17q-48 0 -63 -57l-4 -15h-125l4 18q20 89 77.5 134.5t134.5 45.5q85 0 128.5 -53.5t21.5 -131.5l-12 -43
q-24 -85 -94 -117q58 -48 34 -133l-12 -43q-25 -87 -79.5 -136t-137.5 -49z" />
    <glyph glyph-name="uniE03F" unicode="&#xe03f;" horiz-adv-x="422" 
d="M155 -11q-78 0 -123 47.5t-24 149.5l4 19h126l-5 -22q-16 -72 41 -72q50 0 71 74l22 79q9 34 -3.5 53.5t-37.5 19.5h-123l206 226h-183l35 122h333l-30 -106l-129 -141q102 -29 64 -171l-24 -87q-25 -90 -80.5 -140.5t-139.5 -50.5z" />
    <glyph glyph-name="uniE040" unicode="&#xe040;" horiz-adv-x="422" 
d="M369 156q-23 -80 -78.5 -123t-125.5 -43q-97 0 -139.5 59.5t-14.5 157.5l85 297q25 88 85 139.5t142 51.5q36 0 64.5 -9.5t51 -32t27.5 -60t-7 -93.5h-126q8 36 -2 54.5t-32 18.5q-51 0 -73 -74l-22 -75q37 23 86 23q68 0 100 -52.5t7 -139.5zM161 266l-24 -79
q-11 -37 1 -57t39 -20q47 0 66 62l24 79q12 39 -1.5 58t-38.5 19q-48 0 -66 -62z" />
    <glyph glyph-name="uniE041" unicode="&#xe041;" horiz-adv-x="422" 
d="M313 419l24 79q11 37 -1 57t-39 20q-47 0 -66 -62l-24 -79q-12 -39 1.5 -58t38.5 -19q48 0 66 62zM105 529q23 80 78.5 123t125.5 43q97 0 139.5 -59.5t14.5 -157.5l-85 -297q-25 -88 -85 -139.5t-142 -51.5q-36 0 -64.5 9.5t-51 32t-27.5 60t7 93.5h126q-8 -36 2 -54.5
t32 -18.5q51 0 73 74l22 75q-37 -23 -86 -23q-68 0 -100 52.5t-7 139.5z" />
    <glyph glyph-name="uniE042" unicode="&#xe042;" horiz-adv-x="422" 
d="M298 0h-135l38 134h-218l36 124l325 427h147l-335 -427h81l24 84h135l-24 -84h40l-36 -124h-40z" />
    <glyph glyph-name="uniE043" unicode="&#xe043;" horiz-adv-x="327" 
d="M108 -7q-71 0 -106.5 45.5t-16.5 111.5l34 119q17 58 60.5 92t103.5 34q67 0 104.5 -44.5t17.5 -112.5l-34 -119q-17 -58 -60 -92t-103 -34zM119 84q46 0 61 49l32 110q8 26 -4.5 43.5t-37.5 17.5q-22 0 -38 -13t-22 -35l-31 -110q-7 -27 4.5 -44.5t35.5 -17.5z" />
    <glyph glyph-name="uniE044" unicode="&#xe044;" horiz-adv-x="172" 
d="M79 0h-95l87 303h-45l25 88h140z" />
    <glyph glyph-name="uniE045" unicode="&#xe045;" horiz-adv-x="315" 
d="M227 0h-274l21 76l170 119q37 26 51.5 44t14.5 39q0 17 -12.5 26t-31.5 8q-41 0 -77 -45l-66 47q64 82 155 83q57 1 92 -26.5t35 -74.5q0 -45 -30.5 -84.5t-109.5 -93.5l-57 -39h142z" />
    <glyph glyph-name="uniE046" unicode="&#xe046;" horiz-adv-x="325" 
d="M104 -7q-58 0 -93.5 28.5t-43.5 79.5l84 33q9 -58 62 -58q29 0 48 20t19 45q0 24 -15 37t-37 13q-20 0 -36 -8l-23 59l110 67h-125l23 82h245l-24 -85l-85 -57q60 -29 60 -94q0 -64 -49 -113t-120 -49z" />
    <glyph glyph-name="uniE047" unicode="&#xe047;" horiz-adv-x="340" 
d="M256 155h36l-23 -80h-37l-21 -75h-92l21 75h-178l23 80l234 237h105zM164 155l32 113l-110 -113h78z" />
    <glyph glyph-name="uniE048" unicode="&#xe048;" horiz-adv-x="325" 
d="M108 -7q-59 0 -94 29t-44 79l85 33q9 -58 61 -58q30 0 49.5 20.5t19.5 49.5q0 23 -14.5 37t-36.5 14q-37 0 -61 -33l-67 33l91 194h217l-25 -83h-150l-20 -46q25 7 45 7q49 0 81 -30t32 -81q0 -66 -49 -115.5t-120 -49.5z" />
    <glyph glyph-name="uniE049" unicode="&#xe049;" horiz-adv-x="316" 
d="M107 -6q-60 0 -95 33.5t-35 86.5q0 70 60 138l121 139h106l-106 -119h6q43 0 75.5 -30t32.5 -82q0 -64 -47.5 -115t-117.5 -51zM115 74q30 0 50 22.5t20 51.5q0 23 -14.5 37t-38.5 14q-27 0 -47.5 -21.5t-20.5 -51.5q0 -23 14 -37.5t37 -14.5z" />
    <glyph glyph-name="uniE04A" unicode="&#xe04a;" horiz-adv-x="304" 
d="M78 0h-109l231 305h-171l25 86h270l-25 -84z" />
    <glyph glyph-name="uniE04B" unicode="&#xe04b;" horiz-adv-x="322" 
d="M96 -6q-54 0 -85.5 28t-31.5 74q0 85 83 128q-13 22 -13 48q0 49 39.5 86.5t98.5 37.5q47 0 73.5 -24.5t26.5 -62.5q0 -58 -54 -100q29 -28 29 -66q0 -59 -49 -104t-117 -45zM160 247q20 0 33.5 15t13.5 33q0 30 -32 30q-20 0 -33 -14t-13 -32q0 -15 8.5 -23.5t22.5 -8.5
zM110 68q28 0 46.5 21t18.5 46q0 19 -12.5 30t-32.5 11q-27 0 -45.5 -20.5t-18.5 -45.5q0 -19 12 -30.5t32 -11.5z" />
    <glyph glyph-name="uniE04C" unicode="&#xe04c;" horiz-adv-x="316" 
d="M119 0h-106l106 119h-6q-43 0 -75.5 30t-32.5 82q0 64 47.5 115t117.5 51q60 0 95 -33.5t35 -86.5q0 -71 -60 -138zM162 317q-30 0 -50 -22.5t-20 -51.5q0 -23 14.5 -37t38.5 -14q27 0 47.5 21.5t20.5 51.5q0 23 -14 37.5t-37 14.5z" />
    <glyph glyph-name="uniE04D" unicode="&#xe04d;" horiz-adv-x="327" 
d="M194 287q-71 0 -106.5 45.5t-16.5 111.5l34 119q17 58 60.5 92t103.5 34q67 0 104.5 -44.5t17.5 -112.5l-34 -119q-17 -58 -60 -92t-103 -34zM205 378q46 0 61 49l32 110q8 26 -4.5 43.5t-37.5 17.5q-22 0 -38 -13t-22 -35l-31 -110q-7 -27 4.5 -44.5t35.5 -17.5z" />
    <glyph glyph-name="uniE04E" unicode="&#xe04e;" horiz-adv-x="172" 
d="M165 294h-95l87 303h-45l25 88h140z" />
    <glyph glyph-name="uniE04F" unicode="&#xe04f;" horiz-adv-x="315" 
d="M313 294h-274l21 76l170 119q37 26 51.5 44t14.5 39q0 17 -12.5 26t-31.5 8q-41 0 -77 -45l-66 47q64 82 155 83q57 1 92 -26.5t35 -74.5q0 -45 -30.5 -84.5t-109.5 -93.5l-57 -39h142z" />
    <glyph glyph-name="uniE050" unicode="&#xe050;" horiz-adv-x="325" 
d="M190 287q-58 0 -93.5 28.5t-43.5 79.5l84 33q9 -58 62 -58q29 0 48 20t19 45q0 24 -15 37t-37 13q-20 0 -36 -8l-23 59l110 67h-125l23 82h245l-24 -85l-85 -57q60 -29 60 -94q0 -64 -49 -113t-120 -49z" />
    <glyph glyph-name="uniE051" unicode="&#xe051;" horiz-adv-x="340" 
d="M342 449h36l-23 -80h-37l-21 -75h-92l21 75h-178l23 80l234 237h105zM250 449l32 113l-110 -113h78z" />
    <glyph glyph-name="uniE052" unicode="&#xe052;" horiz-adv-x="325" 
d="M194 287q-59 0 -94 29t-44 79l85 33q9 -58 61 -58q30 0 49.5 20.5t19.5 49.5q0 23 -14.5 37t-36.5 14q-37 0 -61 -33l-67 33l91 194h217l-25 -83h-150l-20 -46q24 7 45 7q49 0 81 -30t32 -81q0 -66 -49 -115.5t-120 -49.5z" />
    <glyph glyph-name="uniE053" unicode="&#xe053;" horiz-adv-x="316" 
d="M193 288q-60 0 -95 33.5t-35 86.5q0 70 60 138l121 139h106l-106 -119h6q43 0 75.5 -30t32.5 -82q0 -64 -47.5 -115t-117.5 -51zM201 368q30 0 50 22.5t20 51.5q0 23 -14.5 37t-38.5 14q-27 0 -47.5 -21.5t-20.5 -51.5q0 -23 14 -37.5t37 -14.5z" />
    <glyph glyph-name="uniE054" unicode="&#xe054;" horiz-adv-x="304" 
d="M164 294h-109l231 305h-171l25 86h270l-25 -84z" />
    <glyph glyph-name="uniE055" unicode="&#xe055;" horiz-adv-x="322" 
d="M182 288q-54 0 -85.5 28t-31.5 74q0 85 83 128q-13 22 -13 48q0 49 39.5 86.5t98.5 37.5q47 0 73.5 -24.5t26.5 -62.5q0 -58 -54 -100q29 -28 29 -66q0 -59 -49 -104t-117 -45zM246 541q20 0 33.5 15t13.5 33q0 30 -32 30q-20 0 -33 -14t-13 -32q0 -15 8.5 -23.5
t22.5 -8.5zM196 362q28 0 46.5 21t18.5 46q0 19 -12.5 30t-32.5 11q-27 0 -45.5 -20.5t-18.5 -45.5q0 -19 12 -30.5t32 -11.5z" />
    <glyph glyph-name="uniE056" unicode="&#xe056;" horiz-adv-x="316" 
d="M205 294h-106l106 119h-6q-43 0 -75.5 30t-32.5 82q0 64 47.5 115t117.5 51q60 0 95 -33.5t35 -86.5q0 -71 -60 -138zM248 611q-30 0 -50 -22.5t-20 -51.5q0 -23 14.5 -37t38.5 -14q27 0 47.5 21.5t20.5 51.5q0 23 -14 37.5t-37 14.5z" />
    <glyph glyph-name="uniE062" unicode="&#xe062;" horiz-adv-x="721" 
d="M289 448q0 -28 19 -62q57 15 80 36.5t23 51.5q0 22 -14.5 36t-37.5 14q-29 0 -49.5 -21t-20.5 -55zM258 107q40 0 81 18l-101 140q-76 -31 -76 -90q0 -31 25 -49.5t71 -18.5zM429 0l-23 31q-80 -39 -166 -39q-101 0 -160 43t-59 120q0 145 161 201q-18 42 -18 83
q0 83 57 139t147 56q76 0 123 -40t47 -102q0 -135 -171 -192l75 -101q74 81 101 193h134q-54 -181 -166 -286l79 -106h-161z" />
    <glyph glyph-name="uniE063" unicode="&#xe063;" 
d="M233 459q0 -32 35 -57l33 120q-34 -4 -51 -21.5t-17 -41.5zM229 -86l-97 -3l22 81q-75 18 -109.5 66.5t-29.5 118.5h139q-2 -46 34 -68l40 146q-66 30 -101 70t-35 103q0 88 63.5 147t178.5 59l24 85h96l-28 -98q64 -20 98 -67t33 -112h-139q1 37 -26 58l-39 -140
q72 -29 111 -65.5t39 -101.5q0 -89 -67 -148.5t-188 -59.5zM354 162l1 -1q0 34 -42 59l-33 -122q38 4 56 22t18 42z" />
    <glyph glyph-name="uniE064" unicode="&#xe064;" horiz-adv-x="529" 
d="M157 228q0 -68 49 -99l75 263q-53 -11 -88.5 -57t-35.5 -107zM505 116q-95 -129 -241 -133l-20 -68h-100l23 81q-71 22 -112 79.5t-41 137.5q0 126 89 217t217 95l21 74h100l-25 -86q98 -31 130 -122l-124 -68q-13 36 -44 56l-78 -268q60 9 110 77z" />
    <glyph glyph-name="uniE065" unicode="&#xe065;" horiz-adv-x="525" 
d="M283 431l-24 -78h162l-36 -125h-162l-19 -69q18 -4 66.5 -24t80.5 -20q25 0 57.5 10.5t51.5 20.5l20 11l-36 -125q-7 -5 -20 -12.5t-52.5 -19.5t-78.5 -12q-47 0 -107.5 26t-95.5 26q-25 0 -57.5 -11t-52.5 -22l-20 -11l36 126q30 21 78 34l20 72h-68l36 125h68l24 82
q27 93 87.5 149.5t151.5 56.5q137 0 182 -126l-120 -60q-24 61 -80 61q-66 0 -92 -85z" />
    <glyph glyph-name="uniE066" unicode="&#xe066;" horiz-adv-x="514" 
d="M403 360h117l-31 -107h-159l-9 -33h159l-31 -107h-159l-32 -113h-139l32 113h-159l31 107h160l9 33h-160l30 107h118l-63 269h145l40 -219l167 219h152z" />
    <glyph glyph-name="uniE067" unicode="&#xe067;" horiz-adv-x="526" 
d="M477 103l3 1q-34 -49 -91 -80.5t-124 -31.5q-92 0 -143 58t-46 143h-72l29 104h67l11 39h-67l29 103h68l3 8q26 88 95.5 141.5t158.5 53.5q145 0 192 -123l-122 -64q-22 62 -86 62q-36 0 -65.5 -21t-42.5 -58h130l-29 -103h-132l-11 -39h132l-29 -104h-128
q1 -35 23.5 -56t55.5 -21q55 0 90 53z" />
    <glyph glyph-name="uniE068" unicode="&#xe068;" horiz-adv-x="534" 
d="M269 372l-40 -113h79l39 113h-78zM514 500h63l-37 -128h-71l-40 -113h79l-37 -128h-88l-48 -131h-120l47 131h-79l-48 -131h-120l48 131h-61l37 128h69l40 113h-77l37 128h86l46 129h121l-47 -129h79l46 129h121z" />
    <glyph glyph-name="uniE069" unicode="&#xe069;" horiz-adv-x="753" 
d="M491 252l-31 277l-189 -277h220zM519 0l-14 122h-323l-83 -122h-166l472 685h191l79 -685h-156z" />
    <glyph glyph-name="uniE06A" unicode="&#xe06a;" horiz-adv-x="659" 
d="M342 0h-374l196 685h333q85 0 126 -45.5t41 -110.5q0 -61 -34 -109t-96 -73q87 -42 87 -130q0 -96 -73 -156.5t-206 -60.5zM447 552h-166l-39 -140h167q46 0 71.5 22.5t25.5 60.5q0 25 -14.5 41t-44.5 16zM398 281h-195l-42 -148h198q51 0 80.5 21.5t29.5 61.5
q0 28 -18 46.5t-53 18.5z" />
    <glyph glyph-name="uniE06B" unicode="&#xe06b;" horiz-adv-x="608" 
d="M-32 0l196 685h538l-40 -140h-383l-37 -129h357l-39 -136h-357l-40 -140h384l-40 -140h-539z" />
    <glyph glyph-name="uniE06C" unicode="&#xe06c;" horiz-adv-x="701" 
d="M432 0l77 268h-309l-77 -268h-155l196 685h155l-78 -275h309l78 275h155l-196 -685h-155z" />
    <glyph glyph-name="uniE06D" unicode="&#xe06d;" horiz-adv-x="649" 
d="M226 360h139q64 0 100.5 30t36.5 83q0 31 -18 50.5t-54 19.5h-151zM387 0l-193 247l-71 -247h-155l196 685h286q101 0 155.5 -54t54.5 -137q0 -48 -17 -94t-50 -84t-87 -61t-121 -23l185 -232h-183z" />
    <glyph glyph-name="uniE06E" unicode="&#xe06e;" horiz-adv-x="592" 
d="M360 255l11 260l-137 -260h126zM349 0l5 118h-193l-62 -118h-166l387 685h191l-6 -685h-156z" />
    <glyph glyph-name="uniE06F" unicode="&#xe06f;" horiz-adv-x="556" 
d="M241 0h-273l196 685h232q84 0 125.5 -45.5t41.5 -110.5q0 -61 -34 -109t-96 -73q87 -42 87 -130q0 -96 -73 -156.5t-206 -60.5zM346 552h-65l-39 -140h66q46 0 71.5 22.5t25.5 60.5q0 25 -14.5 41t-44.5 16zM297 281h-94l-42 -148h97q51 0 80.5 21.5t29.5 61.5
q0 28 -18 46.5t-53 18.5z" />
    <glyph glyph-name="uniE070" unicode="&#xe070;" horiz-adv-x="492" 
d="M-32 0l196 685h422l-40 -140h-267l-37 -129h241l-39 -136h-241l-40 -140h268l-40 -140h-423z" />
    <glyph glyph-name="uniE071" unicode="&#xe071;" horiz-adv-x="482" 
d="M427 243h-234l-70 -243h-155l196 685h415l-40 -142h-260l-47 -164h234z" />
    <glyph glyph-name="uniE072" unicode="&#xe072;" horiz-adv-x="598" 
d="M328 0l77 268h-205l-77 -268h-155l196 685h155l-78 -275h205l78 275h155l-196 -685h-155z" />
    <glyph glyph-name="uniE073" unicode="&#xe073;" horiz-adv-x="559" 
d="M302 0l-94 299l-85 -299h-155l196 685h155l-80 -281l240 281h191l-311 -342l121 -343h-178z" />
    <glyph glyph-name="uniE074" unicode="&#xe074;" horiz-adv-x="465" 
d="M-32 0l196 685h155l-155 -543h237l-41 -142h-392z" />
    <glyph glyph-name="uniE075" unicode="&#xe075;" horiz-adv-x="760" 
d="M260 0l-40 355l-101 -355h-151l196 685h159l49 -444l301 444h168l-196 -685h-148l99 346l-236 -346h-100z" />
    <glyph glyph-name="uniE076" unicode="&#xe076;" horiz-adv-x="552" 
d="M226 360h55q64 0 100.5 30t36.5 83q0 31 -18 50.5t-54 19.5h-67zM192 239l-69 -239h-155l196 685h202q101 0 155.5 -54t54.5 -137q0 -90 -56.5 -162t-157.5 -94l103 -238h-183z" />
    <glyph glyph-name="uniE077" unicode="&#xe077;" horiz-adv-x="501" 
d="M254 0h-155l156 543h-162l40 142h480l-40 -142h-163z" />
    <glyph glyph-name="uniE078" unicode="&#xe078;" horiz-adv-x="823" 
d="M430 0l27 394l-208 -394h-185l68 685h150l-67 -499l262 499h125l-31 -500l210 500h156l-313 -685h-194z" />
    <glyph glyph-name="uniE079" unicode="&#xe079;" horiz-adv-x="477" 
d="M532 555l-351 -416h237l-40 -139h-425l37 128l350 418h-230l39 139h420z" />
    <glyph glyph-name="uniE07A" unicode="&#xe07a;" 
d="M215 0h-258l-10 179l145 506h278q85 0 126 -45.5t41 -110.5q0 -61 -34 -109t-96 -73q87 -42 87 -130q0 -96 -73 -156.5t-206 -60.5zM282 412q46 0 71.5 22.5t25.5 60.5q0 25 -14.5 41t-44.5 16h-111l-40 -140h113zM232 133q51 0 80.5 21.5t29.5 61.5q0 28 -18 46.5
t-53 18.5h-139l-43 -148h143z" />
    <glyph glyph-name="uniE07B" unicode="&#xe07b;" horiz-adv-x="618" 
d="M308 685q140 0 227 -81t87 -211q0 -157 -118.5 -275t-288.5 -118h-258l-10 178l145 507h216zM295 543h-88l-115 -401h136q106 0 171 71t65 166q0 76 -46.5 120t-122.5 44z" />
    <glyph glyph-name="uniE07C" unicode="&#xe07c;" horiz-adv-x="491" 
d="M430 140l-40 -140h-433l-10 179l145 506h493l-40 -140h-338l-37 -129h312l-39 -136h-312l-40 -140h339z" />
    <glyph glyph-name="uniE07D" unicode="&#xe07d;" horiz-adv-x="472" 
d="M121 243l-70 -243h-94l-10 179l145 506h476l-40 -142h-321l-47 -164h296l-39 -136h-296z" />
    <glyph glyph-name="uniE07E" unicode="&#xe07e;" horiz-adv-x="601" 
d="M128 268l-77 -268h-94l-10 179l145 506h155l-78 -275h280l78 275h155l-196 -685h-155l77 268h-280z" />
    <glyph glyph-name="uniE07F" unicode="&#xe07f;" horiz-adv-x="166" 
d="M51 0h-94l-10 179l145 506h155z" />
    <glyph glyph-name="uniE080" unicode="&#xe080;" horiz-adv-x="548" 
d="M300 0l-160 312l-89 -312h-94l-10 179l145 506h155l-86 -300l300 300h201l-364 -342l180 -343h-178z" />
    <glyph glyph-name="uniE081" unicode="&#xe081;" horiz-adv-x="453" 
d="M361 0h-404l-10 179l145 506h155l-155 -543h310z" />
    <glyph glyph-name="uniE082" unicode="&#xe082;" horiz-adv-x="760" 
d="M227 0l-62 415l-118 -415h-90l-10 177l145 508h182l64 -448l322 448h192l-196 -685h-148l117 409l-298 -409h-100z" />
    <glyph glyph-name="uniE083" unicode="&#xe083;" horiz-adv-x="595" 
d="M316 0l-143 441l-126 -441h-90l-11 176l146 509h164l143 -440l126 440h151l-196 -685h-164z" />
    <glyph glyph-name="uniE084" unicode="&#xe084;" horiz-adv-x="520" 
d="M247 191h-141l-55 -191h-94l-10 177l145 508h267q94 0 146 -57t52 -144q0 -120 -86 -206.5t-224 -86.5zM311 543h-104l-61 -210h121q61 0 96 36t35 91q0 37 -23 60t-64 23z" />
    <glyph glyph-name="uniE085" unicode="&#xe085;" horiz-adv-x="526" 
d="M324 543h-117l-53 -183h105q64 0 100.5 30t36.5 83q0 31 -18 50.5t-54 19.5zM260 0l-140 239l-69 -239h-93l-11 178l145 507h252q101 0 155.5 -54t54.5 -137q0 -100 -68.5 -176.5t-190.5 -85.5l148 -232h-183z" />
    <glyph glyph-name="uniE086" unicode="&#xe086;" horiz-adv-x="536" 
d="M434 0h-476l-8 128l431 418h-310l39 139h514l-37 -130l-430 -416h317z" />
    <glyph glyph-name="uniE087" unicode="&#xe087;" horiz-adv-x="484" 
d="M161 0h-193l-61 209l136 476h273q84 0 125.5 -45.5t41.5 -110.5q0 -61 -34 -109t-96 -73q87 -42 87 -130q0 -96 -73 -156.5t-206 -60.5zM266 552h-106l-39 -140h107q46 0 71.5 22.5t25.5 60.5q0 25 -14.5 41t-44.5 16zM217 281h-135l-42 -148h138q51 0 80.5 21.5
t29.5 61.5q0 28 -18 46.5t-53 18.5z" />
    <glyph glyph-name="uniE088" unicode="&#xe088;" horiz-adv-x="569" 
d="M166 0h-198l-61 209l136 476h216q140 0 227 -81t87 -211q0 -157 -118.5 -275t-288.5 -118zM246 543h-88l-115 -401h136q106 0 171 71t65 166q0 76 -46.5 120t-122.5 44z" />
    <glyph glyph-name="uniE089" unicode="&#xe089;" horiz-adv-x="465" 
d="M363 0h-395l-49 169l147 516h492l-40 -140h-337l-37 -129h312l-39 -136h-312l-40 -140h338z" />
    <glyph glyph-name="uniE08A" unicode="&#xe08a;" horiz-adv-x="446" 
d="M25 0h-57l-49 169l147 516h476l-40 -142h-321l-47 -164h295l-39 -136h-295z" />
    <glyph glyph-name="uniE08B" unicode="&#xe08b;" horiz-adv-x="575" 
d="M-81 169l147 516h155l-78 -275h279l78 275h155l-196 -685h-155l77 268h-279l-77 -268h-57z" />
    <glyph glyph-name="uniE08C" unicode="&#xe08c;" horiz-adv-x="140" 
d="M25 0h-57l-49 169l147 516h155z" />
    <glyph glyph-name="uniE08D" unicode="&#xe08d;" horiz-adv-x="521" 
d="M274 0l-160 312l-89 -312h-57l-49 170l147 515h155l-86 -300l300 300h201l-364 -342l180 -343h-178z" />
    <glyph glyph-name="uniE08E" unicode="&#xe08e;" horiz-adv-x="404" 
d="M312 0h-344l-61 209l136 476h155l-155 -543h310z" />
    <glyph glyph-name="uniE08F" unicode="&#xe08f;" horiz-adv-x="734" 
d="M201 0l-62 415l-118 -415h-53l-49 169l147 516h182l64 -448l322 448h192l-196 -685h-148l117 409l-298 -409h-100z" />
    <glyph glyph-name="uniE090" unicode="&#xe090;" horiz-adv-x="568" 
d="M290 0l-143 441l-126 -441h-53l-49 169l147 516h164l143 -440l126 440h151l-196 -685h-164z" />
    <glyph glyph-name="uniE091" unicode="&#xe091;" horiz-adv-x="494" 
d="M221 191h-141l-55 -191h-57l-49 170l147 515h267q94 0 146 -57t52 -144q0 -120 -86 -206.5t-224 -86.5zM241 333q61 0 96 36t35 91q0 37 -23 60t-64 23h-104l-61 -210h121z" />
    <glyph glyph-name="uniE092" unicode="&#xe092;" horiz-adv-x="499" 
d="M299 543h-117l-53 -183h105q64 0 100.5 30t36.5 83q0 31 -18 50.5t-54 19.5zM235 0l-140 239l-69 -239h-58l-49 168l148 517h252q101 0 155.5 -54t54.5 -137q0 -100 -68.5 -176.5t-190.5 -85.5l148 -232h-183z" />
    <glyph glyph-name="uniE093" unicode="&#xe093;" horiz-adv-x="477" 
d="M375 0h-407l-45 159l398 387h-310l39 139h515l-37 -130l-430 -416h317z" />
    <glyph glyph-name="uniE094" unicode="&#xe094;" horiz-adv-x="901" 
d="M266 0l-114 465l-131 -465h-53l-50 169l147 516h175l101 -422l118 422h189l178 -685h-165l-118 487l-137 -487h-140z" />
    <glyph glyph-name="uniE095" unicode="&#xe095;" horiz-adv-x="562" 
d="M249 252l-79 272l-78 -272h157zM322 0l-35 122h-232l-35 -122h-52l-49 168l148 517h205l216 -685h-166z" />
    <glyph glyph-name="uniE096" unicode="&#xe096;" horiz-adv-x="400" 
d="M-61 85l47 171l-120 429h159l72 -288l234 288h177l-366 -430l-73 -255h-104z" />
    <glyph glyph-name="uniE097" unicode="&#xe097;" horiz-adv-x="342" 
d="M-69 110l124 433h-199l40 142h553l-40 -142h-199l-156 -543h-89z" />
    <glyph glyph-name="uniE098" unicode="&#xe098;" horiz-adv-x="485" 
d="M162 0h-192l-59 221l133 464h273q85 0 126 -45.5t41 -110.5q0 -61 -34 -109t-96 -73q87 -42 87 -130q0 -96 -73 -156.5t-206 -60.5zM267 552h-106l-39 -140h107q46 0 71.5 22.5t25.5 60.5q0 25 -14.5 41t-44.5 16zM218 281h-135l-42 -148h138q51 0 80.5 21.5t29.5 61.5
q0 28 -18 46.5t-53 18.5z" />
    <glyph glyph-name="uniE099" unicode="&#xe099;" horiz-adv-x="570" 
d="M167 0h-197l-59 221l133 464h216q140 0 227 -81t87 -211q0 -157 -118.5 -275t-288.5 -118zM247 543h-88l-115 -401h136q106 0 171 71t65 166q0 76 -46.5 120t-122.5 44z" />
    <glyph glyph-name="uniE09A" unicode="&#xe09a;" horiz-adv-x="468" 
d="M367 0h-397l-48 174l147 511h492l-40 -140h-337l-37 -129h312l-39 -136h-312l-40 -140h339z" />
    <glyph glyph-name="uniE09B" unicode="&#xe09b;" horiz-adv-x="449" 
d="M28 0h-58l-48 174l147 511h476l-40 -142h-321l-47 -164h296l-39 -136h-296z" />
    <glyph glyph-name="uniE09C" unicode="&#xe09c;" horiz-adv-x="578" 
d="M-30 0l-48 174l147 511h155l-78 -275h280l78 275h155l-196 -685h-155l77 268h-280l-77 -268h-58z" />
    <glyph glyph-name="uniE09D" unicode="&#xe09d;" horiz-adv-x="143" 
d="M28 0h-58l-48 174l147 511h155z" />
    <glyph glyph-name="uniE09E" unicode="&#xe09e;" horiz-adv-x="524" 
d="M277 0l-160 312l-89 -312h-58l-48 174l147 511h155l-86 -300l300 300h201l-364 -342l180 -343h-178z" />
    <glyph glyph-name="uniE09F" unicode="&#xe09f;" horiz-adv-x="406" 
d="M313 0h-343l-59 221l133 464h155l-155 -543h310z" />
    <glyph glyph-name="uniE0A0" unicode="&#xe0a0;" horiz-adv-x="571" 
d="M-30 0l-48 174l147 511h169l143 -435l124 435h149l-196 -685h-170l-142 434l-124 -434h-52z" />
    <glyph glyph-name="uniE0A1" unicode="&#xe0a1;" horiz-adv-x="497" 
d="M336 685q94 0 146 -57t52 -144q0 -120 -86 -206.5t-224 -86.5h-141l-55 -191h-58l-48 172l147 513h267zM288 543h-104l-61 -210h121q61 0 96 36t35 91q0 37 -23 60t-64 23z" />
    <glyph glyph-name="uniE0A2" unicode="&#xe0a2;" horiz-adv-x="502" 
d="M301 543h-117l-53 -183h105q64 0 100.5 30t36.5 83q0 31 -18 50.5t-54 19.5zM237 0l-140 239l-69 -239h-58l-48 174l147 511h252q101 0 155.5 -54t54.5 -137q0 -100 -68.5 -176.5t-190.5 -85.5l148 -232h-183z" />
    <glyph glyph-name="uniE0A3" unicode="&#xe0a3;" horiz-adv-x="565" 
d="M251 252l-79 272l-78 -272h157zM324 0l-35 122h-232l-35 -122h-52l-48 174l147 511h205l216 -685h-166z" />
    <glyph glyph-name="uniE0A4" unicode="&#xe0a4;" horiz-adv-x="905" 
d="M270 0l-113 466l-132 -466h-55l-48 174l147 511h175l102 -422l117 422h189l178 -685h-165l-118 487l-137 -487h-140z" />
    <glyph glyph-name="uniE0A5" unicode="&#xe0a5;" horiz-adv-x="402" 
d="M-59 85l47 171l-120 429h159l72 -288l233 288h178l-366 -430l-73 -255h-106z" />
    <glyph glyph-name="uniE0A6" unicode="&#xe0a6;" horiz-adv-x="349" 
d="M-64 105l127 442l-201 -4l40 142h553l-40 -142h-199l-156 -543h-95z" />
    <glyph glyph-name="uniE0A7" unicode="&#xe0a7;" horiz-adv-x="541" 
d="M218 0h-245l-45 83l148 517l85 85h212q84 0 125.5 -45.5t41.5 -110.5q0 -61 -34 -109t-96 -73q87 -42 87 -130q0 -96 -73 -156.5t-206 -60.5zM323 552h-106l-39 -140h107q46 0 71.5 22.5t25.5 60.5q0 25 -14.5 41t-44.5 16zM274 281h-135l-42 -148h138q51 0 80.5 21.5
t29.5 61.5q0 28 -18 46.5t-53 18.5z" />
    <glyph glyph-name="uniE0A8" unicode="&#xe0a8;" horiz-adv-x="625" 
d="M368 255l-9 267l-162 -267h171zM537 0h-159l-4 118h-261l-72 -118h-68l-45 83l378 602h191z" />
    <glyph glyph-name="uniE0A9" unicode="&#xe0a9;" horiz-adv-x="596" 
d="M282 252l-79 272l-78 -272h157zM355 0l-35 122h-232l-35 -122h-79l-45 84l147 515l86 86h143l216 -685h-166z" />
    <glyph glyph-name="uniE0AA" unicode="&#xe0aa;" horiz-adv-x="626" 
d="M223 0h-250l-45 83l148 517l85 85h155q140 0 227 -81t87 -211q0 -157 -118.5 -275t-288.5 -118zM303 543h-88l-115 -401h136q106 0 171 71t65 166q0 76 -46.5 120t-122.5 44z" />
    <glyph glyph-name="uniE0AB" unicode="&#xe0ab;" horiz-adv-x="498" 
d="M397 0h-424l-45 83l148 517l85 85h431l-40 -140h-337l-37 -129h311l-39 -136h-311l-40 -140h338z" />
    <glyph glyph-name="uniE0AC" unicode="&#xe0ac;" horiz-adv-x="480" 
d="M-27 0l-45 83l148 517l85 85h415l-40 -142h-321l-47 -164h295l-39 -136h-295l-70 -243h-86z" />
    <glyph glyph-name="uniE0AD" unicode="&#xe0ad;" horiz-adv-x="609" 
d="M59 0h-86l-45 83l148 517l85 85h94l-78 -275h279l78 275h155l-196 -685h-155l77 268h-279z" />
    <glyph glyph-name="uniE0AE" unicode="&#xe0ae;" horiz-adv-x="173" 
d="M-27 0l-45 83l148 517l85 85h94l-196 -685h-86z" />
    <glyph glyph-name="uniE0AF" unicode="&#xe0af;" horiz-adv-x="555" 
d="M59 0h-86l-45 83l148 517l85 85h94l-86 -300l300 300h201l-364 -342l180 -343h-178l-160 312z" />
    <glyph glyph-name="uniE0B0" unicode="&#xe0b0;" horiz-adv-x="461" 
d="M-27 0l-45 83l148 517l85 85h94l-155 -543h309l-41 -142h-395z" />
    <glyph glyph-name="uniE0B1" unicode="&#xe0b1;" horiz-adv-x="767" 
d="M55 0h-82l-45 83l148 517l85 85h121l64 -448l322 448h192l-196 -685h-148l117 409l-298 -409h-100l-62 415z" />
    <glyph glyph-name="uniE0B2" unicode="&#xe0b2;" horiz-adv-x="936" 
d="M301 0l-114 465l-131 -465h-82l-45 84l147 515l86 86h113l101 -422l118 422h189l178 -685h-165l-118 487l-137 -487h-140z" />
    <glyph glyph-name="uniE0B3" unicode="&#xe0b3;" horiz-adv-x="602" 
d="M324 0l-143 441l-126 -441h-82l-45 83l148 517l85 85h103l143 -440l126 440h151l-196 -685h-164z" />
    <glyph glyph-name="uniE0B4" unicode="&#xe0b4;" horiz-adv-x="528" 
d="M255 191h-141l-55 -191h-86l-45 83l148 517l85 85h206q94 0 146 -57t52 -144q0 -120 -86 -206.5t-224 -86.5zM319 543h-104l-61 -210h121q61 0 96 36t35 91q0 37 -23 60t-64 23z" />
    <glyph glyph-name="uniE0B5" unicode="&#xe0b5;" 
d="M267 360q64 0 100.5 30t36.5 83q0 31 -18 50.5t-54 19.5h-117l-53 -183h105zM268 0l-140 239l-69 -239h-86l-45 83l148 517l85 85h191q101 0 155.5 -54t54.5 -137q0 -100 -68.5 -176.5t-190.5 -85.5l148 -232h-183z" />
    <glyph glyph-name="uniE0B6" unicode="&#xe0b6;" horiz-adv-x="600" 
d="M288 0h-191l-30 593l97 92h56l14 -527l317 527h165z" />
    <glyph glyph-name="uniE0B7" unicode="&#xe0b7;" horiz-adv-x="859" 
d="M430 0l7 422l-237 -422h-185l27 570l122 115h39l-38 -493l273 493h135l-8 -495l246 495h161l-358 -685h-184z" />
    <glyph glyph-name="uniE0B8" unicode="&#xe0b8;" horiz-adv-x="569" 
d="M243 0h-156l73 256l-93 336l97 93h35l72 -288l233 288h178l-366 -430z" />
    <glyph glyph-name="uniE0B9" unicode="&#xe0b9;" horiz-adv-x="468" 
d="M344 543l-156 -543h-155l156 543h-173l146 142h421l-40 -142h-199z" />
    <glyph glyph-name="uniE0BA" unicode="&#xe0ba;" horiz-adv-x="515" 
d="M400 0h-153l35 122h-219l-91 -110l-69 125l468 548h225zM319 252l79 275l-227 -275h148z" />
    <glyph glyph-name="uniE0BB" unicode="&#xe0bb;" horiz-adv-x="858" 
d="M587 0l127 442l-372 -442h-150l127 443l-346 -432l-72 129l445 545h183l-116 -404l340 404h186l-196 -685h-156z" />
    <glyph glyph-name="uniE0BC" unicode="&#xe0bc;" horiz-adv-x="548" 
d="M300 255l-9 267l-162 -267h171zM467 0h-158l-3 118h-262l-71 -118h-20l-76 116l360 569h191z" />
    <glyph glyph-name="uniE0BD" unicode="&#xe0bd;" horiz-adv-x="583" 
d="M260 0h-233l-61 70l176 615h273q85 0 126 -45.5t41 -110.5q0 -61 -34 -109t-96 -73q87 -42 87 -130q0 -96 -73 -156.5t-206 -60.5zM365 552h-106l-39 -140h107q46 0 71.5 22.5t25.5 60.5q0 25 -14.5 41t-44.5 16zM316 281h-135l-42 -148h138q51 0 80.5 21.5t29.5 61.5
q0 28 -18 46.5t-53 18.5z" />
    <glyph glyph-name="uniE0BE" unicode="&#xe0be;" horiz-adv-x="668" 
d="M265 0h-238l-61 70l176 615h216q140 0 227 -81t87 -211q0 -157 -118.5 -275t-288.5 -118zM345 543h-88l-115 -401h136q106 0 171 71t65 166q0 76 -46.5 120t-122.5 44z" />
    <glyph glyph-name="uniE0BF" unicode="&#xe0bf;" horiz-adv-x="541" 
d="M440 0h-413l-61 70l176 615h493l-40 -140h-338l-37 -129h312l-39 -136h-312l-40 -140h339z" />
    <glyph glyph-name="uniE0C0" unicode="&#xe0c0;" horiz-adv-x="523" 
d="M101 0h-74l-61 70l176 615h477l-40 -142h-322l-47 -164h296l-39 -136h-296z" />
    <glyph glyph-name="uniE0C1" unicode="&#xe0c1;" horiz-adv-x="651" 
d="M178 268l-77 -268h-74l-61 70l176 615h155l-78 -275h280l78 275h155l-196 -685h-155l77 268h-280z" />
    <glyph glyph-name="uniE0C2" unicode="&#xe0c2;" horiz-adv-x="216" 
d="M101 0h-74l-61 70l176 615h155z" />
    <glyph glyph-name="uniE0C3" unicode="&#xe0c3;" horiz-adv-x="598" 
d="M350 0l-160 312l-89 -312h-74l-61 70l176 615h155l-86 -300l300 300h201l-364 -342l180 -343h-178z" />
    <glyph glyph-name="uniE0C4" unicode="&#xe0c4;" horiz-adv-x="503" 
d="M411 0h-384l-61 70l176 615h155l-155 -543h310z" />
    <glyph glyph-name="uniE0C5" unicode="&#xe0c5;" horiz-adv-x="823" 
d="M277 0l-62 415l-118 -415h-70l-61 70l176 615h182l64 -448l322 448h192l-196 -685h-148l117 409l-298 -409h-100z" />
    <glyph glyph-name="uniE0C6" unicode="&#xe0c6;" horiz-adv-x="645" 
d="M366 0l-143 441l-126 -441h-70l-61 70l176 615h164l143 -440l126 440h151l-196 -685h-164z" />
    <glyph glyph-name="uniE0C7" unicode="&#xe0c7;" horiz-adv-x="571" 
d="M410 685q94 0 146 -57t52 -144q0 -120 -86 -206.5t-224 -86.5h-141l-55 -191h-74l-61 69l176 616h267zM362 543h-104l-61 -210h121q61 0 96 36t35 91q0 37 -23 60t-64 23z" />
    <glyph glyph-name="uniE0C8" unicode="&#xe0c8;" horiz-adv-x="576" 
d="M374 543h-117l-53 -183h105q64 0 100.5 30t36.5 83q0 31 -18 50.5t-54 19.5zM310 0l-140 239l-69 -239h-74l-61 70l176 615h252q101 0 155.5 -54t54.5 -137q0 -100 -68.5 -176.5t-190.5 -85.5l148 -232h-183z" />
    <glyph glyph-name="uniE0C9" unicode="&#xe0c9;" horiz-adv-x="493" 
d="M377 0h-153l35 122h-219l-91 -110l-78 115l477 558h225zM296 252l79 275l-227 -275h148z" />
    <glyph glyph-name="uniE0CA" unicode="&#xe0ca;" horiz-adv-x="835" 
d="M564 0l127 442l-372 -442h-150l127 443l-346 -432l-80 119l453 555h183l-116 -404l340 404h186l-196 -685h-156z" />
    <glyph glyph-name="uniE0CB" unicode="&#xe0cb;" horiz-adv-x="639" 
d="M324 252l-79 272l-78 -272h157zM397 0l-35 122h-232l-35 -122h-68l-61 70l176 615h205l216 -685h-166z" />
    <glyph glyph-name="uniE0CC" unicode="&#xe0cc;" horiz-adv-x="978" 
d="M343 0l-114 465l-131 -465h-71l-61 70l176 615h175l101 -422l118 422h189l178 -685h-165l-118 487l-137 -487h-140z" />
    <glyph glyph-name="uniE0CD" unicode="&#xe0cd;" horiz-adv-x="978" 
d="M356 0l116 404l-340 -404h-105l-61 70l176 615h156l-126 -439l371 439h148l-128 -447l358 447h178l-560 -685h-183z" />
    <glyph glyph-name="uniE0CE" unicode="&#xe0ce;" horiz-adv-x="640" 
d="M172 0h-145l-61 70l176 615h153l-149 -523l431 523h183z" />
    <glyph glyph-name="uniE0CF" unicode="&#xe0cf;" horiz-adv-x="492" 
d="M169 0h-314l137 476l180 209h152q84 0 125.5 -45.5t41.5 -110.5q0 -61 -34 -109t-96 -73q87 -42 87 -130q0 -96 -73 -156.5t-206 -60.5zM274 552h-106l-39 -140h107q46 0 71.5 22.5t25.5 60.5q0 25 -14.5 41t-44.5 16zM225 281h-135l-42 -148h138q51 0 80.5 21.5
t29.5 61.5q0 28 -18 46.5t-53 18.5z" />
    <glyph glyph-name="uniE0D0" unicode="&#xe0d0;" horiz-adv-x="577" 
d="M174 0h-319l138 476l179 209h95q140 0 227 -81t87 -211q0 -157 -118.5 -275t-288.5 -118zM254 543h-88l-115 -401h136q106 0 171 71t65 166q0 76 -46.5 120t-122.5 44z" />
    <glyph glyph-name="uniE0D1" unicode="&#xe0d1;" horiz-adv-x="450" 
d="M349 0h-494l138 476l179 209h372l-40 -140h-338l-37 -129h312l-39 -136h-312l-40 -140h339z" />
    <glyph glyph-name="uniE0D2" unicode="&#xe0d2;" horiz-adv-x="432" 
d="M10 0h-155l138 476l179 209h356l-40 -142h-322l-47 -164h296l-39 -136h-296z" />
    <glyph glyph-name="uniE0D3" unicode="&#xe0d3;" horiz-adv-x="583" 
d="M28 516l144 169h57l-78 -275h279l78 275h155l-196 -685h-155l77 268h-279l-77 -268h-155z" />
    <glyph glyph-name="uniE0D4" unicode="&#xe0d4;" horiz-adv-x="148" 
d="M28 516l144 169h57l-196 -685h-155z" />
    <glyph glyph-name="uniE0D5" unicode="&#xe0d5;" horiz-adv-x="529" 
d="M282 0l-160 312l-89 -312h-155l150 516l144 169h57l-86 -300l300 300h201l-364 -342l180 -343h-178z" />
    <glyph glyph-name="uniE0D6" unicode="&#xe0d6;" horiz-adv-x="435" 
d="M-122 0l150 516l144 169h57l-155 -543h309l-41 -142h-464z" />
    <glyph glyph-name="uniE0D7" unicode="&#xe0d7;" horiz-adv-x="719" 
d="M187 0l-62 415l-118 -415h-151l138 476l179 209h61l64 -448l322 448h192l-196 -685h-148l117 409l-298 -409h-100z" />
    <glyph glyph-name="uniE0D8" unicode="&#xe0d8;" horiz-adv-x="554" 
d="M275 0l-143 441l-126 -441h-151l138 476l179 209h43l143 -440l126 440h151l-196 -685h-164z" />
    <glyph glyph-name="uniE0D9" unicode="&#xe0d9;" horiz-adv-x="479" 
d="M206 191h-141l-55 -191h-155l138 476l179 209h146q94 0 146 -57t52 -144q0 -120 -86 -206.5t-224 -86.5zM270 543h-104l-61 -210h121q61 0 96 36t35 91q0 37 -23 60t-64 23z" />
    <glyph glyph-name="uniE0DA" unicode="&#xe0da;" horiz-adv-x="485" 
d="M218 360q64 0 100.5 30t36.5 83q0 31 -18 50.5t-54 19.5h-117l-53 -183h105zM219 0l-140 239l-69 -239h-155l138 477l179 208h131q101 0 155.5 -54t54.5 -137q0 -100 -68.5 -176.5t-190.5 -85.5l148 -232h-183z" />
    <glyph glyph-name="uniE0DB" unicode="&#xe0db;" horiz-adv-x="491" 
d="M367 543l-156 -543h-155l156 543h-161l121 142h434l-40 -142h-199z" />
    <glyph glyph-name="uniE0DC" unicode="&#xe0dc;" horiz-adv-x="910" 
d="M289 0l116 404l-340 -404h-186l149 516l144 169h59l-126 -439l371 439h148l-128 -447l358 447h178l-560 -685h-183z" />
    <glyph glyph-name="uniE0DD" unicode="&#xe0dd;" horiz-adv-x="571" 
d="M-122 0l149 514l144 171h56l-150 -523l433 523h181l-588 -685h-225z" />
    <glyph glyph-name="uniE0DE" unicode="&#xe0de;" horiz-adv-x="539" 
d="M216 0h-314l144 501l116 184h209q85 0 126 -45.5t41 -110.5q0 -61 -34 -109t-96 -73q87 -42 87 -130q0 -96 -73 -156.5t-206 -60.5zM321 552h-106l-39 -140h107q46 0 71.5 22.5t25.5 60.5q0 25 -14.5 41t-44.5 16zM272 281h-135l-42 -148h138q51 0 80.5 21.5t29.5 61.5
q0 28 -18 46.5t-53 18.5z" />
    <glyph glyph-name="uniE0DF" unicode="&#xe0df;" horiz-adv-x="624" 
d="M221 0h-319l144 501l117 184h151q140 0 227 -81t87 -211q0 -157 -118.5 -275t-288.5 -118zM301 543h-88l-115 -401h136q106 0 171 71t65 166q0 76 -46.5 120t-122.5 44z" />
    <glyph glyph-name="uniE0E0" unicode="&#xe0e0;" horiz-adv-x="497" 
d="M-98 0l144 501l117 184h428l-40 -140h-338l-37 -129h312l-39 -136h-312l-40 -140h339l-40 -140h-494z" />
    <glyph glyph-name="uniE0E1" unicode="&#xe0e1;" horiz-adv-x="479" 
d="M-98 0l144 501l117 184h412l-40 -142h-322l-47 -164h296l-39 -136h-296l-70 -243h-155z" />
    <glyph glyph-name="uniE0E2" unicode="&#xe0e2;" horiz-adv-x="607" 
d="M163 685h90l-76 -268h280l76 268h155l-196 -685h-155l79 275h-280l-79 -275h-155l144 501z" />
    <glyph glyph-name="uniE0E3" unicode="&#xe0e3;" horiz-adv-x="172" 
d="M-98 0l144 501l117 184h90l-196 -685h-155z" />
    <glyph glyph-name="uniE0E4" unicode="&#xe0e4;" horiz-adv-x="554" 
d="M306 0l-160 312l-89 -312h-155l144 501l117 184h90l-86 -300l300 300h201l-364 -342l180 -343h-178z" />
    <glyph glyph-name="uniE0E5" unicode="&#xe0e5;" horiz-adv-x="459" 
d="M-98 0l144 501l117 184h90l-155 -543h310l-41 -142h-465z" />
    <glyph glyph-name="uniE0E6" unicode="&#xe0e6;" horiz-adv-x="779" 
d="M233 0l-62 415l-118 -415h-151l144 500l118 185h116l64 -448l322 448h192l-196 -685h-148l117 409l-298 -409h-100z" />
    <glyph glyph-name="uniE0E7" unicode="&#xe0e7;" horiz-adv-x="601" 
d="M322 0l-143 441l-126 -441h-151l144 500l117 185h99l143 -440l126 440h151l-196 -685h-164z" />
    <glyph glyph-name="uniE0E8" unicode="&#xe0e8;" horiz-adv-x="526" 
d="M253 191h-141l-55 -191h-155l144 501l117 184h202q94 0 146 -57t52 -144q0 -120 -86 -206.5t-224 -86.5zM317 543h-104l-61 -210h121q61 0 96 36t35 91q0 37 -23 60t-64 23z" />
    <glyph glyph-name="uniE0E9" unicode="&#xe0e9;" horiz-adv-x="532" 
d="M265 360q64 0 100.5 30t36.5 83q0 31 -18 50.5t-54 19.5h-117l-53 -183h105zM266 0l-140 239l-69 -239h-155l143 499l118 186h187q101 0 155.5 -54t54.5 -137q0 -100 -68.5 -176.5t-190.5 -85.5l148 -232h-183z" />
    <glyph glyph-name="uniE0EA" unicode="&#xe0ea;" horiz-adv-x="484" 
d="M361 543l-156 -543h-155l156 543h-133l85 142h442l-40 -142h-199z" />
    <glyph glyph-name="uniE0EB" unicode="&#xe0eb;" horiz-adv-x="531" 
d="M208 0h-314l114 396l149 289h206q85 0 126 -45.5t41 -110.5q0 -61 -34 -109t-96 -73q87 -42 87 -130q0 -96 -73 -156.5t-206 -60.5zM313 552h-106l-39 -140h107q46 0 71.5 22.5t25.5 60.5q0 25 -14.5 41t-44.5 16zM264 281h-135l-42 -148h138q51 0 80.5 21.5t29.5 61.5
q0 28 -18 46.5t-53 18.5z" />
    <glyph glyph-name="uniE0EC" unicode="&#xe0ec;" horiz-adv-x="616" 
d="M213 0h-319l114 396l149 289h149q140 0 227 -81t87 -211q0 -157 -118.5 -275t-288.5 -118zM293 543h-88l-115 -401h136q106 0 171 71t65 166q0 76 -46.5 120t-122.5 44z" />
    <glyph glyph-name="uniE0ED" unicode="&#xe0ed;" horiz-adv-x="489" 
d="M-106 0l114 396l149 289h425l-40 -140h-337l-37 -129h312l-39 -136h-312l-40 -140h338l-40 -140h-493z" />
    <glyph glyph-name="uniE0EE" unicode="&#xe0ee;" horiz-adv-x="470" 
d="M-106 0l114 396l149 289h409l-40 -142h-321l-47 -164h296l-39 -136h-296l-70 -243h-155z" />
    <glyph glyph-name="uniE0EF" unicode="&#xe0ef;" horiz-adv-x="599" 
d="M126 268l-77 -268h-155l114 396l149 289h88l-78 -275h280l78 275h155l-196 -685h-155l77 268h-280z" />
    <glyph glyph-name="uniE0F0" unicode="&#xe0f0;" horiz-adv-x="164" 
d="M-106 0l114 396l149 289h88l-196 -685h-155z" />
    <glyph glyph-name="uniE0F1" unicode="&#xe0f1;" horiz-adv-x="545" 
d="M298 0l-160 312l-89 -312h-155l114 396l149 289h88l-86 -300l300 300h201l-364 -342l180 -343h-178z" />
    <glyph glyph-name="uniE0F2" unicode="&#xe0f2;" horiz-adv-x="451" 
d="M-106 0l114 396l149 289h88l-155 -543h309l-41 -142h-464z" />
    <glyph glyph-name="uniE0F3" unicode="&#xe0f3;" horiz-adv-x="771" 
d="M226 0l-62 415l-118 -415h-152l114 396l150 289h115l64 -448l322 448h192l-196 -685h-148l117 409l-298 -409h-100z" />
    <glyph glyph-name="uniE0F4" unicode="&#xe0f4;" horiz-adv-x="592" 
d="M314 0l-143 441l-126 -441h-151l114 396l149 289h97l143 -440l126 440h151l-196 -685h-164z" />
    <glyph glyph-name="uniE0F5" unicode="&#xe0f5;" horiz-adv-x="518" 
d="M357 685q94 0 146 -57t52 -144q0 -120 -86 -206.5t-224 -86.5h-141l-55 -191h-155l115 399l148 286h200zM309 543h-104l-61 -210h121q61 0 96 36t35 91q0 37 -23 60t-64 23z" />
    <glyph glyph-name="uniE0F6" unicode="&#xe0f6;" horiz-adv-x="523" 
d="M322 543h-117l-53 -183h105q64 0 100.5 30t36.5 83q0 31 -18 50.5t-54 19.5zM258 0l-140 239l-69 -239h-155l114 395l149 290h185q101 0 155.5 -54t54.5 -137q0 -100 -68.5 -176.5t-190.5 -85.5l148 -232h-183z" />
    <glyph glyph-name="uniE0F7" unicode="&#xe0f7;" horiz-adv-x="501" 
d="M378 543l-156 -543h-155l156 543h-140l72 142h462l-40 -142h-199z" />
    <glyph glyph-name="uniE0F8" unicode="&#xe0f8;" horiz-adv-x="496" 
d="M173 0h-314l131 459l187 226h151q84 0 125.5 -45.5t41.5 -110.5q0 -61 -34 -109t-96 -73q87 -42 87 -130q0 -96 -73 -156.5t-206 -60.5zM278 552h-106l-39 -140h107q46 0 71.5 22.5t25.5 60.5q0 25 -14.5 41t-44.5 16zM229 281h-135l-42 -148h138q51 0 80.5 21.5
t29.5 61.5q0 28 -18 46.5t-53 18.5z" />
    <glyph glyph-name="uniE0F9" unicode="&#xe0f9;" horiz-adv-x="580" 
d="M177 0h-319l131 459l187 226h94q140 0 227 -81t87 -211q0 -157 -118.5 -275t-288.5 -118zM257 543h-88l-115 -401h136q106 0 171 71t65 166q0 76 -46.5 120t-122.5 44z" />
    <glyph glyph-name="uniE0FA" unicode="&#xe0fa;" horiz-adv-x="453" 
d="M-11 459l187 226h371l-40 -140h-338l-37 -129h312l-39 -136h-312l-40 -140h339l-40 -140h-494z" />
    <glyph glyph-name="uniE0FB" unicode="&#xe0fb;" horiz-adv-x="435" 
d="M176 685h355l-40 -142h-322l-47 -164h296l-39 -136h-296l-70 -243h-155l131 459z" />
    <glyph glyph-name="uniE0FC" unicode="&#xe0fc;" horiz-adv-x="587" 
d="M175 685h58l-78 -275h280l78 275h155l-196 -685h-155l77 268h-280l-77 -268h-155l143 501z" />
    <glyph glyph-name="uniE0FD" unicode="&#xe0fd;" horiz-adv-x="153" 
d="M175 685h58l-196 -685h-155l144 501z" />
    <glyph glyph-name="uniE0FE" unicode="&#xe0fe;" 
d="M286 0l-160 312l-89 -312h-155l143 499l150 186h58l-86 -300l300 300h201l-364 -342l180 -343h-178z" />
    <glyph glyph-name="uniE0FF" unicode="&#xe0ff;" horiz-adv-x="439" 
d="M175 685h58l-155 -543h309l-41 -142h-464l144 501z" />
    <glyph glyph-name="uniE100" unicode="&#xe100;" horiz-adv-x="735" 
d="M189 0l-62 415l-118 -415h-151l132 459l186 226h60l64 -448l322 448h192l-196 -685h-148l117 409l-298 -409h-100z" />
    <glyph glyph-name="uniE101" unicode="&#xe101;" horiz-adv-x="557" 
d="M278 0l-143 441l-126 -441h-151l132 460l186 225h42l143 -440l126 440h151l-196 -685h-164z" />
    <glyph glyph-name="uniE102" unicode="&#xe102;" horiz-adv-x="481" 
d="M320 685q94 0 146 -57t52 -144q0 -120 -86 -206.5t-224 -86.5h-141l-55 -191h-155l131 457l187 228h145zM272 543h-104l-61 -210h121q61 0 96 36t35 91q0 37 -23 60t-64 23z" />
    <glyph glyph-name="uniE103" unicode="&#xe103;" horiz-adv-x="487" 
d="M220 360q64 0 100.5 30t36.5 83q0 31 -18 50.5t-54 19.5h-117l-53 -183h105zM221 0l-140 239l-69 -239h-155l131 457l187 228h130q101 0 155.5 -54t54.5 -137q0 -100 -68.5 -176.5t-190.5 -85.5l148 -232h-183z" />
    <glyph glyph-name="uniE104" unicode="&#xe104;" horiz-adv-x="465" 
d="M341 543l-156 -543h-155l156 543h-125l110 142h409l-40 -142h-199z" />
    <glyph glyph-name="uniE105" unicode="&#xe105;" horiz-adv-x="575" 
d="M-118 0l143 500l150 185h56l-150 -523l433 523h181l-588 -685h-225z" />
    <glyph glyph-name="uniE106" unicode="&#xe106;" horiz-adv-x="914" 
d="M292 0l116 404l-340 -404h-186l144 501l149 184h59l-126 -439l371 439h148l-128 -447l358 447h178l-560 -685h-183z" />
    <glyph glyph-name="uniE107" unicode="&#xe107;" horiz-adv-x="627" 
d="M371 255l-9 267l-162 -267h171zM538 0h-157l-3 118h-262l-71 -118h-79l-34 86l376 599h191z" />
    <glyph glyph-name="uniE108" unicode="&#xe108;" horiz-adv-x="595" 
d="M280 252l-79 272l-78 -272h157zM353 0l-35 122h-232l-35 -122h-85l-37 94l142 493l88 98h144l216 -685h-166z" />
    <glyph glyph-name="uniE109" unicode="&#xe109;" horiz-adv-x="515" 
d="M400 0h-153l35 122h-219l-96 -116l-58 138l462 541h225zM319 252l79 275l-228 -275h149z" />
    <glyph glyph-name="uniE10A" unicode="&#xe10a;" horiz-adv-x="539" 
d="M216 0h-251l-36 93l142 496l87 96h213q85 0 126 -45.5t41 -110.5q0 -61 -34 -109t-96 -73q87 -42 87 -130q0 -96 -73 -156.5t-206 -60.5zM321 552h-106l-39 -140h107q46 0 71.5 22.5t25.5 60.5q0 25 -14.5 41t-44.5 16zM272 281h-135l-42 -148h138q51 0 80.5 21.5
t29.5 61.5q0 28 -18 46.5t-53 18.5z" />
    <glyph glyph-name="uniE10B" unicode="&#xe10b;" horiz-adv-x="624" 
d="M221 0h-256l-36 93l142 496l87 96h156q140 0 227 -81t87 -211q0 -157 -118.5 -275t-288.5 -118zM301 543h-88l-115 -401h136q106 0 171 71t65 166q0 76 -46.5 120t-122.5 44z" />
    <glyph glyph-name="uniE10C" unicode="&#xe10c;" horiz-adv-x="497" 
d="M396 0h-431l-36 93l142 496l87 96h433l-40 -140h-338l-37 -129h312l-39 -136h-312l-40 -140h339z" />
    <glyph glyph-name="uniE10D" unicode="&#xe10d;" horiz-adv-x="479" 
d="M-35 0l-36 93l142 496l87 96h417l-40 -142h-322l-47 -164h296l-39 -136h-296l-70 -243h-92z" />
    <glyph glyph-name="uniE10E" unicode="&#xe10e;" horiz-adv-x="608" 
d="M57 0h-92l-36 93l142 496l87 96h95l-78 -275h280l78 275h155l-196 -685h-155l77 268h-280z" />
    <glyph glyph-name="uniE10F" unicode="&#xe10f;" horiz-adv-x="172" 
d="M-35 0l-36 93l142 496l87 96h95l-196 -685h-92z" />
    <glyph glyph-name="uniE110" unicode="&#xe110;" horiz-adv-x="554" 
d="M306 0l-160 312l-89 -312h-92l-36 93l142 496l87 96h95l-86 -300l300 300h201l-364 -342l180 -343h-178z" />
    <glyph glyph-name="uniE111" unicode="&#xe111;" horiz-adv-x="460" 
d="M367 0h-402l-36 93l142 496l87 96h95l-155 -543h310z" />
    <glyph glyph-name="uniE112" unicode="&#xe112;" horiz-adv-x="779" 
d="M233 0l-62 415l-118 -415h-88l-36 93l142 496l87 96h122l64 -448l322 448h192l-196 -685h-148l117 409l-298 -409h-100z" />
    <glyph glyph-name="uniE113" unicode="&#xe113;" horiz-adv-x="934" 
d="M298 0l-114 465l-131 -465h-88l-37 94l142 493l88 98h114l101 -422l118 422h189l178 -685h-165l-118 487l-137 -487h-140z" />
    <glyph glyph-name="uniE114" unicode="&#xe114;" horiz-adv-x="601" 
d="M322 0l-143 441l-126 -441h-88l-36 93l142 496l87 96h104l143 -440l126 440h151l-196 -685h-164z" />
    <glyph glyph-name="uniE115" unicode="&#xe115;" horiz-adv-x="526" 
d="M365 685q94 0 146 -57t52 -144q0 -120 -86 -206.5t-224 -86.5h-141l-55 -191h-92l-36 93l142 496l87 96h207zM317 543h-104l-61 -210h121q61 0 96 36t35 91q0 37 -23 60t-64 23z" />
    <glyph glyph-name="uniE116" unicode="&#xe116;" horiz-adv-x="532" 
d="M330 543h-117l-53 -183h105q64 0 100.5 30t36.5 83q0 31 -18 50.5t-54 19.5zM266 0l-140 239l-69 -239h-92l-36 93l142 496l87 96h192q101 0 155.5 -54t54.5 -137q0 -100 -68.5 -176.5t-190.5 -85.5l148 -232h-183z" />
    <glyph glyph-name="uniE117" unicode="&#xe117;" horiz-adv-x="490" 
d="M210 0h-155l156 543h-176l120 142h450l-40 -142h-199z" />
    <glyph glyph-name="uniE118" unicode="&#xe118;" horiz-adv-x="578" 
d="M263 252l-79 272l-78 -272h157zM336 0l-35 122h-232l-35 -122h-149l155 542l121 143h125l216 -685h-166z" />
    <glyph glyph-name="uniE119" unicode="&#xe119;" horiz-adv-x="522" 
d="M199 0h-314l156 545l119 140h194q84 0 125.5 -45.5t41.5 -110.5q0 -61 -34 -109t-96 -73q87 -42 87 -130q0 -96 -73 -156.5t-206 -60.5zM304 552h-106l-39 -140h107q46 0 71.5 22.5t25.5 60.5q0 25 -14.5 41t-44.5 16zM255 281h-135l-42 -148h138q51 0 80.5 21.5
t29.5 61.5q0 28 -18 46.5t-53 18.5z" />
    <glyph glyph-name="uniE11A" unicode="&#xe11a;" horiz-adv-x="607" 
d="M204 0h-319l156 545l119 140h137q140 0 227 -81t87 -211q0 -157 -118.5 -275t-288.5 -118zM284 543h-88l-115 -401h136q106 0 171 71t65 166q0 76 -46.5 120t-122.5 44z" />
    <glyph glyph-name="uniE11B" unicode="&#xe11b;" horiz-adv-x="480" 
d="M379 0h-494l156 545l119 140h414l-40 -140h-338l-37 -129h312l-39 -136h-312l-40 -140h339z" />
    <glyph glyph-name="uniE11C" unicode="&#xe11c;" horiz-adv-x="462" 
d="M40 0h-155l156 545l119 140h398l-40 -142h-322l-47 -164h296l-39 -136h-296z" />
    <glyph glyph-name="uniE11D" unicode="&#xe11d;" horiz-adv-x="591" 
d="M117 268l-77 -268h-155l156 545l119 140h76l-78 -275h280l78 275h155l-196 -685h-155l77 268h-280z" />
    <glyph glyph-name="uniE11E" unicode="&#xe11e;" horiz-adv-x="155" 
d="M236 685l-196 -685h-155l156 545l119 140h76z" />
    <glyph glyph-name="uniE11F" unicode="&#xe11f;" horiz-adv-x="537" 
d="M289 0l-160 312l-89 -312h-155l156 545l119 140h76l-86 -300l300 300h201l-364 -342l180 -343h-178z" />
    <glyph glyph-name="uniE120" unicode="&#xe120;" horiz-adv-x="443" 
d="M-115 0l156 545l119 140h76l-155 -543h310l-41 -142h-465z" />
    <glyph glyph-name="uniE121" unicode="&#xe121;" horiz-adv-x="762" 
d="M151 409l-117 -409h-149l156 545l119 140h109l64 -453l322 453h187l-196 -685h-151l118 411l-299 -411h-100z" />
    <glyph glyph-name="uniE122" unicode="&#xe122;" horiz-adv-x="918" 
d="M37 0h-152l156 543l120 142h95l101 -422l118 422h189l178 -685h-165l-118 487l-137 -487h-140l-114 465z" />
    <glyph glyph-name="uniE123" unicode="&#xe123;" horiz-adv-x="584" 
d="M305 0l-143 441l-126 -441h-151l155 543l121 142h84l143 -440l126 440h151l-196 -685h-164z" />
    <glyph glyph-name="uniE124" unicode="&#xe124;" horiz-adv-x="509" 
d="M348 685q94 0 146 -57t52 -144q0 -120 -86 -206.5t-224 -86.5h-141l-55 -191h-155l156 545l119 140h188zM300 543h-104l-61 -210h121q61 0 96 36t35 91q0 37 -23 60t-64 23z" />
    <glyph glyph-name="uniE125" unicode="&#xe125;" horiz-adv-x="515" 
d="M248 360q64 0 100.5 30t36.5 83q0 31 -18 50.5t-54 19.5h-117l-53 -183h105zM249 0l-140 239l-69 -239h-155l156 545l119 140h173q101 0 155.5 -54t54.5 -137q0 -100 -68.5 -176.5t-190.5 -85.5l148 -232h-183z" />
    <glyph glyph-name="uniE126" unicode="&#xe126;" horiz-adv-x="493" 
d="M369 543l-156 -543h-155l156 543h-174l117 142h451l-40 -142h-199z" />
    <glyph glyph-name="uniE127" unicode="&#xe127;" horiz-adv-x="507" 
d="M158 685h437l-37 -130l-430 -416h317l-40 -139h-521l37 128l430 418h-308z" />
    <glyph glyph-name="uniE128" unicode="&#xe128;" horiz-adv-x="505" 
d="M282 0h-314l196 685h273q85 0 126 -45.5t41 -110.5q0 -61 -34 -109t-96 -73q87 -42 87 -130v-12l-172 -192q-46 -13 -107 -13zM387 552h-106l-39 -140h107q46 0 71.5 22.5t25.5 60.5q0 25 -14.5 41t-44.5 16zM338 281h-135l-42 -148h138q51 0 80.5 21.5t29.5 61.5
q0 28 -18 46.5t-53 18.5z" />
    <glyph glyph-name="uniE129" unicode="&#xe129;" horiz-adv-x="523" 
d="M690 340l-286 -324q-63 -17 -117 -17h-319l196 685h216q140 0 227 -81t87 -211q0 -29 -4 -52zM368 542h-88l-115 -401h136q106 0 171 71t65 166q0 76 -46.5 120t-122.5 44z" />
    <glyph glyph-name="uniE12A" unicode="&#xe12a;" horiz-adv-x="496" 
d="M367 0h-399l196 685h492l-40 -140h-337l-37 -129h311l-39 -136h-311l-40 -140h329z" />
    <glyph glyph-name="uniE12B" unicode="&#xe12b;" horiz-adv-x="588" 
d="M604 164l-145 -164h-57l77 268h-279l-77 -268h-155l196 685h155l-78 -275h279l78 275h155z" />
    <glyph glyph-name="uniE12C" unicode="&#xe12c;" horiz-adv-x="154" 
d="M25 0h-57l196 685h155l-150 -526z" />
    <glyph glyph-name="uniE12D" unicode="&#xe12d;" horiz-adv-x="759" 
d="M299 0l-62 415l-118 -415h-151l196 685h182l64 -448l322 448h192l-151 -527l-143 -158h-50l117 409l-298 -409h-100z" />
    <glyph glyph-name="uniE12E" unicode="&#xe12e;" horiz-adv-x="583" 
d="M388 0l-143 441l-126 -441h-151l196 685h164l143 -440l126 440h151l-149 -521l-145 -164h-66z" />
    <glyph glyph-name="uniE12F" unicode="&#xe12f;" horiz-adv-x="757" 
d="M571 0l127 442l-372 -442h-150l127 443l-346 -432l-79 122l452 552h183l-116 -404l340 404h186l-150 -524l-145 -161h-57z" />
    <glyph glyph-name="uniE130" unicode="&#xe130;" horiz-adv-x="915" 
d="M333 0l127 443l-355 -443h-178l560 685h183l-116 -404l340 404h186l-150 -525l-144 -160h-58l127 442l-372 -442h-150z" />
    <glyph glyph-name="uniE131" unicode="&#xe131;" horiz-adv-x="575" 
d="M463 252l79 275l-228 -275h149zM391 0l35 122h-219l-101 -122h-179l588 685h225l-151 -527l-143 -158h-55z" />
    <glyph glyph-name="uniE132" unicode="&#xe132;" horiz-adv-x="415" 
d="M290 0h-117l73 255l-120 430h159l72 -288l234 288h177l-366 -429l-53 -190z" />
    <glyph glyph-name="uniE133" unicode="&#xe133;" horiz-adv-x="358" 
d="M452 543l-125 -435l-98 -108h-88l156 543h-199l40 142h552l-40 -142h-198z" />
    <glyph glyph-name="uniE134" unicode="&#xe134;" horiz-adv-x="504" 
d="M375 0h-422l37 128l430 418h-310l39 139h515l-37 -130l-431 -416h303z" />
    <glyph glyph-name="uniE135" unicode="&#xe135;" horiz-adv-x="518" 
d="M282 0h-314l196 685h273q85 0 126 -45.5t41 -110.5q0 -61 -34 -109t-96 -73q87 -42 87 -130v-10l-154 -189q-59 -18 -125 -18zM387 552h-106l-39 -140h107q46 0 71.5 22.5t25.5 60.5q0 25 -14.5 41t-44.5 16zM338 281h-135l-42 -148h138q51 0 80.5 21.5t29.5 61.5
q0 28 -18 46.5t-53 18.5z" />
    <glyph glyph-name="uniE136" unicode="&#xe136;" horiz-adv-x="534" 
d="M691 344l-262 -319q-69 -25 -142 -25h-319l196 685h216q140 0 227 -81t87 -211q0 -25 -3 -49zM367 543h-88l-115 -401h136q106 0 171 71t65 166q0 76 -46.5 120t-122.5 44z" />
    <glyph glyph-name="uniE137" unicode="&#xe137;" horiz-adv-x="497" 
d="M372 0h-404l196 685h492l-40 -140h-337l-37 -129h311l-39 -136h-311l-40 -140h325z" />
    <glyph glyph-name="uniE138" unicode="&#xe138;" horiz-adv-x="587" 
d="M-32 0l196 685h155l-78 -275h279l78 275h155l-148 -516l-145 -169h-58l77 268h-279l-77 -268h-155z" />
    <glyph glyph-name="uniE139" unicode="&#xe139;" horiz-adv-x="153" 
d="M26 0h-58l196 685h155l-148 -516z" />
    <glyph glyph-name="uniE13A" unicode="&#xe13a;" horiz-adv-x="583" 
d="M388 0l-143 441l-126 -441h-151l196 685h164l143 -440l126 440h151l-148 -517l-144 -168h-68z" />
    <glyph glyph-name="uniE13B" unicode="&#xe13b;" horiz-adv-x="574" 
d="M463 252l79 275l-228 -275h149zM391 0l35 122h-219l-101 -122h-179l588 685h225l-148 -516l-144 -169h-57z" />
    <glyph glyph-name="uniE13C" unicode="&#xe13c;" horiz-adv-x="914" 
d="M333 0l130 453l-363 -453h-173l560 685h183l-116 -404l340 404h186l-148 -516l-145 -169h-59l132 460l-387 -460h-140z" />
    <glyph glyph-name="uniE13D" unicode="&#xe13d;" horiz-adv-x="413" 
d="M286 0h-113l73 255l-120 430h159l72 -288l234 288h177l-366 -429l-52 -184z" />
    <glyph glyph-name="uniE13E" unicode="&#xe13e;" horiz-adv-x="357" 
d="M231 0h-90l156 543h-199l40 142h552l-40 -142h-198l-124 -430z" />
    <glyph glyph-name="uniE13F" unicode="&#xe13f;" horiz-adv-x="529" 
d="M282 0h-314l196 685h273q85 0 126 -45.5t41 -110.5q0 -61 -34 -109t-96 -73q82 -41 87 -124l-126 -193q-65 -30 -153 -30zM387 552h-106l-39 -140h107q46 0 71.5 22.5t25.5 60.5q0 25 -14.5 41t-44.5 16zM338 281h-135l-42 -148h138q51 0 80.5 21.5t29.5 61.5
q0 28 -18 46.5t-53 18.5z" />
    <glyph glyph-name="uniE140" unicode="&#xe140;" horiz-adv-x="564" 
d="M694 382l-216 -333q-90 -49 -191 -49h-319l196 685h216q140 0 227 -81t87 -211v-11zM367 543h-88l-115 -401h136q106 0 171 71t65 166q0 76 -46.5 120t-122.5 44z" />
    <glyph glyph-name="uniE141" unicode="&#xe141;" horiz-adv-x="629" 
d="M463 698q97 0 170.5 -45.5t99.5 -126.5l-137 -81q-36 110 -156 110q-100 0 -168.5 -79t-68.5 -181q0 -76 45 -120t121 -44q117 0 204 111l65 -55l-102 -156q-85 -45 -184 -45q-141 0 -224.5 82t-83.5 213q0 82 33.5 159t90 133.5t134 90.5t161.5 34z" />
    <glyph glyph-name="uniE142" unicode="&#xe142;" horiz-adv-x="519" 
d="M407 0h-439l196 685h492l-40 -140h-337l-37 -129h311l-39 -136h-311l-40 -140h333z" />
    <glyph glyph-name="uniE143" unicode="&#xe143;" horiz-adv-x="608" 
d="M497 0h-95l77 268h-279l-77 -268h-155l196 685h155l-78 -275h279l78 275h155l-147 -515z" />
    <glyph glyph-name="uniE144" unicode="&#xe144;" horiz-adv-x="174" 
d="M-32 0l196 685h155l-147 -515l-110 -170h-94z" />
    <glyph glyph-name="uniE145" unicode="&#xe145;" horiz-adv-x="491" 
d="M379 0h-411l196 685h155l-155 -543h306z" />
    <glyph glyph-name="uniE146" unicode="&#xe146;" horiz-adv-x="779" 
d="M299 0l-62 415l-118 -415h-151l196 685h182l64 -448l322 448h192l-147 -517l-109 -168h-88l117 409l-298 -409h-100z" />
    <glyph glyph-name="uniE147" unicode="&#xe147;" horiz-adv-x="603" 
d="M388 0l-143 441l-126 -441h-151l196 685h164l143 -440l126 440h151l-146 -513l-111 -172h-103z" />
    <glyph glyph-name="uniE148" unicode="&#xe148;" horiz-adv-x="542" 
d="M513 139l-88 -139h-472l37 128l430 418h-310l39 139h515l-37 -130l-431 -416h317z" />
    <glyph glyph-name="uniE149" unicode="&#xe149;" horiz-adv-x="578" 
d="M382 252l79 275l-228 -275h149zM310 0l35 122h-219l-101 -122h-61l-49 80l519 605h225l-196 -685h-153z" />
    <glyph glyph-name="uniE14A" unicode="&#xe14a;" horiz-adv-x="328" 
d="M432 0h-464l196 685h155l-155 -543h204q15 -59 75 -105z" />
    <glyph glyph-name="uniE14B" unicode="&#xe14b;" horiz-adv-x="338" 
d="M432 0h-464l196 685h155l-155 -543h208q16 -62 71 -105z" />
    <glyph glyph-name="uniE14C" unicode="&#xe14c;" horiz-adv-x="338" 
d="M432 0h-464l196 685h155l-155 -543h208q16 -62 71 -105z" />
    <glyph glyph-name="uniE14D" unicode="&#xe14d;" horiz-adv-x="328" 
d="M432 0h-464l196 685h155l-155 -543h205q15 -59 74 -105z" />
    <glyph glyph-name="uniE14E" unicode="&#xe14e;" horiz-adv-x="415" 
d="M432 0h-464l196 685h155l-155 -543h231q1 -61 46 -110z" />
    <glyph glyph-name="uniE14F" unicode="&#xe14f;" horiz-adv-x="385" 
d="M432 0h-464l196 685h155l-155 -543h231q4 -57 47 -106z" />
    <glyph glyph-name="uniE150" unicode="&#xe150;" horiz-adv-x="463" 
d="M333 0h-365l196 685h155l-155 -543h296z" />
    <glyph glyph-name="uniE151" unicode="&#xe151;" horiz-adv-x="473" 
d="M349 0h-381l196 685h155l-155 -543h302z" />
    <glyph glyph-name="uniE154" unicode="&#xe154;" horiz-adv-x="474" 
d="M461 0h-493l196 685h390l40 -140h-315l-37 -129h311l-39 -136h-311l-40 -140h338z" />
    <glyph glyph-name="uniE155" unicode="&#xe155;" horiz-adv-x="466" 
d="M123 0h-155l196 685h380l43 -142h-308l-47 -164h295l-39 -136h-295z" />
    <glyph glyph-name="uniE156" unicode="&#xe156;" horiz-adv-x="577" 
d="M706 511l-149 -511h-155l77 268h-279l-77 -268h-155l196 685h155l-78 -275h279l78 275h57z" />
    <glyph glyph-name="uniE157" unicode="&#xe157;" horiz-adv-x="142" 
d="M221 685l50 -174l-148 -511h-155l196 685h57z" />
    <glyph glyph-name="uniE158" unicode="&#xe158;" horiz-adv-x="747" 
d="M299 0l-62 415l-118 -415h-151l196 685h182l64 -448l322 448h94l50 -174l-148 -511h-148l117 409l-298 -409h-100z" />
    <glyph glyph-name="uniE159" unicode="&#xe159;" horiz-adv-x="571" 
d="M388 0l-143 441l-126 -441h-151l196 685h164l143 -440l126 440h53l50 -173l-148 -512h-164z" />
    <glyph glyph-name="uniE15A" unicode="&#xe15a;" horiz-adv-x="496" 
d="M141 0l156 543h-199l40 142h436l42 -142h-164l-156 -543h-155z" />
    <glyph glyph-name="uniE15B" unicode="&#xe15b;" horiz-adv-x="904" 
d="M709 0l-101 422l-118 -422h-189l-178 685h165l118 -487l137 487h140l114 -465l131 465h53l52 -167l-149 -518h-175z" />
    <glyph glyph-name="uniE15C" unicode="&#xe15c;" horiz-adv-x="566" 
d="M340 0l-217 685h166l152 -524l150 524h52l51 -166l-150 -519h-204z" />
    <glyph glyph-name="uniE15D" unicode="&#xe15d;" horiz-adv-x="474" 
d="M461 0h-493l196 685h391l37 -140h-313l-37 -129h311l-39 -136h-311l-40 -140h338z" />
    <glyph glyph-name="uniE15E" unicode="&#xe15e;" horiz-adv-x="475" 
d="M123 0h-155l196 685h391l39 -142h-315l-47 -164h295l-39 -136h-295z" />
    <glyph glyph-name="uniE15F" unicode="&#xe15f;" horiz-adv-x="576" 
d="M123 0h-155l196 685h155l-78 -275h279l78 275h58l48 -174l-147 -511h-155l77 268h-279z" />
    <glyph glyph-name="uniE160" unicode="&#xe160;" horiz-adv-x="142" 
d="M164 685h58l48 -174l-147 -511h-155z" />
    <glyph glyph-name="uniE161" unicode="&#xe161;" horiz-adv-x="747" 
d="M299 0l-62 415l-118 -415h-151l196 685h182l64 -448l322 448h95l48 -174l-147 -511h-148l117 409l-298 -409h-100z" />
    <glyph glyph-name="uniE162" unicode="&#xe162;" horiz-adv-x="571" 
d="M388 0l-143 441l-126 -441h-151l196 685h164l143 -440l126 440h54l48 -174l-147 -511h-164z" />
    <glyph glyph-name="uniE163" unicode="&#xe163;" horiz-adv-x="461" 
d="M141 0l156 543h-199l40 142h404l38 -142h-128l-156 -543h-155z" />
    <glyph glyph-name="uniE164" unicode="&#xe164;" horiz-adv-x="566" 
d="M340 0l-217 685h166l152 -524l150 524h53l48 -167l-148 -518h-204z" />
    <glyph glyph-name="uniE165" unicode="&#xe165;" horiz-adv-x="905" 
d="M709 0l-101 422l-118 -422h-189l-178 685h165l118 -487l137 487h140l114 -465l131 465h55l49 -168l-148 -517h-175z" />
    <glyph glyph-name="uniE166" unicode="&#xe166;" horiz-adv-x="513" 
d="M461 0h-493l196 685h439l8 -140h-332l-37 -129h311l-39 -136h-311l-40 -140h338z" />
    <glyph glyph-name="uniE167" unicode="&#xe167;" horiz-adv-x="503" 
d="M123 0h-155l196 685h429l8 -142h-322l-47 -164h295l-39 -136h-295z" />
    <glyph glyph-name="uniE168" unicode="&#xe168;" horiz-adv-x="599" 
d="M522 417l76 268h91l11 -189l-143 -496h-155l79 275h-279l-79 -275h-155l196 685h155l-76 -268h279z" />
    <glyph glyph-name="uniE169" unicode="&#xe169;" horiz-adv-x="165" 
d="M123 0h-155l196 685h90l12 -189z" />
    <glyph glyph-name="uniE16A" unicode="&#xe16a;" horiz-adv-x="733" 
d="M299 0l-62 415l-118 -415h-151l196 685h182l64 -448l322 448h91l15 -301l-110 -384h-148l117 409l-298 -409h-100z" />
    <glyph glyph-name="uniE16B" unicode="&#xe16b;" horiz-adv-x="594" 
d="M388 0l-143 441l-126 -441h-151l196 685h164l143 -440l126 440h87l11 -188l-143 -497h-164z" />
    <glyph glyph-name="uniE16C" unicode="&#xe16c;" horiz-adv-x="506" 
d="M296 0h-155l156 543h-199l40 142h457l9 -142h-152z" />
    <glyph glyph-name="uniE16D" unicode="&#xe16d;" horiz-adv-x="514" 
d="M461 0h-493l196 685h441l-6 -140h-320l-37 -129h311l-39 -136h-311l-40 -140h338z" />
    <glyph glyph-name="uniE16E" unicode="&#xe16e;" horiz-adv-x="504" 
d="M123 0h-155l196 685h431l-5 -142h-311l-47 -164h295l-39 -136h-295z" />
    <glyph glyph-name="uniE16F" unicode="&#xe16f;" horiz-adv-x="593" 
d="M123 0h-155l196 685h155l-78 -275h279l78 275h87l-13 -283l-115 -402h-155l77 268h-279z" />
    <glyph glyph-name="uniE170" unicode="&#xe170;" horiz-adv-x="160" 
d="M123 0h-155l196 685h88l-13 -279z" />
    <glyph glyph-name="uniE171" unicode="&#xe171;" horiz-adv-x="764" 
d="M299 0l-62 415l-118 -415h-151l196 685h182l64 -448l322 448h125l-14 -283l-115 -402h-148l117 409l-298 -409h-100z" />
    <glyph glyph-name="uniE172" unicode="&#xe172;" horiz-adv-x="588" 
d="M388 0l-143 441l-126 -441h-151l196 685h164l143 -440l126 440h84l-13 -281l-116 -404h-164z" />
    <glyph glyph-name="uniE173" unicode="&#xe173;" horiz-adv-x="514" 
d="M296 0h-155l156 543h-199l40 142h468l-6 -142h-148z" />
    <glyph glyph-name="uniE174" unicode="&#xe174;" horiz-adv-x="581" 
d="M463 252l79 275l-228 -275h149zM391 0l35 122h-219l-101 -122h-179l588 685h159l37 -100l-133 -466l-107 -119h-80z" />
    <glyph glyph-name="uniE175" unicode="&#xe175;" horiz-adv-x="512" 
d="M346 252l-79 272l-78 -272h157zM414 17l-30 105h-232l-35 -122h-149l196 685h205l169 -537z" />
    <glyph glyph-name="uniE176" unicode="&#xe176;" horiz-adv-x="615" 
d="M428 255l-9 267l-162 -267h171zM173 118l-71 -118h-169l432 685h191l34 -595l-85 -90h-67l-3 118h-262z" />
    <glyph glyph-name="uniE177" unicode="&#xe177;" horiz-adv-x="464" 
d="M348 0h-380l196 685h393l53 -140h-331l-37 -129h311l-39 -136h-311l-40 -140h315z" />
    <glyph glyph-name="uniE178" unicode="&#xe178;" horiz-adv-x="451" 
d="M123 0h-155l196 685h379l53 -142h-317l-47 -164h295l-39 -136h-295z" />
    <glyph glyph-name="uniE179" unicode="&#xe179;" horiz-adv-x="600" 
d="M490 0h-88l77 268h-279l-77 -268h-155l196 685h155l-78 -275h279l78 275h95l34 -90l-139 -486z" />
    <glyph glyph-name="uniE17A" unicode="&#xe17a;" horiz-adv-x="165" 
d="M-32 0l196 685h97l33 -90l-143 -496l-93 -99h-90z" />
    <glyph glyph-name="uniE17B" unicode="&#xe17b;" horiz-adv-x="771" 
d="M299 0l-62 415l-118 -415h-151l196 685h182l64 -448l322 448h133l34 -88l-141 -490l-96 -107h-82l117 409l-298 -409h-100z" />
    <glyph glyph-name="uniE17C" unicode="&#xe17c;" horiz-adv-x="927" 
d="M333 0l127 443l-355 -443h-178l560 685h183l-116 -404l340 404h130l32 -82l-143 -502l-92 -101h-93l127 442l-372 -442h-150z" />
    <glyph glyph-name="uniE17D" unicode="&#xe17d;" horiz-adv-x="595" 
d="M388 0l-143 441l-126 -441h-151l196 685h164l143 -440l126 440h93l33 -86l-141 -493l-95 -106h-99z" />
    <glyph glyph-name="uniE17E" unicode="&#xe17e;" horiz-adv-x="485" 
d="M296 0h-155l156 543h-199l40 142h439l53 -142h-178z" />
    <glyph glyph-name="uniE17F" unicode="&#xe17f;" horiz-adv-x="574" 
d="M463 252l79 275l-228 -275h149zM391 0l35 122h-219l-101 -122h-179l588 685h147l38 -140l-156 -545h-153z" />
    <glyph glyph-name="uniE180" unicode="&#xe180;" horiz-adv-x="485" 
d="M461 0h-493l196 685h408l40 -140h-333l-37 -129h311l-39 -136h-311l-40 -140h338z" />
    <glyph glyph-name="uniE181" unicode="&#xe181;" horiz-adv-x="474" 
d="M123 0h-155l196 685h397l41 -142h-323l-47 -164h295l-39 -136h-295z" />
    <glyph glyph-name="uniE182" unicode="&#xe182;" horiz-adv-x="588" 
d="M557 0h-155l77 268h-279l-77 -268h-155l196 685h155l-78 -275h279l78 275h78l38 -138z" />
    <glyph glyph-name="uniE183" unicode="&#xe183;" horiz-adv-x="152" 
d="M123 0h-155l196 685h76l39 -140z" />
    <glyph glyph-name="uniE184" unicode="&#xe184;" horiz-adv-x="757" 
d="M299 0l-62 415l-118 -415h-151l196 685h182l64 -448l322 448h113l39 -140l-156 -545h-148l117 409l-298 -409h-100z" />
    <glyph glyph-name="uniE185" unicode="&#xe185;" horiz-adv-x="913" 
d="M333 0l127 443l-355 -443h-178l560 685h183l-116 -404l340 404h107l39 -140l-156 -545h-156l127 442l-372 -442h-150z" />
    <glyph glyph-name="uniE186" unicode="&#xe186;" horiz-adv-x="582" 
d="M388 0l-143 441l-126 -441h-151l196 685h164l143 -440l126 440h73l38 -140l-156 -545h-164z" />
    <glyph glyph-name="uniE187" unicode="&#xe187;" horiz-adv-x="496" 
d="M296 0h-155l156 543h-199l40 142h445l41 -142h-172z" />
    <glyph glyph-name="uniE188" unicode="&#xe188;" horiz-adv-x="514" 
d="M188 0h-156l73 256l-71 254l117 146l65 -259l234 288h177l-366 -430z" />
    <glyph glyph-name="uniE189" unicode="&#xe189;" horiz-adv-x="511" 
d="M185 0h-155l73 256l-72 264l118 138l65 -261l234 288h177l-367 -430z" />
    <glyph glyph-name="uniE18A" unicode="&#xe18a;" horiz-adv-x="503" 
d="M473 0h-520l37 128l430 418h-310l39 139h441l37 -130l-431 -416h317z" />
    <glyph glyph-name="uniE18B" unicode="&#xe18b;" horiz-adv-x="1319" 
d="M1011 699q140 0 225.5 -86t85.5 -218q0 -107 -55 -201.5t-150 -151t-205 -56.5q-211 0 -284 181q-14 34 -18 72t-7 121q-6 195 -164 195q-99 0 -168 -76.5t-69 -176.5q0 -75 47.5 -123.5t125.5 -48.5q61 0 114.5 31.5t83.5 85.5q7 -86 52 -152q-115 -109 -270 -109
q-137 0 -223.5 87t-86.5 217q0 162 121.5 285.5t288.5 123.5q191 0 269 -150q37 -75 36 -212q0 -93 42 -150t129 -57q95 0 164 76.5t69 176.5q0 76 -47 124t-124 48q-62 0 -115.5 -32t-83.5 -85q-7 84 -53 152q115 109 270 109z" />
    <glyph glyph-name="uniE18C" unicode="&#xe18c;" horiz-adv-x="1276" 
d="M934 130q116 0 204 112l106 -89q-55 -77 -140 -122t-187 -45q-216 0 -289 181q-14 34 -18 72t-7 121q-6 195 -164 195q-99 0 -168 -76.5t-69 -176.5q0 -75 47.5 -123.5t125.5 -48.5q61 0 114.5 31.5t83.5 85.5q7 -86 52 -152q-115 -109 -270 -109q-137 0 -223.5 87
t-86.5 217q0 162 121.5 285.5t288.5 123.5q191 0 269 -150q37 -75 36 -212q0 -93 43 -150t131 -57zM1005 555q-62 -1 -121 -40t-88 -95q-5 97 -50 162q53 53 123 84t145 32q107 0 182.5 -45t101.5 -127l-137 -81q-36 110 -156 110z" />
    <glyph glyph-name="uniE18D" unicode="&#xe18d;" horiz-adv-x="1321" 
d="M919 -14q-218 0 -291 181q-14 34 -18 72t-7 121q-6 195 -164 195q-99 0 -168 -76.5t-69 -176.5q0 -75 47.5 -123.5t125.5 -48.5q61 0 114.5 31.5t83.5 85.5q7 -86 52 -152q-115 -109 -270 -109q-137 0 -223.5 87t-86.5 217q0 162 121.5 285.5t288.5 123.5q191 0 269 -150
q37 -75 36 -212q0 -94 43.5 -151t131.5 -57q62 0 112.5 31t78.5 89h-187l43 135h353q-22 -130 -85.5 -222t-148 -134t-182.5 -42zM1005 555q-62 0 -120.5 -39.5t-88.5 -95.5q-5 97 -50 162q53 53 124.5 84t146.5 32q118 1 199.5 -47t105.5 -125l-139 -82q-38 111 -178 111z
" />
    <glyph glyph-name="uniE18E" unicode="&#xe18e;" horiz-adv-x="1319" 
d="M1084 -46l-33 57q-67 -25 -139 -25q-211 0 -284 181q-14 34 -18 72t-7 121q-6 195 -164 195q-99 0 -168 -76.5t-69 -176.5q0 -75 47.5 -123.5t125.5 -48.5q61 0 114.5 31.5t83.5 85.5q7 -86 52 -152q-115 -109 -270 -109q-137 0 -223.5 87t-86.5 217q0 162 121.5 285.5
t288.5 123.5q191 0 269 -150q37 -75 36 -212q0 -93 42 -150t129 -57q25 0 48 6l-79 137l151 27l50 -87q63 74 63 170q0 76 -47 124t-124 48q-62 0 -115.5 -32t-83.5 -85q-7 84 -53 152q115 109 270 109q140 0 225.5 -86t85.5 -218q0 -89 -39 -170.5t-108 -139.5l60 -104z
" />
    <glyph glyph-name="uniE18F" unicode="&#xe18f;" horiz-adv-x="526" 
d="M324 543h-117l-53 -183h105q67 0 102 31.5t35 81.5q0 31 -18 50.5t-54 19.5zM307 0l-187 237l-69 -237h-94l-10 177l145 508h252q101 0 155.5 -54t54.5 -137q0 -61 -24.5 -114t-81.5 -95t-139 -52l191 -233h-193z" />
    <glyph glyph-name="uniE190" unicode="&#xe190;" horiz-adv-x="576" 
d="M365 543h-108l-53 -183h104q48 0 83.5 25.5t46.5 65.5q13 41 -5.5 66.5t-67.5 25.5zM168 232l-67 -232h-74l-61 70l176 615h288q105 0 150 -63t16 -165q-23 -79 -85 -138t-146 -79l182 -240h-211z" />
    <glyph glyph-name="uniE191" unicode="&#xe191;" horiz-adv-x="523" 
d="M152 360h105q67 0 102 31.5t35 81.5q0 31 -18 50.5t-54 19.5h-117zM305 0l-187 237l-69 -237h-155l114 396l149 289h185q101 0 155.5 -54t54.5 -137q0 -61 -24.5 -114t-81.5 -95t-139 -52l191 -233h-193z" />
    <glyph glyph-name="uniE192" unicode="&#xe192;" horiz-adv-x="485" 
d="M113 360h105q67 0 102 31.5t35 81.5q0 31 -18 50.5t-54 19.5h-117zM266 0l-187 237l-69 -237h-155l138 476l179 209h131q101 0 155.5 -54t54.5 -137q0 -61 -24.5 -114t-81.5 -95t-139 -52l191 -233h-193z" />
    <glyph glyph-name="uniE193" unicode="&#xe193;" horiz-adv-x="487" 
d="M115 360h105q67 0 102 31.5t35 81.5q0 31 -18 50.5t-54 19.5h-117zM268 0l-187 237l-69 -237h-155l132 459l186 226h130q101 0 155.5 -54t54.5 -137q0 -61 -24.5 -114t-81.5 -95t-139 -52l191 -233h-193z" />
    <glyph glyph-name="uniE194" unicode="&#xe194;" 
d="M266 360q67 0 102 31.5t35 81.5q0 31 -18 50.5t-54 19.5h-117l-53 -183h105zM314 0l-187 237l-69 -237h-85l-46 83l148 517l86 85h190q101 0 155.5 -54t54.5 -137q0 -61 -24.5 -114t-81.5 -95t-139 -52l191 -233h-193z" />
    <glyph glyph-name="uniE195" unicode="&#xe195;" horiz-adv-x="532" 
d="M160 360h105q67 0 102 31.5t35 81.5q0 31 -18 50.5t-54 19.5h-117zM313 0l-187 237l-69 -237h-155l144 500l117 185h187q101 0 155.5 -54t54.5 -137q0 -61 -24.5 -114t-81.5 -95t-139 -52l191 -233h-193z" />
    <glyph glyph-name="uniE196" unicode="&#xe196;" horiz-adv-x="502" 
d="M301 543h-117l-53 -183h105q67 0 102 31.5t35 81.5q0 31 -18 50.5t-54 19.5zM284 0l-187 237l-69 -237h-58l-48 173l147 512h252q101 0 155.5 -54t54.5 -137q0 -61 -24.5 -114t-81.5 -95t-139 -52l191 -233h-193z" />
    <glyph glyph-name="uniE197" unicode="&#xe197;" horiz-adv-x="499" 
d="M234 360q67 0 102 31.5t35 81.5q0 31 -18 50.5t-54 19.5h-117l-53 -183h105zM282 0l-187 237l-69 -237h-58l-49 168l148 517h252q101 0 155.5 -54t54.5 -137q0 -61 -24.5 -114t-81.5 -95t-139 -52l191 -233h-193z" />
    <glyph glyph-name="uniE198" unicode="&#xe198;" horiz-adv-x="532" 
d="M160 360h105q67 0 102 31.5t35 81.5q0 31 -18 50.5t-54 19.5h-117zM313 0l-187 237l-69 -237h-92l-36 93l142 496l87 96h192q101 0 155.5 -54t54.5 -137q0 -61 -24.5 -114t-81.5 -95t-139 -52l191 -233h-193z" />
    <glyph glyph-name="uniE199" unicode="&#xe199;" horiz-adv-x="515" 
d="M143 360h105q67 0 102 31.5t35 81.5q0 31 -18 50.5t-54 19.5h-117zM296 0l-187 237l-69 -237h-155l156 545l119 140h173q101 0 155.5 -54t54.5 -137q0 -61 -24.5 -114t-81.5 -95t-139 -52l191 -233h-193z" />
    <glyph glyph-name="uniE19A" unicode="&#xe19a;" horiz-adv-x="1323" 
d="M359 -15q-138 0 -226 87t-88 218q0 162 121.5 286t285.5 124q138 0 226 -87t88 -218q0 -162 -121.5 -286t-285.5 -124zM439 555q-95 0 -166 -78t-71 -175q0 -74 47.5 -123t122.5 -49q95 0 165.5 77.5t70.5 175.5q0 74 -47 123t-122 49zM1088 -46l-33 57q-67 -25 -136 -25
q-159 0 -243 109q62 65 99 157q14 -55 57 -88.5t103 -33.5q24 0 48 6l-79 137l151 27l49 -85q64 74 64 168q0 74 -47 123t-122 49q-61 0 -114.5 -33.5t-85.5 -89.5q-6 90 -53 157q120 110 271 110q136 -1 222.5 -87.5t86.5 -216.5q0 -88 -39.5 -169t-107.5 -140l60 -105z
" />
    <glyph glyph-name="uniE19B" unicode="&#xe19b;" horiz-adv-x="514" 
d="M318 0l-143 441l-126 -441h-90l-10 178l145 507h164l143 -440l126 440h73l39 -138l-157 -547h-164z" />
    <glyph glyph-name="uniE19C" unicode="&#xe19c;" 
d="M318 0l-143 441l-126 -441h-90l-10 178l145 507h164l143 -440l126 440h151l-147 -514l-110 -171h-103z" />
    <glyph glyph-name="uniE19D" unicode="&#xe19d;" horiz-adv-x="1272" 
d="M359 -15q-138 0 -226 87t-88 218q0 162 121.5 286t285.5 124q138 0 226 -87t88 -218q0 -162 -121.5 -286t-285.5 -124zM999 555q-61 0 -114.5 -33.5t-85.5 -89.5q-6 90 -53 157q120 110 270 110q100 0 176 -45.5t102 -127.5l-137 -81q-36 110 -158 110zM439 555
q-95 0 -166 -78t-71 -175q0 -74 47.5 -123t122.5 -49q95 0 165.5 77.5t70.5 175.5q0 74 -47 123t-122 49zM937 130q109 0 197 112l106 -89q-55 -76 -137 -121.5t-181 -45.5q-78 0 -142 28.5t-104 80.5q62 65 99 157q14 -55 57.5 -88.5t104.5 -33.5z" />
    <glyph glyph-name="uniE19E" unicode="&#xe19e;" horiz-adv-x="1312" 
d="M359 -15q-138 0 -226 87t-88 218q0 162 121.5 286t285.5 124q138 0 226 -87t88 -218q0 -162 -121.5 -286t-285.5 -124zM1007 555q-63 0 -119.5 -33.5t-88.5 -89.5q-6 90 -53 157q120 110 279 110q112 0 188 -47.5t100 -125.5l-139 -82q-38 111 -167 111zM439 555
q-95 0 -166 -78t-71 -175q0 -74 47.5 -123t122.5 -49q95 0 165.5 77.5t70.5 175.5q0 74 -47 123t-122 49zM928 -14q-80 0 -146 28.5t-106 80.5q62 65 99 157q15 -55 60.5 -89.5t108.5 -33.5q55 1 100.5 32.5t72.5 87.5h-187l43 135h353q-33 -193 -143 -295t-255 -103z" />
    <glyph glyph-name="uniE19F" unicode="&#xe19f;" horiz-adv-x="1323" 
d="M359 -15q-138 0 -226 87t-88 218q0 162 121.5 286t285.5 124q138 0 226 -87t88 -218q0 -162 -121.5 -286t-285.5 -124zM439 555q-95 0 -166 -78t-71 -175q0 -74 47.5 -123t122.5 -49q95 0 165.5 77.5t70.5 175.5q0 74 -47 123t-122 49zM935 130q94 1 163.5 78.5
t69.5 174.5q0 74 -47 123t-122 49q-61 0 -114.5 -33.5t-85.5 -89.5q-6 90 -53 157q120 110 271 110q136 -1 222.5 -87.5t86.5 -216.5q0 -161 -121.5 -285t-285.5 -124q-159 0 -243 109q62 65 99 157q14 -55 57 -88.5t103 -33.5z" />
    <glyph glyph-name="uniE1A0" unicode="&#xe1a0;" horiz-adv-x="753" 
d="M277 0l-62 415l-118 -415h-69l-62 70l176 615h182l64 -448l322 448h192l-146 -511l-110 -174h-88l117 409l-298 -409h-100z" />
    <glyph glyph-name="uniE1A1" unicode="&#xe1a1;" horiz-adv-x="855" 
d="M564 0l-101 422l-118 -422h-189l-141 541l132 127l114 -470l137 487h140l114 -465l131 465h152l-196 -685h-175z" />
    <glyph glyph-name="uniF8FF" unicode="&#xf8ff;" horiz-adv-x="1105" 
d="M809 168v15h45v-182h-45v12q-24 -16 -53 -16q-39 0 -66.5 28t-27.5 66q0 39 27.5 66t66.5 27q31 0 53 -16zM758 40q21 0 36 15t15 36t-15 36.5t-36 15.5q-22 0 -37 -15.5t-15 -36.5t15 -36t37 -15zM118 168v15h44v-182h-44v12q-24 -16 -54 -16q-39 0 -66.5 28t-27.5 66
q0 39 27.5 66t66.5 27q31 0 54 -16zM13 91q0 -21 15.5 -36t36.5 -15q22 0 37.5 15t15.5 36t-15.5 36.5t-37.5 15.5q-21 0 -36.5 -15.5t-15.5 -36.5zM988 108q47 -11 47 -49q0 -62 -82 -62q-37 0 -58.5 17t-23.5 45h47q0 -11 9 -19.5t29 -9.5q14 0 22 7t8 14q0 2 -1 4
t-1.5 3.5t-2.5 2.5t-3.5 2t-4 2t-4 1.5t-5 1t-5.5 1t-5.5 1t-5.5 0.5q-30 5 -48 13q-25 12 -25 43q0 25 20.5 41.5t54.5 16.5t54.5 -16t22.5 -43h-45q-1 9 -9 17t-22 8q-30 0 -30 -16q0 -9 9 -13t29.5 -7.5t28.5 -5.5zM878 244h-210l-219 380l157 91zM392 1v182h45v-182h-45
zM603 168v76h44v-243h-44v12q-24 -16 -54 -16q-39 0 -66.5 28t-27.5 66q0 39 27.5 66t66.5 27q31 0 54 -16zM550 40q22 0 37.5 15t15.5 36t-15.5 36.5t-37.5 15.5q-21 0 -36.5 -15.5t-15.5 -36.5t15.5 -36t36.5 -15zM268 459l158 90l177 -305h-166v-45h-45v45zM85 297
l157 91l83 -144h-210zM325 168v76h45v-243h-45v12q-26 -16 -53 -16q-39 0 -67 28t-28 66q0 39 28 66t67 27q30 0 53 -16zM273 40q21 0 36.5 15t15.5 36t-15.5 36.5t-36.5 15.5q-22 0 -37.5 -15.5t-15.5 -36.5t15.5 -36t37.5 -15z" />
    <glyph glyph-name="uni00200326" horiz-adv-x="485" 
d="M196 -125l-65 -94h-89l51 70h-32l31 107h128z" />
    <glyph glyph-name="parenleft.cap" horiz-adv-x="319" 
d="M292 706l104 -66q-149 -144 -202 -329q-24 -87 -24 -162q0 -96 38 -170l-114 -67q-63 107 -63 245q0 72 20 154q28 110 93 215.5t148 179.5z" />
    <glyph glyph-name="parenright.cap" horiz-adv-x="317" 
d="M55 -88l-104 66q149 144 202 329q24 87 24 162q0 96 -38 170l114 67q63 -107 63 -245q0 -72 -20 -154q-28 -110 -93 -215.5t-148 -179.5z" />
    <glyph glyph-name="bracketleft.cap" horiz-adv-x="319" 
d="M374 560h-114l-140 -486h114l-36 -128h-254l211 739h254z" />
    <glyph glyph-name="bracketright.cap" horiz-adv-x="319" 
d="M-22 71h114l140 486h-114l36 128h254l-211 -739h-254z" />
    <glyph glyph-name="braceleft.cap" horiz-adv-x="336" 
d="M293 438q0 -44 -24.5 -76.5t-63.5 -48.5q37 -20 37 -60q0 -34 -35.5 -87.5t-36.5 -75.5q-1 -13 7.5 -21t23.5 -8h46l-33 -118h-77q-52 0 -83 25.5t-31 68.5q0 38 19.5 72.5t38.5 63t19 50.5q0 39 -63 39h-6l30 104h6q101 0 101 76q0 12 -5 37.5t-5 45.5q0 63 50 112
t122 49h97l-34 -118h-38q-28 0 -47.5 -18t-19.5 -51q0 -9 2.5 -29t2.5 -32z" />
    <glyph glyph-name="braceright.cap" horiz-adv-x="337" 
d="M76 191q0 44 24.5 76.5t63.5 48.5q-37 20 -37 60q0 34 35.5 87.5t36.5 75.5q1 13 -7.5 21t-23.5 8h-46l33 118h77q52 0 83 -25.5t31 -68.5q0 -30 -12 -58.5t-26.5 -47t-26.5 -40.5t-12 -40q0 -39 63 -39h6l-30 -104h-6q-101 0 -101 -76q0 -12 5 -37.5t5 -45.5
q0 -63 -50 -112t-122 -49h-97l34 118h38q28 0 47.5 18t19.5 51q0 9 -2.5 29t-2.5 32z" />
    <glyph glyph-name="at.cap" horiz-adv-x="754" 
d="M350 -12q-141 0 -231.5 85.5t-90.5 218.5q0 101 51 194t146 154t210 61q141 0 229 -78t88 -204q0 -117 -61.5 -189t-151.5 -72q-67 0 -97 41q-48 -41 -111 -41q-64 0 -106.5 42.5t-42.5 108.5q0 84 62 149.5t145 65.5q65 0 101 -47l10 37h113l-72 -246q-4 -14 2.5 -21.5
t18.5 -7.5q41 0 73.5 51.5t32.5 127.5q0 91 -66 147.5t-174 56.5q-91 0 -164 -51.5t-110 -126t-37 -152.5q0 -102 68.5 -162t171.5 -60q68 0 160 35l22 -75q-92 -42 -189 -42zM359 256q36 0 64 28.5t28 65.5q0 31 -20 50.5t-48 19.5q-35 0 -62.5 -30t-27.5 -66
q0 -33 19 -50.5t47 -17.5z" />
    </font>
</defs>
</svg>
