<svg xmlns="http://www.w3.org/2000/svg" viewBox="0 0 104 104"><defs><style>.a{fill:#F0F1F2;}</style></defs><title>Artboard 8</title><rect class="a" width="104" height="104"/><path d="M65.65,40.84A2.26,2.26,0,1,1,63.4,43.1a2.26,2.26,0,0,1,2.25-2.26m0-1.21A3.47,3.47,0,1,0,69.1,43.1a3.46,3.46,0,0,0-3.45-3.47Z"/><polygon points="46.9 68.59 30.49 68.59 44.57 46.34 51.46 60.8 58.93 53.91 60.16 55.25 61.03 54.39 59 52.18 51.85 58.78 44.72 43.82 30.4 66.45 30.4 35.41 73.6 35.41 73.6 41.75 76 39.33 76 33 28 33 28 71 44.5 71 46.9 68.59"/><polyline points="72.4 68.59 61.5 68.59 59.1 71 76 71 76 54.01 73.6 56.42 73.6 68.59"/></svg>
