<?xml version="1.0" encoding="UTF-8"?>
<svg width="160px" height="100px" viewBox="0 0 160 100" version="1.1" xmlns="http://www.w3.org/2000/svg" xmlns:xlink="http://www.w3.org/1999/xlink">
    <!-- Generator: Sketch 48.2 (47327) - http://www.bohemiancoding.com/sketch -->
    <title>amex</title>
    <desc>Created with Sketch.</desc>
    <defs>
        <rect id="path-1" x="0" y="0" width="160" height="100" rx="4"></rect>
        <rect id="path-3" x="0" y="0" width="160" height="100" rx="4"></rect>
        <rect id="path-5" x="0" y="0" width="160" height="100"></rect>
        <radialGradient cx="17.5409177%" cy="17.466056%" fx="17.5409177%" fy="17.466056%" r="93.2873442%" gradientTransform="translate(0.175409,0.174661),scale(0.613180,1.000000),translate(-0.175409,-0.174661)" id="radialGradient-7">
            <stop stop-color="#9DD5F6" offset="0%"></stop>
            <stop stop-color="#98D3F5" offset="7.11%"></stop>
            <stop stop-color="#89CEF3" offset="15.75%"></stop>
            <stop stop-color="#70C6EF" offset="25.16%"></stop>
            <stop stop-color="#4EBBEA" offset="35.14%"></stop>
            <stop stop-color="#23ADE3" offset="45.46%"></stop>
            <stop stop-color="#0DA6E0" offset="50%"></stop>
            <stop stop-color="#2E77BC" offset="100%"></stop>
        </radialGradient>
    </defs>
    <g id="Symbols" stroke="none" stroke-width="1" fill="none" fill-rule="evenodd">
        <g id="amex">
            <g>
                <g id="Rectangle-56-Clipped">
                    <mask id="mask-2" fill="white">
                        <use xlink:href="#path-1"></use>
                    </mask>
                    <g id="path-1"></g>
                    <g id="Rectangle-56" mask="url(#mask-2)">
                        <g id="path-1-Clipped">
                            <mask id="mask-4" fill="white">
                                <use xlink:href="#path-3"></use>
                            </mask>
                            <g id="path-1"></g>
                            <rect id="path-1" stroke="#D6D6D6" stroke-width="1.5" fill="#FFFFFF" fill-rule="nonzero" mask="url(#mask-4)" x="0" y="0" width="160" height="100" rx="4"></rect>
                        </g>
                    </g>
                </g>
                <g id="American_Express_logo-Clipped">
                    <mask id="mask-6" fill="white">
                        <use xlink:href="#path-5"></use>
                    </mask>
                    <rect stroke="#EBEBEB" x="-0.5" y="-0.5" width="161" height="101"></rect>
                    <g id="American_Express_logo" mask="url(#mask-6)">
                        <g transform="translate(-2.000000, -0.146341)" id="Layer_1">
                            <g transform="translate(0.000000, 0.000000)">
                                <g id="Group" transform="translate(0.000000, 0.000000)" fill-rule="nonzero">
                                    <path d="M162.122322,2.13162821e-14 L0,2.13162821e-14 L0,100 L162.122322,100 L162.122322,66.9974485 C162.766338,66.4252949 163.084321,65.6934049 163.084321,64.7985976 C163.084321,63.7744464 162.766338,63.1400946 162.122322,62.6057547" id="Shape" fill="url(#radialGradient-7)"></path>
                                    <path d="M16.8512648,35.7421161 L13.7593652,28.2505154 L10.6851368,35.7421161 L16.8512648,35.7421161 Z M84.9654023,32.7589661 C84.3446284,33.133631 83.6104162,33.146101 82.7308438,33.146101 L77.2430639,33.146101 L77.2430639,28.9720715 L82.805519,28.9720715 C83.5927449,28.9720715 84.4141733,29.0072139 84.9477312,29.3110271 C85.5337327,29.584799 85.8962786,30.1674854 85.8962786,30.9723634 C85.8962786,31.7936793 85.5514041,32.4545861 84.9654023,32.7589661 Z M124.114643,35.7421161 L120.988541,28.2505154 L117.87954,35.7421161 L124.114643,35.7421161 Z M51.1380598,43.850979 L46.5070511,43.850979 L46.4899498,29.1330471 L39.9396145,43.850979 L35.9732729,43.850979 L29.4058366,29.1200102 L29.4058366,43.850979 L20.2179239,43.850979 L18.4821506,39.6593783 L9.07648258,39.6593783 L7.32303806,43.850979 L2.4166996,43.850979 L10.5061441,25.0587771 L17.2178008,25.0587771 L24.9008065,42.8511163 L24.9008065,25.0587771 L32.27371,25.0587771 L38.1856,37.8070251 L43.6163756,25.0587771 L51.13749,25.0587771 L51.13749,43.850979 L51.1380598,43.850979 Z M69.5954009,43.850979 L54.504719,43.850979 L54.504719,25.0587771 L69.5954009,25.0587771 L69.5954009,28.9720715 L59.02229,28.9720715 L59.02229,32.359361 L69.3417327,32.359361 L69.3417327,36.2114393 L59.02229,36.2114393 L59.02229,39.9643249 L69.5954009,39.9643249 L69.5954009,43.850979 Z M90.8727321,30.1198729 C90.8727321,33.1160598 88.861629,34.6640329 87.6896258,35.1288217 C88.6780761,35.50292 89.522306,36.1638268 89.9241846,36.7113707 C90.5620598,37.6460495 90.6720778,38.4809688 90.6720778,40.1593095 L90.6720778,43.850979 L86.1157442,43.850979 L86.098643,41.4811234 C86.098643,40.3503263 86.2075207,38.7241327 85.3855222,37.820062 C84.7254154,37.1591549 83.719294,37.0157505 82.0929684,37.0157505 L77.243634,37.0157505 L77.243634,43.850979 L72.7266331,43.850979 L72.7266331,25.0587771 L83.1167611,25.0587771 C85.425425,25.0587771 87.1264258,25.1194263 88.5868697,25.95888 C90.0159611,26.7983339 90.8727321,28.023789 90.8727321,30.1198729 Z M98.1019855,43.850979 L93.492638,43.850979 L93.492638,25.0587771 L98.1019855,25.0587771 L98.1019855,43.850979 Z M151.576343,43.850979 L145.174789,43.850979 L136.61221,29.7463415 L136.61221,43.850979 L127.412327,43.850979 L125.654322,39.6593783 L116.270316,39.6593783 L114.564755,43.850979 L109.278769,43.850979 C107.082973,43.850979 104.302886,43.3680522 102.728434,41.7724666 C101.140871,40.1768807 100.314883,38.0156132 100.314883,34.5982824 C100.314883,31.8112505 100.808538,29.2634146 102.750096,27.2500859 C104.210539,25.750292 106.497542,25.0587771 109.610533,25.0587771 L113.983883,25.0587771 L113.983883,29.0854346 L109.702309,29.0854346 C108.053752,29.0854346 107.122876,29.3291651 106.226202,30.1986602 C105.456078,30.9899346 104.92765,32.485761 104.92765,34.4554449 C104.92765,36.4687737 105.330099,37.9203883 106.169768,38.8686705 C106.865218,39.6123324 108.128998,39.8379251 109.318102,39.8379251 L111.346876,39.8379251 L117.713658,25.0593439 L124.482319,25.0593439 L132.130552,42.834112 L132.130552,25.0593439 L139.008661,25.0593439 L146.949325,38.1471144 L146.949325,25.0593439 L151.576343,25.0593439 L151.576343,43.850979 Z M2.36425587,47.5420817 L10.082604,47.5420817 L11.8229376,43.3680522 L15.7191644,43.3680522 L17.4549376,47.5420817 L32.6413863,47.5420817 L32.6413863,44.3509102 L33.9969425,47.5556854 L41.8806023,47.5556854 L43.2361588,44.3032978 L43.2361588,47.5420817 L80.9773991,47.5420817 L80.959728,40.6904156 L81.6899498,40.6904156 C82.2012761,40.7079868 82.3506267,40.7550327 82.3506267,41.5944863 L82.3506267,47.5420817 L101.870523,47.5420817 L101.870523,45.9470629 C103.444975,46.7859498 105.893869,47.5420817 109.116308,47.5420817 L117.328311,47.5420817 L119.085746,43.3680522 L122.981972,43.3680522 L124.700644,47.5420817 L140.525538,47.5420817 L140.525538,43.5772071 L142.921989,47.5420817 L155.603109,47.5420817 L155.603109,21.3325317 L143.053098,21.3325317 L143.053098,24.4279115 L141.295663,21.3325317 L128.417879,21.3325317 L128.417879,24.4279115 L126.804094,21.3325317 L109.409309,21.3325317 C106.497542,21.3325317 103.93806,21.7366712 101.870523,22.8629337 L101.870523,21.3325317 L89.8666105,21.3325317 L89.8666105,22.8629337 C88.550957,21.7020956 86.7581797,21.3325317 84.7647481,21.3325317 L40.9098235,21.3325317 L37.9672746,28.1020095 L34.94549,21.3325317 L21.1322688,21.3325317 L21.1322688,24.4279115 L19.614821,21.3325317 L7.83436438,21.3325317 L2.36368583,33.7939712 L2.36368583,47.5420817 L2.36425587,47.5420817 Z" id="Shape" fill="#FFFFFF"></path>
                                    <path d="M163.084321,61.4035554 L154.851226,61.4035554 C154.029228,61.4035554 153.483129,61.4341634 153.023106,61.743078 C152.546552,62.0474578 152.362999,62.49921 152.362999,63.0954998 C152.362999,63.8045861 152.765448,64.2869461 153.350879,64.4955341 C153.827433,64.6604776 154.339329,64.7086568 155.091783,64.7086568 L157.540107,64.7738405 C160.010662,64.8344898 161.65979,65.2567673 162.665341,66.2866712 C162.848324,66.4300756 162.958342,66.5910512 163.084321,66.7520268 L163.084321,61.4035554 Z M163.084321,73.7958434 C161.986993,75.391429 159.848771,76.2002749 156.954105,76.2002749 L148.230206,76.2002749 L148.230206,72.1696495 L156.918763,72.1696495 C157.780664,72.1696495 158.383767,72.0568534 158.746883,71.7042941 C159.061545,71.4135178 159.28101,70.9912402 159.28101,70.478272 C159.28101,69.9307283 159.061545,69.4959807 158.729211,69.2352456 C158.401438,68.9484371 157.924314,68.8180695 157.137658,68.8180695 C152.895987,68.6746651 147.604301,68.9484371 147.604301,63.0002749 C147.604301,60.2738922 149.345205,57.4041051 154.085662,57.4041051 L163.083751,57.4041051 L163.084321,53.6642563 L154.723537,53.6642563 C152.200538,53.6642563 150.367857,54.2650807 149.069875,55.1991927 L149.069875,53.6642563 L136.703987,53.6642563 C134.726517,53.6642563 132.405312,54.1517176 131.307414,55.1991927 L131.307414,53.6642563 L109.225185,53.6642563 L109.225185,55.1991927 C107.467751,53.9385949 104.5024,53.6642563 103.133733,53.6642563 L88.5680583,53.6642563 L88.5680583,55.1991927 C87.1777295,53.8603744 84.0858299,53.6642563 82.2012761,53.6642563 L65.8998284,53.6642563 L62.1694833,57.6784439 L58.6757054,53.6642563 L34.3247158,53.6642563 L34.3247158,79.8919444 L58.2173927,79.8919444 L62.0611756,75.8142734 L65.6820729,79.8919444 L80.4096389,79.9049812 L80.4096389,73.7351941 L81.8575417,73.7351941 C83.8116404,73.7652354 86.1163141,73.6870149 88.1496485,72.8129851 L88.1496485,79.8913776 L100.297211,79.8913776 L100.297211,73.0555822 L100.883213,73.0555822 C101.631106,73.0555822 101.704641,73.0861902 101.704641,73.8292854 L101.704641,79.8908107 L138.606782,79.8908107 C140.949648,79.8908107 143.398543,79.2945207 144.754669,78.21247 L144.754669,79.8908107 L156.45988,79.8908107 C158.895663,79.8908107 161.274442,79.5512883 163.084321,78.6817932 L163.084321,73.7958434 Z M145.064771,66.2866712 C145.944343,67.1918756 146.415767,68.3345759 146.415767,70.2691171 C146.415767,74.312779 143.875096,76.2002749 139.319333,76.2002749 L130.520758,76.2002749 L130.520758,72.1696495 L139.28399,72.1696495 C140.140761,72.1696495 140.748424,72.0568534 141.129211,71.7042941 C141.439883,71.4135178 141.662769,70.9912402 141.662769,70.478272 C141.662769,69.9307283 141.421642,69.4959807 141.11154,69.2352456 C140.766096,68.9484371 140.289542,68.8180695 139.502886,68.8180695 C135.278316,68.6746651 129.98777,68.9484371 129.98777,63.0002749 C129.98777,60.2738922 131.710432,57.4041051 136.446329,57.4041051 L145.502562,57.4041051 L145.502562,61.404689 L137.215883,61.404689 C136.394455,61.404689 135.860327,61.4352971 135.406005,61.7442117 C134.91121,62.0485915 134.727657,62.5003434 134.727657,63.0966334 C134.727657,63.8057198 135.147776,64.2880798 135.716107,64.4966678 C136.192661,64.6616112 136.704557,64.7097905 137.474112,64.7097905 L139.905904,64.7749741 C142.358219,64.8344898 144.041548,65.2562007 145.064771,66.2866712 Z M104.302316,65.1258329 C103.698073,65.48236 102.95075,65.512968 102.071747,65.512968 L96.5839675,65.512968 L96.5839675,61.2913261 L102.146423,61.2913261 C102.95075,61.2913261 103.755647,61.3083305 104.302316,61.6308485 C104.887747,61.9352285 105.237752,62.517348 105.237752,63.3216593 C105.237752,64.1259705 104.887747,64.7738405 104.302316,65.1258329 Z M107.030529,67.4650807 C108.036081,67.8340776 108.858079,68.4955515 109.243427,69.0430951 C109.881302,69.9607695 109.973648,70.8172278 109.99189,72.4740295 L109.99189,76.2002749 L105.456648,76.2002749 L105.456648,73.8485573 C105.456648,72.7177602 105.566096,71.0433871 104.726426,70.1693576 C104.066319,69.4959807 103.060198,69.3350051 101.41221,69.3350051 L96.5845376,69.3350051 L96.5845376,76.2002749 L92.0453054,76.2002749 L92.0453054,57.4035383 L102.474766,57.4035383 C104.761768,57.4035383 106.427427,57.5038646 107.910102,58.2906046 C109.335773,59.1470629 110.232447,60.320371 110.232447,62.4646341 C110.231877,65.4647888 108.219634,66.9957576 107.030529,67.4650807 Z M112.737205,57.4035383 L127.814206,57.4035383 L127.814206,61.2907593 L117.235964,61.2907593 L117.235964,64.70809 L127.555977,64.70809 L127.555977,68.5431639 L117.235964,68.5431639 L117.235964,72.2830127 L127.814206,72.3000171 L127.814206,76.2002749 L112.737205,76.2002749 L112.737205,57.4035383 Z M82.2588502,66.0780832 L76.4210656,66.0780832 L76.4210656,61.2913261 L82.311294,61.2913261 C83.9421797,61.2913261 85.0742801,61.9522329 85.0742801,63.595998 C85.0742801,65.2216249 83.9946235,66.0780832 82.2588502,66.0780832 Z M71.9217361,74.4907593 L64.9860534,66.8342151 L71.9217361,59.4208349 L71.9217361,74.4907593 Z M54.010494,72.2830127 L42.903825,72.2830127 L42.903825,68.5431639 L52.8213895,68.5431639 L52.8213895,64.70809 L42.903825,64.70809 L42.903825,61.2907593 L54.2293895,61.2907593 L59.1705004,66.7684644 L54.010494,72.2830127 Z M89.9241846,63.595998 C89.9241846,68.8175027 86.0062964,69.8955856 82.0576258,69.8955856 L76.4210656,69.8955856 L76.4210656,76.2002749 L67.6407321,76.2002749 L62.0782769,69.9777739 L56.2974964,76.2002749 L38.4039254,76.2002749 L38.4039254,57.4035383 L56.5728258,57.4035383 L62.1307207,63.5648232 L67.8767289,57.4035383 L82.311294,57.4035383 C85.8962786,57.4035383 89.9241846,58.3903641 89.9241846,63.595998 Z" id="Shape" fill="#FFFFFF"></path>
                                </g>
                            </g>
                        </g>
                    </g>
                </g>
            </g>
        </g>
    </g>
</svg>