<svg xmlns="http://www.w3.org/2000/svg" viewBox="0 0 16 16"><defs><style>.a{fill:none;}.b{fill:#3175de;}.c{fill:#f9b900;}.d{fill:#00ac37;}.e{fill:#ea2c35;}</style></defs><title>icon_customise-l_1</title><rect class="a" width="16" height="16"/><path d="M1,13l.39-2,1.5,1.32ZM10.33.83,2.05,10.29l1.5,1.31,8.29-9.45Z"/><polygon points="1 13 1.39 11.04 2.89 12.36 1 13"/><rect x="0.6" y="5.1" width="12.88" height="2" transform="translate(-2.19 7.38) rotate(-48.77)"/><path class="b" d="M7.24,8.92,3.4,13.31a7,7,0,0,0,4.25,1.82Z"/><path class="c" d="M15.11,7.69,8.93,8.1l4.81,4.22a7,7,0,0,0,1.37-4.6Z"/><path class="d" d="M8.24,8.83l.42,6.29a7,7,0,0,0,4.43-2Z"/><path class="e" d="M15,6.7a7,7,0,0,0-2.35-3.92L8.83,7.1Z"/></svg>