<?xml version="1.0" encoding="UTF-8"?>
<svg width="160px" height="100px" viewBox="0 0 160 100" version="1.1" xmlns="http://www.w3.org/2000/svg" xmlns:xlink="http://www.w3.org/1999/xlink">
    <!-- Generator: Sketch 48.2 (47327) - http://www.bohemiancoding.com/sketch -->
    <title>Mastercard</title>
    <desc>Created with Sketch.</desc>
    <defs></defs>
    <g id="Symbols" stroke="none" stroke-width="1" fill="none" fill-rule="evenodd">
        <g id="Mastercard">
            <g>
                <rect id="Rectangle-Copy-2" fill="#FFFFFF" x="0" y="0" width="160" height="100"></rect>
                <path d="M48.7990476,89.815834 L48.7990476,84.525162 C48.8776281,83.6295278 48.5756621,82.7429527 47.972561,82.0985892 C47.3694598,81.4542257 46.525584,81.1165642 45.6628571,81.1744032 C44.5187181,81.1270713 43.4310372,81.6928288 42.7809524,82.6734269 C42.215171,81.6878672 41.1703219,81.1104212 40.0685714,81.1744032 C39.1019568,81.1305572 38.1786949,81.5942324 37.6104762,82.4088933 L37.6104762,81.3507589 L36,81.3507589 L36,89.815834 L37.6104762,89.815834 L37.6104762,84.9660514 C37.5426667,84.378281 37.7318518,83.7898604 38.1259406,83.3628075 C38.5200293,82.9357546 39.0774653,82.7151019 39.6447619,82.7616047 C40.8314286,82.7616047 41.5095238,83.5552055 41.5095238,84.9660514 L41.5095238,89.815834 L43.12,89.815834 L43.12,84.9660514 C43.0521905,84.378281 43.2413756,83.7898604 43.6354644,83.3628075 C44.0295531,82.9357546 44.5869891,82.7151019 45.1542857,82.7616047 C46.3409524,82.7616047 47.0190476,83.5552055 47.0190476,84.9660514 L47.0190476,89.815834 L48.7990476,89.815834 Z M75.2447619,81.4389367 L72.2780952,81.4389367 L72.2780952,78.8817787 L70.667619,78.8817787 L70.667619,81.4389367 L68.972381,81.4389367 L68.972381,82.9379605 L70.667619,82.9379605 L70.667619,86.9059644 C70.667619,88.8458774 71.3457143,89.9921897 73.38,89.9921897 C74.1519743,89.9763152 74.9085235,89.7644202 75.5838095,89.3749446 L75.0752381,87.8759209 C74.6183015,88.1731618 74.0883626,88.3262995 73.5495238,88.3168102 C73.1886514,88.3477664 72.83394,88.2056236 72.5862868,87.9308143 C72.3386336,87.6560049 72.2251423,87.2786047 72.2780952,86.9059644 L72.2780952,82.8497826 L75.2447619,82.8497826 L75.2447619,81.4389367 Z M90.332381,81.1744032 C89.4404801,81.1552601 88.6041633,81.6237329 88.1285714,82.4088933 L88.1285714,81.3507589 L86.5180952,81.3507589 L86.5180952,89.815834 L88.1285714,89.815834 L88.1285714,85.0542292 C88.1285714,83.6433834 88.8066667,82.7616047 89.9085714,82.7616047 C90.2810779,82.777111 90.6507152,82.83627 91.0104762,82.9379605 L91.5190476,81.3507589 C91.1305192,81.2489099 90.7327812,81.1898003 90.332381,81.1744032 Z M67.5314286,82.0561818 C66.5391043,81.424912 65.3875948,81.117754 64.2257143,81.1744032 C62.1914286,81.1744032 60.92,82.1443597 60.92,83.8197391 C60.92,85.230585 61.852381,86.0241857 63.632381,86.2887193 L64.48,86.3768972 C65.412381,86.5532529 66.0057143,86.9059644 66.0057143,87.3468537 C66.0057143,87.9640988 65.327619,88.4049881 64.0561905,88.4049881 C63.083901,88.4260536 62.1315638,88.1164545 61.3438095,87.5232095 L60.4961905,88.8458774 C61.5259298,89.5541904 62.7370786,89.9229589 63.9714286,89.9040118 C66.3447619,89.9040118 67.6161905,88.7576996 67.6161905,87.170498 C67.6161905,85.5832964 66.5990476,84.9660514 64.8190476,84.7015178 L63.9714286,84.6133399 C63.2085714,84.525162 62.5304762,84.2606284 62.5304762,83.7315612 C62.5304762,83.2024941 63.2085714,82.6734269 64.1409524,82.6734269 C65.0277584,82.7136647 65.8954944,82.9543864 66.6838095,83.3788498 L67.5314286,82.0561818 Z M92.1971429,85.5832964 C92.126998,86.7734819 92.5509358,87.9378016 93.3614405,88.7809701 C94.1719451,89.6241386 95.2911598,90.0651614 96.4352381,89.9921897 C97.4779293,90.0492213 98.5041606,89.7038248 99.3171429,89.0222332 L98.4695238,87.6995652 C97.8707331,88.2075573 97.1231148,88.4875465 96.3504762,88.493166 C94.9354343,88.3766978 93.844219,87.1481435 93.844219,85.6714743 C93.844219,84.1948051 94.9354343,82.9662508 96.3504762,82.8497826 C97.1231148,82.8554021 97.8707331,83.1353913 98.4695238,83.6433834 L99.3171429,82.3207154 C98.5041606,81.6391238 97.4779293,81.2937273 96.4352381,81.3507589 C95.3052371,81.2096744 94.173986,81.6032932 93.3529678,82.4232347 C92.5319496,83.2431763 92.1077401,84.4029783 92.1971429,85.5832964 Z M80.7542857,81.1744032 C78.3809524,81.1744032 76.7704762,82.9379605 76.7704762,85.5832964 C76.697066,86.7588498 77.1080221,87.9113551 77.9006178,88.7527203 C78.6932135,89.5940854 79.7925441,90.0447967 80.9238095,89.9921897 C82.1198058,90.018036 83.2876339,89.6130719 84.2295238,88.8458774 L83.3819048,87.6113873 C82.7010145,88.1603037 81.8696731,88.4691769 81.0085714,88.493166 C79.7602972,88.5426157 78.6873812,87.5804129 78.5504762,86.2887193 L84.5685714,86.2887193 L84.5685714,85.5832964 C84.5685714,82.9379605 83.0428571,81.1744032 80.7542857,81.1744032 Z M80.7542857,82.7616047 C81.3090041,82.7350087 81.8498977,82.9464664 82.2504892,83.3465327 C82.6510808,83.7465989 82.8762456,84.300195 82.8733612,84.8778735 L78.4657143,84.8778735 C78.5429595,83.6395992 79.5631341,82.6962318 80.7542857,82.7616047 Z M58.8009524,85.5832964 L58.8009524,81.3507589 L57.1904762,81.3507589 L57.1904762,82.4088933 C56.560929,81.5757167 55.5799571,81.1148431 54.5628571,81.1744032 C52.2222218,81.1744032 50.3247619,83.1483319 50.3247619,85.5832964 C50.3247619,88.0182609 52.2222218,89.9921897 54.5628571,89.9921897 C55.5799571,90.0517497 56.560929,89.5908762 57.1904762,88.7576996 L57.1904762,89.815834 L58.8009524,89.815834 L58.8009524,85.5832964 Z M52.1895238,85.5832964 C52.2816348,84.1492005 53.4576136,83.054009 54.8379061,83.1168526 C56.2181986,83.1796961 57.297708,84.377578 57.2690328,85.8145621 C57.2403577,87.2515463 56.1139913,88.4017903 54.732381,88.4049881 C54.0226531,88.4229737 53.3392435,88.1251959 52.8536875,87.5863967 C52.3681315,87.0475975 52.1265296,86.3189326 52.1895238,85.5832964 Z M114.828571,81.1744032 C113.936671,81.1552601 113.100354,81.6237329 112.624762,82.4088933 L112.624762,81.3507589 L111.014286,81.3507589 L111.014286,89.815834 L112.624762,89.815834 L112.624762,85.0542292 C112.624762,83.6433834 113.302857,82.7616047 114.404762,82.7616047 C114.777268,82.777111 115.146906,82.83627 115.506667,82.9379605 L116.015238,81.3507589 C115.62671,81.2489099 115.228972,81.1898003 114.828571,81.1744032 Z M108.55619,85.5832964 L108.55619,81.3507589 L106.945714,81.3507589 L106.945714,82.4088933 C106.316167,81.5757167 105.335195,81.1148431 104.318095,81.1744032 C101.97746,81.1744032 100.08,83.1483319 100.08,85.5832964 C100.08,88.0182609 101.97746,89.9921897 104.318095,89.9921897 C105.335195,90.0517497 106.316167,89.5908762 106.945714,88.7576996 L106.945714,89.815834 L108.55619,89.815834 L108.55619,85.5832964 Z M102.029524,85.5832964 C102.121635,84.1492005 103.297614,83.054009 104.677906,83.1168526 C106.058199,83.1796961 107.137708,84.377578 107.109033,85.8145621 C107.080358,87.2515463 105.953991,88.4017903 104.572381,88.4049881 C102.961905,88.493166 102.029524,87.170498 102.029524,85.5832964 Z M125,85.5832964 L125,78 L123.389524,78 L123.389524,82.4088933 C122.759977,81.5757167 121.779005,81.1148431 120.761905,81.1744032 C118.421269,81.1744032 116.52381,83.1483319 116.52381,85.5832964 C116.52381,88.0182609 118.421269,89.9921897 120.761905,89.9921897 C121.779005,90.0517497 122.759977,89.5908762 123.389524,88.7576996 L123.389524,89.815834 L125,89.815834 L125,85.5832964 Z M118.388571,85.5832964 C118.480682,84.1492005 119.656661,83.054009 121.036954,83.1168526 C122.417246,83.1796961 123.496756,84.377578 123.46808,85.8145621 C123.439405,87.2515463 122.313039,88.4017903 120.931429,88.4049881 C120.221701,88.4229737 119.538291,88.1251959 119.052735,87.5863967 C118.567179,87.0475975 118.325577,86.3189326 118.388571,85.5832964 Z" id="_Compound_Path_-Copy" fill="#000000" fill-rule="nonzero"></path>
                <g id="Group-2" transform="translate(31.000000, 12.000000)" fill-rule="nonzero">
                    <rect id="Rectangle-path-Copy" fill="#FF5F00" x="34" y="7" width="29.4067797" height="48.0712329"></rect>
                    <path d="M37.7573729,30.5753512 C37.7599349,21.2065382 42.0365161,12.3530701 49.3675424,6.53973479 C38.8612354,-1.73899843 24.2014325,-2.20073388 13.1971446,5.40048652 C2.19285662,13.0017069 -2.5937776,26.8960839 1.38699502,39.682335 C5.36776763,52.4685862 17.1891,61.1696768 30.5539831,61.1506937 C37.3809469,61.1555093 44.0097691,58.8512839 49.3675424,54.6109677 C42.0365161,48.7976323 37.7599349,39.9441642 37.7573729,30.5753512 Z" id="_Path_-Copy" fill="#EB001B"></path>
                    <path d="M98.3220339,30.5415672 C98.3090532,42.2322503 91.6454842,52.8921732 81.1548383,58.0044754 C70.6641925,63.1167775 58.1830635,61.7864499 49,54.5771836 C56.3329473,48.7654159 60.6099423,39.9109179 60.6099423,30.5415672 C60.6099423,21.1722165 56.3329473,12.3177185 49,6.50595076 C58.1830635,-0.703315495 70.6641925,-2.03364314 81.1548383,3.07865901 C91.6454842,8.19096117 98.3090532,18.8508841 98.3220339,30.5415672 Z" id="Shape-Copy" fill="#F79E1B"></path>
                </g>
            </g>
        </g>
    </g>
</svg>