<?xml version="1.0" encoding="UTF-8"?>
<svg width="160px" height="100px" viewBox="0 0 160 100" version="1.1" xmlns="http://www.w3.org/2000/svg" xmlns:xlink="http://www.w3.org/1999/xlink">
    <!-- Generator: Sketch 48.2 (47327) - http://www.bohemiancoding.com/sketch -->
    <title>VISA</title>
    <desc>Created with Sketch.</desc>
    <defs></defs>
    <g id="Symbols" stroke="none" stroke-width="1" fill="none" fill-rule="evenodd">
        <g id="VISA" fill-rule="nonzero">
            <g>
                <rect id="whiteBG" fill="#FFFFFF" x="0" y="0" width="160" height="100"></rect>
                <path d="M62.8074074,30.7339419 L46.3185185,70.4706322 L35.5333333,70.4706322 L27.4444444,38.7022492 C26.9259259,36.7101724 26.5111111,36.0810955 25.0592593,35.2423263 C21.8642803,33.6876428 18.4828148,32.5598186 15,31.8872495 L15.2074074,30.7339419 L32.5259259,30.7339419 C34.8668733,30.7446241 36.8494106,32.4817515 37.1925926,34.8229417 L41.4444444,57.7842482 L52.0222222,30.7339419 L62.8074074,30.7339419 Z M105.014815,57.4697098 C105.014815,46.9850949 90.7037037,46.356018 90.8074074,41.7427875 C90.8074074,40.2749414 92.1555556,38.8070953 95.162963,38.3877107 C98.6133589,38.0619867 102.087032,38.6774814 105.222222,40.1700953 L106.985185,31.7824034 C103.940361,30.6003414 100.706028,29.9961091 97.4444444,30.0000189 C87.3851852,30.0000189 80.3333333,35.4520186 80.2296296,43.1057874 C80.1259259,48.8723256 85.3111111,52.01771 89.1481481,53.9049407 C92.9851852,55.7921714 94.437037,57.1551713 94.437037,58.8327097 C94.437037,61.4538634 91.2222222,62.7120172 88.3185185,62.7120172 C84.6695548,62.8140003 81.0579778,61.9463495 77.8444444,60.1957096 L75.9777778,68.89794 C79.5687734,70.3551472 83.4127074,71.0682262 87.2814815,70.9948629 C97.962963,71.0997091 104.911111,65.7525555 105.014815,57.4697098 Z M131.562963,70.4706322 L141,70.4706322 L132.807407,30.7339419 L124.096296,30.7339419 C122.184567,30.7107869 120.45488,31.8766146 119.740741,33.6696341 L104.392593,70.4706322 L115.074074,70.4706322 L117.148148,64.4944017 L130.214815,64.4944017 L131.562963,70.4706322 Z M120.155556,56.4212483 L125.548148,41.5330952 L128.659259,56.4212483 L120.155556,56.4212483 Z M77.3259259,30.7339419 L68.9259259,70.4706322 L58.762963,70.4706322 L67.162963,30.7339419 L77.3259259,30.7339419 Z" id="Shape" fill="#1A1F71"></path>
            </g>
        </g>
    </g>
</svg>