<svg width="100%" height="100%" viewBox="0 0 2592 482" version="1.1" xmlns="http://www.w3.org/2000/svg" xmlns:xlink="http://www.w3.org/1999/xlink" xml:space="preserve" xmlns:serif="http://www.serif.com/" style="fill-rule:evenodd;clip-rule:evenodd;stroke-linejoin:round;stroke-miterlimit:1.41421;">
    <path d="M2322.58,0L2333.02,187.342L2422.36,342.433L2422.76,343L2580.26,448.662L2591.26,429.412L2344.03,0L2322.58,0ZM2284.27,0L2035.68,429.029L2045.73,447.008L2202.66,342.067L2292.35,187.633L2303.91,0L2284.27,0ZM2223.58,378.283L2054.72,463.6L2065.56,481.687L2560.91,481.687L2570.77,463.6L2401.82,378.283L2223.58,378.283Z" style="fill:#b82028;fill-rule:nonzero;"/>
    <path d="M1571.52,286.435L1571.73,354.485C1570.99,434.555 1516.76,479.21 1440.04,481.455C1435.83,481.339 1427.84,481.393 1423.46,481.685C1346.82,478.039 1292.62,433.447 1292.62,354.397L1292.9,286.047C1293.16,205.76 1347.92,161.21 1425.13,158.93C1428.56,158.505 1436.46,158.93 1440.04,159.097C1517.32,161.23 1571.52,206.993 1571.52,286.435M1426.93,225.235C1396,226.901 1367.48,242.418 1367.9,285.705L1367.73,354.568C1367.37,396.947 1396.18,412.972 1426.51,415.147C1427.84,415.314 1436.13,415.785 1437.52,415.147C1467.03,413.926 1496.49,397.785 1496.79,354.568L1496.49,286.226C1496.49,243.189 1467.07,226.768 1437.63,224.972C1433.45,225.064 1430.32,225.064 1426.93,225.235" style="fill:#fff;fill-rule:nonzero;"/>
    <path d="M1686.72,303.235C1686.72,303.235 1799.58,175.819 1806.33,168.119L1900.11,168.494L1763.51,322.806L1906.89,481.394L1811.64,481.394L1686.21,343.252L1686.26,481.66L1610.75,481.256L1611.82,91.815L1687.68,92.069L1686.72,303.235Z" style="fill:#fff;fill-rule:nonzero;"/>
    <path d="M618.236,342.168L617.715,287.114C618.353,206.951 562.002,162.118 485.527,159.101L470.64,159.697C393.936,162.005 339.098,206.285 338.923,286.455L339.244,354.655C338.461,430.555 395.586,478.176 469.248,481.335C477.086,481.847 480.782,481.68 486.407,481.335C578.261,481.68 612.561,435.56 616.932,382.101L547.319,382.355C545.511,392.48 542.398,418.239 483.986,417.872C473.986,417.439 460.219,415.372 449.794,411.985C407.015,397.301 413.507,344.976 413.507,341.243L618.236,342.168ZM414.177,281.235C414.177,240.014 441.54,223.793 473.294,223.093C476.823,222.493 480.461,222.905 483.515,222.905C516.732,224.285 543.836,241.414 544.04,281.447L544.04,287.001L413.736,287.001L414.177,281.235Z" style="fill:#fff;fill-rule:nonzero;"/>
    <path d="M934.839,341.497L934.656,286.393C935.506,206.326 878.61,161.751 802.402,158.83L787.477,158.984C710.823,161.426 655.827,205.813 655.439,285.976L655.439,354.088C655.327,429.988 712.052,477.401 785.41,481.322C793.502,481.93 797.143,481.547 802.714,481.663C894.848,481.201 928.402,435.693 933.314,381.655L864.093,381.988C861.598,391.384 858.864,417.147 800.631,417.913C790.918,416.98 776.543,414.668 766.464,411.468C723.123,397.422 730.293,344.555 730.293,341.384L934.839,341.497ZM729.964,280.876C730.485,239.138 757.643,223.434 789.923,222.268C793.589,221.818 797.143,222.18 800.189,222.268C833.456,223.855 860.918,240.855 860.456,281.076L860.456,286.026L729.964,286.026L729.964,280.876Z" style="fill:#fff;fill-rule:nonzero;"/>
    <path d="M1122.74,159.238C1087.83,159.3 1064.28,168.5 1050.61,179.421L1050.61,81.85L976.082,81.35L975.24,471.408L988.244,471.408C988.244,471.408 1021.48,452.383 1023.09,451.833C1027.91,457.158 1061.08,481.213 1106.04,481.663C1111.91,481.663 1117.09,481.663 1123.1,481.454C1199.05,479.554 1254.26,432.238 1254.4,354.488L1254.73,286.342C1254.4,209.654 1199.28,159.238 1122.74,159.238M1179.36,354.829C1178.9,397.163 1150.32,413.613 1120.02,415.513C1118.39,415.083 1110.77,415.792 1109.18,415.313C1078.52,413.092 1050.08,396.375 1050.3,354.829L1050.3,286.029C1050.61,242.929 1079.69,227.225 1109.52,224.838C1112.82,225.088 1116.31,225.088 1120.42,225.713C1150.08,226.829 1179.36,243.075 1179.27,286.029L1179.36,354.829Z" style="fill:#fff;fill-rule:nonzero;"/>
    <path d="M329.617,481.682L185.113,320.799C192.979,321.365 199.633,321.703 206.817,322.14C256.904,321.911 318.083,290.27 318.404,211.032C318.404,116.453 239.275,92.249 169.388,92.053L0.696,91.528L0,481.049L76.229,481.545L76.479,307.24L232.633,481.545L329.617,481.682ZM76.479,159.049L168.854,159.011C210.979,159.415 247.779,172.561 247.721,212.086C247.613,252.115 224.479,266.961 168.079,267.307L77.112,266.711L76.479,159.049Z" style="fill:#fff;fill-rule:nonzero;"/>
</svg>
