<?xml version="1.0" encoding="UTF-8"?>
<svg width="160px" height="100px" viewBox="0 0 160 100" version="1.1" xmlns="http://www.w3.org/2000/svg" xmlns:xlink="http://www.w3.org/1999/xlink">
    <!-- Generator: Sketch 49 (51002) - http://www.bohemiancoding.com/sketch -->
    <title>Discovery</title>
    <desc>Created with Sketch.</desc>
    <defs>
        <rect id="path-1" x="0" y="0" width="160" height="100"></rect>
        <path d="M0.119491121,12.4567766 C0.119491121,19.592674 5.77282693,24.9254579 13.3197456,24.9254579 C20.6747755,24.9254579 26.482044,19.5221612 26.482044,12.5937729 C26.482044,5.71172161 20.7127315,0.304395604 13.3197456,0.304395604 C6.03219295,0.304395604 0.119491121,5.74194139 0.119491121,12.4567766" id="path-3"></path>
        <polygon id="path-5" points="0 25 155.4488 25 155.4488 0.213736264 0 0.213736264"></polygon>
        <radialGradient cx="50%" cy="50%" fx="50%" fy="50%" r="50%" id="radialGradient-7">
            <stop stop-color="#FFE9D6" offset="0%"></stop>
            <stop stop-color="#FFE0C6" offset="36.6111288%"></stop>
            <stop stop-color="#FFCB9F" offset="63.3559754%"></stop>
            <stop stop-color="#F3994B" offset="100%"></stop>
        </radialGradient>
    </defs>
    <g id="Discovery" stroke="none" stroke-width="1" fill="none" fill-rule="evenodd">
        <g>
            <mask id="mask-2" fill="white">
                <use xlink:href="#path-1"></use>
            </mask>
            <rect stroke="#EBEBEB" x="-0.5" y="-0.5" width="161" height="101"></rect>
            <rect id="BG" fill="#FFFFFF" mask="url(#mask-2)" x="0" y="0" width="160" height="100"></rect>
        </g>
        <path d="M160,100.401761 C159.999108,100.401761 159.999108,86.2678409 160,58 C149.47005,64.6747845 109.771583,87.6881872 45,100.401761 L160,100.401761 Z" id="Page-1" fill="#F58220"></path>
        <g id="Group" transform="translate(3.000000, 34.000000)">
            <g id="Page-1">
                <g id="Group-3" transform="translate(68.448980, 0.000000)">
                    <mask id="mask-4" fill="white">
                        <use xlink:href="#path-3"></use>
                    </mask>
                    <g id="Clip-2"></g>
                    <path d="M0.119491121,12.4567766 C0.119491121,19.592674 5.77282693,24.9254579 13.3197456,24.9254579 C20.6747755,24.9254579 26.482044,19.5221612 26.482044,12.5937729 C26.482044,5.71172161 20.7127315,0.304395604 13.3197456,0.304395604 C6.03219295,0.304395604 0.119491121,5.74194139 0.119491121,12.4567766" id="Fill-1" mask="url(#mask-4)"></path>
                </g>
                <g id="Group-15">
                    <path d="M12.56528,18.5075824 C11.05936,19.8211355 9.12288,20.3892674 6.04448,20.3892674 L4.76528,20.3892674 L4.76528,4.75153846 L6.04448,4.75153846 C9.12288,4.75153846 10.98448,5.28340659 12.56528,6.66344322 C14.21264,8.08377289 15.19232,10.2797436 15.19232,12.5462271 C15.19232,14.8207692 14.21264,17.0953114 12.56528,18.5075824 M6.99712,0.746410256 L0,0.746410256 L0,24.3943956 L6.96384,24.3943956 C10.65792,24.3943956 13.32864,23.5442125 15.6728,21.6665568 C18.45168,19.4282784 20.1032,16.0597802 20.1032,12.5824908 C20.1032,5.60172161 14.716,0.746410256 6.99712,0.746410256" id="Fill-4" fill="#001722"></path>
                    <mask id="mask-6" fill="white">
                        <use xlink:href="#path-5"></use>
                    </mask>
                    <g id="Clip-7"></g>
                    <polygon id="Fill-6" fill="#001722" mask="url(#mask-6)" points="22.29968 24.3935897 27.05872 24.3935897 27.05872 0.745604396 22.29968 0.745604396"></polygon>
                    <path d="M38.703392,9.81556777 C35.843392,8.79212454 35.005152,8.11520147 35.005152,6.83992674 C35.005152,5.35311355 36.496512,4.22087912 38.553632,4.22087912 C39.980512,4.22087912 41.153632,4.78699634 42.399552,6.12875458 L44.887232,2.97985348 C42.836352,1.23717949 40.384032,0.352747253 37.709152,0.352747253 C33.393152,0.352747253 30.096352,3.25989011 30.096352,7.12399267 C30.096352,10.3897436 31.635552,12.0538462 36.101312,13.6131868 C37.967072,14.2498168 38.919712,14.6749084 39.396032,14.9630037 C40.348672,15.5673993 40.827072,16.4135531 40.827072,17.4067766 C40.827072,19.3267399 39.250432,20.739011 37.122592,20.739011 C34.853312,20.739011 33.024992,19.6450549 31.926752,17.5860806 L28.856672,20.4630037 C31.046912,23.5796703 33.684352,24.9657509 37.311872,24.9657509 C42.253952,24.9657509 45.729632,21.7705128 45.729632,17.1972527 C45.729632,13.4399267 44.121792,11.7355311 38.703392,9.81556777" id="Fill-8" fill="#001722" mask="url(#mask-6)"></path>
                    <path d="M47.228688,12.581685 C47.228688,19.5382784 52.869648,24.9254579 60.116368,24.9254579 C62.169328,24.9254579 63.924848,24.53663 66.088048,23.5434066 L66.088048,18.1179487 C64.178608,19.96337 62.495888,20.7027473 60.334768,20.7027473 C55.540368,20.7027473 52.133328,17.3342491 52.133328,12.5454212 C52.133328,8.01245421 55.646448,4.42838828 60.116368,4.42838828 C62.383568,4.42838828 64.105808,5.21208791 66.088048,7.08772894 L66.088048,1.66227106 C64.001808,0.634798535 62.275408,0.213736264 60.228688,0.213736264 C53.013168,0.213736264 47.228688,5.71172161 47.228688,12.581685" id="Fill-9" fill="#001722" mask="url(#mask-6)"></path>
                    <polygon id="Fill-10" fill="#001722" mask="url(#mask-6)" points="104.670384 16.6307326 98.151664 0.745201465 92.953744 0.745201465 103.318384 24.9995971 105.878864 24.9995971 116.424464 0.745201465 111.263984 0.745201465"></polygon>
                    <polygon id="Fill-11" fill="#001722" mask="url(#mask-6)" points="118.587456 24.3941941 132.094976 24.3941941 132.094976 20.3890659 123.346496 20.3890659 123.346496 14.002619 131.762176 14.002619 131.762176 9.99950549 123.346496 9.99950549 123.346496 4.751337 132.094976 4.751337 132.094976 0.746208791 118.587456 0.746208791"></polygon>
                    <path d="M141.387168,11.6295604 L139.999808,11.6295604 L139.999808,4.46344322 L141.464128,4.46344322 C144.434368,4.46344322 146.046368,5.67626374 146.046368,7.97498168 C146.046368,10.3502564 144.434368,11.6295604 141.387168,11.6295604 M150.944768,7.72717949 C150.944768,3.29494505 147.797728,0.746410256 142.304448,0.746410256 L135.238688,0.746410256 L135.238688,24.3943956 L139.999808,24.3943956 L139.999808,14.8912821 L140.623808,14.8912821 L147.211168,24.3943956 L153.068448,24.3943956 L145.376608,14.4319414 C148.968768,13.7227839 150.944768,11.3454945 150.944768,7.72717949" id="Fill-12" fill="#001722" mask="url(#mask-6)"></path>
                    <path d="M153.40416,2.79188645 L153.30848,2.79188645 L153.30848,2.25195971 L153.4104,2.25195971 C153.66208,2.25195971 153.79104,2.33858974 153.79104,2.51587912 C153.79104,2.6971978 153.65584,2.79188645 153.40416,2.79188645 M154.3048,2.50782051 C154.3048,2.09481685 154.01776,1.86716117 153.49152,1.86716117 L152.79888,1.86716117 L152.79888,3.95232601 L153.30848,3.95232601 L153.30848,3.1424359 L153.9096,3.95232601 L154.55024,3.95232601 L153.83264,3.09005495 C154.13424,3.01148352 154.3048,2.79994505 154.3048,2.50782051" id="Fill-13" fill="#231F20" mask="url(#mask-6)"></path>
                    <path d="M153.590944,4.39716117 C152.761024,4.39716117 152.087104,3.73635531 152.087104,2.91034799 C152.087104,2.07628205 152.756864,1.41547619 153.590944,1.41547619 C154.404224,1.41547619 155.069824,2.08836996 155.069824,2.91034799 C155.069824,3.7282967 154.404224,4.39716117 153.590944,4.39716117 M153.593024,1.08305861 C152.550944,1.08305861 151.718944,1.89496337 151.718944,2.90631868 C151.718944,3.91364469 152.555104,4.7235348 153.593024,4.7235348 C154.614304,4.7235348 155.450464,3.90558608 155.450464,2.90631868 C155.450464,1.90705128 154.614304,1.08305861 153.593024,1.08305861" id="Fill-14" fill="#231F20" mask="url(#mask-6)"></path>
                </g>
            </g>
            <circle id="Oval" fill="url(#radialGradient-7)" cx="81.5" cy="12.5" r="12.5"></circle>
        </g>
    </g>
</svg>