<!-- Generated by IcoMoon.io -->
<svg version="1.1" xmlns="http://www.w3.org/2000/svg" width="1506" height="1024" viewBox="0 0 1506 1024">
<title></title>
<g id="icomoon-ignore">
</g>
<path d="M1464 736q-6 0-12-3t-10-7-7-10-3-12q0-8 3-13t7-10 10-7 12-2 12 2 10 7 7 10 3 13q0 6-3 12t-7 10-10 7-12 3v0zM1464 676q-6 0-11 2t-8 6-5 9-2 11 2 10 5 8 8 6 11 2 11-2 8-6 5-8 2-10-2-11-5-9-8-6-11-2v0zM1472 720l-8-14h-6v14h-4v-34h12q2 0 4 1t3 2 2 3 1 4v4t-1 3-3 2l-2 1 8 14h-6zM1472 696l-1-2t-2-2-2-1l-1-1h-8v12h9t2-1l2-2t1-3v0zM1496 842h-64q0-6-2-12t-6-11-12-9-22-4q-10 0-18 1t-13 4-9 7-4 12q0 10 9 15t23 8 31 6 31 7q16 4 28 10t20 15 13 20 5 25q0 24-9 40t-25 27-37 16-45 5q-26 0-47-7t-36-18-23-28-10-35h68q0 6 2 13t8 13 16 10 28 4q10 0 18-3t13-7 8-9 3-11q-2-8-6-12t-12-7-17-4-19-3l-20-4t-18-4l-16-4t-14-6q-8-4-14-11t-11-15-8-17-3-19q0-18 8-33t21-26 33-18 44-7 44 6 34 18 22 27 10 35v0zM678 130l222-130 386 672h-298l-310-542zM958 672v346h-62v-18q-8 6-17 10t-19 7-20 5-22 2q-26 0-50-11t-42-29-29-42-11-52 11-52 29-42 42-29 50-11q12 0 22 2t20 5 18 7 18 10v-108h-236v64h-62v-64l-176-306 224-130 250 436h62zM820 816q-14 0-27 6t-23 16-16 23-6 29q0 14 6 28t16 24 23 16 27 6q16 0 29-6t24-16 17-24 6-28q0-16-6-29t-17-23-24-16-29-6v0zM566 1018h-64v-18q-8 6-17 10t-18 7-19 5-20 2q-28 0-53-11t-43-29-28-42-10-52 10-52 28-42 43-29 53-11q10 0 20 2t19 5 18 7 17 10v-108h64v346zM428 816q-14 0-28 6t-24 16-16 23-6 29q0 14 6 28t16 24 24 16 28 6q16 0 29-6t23-16 16-24 6-28q0-16-6-29t-16-23-23-16-29-6v0zM206 672l-44-76 222-130 118 206h-296zM208 760h64v258h-64v-18q-8 6-16 10t-18 7-20 5-22 2q-26 0-50-11t-42-29-29-42-11-52 11-52 29-42 42-29 50-11q12 0 22 2t19 5 18 7 17 10v-20zM134 816q-14 0-28 6t-24 16-16 23-6 29q0 14 6 28t16 24 24 16 28 6q16 0 29-6t24-16 16-24 5-28q0-16-5-29t-16-23-24-16-29-6v0zM660 1018h-62v-258h62v258zM1112 756q10 0 20 2t20 5 19 7 15 10v-20h64v258h-64v-18q-6 6-15 10t-19 7-20 5-20 2q-28 0-52-11t-42-29-29-42-11-52 11-52 29-42 42-29 52-11v0zM1114 964q16 0 29-6t23-16 15-24 5-28q0-16-5-29t-15-23-23-16-29-6q-14 0-28 6t-24 16-16 23-6 29q0 14 6 28t16 24 24 16 28 6v0z"></path>
</svg>
