<svg id="artwork" xmlns="http://www.w3.org/2000/svg" xmlns:xlink="http://www.w3.org/1999/xlink" viewBox="0 0 135 40.0002">
  <defs>
    <linearGradient id="linear-gradient" x1="21.79964" y1="173.29039" x2="5.01723" y2="156.50798" gradientTransform="matrix(1, 0, 0, -1, 0, 182.0002)" gradientUnits="userSpaceOnUse">
      <stop offset="0" stop-color="#00a0ff"/>
      <stop offset="0.00657" stop-color="#00a1ff"/>
      <stop offset="0.2601" stop-color="#00beff"/>
      <stop offset="0.5122" stop-color="#00d2ff"/>
      <stop offset="0.7604" stop-color="#00dfff"/>
      <stop offset="1" stop-color="#00e3ff"/>
    </linearGradient>
    <linearGradient id="linear-gradient-2" x1="33.83428" y1="161.99865" x2="9.63738" y2="161.99865" gradientTransform="matrix(1, 0, 0, -1, 0, 182.0002)" gradientUnits="userSpaceOnUse">
      <stop offset="0" stop-color="#ffe000"/>
      <stop offset="0.4087" stop-color="#ffbd00"/>
      <stop offset="0.7754" stop-color="orange"/>
      <stop offset="1" stop-color="#ff9c00"/>
    </linearGradient>
    <linearGradient id="linear-gradient-3" x1="24.82685" y1="159.704" x2="2.06857" y2="136.94572" gradientTransform="matrix(1, 0, 0, -1, 0, 182.0002)" gradientUnits="userSpaceOnUse">
      <stop offset="0" stop-color="#ff3a44"/>
      <stop offset="1" stop-color="#c31162"/>
    </linearGradient>
    <linearGradient id="linear-gradient-4" x1="7.29723" y1="181.82392" x2="17.45975" y2="171.6614" gradientTransform="matrix(1, 0, 0, -1, 0, 182.0002)" gradientUnits="userSpaceOnUse">
      <stop offset="0" stop-color="#32a071"/>
      <stop offset="0.0685" stop-color="#2da771"/>
      <stop offset="0.4762" stop-color="#15cf74"/>
      <stop offset="0.8009" stop-color="#06e775"/>
      <stop offset="1" stop-color="#00f076"/>
    </linearGradient>
  </defs>
  <title>img_google-play-store-cta</title>
  <g>
    <rect width="135" height="40" rx="5" ry="5"/>
    <path d="M130,.8a4.20476,4.20476,0,0,1,4.1999,4.2002v30A4.20483,4.20483,0,0,1,130,39.2004H5A4.20485,4.20485,0,0,1,.8,35.0002v-30A4.20478,4.20478,0,0,1,5,.8H130m0-.7998H5a5.0147,5.0147,0,0,0-5,5v30a5.0147,5.0147,0,0,0,5,5H130a5.0147,5.0147,0,0,0,5-5v-30a5.0147,5.0147,0,0,0-5-5Z" style="fill: #a6a6a6"/>
    <g>
      <path d="M47.4184,10.2433a2.70754,2.70754,0,0,1-.7452,2.0029,2.90882,2.90882,0,0,1-2.2041.8877,3.08975,3.08975,0,0,1-3.1171-3.1338,3.09058,3.09058,0,0,1,3.1171-3.1343,3.09506,3.09506,0,0,1,1.2315.2515,2.475,2.475,0,0,1,.9385.6704l-.5274.5278a2.02625,2.02625,0,0,0-1.6426-.7119,2.31929,2.31929,0,0,0-2.33,2.3965,2.35911,2.35911,0,0,0,4.0058,1.7266,1.88816,1.88816,0,0,0,.5029-1.2154H44.4691V9.7906h2.9073A2.54293,2.54293,0,0,1,47.4184,10.2433Z" style="fill: #fff;stroke: #fff;stroke-miterlimit: 10;stroke-width: 0.2px"/>
      <path d="M52.0277,7.7374H49.2953V9.6397h2.4639v.7208H49.2953v1.9023h2.7324v.7373H48.5248v-6h3.5029Z" style="fill: #fff;stroke: #fff;stroke-miterlimit: 10;stroke-width: 0.2px"/>
      <path d="M55.2787,13.0001h-.7715V7.7374H52.8314V7.0001h4.1231v.7373H55.2787Z" style="fill: #fff;stroke: #fff;stroke-miterlimit: 10;stroke-width: 0.2px"/>
      <path d="M59.9379,13.0001v-6h.7705v6Z" style="fill: #fff;stroke: #fff;stroke-miterlimit: 10;stroke-width: 0.2px"/>
      <path d="M64.1283,13.0001h-.7715V7.7374H61.6811V7.0001h4.123v.7373H64.1283Z" style="fill: #fff;stroke: #fff;stroke-miterlimit: 10;stroke-width: 0.2px"/>
      <path d="M73.6093,12.2247a3.11555,3.11555,0,0,1-4.3994,0,3.06732,3.06732,0,0,1-.8838-2.2246,3.06732,3.06732,0,0,1,.8838-2.2246,3.10493,3.10493,0,0,1,4.3955.0039,3.06771,3.06771,0,0,1,.8877,2.2207A3.07178,3.07178,0,0,1,73.6093,12.2247Zm-3.8301-.5024a2.307,2.307,0,0,0,3.2598,0,2.34837,2.34837,0,0,0,.667-1.7222,2.34837,2.34837,0,0,0-.667-1.7222,2.307,2.307,0,0,0-3.2598,0,2.35121,2.35121,0,0,0-.666,1.7222A2.35121,2.35121,0,0,0,69.7792,11.7223Z" style="fill: #fff;stroke: #fff;stroke-miterlimit: 10;stroke-width: 0.2px"/>
      <path d="M75.5751,13.0001v-6h.9385l2.916,4.6675h.0332l-.0332-1.1563V7.0001h.7715v6h-.8047L76.3456,8.1065h-.0332l.0332,1.1563v3.7373Z" style="fill: #fff;stroke: #fff;stroke-miterlimit: 10;stroke-width: 0.2px"/>
    </g>
    <path d="M68.1358,21.7517a4.25318,4.25318,0,1,0,4.2693,4.2531A4.19222,4.19222,0,0,0,68.1358,21.7517Zm0,6.8308a2.58419,2.58419,0,1,1,2.4004-2.5777A2.4606,2.4606,0,0,1,68.1358,28.5825Zm-9.3134-6.8308a4.25318,4.25318,0,1,0,4.2692,4.2531A4.19222,4.19222,0,0,0,58.8224,21.7517Zm0,6.8308a2.58419,2.58419,0,1,1,2.4004-2.5777A2.46054,2.46054,0,0,1,58.8224,28.5825ZM47.7436,23.0567V24.861h4.3177a3.76579,3.76579,0,0,1-.9828,2.2716,4.42019,4.42019,0,0,1-3.3349,1.321,4.80134,4.80134,0,0,1,0-9.6018,4.60187,4.60187,0,0,1,3.2544,1.2888l1.2727-1.2727a6.29436,6.29436,0,0,0-4.5271-1.8205,6.606,6.606,0,1,0,0,13.2106,6.03873,6.03873,0,0,0,4.6076-1.8527,5.962,5.962,0,0,0,1.5628-4.2209,5.87161,5.87161,0,0,0-.0968-1.1277Zm45.3083,1.4015a3.95285,3.95285,0,0,0-3.641-2.7065,4.042,4.042,0,0,0-4.0114,4.2531,4.162,4.162,0,0,0,4.2209,4.2532,4.23056,4.23056,0,0,0,3.5442-1.8849l-1.4499-.9666a2.42905,2.42905,0,0,1-2.0943,1.176,2.16354,2.16354,0,0,1-2.0622-1.2888l5.6871-2.3521ZM87.2522,25.876a2.33271,2.33271,0,0,1,2.2231-2.481,1.647,1.647,0,0,1,1.5789.9022Zm-4.6238,4.1242h1.8688V17.4986H82.6284Zm-3.061-7.298H79.503a2.94736,2.94736,0,0,0-2.2394-.9505,4.257,4.257,0,0,0,0,8.5063,2.89974,2.89974,0,0,0,2.2394-.9666h.0644v.6122c0,1.6272-.8699,2.4971-2.2716,2.4971a2.35325,2.35325,0,0,1-2.1426-1.5144l-1.6272.6767a4.05319,4.05319,0,0,0,3.7698,2.5132c2.1911,0,4.0438-1.2888,4.0438-4.4304V22.0094H79.5674Zm-2.1426,5.8803a2.5869,2.5869,0,0,1,0-5.1553,2.39672,2.39672,0,0,1,2.2715,2.5937A2.37677,2.37677,0,0,1,77.4248,28.5825Zm24.381-11.0837H97.3346V30.0002h1.8657V25.2638h2.6055a3.88833,3.88833,0,1,0,0-7.765Zm.0482,6.0252H99.2003V19.2387h2.6537a2.14311,2.14311,0,1,1,0,4.2853Zm11.5317-1.7953a3.50342,3.50342,0,0,0-3.3293,1.9139l1.6566.6916a1.76794,1.76794,0,0,1,1.7048-.9168,1.79665,1.79665,0,0,1,1.9622,1.6083v.1287a4.12778,4.12778,0,0,0-1.9461-.4825c-1.7852,0-3.6026.9811-3.6026,2.8146a2.888,2.888,0,0,0,3.104,2.7502,2.63235,2.63235,0,0,0,2.3804-1.2223h.0643v.965h1.8013V25.1866C117.1813,22.9671,115.5247,21.7287,113.3857,21.7287Zm-.2252,6.8514c-.6112,0-1.4636-.3055-1.4636-1.0615,0-.9649,1.0615-1.3349,1.9783-1.3349a3.32432,3.32432,0,0,1,1.7048.4182A2.26194,2.26194,0,0,1,113.1605,28.5801Zm10.5828-6.578-2.1391,5.42h-.0644l-2.2194-5.42H117.31l3.3292,7.5752-1.8978,4.2138h1.946l5.1306-11.789Zm-16.807,7.9981h1.8656V17.4988h-1.8656Z" style="fill: #fff"/>
    <g>
      <path d="M10.4353,7.5381A2.00244,2.00244,0,0,0,9.9725,8.943V31.0591a2.00157,2.00157,0,0,0,.4628,1.4049l.074.0721,12.389-12.3889v-.2923L10.5093,7.4655Z" style="fill: url(#linear-gradient)"/>
      <path d="M27.0277,24.2786l-4.1294-4.1314v-.2923l4.1304-4.1304.0931.0531,4.8928,2.7801c1.3976.794,1.3976,2.0932,0,2.8877l-4.8928,2.7801Z" style="fill: url(#linear-gradient-2)"/>
      <path d="M27.1218,24.225l-4.2235-4.2239L10.4353,32.464a1.62671,1.62671,0,0,0,2.0781.0614L27.1218,24.225" style="fill: url(#linear-gradient-3)"/>
      <path d="M27.1218,15.7771,12.5134,7.4767a1.62671,1.62671,0,0,0-2.0781.0614l12.463,12.463Z" style="fill: url(#linear-gradient-4)"/>
      <g>
        <path d="M27.0287,24.132,12.5134,32.3793a1.66561,1.66561,0,0,1-2.0036.0107h0l-.0745.0745h0l.074.0721.0005-.0005a1.66486,1.66486,0,0,0,2.0036-.0107L27.1218,24.225Z" style="opacity: 0.2;isolation: isolate"/>
        <path d="M10.4353,32.3184a2.00279,2.00279,0,0,1-.4628-1.4049v.1461a2.00261,2.00261,0,0,0,.4628,1.4049l.0745-.0745Z" style="opacity: 0.12;isolation: isolate"/>
      </g>
      <path d="M32.0146,21.2988,27.0287,24.132l.0931.093,4.8928-2.7801a1.7548,1.7548,0,0,0,1.0483-1.4434h0A1.86229,1.86229,0,0,1,32.0146,21.2988Z" style="opacity: 0.12;isolation: isolate"/>
      <path d="M12.5134,7.6233l19.5012,11.08a1.86129,1.86129,0,0,1,1.0483,1.2978h0a1.75365,1.75365,0,0,0-1.0483-1.4439L12.5134,7.4772c-1.3976-.7941-2.5409-.1345-2.5409,1.4663v.1461C9.9725,7.4889,11.1158,6.8293,12.5134,7.6233Z" style="fill: #fff;opacity: 0.25;isolation: isolate"/>
    </g>
  </g>
</svg>
