<svg xmlns="http://www.w3.org/2000/svg" width="29" height="32"><path d="M28.384 10.624a1.675 1.675 0 0 0-.793-.287l-.007-.001h-.416l-4.48.352-1.792-3.104a.805.805 0 0 0-.379-.318l-.005-.002-5.088-1.984a1.207 1.207 0 0 0-.359.001l.007-.001-7.616.928-2.912 6.528a1.636 1.636 0 0 0 .004 1.259l-.004-.011c.159.432.479.773.885.956l.011.004a1.73 1.73 0 0 0 2.236-.759l.005-.009 2.496-4.352 2.624-.192-2.752 6.496a2.914 2.914 0 0 0 1.58 3.865l.02.007 1.312.544-3.072 4.544-8.064 2.656a.257.257 0 0 1-.352-.094l-.001-.001a.223.223 0 0 1 .064-.287h.001l6.688-3.072 1.696-4.096-1.44-.544-1.376 3.616-6.176 2.816a1.635 1.635 0 0 0-.732 2.28l-.004-.008c.226.356.572.619.98.733l.012.003c.141.041.304.064.472.064h.042-.002.02c.246 0 .481-.047.696-.133l-.013.004 8.256-2.688a.731.731 0 0 0 .417-.161l-.001.001 3.328-4.992 4.064 1.632-2.688 6.976a1.627 1.627 0 0 0 .004 1.291l-.004-.011c.187.417.528.737.948.892l.012.004a1.727 1.727 0 0 0 2.171-.885l.004-.011 4.96-9.44a2.111 2.111 0 0 0-1.074-2.907l-.014-.005-5.312-2.24 2.88-6.912 1.472 2.624 5.536-.416a.192.192 0 0 1 .224.189v.012a.224.224 0 0 1-.159.214h-.002l-6.272 1.344-.64-.864-1.184.896 1.216 1.6 7.168-1.472a1.697 1.697 0 0 0 1.053-.636l.003-.004a1.618 1.618 0 0 0 .286-1.258l.002.01a1.665 1.665 0 0 0-.668-1.181l-.005-.003zm-12.64 5.952a.943.943 0 0 0 .001.519l-.002-.007c.076.2.224.358.411.446l.005.002 6.08 2.496a.68.68 0 0 1 .351.379l.002.005a.664.664 0 0 1-.001.516l.002-.004-4.96 9.504a.225.225 0 0 1-.321.095l.001.001a.226.226 0 0 1-.128-.257v.002l3.2-8.32-5.984-2.432-2.144-.832a1.475 1.475 0 0 1-.828-2.025l-.004.009 3.136-7.52a.736.736 0 0 0-.412-.926l-.005-.002a.725.725 0 0 0-.325.001l.005-.001-4.512.16-3.008 5.024a.226.226 0 0 1-.289.096l.001.001a.224.224 0 0 1-.192-.222v-.002l2.624-5.824 6.528-.8L19.2 8.29zm3.04-10.56c.233.081.501.129.78.129l.054-.001h-.003a3.59 3.59 0 0 0 3.064-2.375l.008-.025c.113-.285.178-.616.178-.962 0-.43-.101-.837-.281-1.198l.007.016A2.798 2.798 0 0 0 21.01.166L20.991.16a2.86 2.86 0 0 0-1.009-.18c-.422 0-.824.09-1.186.252l.018-.007a2.798 2.798 0 0 0-1.434 1.549l-.006.019a3.167 3.167 0 0 0 1.39 4.215l.018.008zm0-3.712c.129-.332.38-.593.696-.733l.008-.003c.15-.073.324-.119.509-.128H20c.174.005.338.04.49.099l-.01-.003c.325.125.584.363.733.664l.003.008a1.272 1.272 0 0 1-.003 1.032l.003-.008c-.288.768-1.152 1.696-1.984 1.44s-.8-1.6-.48-2.368z"/></svg>