<svg xmlns="http://www.w3.org/2000/svg" width="40" height="32"><path d="M31.744 6.56c1.024 0 1.952.864 1.952 1.856 0 1.024-.864 1.952-1.856 1.952-1.024 0-1.952-.864-1.952-1.856a1.859 1.859 0 0 1 1.856-1.952m0-.992c-1.6 0-2.944 1.248-2.944 2.848s1.28 2.944 2.88 2.944c1.6 0 2.944-1.248 2.944-2.848 0-1.6-1.28-2.944-2.88-2.944zm-15.84 24.416H2.112l11.872-18.688 5.792 12.192 6.336-5.792.992 1.088.768-.768-1.696-1.856-6.048 5.568-5.984-12.64-12.128 19.04V2.016H38.4v5.312l2.016-2.016V0H0v32h13.888l2.016-2.016zm21.472 0h-9.152L26.176 32h14.24V17.696L38.4 19.712v10.272"/></svg>