<svg xmlns="http://www.w3.org/2000/svg" width="32" height="32"><path d="M24.16 11.84L10.592 25.344 4 27.136l1.856-6.592L19.36 7.04zM20 10.24l-.8-.8L8.256 20.416l.8.8zm-3.296 11.104L14.816 23.2H28v-1.856zm3.776-3.776l-1.888 1.888H28v-1.952zm5.792-8c.041-.109.065-.234.065-.365l-.001-.053v.002l.001-.051a1.05 1.05 0 0 0-.068-.373l.002.007a1.033 1.033 0 0 0-.256-.384l-3.136-3.168a.924.924 0 0 0-.409-.254l-.007-.002a1.124 1.124 0 0 0-.423.002l.007-.001a1.124 1.124 0 0 0-.423.001l.007-.001a.708.708 0 0 0-.351.254l-.001.002-1.12 1.056 4.736 4.8 1.12-1.12c.11-.105.197-.233.253-.377l.003-.007zm-2.016 4.192l-1.92 1.888H28V13.76z"/></svg>