<svg xmlns="http://www.w3.org/2000/svg" width="32" height="32"><path d="M22.464 9.376l-1.696.448.896-1.568c-.608-.672-1.376-1.184-2.112-1.664-.32-.224-.736-.448-1.152-.608s-.768-.32-1.12-.48c-1.408-.352-2.624-.48-3.84-.352s-2.24.48-3.36.96C8.096 7.136 6.336 8.8 5.376 10.848s-1.504 4.512-.896 7.04c.384 2.656 1.824 5.056 3.68 6.784s4.384 2.944 7.136 3.2c.384.032.832.064 1.248.064.832 0 1.696-.032 2.56-.16.384-.064.832-.16 1.248-.288.48-.128.832-.256.96-.416s.192-.352.096-.704l.064-4.608-5.632.128 2.944-1.568h7.68l-1.184 1.44-.064 5.248h.064l-.064.48c-2.592 1.344-6.176 2.176-9.696 2.272s-7.072-.608-9.472-2.272c-1.664-.992-3.104-2.464-4.256-4.32s-1.824-4.128-1.824-6.72c.16-2.368.864-4.64 2.336-6.592S5.6 6.272 7.84 5.184c2.496-1.248 5.792-1.76 8.896-1.504s6.208 1.312 8.352 3.072l-2.56 2.624h-.064zM32 6.496h-2.496v2.496H28V6.496h-2.496V4.992H28V2.496h1.504v2.496H32v1.504z"/></svg>