<svg xmlns="http://www.w3.org/2000/svg" width="32" height="32"><path d="M12 32v-6.016l6.016-.064V32H12zM9.12 2.688c.928-.832 1.984-1.408 3.136-1.824s2.496-.512 4-.608l1.472.096c.96.032 1.792.32 2.656.608s1.6.8 2.24 1.312 1.248 1.024 1.76 1.76.896 1.408 1.248 2.144.512 1.696.608 2.464c.032.416.064.864.064 1.344 0 1.184-.16 2.464-.512 3.456s-.928 2.048-1.664 2.816c-.736.992-1.632 1.536-2.592 2.144s-2.272.864-3.52 1.216V24H12v-8.704c1.248.096 3.008-.064 4-.192.512-.064.96-.192 1.408-.352s.832-.32 1.216-.448c.768-.384 1.344-.864 1.728-1.632s.512-1.504.512-2.688c0-.576-.064-1.312-.288-1.824s-.608-1.12-1.024-1.472c-.384-.512-.96-.768-1.536-.992-.288-.128-.608-.192-.928-.224s-.64-.064-1.024-.096c-1.248.096-2.304.288-3.104.928s-1.312 1.504-1.632 2.752l-5.504-.064c.16-1.152.544-2.496 1.088-3.488s1.312-2.08 2.208-2.816z"/></svg>