<svg xmlns="http://www.w3.org/2000/svg" width="32" height="32"><path d="M21.6 27.072a10.506 10.506 0 0 1-2.512-1.083l.048.027c-.896-.544-1.856-1.12-2.784-1.792s-1.824-1.344-2.656-2.08a27.158 27.158 0 0 1-2.086-1.83l.006.006A26.516 26.516 0 0 1 9.8 18.291l-.04-.051c-.704-.832-1.344-1.728-2.016-2.656a31.056 31.056 0 0 1-1.678-2.568l-.082-.152a11.452 11.452 0 0 1-1.034-2.349l-.022-.083L4.096 8a1.874 1.874 0 0 1-.093-.243L4 7.744a2.11 2.11 0 0 1 .001-.295v.007-.32c0-.096 0-.192.064-.32.058-.213.123-.394.202-.568l-.01.024c.094-.17.2-.317.322-.45l-.002.002.224-.192.16-.096.384-.192.224-.128 3.328-1.12A2.423 2.423 0 0 1 9.735 4h-.007c.295.02.568.1.811.229l-.011-.005c.251.132.464.304.637.509l.003.003c.189.221.35.474.472.748l.008.02L12.736 8.8a2.192 2.192 0 0 1 .095.938l.001-.01a1.778 1.778 0 0 1-.197.81l.005-.01a1.899 1.899 0 0 1-.508.637l-.004.003a2.59 2.59 0 0 1-.782.474l-.018.006-.544.192.608 1.024c.224.384.512.8.768 1.216s.672.896 1.12 1.344.896 1.024 1.44 1.6.896.704 1.184.96c.196.157.364.336.506.536l.006.008c.125.175.273.323.442.444l.006.004.992.736 1.28.864 1.024.608.224-.544a1.95 1.95 0 0 1 .418-.802l-.002.002c.196-.21.429-.382.69-.506l.014-.006c.232-.124.505-.204.794-.224h.006a1.625 1.625 0 0 1 .875.133l-.01-.004 3.328 1.088c.298.099.554.252.77.449l-.002-.001c.201.192.372.413.505.658l.007.014c.131.231.212.505.224.797v.003l.002.091c0 .277-.048.543-.135.79l.005-.017-1.056 3.328-.128.288a.743.743 0 0 1-.159.191l-.001.001-.32.448a3.89 3.89 0 0 1-.49.309l-.022.011c-.138.065-.308.13-.483.184l-.029.008a1.818 1.818 0 0 1-.619-.002l.011.002h-.576z"/></svg>