<svg xmlns="http://www.w3.org/2000/svg" width="32" height="32"><path d="M.8 13.76c0 1.632.704 2.816 1.728 3.776s2.464 1.44 3.968 1.76c-.16 0-.32.064-.416.16-.192.224-.544.256-1.184.352a4.196 4.196 0 0 1-1.216-.064c.416 1.408 1.184 2.208 2.24 2.848s2.368.736 3.776.832c-1.152.864-2.4 1.536-3.776 1.888s-2.848.544-4.352.448c-.128.032-.256.064-.416.032s-.288-.032-.416 0-.224 0-.352-.032-.256-.032-.384 0c.736.384 1.472.864 2.24 1.344 1.6.96 3.264 1.6 5.024 2.048.864.224 1.76.32 2.688.288 5.984.096 10.368-2.272 13.344-5.664s4.384-7.936 4.384-12.288v-.928c.608-.416 1.44-1.024 2.208-1.632s1.472-1.344 1.856-1.92c-.576.16-1.216.256-1.856.192-.352-.032-.672-.064-1.024-.064h-.928c.672-.352 1.344-.928 1.984-1.536s1.056-1.568 1.152-2.72c-.288.16-.64.384-.992.576s-.768.448-1.152.608-.736.352-1.152.544-.768.288-1.152.32c-.576-.576-1.312-1.28-2.08-1.664s-1.664-.736-2.656-.64c-1.76-.096-3.264.864-4.288 2.144s-1.664 3.168-1.664 4.928v.736l.032.32.096.384c-2.752-.256-5.504-.704-8-1.728S3.36 6.976 1.76 4.864c-.352.608-.544 1.056-.704 1.632S.864 7.552.864 8.32c0 1.088.416 2.272 1.088 3.168s1.504 1.824 2.368 2.336c-.512.096-.8.128-1.152.256-.192.064-.48.064-.832 0s-.864-.16-1.536-.256v-.064z"/></svg>