<svg xmlns="http://www.w3.org/2000/svg" width="32" height="32"><path d="M23.264 20.352H0v1.472h23.264a4.351 4.351 0 1 1 0 8.704 4.351 4.351 0 0 1-4.352-4.352 4.335 4.335 0 0 1 .266-1.47l-.01.03h-1.44a5.824 5.824 0 1 0 5.53-4.384h.006zM18.912 5.824a5.825 5.825 0 0 0-11.648 0c.015.519.096 1.012.234 1.481l-.01-.041h1.44a4.277 4.277 0 0 1-.192-1.448v.008a4.351 4.351 0 1 1 8.704 0 4.351 4.351 0 0 1-4.352 4.352H0v1.472h13.088a5.824 5.824 0 0 0 5.824-5.824zm7.264 0a5.825 5.825 0 0 0-5.591 7.305l-.009-.041h1.44a4.277 4.277 0 0 1-.192-1.448v.008a4.351 4.351 0 1 1 8.704 0A4.351 4.351 0 0 1 26.176 16H0v1.44h26.176a5.824 5.824 0 1 0 .02-11.615l-.02-.001z"/></svg>