<?xml version="1.0" standalone="no"?>
<!DOCTYPE svg PUBLIC "-//W3C//DTD SVG 1.1//EN" "http://www.w3.org/Graphics/SVG/1.1/DTD/svg11.dtd" >
<svg xmlns="http://www.w3.org/2000/svg" xmlns:xlink="http://www.w3.org/1999/xlink" version="1.1">
<metadata>
Created by FontForge 20161003 at Fri Mar 31 07:42:39 2017
 By www-data
2000 Albert-Jan Pool, published by Fontshop International for the FontFont library.
</metadata>
<defs>
<font id="adihbdit" horiz-adv-x="544" >
  <font-face 
    font-family="adihbdit"
    font-weight="700"
    font-style="italic"
    font-stretch="normal"
    units-per-em="1000"
    panose-1="2 0 8 3 2 0 0 9 0 4"
    ascent="800"
    descent="-200"
    x-height="521"
    cap-height="712"
    bbox="-161 -203 1107 1014"
    underline-thickness="82"
    underline-position="-217"
    slope="-11"
    unicode-range="U+0020-F002"
  />
<missing-glyph horiz-adv-x="502" 
d="M-1 0v500h500v-500h-500zM9 10h480v480h-480v-480z" />
    <glyph glyph-name=".notdef" horiz-adv-x="502" 
d="M-1 0v500h500v-500h-500zM9 10h480v480h-480v-480z" />
    <glyph glyph-name=".null" horiz-adv-x="0" 
 />
    <glyph glyph-name="nonmarkingreturn" horiz-adv-x="220" 
 />
    <glyph glyph-name="space" unicode=" " horiz-adv-x="220" 
 />
    <glyph glyph-name="exclam" unicode="!" horiz-adv-x="330" 
d="M348 712l-126 -490h-93l66 490h153zM225 133l-26 -133h-131l26 133h131z" />
    <glyph glyph-name="quotedbl" unicode="&#x22;" horiz-adv-x="441" 
d="M468 712l-43 -211h-116l43 211h116zM272 712l-42 -211h-116l42 211h116z" />
    <glyph glyph-name="numbersign" unicode="#" horiz-adv-x="666" 
d="M675 538l-23 -114h-82l-41 -116h70l-23 -114h-87l-68 -194h-132l68 194h-114l-68 -194h-132l68 194h-67l23 114h84l41 116h-71l23 114h87l63 180h132l-63 -180h114l63 180h132l-63 -180h66zM437 424h-114l-41 -116h114z" />
    <glyph glyph-name="dollar" unicode="$" horiz-adv-x="594" 
d="M608 630l-93 -81q-44 52 -115 52l-34 -185l26 -7q87 -24 124 -65.5t37 -113.5q0 -60 -22 -104t-59 -72t-81 -42.5t-91 -17.5l-21 -108h-97l21 110q-69 4 -118 26.5t-89 70.5l96 85q55 -66 146 -66l37 192q-1 0 -9.5 2.5t-13.5 3.5q-85 22 -121.5 66.5t-36.5 101.5
q0 97 65.5 164t179.5 76l17 88h97l-17 -91q111 -9 172 -85zM420 213q0 37 -19 53.5t-59 25.5l-33 -181q50 8 80.5 35.5t30.5 66.5zM331 602q-45 -6 -75.5 -36.5t-30.5 -70.5q0 -28 20 -43.5t53 -23.5z" />
    <glyph glyph-name="percent" unicode="%" horiz-adv-x="816" 
d="M392 608q0 -18 -3 -32l-17 -93q-12 -69 -53.5 -103.5t-106.5 -34.5q-49 0 -83.5 28.5t-34.5 82.5q0 6 2 23q1 7 1 9l17 93q13 69 54 103t106 34q49 0 83.5 -28t34.5 -82zM303 597q0 17 -9.5 29t-31.5 12q-25 0 -39 -16t-19 -42l-18 -93q-2 -8 -2 -21q0 -17 9 -29t31 -12
q25 0 39 16t19 42l18 94q3 12 3 20zM763 257q0 -15 -3 -32l-17 -93q-12 -69 -53.5 -103.5t-106.5 -34.5q-49 0 -83.5 28.5t-34.5 82.5q0 14 3 32l18 93q13 69 54 103t105 34q49 0 83.5 -28t34.5 -82zM674 246q0 17 -9.5 29t-31.5 12q-25 0 -39 -16t-19 -42l-18 -93
q-2 -8 -2 -21q0 -17 9 -29t31 -12q25 0 39 16t19 42l18 94q3 12 3 20zM710 712l-463 -712h-100l463 712h100z" />
    <glyph glyph-name="ampersand" unicode="&#x26;" horiz-adv-x="690" 
d="M409 564q0 49 -47 49q-35 0 -52.5 -24t-17.5 -54q0 -15 7.5 -32.5t19.5 -35.5q5 3 15.5 9.5t16.5 10.5q29 18 43.5 35.5t14.5 41.5zM372 384l87 -141q43 44 60 122h119q-14 -69 -42 -122.5t-74 -97.5l94 -145h-150l-39 61q-37 -30 -85 -48.5t-106 -18.5q-38 0 -72 9.5
t-61.5 30.5t-44 55.5t-16.5 81.5q0 45 12.5 80.5t35 62.5t51.5 49.5t69 46.5q-23 38 -33.5 64.5t-10.5 59.5q0 30 10 61.5t33 59.5t63 45.5t97 17.5q49 0 81.5 -15t49.5 -38.5t23 -48t6 -47.5q0 -43 -26.5 -80.5t-72.5 -67.5zM367 154l-104 168q-47 -28 -71.5 -59.5
t-24.5 -73.5q0 -37 23.5 -60.5t60.5 -23.5q30 0 60 13t56 36z" />
    <glyph glyph-name="quotesingle" unicode="'" horiz-adv-x="246" 
d="M273 712l-42 -211h-117l42 211h117z" />
    <glyph glyph-name="parenleft" unicode="(" horiz-adv-x="319" 
d="M358 714q-22 -19 -37.5 -34t-25.5 -28q-23 -31 -32 -79l-85 -424l-1 -6q-7 -38 -7 -54q0 -20 10.5 -44t37.5 -56l-94 -83q-46 56 -62 92.5t-16 77.5q0 12 3 34t7 43l85 426q9 43 18.5 71.5t27.5 54.5q31 43 101 101z" />
    <glyph glyph-name="parenright" unicode=")" horiz-adv-x="319" 
d="M313 636q0 -12 -3 -33.5t-7 -43.5l-85 -426q-9 -43 -18 -71.5t-28 -54.5q-31 -43 -101 -101l-70 92q22 19 37.5 34t25.5 28q23 32 32 79l85 424l1 6q7 38 7 54q0 20 -10.5 44t-37.5 56l94 83q46 -56 62 -92.5t16 -77.5z" />
    <glyph glyph-name="asterisk" unicode="*" horiz-adv-x="470" 
d="M479 538l-116 -35l93 -76l-57 -64l-86 83l-20 -119l-84 16l28 118l-112 -43l-28 80l116 35l-94 76l57 64l87 -82l19 118l84 -16l-27 -118l111 43z" />
    <glyph glyph-name="plus" unicode="+" horiz-adv-x="516" 
d="M485 335l-23 -116h-153l-33 -164h-116l33 164h-152l23 116h152l33 164h116l-33 -164h153z" />
    <glyph glyph-name="comma" unicode="," horiz-adv-x="271" 
d="M184 142l-39 -197l-157 -110l62 307h134z" />
    <glyph glyph-name="hyphen" unicode="-" horiz-adv-x="405" 
d="M367 343l-23 -115h-293l23 115h293z" />
    <glyph glyph-name="period" unicode="." horiz-adv-x="271" 
d="M184 148l-29 -148h-141l30 148h140z" />
    <glyph glyph-name="slash" unicode="/" horiz-adv-x="385" 
d="M496 786l-442 -860h-120l443 860h119z" />
    <glyph glyph-name="zero" unicode="0" horiz-adv-x="528" 
d="M523 547q0 -10 -1.5 -24t-3.5 -25l-57 -290q-11 -59 -35.5 -100.5t-57 -66.5t-69.5 -36t-75 -11q-80 0 -129 47.5t-49 123.5q0 10 1.5 24.5t3.5 24.5l58 290q12 59 36.5 101t57 66.5t69 35.5t74.5 11q80 0 128.5 -47.5t48.5 -123.5zM400 538q0 35 -19 52t-46 17
q-36 0 -64.5 -22.5t-38.5 -76.5l-58 -299q0 -5 -2 -17q-3 -13 -3 -18q0 -35 19 -52t46 -17q36 0 64 22.5t39 76.5l59 299q0 6 2 18t2 17z" />
    <glyph glyph-name="one" unicode="1" horiz-adv-x="528" 
d="M457 712l-142 -712h-124l114 570l-162 -117l28 143l162 116h124z" />
    <glyph glyph-name="two" unicode="2" horiz-adv-x="528" 
d="M525 541q0 -59 -26 -100.5t-71 -86.5l-10 -10l-228 -233h262l-23 -111h-420l23 111l308 313q33 34 46.5 57t13.5 54q0 34 -18 53t-50 19q-37 0 -64.5 -22t-38.5 -71h-125q18 101 80 152.5t161 51.5q84 0 132 -46.5t48 -130.5z" />
    <glyph glyph-name="three" unicode="3" horiz-adv-x="528" 
d="M408 364q34 -19 48.5 -48.5t14.5 -78.5q0 -50 -18 -94.5t-50 -78t-75.5 -52t-92.5 -18.5q-93 0 -147.5 46t-54.5 123q0 7 2 18q1 11 1 18h122l-1 -5q-1 -10 -1 -17q0 -31 20.5 -51.5t59.5 -20.5q46 0 78.5 38t32.5 89q0 36 -20.5 57t-59.5 21h-19l21 108h20q44 0 74 36
t30 81q0 34 -18 53t-49 19q-35 0 -63.5 -23t-38.5 -64h-125q23 99 85.5 148.5t158.5 49.5q78 0 126 -48t48 -121q0 -59 -27 -108t-82 -77z" />
    <glyph glyph-name="four" unicode="4" horiz-adv-x="528" 
d="M493 712l-328 -491h141l27 132h118l-26 -132h65l-24 -117h-63l-21 -104h-118l20 104h-281l23 117l329 491h138z" />
    <glyph glyph-name="five" unicode="5" horiz-adv-x="528" 
d="M548 712l-22 -111h-273l-31 -158q23 18 47 25.5t55 7.5q78 0 118.5 -47t40.5 -115q0 -16 -2 -36t-5 -38q-11 -57 -30.5 -104t-52.5 -80q-29 -29 -69.5 -45.5t-93.5 -16.5q-83 0 -131 47t-48 119q0 1 1 9q1 17 1 27h119q-1 -7 -1 -20q0 -32 16 -51.5t50 -19.5
q48 0 74 35.5t38 99.5q7 40 7 58q0 34 -14.5 53.5t-49.5 19.5q-33 0 -57 -16t-39 -43h-112l58 289l22 111h384z" />
    <glyph glyph-name="six" unicode="6" horiz-adv-x="528" 
d="M474 712l-203 -300q21 6 42 6q71 0 115 -50t44 -134q0 -51 -16.5 -95t-47 -76.5t-73 -50.5t-92.5 -18q-52 0 -90.5 16.5t-63 44t-36 60.5t-11.5 68q0 51 18.5 94.5t63.5 112.5l213 322h137zM348 230q0 42 -21 65t-58 23q-48 0 -75.5 -37.5t-27.5 -86.5q0 -42 21 -65.5
t57 -23.5q47 0 75.5 37.5t28.5 87.5z" />
    <glyph glyph-name="seven" unicode="7" horiz-adv-x="528" 
d="M577 712l-22 -111l-334 -601h-137l333 601h-180l-22 -109h-118l43 220h437z" />
    <glyph glyph-name="eight" unicode="8" horiz-adv-x="528" 
d="M526 534q0 -56 -30.5 -104t-78.5 -72q26 -20 42.5 -51.5t16.5 -79.5q0 -99 -63 -164q-32 -33 -78 -51t-103 -18q-86 0 -141.5 47.5t-55.5 138.5q0 63 31 114t91 81q-23 20 -37.5 50t-14.5 73q0 45 16.5 85t47.5 70.5t73.5 47.5t93.5 17q84 0 137 -50t53 -134zM350 226
q0 36 -21 60.5t-58 24.5q-48 0 -79.5 -34.5t-31.5 -86.5q0 -36 21.5 -60.5t58.5 -24.5q48 0 79 34t31 87zM401 531q0 33 -18.5 54.5t-52.5 21.5q-44 0 -72.5 -33.5t-28.5 -79.5q0 -32 18.5 -53.5t52.5 -21.5q44 0 72.5 33t28.5 79z" />
    <glyph glyph-name="nine" unicode="9" horiz-adv-x="528" 
d="M528 529q0 -51 -18.5 -94.5t-63.5 -112.5l-214 -322h-136l203 300q-21 -6 -42 -6q-71 0 -115 50.5t-44 133.5q0 51 16.5 95t47 76.5t73 50.5t92.5 18q52 0 90.5 -16.5t63 -44t36 -60.5t11.5 -68zM404 518q0 42 -21 65.5t-58 23.5q-47 0 -75 -37.5t-28 -87.5
q0 -41 21.5 -64.5t57.5 -23.5q49 0 76 37.5t27 86.5z" />
    <glyph glyph-name="colon" unicode=":" horiz-adv-x="294" 
d="M209 148l-30 -148h-141l30 148h141zM261 419l-29 -148h-141l30 148h140z" />
    <glyph glyph-name="semicolon" unicode=";" horiz-adv-x="294" 
d="M205 142l-39 -197l-158 -110l62 307h135zM262 419l-30 -148h-141l30 148h141z" />
    <glyph glyph-name="less" unicode="&#x3c;" horiz-adv-x="516" 
d="M492 532l-27 -138l-264 -109l222 -117l-25 -127l-354 199l22 106z" />
    <glyph glyph-name="equal" unicode="=" horiz-adv-x="516" 
d="M508 448l-23 -115h-422l24 115h421zM467 238l-24 -115h-421l24 115h421z" />
    <glyph glyph-name="greater" unicode="&#x3e;" horiz-adv-x="516" 
d="M481 329l-22 -106l-426 -185l27 138l264 109l-222 117l26 127z" />
    <glyph glyph-name="question" unicode="?" horiz-adv-x="497" 
d="M518 559q0 -48 -18.5 -86t-55.5 -80l-89 -99q-9 -10 -17 -24t-11 -27l-5 -21h-124l7 31q7 31 19.5 55.5t35.5 49.5l88 94q22 23 33.5 45.5t11.5 48.5t-15.5 43.5t-43.5 17.5q-39 0 -63 -22t-32 -61h-125q17 98 81 146t158 48q68 0 116.5 -43.5t48.5 -115.5zM312 133
l-26 -133h-131l26 133h131z" />
    <glyph glyph-name="at" unicode="@" horiz-adv-x="768" 
d="M436 219v4q-13 -22 -40.5 -44t-58.5 -22q-56 0 -81.5 34.5t-25.5 93.5q0 50 25 108.5t63 96.5q53 51 121 51q30 0 44.5 -17.5t21.5 -41.5l16 51h98l-46 -139l-30 -92q-3 -8 -6 -21t-3 -20q0 -8 4.5 -13.5t14.5 -5.5q14 0 43 29q32 32 51.5 83t19.5 99q0 80 -53 127.5
t-139 47.5q-55 0 -109.5 -24t-97.5 -67q-50 -50 -79.5 -119t-29.5 -139q0 -88 57 -144t153 -56q72 0 128.5 14.5t109.5 37.5l10 -89q-63 -26 -124.5 -37t-133.5 -11q-137 0 -218 75t-81 205q0 83 35.5 168t98.5 148q60 60 137.5 94t150.5 34q127 0 204.5 -69t77.5 -189
q0 -61 -26 -122.5t-70 -105.5q-75 -75 -154 -75q-38 0 -58 18t-20 44zM469 394q0 25 -10 40t-25 15q-14 0 -26 -7t-24 -19q-21 -21 -34 -60.5t-13 -69.5q0 -24 6.5 -35t26.5 -11q19 0 37.5 16t32 40.5t21.5 49.5t8 41z" />
    <glyph glyph-name="A" unicode="A" horiz-adv-x="607" 
d="M552 0h-134l-15 130h-241l-67 -130h-141l388 712h105zM393 238l-34 274l-143 -274h177z" />
    <glyph glyph-name="B" unicode="B" horiz-adv-x="626" 
d="M480 525q0 30 -16.5 50t-57.5 20h-126l-36 -175h127q54 0 81.5 32.5t27.5 72.5zM498 361q34 -21 51 -49.5t17 -75.5q0 -53 -18 -96.5t-50.5 -75t-76.5 -48t-95 -16.5h-298l120 597l23 115h258q92 0 138.5 -47t46.5 -118q0 -56 -27 -105.5t-89 -80.5zM433 230q0 33 -19 53
t-56 20h-137l-37 -186h138q51 0 81 32t30 81z" />
    <glyph glyph-name="C" unicode="C" horiz-adv-x="592" 
d="M598 498h-132q0 46 -23 75t-69 29q-31 0 -53.5 -10.5t-42.5 -30.5q-22 -22 -37.5 -67t-33.5 -138q-10 -48 -15.5 -86.5t-5.5 -63.5q0 -45 26.5 -70.5t68.5 -25.5q49 0 82.5 29.5t50.5 74.5h136q-35 -108 -108.5 -164t-169.5 -56q-100 0 -159.5 57.5t-59.5 144.5
q0 23 5 61.5t17 98.5q24 121 44 179t64 102q41 41 92.5 61t105.5 20q105 0 161 -61t56 -159z" />
    <glyph glyph-name="D" unicode="D" horiz-adv-x="626" 
d="M614 513q0 -22 -4.5 -54t-18.5 -100q-13 -69 -24 -112.5t-23 -75t-27.5 -55t-39.5 -46.5q-73 -70 -196 -70h-253l23 115l120 597h233q94 0 152 -50t58 -149zM481 502q0 47 -26.5 70.5t-73.5 23.5h-101l-96 -480h100q64 0 104 39q11 11 20 25t17 37.5t16 57.5t18 84
q12 62 17 94t5 49z" />
    <glyph glyph-name="E" unicode="E" horiz-adv-x="578" 
d="M615 712l-23 -116h-312l-36 -179h269l-23 -116h-269l-37 -185h318l-23 -116h-451l23 114l120 598h444z" />
    <glyph glyph-name="F" unicode="F" horiz-adv-x="560" 
d="M615 712l-23 -116h-312l-37 -186h267l-23 -116h-268l-59 -294h-132l120 597l23 115h444z" />
    <glyph glyph-name="G" unicode="G" horiz-adv-x="616" 
d="M603 495h-132q0 49 -25 78t-69 29q-29 0 -54 -11.5t-44 -30.5q-25 -25 -39.5 -67t-33.5 -137q-20 -97 -20 -150q0 -50 28 -73t68 -23q50 0 91.5 37t55.5 106l6 31h-125l21 110h256l-19 -102q-15 -78 -37 -128t-62 -90q-39 -39 -89.5 -59.5t-106.5 -20.5q-103 0 -161.5 59
t-58.5 143q0 55 21 160q13 66 23.5 109.5t22 74t26 52.5t36.5 44q40 40 91.5 61t109.5 21q55 0 97 -18t69.5 -49t40.5 -71t13 -85z" />
    <glyph glyph-name="H" unicode="H" horiz-adv-x="651" 
d="M664 712l-59 -294l-84 -418h-132l61 302h-229l-61 -302h-132l61 305l82 407h132l-58 -294h229l58 294h132z" />
    <glyph glyph-name="I" unicode="I" horiz-adv-x="290" 
d="M303 712l-120 -596l-23 -116h-132l23 116l120 596h132z" />
    <glyph glyph-name="J" unicode="J" horiz-adv-x="485" 
d="M507 712l-23 -116l-75 -371q-14 -68 -43.5 -114.5t-66.5 -71.5t-75.5 -35t-74.5 -10q-64 0 -106 19t-73 58l95 81q33 -42 87 -42q19 0 38 6t37 20t31.5 38t20.5 59l73 363l23 116h132z" />
    <glyph glyph-name="K" unicode="K" horiz-adv-x="636" 
d="M702 712l-281 -297l163 -415h-144l-125 329l-113 -110l-20 -103l-23 -116h-131l23 116l120 596h131l-63 -310l299 310h164z" />
    <glyph glyph-name="L" unicode="L" horiz-adv-x="550" 
d="M494 116l-23 -116h-443l23 116l120 596h132l-119 -596h310z" />
    <glyph glyph-name="M" unicode="M" horiz-adv-x="770" 
d="M783 712l-58 -289l-85 -423h-132l85 421l-179 -263h-89l-80 265l-85 -423h-132l86 427l57 285h124l101 -380l258 380h129z" />
    <glyph glyph-name="N" unicode="N" horiz-adv-x="677" 
d="M690 712l-90 -446l-53 -266h-112l-185 445l-90 -445h-132l89 445l54 267h112l186 -446l89 446h132z" />
    <glyph glyph-name="O" unicode="O" horiz-adv-x="611" 
d="M597 516q0 -23 -5 -60.5t-17 -99.5q-23 -118 -44 -177.5t-65 -103.5q-39 -39 -92.5 -60t-106.5 -21q-98 0 -156 58.5t-58 143.5q0 23 5 60.5t17 99.5q23 118 44.5 178t64.5 103q39 39 92 60t106 21q98 0 156.5 -58t58.5 -144zM463 506q0 45 -26 70.5t-64 25.5
q-57 0 -97 -43q-21 -22 -35.5 -64t-33.5 -139q-10 -49 -15.5 -87t-5.5 -63q0 -45 26.5 -70.5t64.5 -25.5q57 0 97 43q21 22 35.5 64t33.5 139q10 48 15 86.5t5 63.5z" />
    <glyph glyph-name="P" unicode="P" horiz-adv-x="597" 
d="M615 524q0 -48 -17 -92.5t-51 -80t-83.5 -55.5t-111.5 -20h-137l-55 -276h-132l120 595l23 117h253q89 0 140 -51.5t51 -136.5zM482 513q0 37 -19 59.5t-61 22.5h-122l-41 -202h118q60 0 92.5 37t32.5 83z" />
    <glyph glyph-name="Q" unicode="Q" horiz-adv-x="611" 
d="M597 516q0 -23 -5 -60.5t-17 -99.5q-20 -106 -38.5 -162t-52.5 -99l49 -65l-79 -70l-52 69q-30 -17 -65.5 -26t-69.5 -9q-98 0 -156 58.5t-58 143.5q0 23 5 60.5t17 99.5q23 118 44.5 178t64.5 103q39 39 92 60t106 21q98 0 156.5 -58t58.5 -144zM463 506q0 45 -26 70.5
t-64 25.5q-57 0 -97 -43q-21 -22 -35.5 -64t-33.5 -139q-10 -49 -15.5 -87t-5.5 -63q0 -45 26.5 -70.5t64.5 -25.5q29 0 52 14l-52 67l80 70l44 -57q11 22 21 57t21 95q10 48 15 86.5t5 63.5z" />
    <glyph glyph-name="R" unicode="R" horiz-adv-x="625" 
d="M615 521q0 -70 -43 -130.5t-123 -87.5l98 -303h-145l-83 288h-100l-59 -288h-132l120 595l23 117h250q52 0 89.5 -15t60.5 -42t33.5 -61t10.5 -73zM483 514q0 39 -21.5 60t-61.5 21h-120l-40 -197h120q32 0 55.5 11t38.5 28.5t22 37.5t7 39z" />
    <glyph glyph-name="S" unicode="S" horiz-adv-x="563" 
d="M577 632l-93 -81q-23 27 -53 39.5t-73 12.5q-59 0 -95.5 -33t-36.5 -75q0 -31 20 -46t56 -24l29 -7l30 -7q87 -21 124 -64.5t37 -120.5q0 -58 -22.5 -102t-62.5 -73t-91.5 -43t-108.5 -14q-84 0 -139.5 22.5t-100.5 75.5l96 84q55 -65 156 -65q59 0 100 30t41 73
q0 36 -18.5 53t-56.5 26l-32 8l-27 7q-83 21 -122.5 66t-39.5 103q0 51 19 95t55.5 77t88.5 51t116 18t116.5 -21.5t87.5 -64.5z" />
    <glyph glyph-name="T" unicode="T" 
d="M605 712l-23 -117h-175l-119 -595h-132l119 595h-179l23 117h486z" />
    <glyph glyph-name="U" unicode="U" horiz-adv-x="635" 
d="M658 712l-23 -116l-71 -352q-25 -125 -102.5 -187.5t-182.5 -62.5q-93 0 -155 55.5t-62 147.5q0 13 2.5 31t4.5 30l91 454h132l-93 -462q0 -6 -2 -20q-3 -16 -3 -24q0 -40 23.5 -67.5t70.5 -27.5q57 0 95 38t52 108l68 339l23 116h132z" />
    <glyph glyph-name="V" unicode="V" horiz-adv-x="552" 
d="M642 712l-363 -712h-104l-81 712h130l48 -472l228 472h142z" />
    <glyph glyph-name="W" unicode="W" horiz-adv-x="846" 
d="M929 712l-318 -712h-111l-37 438l-216 -438h-110l-42 712h136l16 -455l216 455h99l35 -455l192 455h140z" />
    <glyph glyph-name="X" unicode="X" horiz-adv-x="579" 
d="M647 712l-264 -352l143 -360h-148l-88 253l-180 -253h-154l280 370l-132 342h147l79 -234l163 234h154z" />
    <glyph glyph-name="Y" unicode="Y" horiz-adv-x="550" 
d="M635 712l-286 -425l-58 -287h-132l59 292l-129 420h140l76 -295l184 295h146z" />
    <glyph glyph-name="Z" unicode="Z" horiz-adv-x="526" 
d="M575 712l-21 -103l-9 -12l-373 -480h290l-24 -117h-450l22 105l9 12l370 478h-275l23 117h438z" />
    <glyph glyph-name="bracketleft" unicode="[" horiz-adv-x="359" 
d="M421 786l-22 -111h-116l-128 -638h126l-22 -111h-249l22 111l127 639l22 110h240z" />
    <glyph glyph-name="backslash" unicode="\" horiz-adv-x="378" 
d="M313 -74h-112l-98 847h113z" />
    <glyph glyph-name="bracketright" unicode="]" horiz-adv-x="359" 
d="M389 786l-22 -110l-127 -640l-22 -110h-240l22 110h117l128 640h-126l22 110h248z" />
    <glyph glyph-name="asciicircum" unicode="^" horiz-adv-x="581" 
d="M548 389h-124l-62 198l-141 -198h-135l236 330h122z" />
    <glyph glyph-name="underscore" unicode="_" horiz-adv-x="516" 
d="M448 -91l-17 -82h-517l17 82h517z" />
    <glyph glyph-name="grave" unicode="`" horiz-adv-x="475" 
d="M356 601h-79l-74 167h128z" />
    <glyph glyph-name="a" unicode="a" horiz-adv-x="509" 
d="M317 224h-95q-41 0 -65 -22.5t-24 -57.5q0 -23 16.5 -36t49.5 -13q49 0 81 32q23 23 31 66zM286 46q-24 -24 -55 -37.5t-71 -13.5q-67 0 -108 38.5t-41 98.5q0 76 47 123q28 28 66.5 41t85.5 13h124l7 31q3 14 3 27q0 56 -77 56q-36 0 -63.5 -13t-48.5 -36l-64 83
q34 35 79 52.5t114 17.5q35 0 67.5 -7.5t59 -24.5t42.5 -45t16 -68q0 -23 -5 -46l-6 -28l-62 -308h-119z" />
    <glyph glyph-name="b" unicode="b" horiz-adv-x="533" 
d="M237 476q20 23 51 37t70 14q63 0 103 -38t40 -113q0 -37 -15 -115q-15 -84 -33 -134t-51 -83q-25 -25 -59.5 -37.5t-73.5 -12.5q-85 0 -121 59l-10 -53h-120l52 260l90 452h124zM373 344q0 30 -13.5 51t-49.5 21q-51 0 -75.5 -37.5t-40.5 -117.5q-5 -27 -8 -48t-3 -36
q0 -30 13.5 -51t49.5 -21q51 0 75.5 38t40.5 118q5 28 8 48t3 35z" />
    <glyph glyph-name="c" unicode="c" horiz-adv-x="458" 
d="M463 455l-93 -82q-16 21 -33 32t-39 11q-42 0 -74 -33q-20 -21 -34 -53t-21 -69q-7 -40 -7 -67q0 -42 19 -65.5t55 -23.5q47 0 91 44l69 -89q-33 -31 -77.5 -48.5t-94.5 -17.5q-79 0 -133 49t-54 137q0 38 8 81q14 76 41.5 128.5t63.5 82.5t76.5 42.5t83.5 12.5
q53 0 90 -19.5t63 -52.5z" />
    <glyph glyph-name="d" unicode="d" horiz-adv-x="533" 
d="M352 345q0 30 -13 50.5t-49 20.5q-51 0 -75.5 -37.5t-40.5 -117.5q-5 -27 -8 -48t-3 -36q0 -30 13 -51t49 -21q51 0 75.5 38t40.5 118q5 27 8 48t3 36zM465 261l-52 -261h-120l11 50q-25 -29 -58 -42.5t-71 -13.5q-39 0 -66.5 13t-44 34t-23.5 46.5t-7 52.5q0 39 16 121
q17 84 35.5 135t47.5 80q28 28 61 39.5t71 11.5q37 0 68 -13.5t50 -42.5l48 241h124z" />
    <glyph glyph-name="e" unicode="e" horiz-adv-x="524" 
d="M487 341q0 -25 -4.5 -54.5t-11.5 -63.5h-312q0 -7 -2 -19q-2 -11 -2 -18q0 -40 22.5 -63.5t66.5 -23.5q36 0 66 13.5t58 39.5l65 -82q-80 -76 -203 -76q-37 0 -70.5 10t-61.5 31.5t-44.5 57t-16.5 84.5q0 68 16.5 130.5t50 112t83.5 78.5t115 29q84 0 134.5 -50.5
t50.5 -135.5zM369 341q0 40 -20 62t-54 22q-41 0 -72 -29t-48 -90h191q0 6 2 18q1 11 1 17z" />
    <glyph glyph-name="f" unicode="f" horiz-adv-x="325" 
d="M392 720l-21 -105h-44q-47 0 -57 -51l-12 -59h92l-19 -95h-92l-82 -410h-124l82 410h-51l19 95h51l15 72q15 70 57 106.5t113 36.5h73z" />
    <glyph glyph-name="g" unicode="g" horiz-adv-x="527" 
d="M176 274q-9 -48 -9 -72q0 -32 15 -50.5t47 -18.5q46 0 71 34.5t39 107.5q9 48 9 72q0 69 -62 69q-46 0 -71 -34.5t-39 -107.5zM411 20q-22 -109 -88.5 -163t-161.5 -54q-57 0 -98.5 17t-74.5 54l86 75q17 -19 36 -30t51 -11q50 0 83 30.5t44 82.5l11 53
q-21 -25 -49.5 -38.5t-66.5 -13.5q-61 0 -102.5 38.5t-41.5 108.5q0 35 13 106q14 78 31.5 124.5t46.5 75.5q28 28 61.5 40t71.5 12q82 0 118 -59l10 53h120l-49 -244z" />
    <glyph glyph-name="h" unicode="h" 
d="M502 383q0 -18 -6 -53q0 -2 -1 -5l-65 -325h-124l63 317q0 5 2 18q2 11 2 16q0 32 -18 48.5t-43 16.5q-15 0 -30.5 -4.5t-31 -15.5t-27.5 -31t-18 -49l-63 -316h-124l64 320l78 392h124l-46 -232q52 47 128 47q25 0 49 -8t44 -25.5t31.5 -45.5t11.5 -65z" />
    <glyph glyph-name="i" unicode="i" horiz-adv-x="262" 
d="M246 521l-81 -405l-23 -116h-124l23 116l81 405h124zM285 710l-21 -103h-127l20 103h128z" />
    <glyph glyph-name="j" unicode="j" horiz-adv-x="262" 
d="M246 521l-80 -405l-33 -164q-14 -69 -57 -108t-111 -39h-77l21 105h45q46 0 56 53l31 153l81 405h124zM285 710l-21 -103h-127l20 103h128z" />
    <glyph glyph-name="k" unicode="k" horiz-adv-x="534" 
d="M557 521l-218 -217l138 -304h-142l-90 227l-71 -66l-32 -161h-124l61 308l81 404h124l-80 -403l206 212h147z" />
    <glyph glyph-name="l" unicode="l" horiz-adv-x="311" 
d="M280 712l-111 -555q-3 -13 -3 -22q0 -30 38 -30h51l-21 -105h-68q-55 0 -90 30.5t-35 82.5q0 24 4 43l111 556h124z" />
    <glyph glyph-name="m" unicode="m" horiz-adv-x="832" 
d="M481 460q31 32 68 49.5t95 17.5t101.5 -37.5t43.5 -106.5q0 -16 -2.5 -35.5t-5.5 -34.5l-63 -313h-124l63 317q0 5 2 18q2 11 2 16q0 32 -18 48.5t-44 16.5q-15 0 -30.5 -4.5t-30.5 -15.5t-27 -31t-18 -49l-63 -316h-124l63 317q0 5 2 18q2 11 2 16q0 32 -18 48.5
t-43 16.5q-15 0 -30.5 -4.5t-31 -15.5t-27.5 -31t-18 -49l-63 -316h-124l63 318l41 203h119l-10 -50q26 27 61.5 41.5t75.5 14.5q32 0 63 -16t50 -51z" />
    <glyph glyph-name="n" unicode="n" 
d="M502 383q0 -18 -6 -53q0 -2 -1 -5l-65 -325h-124l63 317q0 5 2 18q2 11 2 16q0 32 -18 48.5t-43 16.5q-15 0 -30.5 -4.5t-31 -15.5t-27.5 -31t-18 -49l-63 -316h-124l64 318l40 203h119l-10 -50q26 27 61.5 41.5t75.5 14.5q24 0 47.5 -8t43.5 -25.5t31.5 -45.5t11.5 -65z
" />
    <glyph glyph-name="o" unicode="o" horiz-adv-x="514" 
d="M477 355q0 -21 -3 -44.5t-7 -49.5q-15 -79 -36.5 -126t-56.5 -81q-30 -29 -71 -44.5t-89 -15.5q-31 0 -62 9.5t-57.5 30.5t-42 54.5t-15.5 78.5q0 18 3 40.5t7 46.5q0 4 1 7q15 79 36.5 125.5t56.5 80.5q30 29 71 44.5t89 15.5q32 0 62.5 -9.5t56.5 -30t41.5 -54
t15.5 -78.5zM354 342q0 37 -17.5 55.5t-47.5 18.5q-39 0 -65 -26q-18 -18 -30.5 -48.5t-22.5 -80.5q-6 -33 -8.5 -52t-2.5 -30q0 -36 18 -55t48 -19q38 0 64 26q18 18 30.5 49t22.5 81q6 33 8.5 52t2.5 29z" />
    <glyph glyph-name="p" unicode="p" horiz-adv-x="533" 
d="M231 471q25 29 58 42.5t71 13.5q39 0 67 -12.5t44 -33.5t23 -46t7 -52q0 -21 -3 -47.5t-13 -74.5q-17 -85 -35.5 -136t-47.5 -80q-28 -28 -60.5 -39.5t-71.5 -11.5q-37 0 -68 13.5t-50 42.5l-48 -241h-124l91 455l51 257h120zM372 345q0 30 -13 50.5t-49 20.5
q-51 0 -75.5 -37.5t-40.5 -117.5q-5 -27 -8 -48t-3 -36q0 -30 13 -51t49 -21q51 0 75.5 38t40.5 118q5 27 8 48t3 36z" />
    <glyph glyph-name="q" unicode="q" horiz-adv-x="533" 
d="M297 46q-20 -23 -51 -37.5t-70 -14.5q-62 0 -102 38t-40 114q0 37 15 115q15 84 33 134t51 83q25 25 59 37t74 12q84 0 120 -59l11 53h120l-52 -261l-90 -451h-124zM351 344q0 30 -13 51t-49 21q-51 0 -75.5 -37.5t-40.5 -117.5q-5 -27 -8 -48t-3 -36q0 -30 13 -51
t49 -21q51 0 75.5 38t40.5 118q5 28 8 48t3 35z" />
    <glyph glyph-name="r" unicode="r" horiz-adv-x="430" 
d="M367 383l-1 1q-11 14 -23.5 22.5t-32.5 8.5q-37 0 -66.5 -27.5t-38.5 -72.5l-63 -315h-124l63 314l41 207h120l-11 -51q22 26 57 41.5t75 15.5q37 0 63.5 -12t47.5 -37z" />
    <glyph glyph-name="s" unicode="s" horiz-adv-x="475" 
d="M459 463l-85 -75q-17 18 -43.5 27.5t-55.5 9.5q-44 0 -67.5 -18.5t-23.5 -44.5q0 -31 48 -39l67 -11q67 -11 96.5 -44.5t29.5 -90.5q0 -38 -14.5 -69t-41.5 -57q-30 -29 -78.5 -43t-102.5 -14q-68 0 -116.5 19.5t-84.5 58.5l89 78q21 -24 49.5 -37t70.5 -13q50 0 78 20
t28 45q0 20 -12.5 29.5t-36.5 13.5l-68 11q-66 10 -95.5 43t-29.5 75q0 77 53 130q60 60 173 60q56 0 98 -15t75 -49z" />
    <glyph glyph-name="t" unicode="t" horiz-adv-x="337" 
d="M341 507l-19 -96h-86l-51 -256q-2 -8 -2 -19q0 -32 40 -32h45l-21 -104h-64q-55 0 -90.5 30.5t-35.5 82.5q0 10 2 27q2 11 2 16l51 255h-53l19 96h53l31 154h124l-31 -154h86z" />
    <glyph glyph-name="u" unicode="u" 
d="M314 50q-26 -26 -61.5 -41t-75.5 -15q-24 0 -47.5 8.5t-43 26t-31 45.5t-11.5 65q0 23 6 57l65 325h124l-63 -317q0 -5 -2 -18q-2 -11 -2 -16q0 -32 18.5 -48.5t43.5 -16.5q15 0 30.5 4.5t30.5 15.5t27 31t18 49l44 221l19 95h124l-19 -94l-84 -427h-119z" />
    <glyph glyph-name="v" unicode="v" horiz-adv-x="469" 
d="M518 521l-285 -521h-98l-78 521h123l37 -336l168 336h133z" />
    <glyph glyph-name="w" unicode="w" horiz-adv-x="719" 
d="M765 521l-249 -521h-98l-41 331l-171 -331h-100l-49 521h124l18 -325l165 325h90l38 -325l142 325h131z" />
    <glyph glyph-name="x" unicode="x" horiz-adv-x="502" 
d="M531 521l-210 -259l123 -262h-143l-65 163l-121 -163h-153l221 269l-118 252h143l61 -155l111 155h151z" />
    <glyph glyph-name="y" unicode="y" horiz-adv-x="464" 
d="M515 521l-260 -485l-65 -120q-20 -38 -43 -61q-24 -24 -54 -35t-70 -11h-48l23 112h28q26 0 40.5 12t30.5 42l33 62l-74 484h123l38 -336l167 336h131z" />
    <glyph glyph-name="z" unicode="z" horiz-adv-x="461" 
d="M470 521l-19 -95l-279 -315h223l-22 -111h-386l19 95l277 315h-208l22 111h373z" />
    <glyph glyph-name="braceleft" unicode="{" horiz-adv-x="435" 
d="M495 786l-22 -111h-46q-44 0 -59 -15t-25 -61l-29 -143q-9 -46 -31 -68t-55 -30q23 -11 35.5 -30t12.5 -48q0 -14 -3 -29l-27 -136q-5 -27 -5 -40q0 -22 13 -30t44 -8h57l-22 -111h-96q-33 0 -57.5 10.5t-39.5 28t-21.5 38t-6.5 42.5q0 17 4 37l30 147q3 10 3 27
q0 12 -5 24q-6 13 -18 20.5t-33 7.5h-42l23 110h43q32 0 54 19q19 16 28 60l28 141q8 38 21 66t37 49q39 33 112 33h98z" />
    <glyph glyph-name="bar" unicode="|" horiz-adv-x="333" 
d="M334 786l-172 -860h-123l171 860h124z" />
    <glyph glyph-name="braceright" unicode="}" horiz-adv-x="435" 
d="M424 404l-23 -110h-43q-32 0 -54 -19q-19 -16 -28 -60l-28 -141q-8 -38 -21 -66t-37 -49q-39 -33 -112 -33h-98l22 111h46q44 0 59.5 15t24.5 61l29 143q9 46 31.5 68t54.5 30q-23 11 -35.5 30t-12.5 48q0 14 3 29l27 136q5 27 5 40q0 22 -13 30t-44 8h-57l22 111h96
q34 0 58 -10.5t39 -28t21.5 -38t6.5 -42.5q0 -17 -4 -37l-30 -147q-3 -10 -3 -27q0 -12 5 -24q6 -13 18 -20.5t33 -7.5h42z" />
    <glyph glyph-name="asciitilde" unicode="~" horiz-adv-x="576" 
d="M549 277q-51 -47 -91 -62t-78 -15q-30 0 -54.5 7.5t-52.5 24.5q-22 13 -39.5 18.5t-36.5 5.5q-23 0 -45 -9t-49 -34l-65 84q51 47 91.5 62t78.5 15q30 0 54.5 -7.5t52.5 -24.5q22 -13 39 -18.5t36 -5.5q24 0 46 8.5t49 33.5z" />
    <glyph glyph-name="Euro" horiz-adv-x="650" 
d="M642 498h-132q0 46 -23 75t-69 29q-30 0 -52.5 -10t-43.5 -31q-14 -14 -24 -34.5t-19 -53.5h142l-16 -78h-146l-15 -75h147l-14 -78h-144q0 -7 -1 -21q-1 -10 -1 -15q0 -45 26.5 -70.5t67.5 -25.5q45 0 80 29t53 75h136q-34 -104 -106 -162t-173 -58q-99 0 -158.5 57.5
t-59.5 144.5q0 18 5 46h-69l14 78h66l15 75h-66l14 78h69q15 57 33 95t49 69q41 41 93 61t106 20q105 0 160.5 -61t55.5 -159z" />
    <glyph glyph-name="nonbreakingspace" unicode="&#xa0;" horiz-adv-x="220" 
 />
    <glyph glyph-name="exclamdown" unicode="&#xa1;" horiz-adv-x="330" 
d="M203 299l-66 -490h-153l126 490h93zM264 521l-26 -133h-131l26 133h131z" />
    <glyph glyph-name="cent" unicode="&#xa2;" horiz-adv-x="484" 
d="M507 547l-91 -75q-25 35 -59 42l-59 -299q39 4 77 42l68 -83q-36 -33 -70 -49.5t-84 -23.5l-20 -101h-96l21 105q-55 14 -94.5 66t-39.5 128q0 56 14.5 111.5t44.5 102.5t74.5 77.5t102.5 36.5l17 85h96l-17 -86q38 -8 66 -29t49 -50zM287 513q-25 -6 -46.5 -46.5
t-33.5 -92.5l-2 -10q-13 -58 -13 -83q0 -28 9.5 -42.5t28.5 -19.5z" />
    <glyph glyph-name="sterling" unicode="&#xa3;" horiz-adv-x="551" 
d="M580 643l-98 -84q-27 42 -81 42q-58 0 -88.5 -33.5t-40.5 -87.5l-17 -86h109l-19 -94h-108l-37 -183h284l-23 -117h-416l60 300h-58l18 94h58l19 91q11 53 31 95t52 73t78.5 48t108.5 17q110 0 168 -75z" />
    <glyph glyph-name="currency" unicode="&#xa4;" horiz-adv-x="469" 
d="M404 334q0 -68 -43 -111t-111 -43t-111 43t-43 111t43 111t111 43t111 -43t43 -111z" />
    <glyph glyph-name="yen" unicode="&#xa5;" horiz-adv-x="550" 
d="M635 712l-186 -276h74l-19 -94h-118l-37 -55l-10 -46h145l-19 -94h-144l-30 -147h-132l30 147h-143l19 94h142l11 51l-15 50h-118l18 94h70l-84 276h140l76 -295l184 295h146z" />
    <glyph glyph-name="brokenbar" unicode="&#xa6;" horiz-adv-x="336" 
d="M334 786l-70 -350h-124l70 350h124zM232 276l-70 -350h-123l69 350h124z" />
    <glyph glyph-name="section" unicode="&#xa7;" horiz-adv-x="504" 
d="M484 575q0 -12 -2 -24h-111q0 33 -15.5 47t-41.5 14q-36 0 -56 -20.5t-20 -52.5q0 -39 51 -59l53 -21q43 -17 72 -55.5t29 -92.5q0 -64 -28.5 -114.5t-87.5 -82.5q26 -19 40 -46t14 -71q0 -37 -12 -71t-38 -62t-67.5 -44.5t-97.5 -16.5q-69 0 -114.5 39t-45.5 104
q0 19 1 29h115v-5v-4q0 -24 15.5 -39t44.5 -15q33 0 56.5 20t23.5 60q0 21 -12.5 38.5t-40.5 28.5l-52 21q-45 18 -73 56t-28 92q0 63 30.5 116t87.5 81q-26 22 -38.5 49t-12.5 65q0 72 53 125.5t150 53.5q75 0 116.5 -40.5t41.5 -102.5zM328 297q0 34 -18 49.5t-43 15.5
q-17 0 -30 -5.5t-25 -15.5q-29 -25 -38 -72q-3 -15 -3 -27q0 -34 18.5 -49.5t41.5 -15.5q33 0 56 20q29 25 38 72q3 15 3 28z" />
    <glyph glyph-name="dieresis" unicode="&#xa8;" horiz-adv-x="475" 
d="M489 725l-24 -122h-106l24 122h106zM279 725l-24 -122h-105l24 122h105z" />
    <glyph glyph-name="copyright" unicode="&#xa9;" horiz-adv-x="801" 
d="M764 356q0 -70 -26.5 -133t-74 -110.5t-110.5 -74t-133 -26.5t-133 26.5t-110.5 74t-74 110.5t-26.5 133t26.5 133t74 110.5t110.5 74t133 26.5t133 -26.5t110.5 -74t74 -110.5t26.5 -133zM682 356q0 56 -20 105.5t-55.5 85.5t-83.5 56t-103 20q-54 0 -102 -20
t-83.5 -56.5t-55.5 -85t-20 -105.5q0 -56 20 -105.5t55.5 -85.5t83.5 -56t102 -20q55 0 102.5 20t83.5 56.5t56 85.5t20 105zM552 219q-28 -25 -57 -37t-67 -12q-74 0 -122.5 49t-48.5 137t48.5 137t122.5 49q38 0 66.5 -12t57.5 -37l-53 -53q-20 17 -35 23.5t-36 6.5
q-44 0 -67.5 -30.5t-23.5 -83.5t23.5 -83.5t67.5 -30.5q21 0 36 6.5t35 23.5z" />
    <glyph glyph-name="ordfeminine" unicode="&#xaa;" horiz-adv-x="431" 
d="M439 601q0 -5 -2 -18t-2 -19l-54 -268h-96l7 36q-17 -19 -42 -29.5t-59 -10.5q-53 0 -85.5 31.5t-32.5 80.5q0 60 40 98q43 41 119 41h99l4 24q3 15 3 22q0 44 -61 44q-29 0 -50.5 -10t-38.5 -28l-52 67q28 27 64 41t91 14q28 0 54 -6t47.5 -19.5t34 -36t12.5 -54.5z
M317 475h-76q-33 0 -52 -17.5t-19 -44.5q0 -40 54 -40q39 0 64 25q17 17 24 52z" />
    <glyph glyph-name="guillemotleft" unicode="&#xab;" horiz-adv-x="597" 
d="M588 521l-33 -160l-111 -96l73 -96l-27 -142l-189 249zM323 521l-33 -160l-111 -96l73 -96l-27 -142l-189 249z" />
    <glyph glyph-name="logicalnot" unicode="&#xac;" horiz-adv-x="516" 
d="M493 359l-22 -111l-31 -153h-115l30 149h-313l23 115h428z" />
    <glyph glyph-name="minus" unicode="&#xad;" horiz-adv-x="516" 
d="M486 343l-22 -114h-421l23 114h420z" />
    <glyph glyph-name="registered" unicode="&#xae;" horiz-adv-x="801" 
d="M764 356q0 -70 -26.5 -133t-74 -110.5t-110.5 -74t-133 -26.5t-133 26.5t-110.5 74t-74 110.5t-26.5 133t26.5 133t74 110.5t110.5 74t133 26.5t133 -26.5t110.5 -74t74 -110.5t26.5 -133zM682 356q0 57 -20 106t-55.5 85t-83.5 56t-103 20t-103 -20t-83.5 -56t-55.5 -85
t-20 -106q0 -56 20 -105t55.5 -85.5t83.5 -56.5t103 -20t103 20t83.5 56.5t55.5 85.5t20 105zM575 173h-93l-66 141h-39v-141h-82v366h149q54 0 87.5 -33.5t33.5 -81.5q0 -36 -18.5 -60.5t-47.5 -36.5zM484 424q0 20 -14.5 34t-36.5 14h-56v-94h56q22 0 36.5 13t14.5 33z
" />
    <glyph glyph-name="macron" unicode="&#xaf;" horiz-adv-x="475" 
d="M480 711l-17 -82h-301l16 82h302z" />
    <glyph glyph-name="degree" unicode="&#xb0;" horiz-adv-x="460" 
d="M465 542q0 -76 -51 -127t-127 -51t-127 51t-51 127q0 38 13.5 70.5t37.5 57.5q51 51 127 51t127 -51q25 -25 38 -57.5t13 -70.5zM366 542q0 34 -23 57t-56 23t-56 -23t-23 -57t23 -57t56 -23t56 23t23 57z" />
    <glyph glyph-name="plusminus" unicode="&#xb1;" horiz-adv-x="516" 
d="M508 451l-23 -114h-153l-33 -165h-116l33 165h-152l23 114h152l33 164h116l-33 -164h153zM442 115l-23 -115h-421l23 115h421z" />
    <glyph glyph-name="twosuperior" unicode="&#xb2;" horiz-adv-x="340" 
d="M368 606q0 -37 -18.5 -66t-55.5 -64l-117 -111h150l-16 -80h-262l16 80l177 169q20 19 28 33.5t8 31.5q0 16 -8 26.5t-26 10.5q-23 0 -34 -12.5t-15 -33.5h-90q11 57 46.5 91.5t101.5 34.5q55 0 85 -29.5t30 -80.5z" />
    <glyph glyph-name="threesuperior" unicode="&#xb3;" horiz-adv-x="349" 
d="M311 501q17 -13 25 -31t8 -48q0 -62 -41 -101.5t-109 -39.5q-62 0 -92.5 28.5t-30.5 69.5q0 23 2 32h89v-6q-1 -2 -1 -5q0 -39 39 -39q22 0 37.5 16.5t15.5 43.5q0 44 -39 44h-12l16 76h9q29 0 42.5 18t13.5 40q0 18 -9.5 27.5t-23.5 9.5q-41 0 -50 -45h-90
q12 65 50.5 95t99.5 30q51 0 82.5 -30.5t31.5 -80.5q0 -34 -14.5 -60.5t-48.5 -43.5z" />
    <glyph glyph-name="acute" unicode="&#xb4;" horiz-adv-x="475" 
d="M478 768l-139 -167h-84l92 167h131z" />
    <glyph glyph-name="mu" unicode="&#xb5;" horiz-adv-x="548" 
d="M531 521l-104 -521h-119l10 50q-26 -26 -61.5 -41t-75.5 -15q-25 0 -40 15l-40 -200h-124l142 712h124l-64 -317q0 -6 -2 -18q-1 -11 -1 -16q0 -32 18 -48.5t43 -16.5q15 0 31 4.5t31 15.5t27 31t18 49l63 316h124z" />
    <glyph glyph-name="paragraph" unicode="&#xb6;" horiz-adv-x="636" 
d="M648 712l-23 -115l-158 -788h-123l157 787h-95l-158 -787h-123l103 518q-54 4 -96 48q-23 24 -36 56t-13 72t14.5 77.5t45 67t79.5 47t114 17.5h312z" />
    <glyph glyph-name="glyph122" unicode="&#xb7;" horiz-adv-x="271" 
d="M226 356l-28 -141h-141l28 141h141z" />
    <glyph glyph-name="cedilla" unicode="&#xb8;" horiz-adv-x="475" 
d="M247 -60l-69 -143h-116l92 143h93z" />
    <glyph glyph-name="onesuperior" unicode="&#xb9;" horiz-adv-x="278" 
d="M303 712l-85 -427h-90l64 321l-101 -73l22 107l101 72h89z" />
    <glyph glyph-name="ordmasculine" unicode="&#xba;" horiz-adv-x="439" 
d="M441 580q0 -18 -2.5 -39.5t-5.5 -36.5q-11 -61 -28.5 -99.5t-46.5 -65.5q-51 -48 -127 -48q-25 0 -49.5 8t-45.5 24.5t-33.5 43.5t-12.5 63q0 18 2.5 38t5.5 36q12 62 28.5 100t45.5 65q51 48 128 48q25 0 50 -7.5t45.5 -24t33 -43t12.5 -62.5zM342 568q0 30 -14 44.5
t-38 14.5q-33 0 -52 -21q-26 -26 -41 -102q-5 -24 -6.5 -38.5t-1.5 -25.5q0 -30 13.5 -44.5t37.5 -14.5q33 0 53 22q25 25 40 101q5 24 7 39t2 25z" />
    <glyph glyph-name="guillemotright" unicode="&#xbb;" horiz-adv-x="597" 
d="M570 273l-287 -246l32 160l111 96l-73 97l28 141zM305 273l-287 -246l32 160l112 96l-74 97l28 141z" />
    <glyph glyph-name="onequarter" unicode="&#xbc;" horiz-adv-x="800" 
d="M687 712l-462 -712h-99l462 712h99zM744 427l-192 -283h70l13 63h86l-13 -63h33l-16 -84h-34l-11 -60h-86l13 60h-170l16 84l192 283h99zM303 712l-85 -427h-90l64 321l-103 -75l21 107l104 74h89z" />
    <glyph glyph-name="onehalf" unicode="&#xbd;" horiz-adv-x="826" 
d="M683 712l-462 -712h-99l462 712h99zM798 321q0 -37 -18.5 -66t-55.5 -64l-118 -111h151l-16 -80h-263l17 80l177 169q20 19 28 33.5t8 31.5q0 16 -8 26.5t-26 10.5q-23 0 -34.5 -13t-15.5 -33h-89q11 57 46.5 91.5t101.5 34.5q55 0 85 -29.5t30 -80.5zM303 712l-85 -427
h-90l64 321l-103 -75l21 107l104 74h89z" />
    <glyph glyph-name="threequarters" unicode="&#xbe;" horiz-adv-x="837" 
d="M726 712l-462 -712h-99l461 712h100zM311 501q17 -13 25 -31t8 -48q0 -62 -41 -101.5t-109 -39.5q-62 0 -92.5 28.5t-30.5 69.5q0 23 2 32h89v-5q-1 -5 -1 -6q0 -39 39 -39q22 0 37.5 16.5t15.5 43.5q0 44 -39 44h-12l16 76h9q29 0 42.5 18t13.5 40q0 18 -9.5 27.5
t-23.5 9.5q-41 0 -50 -45h-90q12 65 50.5 95t99.5 30q51 0 82.5 -30.5t31.5 -80.5q0 -34 -14.5 -60.5t-48.5 -43.5zM780 427l-192 -283h71l12 63h86l-13 -63h33l-16 -84h-33l-12 -60h-85l12 60h-170l16 84l192 283h99z" />
    <glyph glyph-name="questiondown" unicode="&#xbf;" horiz-adv-x="497" 
d="M386 -3q-17 -98 -80.5 -146t-157.5 -48q-68 0 -116.5 43.5t-48.5 115.5q0 48 18.5 87.5t55.5 79.5l89 98q10 11 18 24.5t10 26.5l4 22h124l-7 -32q-6 -31 -18.5 -55.5t-35.5 -49.5l-89 -94q-21 -23 -32.5 -45t-11.5 -49q0 -26 16 -43.5t43 -17.5q39 0 63 22t32 61h124z
M345 521l-25 -133h-131l26 133h130z" />
    <glyph glyph-name="Agrave" unicode="&#xc0;" horiz-adv-x="607" 
d="M552 0h-134l-15 130h-241l-67 -130h-141l388 712h105zM393 238l-34 274l-143 -274h177zM432 778h-79l-74 167h128z" />
    <glyph glyph-name="Aacute" unicode="&#xc1;" horiz-adv-x="607" 
d="M552 0h-134l-15 130h-241l-67 -130h-141l388 712h105zM393 238l-34 274l-143 -274h177zM555 945l-139 -167h-84l92 167h131z" />
    <glyph glyph-name="Acircumflex" unicode="&#xc2;" horiz-adv-x="607" 
d="M552 0h-134l-15 130h-241l-67 -130h-141l388 712h105zM393 238l-34 274l-143 -274h177zM569 781h-92l-59 94l-99 -94h-101l159 169h100z" />
    <glyph glyph-name="Atilde" unicode="&#xc3;" horiz-adv-x="607" 
d="M552 0h-134l-15 130h-241l-67 -130h-141l388 712h105zM570 846q-29 -27 -54.5 -39.5t-56.5 -12.5q-24 0 -41.5 5.5t-35.5 16.5q-16 10 -27.5 14t-25.5 4q-17 0 -32 -8t-30 -23l-45 59q28 27 54 39.5t57 12.5q24 0 42 -6t35 -16q16 -9 27 -13t26 -4q17 0 32 8t30 23z
M393 238l-34 274l-143 -274h177z" />
    <glyph glyph-name="Adieresis" unicode="&#xc4;" horiz-adv-x="607" 
d="M552 0h-134l-15 130h-241l-67 -130h-141l388 712h105zM393 238l-34 274l-143 -274h177zM583 902l-24 -122h-106l24 122h106zM373 902l-24 -122h-105l24 122h105z" />
    <glyph glyph-name="Aring" unicode="&#xc5;" horiz-adv-x="607" 
d="M552 0h-134l-15 130h-241l-67 -130h-141l388 712h105zM393 238l-34 274l-143 -274h177zM528 880q0 -54 -37 -90.5t-90 -36.5t-89.5 36.5t-36.5 90.5t36.5 90t89.5 36q52 0 89.5 -36.5t37.5 -89.5zM460 880q0 23 -18 40.5t-41 17.5t-40.5 -17.5t-17.5 -40.5
q0 -24 17.5 -41.5t40.5 -17.5t41 17.5t18 41.5z" />
    <glyph glyph-name="AE" unicode="&#xc6;" horiz-adv-x="940" 
d="M977 712l-23 -115h-313l-35 -181h268l-23 -115h-269l-37 -186h317l-23 -115h-449l22 113l10 50h-212l-112 -163h-146l496 712h529zM509 596l-223 -323h159z" />
    <glyph glyph-name="Ccedilla" unicode="&#xc7;" horiz-adv-x="592" 
d="M598 498h-132q0 46 -23 75t-69 29q-31 0 -53.5 -10.5t-42.5 -30.5q-22 -22 -37.5 -67t-33.5 -138q-10 -48 -15.5 -86.5t-5.5 -63.5q0 -45 26.5 -70.5t68.5 -25.5q49 0 82.5 29.5t50.5 74.5h136q-35 -108 -108.5 -164t-169.5 -56q-100 0 -159.5 57.5t-59.5 144.5
q0 23 5 61.5t17 98.5q24 121 44 179t64 102q41 41 92.5 61t105.5 20q105 0 161 -61t56 -159zM315 -60l-69 -143h-116l92 143h93z" />
    <glyph glyph-name="Egrave" unicode="&#xc8;" horiz-adv-x="578" 
d="M615 712l-23 -116h-312l-36 -179h269l-23 -116h-269l-37 -185h318l-23 -116h-451l23 114l120 598h444zM429 778h-79l-74 167h128z" />
    <glyph glyph-name="Eacute" unicode="&#xc9;" horiz-adv-x="578" 
d="M615 712l-23 -116h-312l-36 -179h269l-23 -116h-269l-37 -185h318l-23 -116h-451l23 114l120 598h444zM538 945l-139 -167h-84l92 167h131z" />
    <glyph glyph-name="Ecircumflex" unicode="&#xca;" horiz-adv-x="578" 
d="M615 712l-23 -116h-312l-36 -179h269l-23 -116h-269l-37 -185h318l-23 -116h-451l23 114l120 598h444zM559 781h-92l-59 94l-99 -94h-101l159 169h100z" />
    <glyph glyph-name="Edieresis" unicode="&#xcb;" horiz-adv-x="578" 
d="M615 712l-23 -116h-312l-36 -179h269l-23 -116h-269l-37 -185h318l-23 -116h-451l23 114l120 598h444zM566 902l-24 -122h-106l24 122h106zM356 902l-24 -122h-105l24 122h105z" />
    <glyph glyph-name="Igrave" unicode="&#xcc;" horiz-adv-x="290" 
d="M303 712l-120 -596l-23 -116h-132l23 116l120 596h132zM289 778h-79l-74 167h128z" />
    <glyph glyph-name="Iacute" unicode="&#xcd;" horiz-adv-x="290" 
d="M303 712l-120 -596l-23 -116h-132l23 116l120 596h132zM402 945l-139 -167h-84l92 167h131z" />
    <glyph glyph-name="Icircumflex" unicode="&#xce;" horiz-adv-x="290" 
d="M303 712l-120 -596l-23 -116h-132l23 116l120 596h132zM415 781h-92l-59 94l-99 -94h-101l159 169h100z" />
    <glyph glyph-name="Idieresis" unicode="&#xcf;" horiz-adv-x="290" 
d="M303 712l-120 -596l-23 -116h-132l23 116l120 596h132zM428 902l-24 -122h-106l24 122h106zM218 902l-24 -122h-105l24 122h105z" />
    <glyph glyph-name="Eth" unicode="&#xd0;" horiz-adv-x="648" 
d="M636 513q0 -22 -4.5 -54t-18.5 -100q-13 -69 -24 -112.5t-23 -75t-27.5 -55t-39.5 -46.5q-73 -70 -196 -70h-253l62 310h-66l20 100h66l61 302h233q94 0 152 -50t58 -149zM503 502q0 47 -26.5 70.5t-73.5 23.5h-101l-38 -186h110l-20 -100h-110l-39 -194h100q66 0 106 39
q11 11 19.5 25.5t16.5 37t16 56.5t18 85q12 62 17 94t5 49z" />
    <glyph glyph-name="Ntilde" unicode="&#xd1;" horiz-adv-x="677" 
d="M690 712l-90 -446l-53 -266h-112l-185 445l-90 -445h-132l89 445l54 267h112l186 -446l89 446h132zM602 846q-28 -27 -54 -39.5t-57 -12.5q-23 0 -41.5 6t-35.5 16q-16 10 -27.5 14t-25.5 4q-17 0 -32 -8t-30 -23l-45 59q29 27 54.5 39.5t56.5 12.5q24 0 41.5 -5.5
t35.5 -16.5q16 -9 27 -13t26 -4q17 0 32 8t30 23z" />
    <glyph glyph-name="Ograve" unicode="&#xd2;" horiz-adv-x="611" 
d="M597 516q0 -25 -5 -63.5t-17 -96.5q-23 -118 -44 -177.5t-65 -103.5q-39 -39 -92.5 -60t-106.5 -21q-98 0 -156 58.5t-58 143.5q0 23 5 60.5t17 99.5q23 118 44.5 178t64.5 103q39 39 92 60t106 21q98 0 156.5 -58t58.5 -144zM463 506q0 45 -26 70.5t-64 25.5
q-57 0 -97 -43q-21 -22 -35.5 -64t-33.5 -139q-10 -49 -15.5 -87t-5.5 -63q0 -45 26.5 -70.5t64.5 -25.5q57 0 97 43q21 22 35.5 64t33.5 139q10 48 15 86.5t5 63.5zM438 778h-79l-74 167h128z" />
    <glyph glyph-name="Oacute" unicode="&#xd3;" horiz-adv-x="611" 
d="M597 516q0 -25 -5 -63.5t-17 -96.5q-23 -118 -44 -177.5t-65 -103.5q-39 -39 -92.5 -60t-106.5 -21q-98 0 -156 58.5t-58 143.5q0 23 5 60.5t17 99.5q23 118 44.5 178t64.5 103q39 39 92 60t106 21q98 0 156.5 -58t58.5 -144zM463 506q0 45 -26 70.5t-64 25.5
q-57 0 -97 -43q-21 -22 -35.5 -64t-33.5 -139q-10 -49 -15.5 -87t-5.5 -63q0 -45 26.5 -70.5t64.5 -25.5q57 0 97 43q21 22 35.5 64t33.5 139q10 48 15 86.5t5 63.5zM560 945l-139 -167h-84l92 167h131z" />
    <glyph glyph-name="Ocircumflex" unicode="&#xd4;" horiz-adv-x="611" 
d="M597 516q0 -25 -5 -63.5t-17 -96.5q-23 -118 -44 -177.5t-65 -103.5q-39 -39 -92.5 -60t-106.5 -21q-98 0 -156 58.5t-58 143.5q0 23 5 60.5t17 99.5q23 118 44.5 178t64.5 103q39 39 92 60t106 21q98 0 156.5 -58t58.5 -144zM463 506q0 45 -26 70.5t-64 25.5
q-57 0 -97 -43q-21 -22 -35.5 -64t-33.5 -139q-10 -49 -15.5 -87t-5.5 -63q0 -45 26.5 -70.5t64.5 -25.5q57 0 97 43q21 22 35.5 64t33.5 139q10 48 15 86.5t5 63.5zM569 781h-92l-59 94l-99 -94h-101l159 169h100z" />
    <glyph glyph-name="Otilde" unicode="&#xd5;" horiz-adv-x="611" 
d="M597 516q0 -25 -5 -63.5t-17 -96.5q-23 -118 -44 -177.5t-65 -103.5q-39 -39 -92.5 -60t-106.5 -21q-98 0 -156 58.5t-58 143.5q0 23 5 60.5t17 99.5q23 118 44.5 178t64.5 103q39 39 92 60t106 21q98 0 156.5 -58t58.5 -144zM463 506q0 45 -26 70.5t-64 25.5
q-57 0 -97 -43q-21 -22 -35.5 -64t-33.5 -139q-10 -49 -15.5 -87t-5.5 -63q0 -45 26.5 -70.5t64.5 -25.5q57 0 97 43q21 22 35.5 64t33.5 139q10 48 15 86.5t5 63.5zM575 846q-29 -27 -54.5 -39.5t-56.5 -12.5q-24 0 -41.5 5.5t-35.5 16.5q-16 10 -27.5 14t-25.5 4
q-17 0 -32 -8t-30 -23l-45 59q28 27 54 39.5t57 12.5q24 0 42 -6t35 -16q16 -9 27 -13t26 -4q17 0 31.5 8t30.5 23z" />
    <glyph glyph-name="Odieresis" unicode="&#xd6;" horiz-adv-x="611" 
d="M597 516q0 -25 -5 -63.5t-17 -96.5q-23 -118 -44 -177.5t-65 -103.5q-39 -39 -92.5 -60t-106.5 -21q-98 0 -156 58.5t-58 143.5q0 23 5 60.5t17 99.5q23 118 44.5 178t64.5 103q39 39 92 60t106 21q98 0 156.5 -58t58.5 -144zM463 506q0 45 -26 70.5t-64 25.5
q-57 0 -97 -43q-21 -22 -35.5 -64t-33.5 -139q-10 -49 -15.5 -87t-5.5 -63q0 -45 26.5 -70.5t64.5 -25.5q57 0 97 43q21 22 35.5 64t33.5 139q10 48 15 86.5t5 63.5zM583 902l-24 -122h-106l24 122h106zM373 902l-24 -122h-105l24 122h105z" />
    <glyph glyph-name="multiply" unicode="&#xd7;" horiz-adv-x="516" 
d="M504 422l-162 -141l107 -140l-90 -78l-106 142l-162 -141l-66 86l162 140l-107 141l91 78l106 -141l161 140z" />
    <glyph glyph-name="Oslash" unicode="&#xd8;" horiz-adv-x="614" 
d="M632 756l-75 -115q42 -54 42 -125q0 -23 -5 -60.5t-17 -99.5q-23 -118 -44 -177.5t-65 -103.5q-39 -39 -93 -60t-107 -21q-65 0 -111 26l-42 -64h-96l75 115q-20 25 -31 58t-11 67q0 23 5 60.5t17 99.5q23 118 44.5 178t64.5 103q39 39 93 60t107 21q64 0 111 -26l42 64
h96zM463 506v3l-243 -380q25 -19 57 -19q57 0 97 43q21 22 35.5 64t33.5 139q10 48 15 86.5t5 63.5zM430 583q-23 19 -57 19q-57 0 -97 -43q-21 -22 -35.5 -64t-33.5 -139q-10 -49 -15.5 -87t-5.5 -63v-2z" />
    <glyph glyph-name="Ugrave" unicode="&#xd9;" horiz-adv-x="635" 
d="M658 712l-23 -116l-71 -352q-25 -125 -102.5 -187.5t-182.5 -62.5q-93 0 -155 55.5t-62 147.5q0 13 2.5 31t4.5 30l91 454h132l-93 -462q0 -6 -2 -20q-3 -16 -3 -24q0 -40 23.5 -67.5t70.5 -27.5q57 0 95 38t52 108l68 339l23 116h132zM456 778h-79l-74 167h128z" />
    <glyph glyph-name="Uacute" unicode="&#xda;" horiz-adv-x="635" 
d="M658 712l-23 -116l-71 -352q-25 -125 -102.5 -187.5t-182.5 -62.5q-93 0 -155 55.5t-62 147.5q0 13 2.5 31t4.5 30l91 454h132l-93 -462q0 -6 -2 -20q-3 -16 -3 -24q0 -40 23.5 -67.5t70.5 -27.5q57 0 95 38t52 108l68 339l23 116h132zM578 945l-139 -167h-84l92 167h131
z" />
    <glyph glyph-name="Ucircumflex" unicode="&#xdb;" horiz-adv-x="635" 
d="M658 712l-23 -116l-71 -352q-25 -125 -102.5 -187.5t-182.5 -62.5q-93 0 -155 55.5t-62 147.5q0 13 2.5 31t4.5 30l91 454h132l-93 -462q0 -6 -2 -20q-3 -16 -3 -24q0 -40 23.5 -67.5t70.5 -27.5q57 0 95 38t52 108l68 339l23 116h132zM588 781h-92l-59 94l-99 -94h-101
l159 169h100z" />
    <glyph glyph-name="Udieresis" unicode="&#xdc;" horiz-adv-x="635" 
d="M658 712l-23 -116l-71 -352q-25 -125 -102.5 -187.5t-182.5 -62.5q-93 0 -155 55.5t-62 147.5q0 13 2.5 31t4.5 30l91 454h132l-93 -462q0 -6 -2 -20q-3 -16 -3 -24q0 -40 23.5 -67.5t70.5 -27.5q57 0 95 38t52 108l68 339l23 116h132zM599 902l-24 -122h-106l24 122h106
zM389 902l-24 -122h-105l24 122h105z" />
    <glyph glyph-name="Yacute" unicode="&#xdd;" horiz-adv-x="550" 
d="M635 712l-286 -425l-58 -287h-132l59 292l-129 420h140l76 -295l184 295h146zM518 945l-139 -167h-84l92 167h131z" />
    <glyph glyph-name="Thorn" unicode="&#xde;" horiz-adv-x="601" 
d="M588 390q0 -48 -17.5 -92.5t-51.5 -80t-83.5 -55.5t-111.5 -20h-136l-28 -142h-132l52 259l91 453h132l-27 -134h120q89 0 140.5 -51.5t51.5 -136.5zM455 379q0 37 -19 59.5t-61 22.5h-122l-41 -202h118q60 0 92.5 37t32.5 83z" />
    <glyph glyph-name="germandbls" unicode="&#xdf;" horiz-adv-x="547" 
d="M551 565q0 -41 -21 -79.5t-63 -60.5q41 -25 41 -76q0 -13 -3 -28l-30 -160q-16 -84 -60.5 -122.5t-123.5 -38.5h-59l21 104h27q24 0 45 16t27 50l29 148q2 8 2 20q0 22 -12 31.5t-34 9.5h-31l20 97h29q33 0 52 23t19 54q0 24 -12 37q-17 21 -58 21q-50 0 -75 -24.5
t-35 -72.5l-103 -514h-125l105 524q21 106 83 150t164 44q82 0 131.5 -40t49.5 -113z" />
    <glyph glyph-name="agrave" unicode="&#xe0;" horiz-adv-x="509" 
d="M317 224h-95q-41 0 -65 -22.5t-24 -57.5q0 -23 16.5 -36t49.5 -13q49 0 81 32q23 23 31 66zM286 46q-24 -24 -55 -37.5t-71 -13.5q-67 0 -108 38.5t-41 98.5q0 76 47 123q28 28 66.5 41t85.5 13h124l7 31q3 14 3 27q0 56 -77 56q-36 0 -63.5 -13t-48.5 -36l-64 83
q34 35 79 52.5t114 17.5q35 0 67.5 -7.5t59 -24.5t42.5 -45t16 -68q0 -23 -5 -46l-6 -28l-62 -308h-119zM362 601h-79l-74 167h128z" />
    <glyph glyph-name="aacute" unicode="&#xe1;" horiz-adv-x="509" 
d="M317 224h-95q-41 0 -65 -22.5t-24 -57.5q0 -23 16.5 -36t49.5 -13q49 0 81 32q23 23 31 66zM286 46q-24 -24 -55 -37.5t-71 -13.5q-67 0 -108 38.5t-41 98.5q0 76 47 123q28 28 66.5 41t85.5 13h124l7 31q3 14 3 27q0 56 -77 56q-36 0 -63.5 -13t-48.5 -36l-64 83
q34 35 79 52.5t114 17.5q35 0 67.5 -7.5t59 -24.5t42.5 -45t16 -68q0 -23 -5 -46l-6 -28l-62 -308h-119zM484 768l-139 -167h-84l92 167h131z" />
    <glyph glyph-name="acircumflex" unicode="&#xe2;" horiz-adv-x="509" 
d="M317 224h-95q-41 0 -65 -22.5t-24 -57.5q0 -23 16.5 -36t49.5 -13q49 0 81 32q23 23 31 66zM286 46q-24 -24 -55 -37.5t-71 -13.5q-67 0 -108 38.5t-41 98.5q0 76 47 123q28 28 66.5 41t85.5 13h124l7 31q3 14 3 27q0 56 -77 56q-36 0 -63.5 -13t-48.5 -36l-64 83
q34 35 79 52.5t114 17.5q35 0 67.5 -7.5t59 -24.5t42.5 -45t16 -68q0 -23 -5 -46l-6 -28l-62 -308h-119zM491 604h-92l-59 94l-99 -94h-101l159 169h100z" />
    <glyph glyph-name="atilde" unicode="&#xe3;" horiz-adv-x="509" 
d="M317 224h-95q-41 0 -65 -22.5t-24 -57.5q0 -23 16.5 -36t49.5 -13q49 0 81 32q23 23 31 66zM286 46q-24 -24 -55 -37.5t-71 -13.5q-67 0 -108 38.5t-41 98.5q0 76 47 123q28 28 66.5 41t85.5 13h124l7 31q3 14 3 27q0 56 -77 56q-36 0 -63.5 -13t-48.5 -36l-64 83
q34 35 79 52.5t114 17.5q35 0 67.5 -7.5t59 -24.5t42.5 -45t16 -68q0 -23 -5 -46l-6 -28l-62 -308h-119zM501 669q-29 -27 -54.5 -39.5t-56.5 -12.5q-24 0 -41.5 5.5t-35.5 16.5q-17 10 -28.5 14t-24.5 4q-17 0 -32 -8t-30 -23l-45 59q28 27 54 39.5t57 12.5q24 0 42 -6
t35 -16q29 -17 53 -17q31 0 62 31z" />
    <glyph glyph-name="adieresis" unicode="&#xe4;" horiz-adv-x="509" 
d="M317 224h-95q-41 0 -65 -22.5t-24 -57.5q0 -23 16.5 -36t49.5 -13q49 0 81 32q23 23 31 66zM286 46q-24 -24 -55 -37.5t-71 -13.5q-67 0 -108 38.5t-41 98.5q0 76 47 123q28 28 66.5 41t85.5 13h124l7 31q3 14 3 27q0 56 -77 56q-36 0 -63.5 -13t-48.5 -36l-64 83
q34 35 79 52.5t114 17.5q35 0 67.5 -7.5t59 -24.5t42.5 -45t16 -68q0 -23 -5 -46l-6 -28l-62 -308h-119zM503 725l-24 -122h-106l24 122h106zM293 725l-24 -122h-105l24 122h105z" />
    <glyph glyph-name="aring" unicode="&#xe5;" horiz-adv-x="509" 
d="M317 224h-95q-41 0 -65 -22.5t-24 -57.5q0 -23 16.5 -36t49.5 -13q49 0 81 32q23 23 31 66zM286 46q-24 -24 -55 -37.5t-71 -13.5q-67 0 -108 38.5t-41 98.5q0 76 47 123q28 28 66.5 41t85.5 13h124l7 31q3 14 3 27q0 56 -77 56q-36 0 -63.5 -13t-48.5 -36l-64 83
q34 35 79 52.5t114 17.5q35 0 67.5 -7.5t59 -24.5t42.5 -45t16 -68q0 -23 -5 -46l-6 -28l-62 -308h-119zM460 711q0 -54 -37.5 -90.5t-89.5 -36.5t-89 36.5t-37 90.5t36.5 90t89.5 36t90 -36t37 -90zM392 711q0 24 -17.5 41t-41.5 17q-23 0 -40.5 -17t-17.5 -41t17.5 -41.5
t40.5 -17.5t41 17.5t18 41.5z" />
    <glyph glyph-name="ae" unicode="&#xe6;" horiz-adv-x="802" 
d="M317 223h-95q-41 0 -65 -22t-24 -57q0 -23 16.5 -36t49.5 -13q49 0 81 32q23 23 31 65zM430 471q61 56 149 56q84 0 135 -50t51 -135q0 -25 -4.5 -55.5t-11.5 -63.5h-313q0 -8 -1 -19q-2 -13 -2 -18q0 -40 22.5 -63.5t66.5 -23.5q36 0 66 13.5t58 39.5l64 -82
q-80 -76 -202 -76q-48 0 -90.5 18.5t-68.5 54.5q-36 -39 -78.5 -56t-93.5 -17q-78 0 -122 36.5t-44 101.5q0 76 45 121q28 28 67 41t87 13h124l7 31q3 12 3 29q0 56 -77 56q-36 0 -63.5 -13t-48.5 -36l-64 83q34 35 79 52.5t114 17.5q45 0 83.5 -13t62.5 -43zM647 342
q0 39 -20 61t-54 22q-42 0 -73 -28.5t-48 -89.5h191q0 6 2 16q2 13 2 19z" />
    <glyph glyph-name="ccedilla" unicode="&#xe7;" horiz-adv-x="458" 
d="M463 455l-93 -82q-16 21 -33 32t-39 11q-42 0 -74 -33q-20 -21 -34 -53t-21 -69q-7 -40 -7 -67q0 -42 19 -65.5t55 -23.5q47 0 91 44l69 -89q-33 -31 -77.5 -48.5t-94.5 -17.5q-79 0 -133 49t-54 137q0 38 8 81q14 76 41.5 128.5t63.5 82.5t76.5 42.5t83.5 12.5
q53 0 90 -19.5t63 -52.5zM257 -60l-69 -143h-116l92 143h93z" />
    <glyph glyph-name="egrave" unicode="&#xe8;" horiz-adv-x="524" 
d="M487 341q0 -25 -4.5 -54.5t-11.5 -63.5h-312q0 -7 -2 -19q-2 -11 -2 -18q0 -40 22.5 -63.5t66.5 -23.5q36 0 66 13.5t58 39.5l65 -82q-80 -76 -203 -76q-37 0 -70.5 10t-61.5 31.5t-44.5 57t-16.5 84.5q0 68 16.5 130.5t50 112t83.5 78.5t115 29q84 0 134.5 -50.5
t50.5 -135.5zM369 341q0 40 -20 62t-54 22q-41 0 -72 -29t-48 -90h191q0 6 2 18q1 11 1 17zM379 601h-79l-74 167h128z" />
    <glyph glyph-name="eacute" unicode="&#xe9;" horiz-adv-x="524" 
d="M487 341q0 -25 -4.5 -54.5t-11.5 -63.5h-312q0 -7 -2 -19q-2 -11 -2 -18q0 -40 22.5 -63.5t66.5 -23.5q36 0 66 13.5t58 39.5l65 -82q-80 -76 -203 -76q-37 0 -70.5 10t-61.5 31.5t-44.5 57t-16.5 84.5q0 68 16.5 130.5t50 112t83.5 78.5t115 29q84 0 134.5 -50.5
t50.5 -135.5zM369 341q0 40 -20 62t-54 22q-41 0 -72 -29t-48 -90h191q0 6 2 18q1 11 1 17zM501 768l-139 -167h-84l92 167h131z" />
    <glyph glyph-name="ecircumflex" unicode="&#xea;" horiz-adv-x="524" 
d="M487 341q0 -25 -4.5 -54.5t-11.5 -63.5h-312q0 -7 -2 -19q-2 -11 -2 -18q0 -40 22.5 -63.5t66.5 -23.5q36 0 66 13.5t58 39.5l65 -82q-80 -76 -203 -76q-37 0 -70.5 10t-61.5 31.5t-44.5 57t-16.5 84.5q0 68 16.5 130.5t50 112t83.5 78.5t115 29q84 0 134.5 -50.5
t50.5 -135.5zM506 604h-92l-59 94l-99 -94h-101l159 169h100zM369 341q0 40 -20 62t-54 22q-41 0 -72 -29t-48 -90h191q0 6 2 18q1 11 1 17z" />
    <glyph glyph-name="edieresis" unicode="&#xeb;" horiz-adv-x="524" 
d="M487 341q0 -25 -4.5 -54.5t-11.5 -63.5h-312q0 -7 -2 -19q-2 -11 -2 -18q0 -40 22.5 -63.5t66.5 -23.5q36 0 66 13.5t58 39.5l65 -82q-80 -76 -203 -76q-37 0 -70.5 10t-61.5 31.5t-44.5 57t-16.5 84.5q0 68 16.5 130.5t50 112t83.5 78.5t115 29q84 0 134.5 -50.5
t50.5 -135.5zM369 341q0 40 -20 62t-54 22q-41 0 -72 -29t-48 -90h191q0 6 2 18q1 11 1 17zM513 725l-24 -122h-106l24 122h106zM303 725l-24 -122h-105l24 122h105z" />
    <glyph glyph-name="igrave" unicode="&#xec;" horiz-adv-x="262" 
d="M246 521l-81 -405l-23 -116h-124l23 116l81 405h124zM243 601h-79l-74 167h128z" />
    <glyph glyph-name="iacute" unicode="&#xed;" horiz-adv-x="262" 
d="M246 521l-81 -405l-23 -116h-124l23 116l81 405h124zM365 768l-139 -167h-84l92 167h131z" />
    <glyph glyph-name="icircumflex" unicode="&#xee;" horiz-adv-x="262" 
d="M246 521l-81 -405l-23 -116h-124l23 116l81 405h124zM370 604h-92l-59 94l-99 -94h-101l159 169h100z" />
    <glyph glyph-name="idieresis" unicode="&#xef;" horiz-adv-x="262" 
d="M246 521l-81 -405l-23 -116h-124l23 116l81 405h124zM377 725l-24 -122h-106l24 122h106zM167 725l-24 -122h-105l24 122h105z" />
    <glyph glyph-name="eth" unicode="&#xf0;" horiz-adv-x="515" 
d="M484 658l-17 -86h-46l25 -79q16 -50 21 -82t5 -65q0 -42 -10 -92q-13 -66 -33 -117t-60 -88q-29 -26 -68.5 -40.5t-85.5 -14.5q-33 0 -64 10t-55.5 30.5t-39 53.5t-14.5 77q0 16 3 41t8 48q15 77 35 122.5t55 78.5q39 39 98 50q27 5 45 5q15 0 30 -3l-21 65h-112l17 86
h70l-19 62h128l18 -62h87zM348 336q0 37 -17.5 52t-42.5 15q-35 0 -60 -23q-32 -29 -51 -126q-11 -57 -11 -82q0 -37 18 -52.5t43 -15.5q34 0 60 24q32 29 51 126q10 52 10 82z" />
    <glyph glyph-name="ntilde" unicode="&#xf1;" 
d="M502 383q0 -18 -6 -53q0 -2 -1 -5l-65 -325h-124l63 317q0 5 2 18q2 11 2 16q0 32 -18 48.5t-43 16.5q-15 0 -30.5 -4.5t-31 -15.5t-27.5 -31t-18 -49l-63 -316h-124l64 318l40 203h119l-10 -50q26 27 61.5 41.5t75.5 14.5q24 0 47.5 -8t43.5 -25.5t31.5 -45.5t11.5 -65z
M527 669q-29 -27 -54.5 -39.5t-56.5 -12.5q-24 0 -41.5 5.5t-35.5 16.5q-18 10 -29 14t-24 4q-17 0 -32 -8t-30 -23l-45 59q28 27 54 39.5t57 12.5q24 0 42 -6t35 -16q29 -17 53 -17q18 0 32.5 8t29.5 23z" />
    <glyph glyph-name="ograve" unicode="&#xf2;" horiz-adv-x="514" 
d="M477 355q0 -21 -3 -44.5t-7 -49.5q-15 -79 -36.5 -126t-56.5 -81q-30 -29 -71 -44.5t-89 -15.5q-31 0 -62 9.5t-57.5 30.5t-42 54.5t-15.5 78.5q0 18 3 40.5t7 46.5q0 4 1 7q15 79 36.5 125.5t56.5 80.5q30 29 71 44.5t89 15.5q32 0 62.5 -9.5t56.5 -30t41.5 -54
t15.5 -78.5zM354 342q0 37 -17.5 55.5t-47.5 18.5q-39 0 -65 -26q-18 -18 -30.5 -48.5t-22.5 -80.5q-6 -33 -8.5 -52t-2.5 -30q0 -36 18 -55t48 -19q38 0 64 26q18 18 30.5 49t22.5 81q6 33 8.5 52t2.5 29zM340 601h-79l-74 167h128z" />
    <glyph glyph-name="oacute" unicode="&#xf3;" horiz-adv-x="514" 
d="M477 355q0 -21 -3 -44.5t-7 -49.5q-15 -79 -36.5 -126t-56.5 -81q-30 -29 -71 -44.5t-89 -15.5q-31 0 -62 9.5t-57.5 30.5t-42 54.5t-15.5 78.5q0 18 3 40.5t7 46.5q0 4 1 7q15 79 36.5 125.5t56.5 80.5q30 29 71 44.5t89 15.5q32 0 62.5 -9.5t56.5 -30t41.5 -54
t15.5 -78.5zM354 342q0 37 -17.5 55.5t-47.5 18.5q-39 0 -65 -26q-18 -18 -30.5 -48.5t-22.5 -80.5q-6 -33 -8.5 -52t-2.5 -30q0 -36 18 -55t48 -19q38 0 64 26q18 18 30.5 49t22.5 81q6 33 8.5 52t2.5 29zM495 768l-139 -167h-84l92 167h131z" />
    <glyph glyph-name="ocircumflex" unicode="&#xf4;" horiz-adv-x="514" 
d="M477 355q0 -21 -3 -44.5t-7 -49.5q-15 -79 -36.5 -126t-56.5 -81q-30 -29 -71 -44.5t-89 -15.5q-31 0 -62 9.5t-57.5 30.5t-42 54.5t-15.5 78.5q0 18 3 40.5t7 46.5q0 4 1 7q15 79 36.5 125.5t56.5 80.5q30 29 71 44.5t89 15.5q32 0 62.5 -9.5t56.5 -30t41.5 -54
t15.5 -78.5zM354 342q0 37 -17.5 55.5t-47.5 18.5q-39 0 -65 -26q-18 -18 -30.5 -48.5t-22.5 -80.5q-6 -33 -8.5 -52t-2.5 -30q0 -36 18 -55t48 -19q38 0 64 26q18 18 30.5 49t22.5 81q6 33 8.5 52t2.5 29zM500 604h-92l-59 94l-99 -94h-101l159 169h100z" />
    <glyph glyph-name="otilde" unicode="&#xf5;" horiz-adv-x="514" 
d="M477 355q0 -21 -3 -44.5t-7 -49.5q-15 -79 -36.5 -126t-56.5 -81q-30 -29 -71 -44.5t-89 -15.5q-31 0 -62 9.5t-57.5 30.5t-42 54.5t-15.5 78.5q0 18 3 40.5t7 46.5q0 4 1 7q15 79 36.5 125.5t56.5 80.5q30 29 71 44.5t89 15.5q32 0 62.5 -9.5t56.5 -30t41.5 -54
t15.5 -78.5zM354 342q0 37 -17.5 55.5t-47.5 18.5q-39 0 -65 -26q-18 -18 -30.5 -48.5t-22.5 -80.5q-6 -33 -8.5 -52t-2.5 -30q0 -36 18 -55t48 -19q38 0 64 26q18 18 30.5 49t22.5 81q6 33 8.5 52t2.5 29zM511 669q-28 -27 -54 -39.5t-57 -12.5q-24 0 -41.5 5.5t-35.5 16.5
q-18 10 -29 14t-24 4q-17 0 -32 -8t-30 -23l-45 59q28 27 54 39.5t57 12.5q23 0 40.5 -5.5t36.5 -16.5q16 -9 27 -13t26 -4q33 0 62 31z" />
    <glyph glyph-name="odieresis" unicode="&#xf6;" horiz-adv-x="514" 
d="M477 355q0 -21 -3 -44.5t-7 -49.5q-15 -79 -36.5 -126t-56.5 -81q-30 -29 -71 -44.5t-89 -15.5q-31 0 -62 9.5t-57.5 30.5t-42 54.5t-15.5 78.5q0 18 3 40.5t7 46.5q0 4 1 7q15 79 36.5 125.5t56.5 80.5q30 29 71 44.5t89 15.5q32 0 62.5 -9.5t56.5 -30t41.5 -54
t15.5 -78.5zM354 342q0 37 -17.5 55.5t-47.5 18.5q-39 0 -65 -26q-18 -18 -30.5 -48.5t-22.5 -80.5q-6 -33 -8.5 -52t-2.5 -30q0 -36 18 -55t48 -19q38 0 64 26q18 18 30.5 49t22.5 81q6 33 8.5 52t2.5 29zM508 725l-24 -122h-106l24 122h106zM298 725l-24 -122h-105l24 122
h105z" />
    <glyph glyph-name="divide" unicode="&#xf7;" horiz-adv-x="516" 
d="M490 343l-23 -115h-429l23 115h429zM376 543l-25 -124h-124l25 124h124zM301 153l-24 -124h-124l25 124h123z" />
    <glyph glyph-name="oslash" unicode="&#xf8;" horiz-adv-x="517" 
d="M526 565l-78 -104q33 -43 33 -106q0 -18 -3 -40.5t-7 -46.5q0 -4 -1 -7q-15 -79 -36.5 -126t-56.5 -81q-29 -29 -71 -44.5t-90 -15.5q-26 0 -52.5 6.5t-47.5 20.5l-48 -65h-76l78 105q-32 42 -32 106q0 18 3 40.5t7 46.5q0 4 1 7q15 79 36.5 125.5t56.5 80.5
q29 29 71 44.5t90 15.5q26 0 51.5 -6t47.5 -20l48 64h76zM358 342v5l-1 5l-172 -233q17 -14 43 -14q39 0 65 26q19 18 31.5 49.5t22.5 80.5q6 33 8.5 52t2.5 29zM334 402q-17 14 -43 14q-39 0 -65 -26q-19 -18 -31.5 -49t-22.5 -80q-6 -33 -8.5 -52t-2.5 -30q0 -1 1 -4v-5z
" />
    <glyph glyph-name="ugrave" unicode="&#xf9;" 
d="M314 50q-26 -26 -61.5 -41t-75.5 -15q-24 0 -47.5 8.5t-43 26t-31 45.5t-11.5 65q0 23 6 57l65 325h124l-63 -317q0 -5 -2 -18q-2 -11 -2 -16q0 -32 18.5 -48.5t43.5 -16.5q15 0 30.5 4.5t30.5 15.5t27 31t18 49l44 221l19 95h124l-19 -94l-84 -427h-119zM381 601h-79
l-74 167h128z" />
    <glyph glyph-name="uacute" unicode="&#xfa;" 
d="M314 50q-26 -26 -61.5 -41t-75.5 -15q-24 0 -47.5 8.5t-43 26t-31 45.5t-11.5 65q0 23 6 57l65 325h124l-63 -317q0 -5 -2 -18q-2 -11 -2 -16q0 -32 18.5 -48.5t43.5 -16.5q15 0 30.5 4.5t30.5 15.5t27 31t18 49l44 221l19 95h124l-19 -94l-84 -427h-119zM503 768
l-139 -167h-84l92 167h131z" />
    <glyph glyph-name="ucircumflex" unicode="&#xfb;" 
d="M314 50q-26 -26 -61.5 -41t-75.5 -15q-24 0 -47.5 8.5t-43 26t-31 45.5t-11.5 65q0 23 6 57l65 325h124l-63 -317q0 -5 -2 -18q-2 -11 -2 -16q0 -32 18.5 -48.5t43.5 -16.5q15 0 30.5 4.5t30.5 15.5t27 31t18 49l44 221l19 95h124l-19 -94l-84 -427h-119zM508 604h-92
l-59 94l-99 -94h-101l159 169h100z" />
    <glyph glyph-name="udieresis" unicode="&#xfc;" 
d="M314 50q-26 -26 -61.5 -41t-75.5 -15q-24 0 -47.5 8.5t-43 26t-31 45.5t-11.5 65q0 23 6 57l65 325h124l-63 -317q0 -5 -2 -18q-2 -11 -2 -16q0 -32 18.5 -48.5t43.5 -16.5q15 0 30.5 4.5t30.5 15.5t27 31t18 49l44 221l19 95h124l-19 -94l-84 -427h-119zM517 725
l-24 -122h-106l24 122h106zM307 725l-24 -122h-105l24 122h105z" />
    <glyph glyph-name="yacute" unicode="&#xfd;" horiz-adv-x="464" 
d="M515 521l-260 -485l-65 -120q-20 -38 -43 -61q-24 -24 -54 -35t-70 -11h-48l23 112h28q26 0 40.5 12t30.5 42l33 62l-74 484h123l38 -336l167 336h131zM464 768l-139 -167h-84l92 167h131z" />
    <glyph glyph-name="thorn" unicode="&#xfe;" horiz-adv-x="533" 
d="M501 383q0 -18 -3 -45.5t-13 -76.5q-17 -87 -35.5 -137t-47.5 -79q-28 -28 -61 -39.5t-70 -11.5q-85 0 -118 54l-49 -239h-124l90 454l90 449h124l-47 -234q20 21 50.5 35t73.5 14q39 0 66 -12.5t43.5 -34t23.5 -46.5t7 -51zM372 344q0 30 -13 51t-49 21
q-51 0 -75.5 -37.5t-40.5 -117.5q-5 -27 -8 -48t-3 -36q0 -30 13 -51t49 -21q51 0 75.5 38t40.5 118q5 28 8 48t3 35z" />
    <glyph glyph-name="ydieresis" unicode="&#xff;" horiz-adv-x="464" 
d="M515 521l-260 -485l-65 -120q-20 -38 -43 -61q-24 -24 -54 -35t-70 -11h-48l23 112h28q26 0 40.5 12t30.5 42l33 62l-74 484h123l38 -336l167 336h131zM483 725l-24 -122h-106l24 122h106zM273 725l-24 -122h-105l24 122h105z" />
    <glyph glyph-name="Amacron" unicode="&#x100;" horiz-adv-x="607" 
d="M552 0h-134l-15 130h-241l-67 -130h-141l388 712h105zM393 238l-34 274l-143 -274h177zM569 888l-17 -82h-301l16 82h302z" />
    <glyph glyph-name="amacron" unicode="&#x101;" horiz-adv-x="509" 
d="M317 224h-95q-41 0 -65 -22.5t-24 -57.5q0 -23 16.5 -36t49.5 -13q49 0 81 32q23 23 31 66zM286 46q-24 -24 -55 -37.5t-71 -13.5q-67 0 -108 38.5t-41 98.5q0 76 47 123q28 28 66.5 41t85.5 13h124l7 31q3 14 3 27q0 56 -77 56q-36 0 -63.5 -13t-48.5 -36l-64 83
q34 35 79 52.5t114 17.5q35 0 67.5 -7.5t59 -24.5t42.5 -45t16 -68q0 -23 -5 -46l-6 -28l-62 -308h-119zM497 711l-17 -82h-301l16 82h302z" />
    <glyph glyph-name="Abreve" unicode="&#x102;" horiz-adv-x="607" 
d="M552 0h-134l-15 130h-241l-67 -130h-141l388 712h105zM393 238l-34 274l-143 -274h177zM580 919q-15 -78 -59 -114.5t-116 -36.5q-62 0 -100.5 35t-38.5 84q0 16 2 32h83q0 -32 17 -48.5t45 -16.5q32 0 53 15.5t30 49.5h84z" />
    <glyph glyph-name="abreve" unicode="&#x103;" horiz-adv-x="509" 
d="M317 224h-95q-41 0 -65 -22.5t-24 -57.5q0 -23 16.5 -36t49.5 -13q49 0 81 32q23 23 31 66zM286 46q-24 -24 -55 -37.5t-71 -13.5q-67 0 -108 38.5t-41 98.5q0 76 47 123q28 28 66.5 41t85.5 13h124l7 31q3 14 3 27q0 56 -77 56q-36 0 -63.5 -13t-48.5 -36l-64 83
q34 35 79 52.5t114 17.5q35 0 67.5 -7.5t59 -24.5t42.5 -45t16 -68q0 -23 -5 -46l-6 -28l-62 -308h-119zM498 742q-15 -78 -59 -114.5t-116 -36.5q-62 0 -100.5 35t-38.5 84q0 16 2 32h83q0 -32 17 -48.5t45 -16.5q32 0 53 15.5t30 49.5h84z" />
    <glyph glyph-name="Aogonek" unicode="&#x104;" horiz-adv-x="607" 
d="M552 0h-134l-15 130h-241l-67 -130h-141l388 712h105zM393 238l-34 274l-143 -274h177zM540 -202h-113l-13 144h90z" />
    <glyph glyph-name="aogonek" unicode="&#x105;" horiz-adv-x="509" 
d="M317 224h-95q-41 0 -65 -22.5t-24 -57.5q0 -23 16.5 -36t49.5 -13q49 0 81 32q23 23 31 66zM286 46q-24 -24 -55 -37.5t-71 -13.5q-67 0 -108 38.5t-41 98.5q0 76 47 123q28 28 66.5 41t85.5 13h124l7 31q3 14 3 27q0 56 -77 56q-36 0 -63.5 -13t-48.5 -36l-64 83
q34 35 79 52.5t114 17.5q35 0 67.5 -7.5t59 -24.5t42.5 -45t16 -68q0 -23 -5 -46l-6 -28l-62 -308h-119zM401 -202h-113l-13 144h90z" />
    <glyph glyph-name="Cacute" unicode="&#x106;" horiz-adv-x="592" 
d="M598 498h-132q0 46 -23 75t-69 29q-31 0 -53.5 -10.5t-42.5 -30.5q-22 -22 -37.5 -67t-33.5 -138q-10 -48 -15.5 -86.5t-5.5 -63.5q0 -45 26.5 -70.5t68.5 -25.5q49 0 82.5 29.5t50.5 74.5h136q-35 -108 -108.5 -164t-169.5 -56q-100 0 -159.5 57.5t-59.5 144.5
q0 23 5 61.5t17 98.5q24 121 44 179t64 102q41 41 92.5 61t105.5 20q105 0 161 -61t56 -159zM546 945l-139 -167h-84l92 167h131z" />
    <glyph glyph-name="cacute" unicode="&#x107;" horiz-adv-x="458" 
d="M463 455l-93 -82q-16 21 -33 32t-39 11q-42 0 -74 -33q-20 -21 -34 -53t-21 -69q-7 -40 -7 -67q0 -42 19 -65.5t55 -23.5q47 0 91 44l69 -89q-33 -31 -77.5 -48.5t-94.5 -17.5q-79 0 -133 49t-54 137q0 38 8 81q14 76 41.5 128.5t63.5 82.5t76.5 42.5t83.5 12.5
q53 0 90 -19.5t63 -52.5zM470 768l-139 -167h-84l92 167h131z" />
    <glyph glyph-name="Ccaron" unicode="&#x10c;" horiz-adv-x="592" 
d="M598 498h-132q0 46 -23 75t-69 29q-31 0 -53.5 -10.5t-42.5 -30.5q-22 -22 -37.5 -67t-33.5 -138q-10 -48 -15.5 -86.5t-5.5 -63.5q0 -45 26.5 -70.5t68.5 -25.5q49 0 82.5 29.5t50.5 74.5h136q-35 -108 -108.5 -164t-169.5 -56q-100 0 -159.5 57.5t-59.5 144.5
q0 23 5 61.5t17 98.5q24 121 44 179t64 102q41 41 92.5 61t105.5 20q105 0 161 -61t56 -159zM598 950l-159 -169h-100l-92 169h92l59 -94l99 94h101z" />
    <glyph glyph-name="ccaron" unicode="&#x10d;" horiz-adv-x="458" 
d="M463 455l-93 -82q-16 21 -33 32t-39 11q-42 0 -74 -33q-20 -21 -34 -53t-21 -69q-7 -40 -7 -67q0 -42 19 -65.5t55 -23.5q47 0 91 44l69 -89q-33 -31 -77.5 -48.5t-94.5 -17.5q-79 0 -133 49t-54 137q0 38 8 81q14 76 41.5 128.5t63.5 82.5t76.5 42.5t83.5 12.5
q53 0 90 -19.5t63 -52.5zM519 773l-159 -169h-100l-92 169h92l59 -94l99 94h101z" />
    <glyph glyph-name="Dcaron" unicode="&#x10e;" horiz-adv-x="626" 
d="M481 502q0 47 -26.5 70.5t-73.5 23.5h-101l-96 -480h100q64 0 104 39q11 11 20 25t17 37.5t16 57.5t18 84q12 62 17 94t5 49zM614 513q0 -22 -4.5 -54t-18.5 -100q-13 -69 -24 -112.5t-23 -75t-27.5 -55t-39.5 -46.5q-73 -70 -196 -70h-253l23 115l120 597h233
q94 0 152 -50t58 -149zM615 950l-159 -169h-100l-92 169h92l59 -94l99 94h101z" />
    <glyph glyph-name="dcaron" unicode="&#x10f;" horiz-adv-x="533" 
d="M352 345q0 30 -13 50.5t-49 20.5q-51 0 -75.5 -37.5t-40.5 -117.5q-5 -27 -8 -48t-3 -36q0 -30 13 -51t49 -21q51 0 75.5 38t40.5 118q5 27 8 48t3 36zM465 261l-52 -261h-120l11 50q-25 -29 -58 -42.5t-71 -13.5q-39 0 -66.5 13t-44 34t-23.5 46.5t-7 52.5q0 39 16 121
q17 84 35.5 135t47.5 80q28 28 61 39.5t71 11.5q37 0 68 -13.5t50 -42.5l48 241h124zM748 667l-134 -92l41 204h115z" />
    <glyph glyph-name="Dcroat" unicode="&#x110;" horiz-adv-x="648" 
d="M636 513q0 -22 -4.5 -54t-18.5 -100q-13 -69 -24 -112.5t-23 -75t-27.5 -55t-39.5 -46.5q-73 -70 -196 -70h-253l23 115l39 195h-66l20 100h66l61 302h233q94 0 152 -50t58 -149zM503 502q0 47 -26.5 70.5t-73.5 23.5h-101l-38 -186h110l-20 -100h-110l-39 -194h100
q66 0 106 39q11 11 19.5 25.5t16.5 37t16 56.5t18 85q12 62 17 94t5 49z" />
    <glyph glyph-name="dcroat" unicode="&#x111;" horiz-adv-x="533" 
d="M598 648l-17 -82h-55l-113 -566h-120l11 50q-25 -29 -58 -42.5t-71 -13.5q-39 0 -66.5 13t-44 34t-23.5 46.5t-7 52.5q0 39 16 121q17 84 35.5 135t47.5 80q28 28 61 39.5t71 11.5q37 0 68 -13.5t50 -42.5l19 95h-62l16 82h62l13 64h124l-13 -64h56zM352 345
q0 30 -13 50.5t-49 20.5q-51 0 -75.5 -37.5t-40.5 -117.5q-5 -27 -8 -48t-3 -36q0 -30 13 -51t49 -21q51 0 75.5 38t40.5 118q5 27 8 48t3 36z" />
    <glyph glyph-name="Emacron" unicode="&#x112;" horiz-adv-x="578" 
d="M615 712l-23 -116h-312l-36 -179h269l-23 -116h-269l-37 -185h318l-23 -116h-451l23 114l120 598h444zM554 888l-17 -82h-301l16 82h302z" />
    <glyph glyph-name="emacron" unicode="&#x113;" horiz-adv-x="524" 
d="M487 341q0 -25 -4.5 -54.5t-11.5 -63.5h-312q0 -7 -2 -19q-2 -11 -2 -18q0 -40 22.5 -63.5t66.5 -23.5q36 0 66 13.5t58 39.5l65 -82q-80 -76 -203 -76q-37 0 -70.5 10t-61.5 31.5t-44.5 57t-16.5 84.5q0 68 16.5 130.5t50 112t83.5 78.5t115 29q84 0 134.5 -50.5
t50.5 -135.5zM369 341q0 40 -20 62t-54 22q-41 0 -72 -29t-48 -90h191q0 6 2 18q1 11 1 17zM504 711l-17 -82h-301l16 82h302z" />
    <glyph glyph-name="Edotaccent" unicode="&#x116;" horiz-adv-x="578" 
d="M615 712l-23 -116h-312l-36 -179h269l-23 -116h-269l-37 -185h318l-23 -116h-451l23 114l120 598h444zM466 885l-21 -103h-126l20 103h127z" />
    <glyph glyph-name="edotaccent" unicode="&#x117;" horiz-adv-x="524" 
d="M487 341q0 -25 -4.5 -54.5t-11.5 -63.5h-312q0 -7 -2 -19q-2 -11 -2 -18q0 -40 22.5 -63.5t66.5 -23.5q36 0 66 13.5t58 39.5l65 -82q-80 -76 -203 -76q-37 0 -70.5 10t-61.5 31.5t-44.5 57t-16.5 84.5q0 68 16.5 130.5t50 112t83.5 78.5t115 29q84 0 134.5 -50.5
t50.5 -135.5zM369 341q0 40 -20 62t-54 22q-41 0 -72 -29t-48 -90h191q0 6 2 18q1 11 1 17zM416 708l-21 -103h-126l20 103h127z" />
    <glyph glyph-name="Eogonek" unicode="&#x118;" horiz-adv-x="578" 
d="M615 712l-23 -116h-312l-36 -179h269l-23 -116h-269l-37 -185h318l-23 -116h-451l23 114l120 598h444zM464 -202h-113l-13 144h90z" />
    <glyph glyph-name="eogonek" unicode="&#x119;" horiz-adv-x="524" 
d="M487 341q0 -25 -4.5 -54.5t-11.5 -63.5h-312q0 -7 -2 -19q-2 -11 -2 -18q0 -40 22.5 -63.5t66.5 -23.5q36 0 66 13.5t58 39.5l65 -82q-80 -76 -203 -76q-37 0 -70.5 10t-61.5 31.5t-44.5 57t-16.5 84.5q0 68 16.5 130.5t50 112t83.5 78.5t115 29q84 0 134.5 -50.5
t50.5 -135.5zM369 341q0 40 -20 62t-54 22q-41 0 -72 -29t-48 -90h191q0 6 2 18q1 11 1 17zM300 -202h-113l-13 144h90z" />
    <glyph glyph-name="Ecaron" unicode="&#x11a;" horiz-adv-x="578" 
d="M615 712l-23 -116h-312l-36 -179h269l-23 -116h-269l-37 -185h318l-23 -116h-451l23 114l120 598h444zM593 950l-159 -169h-100l-92 169h92l59 -94l99 94h101z" />
    <glyph glyph-name="ecaron" unicode="&#x11b;" horiz-adv-x="524" 
d="M487 341q0 -25 -4.5 -54.5t-11.5 -63.5h-312q0 -7 -2 -19q-2 -11 -2 -18q0 -40 22.5 -63.5t66.5 -23.5q36 0 66 13.5t58 39.5l65 -82q-80 -76 -203 -76q-37 0 -70.5 10t-61.5 31.5t-44.5 57t-16.5 84.5q0 68 16.5 130.5t50 112t83.5 78.5t115 29q84 0 134.5 -50.5
t50.5 -135.5zM369 341q0 40 -20 62t-54 22q-41 0 -72 -29t-48 -90h191q0 6 2 18q1 11 1 17zM541 773l-159 -169h-100l-92 169h92l59 -94l99 94h101z" />
    <glyph glyph-name="Gbreve" unicode="&#x11e;" horiz-adv-x="616" 
d="M603 495h-132q0 49 -25 78t-69 29q-29 0 -54 -11.5t-44 -30.5q-25 -25 -39.5 -67t-33.5 -137q-20 -97 -20 -150q0 -50 28 -73t68 -23q50 0 91.5 37t55.5 106l6 31h-125l21 110h256l-19 -102q-15 -78 -37 -128t-62 -90q-39 -39 -89.5 -59.5t-106.5 -20.5q-103 0 -161.5 59
t-58.5 143q0 55 21 160q13 66 23.5 109.5t22 74t26 52.5t36.5 44q40 40 91.5 61t109.5 21q55 0 97 -18t69.5 -49t40.5 -71t13 -85zM574 919q-15 -78 -59 -114.5t-116 -36.5q-62 0 -100.5 35t-38.5 84q0 16 2 32h83q0 -32 17 -48.5t45 -16.5q32 0 53 15.5t30 49.5h84z" />
    <glyph glyph-name="gbreve" unicode="&#x11f;" horiz-adv-x="527" 
d="M176 274q-9 -48 -9 -72q0 -32 15 -50.5t47 -18.5q46 0 71 34.5t39 107.5q9 48 9 72q0 69 -62 69q-46 0 -71 -34.5t-39 -107.5zM411 20q-22 -109 -88.5 -163t-161.5 -54q-57 0 -98.5 17t-74.5 54l86 75q17 -19 36 -30t51 -11q50 0 83 30.5t44 82.5l11 53
q-21 -25 -49.5 -38.5t-66.5 -13.5q-61 0 -102.5 38.5t-41.5 108.5q0 35 13 106q14 78 31.5 124.5t46.5 75.5q28 28 61.5 40t71.5 12q82 0 118 -59l10 53h120l-49 -244zM507 742q-15 -78 -59 -114.5t-116 -36.5q-62 0 -100.5 35t-38.5 84q0 16 2 32h83q0 -32 17 -48.5
t45 -16.5q32 0 53 15.5t30 49.5h84z" />
    <glyph glyph-name="Gcedilla" unicode="&#x122;" horiz-adv-x="616" 
d="M603 495h-132q0 49 -25 78t-69 29q-29 0 -54 -11.5t-44 -30.5q-25 -25 -39.5 -67t-33.5 -137q-20 -97 -20 -150q0 -50 28 -73t68 -23q50 0 91.5 37t55.5 106l6 31h-125l21 110h256l-19 -102q-15 -78 -37 -128t-62 -90q-39 -39 -89.5 -59.5t-106.5 -20.5q-103 0 -161.5 59
t-58.5 143q0 55 21 160q13 66 23.5 109.5t22 74t26 52.5t36.5 44q40 40 91.5 61t109.5 21q55 0 97 -18t69.5 -49t40.5 -71t13 -85zM313 -60l-69 -143h-116l92 143h93z" />
    <glyph glyph-name="gcedilla" unicode="&#x123;" horiz-adv-x="527" 
d="M176 274q-9 -48 -9 -72q0 -32 15 -50.5t47 -18.5q46 0 71 34.5t39 107.5q9 48 9 72q0 69 -62 69q-46 0 -71 -34.5t-39 -107.5zM411 20q-22 -109 -88.5 -163t-161.5 -54q-57 0 -98.5 17t-74.5 54l86 75q17 -19 36 -30t51 -11q50 0 83 30.5t44 82.5l11 53
q-21 -25 -49.5 -38.5t-66.5 -13.5q-61 0 -102.5 38.5t-41.5 108.5q0 35 13 106q14 78 31.5 124.5t46.5 75.5q28 28 61.5 40t71.5 12q82 0 118 -59l10 53h120l-49 -244zM504 768l-139 -167h-84l92 167h131z" />
    <glyph glyph-name="Imacron" unicode="&#x12a;" horiz-adv-x="290" 
d="M303 712l-120 -596l-23 -116h-132l23 116l120 596h132zM411 888l-17 -82h-301l16 82h302z" />
    <glyph glyph-name="imacron" unicode="&#x12b;" horiz-adv-x="262" 
d="M246 521l-81 -405l-23 -116h-124l23 116l81 405h124zM374 711l-17 -82h-301l16 82h302z" />
    <glyph glyph-name="Iogonek" unicode="&#x12e;" horiz-adv-x="290" 
d="M303 712l-120 -596l-23 -116h-132l23 116l120 596h132zM152 -202h-113l-13 144h90z" />
    <glyph glyph-name="iogonek" unicode="&#x12f;" horiz-adv-x="262" 
d="M285 710l-21 -103h-127l20 103h128zM246 521l-81 -405l-23 -116h-124l23 116l81 405h124zM146 -202h-113l-13 144h90z" />
    <glyph glyph-name="Idotaccent" unicode="&#x130;" horiz-adv-x="290" 
d="M303 712l-120 -596l-23 -116h-132l23 116l120 596h132zM331 885l-21 -103h-126l20 103h127z" />
    <glyph glyph-name="dotlessi" unicode="&#x131;" horiz-adv-x="262" 
d="M246 521l-81 -405l-23 -116h-124l23 116l81 405h124z" />
    <glyph glyph-name="Kcedilla" unicode="&#x136;" horiz-adv-x="636" 
d="M702 712l-281 -297l163 -415h-144l-125 329l-113 -110l-20 -103l-23 -116h-131l23 116l120 596h131l-63 -310l299 310h164zM326 -60l-69 -143h-116l92 143h93z" />
    <glyph glyph-name="kcedilla" unicode="&#x137;" horiz-adv-x="534" 
d="M557 521l-218 -217l138 -304h-142l-90 227l-71 -66l-32 -161h-124l61 308l81 404h124l-80 -403l206 212h147zM276 -60l-69 -143h-116l92 143h93z" />
    <glyph glyph-name="Lacute" unicode="&#x139;" horiz-adv-x="550" 
d="M494 116l-23 -116h-443l23 116l120 596h132l-119 -596h310zM537 945l-139 -167h-84l92 167h131z" />
    <glyph glyph-name="lacute" unicode="&#x13a;" horiz-adv-x="311" 
d="M280 712l-111 -555q-3 -13 -3 -22q0 -30 38 -30h51l-21 -105h-68q-55 0 -90 30.5t-35 82.5q0 24 4 43l111 556h124zM418 945l-139 -167h-84l92 167h131z" />
    <glyph glyph-name="Lcedilla" unicode="&#x13b;" horiz-adv-x="550" 
d="M494 116l-23 -116h-443l23 116l120 596h132l-119 -596h310zM282 -60l-69 -143h-116l92 143h93z" />
    <glyph glyph-name="lcedilla" unicode="&#x13c;" horiz-adv-x="311" 
d="M280 712l-111 -555q-3 -13 -3 -22q0 -30 38 -30h51l-21 -105h-68q-55 0 -90 30.5t-35 82.5q0 24 4 43l111 556h124zM165 -60l-69 -143h-116l92 143h93z" />
    <glyph glyph-name="Lcaron" unicode="&#x13d;" horiz-adv-x="550" 
d="M494 116l-23 -116h-443l23 116l120 596h132l-119 -596h310zM542 712l-22 -112l-134 -92l41 204h115z" />
    <glyph glyph-name="lcaron" unicode="&#x13e;" horiz-adv-x="311" 
d="M280 712l-111 -555q-3 -13 -3 -22q0 -30 38 -30h51l-21 -105h-68q-55 0 -90 30.5t-35 82.5q0 24 4 43l111 556h124zM493 779l-22 -112l-134 -92l41 204h115z" />
    <glyph glyph-name="Lslash" unicode="&#x141;" horiz-adv-x="567" 
d="M511 116l-22 -116h-444l23 114l27 131l-70 -41l23 117l70 40l70 351h132l-53 -266l138 81l-24 -118l-137 -80l-43 -213h310z" />
    <glyph glyph-name="lslash" unicode="&#x142;" horiz-adv-x="322" 
d="M315 525l-23 -111l-64 -37l-44 -220q-3 -13 -3 -22q0 -30 39 -30h51l-22 -105h-67q-55 0 -90.5 30.5t-35.5 82.5q0 24 4 43l30 147l-59 -34l22 111l58 33l60 299h123l-45 -224z" />
    <glyph glyph-name="Nacute" unicode="&#x143;" horiz-adv-x="677" 
d="M690 712l-90 -446l-53 -266h-112l-185 445l-90 -445h-132l89 445l54 267h112l186 -446l89 446h132zM601 945l-139 -167h-84l92 167h131z" />
    <glyph glyph-name="nacute" unicode="&#x144;" 
d="M502 383q0 -18 -6 -53q0 -2 -1 -5l-65 -325h-124l63 317q0 5 2 18q2 11 2 16q0 32 -18 48.5t-43 16.5q-15 0 -30.5 -4.5t-31 -15.5t-27.5 -31t-18 -49l-63 -316h-124l64 318l40 203h119l-10 -50q26 27 61.5 41.5t75.5 14.5q24 0 47.5 -8t43.5 -25.5t31.5 -45.5t11.5 -65z
M512 768l-139 -167h-84l92 167h131z" />
    <glyph glyph-name="Ncedilla" unicode="&#x145;" horiz-adv-x="677" 
d="M690 712l-90 -446l-53 -266h-112l-185 445l-90 -445h-132l89 445l54 267h112l186 -446l89 446h132zM347 -60l-69 -143h-116l92 143h93z" />
    <glyph glyph-name="ncedilla" unicode="&#x146;" 
d="M502 383q0 -18 -6 -53q0 -2 -1 -5l-65 -325h-124l63 317q0 5 2 18q2 11 2 16q0 32 -18 48.5t-43 16.5q-15 0 -30.5 -4.5t-31 -15.5t-27.5 -31t-18 -49l-63 -316h-124l64 318l40 203h119l-10 -50q26 27 61.5 41.5t75.5 14.5q24 0 47.5 -8t43.5 -25.5t31.5 -45.5t11.5 -65z
M281 -60l-69 -143h-116l92 143h93z" />
    <glyph glyph-name="Ncaron" unicode="&#x147;" horiz-adv-x="677" 
d="M690 712l-90 -446l-53 -266h-112l-185 445l-90 -445h-132l89 445l54 267h112l186 -446l89 446h132zM641 950l-159 -169h-100l-92 169h92l59 -94l99 94h101z" />
    <glyph glyph-name="ncaron" unicode="&#x148;" 
d="M502 383q0 -18 -6 -53q0 -2 -1 -5l-65 -325h-124l63 317q0 5 2 18q2 11 2 16q0 32 -18 48.5t-43 16.5q-15 0 -30.5 -4.5t-31 -15.5t-27.5 -31t-18 -49l-63 -316h-124l64 318l40 203h119l-10 -50q26 27 61.5 41.5t75.5 14.5q24 0 47.5 -8t43.5 -25.5t31.5 -45.5t11.5 -65z
M551 773l-159 -169h-100l-92 169h92l59 -94l99 94h101z" />
    <glyph glyph-name="Omacron" unicode="&#x14c;" horiz-adv-x="611" 
d="M597 516q0 -23 -5 -60.5t-17 -99.5q-23 -118 -44 -177.5t-65 -103.5q-39 -39 -92.5 -60t-106.5 -21q-98 0 -156 58.5t-58 143.5q0 23 5 60.5t17 99.5q23 118 44.5 178t64.5 103q39 39 92 60t106 21q98 0 156.5 -58t58.5 -144zM463 506q0 45 -26 70.5t-64 25.5
q-57 0 -97 -43q-21 -22 -35.5 -64t-33.5 -139q-10 -49 -15.5 -87t-5.5 -63q0 -45 26.5 -70.5t64.5 -25.5q57 0 97 43q21 22 35.5 64t33.5 139q10 48 15 86.5t5 63.5zM571 888l-17 -82h-301l16 82h302z" />
    <glyph glyph-name="omacron" unicode="&#x14d;" horiz-adv-x="514" 
d="M477 355q0 -21 -3 -44.5t-7 -49.5q-15 -79 -36.5 -126t-56.5 -81q-30 -29 -71 -44.5t-89 -15.5q-31 0 -62 9.5t-57.5 30.5t-42 54.5t-15.5 78.5q0 18 3 40.5t7 46.5q0 4 1 7q15 79 36.5 125.5t56.5 80.5q30 29 71 44.5t89 15.5q32 0 62.5 -9.5t56.5 -30t41.5 -54
t15.5 -78.5zM354 342q0 37 -17.5 55.5t-47.5 18.5q-39 0 -65 -26q-18 -18 -30.5 -48.5t-22.5 -80.5q-6 -33 -8.5 -52t-2.5 -30q0 -36 18 -55t48 -19q38 0 64 26q18 18 30.5 49t22.5 81q6 33 8.5 52t2.5 29zM499 711l-17 -82h-301l16 82h302z" />
    <glyph glyph-name="Ohungarumlaut" unicode="&#x150;" horiz-adv-x="611" 
d="M597 516q0 -23 -5 -60.5t-17 -99.5q-23 -118 -44 -177.5t-65 -103.5q-39 -39 -92.5 -60t-106.5 -21q-98 0 -156 58.5t-58 143.5q0 23 5 60.5t17 99.5q23 118 44.5 178t64.5 103q39 39 92 60t106 21q98 0 156.5 -58t58.5 -144zM463 506q0 45 -26 70.5t-64 25.5
q-57 0 -97 -43q-21 -22 -35.5 -64t-33.5 -139q-10 -49 -15.5 -87t-5.5 -63q0 -45 26.5 -70.5t64.5 -25.5q57 0 97 43q21 22 35.5 64t33.5 139q10 48 15 86.5t5 63.5zM468 945l-140 -167h-84l93 167h131zM665 945l-140 -167h-83l92 167h131z" />
    <glyph glyph-name="ohungarumlaut" unicode="&#x151;" horiz-adv-x="514" 
d="M477 355q0 -21 -3 -44.5t-7 -49.5q-15 -79 -36.5 -126t-56.5 -81q-30 -29 -71 -44.5t-89 -15.5q-31 0 -62 9.5t-57.5 30.5t-42 54.5t-15.5 78.5q0 18 3 40.5t7 46.5q0 4 1 7q15 79 36.5 125.5t56.5 80.5q30 29 71 44.5t89 15.5q32 0 62.5 -9.5t56.5 -30t41.5 -54
t15.5 -78.5zM354 342q0 37 -17.5 55.5t-47.5 18.5q-39 0 -65 -26q-18 -18 -30.5 -48.5t-22.5 -80.5q-6 -33 -8.5 -52t-2.5 -30q0 -36 18 -55t48 -19q38 0 64 26q18 18 30.5 49t22.5 81q6 33 8.5 52t2.5 29zM394 768l-140 -167h-84l93 167h131zM591 768l-140 -167h-83l92 167
h131z" />
    <glyph glyph-name="OE" unicode="&#x152;" horiz-adv-x="918" 
d="M955 712l-23 -117h-311l-35 -177h267l-24 -117h-266l-37 -184h316l-23 -117h-434l9 48q-24 -26 -56 -40t-76 -14q-43 0 -81.5 14.5t-67 41t-44.5 64t-16 82.5q0 23 5 60.5t17 99.5q23 118 44.5 178t64.5 103q41 41 93.5 61t103.5 20q44 0 78 -16t51 -44l11 54h434z
M464 505q0 45 -25.5 71t-64.5 26q-58 0 -98 -43q-20 -22 -34.5 -63.5t-34.5 -139.5q-21 -106 -21 -149q0 -45 25.5 -71t64.5 -26q57 0 97 43q21 22 35.5 64t34.5 139q9 41 12 63q9 56 9 86z" />
    <glyph glyph-name="oe" unicode="&#x153;" horiz-adv-x="823" 
d="M354 342q0 37 -17.5 55.5t-47.5 18.5q-39 0 -65 -26q-18 -18 -30.5 -48.5t-22.5 -80.5q-6 -33 -8.5 -52t-2.5 -30q0 -36 18 -55t48 -19q38 0 64 26q18 18 30.5 49t22.5 81q3 16 7 37l1 8q3 27 3 36zM439 459q31 35 72 51.5t89 16.5q84 0 135 -50t51 -136
q0 -25 -4.5 -54.5t-11.5 -63.5h-313q0 -7 -2 -19q-2 -11 -2 -18q0 -40 23 -63.5t67 -23.5q36 0 65.5 13t57.5 40l65 -82q-80 -76 -202 -76q-46 0 -86 16t-66 53q-60 -69 -163 -69q-31 0 -62 9.5t-57.5 30.5t-42 54.5t-15.5 78.5q0 18 3 40.5t7 46.5q0 4 1 7
q15 79 36.5 125.5t56.5 80.5q30 29 71 44.5t89 15.5q43 0 79.5 -17t58.5 -51zM667 341q0 40 -20 62t-54 22q-41 0 -72 -29t-48 -90h191q0 6 2 18q1 11 1 17z" />
    <glyph glyph-name="Racute" unicode="&#x154;" horiz-adv-x="625" 
d="M483 514q0 39 -21.5 60t-61.5 21h-120l-40 -197h120q32 0 55.5 11t38.5 28.5t22 37.5t7 39zM615 521q0 -70 -43 -130.5t-123 -87.5l98 -303h-145l-83 288h-100l-59 -288h-132l120 595l23 117h250q52 0 89.5 -15t60.5 -42t33.5 -61t10.5 -73zM575 945l-139 -167h-84
l92 167h131z" />
    <glyph glyph-name="racute" unicode="&#x155;" horiz-adv-x="430" 
d="M367 383l-1 1q-11 14 -23.5 22.5t-32.5 8.5q-37 0 -66.5 -27.5t-38.5 -72.5l-63 -315h-124l63 314l41 207h120l-11 -51q22 26 57 41.5t75 15.5q37 0 63.5 -12t47.5 -37zM456 768l-139 -167h-84l92 167h131z" />
    <glyph glyph-name="Rcedilla" unicode="&#x156;" horiz-adv-x="625" 
d="M483 514q0 39 -21.5 60t-61.5 21h-120l-40 -197h120q32 0 55.5 11t38.5 28.5t22 37.5t7 39zM615 521q0 -70 -43 -130.5t-123 -87.5l98 -303h-145l-83 288h-100l-59 -288h-132l120 595l23 117h250q52 0 89.5 -15t60.5 -42t33.5 -61t10.5 -73zM321 -60l-69 -143h-116
l92 143h93z" />
    <glyph glyph-name="rcedilla" unicode="&#x157;" horiz-adv-x="430" 
d="M367 383l-1 1q-11 14 -23.5 22.5t-32.5 8.5q-37 0 -66.5 -27.5t-38.5 -72.5l-63 -315h-124l63 314l41 207h120l-11 -51q22 26 57 41.5t75 15.5q37 0 63.5 -12t47.5 -37zM149 -60l-69 -143h-116l92 143h93z" />
    <glyph glyph-name="Rcaron" unicode="&#x158;" horiz-adv-x="625" 
d="M483 514q0 39 -21.5 60t-61.5 21h-120l-40 -197h120q32 0 55.5 11t38.5 28.5t22 37.5t7 39zM615 521q0 -70 -43 -130.5t-123 -87.5l98 -303h-145l-83 288h-100l-59 -288h-132l120 595l23 117h250q52 0 89.5 -15t60.5 -42t33.5 -61t10.5 -73zM615 950l-159 -169h-100
l-92 169h92l59 -94l99 94h101z" />
    <glyph glyph-name="rcaron" unicode="&#x159;" horiz-adv-x="430" 
d="M367 383l-1 1q-11 14 -23.5 22.5t-32.5 8.5q-37 0 -66.5 -27.5t-38.5 -72.5l-63 -315h-124l63 314l41 207h120l-11 -51q22 26 57 41.5t75 15.5q37 0 63.5 -12t47.5 -37zM495 773l-159 -169h-100l-92 169h92l59 -94l99 94h101z" />
    <glyph glyph-name="Sacute" unicode="&#x15a;" horiz-adv-x="563" 
d="M577 632l-93 -81q-23 27 -53 39.5t-73 12.5q-59 0 -95.5 -33t-36.5 -75q0 -31 20 -46t56 -24l29 -7l30 -7q87 -21 124 -64.5t37 -120.5q0 -58 -22.5 -102t-62.5 -73t-91.5 -43t-108.5 -14q-84 0 -139.5 22.5t-100.5 75.5l96 84q55 -65 156 -65q59 0 100 30t41 73
q0 36 -18.5 53t-56.5 26l-32 8l-27 7q-83 21 -122.5 66t-39.5 103q0 51 19 95t55.5 77t88.5 51t116 18t116.5 -21.5t87.5 -64.5zM544 945l-139 -167h-84l92 167h131z" />
    <glyph glyph-name="sacute" unicode="&#x15b;" horiz-adv-x="475" 
d="M459 463l-85 -75q-17 18 -43.5 27.5t-55.5 9.5q-44 0 -67.5 -18.5t-23.5 -44.5q0 -31 48 -39l67 -11q67 -11 96.5 -44.5t29.5 -90.5q0 -38 -14.5 -69t-41.5 -57q-30 -29 -78.5 -43t-102.5 -14q-68 0 -116.5 19.5t-84.5 58.5l89 78q21 -24 49.5 -37t70.5 -13q50 0 78 20
t28 45q0 20 -12.5 29.5t-36.5 13.5l-68 11q-66 10 -95.5 43t-29.5 75q0 77 53 130q60 60 173 60q56 0 98 -15t75 -49zM478 768l-139 -167h-84l92 167h131z" />
    <glyph glyph-name="Scommaaccent" unicode="&#x15e;" horiz-adv-x="563" 
d="M577 632l-93 -81q-23 27 -53 39.5t-73 12.5q-59 0 -95.5 -33t-36.5 -75q0 -31 20 -46t56 -24l29 -7l30 -7q87 -21 124 -64.5t37 -120.5q0 -58 -22.5 -102t-62.5 -73t-91.5 -43t-108.5 -14q-84 0 -139.5 22.5t-100.5 75.5l96 84q55 -65 156 -65q59 0 100 30t41 73
q0 36 -18.5 53t-56.5 26l-32 8l-27 7q-83 21 -122.5 66t-39.5 103q0 51 19 95t55.5 77t88.5 51t116 18t116.5 -21.5t87.5 -64.5zM291 -60l-69 -143h-116l92 143h93z" />
    <glyph glyph-name="scommaaccent" unicode="&#x15f;" horiz-adv-x="475" 
d="M459 463l-85 -75q-17 18 -43.5 27.5t-55.5 9.5q-44 0 -67.5 -18.5t-23.5 -44.5q0 -31 48 -39l67 -11q67 -11 96.5 -44.5t29.5 -90.5q0 -38 -14.5 -69t-41.5 -57q-30 -29 -78.5 -43t-102.5 -14q-68 0 -116.5 19.5t-84.5 58.5l89 78q21 -24 49.5 -37t70.5 -13q50 0 78 20
t28 45q0 20 -12.5 29.5t-36.5 13.5l-68 11q-66 10 -95.5 43t-29.5 75q0 77 53 130q60 60 173 60q56 0 98 -15t75 -49zM247 -60l-69 -143h-116l92 143h93z" />
    <glyph glyph-name="Scaron" unicode="&#x160;" horiz-adv-x="563" 
d="M577 632l-93 -81q-23 27 -53 39.5t-73 12.5q-59 0 -95.5 -33t-36.5 -75q0 -31 20 -46t56 -24l29 -7l30 -7q87 -21 124 -64.5t37 -120.5q0 -58 -22.5 -102t-62.5 -73t-91.5 -43t-108.5 -14q-84 0 -139.5 22.5t-100.5 75.5l96 84q55 -65 156 -65q59 0 100 30t41 73
q0 36 -18.5 53t-56.5 26l-32 8l-27 7q-83 21 -122.5 66t-39.5 103q0 51 19 95t55.5 77t88.5 51t116 18t116.5 -21.5t87.5 -64.5zM572 950l-159 -169h-100l-92 169h92l59 -94l99 94h101z" />
    <glyph glyph-name="scaron" unicode="&#x161;" horiz-adv-x="475" 
d="M459 463l-85 -75q-17 18 -43.5 27.5t-55.5 9.5q-44 0 -67.5 -18.5t-23.5 -44.5q0 -31 48 -39l67 -11q67 -11 96.5 -44.5t29.5 -90.5q0 -38 -14.5 -69t-41.5 -57q-30 -29 -78.5 -43t-102.5 -14q-68 0 -116.5 19.5t-84.5 58.5l89 78q21 -24 49.5 -37t70.5 -13q50 0 78 20
t28 45q0 20 -12.5 29.5t-36.5 13.5l-68 11q-66 10 -95.5 43t-29.5 75q0 77 53 130q60 60 173 60q56 0 98 -15t75 -49zM505 773l-159 -169h-100l-92 169h92l59 -94l99 94h101z" />
    <glyph glyph-name="Tcommaaccent" unicode="&#x162;" 
d="M605 712l-23 -117h-175l-119 -595h-132l119 595h-179l23 117h486zM281 -60l-69 -143h-116l92 143h93z" />
    <glyph glyph-name="tcommaaccent" unicode="&#x163;" horiz-adv-x="337" 
d="M341 507l-19 -96h-86l-51 -256q-2 -8 -2 -19q0 -32 40 -32h45l-21 -104h-64q-55 0 -90.5 30.5t-35.5 82.5q0 10 2 27q2 11 2 16l51 255h-53l19 96h53l31 154h124l-31 -154h86zM178 -60l-69 -143h-116l92 143h93z" />
    <glyph glyph-name="Tcaron" unicode="&#x164;" 
d="M605 712l-23 -117h-175l-119 -595h-132l119 595h-179l23 117h486zM574 950l-159 -169h-100l-92 169h92l59 -94l99 94h101z" />
    <glyph glyph-name="tcaron" unicode="&#x165;" horiz-adv-x="337" 
d="M341 507l-19 -96h-86l-51 -256q-2 -8 -2 -19q0 -32 40 -32h45l-21 -104h-64q-55 0 -90.5 30.5t-35.5 82.5q0 10 2 27q2 11 2 16l51 255h-53l19 96h53l31 154h124l-31 -154h86zM480 667l-134 -92l41 204h115z" />
    <glyph glyph-name="Umacron" unicode="&#x16a;" horiz-adv-x="635" 
d="M658 712l-23 -116l-71 -352q-25 -125 -102.5 -187.5t-182.5 -62.5q-93 0 -155 55.5t-62 147.5q0 13 2.5 31t4.5 30l91 454h132l-93 -462q0 -6 -2 -20q-3 -16 -3 -24q0 -40 23.5 -67.5t70.5 -27.5q57 0 95 38t52 108l68 339l23 116h132zM583 888l-17 -82h-301l16 82h302z
" />
    <glyph glyph-name="umacron" unicode="&#x16b;" 
d="M314 50q-26 -26 -61.5 -41t-75.5 -15q-24 0 -47.5 8.5t-43 26t-31 45.5t-11.5 65q0 23 6 57l65 325h124l-63 -317q0 -5 -2 -18q-2 -11 -2 -16q0 -32 18.5 -48.5t43.5 -16.5q15 0 30.5 4.5t30.5 15.5t27 31t18 49l44 221l19 95h124l-19 -94l-84 -427h-119zM514 711
l-17 -82h-301l16 82h302z" />
    <glyph glyph-name="Uring" unicode="&#x16e;" horiz-adv-x="635" 
d="M658 712l-23 -116l-71 -352q-25 -125 -102.5 -187.5t-182.5 -62.5q-93 0 -155 55.5t-62 147.5q0 13 2.5 31t4.5 30l91 454h132l-93 -462q0 -6 -2 -20q-3 -16 -3 -24q0 -40 23.5 -67.5t70.5 -27.5q57 0 95 38t52 108l68 339l23 116h132zM564 888q0 -54 -37.5 -90.5
t-89.5 -36.5t-89 36.5t-37 90.5t37 90t89 36q53 0 90 -36t37 -90zM496 888q0 24 -17.5 41t-41.5 17q-23 0 -40.5 -17t-17.5 -41t17.5 -41.5t40.5 -17.5t41 17.5t18 41.5z" />
    <glyph glyph-name="uring" unicode="&#x16f;" 
d="M314 50q-26 -26 -61.5 -41t-75.5 -15q-24 0 -47.5 8.5t-43 26t-31 45.5t-11.5 65q0 23 6 57l65 325h124l-63 -317q0 -5 -2 -18q-2 -11 -2 -16q0 -32 18.5 -48.5t43.5 -16.5q15 0 30.5 4.5t30.5 15.5t27 31t18 49l44 221l19 95h124l-19 -94l-84 -427h-119zM487 711
q0 -54 -37.5 -90.5t-89.5 -36.5t-89 36.5t-37 90.5t37 90t89 36q53 0 90 -36t37 -90zM419 711q0 24 -17.5 41t-41.5 17q-23 0 -40.5 -17t-17.5 -41t17.5 -41.5t40.5 -17.5t41 17.5t18 41.5z" />
    <glyph glyph-name="Uhungarumlaut" unicode="&#x170;" horiz-adv-x="635" 
d="M658 712l-23 -116l-71 -352q-25 -125 -102.5 -187.5t-182.5 -62.5q-93 0 -155 55.5t-62 147.5q0 13 2.5 31t4.5 30l91 454h132l-93 -462q0 -6 -2 -20q-3 -16 -3 -24q0 -40 23.5 -67.5t70.5 -27.5q57 0 95 38t52 108l68 339l23 116h132zM480 945l-140 -167h-84l93 167h131
zM677 945l-140 -167h-83l92 167h131z" />
    <glyph glyph-name="uhungarumlaut" unicode="&#x171;" 
d="M314 50q-26 -26 -61.5 -41t-75.5 -15q-24 0 -47.5 8.5t-43 26t-31 45.5t-11.5 65q0 23 6 57l65 325h124l-63 -317q0 -5 -2 -18q-2 -11 -2 -16q0 -32 18.5 -48.5t43.5 -16.5q15 0 30.5 4.5t30.5 15.5t27 31t18 49l44 221l19 95h124l-19 -94l-84 -427h-119zM409 768
l-140 -167h-84l93 167h131zM606 768l-140 -167h-83l92 167h131z" />
    <glyph glyph-name="Uogonek" unicode="&#x172;" horiz-adv-x="635" 
d="M658 712l-23 -116l-71 -352q-25 -125 -102.5 -187.5t-182.5 -62.5q-93 0 -155 55.5t-62 147.5q0 13 2.5 31t4.5 30l91 454h132l-93 -462q0 -6 -2 -20q-3 -16 -3 -24q0 -40 23.5 -67.5t70.5 -27.5q57 0 95 38t52 108l68 339l23 116h132zM348 -202h-113l-13 144h90z" />
    <glyph glyph-name="uogonek" unicode="&#x173;" 
d="M314 50q-26 -26 -61.5 -41t-75.5 -15q-24 0 -47.5 8.5t-43 26t-31 45.5t-11.5 65q0 23 6 57l65 325h124l-63 -317q0 -5 -2 -18q-2 -11 -2 -16q0 -32 18.5 -48.5t43.5 -16.5q15 0 30.5 4.5t30.5 15.5t27 31t18 49l44 221l19 95h124l-19 -94l-84 -427h-119zM433 -202h-113
l-13 144h90z" />
    <glyph glyph-name="Ydieresis" unicode="&#x178;" horiz-adv-x="550" 
d="M635 712l-286 -425l-58 -287h-132l59 292l-129 420h140l76 -295l184 295h146zM546 902l-24 -122h-106l24 122h106zM336 902l-24 -122h-105l24 122h105z" />
    <glyph glyph-name="Zacute" unicode="&#x179;" horiz-adv-x="526" 
d="M575 712l-21 -103l-9 -12l-373 -480h290l-24 -117h-450l22 105l9 12l370 478h-275l23 117h438zM525 945l-139 -167h-84l92 167h131z" />
    <glyph glyph-name="zacute" unicode="&#x17a;" horiz-adv-x="461" 
d="M470 521l-19 -95l-279 -315h223l-22 -111h-386l19 95l277 315h-208l22 111h373zM471 768l-139 -167h-84l92 167h131z" />
    <glyph glyph-name="Zdotaccent" unicode="&#x17b;" horiz-adv-x="526" 
d="M575 712l-21 -103l-9 -12l-373 -480h290l-24 -117h-450l22 105l9 12l370 478h-275l23 117h438zM440 885l-21 -103h-126l20 103h127z" />
    <glyph glyph-name="zdotaccent" unicode="&#x17c;" horiz-adv-x="461" 
d="M470 521l-19 -95l-279 -315h223l-22 -111h-386l19 95l277 315h-208l22 111h373zM385 708l-21 -103h-126l20 103h127z" />
    <glyph glyph-name="Zcaron" unicode="&#x17d;" horiz-adv-x="526" 
d="M575 712l-21 -103l-9 -12l-373 -480h290l-24 -117h-450l22 105l9 12l370 478h-275l23 117h438zM562 950l-159 -169h-100l-92 169h92l59 -94l99 94h101z" />
    <glyph glyph-name="zcaron" unicode="&#x17e;" horiz-adv-x="461" 
d="M470 521l-19 -95l-279 -315h223l-22 -111h-386l19 95l277 315h-208l22 111h373zM506 773l-159 -169h-100l-92 169h92l59 -94l99 94h101z" />
    <glyph glyph-name="florin" unicode="&#x192;" horiz-adv-x="406" 
d="M469 719l-20 -103h-64q-45 0 -62 -48l-62 -171h93l-20 -94h-107l-181 -494h-124l181 494h-64l18 94h81l63 174q29 81 76.5 114.5t124.5 33.5h67z" />
    <glyph glyph-name="circumflex" unicode="&#x2c6;" horiz-adv-x="475" 
d="M483 604h-92l-59 94l-99 -94h-101l159 169h100z" />
    <glyph glyph-name="caron" unicode="&#x2c7;" horiz-adv-x="475" 
d="M517 773l-159 -169h-100l-92 169h92l59 -94l99 94h101z" />
    <glyph glyph-name="breve" unicode="&#x2d8;" horiz-adv-x="475" 
d="M491 742q-15 -78 -59 -114.5t-116 -36.5q-62 0 -100.5 35t-38.5 84q0 16 2 32h83q0 -32 17 -48.5t45 -16.5q32 0 53 15.5t30 49.5h84z" />
    <glyph glyph-name="dotaccent" unicode="&#x2d9;" horiz-adv-x="475" 
d="M392 708l-21 -103h-126l20 103h127z" />
    <glyph glyph-name="ring" unicode="&#x2da;" horiz-adv-x="475" 
d="M453 711q0 -54 -37.5 -90.5t-89.5 -36.5t-89 36.5t-37 90.5t37 90t89 36q53 0 90 -36t37 -90zM385 711q0 24 -17.5 41t-41.5 17q-23 0 -40.5 -17t-17.5 -41t17.5 -41.5t40.5 -17.5t41 17.5t18 41.5z" />
    <glyph glyph-name="ogonek" unicode="&#x2db;" horiz-adv-x="475" 
d="M224 -202h-113l-13 144h90z" />
    <glyph glyph-name="tilde" unicode="&#x2dc;" horiz-adv-x="475" 
d="M495 670q-28 -27 -54 -39.5t-57 -12.5q-24 0 -41.5 5.5t-35.5 16.5q-16 10 -27.5 14t-25.5 4q-17 0 -32 -8t-30 -23l-45 59q28 27 54 39.5t57 12.5q24 0 41.5 -5.5t35.5 -16.5q16 -9 27 -13t26 -4q17 0 32 8t30 23z" />
    <glyph glyph-name="hungarumlaut" unicode="&#x2dd;" horiz-adv-x="475" 
d="M347 768l-140 -167h-84l93 167h131zM544 768l-140 -167h-83l92 167h131z" />
    <glyph glyph-name="endash" unicode="&#x2013;" horiz-adv-x="516" 
d="M486 343l-23 -115h-420l22 115h421z" />
    <glyph glyph-name="emdash" unicode="&#x2014;" horiz-adv-x="975" 
d="M939 348l-24 -119h-864l23 119h865z" />
    <glyph glyph-name="quoteleft" unicode="&#x2018;" horiz-adv-x="258" 
d="M306 817l-45 -228h-129l24 123z" />
    <glyph glyph-name="quoteright" unicode="&#x2019;" horiz-adv-x="258" 
d="M285 712l-24 -124l-150 -104l45 228h129z" />
    <glyph glyph-name="quotesinglbase" unicode="&#x201a;" horiz-adv-x="258" 
d="M168 124l-25 -124l-149 -104l45 228h129z" />
    <glyph glyph-name="quotedblleft" unicode="&#x201c;" horiz-adv-x="458" 
d="M506 817l-46 -228h-128l24 123zM306 817l-46 -228h-128l24 123z" />
    <glyph glyph-name="quotedblright" unicode="&#x201d;" horiz-adv-x="458" 
d="M485 712l-25 -124l-149 -104l45 228h129zM285 712l-25 -124l-149 -104l45 228h129z" />
    <glyph glyph-name="quotedblbase" unicode="&#x201e;" horiz-adv-x="458" 
d="M368 124l-25 -124l-150 -104l45 228h130zM167 124l-24 -124l-149 -104l45 228h128z" />
    <glyph glyph-name="dagger" unicode="&#x2020;" horiz-adv-x="550" 
d="M550 526l-22 -110h-159l-83 -416h-124l83 416h-159l22 110h159l37 186h124l-37 -186h159z" />
    <glyph glyph-name="daggerdbl" unicode="&#x2021;" horiz-adv-x="550" 
d="M550 526l-22 -110h-159l-62 -305h161l-22 -110h-161l-38 -192h-123l38 192h-158l22 110h158l61 305h-159l22 110h159l37 186h124l-37 -186h159z" />
    <glyph glyph-name="bullet" unicode="&#x2022;" horiz-adv-x="469" 
d="M404 334q0 -68 -43 -111t-111 -43t-111 43t-43 111t43 111t111 43t111 -43t43 -111z" />
    <glyph glyph-name="ellipsis" unicode="&#x2026;" horiz-adv-x="804" 
d="M446 136l-28 -136h-134l27 136h135zM715 136l-26 -136h-135l28 136h133zM175 136l-26 -136h-135l28 136h133z" />
    <glyph glyph-name="perthousand" unicode="&#x2030;" horiz-adv-x="1161" 
d="M392 608q0 -17 -3 -32l-17 -93q-12 -69 -53.5 -103.5t-106.5 -34.5q-49 0 -83.5 28.5t-34.5 82.5q0 14 3 32l17 93q13 69 54 103t106 34q49 0 83.5 -28t34.5 -82zM303 597q0 17 -9.5 29t-31.5 12q-25 0 -39 -16t-19 -42l-18 -93q-2 -8 -2 -21q0 -17 9 -29t31 -12
q25 0 39 16t19 42l18 94q3 12 3 20zM989 367q49 0 83.5 -28t34.5 -82q0 -15 -3 -32l-17 -93q-12 -69 -53.5 -103.5t-106.5 -34.5q-49 0 -83.5 28.5t-34.5 82.5q0 14 3 32l18 93q13 69 54 103t105 34zM1018 246q0 17 -9.5 29t-31.5 12q-25 0 -39 -16t-19 -42l-18 -93
q-2 -8 -2 -21q0 -17 9 -29t31 -12q25 0 39.5 16t19.5 42l17 94q0 2 2 8q1 7 1 12zM763 257q0 -18 -3 -32l-17 -93q-12 -69 -53.5 -103.5t-106.5 -34.5q-49 0 -83.5 28.5t-34.5 82.5q0 17 3 32l18 93q13 69 54 103t105 34q49 0 83.5 -28t34.5 -82zM674 246q0 17 -9.5 29
t-31.5 12q-25 0 -39 -16t-19 -42l-18 -93q-2 -8 -2 -21q0 -17 9 -29t31 -12q25 0 39 16t19 42l18 94q3 12 3 20zM710 712l-463 -712h-100l463 712h100z" />
    <glyph glyph-name="guilsinglleft" unicode="&#x2039;" horiz-adv-x="333" 
d="M323 521l-33 -160l-111 -96l73 -96l-27 -142l-189 249z" />
    <glyph glyph-name="guilsinglright" unicode="&#x203a;" horiz-adv-x="333" 
d="M305 273l-287 -246l32 160l111 96l-73 97l28 141z" />
    <glyph glyph-name="fraction" unicode="&#x2044;" horiz-adv-x="200" 
d="M401 712l-462 -712h-100l463 712h99z" />
    <glyph glyph-name="uni20AC" unicode="&#x20ac;" horiz-adv-x="650" 
d="M642 498h-132q0 46 -23 75t-69 29q-30 0 -52.5 -10t-43.5 -31q-14 -14 -24 -34.5t-19 -53.5h142l-16 -78h-146l-15 -75h147l-14 -78h-144q0 -7 -1 -21q-1 -10 -1 -15q0 -45 26.5 -70.5t67.5 -25.5q45 0 80 29t53 75h136q-34 -104 -106 -162t-173 -58q-99 0 -158.5 57.5
t-59.5 144.5q0 18 5 46h-69l14 78h66l15 75h-66l14 78h69q15 57 33 95t49 69q41 41 93 61t106 20q105 0 160.5 -61t55.5 -159z" />
    <glyph glyph-name="trademark" unicode="&#x2122;" horiz-adv-x="878" 
d="M909 712l-84 -427h-92l51 253l-106 -153h-79l-46 155l-52 -255h-90l84 427h89l70 -228l163 228h92zM431 712l-15 -81h-103l-70 -346h-89l69 346h-106l16 81h298z" />
    <glyph glyph-name="periodcentered" unicode="&#x2219;" horiz-adv-x="271" 
d="M226 356l-28 -141h-141l28 141h141z" />
    <glyph glyph-name="fi" unicode="&#xf001;" horiz-adv-x="576" 
d="M599 710l-21 -103h-127l20 103h128zM560 521l-81 -405l-23 -116h-124l23 116l81 405h124zM392 720l-21 -105h-44q-47 0 -57 -51l-12 -57h92l-19 -95h-92l-82 -412h-124l82 412h-51l19 95h51l15 70q15 70 57 106.5t113 36.5h73z" />
    <glyph glyph-name="fl" unicode="&#xf002;" horiz-adv-x="629" 
d="M597 712l-111 -555q-3 -13 -3 -22q0 -30 38 -30h51l-21 -105h-68q-55 0 -90 30.5t-35 82.5q0 24 4 43l111 556h124zM392 720l-21 -105h-44q-47 0 -57 -51l-12 -59h92l-19 -95h-92l-82 -410h-124l82 410h-51l19 95h51l15 72q15 70 57 106.5t113 36.5h73z" />
    <glyph glyph-name="NULL" horiz-adv-x="220" 
 />
    </font>
</defs>
</svg>
