<svg xmlns="http://www.w3.org/2000/svg" viewBox="0 0 24 24"><title>football-turf-small</title><path d="M18.75,3H5.25A2.25,2.25,0,0,0,3,5.25v13.5A2.25,2.25,0,0,0,5.25,21h9L21,14.25v-9A2.25,2.25,0,0,0,18.75,3ZM16.92,16.92l-1.67,1.67V16.5a1.25,1.25,0,0,1,1.25-1.25h2.09Zm-.42-2.67a2.25,2.25,0,0,0-2.25,2.25v3.09l-.41.41H5.25A1.25,1.25,0,0,1,4,18.75V5.25A1.25,1.25,0,0,1,5.25,4h13.5A1.25,1.25,0,0,1,20,5.25v8.59l-.41.41ZM9.13,7.5V8.63a.5.5,0,0,1-1,0V7.5a.63.63,0,0,0-1.25,0V8.63a.5.5,0,0,1-1,0V7.5a1.63,1.63,0,0,1,3.25,0Zm9,0V8.63a.5.5,0,0,1-1,0V7.5a.63.63,0,0,0-1.25,0V8.63a.5.5,0,0,1-1,0V7.5a1.63,1.63,0,0,1,3.25,0ZM13.63,12v1.13a.5.5,0,0,1-1,0V12a.63.63,0,0,0-1.25,0v1.13a.5.5,0,0,1-1,0V12a1.63,1.63,0,0,1,3.25,0Zm-4.5,4.5v1.13a.5.5,0,0,1-1,0V16.5a.63.63,0,0,0-1.25,0v1.13a.5.5,0,0,1-1,0V16.5a1.63,1.63,0,0,1,3.25,0Z"/></svg>