<svg xmlns="http://www.w3.org/2000/svg" viewBox="0 0 24 24"><title>football-sala-big</title><path d="M22,11.55V10.22a.21.21,0,0,0,0-.1v0L21.9,10h0l-9.79-4.9a.21.21,0,0,0-.19,0L2.12,10h0L2,10.1v0a.21.21,0,0,0,0,.1v1.34a.21.21,0,0,0,.12.19L4,12.67l-1.85.93a.21.21,0,0,0,0,.37l9.79,4.9.09,0,.09,0L21.88,14a.21.21,0,0,0,0-.37L20,12.67l1.85-.93A.21.21,0,0,0,22,11.55Zm-.42-.13-2.36,1.18-7,3.51v-.87c1.64-.82,7.89-4,9.38-4.68C21.53,10.56,21.65,11.39,21.58,11.43ZM7.1,8,9.9,9.4,5.47,11.62l-2.8-1.4ZM14.8,7,10.37,9.17l-2.8-1.4L12,5.56Zm6.53,3.26-.42.21-4,2L14.1,11l4.43-2.21L20.91,10ZM12,14.88l-2.8-1.4,4.43-2.22,2.8,1.4ZM15.21,10,8.74,13.25l-2.8-1.4,9.33-4.66,2.8,1.4Zm-12.8.55L11,14.87l.75.38v.87L5.62,13l-3.2-1.6Z"/></svg>