<svg xmlns="http://www.w3.org/2000/svg" viewBox="0 0 24 24"><title>football-hardground-big</title><path d="M22,12V9.77c0-.15-.07-.44-.51-.66L13,4.89a2.58,2.58,0,0,0-2.08,0L2.51,9.12c-.44.22-.51.51-.51.66V12c0,.15.07.44.51.66l.91.45-.91.45c-.44.22-.51.51-.51.66s.07.44.51.66L11,19.11a2.58,2.58,0,0,0,2.08,0l8.46-4.23c.44-.22.51-.51.51-.66s-.07-.44-.51-.66l-.91-.45.91-.45C21.93,12.44,22,12.15,22,12Zm-2.11,1-.23.12-6.8,3.4a2.18,2.18,0,0,1-1.7,0l-6.8-3.4L4.11,13l-.23-.12-1.19-.59c-.17-.09-.28-.19-.28-.29V10.38l.09.05L5.64,12l.23.12.23.12L11,14.66a2.58,2.58,0,0,0,2.08,0l4.4-2.2a.21.21,0,0,0,.09-.28h0a.21.21,0,0,0-.28-.09l-4.4,2.2a2.18,2.18,0,0,1-1.7,0L6.57,12l-.23-.12-.23-.12L2.69,10.06c-.17-.09-.28-.19-.28-.29s.1-.2.28-.29l8.46-4.23a2.18,2.18,0,0,1,1.7,0l8.46,4.23c.17.09.28.19.28.29s-.1.2-.28.29L19.47,11a.21.21,0,0,0-.09.28h0a.21.21,0,0,0,.28.09l1.83-.92.09-.05V12c0,.09-.1.2-.28.29l-1.19.59ZM11.21,7.82A.21.21,0,0,1,11,8h-.14a.21.21,0,1,1,0-.42H11A.21.21,0,0,1,11.21,7.82ZM5.91,9.5a.21.21,0,0,1-.21.21H5.53a.21.21,0,0,1,0-.42H5.7A.21.21,0,0,1,5.91,9.5Zm1.55,1a.21.21,0,0,1-.21.21H7.14a.21.21,0,1,1,0-.42h.11A.21.21,0,0,1,7.46,10.48ZM18.08,9.16a.21.21,0,0,1-.21.21h-.14a.21.21,0,0,1,0-.42h.14A.21.21,0,0,1,18.08,9.16Zm-4.43,2.38a.21.21,0,0,1-.21.21h-.2a.21.21,0,1,1,0-.42h.2A.21.21,0,0,1,13.65,11.54Z"/></svg>