<svg xmlns="http://www.w3.org/2000/svg" viewBox="0 0 24 24"><title>football-multiground-big</title><path d="M10.18,7.68a.2.2,0,0,1,0-.09V7.14a.21.21,0,1,1,.42,0v.45a.21.21,0,0,1-.39.09Zm-1.45.93a.21.21,0,0,0,.21-.21V8a.21.21,0,0,0-.42,0V8.4a.2.2,0,0,0,0,.09A.21.21,0,0,0,8.74,8.61ZM7.1,9.43a.21.21,0,0,0,.21-.21V8.77a.21.21,0,1,0-.42,0v.45a.2.2,0,0,0,0,.09A.21.21,0,0,0,7.1,9.43Zm-1.63.82A.21.21,0,0,0,5.68,10V9.59a.21.21,0,0,0-.42,0V10a.2.2,0,0,0,0,.09A.21.21,0,0,0,5.47,10.24Zm-1.63.82A.21.21,0,0,0,4,10.85v-.45a.21.21,0,0,0-.42,0v.45a.2.2,0,0,0,0,.09A.21.21,0,0,0,3.84,11.06ZM12,7a.21.21,0,0,0,.18-.12.2.2,0,0,0,0-.09V6.33a.21.21,0,1,0-.42,0v.45a.2.2,0,0,0,0,.09A.21.21,0,0,0,12,7Zm1.63.82a.21.21,0,0,0,.18-.12.2.2,0,0,0,0-.09V7.14a.21.21,0,0,0-.42,0v.45A.21.21,0,0,0,13.63,7.8Zm1.63.82a.21.21,0,0,0,.18-.12.2.2,0,0,0,0-.09V8a.21.21,0,0,0-.42,0V8.4A.21.21,0,0,0,15.26,8.61Zm1.63.82a.21.21,0,0,0,.18-.12.2.2,0,0,0,0-.09V8.77a.21.21,0,0,0-.42,0v.45A.21.21,0,0,0,16.9,9.43Zm1.63.82a.21.21,0,0,0,.18-.12.2.2,0,0,0,0-.09V9.59a.21.21,0,0,0-.42,0V10A.21.21,0,0,0,18.53,10.24Zm1.63.82a.21.21,0,0,0,.18-.12.2.2,0,0,0,0-.09v-.45a.21.21,0,0,0-.42,0v.45A.21.21,0,0,0,20.16,11.06Zm-6.53,1.52a.21.21,0,0,0,.21-.21v-.45a.21.21,0,1,0-.42,0v.45A.21.21,0,0,0,13.63,12.58Zm1.63.82a.21.21,0,0,0,.2-.18.2.2,0,0,0,0,0v-.45a.21.21,0,0,0-.42,0v.45a.2.2,0,0,0,0,0A.21.21,0,0,0,15.26,13.4ZM16.9,14a.21.21,0,0,0,.21-.21V13.3a.21.21,0,0,0-.42,0v.45A.21.21,0,0,0,16.9,14Zm1.63-.45a.22.22,0,0,0,.21-.21v-.1h0v-.34a.21.21,0,0,0-.42,0v.37h0v.07A.21.21,0,0,0,18.53,13.51Zm1.63-.82a.21.21,0,0,0,.21-.21V12A.21.21,0,1,0,20,12v.44a.2.2,0,0,0,0,.09A.21.21,0,0,0,20.16,12.69ZM22,11.22v1.56c0,.15-.07.44-.51.66l-.91.45.91.45c.44.22.5.51.5.66s-.07.44-.5.66l-3.83,1.92a2.9,2.9,0,0,1-1.29.3H7.62a2.9,2.9,0,0,1-1.29-.3L2.51,15.66c-.44-.22-.5-.51-.5-.66s.07-.44.5-.66l.91-.45-.91-.45c-.44-.22-.51-.51-.51-.66V11.22a.21.21,0,1,1,.42,0v1.56c0,.09.1.2.28.29L5.4,14.42l.5.25a2.47,2.47,0,0,0,2.2,0L11,13.23h0a2.59,2.59,0,0,1,2,0h0l2.87,1.43a2.47,2.47,0,0,0,2.2,0l3.2-1.6c.17-.09.28-.19.28-.29V11.22a.21.21,0,1,1,.42,0ZM8.28,15a2.84,2.84,0,0,1-.53.2h8.5a2.85,2.85,0,0,1-.53-.2l-2.87-1.43a2.18,2.18,0,0,0-1.7,0ZM12,12a.21.21,0,0,0,.21-.21V11.4a.21.21,0,0,0-.42,0v.44A.21.21,0,0,0,12,12Zm-1.63.54a.21.21,0,0,0,.21-.21v-.45a.21.21,0,1,0-.42,0v.45A.21.21,0,0,0,10.37,12.59Zm-1.63.81a.21.21,0,0,0,.2-.18.2.2,0,0,0,0,0v-.45a.21.21,0,0,0-.42,0v.45a.2.2,0,0,0,0,0A.21.21,0,0,0,8.74,13.4ZM7.1,14a.21.21,0,0,0,.21-.21V13.3a.21.21,0,0,0-.42,0v.45A.21.21,0,0,0,7.1,14Zm-1.63-.45a.21.21,0,0,0,.21-.21v-.07h0v-.37a.21.21,0,1,0-.42,0v.34h0v.1a.22.22,0,0,0,.21.21Zm-1.63-.82A.21.21,0,0,0,4,12.57a.2.2,0,0,0,0-.09V12a.21.21,0,1,0-.42,0v.44A.21.21,0,0,0,3.84,12.69Z"/></svg>