<svg xmlns="http://www.w3.org/2000/svg" viewBox="0 0 24 24"><title>football-sala-small</title><path d="M21,2.5H3a.5.5,0,0,0-.5.5V21a.5.5,0,0,0,.5.5H21a.5.5,0,0,0,.5-.5V3A.5.5,0,0,0,21,2.5ZM3.5,3.5h8.07a.5.5,0,0,0-.07.25V8.13H3.75a.5.5,0,0,0-.25.07Zm0,17V15.81a.5.5,0,0,0,.25.07H11.5v4.38a.5.5,0,0,0,.07.25Zm17,0H12.43a.5.5,0,0,0,.07-.25V15.88h7.75a.5.5,0,0,0,.25-.07Zm0-5.56a.5.5,0,0,0-.25-.07H3.75a.5.5,0,0,0-.25.07V9.06a.5.5,0,0,0,.25.07h16.5a.5.5,0,0,0,.25-.07Zm0-6.75a.5.5,0,0,0-.25-.07H12.5V3.75a.5.5,0,0,0-.07-.25H20.5Z"/></svg>