<svg xmlns="http://www.w3.org/2000/svg" viewBox="0 0 24 24"><title>football-rectangular-small</title><path d="M16.74,15.32,12,20.19,7.26,15.32h9.48m0-.81H7.26a.79.79,0,0,0-.73.5.83.83,0,0,0,.17.88l4.74,4.87a.78.78,0,0,0,1.12,0L17.3,15.9a.83.83,0,0,0,.17-.88.79.79,0,0,0-.73-.5Zm0,1.62h0Zm-3-12.32,6.48,1.78-1.73,6.65L13.73,3.81m0-.81a.78.78,0,0,0-.63.32.83.83,0,0,0-.06.9l4.74,8.43a.79.79,0,0,0,.68.41h.1a.8.8,0,0,0,.66-.59L21,5.8a.83.83,0,0,0-.08-.62.79.79,0,0,0-.48-.38L13.94,3l-.2,0Zm-3.47.81L5.52,12.24,3.79,5.59l6.48-1.78m0-.81-.2,0L3.59,4.81a.79.79,0,0,0-.48.38A.83.83,0,0,0,3,5.8l1.73,6.65a.8.8,0,0,0,.66.59h.1a.79.79,0,0,0,.68-.41l4.74-8.43a.83.83,0,0,0-.06-.9A.78.78,0,0,0,10.27,3Zm0,1.62h0Z"/></svg>