<svg xmlns="http://www.w3.org/2000/svg" viewBox="0 0 24 24"><title>football-softground-small</title><path d="M3,3V21H21V3ZM20,20H4V4H20ZM5.88,8.63V7.5a1.63,1.63,0,0,1,3.25,0V8.63a.5.5,0,0,1-1,0V7.5a.63.63,0,0,0-1.25,0V8.63a.5.5,0,0,1-1,0Zm9,0V7.5a1.63,1.63,0,0,1,3.25,0V8.63a.5.5,0,0,1-1,0V7.5a.63.63,0,0,0-1.25,0V8.63a.5.5,0,0,1-1,0Zm-4.5,4.5V12a1.63,1.63,0,0,1,3.25,0v1.13a.5.5,0,0,1-1,0V12a.63.63,0,0,0-1.25,0v1.13a.5.5,0,0,1-1,0Zm-4.5,4.5V16.5a1.63,1.63,0,0,1,3.25,0v1.13a.5.5,0,0,1-1,0V16.5a.63.63,0,0,0-1.25,0v1.13a.5.5,0,0,1-1,0Zm9,0V16.5a1.63,1.63,0,0,1,3.25,0v1.13a.5.5,0,0,1-1,0V16.5a.63.63,0,0,0-1.25,0v1.13a.5.5,0,0,1-1,0Z"/></svg>