<svg xmlns="http://www.w3.org/2000/svg" viewBox="0 0 24 24"><title>football-speedframe-big</title><path d="M15.63,16.41a.2.2,0,0,0,0-.09l-1.1-4.43h0a.32.32,0,0,0-.07-.15.42.42,0,0,0-.33-.14H9.87a.42.42,0,0,0-.33.14.32.32,0,0,0-.07.15h0l-1.1,4.43a.18.18,0,0,0,0,.08.87.87,0,0,0,.22.67h0a.19.19,0,0,0-.18.15.86.86,0,0,0,.21.74l2.12,2.5A1.69,1.69,0,0,0,12,21a1.69,1.69,0,0,0,1.29-.52L15.41,18a.86.86,0,0,0,.21-.74.19.19,0,0,0-.18-.15h0A.88.88,0,0,0,15.63,16.41ZM14.09,12l-.13.15L12,14.39h-.1L10,12.13,9.91,12Zm1,4.84-.23.27-.16.19-.16.19L13,19.32a1.32,1.32,0,0,1-1,.39,1.32,1.32,0,0,1-1-.39L9.42,17.47l-.16-.19-.16-.19-.23-.27a.47.47,0,0,1-.12-.41.17.17,0,0,0,0-.06l1-4,1.93,2.27a.46.46,0,0,0,.67,0l1.93-2.27,1,4a.2.2,0,0,0,0,.07A.47.47,0,0,1,15.13,16.82ZM20.8,8.49h0A.88.88,0,0,0,21,7.82a.2.2,0,0,0,0-.09L19.89,3.3h0a.32.32,0,0,0-.07-.15A.42.42,0,0,0,19.48,3H15.24a.42.42,0,0,0-.33.14.31.31,0,0,0-.07.15h0l-1.1,4.43a.18.18,0,0,0,0,.08.87.87,0,0,0,.22.67h0a.19.19,0,0,0-.18.15.86.86,0,0,0,.21.74l2.12,2.5a1.86,1.86,0,0,0,2.58,0l2.12-2.5A.86.86,0,0,0,21,8.64.19.19,0,0,0,20.8,8.49Zm-1.34-5.1-.13.15L17.41,5.79h-.1L15.4,3.54l-.13-.15Zm1,4.84-.23.27-.16.19-.16.19-1.57,1.85a1.51,1.51,0,0,1-2,0L14.79,8.88l-.16-.19-.16-.19-.23-.27a.46.46,0,0,1-.12-.41.17.17,0,0,0,0-.06l1-4L17,6a.46.46,0,0,0,.67,0l1.93-2.27,1,4a.2.2,0,0,0,0,.07A.46.46,0,0,1,20.49,8.22Zm-10.23.42a.19.19,0,0,0-.18-.15h0a.88.88,0,0,0,.22-.66.2.2,0,0,0,0-.09L9.16,3.3h0a.32.32,0,0,0-.07-.15A.42.42,0,0,0,8.76,3H4.51a.42.42,0,0,0-.33.14.32.32,0,0,0-.07.15h0L3,7.73a.18.18,0,0,0,0,.08.87.87,0,0,0,.22.67h0A.19.19,0,0,0,3,8.64a.86.86,0,0,0,.21.74l2.12,2.5a1.69,1.69,0,0,0,1.29.52,1.69,1.69,0,0,0,1.29-.52L10,9.39A.86.86,0,0,0,10.26,8.64ZM8.73,3.39l-.13.15L6.69,5.79h-.1L4.68,3.54l-.13-.15Zm1,4.84-.23.27-.16.19-.16.19L7.64,10.73a1.32,1.32,0,0,1-1,.39,1.32,1.32,0,0,1-1-.39L4.06,8.88,3.9,8.68l-.16-.19-.23-.27a.47.47,0,0,1-.12-.41.17.17,0,0,0,0-.06l1-4L6.3,6A.46.46,0,0,0,7,6L8.9,3.78l1,4a.2.2,0,0,0,0,.06A.47.47,0,0,1,9.77,8.22Z"/></svg>