<svg xmlns="http://www.w3.org/2000/svg" viewBox="0 0 24 24"><title>football-torsionframe-small</title><path d="M15.17,15.1a3.38,3.38,0,1,1-6.34,0h6.34m0-.75H8.83a.75.75,0,0,0-.71.5,4.06,4.06,0,0,0-.25,1.38,4.13,4.13,0,1,0,8.25,0,4.06,4.06,0,0,0-.25-1.38.75.75,0,0,0-.71-.5Zm1.7-9.94a3.37,3.37,0,0,1,.61,6.69L14.31,5.6A3.29,3.29,0,0,1,16.87,4.4m0-.75a4.13,4.13,0,0,0-2.06.55,4.06,4.06,0,0,0-1.07.9.75.75,0,0,0-.08.86l3.17,5.49a.75.75,0,0,0,.65.38h.14a4.06,4.06,0,0,0,1.32-.47,4.13,4.13,0,0,0-2.07-7.7ZM7.13,4.4A3.29,3.29,0,0,1,9.69,5.6L6.52,11.09A3.37,3.37,0,0,1,7.13,4.4m0-.75a4.13,4.13,0,0,0-2.07,7.7,4.06,4.06,0,0,0,1.32.47h.14a.75.75,0,0,0,.65-.38L10.34,6a.75.75,0,0,0-.08-.86,4.06,4.06,0,0,0-1.07-.9,4.13,4.13,0,0,0-2.06-.55Z"/></svg>