<svg xmlns="http://www.w3.org/2000/svg" viewBox="0 0 24 24"><title>football-hardground-small</title><path d="M20,4V20H4V4H20m1-1H3V21H21V3ZM8.58,9a.52.52,0,0,0,.1-.16.43.43,0,0,0,0-.19.51.51,0,0,0-.14-.36.52.52,0,0,0-.71,0,.47.47,0,0,0-.15.36.43.43,0,0,0,0,.19A.41.41,0,0,0,7.87,9,.89.89,0,0,0,8,9.09a.66.66,0,0,0,.19,0A.56.56,0,0,0,8.58,9Zm7.87,2.25a.55.55,0,0,0,.11-.16.63.63,0,0,0,0-.19.63.63,0,0,0,0-.2.56.56,0,0,0-.11-.16.91.91,0,0,0-.16-.11.49.49,0,0,0-.38,0l-.17.11a.5.5,0,0,0-.14.36.61.61,0,0,0,0,.19.89.89,0,0,0,.11.16.92.92,0,0,0,.16.11.72.72,0,0,0,.2,0A.52.52,0,0,0,16.45,11.23Zm-5.79,4.61a.46.46,0,0,0,.16-.11.4.4,0,0,0,.11-.16.43.43,0,0,0,0-.19.47.47,0,0,0-.15-.36.5.5,0,0,0-.7,0,.47.47,0,0,0-.15.36.43.43,0,0,0,0,.19.41.41,0,0,0,.11.16.5.5,0,0,0,.35.14A.6.6,0,0,0,10.66,15.84Z"/></svg>