<svg xmlns="http://www.w3.org/2000/svg" viewBox="0 0 24 24"><title>football-softground-big</title><path d="M13.42,6.14V5.69a.21.21,0,1,1,.42,0v.45a.21.21,0,0,1-.21.21A.21.21,0,0,1,13.42,6.14Zm1.84,7.55a.21.21,0,0,0,.21-.21v-.89a.21.21,0,0,0-.42,0v.89a.2.2,0,0,0,0,.09A.21.21,0,0,0,15.26,13.69ZM12,5.53a.21.21,0,0,0,.18-.12.2.2,0,0,0,0-.09V4.43a.21.21,0,1,0-.42,0v.89a.2.2,0,0,0,0,.09A.21.21,0,0,0,12,5.53Zm1.63,9a.21.21,0,0,0,.21-.21v-.44a.21.21,0,1,0-.42,0v.44a.2.2,0,0,0,0,.09A.21.21,0,0,0,13.63,14.51Zm1.63-7.34A.21.21,0,0,0,15.45,7a.2.2,0,0,0,0-.09V6.07a.21.21,0,1,0-.42,0V7A.21.21,0,0,0,15.26,7.16ZM12,15.32a.21.21,0,0,0,.21-.21v-.89a.21.21,0,0,0-.42,0v.89A.21.21,0,0,0,12,15.32Zm4.9-2.45a.21.21,0,0,0,.21-.21v-.45A.21.21,0,0,0,16.9,12a.22.22,0,0,0-.21.21v.45a.2.2,0,0,0,0,.09A.21.21,0,0,0,16.9,12.88Zm3.26-3.26a.21.21,0,0,0,.18-.12.2.2,0,0,0,0-.09V9A.21.21,0,1,0,20,9V9.4A.21.21,0,0,0,20.16,9.61Zm0,1.63a.21.21,0,0,0,.21-.21v-.45a.21.21,0,1,0-.42,0V11a.2.2,0,0,0,0,.09A.21.21,0,0,0,20.16,11.24ZM16.9,8a.21.21,0,0,0,.18-.12.2.2,0,0,0,0-.09V7.33a.21.21,0,1,0-.42,0v.45A.21.21,0,0,0,16.9,8Zm1.63,4.08a.21.21,0,0,0,.21-.21V11a.21.21,0,1,0-.42,0v.89a.2.2,0,0,0,0,.09A.21.21,0,0,0,18.53,12.06Zm0-3.26a.21.21,0,0,0,.18-.12.2.2,0,0,0,0-.09V7.7a.21.21,0,1,0-.42,0v.89A.21.21,0,0,0,18.53,8.8ZM5.47,8.8a.21.21,0,0,0,.21-.21V7.7a.21.21,0,1,0-.42,0v.89a.2.2,0,0,0,0,.09A.21.21,0,0,0,5.47,8.8Zm0,3.26a.21.21,0,0,0,.18-.12.2.2,0,0,0,0-.09V11a.21.21,0,1,0-.42,0v.89A.21.21,0,0,0,5.47,12.06ZM3.84,9.61A.21.21,0,0,0,4,9.4V9a.21.21,0,1,0-.42,0V9.4a.21.21,0,0,0,.21.21ZM22,12.44V9.33a.21.21,0,1,0-.42,0v3.12c0,.09-.1.2-.28.29L12.85,17a2.18,2.18,0,0,1-1.7,0L2.69,12.73c-.17-.09-.28-.19-.28-.29V9.33a.21.21,0,1,0-.42,0v3.12c0,.15.07.44.51.66l.91.45L2.51,14c-.44.22-.51.51-.51.66s.07.44.51.66L11,19.56a2.58,2.58,0,0,0,2.08,0l8.46-4.23c.44-.22.51-.51.51-.66s-.07-.44-.51-.66l-.91-.45.91-.45C21.93,12.88,22,12.6,22,12.44ZM3.84,11.24A.21.21,0,0,0,4,11v-.45a.21.21,0,1,0-.42,0V11A.21.21,0,0,0,3.84,11.24Zm6.53,3.26a.21.21,0,0,0,.21-.21v-.44a.21.21,0,1,0-.42,0v.44A.21.21,0,0,0,10.37,14.51ZM8.74,7.16A.21.21,0,0,0,8.94,7V6.07a.21.21,0,1,0-.42,0V7a.2.2,0,0,0,0,.09A.21.21,0,0,0,8.74,7.16Zm1.63-.82a.21.21,0,0,0,.21-.21V5.69a.21.21,0,1,0-.42,0v.45a.2.2,0,0,0,0,.09A.21.21,0,0,0,10.37,6.35ZM7.1,8a.21.21,0,0,0,.21-.21V7.33a.21.21,0,1,0-.42,0v.45a.2.2,0,0,0,0,.09A.21.21,0,0,0,7.1,8Zm0,4.9a.21.21,0,0,0,.18-.12.2.2,0,0,0,0-.09v-.45A.22.22,0,0,0,7.1,12a.21.21,0,0,0-.21.21v.45A.21.21,0,0,0,7.1,12.88Zm1.63.82a.21.21,0,0,0,.21-.21v-.89a.21.21,0,0,0-.42,0v.89A.21.21,0,0,0,8.74,13.69Z"/></svg>