<svg xmlns="http://www.w3.org/2000/svg" viewBox="0 0 24 24"><title>football-turf-big</title><path d="M10.18,7.57a.2.2,0,0,1,0-.09V7.25a.21.21,0,1,1,.42,0v.22a.21.21,0,0,1-.39.09ZM8.74,8.5a.21.21,0,0,0,.21-.21V8.07a.21.21,0,0,0-.42,0v.22a.2.2,0,0,0,0,.09A.21.21,0,0,0,8.74,8.5ZM7.1,9.32a.21.21,0,0,0,.21-.21V8.88a.21.21,0,1,0-.42,0v.22a.2.2,0,0,0,0,.09A.21.21,0,0,0,7.1,9.32Zm-1.63.82a.21.21,0,0,0,.21-.21V9.7a.21.21,0,0,0-.42,0v.22a.2.2,0,0,0,0,.09A.21.21,0,0,0,5.47,10.13Zm-1.63.82A.21.21,0,0,0,4,10.74v-.22a.21.21,0,1,0-.42,0v.22a.2.2,0,0,0,0,.09A.21.21,0,0,0,3.84,10.95ZM12,6.87a.21.21,0,0,0,.18-.12.2.2,0,0,0,0-.09V6.44a.21.21,0,1,0-.42,0v.22a.2.2,0,0,0,0,.09A.21.21,0,0,0,12,6.87Zm1.63.82a.21.21,0,0,0,.18-.12.2.2,0,0,0,0-.09V7.25a.21.21,0,0,0-.42,0v.22A.21.21,0,0,0,13.63,7.68Zm1.63.82a.21.21,0,0,0,.18-.12.2.2,0,0,0,0-.09V8.07a.21.21,0,0,0-.42,0v.22A.21.21,0,0,0,15.26,8.5Zm1.63.82a.21.21,0,0,0,.18-.12.2.2,0,0,0,0-.09V8.88a.21.21,0,0,0-.42,0v.22A.21.21,0,0,0,16.9,9.32Zm1.63.82a.21.21,0,0,0,.18-.12.2.2,0,0,0,0-.09V9.7a.21.21,0,0,0-.42,0v.22A.21.21,0,0,0,18.53,10.13Zm1.63.82a.21.21,0,0,0,.18-.12.2.2,0,0,0,0-.09v-.22a.21.21,0,1,0-.42,0v.22A.21.21,0,0,0,20.16,10.95Zm-6.53,1.52a.21.21,0,0,0,.21-.21V12a.21.21,0,0,0-.42,0v.22A.21.21,0,0,0,13.63,12.47Zm1.63.18a.21.21,0,0,0-.21.21v.22a.2.2,0,0,0,0,0,.2.2,0,0,0,.4,0,.2.2,0,0,0,0,0v-.22A.21.21,0,0,0,15.26,12.65Zm1.63,1.19a.21.21,0,0,0,.21-.21v-.22a.21.21,0,0,0-.42,0v.22A.21.21,0,0,0,16.9,13.84Zm1.63-.44a.22.22,0,0,0,.21-.21v-.1h0V13a.21.21,0,0,0-.19-.21h0a.21.21,0,0,0-.21.21v.15h0v.07A.21.21,0,0,0,18.53,13.4Zm1.63-1.46a.21.21,0,0,0-.21.21v.22a.2.2,0,0,0,0,.09.21.21,0,0,0,.39-.09v-.22A.21.21,0,0,0,20.16,11.94ZM22,11.33v1.34c0,.15-.07.44-.51.66l-.91.45.91.45c.44.22.5.51.5.66s-.07.44-.5.66l-3.83,1.92a2.89,2.89,0,0,1-1.29.3H7.62a2.89,2.89,0,0,1-1.29-.3L2.51,15.55c-.44-.22-.5-.51-.5-.66s.07-.44.5-.66l.91-.45-.91-.45c-.44-.22-.51-.51-.51-.66V11.33a.21.21,0,0,1,.42,0v1.34c0,.09.1.2.28.29L5.4,14.31l.5.25a2.47,2.47,0,0,0,2.2,0L11,13.12h0a2.59,2.59,0,0,1,2,0h0l2.87,1.43a2.47,2.47,0,0,0,2.2,0l3.2-1.6c.17-.09.28-.19.28-.29V11.33a.21.21,0,0,1,.42,0ZM8.28,14.93a2.86,2.86,0,0,1-.53.2h8.5a2.86,2.86,0,0,1-.53-.2L12.85,13.5a2.19,2.19,0,0,0-1.7,0Zm3.72-3a.21.21,0,0,0,.21-.21v-.22a.21.21,0,1,0-.42,0v.22A.21.21,0,0,0,12,11.94Zm-1.63-.1a.21.21,0,0,0-.21.21v.22a.21.21,0,0,0,.42,0V12A.21.21,0,0,0,10.37,11.84ZM8.74,13.29a.21.21,0,0,0,.2-.18.2.2,0,0,0,0,0v-.22a.21.21,0,1,0-.42,0v.22a.2.2,0,0,0,0,0A.21.21,0,0,0,8.74,13.29Zm-1.63.55a.21.21,0,0,0,.21-.21v-.22a.21.21,0,1,0-.42,0v.22A.21.21,0,0,0,7.1,13.84ZM5.47,12.76h0a.21.21,0,0,0-.19.21v.12h0v.1a.22.22,0,0,0,.21.21.21.21,0,0,0,.21-.21v-.07h0V13a.21.21,0,0,0-.21-.21Zm-1.63-.18A.21.21,0,0,0,4,12.46a.2.2,0,0,0,0-.09v-.22a.21.21,0,0,0-.42,0v.22A.21.21,0,0,0,3.84,12.58Z"/></svg>