<svg xmlns="http://www.w3.org/2000/svg" viewBox="0 0 24 24"><title>football-rectangular-big</title><path d="M10,8.26a1.19,1.19,0,0,0-.06-1L8.36,4.36a1.18,1.18,0,0,0-1.28-.6l-2.23.45H4.77a.68.68,0,0,0-.2.08,1.19,1.19,0,0,0-.65.81L3,9.07a1.19,1.19,0,0,0,0,.65l0,.08A.18.18,0,0,0,3,9.9a1.19,1.19,0,0,0,0,.65l1,2.78a1.17,1.17,0,0,0,.89.77l.23,0A1.17,1.17,0,0,0,6,13.72L9.77,9.46A1.19,1.19,0,0,0,10,8.26ZM6.92,4.17h0a.15.15,0,0,1,.11.24h0l-1.72,2a.15.15,0,0,1-.25,0L4.62,5a.31.31,0,0,1,0-.26.32.32,0,0,1,.21-.15h.07Zm-2.63,1,.44,1.26a.51.51,0,0,0,.39.34h.1a.52.52,0,0,0,.39-.18l1.72-2a.51.51,0,0,0,.09-.53A.8.8,0,0,1,8,4.54L9.6,7.47a.83.83,0,0,1,0,.79.79.79,0,0,1-.08.12l-.1.12L5.77,12.64a.81.81,0,0,1-1.38-.27L3.57,10l-.06-.18-.06-.18,0-.09a.81.81,0,0,1,0-.45ZM20.91,9.8l0-.08a1.19,1.19,0,0,0,0-.65l-.89-4a1.19,1.19,0,0,0-.65-.81.68.68,0,0,0-.2-.08h-.07l-2.23-.45a1.18,1.18,0,0,0-1.28.6L14.07,7.29a1.19,1.19,0,0,0-.06,1,1.19,1.19,0,0,0,.21,1.2L18,13.72a1.17,1.17,0,0,0,.89.41l.23,0a1.17,1.17,0,0,0,.89-.77l1-2.78a1.19,1.19,0,0,0,0-.65A.18.18,0,0,0,20.91,9.8ZM19.36,4.74a.31.31,0,0,1,0,.26l-.47,1.34a.14.14,0,0,1-.11.09.15.15,0,0,1-.14,0l-1.72-2h0a.15.15,0,0,1,.11-.24h0l2,.4h.07a.32.32,0,0,1,.21.15Zm-2.78-.62a.51.51,0,0,0,.09.53l1.72,2a.51.51,0,0,0,.39.18h.1a.52.52,0,0,0,.39-.34l.44-1.26.89,3.95a.81.81,0,0,1,0,.45l0,.09-.06.18-.06.18-.82,2.34a.81.81,0,0,1-1.38.27L14.61,8.5l-.1-.12a.79.79,0,0,1-.08-.12.83.83,0,0,1,0-.79L16,4.54A.8.8,0,0,1,16.58,4.12Zm.35,11.16-2.11-3.34a1.18,1.18,0,0,0-1-.55H10.18a1.18,1.18,0,0,0-1,.55L7.07,15.29a1.11,1.11,0,0,0-.1,1,1.19,1.19,0,0,0,.48,1.43L11.12,20a1.68,1.68,0,0,0,1.77,0l3.66-2.25A1.19,1.19,0,0,0,17,16.33a1.11,1.11,0,0,0-.1-1Zm-9.54.2L9.5,12.14a.8.8,0,0,1,.38-.31A.35.35,0,0,0,10,12l1.34.83a1.18,1.18,0,0,0,1.24,0L14,12h0a.35.35,0,0,0,.15-.22.8.8,0,0,1,.38.31l2.11,3.34a.8.8,0,0,1,.11.57s0,0,0,0a.82.82,0,0,1,0,.14.8.8,0,0,1-.12.19.81.81,0,0,1-.2.18l-3.66,2.25a1.3,1.3,0,0,1-1.37,0L7.65,16.61a.81.81,0,0,1-.2-.18.8.8,0,0,1-.12-.19.82.82,0,0,1,0-.14s0,0,0,0A.8.8,0,0,1,7.39,15.49Zm2.91-3.72h3.43l0,0-1.28.79a.81.81,0,0,1-.85,0l-1.28-.79Z"/></svg>