<svg xmlns="http://www.w3.org/2000/svg" viewBox="0 0 24 24"><title>football-firmground-big</title><path d="M10.18,6a.2.2,0,0,1,0-.09V5.47a.21.21,0,0,1,.42,0v.45a.21.21,0,0,1-.39.09Zm-1.45.93a.21.21,0,0,0,.21-.21V6.29a.21.21,0,1,0-.42,0v.45a.2.2,0,0,0,0,.09A.21.21,0,0,0,8.74,6.94ZM7.1,7.76a.21.21,0,0,0,.21-.21V7.1a.21.21,0,1,0-.42,0v.44a.2.2,0,0,0,0,.09A.21.21,0,0,0,7.1,7.76Zm-1.63.82a.21.21,0,0,0,.21-.21V7.92a.21.21,0,1,0-.42,0v.45a.2.2,0,0,0,0,.09A.21.21,0,0,0,5.47,8.57Zm-1.63.82A.21.21,0,0,0,4,9.18V8.74a.21.21,0,1,0-.42,0v.45a.2.2,0,0,0,0,.09A.21.21,0,0,0,3.84,9.39ZM20.16,11a.21.21,0,0,0,.21-.21v-.45a.21.21,0,1,0-.42,0v.45a.2.2,0,0,0,0,.09A.21.21,0,0,0,20.16,11Zm-1.63.82a.21.21,0,0,0,.21-.21v-.45a.21.21,0,0,0-.42,0v.45a.2.2,0,0,0,0,.09A.21.21,0,0,0,18.53,11.84Zm-1.63.82a.21.21,0,0,0,.21-.21V12a.21.21,0,0,0-.21-.21.22.22,0,0,0-.21.21v.44a.2.2,0,0,0,0,.09A.21.21,0,0,0,16.9,12.65Zm-1.63.82a.21.21,0,0,0,.21-.21v-.45a.21.21,0,1,0-.42,0v.45a.2.2,0,0,0,0,.09A.21.21,0,0,0,15.26,13.47Zm-1.63.82a.21.21,0,0,0,.21-.21v-.45a.21.21,0,1,0-.42,0v.45a.2.2,0,0,0,0,.09A.21.21,0,0,0,13.63,14.28ZM12,5.31a.21.21,0,0,0,.18-.12.2.2,0,0,0,0-.09V4.66a.21.21,0,1,0-.42,0V5.1a.2.2,0,0,0,0,.09A.21.21,0,0,0,12,5.31Zm1.63.82A.21.21,0,0,0,13.82,6a.2.2,0,0,0,0-.09V5.47a.21.21,0,0,0-.42,0v.45A.21.21,0,0,0,13.63,6.13Zm1.63.82a.21.21,0,0,0,.21-.21V6.29a.21.21,0,0,0-.42,0v.45A.21.21,0,0,0,15.26,6.94Zm1.63.82a.21.21,0,0,0,.18-.12.2.2,0,0,0,0-.09V7.1a.21.21,0,0,0-.42,0v.44A.21.21,0,0,0,16.9,7.76Zm1.63.82a.21.21,0,0,0,.18-.12.2.2,0,0,0,0-.09V7.92a.21.21,0,1,0-.42,0v.45A.21.21,0,0,0,18.53,8.57Zm1.63.82a.21.21,0,0,0,.21-.21V8.74a.21.21,0,1,0-.42,0v.45A.21.21,0,0,0,20.16,9.39Zm1.63,0a.21.21,0,0,0-.21.21v2.67c0,.09-.1.2-.28.29l-8.46,4.23a2.17,2.17,0,0,1-1.7,0L2.69,12.51c-.17-.09-.28-.19-.28-.29V9.55a.21.21,0,1,0-.42,0v2.67c0,.15.07.44.51.66l.91.45-.91.45c-.44.22-.51.51-.51.66s.07.44.51.66L11,19.33a2.58,2.58,0,0,0,2.08,0l8.46-4.23c.44-.22.51-.51.51-.66s-.07-.44-.51-.66l-.91-.45.91-.45c.44-.22.51-.51.51-.66V9.55A.21.21,0,0,0,21.79,9.34ZM3.84,11A.21.21,0,0,0,4,10.91a.2.2,0,0,0,0-.09v-.45a.21.21,0,0,0-.42,0v.45A.21.21,0,0,0,3.84,11Zm1.63.82a.21.21,0,0,0,.21-.21v-.45a.21.21,0,0,0-.42,0v.45A.21.21,0,0,0,5.47,11.84Zm1.63.82a.21.21,0,0,0,.18-.12.2.2,0,0,0,0-.09V12a.22.22,0,0,0-.21-.21A.21.21,0,0,0,6.9,12v.44A.21.21,0,0,0,7.1,12.65Zm1.63.82a.21.21,0,0,0,.18-.12.2.2,0,0,0,0-.09v-.45a.21.21,0,1,0-.42,0v.45A.21.21,0,0,0,8.74,13.47Zm1.63.82a.21.21,0,0,0,.21-.21v-.45a.21.21,0,1,0-.42,0v.45A.21.21,0,0,0,10.37,14.28ZM12,15.1a.21.21,0,0,0,.21-.21v-.44a.21.21,0,1,0-.42,0v.44A.21.21,0,0,0,12,15.1Z"/></svg>