<svg xmlns="http://www.w3.org/2000/svg" viewBox="0 0 24 24"><title>football-indoor-big</title><path d="M22,11.55V10.22a.21.21,0,0,0,0-.1v0L21.9,10h0l-9.79-4.9a.21.21,0,0,0-.19,0L2.12,10h0L2,10.1v0a.21.21,0,0,0,0,.1v1.34a.21.21,0,0,0,.12.19L4,12.67l-1.85.93a.21.21,0,0,0,0,.37l9.79,4.9.09,0,.09,0L21.88,14a.21.21,0,0,0,0-.37L20,12.67l1.85-.93A.21.21,0,0,0,22,11.55Zm-.42-.13-9.37,4.69v-.87l9.37-4.69ZM3.09,10l4-2,2,1-1.85.93a.2.2,0,0,0-.09.09.2.2,0,0,0,0,.19l0,0a.21.21,0,0,0,.17.1l.09,0,.15-.08L8,10l4.9-2.45a.21.21,0,1,0-.19-.37L9.55,8.76l-2-1L12,5.56l4.43,2.22L13.5,9.24a.21.21,0,0,0-.09.28.21.21,0,0,0,.19.12l.09,0,.12-.06L16.9,8l2,1-4.43,2.21L12.09,10h-.19l-4.8,2.4-2-1,.74-.37a.21.21,0,1,0-.19-.37l-1,.51-1.57-.78-.42-.21h0Zm18.23.21h0L12,14.88,7.57,12.67,12,10.45l2,1-3,1.49a.21.21,0,0,0,.09.39l.09,0,8.15-4.08Zm-18.91.34,9.38,4.69v.87L2.42,11.43Z"/></svg>