<svg xmlns="http://www.w3.org/2000/svg" viewBox="0 0 24 24"><title>football-multiground-small</title><path d="M18.75,3H5.25A2.25,2.25,0,0,0,3,5.25v13.5A2.25,2.25,0,0,0,5.25,21h9L21,14.25v-9A2.25,2.25,0,0,0,18.75,3ZM16.92,16.92l-1.67,1.67V16.5a1.25,1.25,0,0,1,1.25-1.25h2.09Zm-.42-2.67a2.25,2.25,0,0,0-2.25,2.25v3.09l-.41.41H5.25A1.25,1.25,0,0,1,4,18.75V5.25A1.25,1.25,0,0,1,5.25,4h13.5A1.25,1.25,0,0,1,20,5.25v8.59l-.41.41ZM12,5.75a.5.5,0,0,1-.35-.85.5.5,0,0,1,.54-.11.35.35,0,0,1,.16.11.47.47,0,0,1,.15.35.4.4,0,0,1,0,.19.54.54,0,0,1-.27.27A.4.4,0,0,1,12,5.75ZM11.5,16a.49.49,0,0,1,.5-.5h0a.49.49,0,0,1,.5.5h0a.5.5,0,0,1-.5.5h0A.5.5,0,0,1,11.5,16Zm0-2.7a.49.49,0,0,1,.5-.5h0a.49.49,0,0,1,.5.5h0a.49.49,0,0,1-.5.5h0A.49.49,0,0,1,11.5,13.35Zm0-2.7a.5.5,0,0,1,.5-.5h0a.5.5,0,0,1,.5.5h0a.49.49,0,0,1-.5.5h0A.49.49,0,0,1,11.5,10.65Zm0-2.7a.49.49,0,0,1,.5-.5h0a.49.49,0,0,1,.5.5h0a.5.5,0,0,1-.5.5h0A.5.5,0,0,1,11.5,8Zm.5,11.3a.47.47,0,0,1-.35-.15.35.35,0,0,1-.11-.16.4.4,0,0,1,0-.19.47.47,0,0,1,.15-.35.35.35,0,0,1,.16-.11.5.5,0,0,1,.38,0,.35.35,0,0,1,.16.11.36.36,0,0,1,.11.16.47.47,0,0,1,0,.38.54.54,0,0,1-.27.27A.4.4,0,0,1,12,19.25Zm6.75-6.75a.4.4,0,0,1-.19,0,.36.36,0,0,1-.16-.11.35.35,0,0,1-.11-.16.47.47,0,0,1,0-.38.35.35,0,0,1,.11-.16.49.49,0,0,1,.54-.11.35.35,0,0,1,.16.11.47.47,0,0,1,.15.35.4.4,0,0,1,0,.19.54.54,0,0,1-.27.27A.4.4,0,0,1,18.75,12.5Zm-3.2-.5a.49.49,0,0,1,.5-.5h0a.5.5,0,0,1,.5.5h0a.51.51,0,0,1-.5.5h0A.5.5,0,0,1,15.55,12Zm-2.7,0a.49.49,0,0,1,.5-.5h0a.5.5,0,0,1,.5.5h0a.51.51,0,0,1-.5.5h0A.5.5,0,0,1,12.85,12Zm-2.7,0a.5.5,0,0,1,.5-.5h0a.49.49,0,0,1,.5.5h0a.5.5,0,0,1-.5.5h0A.5.5,0,0,1,10.15,12Zm-2.7,0a.49.49,0,0,1,.5-.5H8a.5.5,0,0,1,.5.5h0a.5.5,0,0,1-.5.5H8A.5.5,0,0,1,7.45,12Zm-2.2.5a.4.4,0,0,1-.19,0,.36.36,0,0,1-.16-.11.35.35,0,0,1-.11-.16.4.4,0,0,1,0-.19.47.47,0,0,1,.15-.35.5.5,0,0,1,.7,0,.47.47,0,0,1,.15.35.4.4,0,0,1,0,.19.54.54,0,0,1-.27.27A.4.4,0,0,1,5.25,12.5Z"/></svg>