<svg xmlns="http://www.w3.org/2000/svg" viewBox="0 0 24 24"><title>football-conical-big</title><path d="M10,9.82A1.75,1.75,0,0,0,10,9.39,1.75,1.75,0,0,0,10,9,1.79,1.79,0,0,0,10,8.48v0L8.82,4.36h0A2.28,2.28,0,0,0,6.51,3,2.28,2.28,0,0,0,4.21,4.36h0L3.08,8.45A1.79,1.79,0,0,0,3,9a1.75,1.75,0,0,0,.06.43A1.75,1.75,0,0,0,3,9.82c0,1.36,1.58,2.46,3.51,2.46S10,11.18,10,9.82ZM4.67,4.22a2.13,2.13,0,0,1,1.84-.83,2.13,2.13,0,0,1,1.84.83,1,1,0,0,1,.09.19.86.86,0,0,1,0,.19s0,0,0,.06c0,.71-.89,1.28-2,1.28s-2-.57-2-1.28c0,0,0,0,0-.06a.86.86,0,0,1,0-.19A1,1,0,0,1,4.67,4.22ZM3.44,8.56l.9-3.27a2.49,2.49,0,0,0,2.18,1,2.49,2.49,0,0,0,2.18-1l.89,3.24v0s0,.07,0,.11a1.38,1.38,0,0,1,0,.29s0,.07,0,.1a1.41,1.41,0,0,1-.06.33A3.11,3.11,0,0,1,6.51,11,3.11,3.11,0,0,1,3.44,9.39a1.41,1.41,0,0,1-.06-.33s0-.07,0-.1a1.38,1.38,0,0,1,0-.29S3.42,8.6,3.44,8.56Zm12,8.64v0l-1.13-4.09h0A2.28,2.28,0,0,0,12,11.72a2.28,2.28,0,0,0-2.31,1.36h0L8.56,17.16a1.79,1.79,0,0,0-.08.51,1.75,1.75,0,0,0,.06.43,1.75,1.75,0,0,0-.06.43C8.49,19.9,10.06,21,12,21s3.51-1.1,3.51-2.46a1.75,1.75,0,0,0-.06-.43,1.75,1.75,0,0,0,.06-.43A1.79,1.79,0,0,0,15.45,17.2Zm-.31.48s0,.07,0,.1a1.41,1.41,0,0,1-.06.33A3.11,3.11,0,0,1,12,19.75a3.11,3.11,0,0,1-3.07-1.64,1.41,1.41,0,0,1-.06-.33s0-.07,0-.1a1.38,1.38,0,0,1,0-.29s0-.07,0-.11L9.82,14a2.49,2.49,0,0,0,2.18,1,2.49,2.49,0,0,0,2.18-1l.89,3.24v0s0,.07,0,.11A1.39,1.39,0,0,1,15.14,17.68Zm-5-4.74A2.13,2.13,0,0,1,12,12.1a2.13,2.13,0,0,1,1.84.83,1,1,0,0,1,.09.19.86.86,0,0,1,0,.19s0,0,0,.06c0,.71-.89,1.28-2,1.28s-2-.57-2-1.28c0,0,0,0,0-.06a.86.86,0,0,1,0-.19A1,1,0,0,1,10.16,12.93ZM21,9a1.79,1.79,0,0,0-.07-.48v0L19.8,4.36h0A2.28,2.28,0,0,0,17.49,3a2.28,2.28,0,0,0-2.31,1.36h0L14,8.45A1.79,1.79,0,0,0,14,9a1.75,1.75,0,0,0,.06.43,1.75,1.75,0,0,0-.06.43c0,1.36,1.58,2.46,3.51,2.46S21,11.18,21,9.82a1.75,1.75,0,0,0-.06-.43A1.75,1.75,0,0,0,21,9Zm-.37,0s0,.07,0,.1a1.41,1.41,0,0,1-.06.33A3.11,3.11,0,0,1,17.49,11a3.11,3.11,0,0,1-3.07-1.64,1.41,1.41,0,0,1-.06-.33s0-.07,0-.1a1.38,1.38,0,0,1,0-.29s0-.07,0-.11l.9-3.27a2.49,2.49,0,0,0,2.18,1,2.49,2.49,0,0,0,2.18-1l.89,3.24v0s0,.07,0,.11A1.38,1.38,0,0,1,20.63,9Zm-5-4.74a2.13,2.13,0,0,1,1.84-.83,2.13,2.13,0,0,1,1.84.83,1,1,0,0,1,.09.19.86.86,0,0,1,0,.19s0,0,0,.06c0,.71-.89,1.28-2,1.28s-2-.57-2-1.28c0,0,0,0,0-.06a.86.86,0,0,1,0-.19A1,1,0,0,1,15.64,4.22Z"/></svg>