<svg xmlns="http://www.w3.org/2000/svg" viewBox="0 0 24 24"><title>football-torsionframe-big</title><path d="M10,9.45A1.9,1.9,0,0,0,10,9,1.88,1.88,0,0,0,10,8.55a1.85,1.85,0,0,0,0-.41v0l-1-4.54A.7.7,0,0,0,8.28,3H4.74a.7.7,0,0,0-.67.56l-1,4.54v0a1.85,1.85,0,0,0,0,.41A1.88,1.88,0,0,0,3.06,9,1.89,1.89,0,0,0,3,9.45C3,10.86,4.58,12,6.51,12S10,10.86,10,9.45Zm-5.28-6H8.28a.32.32,0,0,1,.3.26l1,4.51v0a1.47,1.47,0,0,1,0,.35,1.49,1.49,0,0,1,0,.29,1.55,1.55,0,0,1-.05.2,1.65,1.65,0,0,1-.08.2,3.27,3.27,0,0,1-3,1.46,3.27,3.27,0,0,1-3-1.46A1.65,1.65,0,0,1,3.46,9a1.55,1.55,0,0,1-.05-.2,1.49,1.49,0,0,1,0-.29,1.46,1.46,0,0,1,0-.35v0l1-4.51A.32.32,0,0,1,4.74,3.4ZM21,8.55a1.85,1.85,0,0,0,0-.41v0l-1-4.54A.7.7,0,0,0,19.26,3H15.72a.7.7,0,0,0-.67.56L14,8.11v0a1.85,1.85,0,0,0,0,.41A1.88,1.88,0,0,0,14,9a1.89,1.89,0,0,0-.06.45C14,10.86,15.55,12,17.49,12S21,10.86,21,9.45A1.9,1.9,0,0,0,20.94,9,1.88,1.88,0,0,0,21,8.55ZM15.72,3.4h3.54a.32.32,0,0,1,.3.26l1,4.51v0a1.47,1.47,0,0,1,0,.35,1.49,1.49,0,0,1,0,.29,1.55,1.55,0,0,1-.05.2,1.66,1.66,0,0,1-.08.2,3.27,3.27,0,0,1-3,1.46,3.27,3.27,0,0,1-3-1.46,1.65,1.65,0,0,1-.08-.2,1.55,1.55,0,0,1-.05-.2,1.49,1.49,0,0,1,0-.29,1.46,1.46,0,0,1,0-.35v0l1-4.51A.32.32,0,0,1,15.72,3.4Zm-.25,13.74v0l-1-4.54a.7.7,0,0,0-.67-.56H10.23a.7.7,0,0,0-.67.56l-1,4.54v0a1.77,1.77,0,0,0,0,.86,1.9,1.9,0,0,0-.06.45C8.49,19.85,10.06,21,12,21s3.51-1.15,3.51-2.56a1.9,1.9,0,0,0-.06-.45,1.77,1.77,0,0,0,0-.86ZM10.23,12.4h3.54a.32.32,0,0,1,.3.26l1,4.51v0a1.35,1.35,0,0,1,0,.64,1.55,1.55,0,0,1-.05.2,1.66,1.66,0,0,1-.08.2,3.27,3.27,0,0,1-3,1.46,3.27,3.27,0,0,1-3-1.46,1.66,1.66,0,0,1-.08-.2,1.55,1.55,0,0,1-.05-.2,1.35,1.35,0,0,1,0-.64.18.18,0,0,0,0,0l1-4.51A.32.32,0,0,1,10.23,12.4ZM4.53,4.24A.21.21,0,0,1,4.59,4,.18.18,0,0,1,4.85,4,1.9,1.9,0,0,0,8.18,4,.18.18,0,0,1,8.44,4a.21.21,0,0,1,.06.28,2.27,2.27,0,0,1-4,0Zm11,0A.21.21,0,0,1,15.56,4a.18.18,0,0,1,.26.06,1.9,1.9,0,0,0,3.33,0A.18.18,0,0,1,19.41,4a.21.21,0,0,1,.06.28,2.27,2.27,0,0,1-4,0Zm-5.49,9a.21.21,0,0,1,.06-.28.18.18,0,0,1,.26.06,1.9,1.9,0,0,0,3.33,0,.18.18,0,0,1,.26-.06.21.21,0,0,1,.06.28,2.27,2.27,0,0,1-4,0Z"/></svg>