<svg xmlns="http://www.w3.org/2000/svg" viewBox="0 0 24 24"><title>football-control-big</title><path d="M21,8.47a.19.19,0,0,0-.18-.16h0A.87.87,0,0,0,21,7.68a.21.21,0,0,0,0-.09l-1-4.29h0a.32.32,0,0,0-.07-.15A.4.4,0,0,0,19.56,3h-4a.4.4,0,0,0-.32.14.32.32,0,0,0-.07.15h0l-1,4.29a.18.18,0,0,0,0,.08.87.87,0,0,0,.21.65h0a.19.19,0,0,0-.18.16.86.86,0,0,0,.2.73l2,2.42a1.59,1.59,0,0,0,1.23.5h0a1.59,1.59,0,0,0,1.23-.5l2-2.42A.86.86,0,0,0,21,8.47Zm-6.39-.41a.45.45,0,0,1-.11-.39.18.18,0,0,0,0-.06l.93-3.83L17.23,6a.44.44,0,0,0,.64,0l1.81-2.18.93,3.83a.21.21,0,0,0,0,.06.45.45,0,0,1-.11.39l-.21.25-.16.2-.16.2-1.47,1.77a1.23,1.23,0,0,1-.95.37h0a1.23,1.23,0,0,1-.94-.37L15.13,8.71,15,8.51l-.16-.2Zm2.91-2.35L15.71,3.54l-.12-.15h3.91l-.12.15L17.59,5.71ZM10,9.61A1.84,1.84,0,0,0,10,9.16h0a1.92,1.92,0,0,0,.08-.54,1.89,1.89,0,0,0,0-.41v0L9,3.57A.7.7,0,0,0,8.32,3H4.77a.7.7,0,0,0-.67.57l-1,4.6v0a1.83,1.83,0,0,0,0,.9l0,.06A1.84,1.84,0,0,0,3,9.61C3,11,4.58,12.13,6.52,12.13S10,11,10,9.61ZM4.77,3.4H8.32a.32.32,0,0,1,.3.26l1,4.56v0a1.51,1.51,0,0,1,0,.36,1.54,1.54,0,0,1-.06.4,1.63,1.63,0,0,1-.07.2,1.76,1.76,0,0,1-.1.2A3.34,3.34,0,0,1,6.54,10.8,3.34,3.34,0,0,1,3.61,9.41a1.76,1.76,0,0,1-.1-.2A1.63,1.63,0,0,1,3.45,9a1.44,1.44,0,0,1,0-.76v0l1-4.56A.32.32,0,0,1,4.77,3.4ZM15.5,17.11v0l-1.14-4.19h0A2.29,2.29,0,0,0,12,11.49a2.29,2.29,0,0,0-2.31,1.39h0L8.6,17.07a1.87,1.87,0,0,0-.08.53,1.83,1.83,0,0,0,.06.44,1.83,1.83,0,0,0-.06.44C8.52,19.87,10.1,21,12,21s3.52-1.13,3.52-2.52a1.83,1.83,0,0,0-.06-.44,1.83,1.83,0,0,0,.06-.44A1.86,1.86,0,0,0,15.5,17.11Zm-.31.49s0,.07,0,.1a1.47,1.47,0,0,1-.06.34A3.11,3.11,0,0,1,12,19.72,3.11,3.11,0,0,1,9,18a1.48,1.48,0,0,1-.06-.34s0-.07,0-.1a1.45,1.45,0,0,1,0-.3s0-.08,0-.12l.9-3.35A2.48,2.48,0,0,0,12,14.91a2.48,2.48,0,0,0,2.18-1.07l.9,3.31v0s0,.07,0,.11A1.44,1.44,0,0,1,15.19,17.6Zm-5-4.86A2.12,2.12,0,0,1,12,11.89a2.12,2.12,0,0,1,1.85.85,1,1,0,0,1,.09.2.89.89,0,0,1,0,.2s0,0,0,.06c0,.72-.89,1.31-2,1.31s-2-.59-2-1.31c0,0,0,0,0-.06a.89.89,0,0,1,0-.2A1,1,0,0,1,10.2,12.74ZM4.61,4.2a.21.21,0,0,1,0-.28.18.18,0,0,1,.27,0,2.31,2.31,0,0,0,1.66.63A2.35,2.35,0,0,0,8.17,4a.18.18,0,0,1,.26,0,.21.21,0,0,1,0,.28,2.68,2.68,0,0,1-1.89.7A2.68,2.68,0,0,1,4.61,4.2Z"/></svg>