<svg xmlns="http://www.w3.org/2000/svg" viewBox="0 0 24 24">
<path d="M9.27,7.23C9.13,7.08,8.89,7.08,8.75,7.22c0,0,0,0-0.01,0.01L8.26,7.71L7.78,7.23c-0.15-0.15-0.38-0.15-0.53,0
	s-0.15,0.38,0,0.53l0,0l0.48,0.48L7.25,8.72C7.1,8.87,7.1,9.1,7.25,9.25s0.38,0.15,0.53,0l0.48-0.48l0.48,0.48
	c0.15,0.15,0.38,0.15,0.53,0s0.15-0.38,0-0.53L8.79,8.24l0.48-0.48c0.15-0.14,0.16-0.37,0.02-0.52C9.28,7.24,9.28,7.23,9.27,7.23z
	 M9.27,14.73c-0.14-0.15-0.38-0.15-0.52-0.01c0,0,0,0-0.01,0.01l-0.48,0.48l-0.48-0.48c-0.15-0.15-0.38-0.15-0.53,0
	c-0.15,0.15-0.15,0.38,0,0.53l0,0l0.48,0.48l-0.48,0.48c-0.15,0.15-0.15,0.38,0,0.53c0.15,0.15,0.38,0.15,0.53,0l0,0l0.48-0.48
	l0.48,0.48c0.15,0.15,0.38,0.15,0.53,0c0.15-0.15,0.15-0.38,0-0.53l0,0l-0.48-0.48l0.48-0.48c0.15-0.14,0.17-0.36,0.03-0.51
	C9.3,14.74,9.29,14.73,9.27,14.73z M19.88,7v10c0,0.42,0.17,0.83,0.47,1.13l0.19,0.19c0.62,0.62,0.62,1.63,0,2.25s-1.63,0.62-2.25,0
	l-0.19-0.19c-0.29-0.3-0.68-0.48-1.1-0.5H7c-0.42,0-0.82,0.17-1.12,0.47l-0.19,0.19c-0.62,0.62-1.63,0.62-2.25,0s-0.62-1.63,0-2.25
	l0.19-0.19c0.3-0.29,0.48-0.68,0.5-1.1V7c0-0.42-0.17-0.82-0.47-1.12L3.47,5.69C2.79,5.14,2.68,4.13,3.24,3.45s1.56-0.79,2.24-0.23
	C5.57,3.3,5.65,3.38,5.72,3.47l0.19,0.19C6.2,3.95,6.59,4.12,7,4.13h10c0.42,0,0.83-0.17,1.13-0.47l0.19-0.19
	c0.62-0.62,1.63-0.62,2.25,0s0.62,1.63,0,2.25l-0.19,0.19C20.08,6.19,19.9,6.59,19.88,7z M19.13,17V7c0-0.62,0.25-1.22,0.69-1.66
	L20,5.19c0.33-0.33,0.33-0.86,0-1.19s-0.86-0.33-1.19,0l-0.19,0.19C18.19,4.62,17.61,4.87,17,4.88H7c-0.62,0-1.22-0.25-1.66-0.69
	L5.19,4C4.86,3.67,4.33,3.67,4,4S3.67,4.86,4,5.19l0.19,0.19C4.62,5.81,4.87,6.39,4.88,7v10c0,0.62-0.25,1.22-0.69,1.66L4,18.81
	C3.67,19.14,3.67,19.67,4,20s0.86,0.33,1.19,0l0.19-0.19c0.43-0.43,1.01-0.67,1.62-0.68h10c0.62,0,1.22,0.25,1.66,0.69l0.19,0.19
	c0.28,0.37,0.81,0.43,1.18,0.15c0.37-0.28,0.43-0.81,0.15-1.18c-0.05-0.06-0.11-0.12-0.18-0.17l-0.19-0.19
	C19.38,18.19,19.14,17.61,19.13,17z M13,11c-0.14-0.15-0.38-0.15-0.52-0.01c0,0,0,0-0.01,0.01l-0.48,0.48L11.52,11
	c-0.15-0.15-0.38-0.15-0.53,0s-0.15,0.38,0,0.53l0.48,0.48l-0.48,0.48c-0.15,0.15-0.15,0.38,0,0.53s0.38,0.15,0.53,0L12,12.54
	l0.48,0.48c0.15,0.15,0.38,0.15,0.53,0s0.15-0.38,0-0.53L12.53,12l0.48-0.48C13.15,11.37,13.15,11.14,13,11z M16.75,7.25
	c-0.14-0.15-0.38-0.15-0.52-0.01c0,0,0,0-0.01,0.01l-0.48,0.48l-0.48-0.48c-0.15-0.15-0.38-0.15-0.53,0c-0.15,0.15-0.15,0.38,0,0.53
	l0.48,0.48l-0.48,0.48c-0.15,0.15-0.15,0.38,0,0.53s0.38,0.15,0.53,0l0.48-0.48l0.48,0.48c0.15,0.15,0.38,0.15,0.53,0
	c0.15-0.15,0.15-0.38,0-0.53l-0.48-0.48l0.48-0.48c0.16-0.13,0.18-0.36,0.05-0.52c-0.01-0.01-0.02-0.02-0.03-0.03L16.75,7.25z
	 M16.75,14.75c-0.14-0.15-0.38-0.15-0.52-0.01c0,0,0,0-0.01,0.01l-0.48,0.48l-0.48-0.48c-0.15-0.15-0.38-0.15-0.53,0
	s-0.15,0.38,0,0.53l0.48,0.48l-0.48,0.48c-0.15,0.15-0.15,0.38,0,0.53c0.15,0.15,0.38,0.15,0.53,0l0,0l0.48-0.48l0.48,0.48
	c0.15,0.15,0.38,0.15,0.53,0s0.15-0.38,0-0.53l-0.48-0.48l0.48-0.48c0.16-0.13,0.18-0.36,0.05-0.52c-0.01-0.01-0.02-0.02-0.03-0.03
	L16.75,14.75z"/>
</svg>
