<svg xmlns="http://www.w3.org/2000/svg" viewBox="0 0 24 24">
<path d="M9.14,16.06c0.37-0.24,0.79-0.36,1.23-0.36h0.3c0.1,0,0.2-0.06,0.24-0.15l1.15-2.44c0.02-0.06,0.02-0.11,0-0.17l-0.21-0.83
	c-0.14-0.56-0.06-1.16,0.22-1.67l0.26-0.47L11,8.68c-0.31-0.3-0.32-0.79-0.03-1.1c0.01-0.01,0.02-0.02,0.03-0.03l1.8-1.84
	c0.11-0.11,0.26-0.17,0.41-0.17l0,0c0.25,0,0.47,0.16,0.55,0.39l0.36,1c0.11,0.31,0.08,0.65-0.09,0.93l-0.31,0.52
	c-0.11,0.19-0.31,0.31-0.53,0.31c-0.22,0.01-0.42-0.1-0.54-0.28l-0.11-0.17l-0.23,0.11l1.21,1.33c0.03,0.02,0.07,0.02,0.1,0
	l0.58-0.12c0.06-0.01,0.13,0.01,0.17,0.05l0.12,0.12c0.16,0.16,0.22,0.38,0.17,0.6l-0.09,0.35c-0.02,0.08-0.1,0.14-0.18,0.14h-0.32
	c-0.13,0-0.25-0.05-0.34-0.14l-0.08-0.08c-0.05-0.05-0.11-0.08-0.18-0.08H13.4c-0.27,0-0.54-0.1-0.74-0.29l0,0l-0.22,0.39
	c-0.08,0.14-0.13,0.29-0.17,0.45h2.29c0.1,0,0.19,0.09,0.19,0.19c0,0.1-0.09,0.19-0.19,0.19h-2.38c-0.03,0.19-0.03,0.38,0,0.57
	l0.21,0.83c0.05,0.14,0.05,0.29,0,0.43l-1.15,2.44c-0.08,0.17-0.22,0.29-0.4,0.34v1l0.76-0.09c0.19-0.02,0.36-0.12,0.47-0.27l2-2.58
	l-0.61-0.6c-0.57-0.31-0.96-0.87-1.04-1.52v-0.12c-0.03-0.1,0.02-0.21,0.12-0.24c0.1-0.03,0.21,0.02,0.24,0.12
	c0.01,0.02,0.01,0.05,0.01,0.07v0.12c0.07,0.52,0.4,0.97,0.87,1.21h0.06l0,0l2.61,2.61c0.08,0.08,0.13,0.19,0.14,0.3l0,0h0.93v-0.13
	c-0.04-0.14-0.1-0.27-0.16-0.4l-2.14-4.27l0,0l0,0l0,0l-0.3-2.84c-0.01-0.05,0.01-0.11,0.05-0.15c0.17-0.17,0.29-0.39,0.35-0.62
	V7.58L14,6.31c-0.09-0.06-0.11-0.18-0.05-0.26c0.06-0.09,0.18-0.11,0.27-0.05l1.34,1.34c0.03,0.06,0.03,0.12,0,0.18v0.19
	c-0.07,0.27-0.2,0.52-0.39,0.73V8.5l0.9-0.9c0.02-0.03,0.02-0.07,0-0.1L16,6.94c-0.03-0.17,0.08-0.34,0.25-0.38l0.27-0.07
	c0.19-0.05,0.39,0.02,0.51,0.18l0.08,0.11c0.19,0.27,0.19,0.63,0,0.9l-1.19,1.91c-0.13,0.2-0.34,0.33-0.58,0.35l0.13,1.26l2.12,4.24
	c0.07,0.15,0.13,0.3,0.18,0.45l1,3.06c0.06,0.18,0.17,0.34,0.31,0.46l0,0l0.16,0.11l0.91,0.5l0.72,0.14
	c0.09,0.02,0.15,0.09,0.15,0.18v0.15c0.01,0.06,0.01,0.13,0,0.19c0.01,0.04,0.01,0.07,0,0.11c0,0.1-0.09,0.19-0.19,0.19c0,0,0,0,0,0
	h-16c-0.1-0.02-0.17-0.13-0.14-0.23c0.02-0.07,0.07-0.13,0.14-0.14H18c0-0.04,0-0.07,0-0.11v-0.4c0-0.08-0.02-0.16-0.07-0.23
	l-1.19-1.73c-0.24-0.36-0.4-0.77-0.44-1.2l-0.08-0.78c0.01-0.02,0.01-0.05,0-0.07l-1.74-1.73l-2,2.55
	c-0.18,0.23-0.44,0.38-0.73,0.41l-1.84,0.22c-0.2,0.02-0.4,0.08-0.58,0.16l-1.38,0.64c-0.14,0.07-0.26,0.17-0.36,0.29l-0.4,0.51
	L6.9,19.86c-0.03,0.07-0.09,0.12-0.17,0.12c-0.27,0-0.49-0.22-0.49-0.49v-2.11c0-0.27,0.22-0.49,0.49-0.49h0.23
	c0.16,0,0.32,0.02,0.48,0.06h0.13c0.11,0.03,0.22,0.01,0.32-0.05L9.14,16.06z M15.3,9.57c0.13-0.01,0.24-0.08,0.31-0.18l1.24-1.92
	c0.1-0.14,0.1-0.33,0-0.47l-0.08-0.11c-0.04-0.02-0.08-0.02-0.12,0l-0.24,0.06l0.1,0.57c0.02,0.15-0.03,0.31-0.14,0.42L15.27,9l0,0
	L15.3,9.57z M18.75,20c-0.04,0.04-0.09,0.06-0.14,0.06l0,0L18.3,20c0,0,0,0,0,0.07v0.41c0,0.06,0.05,0.11,0.11,0.11c0,0,0,0,0,0
	h2.09c0.06,0,0.11-0.05,0.11-0.11c0,0,0,0,0,0L20,20.4h-0.05L19,19.86v-0.05L18.75,20z M16.56,16.48v0.38c0.04,0.36,0.17,0.7,0.38,1
	l1.15,1.67l0.42,0.11l0.13-0.14c-0.13-0.14-0.22-0.31-0.28-0.49l-0.82-2.56L16.56,16.48z M12.91,10c0.13,0.12,0.3,0.19,0.48,0.19
	h0.06c0.17,0,0.33,0.07,0.45,0.19l0.08,0.08c0.03,0.01,0.05,0.01,0.08,0h0.18l0.05-0.21c0.02-0.09,0-0.19-0.07-0.25l0,0l-0.48,0.1
	c-0.17,0.03-0.34-0.02-0.46-0.15l-1.42-1.56c-0.07-0.08-0.06-0.2,0.02-0.27c0.01-0.01,0.02-0.02,0.03-0.02l0.6-0.3l0.3-0.15
	c0.1-0.05,0.22-0.02,0.27,0.08C13.13,7.83,13.1,7.95,13,8h-0.13l0.09,0.13c0.05,0.08,0.13,0.12,0.22,0.12
	c0.09,0,0.17-0.05,0.22-0.13l0.31-0.52c0.11-0.18,0.13-0.4,0.06-0.6l-0.36-1c-0.03-0.08-0.11-0.14-0.2-0.14l0,0
	c-0.05,0-0.1,0.02-0.14,0.06l-1.85,1.89c-0.16,0.16-0.17,0.42-0.01,0.58c0,0,0.01,0.01,0.01,0.01L12.91,10z M7.33,18.24L7,17.9
	c-0.05-0.07-0.05-0.15,0-0.22l0.19-0.38c-0.1-0.01-0.19-0.01-0.29,0H6.62c-0.06,0-0.11,0.05-0.11,0.11l0,0v2.09l0,0L6.74,19l0,0
	l0.42-0.53C7.21,18.39,7.27,18.31,7.33,18.24z M9.33,16.37L8,17.25c-0.14,0.09-0.3,0.13-0.46,0.12l-0.18,0.36l0.29,0.29h0.06
	l1.38-0.64c0.22-0.1,0.45-0.16,0.69-0.19l0.7-0.08v-1h-0.09c-0.37-0.02-0.73,0.07-1.05,0.26L9.33,16.37z M11.55,6.21
	c0.03,0.01,0.07,0.01,0.1,0l1.1-0.73c0.11-0.09,0.2-0.21,0.25-0.34l0.22,0.15c0.1,0.04,0.21-0.01,0.24-0.11
	c0.02-0.06,0.01-0.13-0.02-0.18L13,4.67c-0.09-0.06-0.21-0.03-0.26,0.06c-0.02,0.03-0.03,0.06-0.03,0.1c0,0.13-0.06,0.24-0.17,0.31
	l-1.1,0.73c-0.08,0.06-0.1,0.18-0.03,0.27c0.03,0.04,0.08,0.07,0.13,0.07H11.55z M12,5.35l0.32-0.78c0.07-0.18,0.25-0.3,0.45-0.3
	c0.08,0,0.15-0.05,0.18-0.13L13,3.9c0.03-0.11,0.09-0.2,0.17-0.28l0.12-0.12c0.08-0.08,0.18-0.12,0.29-0.12h0.5
	c0.39,0,0.71,0.32,0.71,0.71v0.15c0,0.12,0.02,0.23,0.06,0.34l0.07,0.2l0,0c-0.06,0.06-0.1,0.15-0.1,0.24v0.25H14.7
	c-0.2,0.07-0.33,0.25-0.33,0.46v0.08c0,0.07,0.04,0.14,0.1,0.17l0.27,0.13c0.17,0.08,0.3,0.23,0.36,0.41v0.1
	c0.03,0.08,0.1,0.13,0.18,0.13h0.06c0.1-0.03,0.15-0.14,0.12-0.24v-0.1c-0.09-0.27-0.28-0.5-0.54-0.63L14.76,5.7
	c0.01-0.04,0.03-0.07,0.07-0.08h0.14c0.14-0.05,0.23-0.18,0.23-0.32V5.07l0,0c0.09-0.09,0.12-0.22,0.08-0.34l-0.07-0.22
	c-0.01-0.07-0.01-0.15,0-0.22V4.08c0-0.6-0.48-1.08-1.08-1.08c-0.01,0-0.03,0-0.04,0h-0.5c-0.21,0-0.4,0.08-0.55,0.23l-0.12,0.12
	c-0.12,0.12-0.21,0.26-0.26,0.42V3.9c-0.29,0.05-0.54,0.25-0.65,0.52L11.69,5.2c-0.05,0.09-0.02,0.21,0.07,0.26
	c0.09,0.05,0.21,0.02,0.26-0.07c0.01-0.01,0.01-0.03,0.02-0.04L12,5.35z M3,7.35C3,5.6,4.42,4.18,6.17,4.18
	c1.75,0,3.17,1.42,3.17,3.17s-1.42,3.17-3.17,3.17C4.43,10.51,3.02,9.11,3,7.37V7.35z M3.38,7.35c0,1.55,1.25,2.8,2.8,2.8
	s2.8-1.25,2.8-2.8s-1.25-2.8-2.8-2.8C4.63,4.55,3.38,5.8,3.38,7.35c0,0.01,0,0.01,0,0.02V7.35z M4.38,7.54H3.79
	c-0.1-0.02-0.17-0.13-0.14-0.23c0.02-0.07,0.07-0.13,0.14-0.14H6V5.73c0-0.1,0.09-0.19,0.19-0.19l0,0C7.2,5.53,8.03,6.35,8.03,7.36
	C8.04,8.37,7.22,9.19,6.21,9.2C5.26,9.21,4.47,8.49,4.38,7.54z M4.76,7.54c0.09,0.8,0.81,1.36,1.61,1.27C7.17,8.72,7.73,8,7.64,7.2
	c-0.08-0.67-0.6-1.19-1.27-1.27v1.44c0,0.1-0.09,0.19-0.19,0.19l0,0L4.76,7.54z M6.18,5.32c0.1,0,0.19-0.09,0.19-0.19l0,0V5
	C6.35,4.9,6.24,4.83,6.14,4.86C6.07,4.87,6.02,4.93,6,5v0.15C6.01,5.24,6.09,5.32,6.18,5.32z M6.18,9.43C6.08,9.43,6,9.51,6,9.61
	v0.15c0,0.1,0.09,0.19,0.19,0.19s0.19-0.09,0.19-0.19V9.61c0-0.1-0.08-0.19-0.19-0.19c0,0-0.01,0-0.01,0V9.43z M8.42,7.56h0.15
	c0.1-0.02,0.17-0.13,0.14-0.23C8.7,7.26,8.64,7.21,8.57,7.19H8.42c-0.1,0-0.19,0.09-0.19,0.19s0.09,0.19,0.19,0.19V7.56z"/>
</svg>
