<svg xmlns="http://www.w3.org/2000/svg" viewBox="0 0 24 24">
<path d="M3,3h18v18H3V3z M4,20h16v-6.46l0,0l-1.5-1.12c-0.22-0.17-0.27-0.48-0.1-0.7c0.17-0.22,0.48-0.27,0.7-0.1l1,0.71V7l-2.28,1
	c-0.07,0.01-0.13,0.01-0.2,0c-0.08,0-0.15-0.02-0.22-0.05l-2.25-1.13c-0.24-0.14-0.31-0.45-0.17-0.69c0.13-0.21,0.39-0.3,0.62-0.2
	l2,1l2.36-1V4H6.88v1.13l1.07,2.15c0.11,0.25-0.01,0.55-0.27,0.65c-0.23,0.1-0.49,0.01-0.62-0.2L5.93,5.47
	C5.9,5.4,5.88,5.33,5.88,5.25V4H4v10.93l3.45,1l2.07-1c0.25-0.11,0.55,0.01,0.65,0.27c0.1,0.23,0.01,0.49-0.2,0.62l-2.25,1.13
	C7.65,16.98,7.58,17,7.5,17H7.36L4,16V20z M10.1,10.52c0.09,0.09,0.15,0.22,0.15,0.35V12c0,0.28-0.22,0.5-0.5,0.5H7.5
	C7.22,12.5,7,12.28,7,12v-1.12c0-0.13,0.06-0.26,0.15-0.35L8.27,9.4c0.19-0.2,0.51-0.21,0.71-0.02C8.98,9.38,8.99,9.39,9,9.4
	L10.1,10.52z M9.25,11.08l-0.62-0.62L8,11.08v0.42h1.25V11.08z M18,16.15c0.09,0.09,0.15,0.22,0.15,0.35v1.13
	c0,0.28-0.22,0.5-0.5,0.5h-3.4c-0.28,0-0.5-0.22-0.5-0.5V16.5c0-0.19,0.11-0.37,0.28-0.45l2.25-1.12c0.19-0.1,0.43-0.06,0.58,0.09
	L18,16.15z M17.15,16.71L16.4,16l-1.65,0.83v0.32h2.38L17.15,16.71z M11.23,6c-0.05-0.04-0.1-0.08-0.16-0.11
	c-0.13-0.05-0.26-0.05-0.39,0C10.62,5.92,10.57,5.96,10.52,6c-0.05,0.05-0.08,0.1-0.11,0.16c-0.01,0.06-0.01,0.13,0,0.19
	c0,0.13,0.06,0.26,0.15,0.36c0.2,0.19,0.51,0.19,0.71-0.01c0.09-0.09,0.14-0.22,0.14-0.35c0.01-0.06,0.01-0.13,0-0.19
	C11.36,6.1,11.3,6.05,11.23,6z M14.06,12.44c0.12,0.05,0.26,0.05,0.38,0c0.06-0.02,0.12-0.06,0.16-0.11
	c0.1-0.09,0.15-0.22,0.15-0.35c0.02-0.06,0.02-0.13,0-0.19c-0.02-0.06-0.06-0.12-0.11-0.16c-0.14-0.14-0.35-0.18-0.54-0.11
	c-0.12,0.05-0.22,0.15-0.27,0.27c-0.02,0.06-0.02,0.13,0,0.19c0,0.13,0.05,0.26,0.15,0.35c0.02,0.05,0.04,0.09,0.08,0.13
	L14.06,12.44z M11.06,18.27c-0.19-0.07-0.4-0.03-0.54,0.11c-0.19,0.2-0.19,0.5,0,0.7c0.09,0.1,0.22,0.15,0.35,0.15
	c0.14,0,0.27-0.05,0.36-0.15c0.19-0.2,0.19-0.5,0-0.7c-0.05-0.04-0.11-0.08-0.17-0.09L11.06,18.27z"/>
</svg>
