<svg xmlns="http://www.w3.org/2000/svg" viewBox="0 0 24 24">
<path d="M21.65,9.3C21.87,9.52,22,9.82,22,10.14v1.44c0,0.45-0.26,0.86-0.66,1.06l-0.76,0.38l0.91,0.45c0.44,0.22,0.5,0.51,0.5,0.66
	s-0.07,0.44-0.5,0.66L13,19.08c-0.66,0.29-1.42,0.29-2.08,0l-8.41-4.22C2.07,14.64,2,14.35,2,14.2s0.07-0.44,0.51-0.66l0.91-0.45
	l-0.76-0.38C2.25,12.51,2,12.09,2,11.64v-1.43c0-0.32,0.13-0.62,0.35-0.84l1.06-1.06C3.64,8.1,3.94,7.99,4.25,8h0.82
	c0.21,0,0.4-0.08,0.55-0.23l1.05-1.09c0.22-0.22,0.52-0.35,0.84-0.35h0.82c0.21,0,0.4-0.08,0.55-0.23L9.93,5
	c0.22-0.22,0.52-0.35,0.84-0.35h2.45c0.32,0,0.62,0.13,0.84,0.35l1.06,1.1c0.15,0.15,0.34,0.23,0.55,0.23h0.82
	c0.32,0,0.62,0.13,0.84,0.35l1.06,1.06c0.15,0.15,0.34,0.23,0.55,0.23h0.82c0.32,0,0.62,0.13,0.84,0.35L21.65,9.3z M21.58,10.14
	c0-0.2-0.09-0.4-0.23-0.54l-1.05-1c-0.15-0.15-0.34-0.23-0.55-0.23h-0.82c-0.32,0-0.62-0.14-0.84-0.37L17,7
	c-0.15-0.15-0.34-0.23-0.55-0.23h-0.82c-0.32,0-0.62-0.13-0.84-0.35l-1.02-1.08c-0.14-0.15-0.34-0.23-0.55-0.23h-2.45
	c-0.2,0-0.4,0.09-0.54,0.23L9.17,6.4C8.95,6.62,8.65,6.75,8.33,6.75H7.51C7.31,6.77,7.13,6.85,7,7L5.91,8
	C5.69,8.22,5.39,8.35,5.07,8.35H4.25c-0.21,0-0.4,0.08-0.55,0.23L2.64,9.66C2.5,9.8,2.41,10,2.41,10.2v1.44
	c0,0.29,0.17,0.56,0.43,0.69l1,0.52l0.23,0.12l0.23,0.12l6.8,3.4c0.54,0.27,1.16,0.27,1.7,0l6.8-3.4l0.23-0.12l0.23-0.12l1-0.52
	c0.26-0.13,0.43-0.4,0.43-0.69L21.58,10.14z M20.89,9.53h-0.33c-0.24,0-0.47,0.07-0.67,0.21l-0.17,0.14L18.66,11
	c-0.14,0.14-0.34,0.23-0.54,0.23h-0.87c-0.09-0.01-0.19-0.01-0.28,0c-0.09,0.02-0.18,0.06-0.26,0.1l-0.2,0.13l-0.09,0.08l-1,1
	c-0.15,0.15-0.34,0.23-0.55,0.23H14c-0.32,0-0.62,0.13-0.84,0.35l-0.65,0.65c-0.31,0.29-0.78,0.29-1.09,0l-0.65-0.65
	c-0.22-0.22-0.52-0.35-0.84-0.35H9.14c-0.21,0-0.4-0.08-0.55-0.23l-1.05-0.97l-0.06-0.05l-0.19-0.14C7.2,11.33,7.1,11.3,7,11.28
	c-0.11-0.03-0.22-0.05-0.33-0.05H5.88c-0.21,0-0.4-0.08-0.55-0.23L4.27,9.94L4.1,9.8C3.9,9.66,3.67,9.59,3.43,9.59H3.11
	C2.99,9.59,2.9,9.68,2.9,9.8s0.09,0.21,0.21,0.21l0,0h0.33c0.21,0,0.4,0.08,0.55,0.23L5,11.29c0.22,0.22,0.52,0.35,0.84,0.35h0.88
	c0.18,0.01,0.36,0.09,0.49,0.22l1.09,1.07c0.22,0.22,0.52,0.35,0.84,0.35H10c0.21,0,0.4,0.08,0.55,0.23l0.65,0.65
	c0.46,0.46,1.22,0.46,1.68,0l0.65-0.65c0.15-0.15,0.34-0.23,0.55-0.23h0.82c0.32,0,0.62-0.13,0.85-0.35l1-1
	c0.14-0.14,0.34-0.23,0.54-0.23h0.87c0.32-0.01,0.63-0.16,0.84-0.4l1-1.06c0.14-0.14,0.34-0.23,0.54-0.23h0.33
	c0.12,0,0.21-0.09,0.21-0.21s-0.09-0.21-0.21-0.21l0,0L20.89,9.53z M11.89,8.37h0.09h0.09l0.33-0.16c0.09-0.07,0.12-0.2,0.05-0.29
	c-0.05-0.08-0.15-0.11-0.24-0.08L12,8l-0.23-0.12c-0.11-0.04-0.23,0.02-0.27,0.13c-0.03,0.09,0,0.19,0.08,0.24L11.89,8.37z
	 M11.89,11.64h0.09h0.09l0.33-0.16c0.11-0.04,0.17-0.16,0.13-0.27c-0.04-0.11-0.16-0.17-0.27-0.13c-0.02,0.01-0.04,0.02-0.05,0.03
	l-0.23,0.12l-0.23-0.12c-0.09-0.07-0.23-0.04-0.29,0.05c-0.07,0.09-0.04,0.23,0.05,0.29c0.02,0.01,0.03,0.02,0.05,0.03L11.89,11.64z
	 M8.64,10.07h0.09h0.09l0.33-0.16c0.1-0.06,0.14-0.18,0.09-0.28C9.19,9.55,9.09,9.5,9,9.53L8.77,9.65L8.5,9.53
	C8.4,9.48,8.27,9.52,8.22,9.62C8.17,9.72,8.21,9.84,8.31,9.9L8.64,10.07z M15.17,10.07h0.09h0.09l0.33-0.16
	c0.1-0.06,0.14-0.18,0.09-0.28c-0.05-0.1-0.18-0.14-0.28-0.09l-0.23,0.12L15,9.53c-0.1-0.05-0.23-0.01-0.28,0.09
	c-0.05,0.1-0.01,0.22,0.09,0.28L15.17,10.07z"/>
</svg>
