<svg xmlns="http://www.w3.org/2000/svg" viewBox="0 0 24 24">
<path d="M19.92,7.05v10c0,0.42,0.17,0.83,0.47,1.13l0.19,0.19c0.62,0.62,0.62,1.63,0,2.25s-1.63,0.62-2.25,0l-0.19-0.19
	c-0.29-0.3-0.68-0.48-1.1-0.5h-10c-0.42,0-0.82,0.17-1.12,0.47l-0.19,0.19c-0.62,0.62-1.63,0.62-2.25,0s-0.62-1.63,0-2.25l0.19-0.19
	c0.3-0.29,0.48-0.68,0.5-1.1v-10C4.17,6.63,4,6.23,3.7,5.93L3.51,5.74C2.83,5.19,2.73,4.18,3.28,3.5s1.56-0.79,2.24-0.23
	c0.09,0.07,0.17,0.16,0.24,0.25l0.19,0.19C6.24,4,6.63,4.17,7.04,4.18h10c0.42,0,0.83-0.17,1.13-0.47l0.19-0.19
	c0.62-0.62,1.63-0.62,2.25,0s0.62,1.63,0,2.25l-0.19,0.19C20.12,6.24,19.94,6.63,19.92,7.05z M19.17,17.05v-10
	c0-0.62,0.25-1.22,0.69-1.66l0.18-0.15c0.33-0.33,0.33-0.86,0-1.19s-0.86-0.33-1.19,0l-0.19,0.19c-0.43,0.43-1.01,0.68-1.62,0.69
	h-10c-0.62,0-1.22-0.25-1.66-0.69L5.23,4.05c-0.33-0.33-0.86-0.33-1.19,0s-0.33,0.86,0,1.19l0.19,0.19
	c0.43,0.43,0.68,1.01,0.69,1.62v10c0,0.62-0.25,1.22-0.69,1.66l-0.19,0.15c-0.33,0.33-0.33,0.86,0,1.19c0.33,0.33,0.86,0.33,1.19,0
	l0.19-0.19c0.43-0.43,1.01-0.67,1.62-0.68h10c0.62,0,1.22,0.25,1.66,0.69l0.19,0.19c0.28,0.37,0.81,0.43,1.18,0.15
	c0.37-0.28,0.43-0.81,0.15-1.18c-0.05-0.06-0.11-0.12-0.18-0.17l-0.19-0.19C19.42,18.24,19.18,17.66,19.17,17.05z M16,13.99
	c-0.14-0.15-0.38-0.15-0.52-0.01c0,0,0,0-0.01,0.01l-0.48,0.48l-0.48-0.48c-0.15-0.15-0.38-0.15-0.53,0c-0.15,0.15-0.15,0.38,0,0.53
	L14.46,15l-0.48,0.48c-0.15,0.15-0.15,0.38,0,0.53c0.15,0.15,0.38,0.15,0.53,0l0,0l0.48-0.48l0.48,0.48c0.15,0.15,0.38,0.15,0.53,0
	c0.15-0.15,0.15-0.38,0-0.53l0,0L15.52,15L16,14.52C16.15,14.37,16.15,14.14,16,13.99C16.01,13.99,16.01,13.99,16,13.99z
	 M8.45,14.99L8,15.49c-0.15,0.15-0.15,0.38,0,0.53c0.15,0.15,0.38,0.15,0.53,0L9,15.54l0.48,0.48c0.15,0.14,0.38,0.14,0.52,0
	s0.14-0.38,0-0.52l-0.48-0.48L10,14.52c0.15-0.15,0.15-0.38,0-0.53c-0.15-0.15-0.38-0.15-0.53,0L9,14.47l-0.48-0.48
	c-0.15-0.15-0.38-0.15-0.53,0c-0.15,0.15-0.15,0.38,0,0.53l0,0L8.45,14.99z M16,7.99c-0.14-0.15-0.38-0.15-0.52-0.01
	c0,0,0,0-0.01,0.01l-0.48,0.48l-0.48-0.48c-0.15-0.15-0.38-0.15-0.53,0c-0.15,0.15-0.15,0.38,0,0.53L14.46,9l-0.48,0.48
	c-0.15,0.15-0.15,0.38,0,0.53s0.38,0.15,0.53,0l0.48-0.48l0.48,0.48c0.15,0.15,0.38,0.15,0.53,0c0.15-0.15,0.15-0.38,0-0.53L15.52,9
	L16,8.52C16.15,8.37,16.15,8.14,16,7.99C16.01,7.99,16.01,7.99,16,7.99z M8.52,10.02L9,9.54l0.48,0.48
	c0.15,0.14,0.38,0.14,0.53-0.01c0.14-0.15,0.14-0.38-0.01-0.52L9.52,9.01L10,8.52c0.15-0.15,0.15-0.38,0-0.53
	c-0.15-0.15-0.38-0.15-0.53,0L9,8.47L8.52,7.99c-0.15-0.15-0.38-0.15-0.53,0c-0.15,0.15-0.15,0.38,0,0.53L8.47,9L8,9.49
	c-0.15,0.15-0.15,0.38,0,0.53c0.15,0.15,0.38,0.15,0.53,0L8.52,10.02z"/>
</svg>
