<svg xmlns="http://www.w3.org/2000/svg" viewBox="0 0 24 24">
<path d="M18.34,14.46c-0.27,0.9-0.67,1.75-1.18,2.54H21c0.28,0,0.5,0.22,0.5,0.5S21.28,18,21,18h-4.57c-0.9,1.06-2,1.92-3.25,2.52
	H21c0.28,0,0.5,0.22,0.5,0.5s-0.22,0.5-0.5,0.5H3c-0.28,0-0.5-0.22-0.5-0.5s0.22-0.5,0.5-0.5h5.87c2.31,0,4.53-0.9,6.19-2.52H3
	c-0.28,0-0.5-0.22-0.5-0.5S2.72,17,3,17h5.87c1.84-0.01,3.55-0.96,4.53-2.52H3c-0.28,0-0.5-0.22-0.5-0.5s0.22-0.5,0.5-0.5h5.87
	c1.02,0,1.85-0.83,1.85-1.85S9.89,9.78,8.87,9.78c0,0,0,0,0,0H3c-0.28,0-0.5-0.22-0.5-0.5s0.22-0.5,0.5-0.5h5.87
	c1.57,0,2.85,1.28,2.85,2.85c0,0.68-0.25,1.34-0.7,1.85h2.87c0.23-0.59,0.34-1.22,0.35-1.85c0.01-2.97-2.4-5.38-5.37-5.39
	c0,0,0,0,0,0H3c-0.28,0-0.5-0.22-0.5-0.5s0.22-0.5,0.5-0.5h5.87c3.52-0.02,6.39,2.82,6.4,6.34c0,0.64-0.09,1.27-0.27,1.88h2.6
	c0.88-4.13-1.27-8.31-5.14-10c-0.25-0.11-0.37-0.41-0.26-0.66s0.41-0.37,0.66-0.26c4.24,1.84,6.63,6.38,5.75,10.92H21
	c0.28,0,0.5,0.22,0.5,0.5s-0.22,0.5-0.5,0.5L18.34,14.46z M17.29,14.46h-2.73c-0.52,1.04-1.3,1.92-2.28,2.54h3.66
	c0.58-0.77,1.03-1.63,1.34-2.54L17.29,14.46z"/>
</svg>
