<svg xmlns="http://www.w3.org/2000/svg" viewBox="0 0 24 24">
<path d="M18.17,21c0,0.28-0.22,0.5-0.5,0.5H6.33c-0.28,0-0.5-0.22-0.5-0.5s0.22-0.5,0.5-0.5h1.06v-1c0-0.66,0.26-1.3,0.73-1.77
	c0.28-0.28,0.44-0.66,0.44-1.06V16c0-0.66,0.26-1.3,0.73-1.77l0.42-0.42L8.57,3.05C8.54,2.78,8.73,2.54,9,2.5
	c0.27-0.02,0.51,0.17,0.55,0.44l1.13,10.51h3.8l1.13-10.5c0.04-0.27,0.28-0.46,0.55-0.44c0.27,0.03,0.47,0.28,0.44,0.55L15.43,14v1
	l0.91,2.72c0.18,0.53,0.27,1.08,0.27,1.64v1.14h1.07C17.95,20.51,18.17,20.73,18.17,21z M8.39,19.79L9.2,19
	c0.53-0.53,1.25-0.83,2-0.83h4.2v-0.06l-0.93-2.8c-0.01-0.05-0.01-0.11,0-0.16v-0.67h-4L10,14.9c-0.29,0.29-0.44,0.69-0.43,1.1v0.69
	c0,0.66-0.26,1.3-0.73,1.77c-0.28,0.28-0.44,0.66-0.44,1.06L8.39,19.79z M15.61,19.41c0-0.09,0-0.17,0-0.26h-4.4
	c-0.49,0-0.96,0.19-1.31,0.54L9.09,20.5h6.51L15.61,19.41z M12.61,4.06c-0.28,0-0.5,0.22-0.5,0.5s0.22,0.5,0.5,0.5s0.5-0.22,0.5-0.5
	S12.89,4.06,12.61,4.06z M12.61,6.06c-0.28,0-0.5,0.22-0.5,0.5c-0.01,0.27,0.21,0.49,0.48,0.5c0.01,0,0.01,0,0.02,0
	c0.28,0,0.5-0.22,0.5-0.5c-0.01-0.28-0.24-0.51-0.52-0.5c0,0,0,0,0,0L12.61,6.06z M12.61,8.06c-0.28,0-0.5,0.22-0.5,0.5
	c-0.01,0.27,0.21,0.49,0.48,0.5c0.01,0,0.01,0,0.02,0c0.28,0,0.5-0.22,0.5-0.5c-0.01-0.28-0.24-0.51-0.52-0.5c0,0,0,0,0,0
	L12.61,8.06z M12.61,10.06c-0.28,0-0.5,0.22-0.5,0.5s0.22,0.5,0.5,0.5s0.5-0.22,0.5-0.5S12.89,10.06,12.61,10.06z"/>
</svg>
