<svg xmlns="http://www.w3.org/2000/svg" viewBox="0 0 24 24">
<path d="M17,11.84L17,11.84L16.7,12l0,0l-4.11,2c-0.37,0.18-0.81,0.18-1.18,0L7.3,12l-0.23-0.12l-0.23-0.12l-3.11-1.57L3.18,9.92
	c-0.11-0.04-0.23,0.02-0.27,0.13c-0.03,0.09,0,0.19,0.08,0.24L6.37,12l0.23,0.12l0.23,0.12l4.38,2.19c0.49,0.24,1.07,0.24,1.56,0
	l4.38-2.19l0,0c0.1-0.05,0.14-0.18,0.09-0.28C17.2,11.87,17.1,11.82,17,11.84z M20.74,10l-2.31,1.16c-0.1,0.06-0.13,0.19-0.07,0.29
	c0.03,0.06,0.1,0.1,0.16,0.1h0.09l2.31-1.16c0.11-0.04,0.17-0.16,0.13-0.27c-0.04-0.11-0.16-0.17-0.27-0.13
	c-0.02,0.01-0.04,0.02-0.05,0.03L20.74,10z M22,14.57c0,0.15-0.07,0.44-0.51,0.66L13,19.46c-0.66,0.29-1.42,0.29-2.08,0l-8.41-4.23
	C2.07,15,2,14.72,2,14.57s0.07-0.44,0.51-0.66L3,13.68l-0.29-0.15c-0.43-0.2-0.7-0.62-0.71-1.09V9.88c0-0.47,0.26-0.89,0.68-1.1
	l8.54-4.27c0.49-0.24,1.07-0.24,1.56,0l8.54,4.27C21.74,8.98,22,9.41,22,9.87v2.57c0,0.47-0.26,0.89-0.68,1.1l-0.29,0.14l0.46,0.23
	C21.93,14.13,22,14.42,22,14.57z M20.57,13.45l0.57-0.28c0.28-0.14,0.45-0.42,0.45-0.73V9.87c0-0.31-0.17-0.59-0.45-0.73l-8.55-4.26
	c-0.37-0.18-0.81-0.18-1.18,0L2.87,9.15C2.59,9.29,2.42,9.57,2.42,9.88v2.56c0,0.31,0.17,0.59,0.45,0.73l0.57,0.29l0.23,0.12
	L3.9,13.7l7.25,3.63c0.54,0.27,1.16,0.27,1.7,0l7.25-3.62l0.23-0.12L20.57,13.45z"/>
</svg>
