<svg xmlns="http://www.w3.org/2000/svg" viewBox="0 0 24 24">
<path d="M12,3.91c0.28,0,0.5-0.22,0.5-0.5V3c0-0.28-0.22-0.5-0.5-0.5S11.5,2.72,11.5,3v0.41C11.5,3.69,11.72,3.91,12,3.91z
	 M11.5,20.59V21c0,0.28,0.22,0.5,0.5,0.5s0.5-0.22,0.5-0.5v-0.41c0-0.28-0.22-0.5-0.5-0.5S11.5,20.31,11.5,20.59z M20.09,12
	c0,0.28,0.22,0.5,0.5,0.5H21c0.28,0,0.5-0.22,0.5-0.5s-0.22-0.5-0.5-0.5h-0.41C20.31,11.5,20.09,11.72,20.09,12z M3,12.5h0.41
	c0.28,0,0.5-0.22,0.5-0.5s-0.22-0.5-0.5-0.5H3c-0.28,0-0.5,0.22-0.5,0.5S2.72,12.5,3,12.5z M18.64,12c0-3.67-2.97-6.64-6.64-6.64
	c-0.28,0-0.5,0.22-0.5,0.5v5.64H5.86c-0.28,0-0.5,0.22-0.5,0.5s0.22,0.5,0.5,0.5H12c0.28,0,0.5-0.22,0.5-0.5V6.39
	c3.1,0.26,5.41,2.99,5.14,6.1c-0.26,3.1-2.99,5.41-6.1,5.14c-1.51-0.13-2.9-0.86-3.86-2.02L9,15.66c0.27,0.01,0.5-0.21,0.52-0.48
	c0.01-0.28-0.2-0.51-0.48-0.52c-0.01,0-0.03,0-0.04,0l-2.33-0.09l0,0c-0.08,0-0.17,0.02-0.24,0.06c-0.07,0.04-0.13,0.11-0.17,0.18
	v0.05c0,0.04,0,0.07,0,0.11l0,0l-0.29,2.32c-0.04,0.27,0.16,0.52,0.43,0.56h0.06c0.25,0,0.47-0.19,0.5-0.44L7,16.37
	c2.38,2.77,6.56,3.09,9.34,0.7C17.81,15.8,18.66,13.95,18.64,12z M32.63,10.43c0-0.05,0.01-0.11,0.03-0.16"/>
</svg>
