<svg xmlns="http://www.w3.org/2000/svg" viewBox="0 0 24 24">
<path d="M15.52,12.29h1.18c0.21,0,0.4,0.14,0.47,0.34l1.17,3.52c0.09,0.26-0.05,0.55-0.31,0.63c-0.05,0.02-0.1,0.03-0.16,0.03h-3.52
	c-0.28,0-0.5-0.23-0.5-0.5c0-0.05,0.01-0.11,0.03-0.16L15,12.62C15.07,12.4,15.29,12.26,15.52,12.29L15.52,12.29z M15,15.8h2.13
	l-0.84-2.52h-0.45L15,15.8z M9.73,17.49l7.91,4c0.24,0.14,0.54,0.07,0.69-0.17s0.07-0.54-0.17-0.69c-0.02-0.01-0.04-0.02-0.07-0.03
	l-7.91-4c-0.91-0.46-1.28-1.57-0.82-2.48c0.16-0.31,0.4-0.58,0.7-0.76l4.4-2.64c1.35-0.81,1.79-2.56,0.97-3.91
	c-0.28-0.47-0.69-0.85-1.18-1.09L7.12,2.54C6.88,2.41,6.57,2.5,6.44,2.75S6.41,3.3,6.65,3.42c0.02,0.01,0.04,0.02,0.06,0.03
	l7.11,3.16c0.91,0.46,1.29,1.57,0.83,2.48c-0.16,0.31-0.4,0.58-0.7,0.76L9.54,12.5c-1.35,0.81-1.79,2.56-0.99,3.91
	c0.28,0.47,0.69,0.85,1.18,1.09V17.49z M9.65,10.93H6.13c-0.28,0-0.5-0.23-0.5-0.5c0-0.05,0.01-0.11,0.03-0.16l1.17-3.52
	C6.9,6.55,7.09,6.41,7.3,6.41h1.18C8.71,6.39,8.93,6.53,9,6.75l1.17,3.52c0.09,0.26-0.05,0.55-0.31,0.63
	c-0.05,0.02-0.1,0.03-0.16,0.03H9.65z M9,9.93L8.12,7.41H7.67L6.82,9.93H9z"/>
</svg>
