<svg xmlns="http://www.w3.org/2000/svg" viewBox="0 0 24 24">
<path d="M21,15.41h-4.59V3c0-0.28-0.22-0.5-0.5-0.5h-7c-0.28,0-0.5,0.22-0.5,0.5v8.89H3c-0.28,0-0.5,0.22-0.5,0.5V21
	c0,0.28,0.22,0.5,0.5,0.5s0.5-0.22,0.5-0.5v-8.11h8.39v3c0,0.28,0.22,0.5,0.5,0.5s0.5-0.22,0.5-0.5v-3.5c0-0.28-0.22-0.5-0.5-0.5h-3
	V3.5h6v12.41c0,0.28,0.22,0.5,0.5,0.5h4.61V21c0,0.28,0.22,0.5,0.5,0.5s0.5-0.22,0.5-0.5v-5.09C21.5,15.63,21.28,15.41,21,15.41z
	 M10.72,6.52V7.7c0,0.28,0.22,0.5,0.5,0.5s0.5-0.22,0.5-0.5V6.52c0-0.28-0.22-0.5-0.5-0.5S10.72,6.24,10.72,6.52z M9.37,16.94v-1.17
	c0-0.28-0.22-0.5-0.5-0.5s-0.5,0.22-0.5,0.5v1.17c0,0.28,0.22,0.5,0.5,0.5S9.37,17.22,9.37,16.94z"/>
</svg>
