<svg xmlns="http://www.w3.org/2000/svg" viewBox="0 0 24 24">
<path d="M13,21.5H3c-0.28,0-0.5-0.22-0.5-0.5s0.22-0.5,0.5-0.5h5.72c-0.68-0.32-1.31-0.72-1.9-1.19l-1-0.77
	C5.15,18,5,17.03,5.48,16.31l1.71-2.57l3.5-10.89c0.09-0.28,0.38-0.43,0.65-0.35c0.28,0.09,0.43,0.38,0.35,0.65L8.33,13.6l2.78,0.7
	l6.72-11.55c0.14-0.24,0.44-0.32,0.68-0.19c0.24,0.14,0.32,0.44,0.19,0.69l0,0l-6.62,11.37c0.49,0.29,0.79,0.81,0.81,1.38v0.51
	c0,0.31,0.21,0.58,0.51,0.65l2.92,0.73c0.75,0.18,1.27,0.85,1.27,1.62v0.26c0,0.23-0.05,0.46-0.14,0.67H21c0.28,0,0.5,0.22,0.5,0.5
	s-0.22,0.5-0.5,0.5h-8V21.5z M13,20.5h2.88c0.37-0.01,0.66-0.3,0.67-0.67v-0.26c0-0.31-0.21-0.58-0.51-0.65l-2.92-0.73
	c-0.75-0.18-1.27-0.85-1.27-1.62V16c0-0.31-0.21-0.58-0.51-0.65l-3.46-0.87l-1.52,2.38c-0.2,0.29-0.13,0.68,0.14,0.9l1,0.77
	C9.06,19.79,11,20.48,13,20.5z M17.32,15.89h1.17c0.28,0,0.5-0.22,0.5-0.5s-0.22-0.5-0.5-0.5h-1.15c-0.28,0-0.5,0.22-0.5,0.5
	s0.22,0.5,0.5,0.5H17.32z M17.4,11.53c-0.19-0.2-0.51-0.2-0.71,0c0,0,0,0,0,0l-0.83,0.83c-0.2,0.2-0.2,0.51,0,0.71
	c0.2,0.2,0.51,0.2,0.71,0l0,0l0.83-0.83c0.2-0.19,0.21-0.51,0.02-0.71c0,0,0,0,0,0L17.4,11.53z"/>
</svg>
