<svg xmlns="http://www.w3.org/2000/svg" viewBox="0 0 24 24">
<path d="M17,11.7c0,0.12-0.09,0.21-0.21,0.21h-0.22c-0.12,0-0.21-0.1-0.2-0.22c0-0.07,0.04-0.14,0.1-0.17h0.1h0.22
	C16.9,11.52,16.98,11.6,17,11.7z M17.52,10.26H17.3c-0.12,0-0.21,0.09-0.21,0.21s0.09,0.21,0.21,0.21h0.22
	c0.12,0,0.21-0.09,0.21-0.21S17.64,10.26,17.52,10.26z M22.01,10.89L22.01,10.89V12c0,0.15-0.07,0.44-0.51,0.66l-0.91,0.45
	l0.91,0.45c0.44,0.22,0.51,0.51,0.51,0.66s-0.07,0.44-0.51,0.66L13,19.11c-0.66,0.29-1.42,0.29-2.08,0l-8.41-4.23
	C2.07,14.66,2,14.37,2,14.22s0.07-0.44,0.51-0.66l0.91-0.45l-0.91-0.45C2.07,12.44,2,12.15,2,12V9.77l0,0
	c0-0.15,0.07-0.44,0.51-0.66L11,4.89c0.66-0.29,1.42-0.29,2.08,0L17.27,7l0,0l0,0l0,0c0.01,0.03,0.01,0.07,0,0.1v1l4.11,2.06
	c0.55,0.29,0.62,0.58,0.62,0.73H22.01z M21.59,11.5l-0.09,0.05l-2,1l-0.23,0.12l-0.23,0.12l-6,3c-0.66,0.29-1.42,0.29-2.08,0
	l-4.23-2.13l0,0L6.67,13.6l0,0c-0.01-0.03-0.01-0.07,0-0.1v-1l-0.51-0.26l-0.23-0.12L5.64,12l-1.3-0.65
	c-0.11-0.02-0.19-0.13-0.17-0.24c0.02-0.11,0.13-0.19,0.24-0.17C4.46,10.94,4.5,10.97,4.53,11l0.21,0.1l1.37,0.69l0.23,0.12
	l0.23,0.12l0.26,0.13L12,9.54l0.36-0.18l0.3-0.15l1.25-0.63l0.93-0.47c0.09-0.07,0.23-0.04,0.29,0.05c0.07,0.09,0.04,0.23-0.05,0.29
	c-0.02,0.01-0.03,0.02-0.05,0.03l-1.85,0.93L13,9.53l-0.25,0.12l-0.5,0.25v0.65L13.37,10l0.23-0.12l0.23-0.12L17,8.17V7.53
	l-0.81,0.41c-0.1,0.05-0.23,0.01-0.28-0.09l0,0c-0.06-0.1-0.02-0.23,0.08-0.29c0,0,0.01,0,0.01,0l0.49-0.25l0.25-0.12l-0.19-0.1
	l-3.7-1.83c-0.54-0.23-1.16-0.23-1.7,0L7.29,7.19L9.52,8.3l0.31,0.16l0.31,0.16l0.63,0.32L11,9c0.09,0.05,0.14,0.16,0.1,0.26l0,0
	c-0.01,0.02-0.03,0.04-0.05,0.06c-0.03,0.04-0.08,0.06-0.13,0.06h-0.09l-0.66-0.33L9.49,8.71L9.18,8.55L8.87,8.39l-2-1L2.72,9.47
	l0,0C2.6,9.51,2.5,9.6,2.45,9.72l0,0c0.01,0.06,0.04,0.12,0.09,0.16c0.06,0.05,0.12,0.1,0.19,0.13l0.72,0.36
	c0.1,0.06,0.14,0.18,0.09,0.28c-0.03,0.07-0.11,0.12-0.19,0.12H3.26l-0.72-0.36l-0.09-0.05V12c0,0.09,0.1,0.2,0.28,0.29l1.19,0.59
	L4.15,13l0.23,0.12l6.8,3.4c0.54,0.23,1.16,0.23,1.7,0l6.8-3.4L19.91,13l0.23-0.12l1.19-0.59c0.17-0.09,0.28-0.19,0.28-0.29
	L21.59,11.5z M7,12.49v0.65l4.76-2.38v-0.65L7,12.49z M21.55,10.89c-0.01-0.07-0.06-0.14-0.12-0.18l-0.16-0.1l-0.25-0.12l-3.85-1.96
	l0,0L14.3,10l-0.23,0.12l-0.23,0.12l-6.55,3.23l3.86,1.93c0.54,0.23,1.16,0.23,1.7,0l5.69-2.84l0.23-0.12L19,12.32l2.3-1.15
	c0.09-0.04,0.18-0.11,0.24-0.19c0.02-0.03,0.03-0.06,0.04-0.09L21.55,10.89z M11.74,13.41h-0.22c-0.12,0-0.21,0.09-0.21,0.21
	s0.09,0.21,0.21,0.21l0,0h0.22c0.12,0,0.21-0.09,0.21-0.21S11.86,13.41,11.74,13.41z"/>
</svg>
