<svg xmlns="http://www.w3.org/2000/svg" viewBox="0 0 24 24">
<path d="M13.29,16.76c-0.11,0-0.2,0.09-0.2,0.2l0,0v0.4c0,0.11,0.09,0.2,0.2,0.2c0.11,0,0.2-0.09,0.2-0.2V17
	c0.02-0.11-0.05-0.21-0.16-0.24C13.32,16.76,13.3,16.76,13.29,16.76z M13.29,3.22c0.11,0,0.2-0.09,0.2-0.2v-0.4
	c0-0.11-0.09-0.2-0.2-0.2c-0.11,0-0.2,0.09-0.2,0.2V3c-0.02,0.11,0.06,0.21,0.17,0.23C13.27,3.23,13.28,3.23,13.29,3.22L13.29,3.22z
	 M13.09,8.89c0,0.11,0.09,0.2,0.2,0.2s0.2-0.09,0.2-0.2c0,0,0,0,0,0V8.16c0-0.11-0.09-0.2-0.2-0.2s-0.2,0.09-0.2,0.2c0,0,0,0,0,0
	V8.89z M13.09,11.82c0,0.11,0.09,0.2,0.2,0.2c0.11,0,0.2-0.09,0.2-0.2V11.1c0-0.11-0.09-0.2-0.2-0.2c-0.11,0-0.2,0.09-0.2,0.2V11.82
	z M6.2,21.17h1.74c-0.19-0.21-0.3-0.49-0.3-0.78v-0.63c0-0.28,0.09-0.54,0.26-0.76l1-1.25c0.13-0.16,0.23-0.36,0.28-0.56l0.47-1.89
	c0.06-0.22,0.21-0.39,0.42-0.47c0-0.02,0-0.04,0-0.06l0.33-1.51c0.33-1.46,0.39-2.97,0.2-4.46L9.77,2.66
	c-0.01-0.11,0.06-0.2,0.17-0.22c0.11-0.01,0.2,0.06,0.22,0.17L11,8.74c0.21,1.54,0.15,3.1-0.18,4.61l-0.31,1.43h0.22
	c0.08,0,0.16-0.04,0.22-0.1l0.61-0.69c0.29-0.33,0.7-0.52,1.14-0.52H14c0.48,0,0.94,0.23,1.22,0.62l-0.47-3.34
	c-0.15-1.05-0.17-2.12-0.06-3.18l0.5-5c0-0.11,0.09-0.2,0.2-0.2c0.11,0,0.2,0.09,0.2,0.2l-0.5,5c-0.1,1.03-0.08,2.06,0.06,3.08
	l0.56,4c0.01,0.08,0.07,0.14,0.14,0.17c0.23,0.08,0.39,0.27,0.42,0.51v0.28c0.07,0.52,0.09,1.05,0.07,1.58l-0.11,3.19
	c-0.01,0.27-0.12,0.54-0.3,0.74h1.87c0.11,0,0.2,0.09,0.2,0.2s-0.09,0.2-0.2,0.2c0,0,0,0,0,0H6.2c-0.11,0-0.2-0.09-0.2-0.2
	s0.09-0.2,0.2-0.2c0,0,0,0,0,0V21.17z M9.9,21.17c-0.07-0.11-0.11-0.23-0.12-0.36L9.67,20.7c-0.14-0.13-0.34-0.16-0.51-0.08
	c-0.2,0.08-0.44,0.08-0.64,0L8,20.51c0.05,0.38,0.38,0.67,0.77,0.67L9.9,21.17z M15.8,20.65l-0.16-0.1c-0.33-0.2-0.7-0.3-1.08-0.3
	h-2.1c-0.34,0-0.68,0.05-1,0.16l-1.3,0.43c0.06,0.19,0.23,0.32,0.43,0.32h4.45c0.33,0.01,0.64-0.19,0.76-0.5L15.8,20.65z
	 M15.86,20.01L15.86,20.01l-0.18-0.32c-0.27-0.44-0.75-0.7-1.26-0.69h-1.79c-0.63,0-1.25,0.2-1.76,0.56l-0.12,0.08
	c-0.28,0.2-0.48,0.5-0.55,0.84L11.36,20c0.35-0.12,0.73-0.18,1.1-0.18h2.11c0.45,0,0.89,0.13,1.28,0.36l0,0L15.86,20.01z M8,20.08
	l0.59,0.2c0.11,0.05,0.23,0.05,0.34,0c0.27-0.13,0.59-0.11,0.84,0.06c0.1-0.43,0.35-0.8,0.71-1.05l0.12-0.08
	c0.59-0.41,1.28-0.63,2-0.63h1.78c0.58,0,1.12,0.28,1.47,0.74L16,17.23c0.02-0.5-0.01-1.01-0.07-1.51v-0.28
	c-0.01-0.08-0.07-0.15-0.15-0.18l-0.15-0.07c-0.08,0.01-0.16-0.02-0.2-0.09L15,14.41c-0.2-0.32-0.56-0.52-0.94-0.52h-0.57
	c0.04,0.04,0.07,0.09,0.07,0.15v0.73c0,0.11-0.09,0.2-0.2,0.2s-0.2-0.09-0.2-0.2c0,0,0,0,0,0V14c0-0.06,0.03-0.11,0.07-0.15h-0.48
	c-0.32,0-0.63,0.14-0.84,0.38l-0.61,0.69c-0.13,0.15-0.32,0.24-0.52,0.24H10.4c-0.13,0-0.25,0.09-0.28,0.22L9.59,17.3
	c-0.07,0.26-0.19,0.51-0.36,0.72l-1,1.25c-0.12,0.14-0.18,0.32-0.18,0.5L8,20.08z M10.42,17.8c0.08,0,0.15-0.05,0.18-0.12l0.56-1.3
	c0.23-0.53,0.75-0.87,1.32-0.87h1.42c0.67,0,1.25,0.46,1.4,1.11l0.2,0.86c0.02,0.11,0.13,0.17,0.24,0.15
	c0.11-0.02,0.17-0.13,0.15-0.24l-0.2-0.86c-0.19-0.83-0.93-1.42-1.79-1.42h-1.38c-0.74,0-1.4,0.43-1.69,1.11l-0.56,1.3
	c-0.04,0.1,0,0.21,0.1,0.26L10.42,17.8z M13.09,6c0,0.11,0.09,0.2,0.2,0.2c0.11,0,0.2-0.09,0.2-0.2V5.23c0-0.11-0.09-0.2-0.2-0.2
	c-0.11,0-0.2,0.09-0.2,0.2V6z M31.55,21.14"/>
</svg>
