<svg xmlns="http://www.w3.org/2000/svg" viewBox="0 0 24 24">
<title>running-fastrun-big</title>
<path d="M3,20.56c0-0.1,0.09-0.19,0.19-0.19c0,0,0,0,0,0h1.28v-0.05l-0.06-0.15c-0.1-0.23-0.13-0.49-0.09-0.74L4.5,18
	c0.04-0.24,0.26-0.41,0.5-0.4h0.25c0.11,0,0.22-0.05,0.3-0.13l1.21-1.21c0.22-0.22,0.48-0.39,0.76-0.51l1.38-0.58l0,0l1.6-2
	c0.1-0.13,0.16-0.29,0.16-0.46v-0.75l0,0c0.03-0.46,0.26-0.88,0.62-1.16l1.23-0.94c0.13-0.1,0.24-0.22,0.33-0.36L14,7.68
	c0.03-0.05,0.08-0.08,0.14-0.09l-1.35-0.67c-0.03-0.01-0.05-0.01-0.08,0l-2.23,0.56c-0.05,0.01-0.09,0.04-0.13,0.07l-0.24,0.24
	C9.98,7.93,9.81,8,9.62,8H9.51c-0.1,0-0.19-0.09-0.19-0.19c0-0.03,0.01-0.05,0.02-0.08l0.07-0.14l0,0c-0.06-0.01-0.13-0.01-0.19,0
	H8.58c-0.1,0-0.19-0.09-0.19-0.19c0-0.04,0.01-0.07,0.04-0.11l0.28-0.37C8.86,6.72,9.1,6.6,9.35,6.6h0.56
	c0.12,0,0.24-0.02,0.35-0.06l2.12-0.75c0.24-0.08,0.5-0.08,0.74,0l2.71,0.94c0.42,0.13,0.65,0.58,0.52,1
	c-0.11,0.48-0.43,0.89-0.86,1.13L15,9c-0.3,0.19-0.7,0.11-0.9-0.19c-0.06-0.09-0.09-0.2-0.1-0.31V8.34l-0.8,1.3
	c-0.11,0.18-0.25,0.33-0.42,0.46L11.56,11c-0.54,0.42-0.63,1.19-0.22,1.73c0.14,0.19,0.34,0.33,0.56,0.4l0.62,0.22
	c0.39,0.14,0.79,0.25,1.19,0.34l1.77,0.37c0.1,0.02,0.17,0.12,0.14,0.23c-0.01,0.03-0.02,0.05-0.03,0.07l-0.12,0.16h0.94l0.16-0.27
	c0.1-0.17,0.08-0.38-0.06-0.52l-0.17-0.17c-0.36-0.36-0.77-0.68-1.21-0.94L14,12h-2.57c-0.1-0.02-0.17-0.13-0.14-0.23
	c0.02-0.07,0.07-0.13,0.14-0.14H14l1.18-1.47c0.04-0.05,0.09-0.07,0.15-0.07h0.06c0.3,0,0.59-0.08,0.85-0.24l0.29-1.31
	c0.01-0.1,0.11-0.18,0.21-0.16c0.1,0.01,0.18,0.11,0.16,0.21c0,0.01,0,0.02-0.01,0.03l-0.11,0.49l1.77,1.18
	c0.12,0.08,0.29,0.05,0.37-0.07c0.01-0.01,0.01-0.02,0.02-0.03l0.91-1.68C19.9,8.43,19.95,8.36,20,8.29l0.61-0.74l-0.14-0.29
	c-0.03-0.05-0.08-0.08-0.14-0.06h-0.12c-0.1,0.02-0.17,0.09-0.2,0.19L19.83,8c-0.05,0.18-0.14,0.36-0.25,0.51l-0.77,1
	c-0.03,0.04-0.09,0.07-0.14,0.07c-0.06,0.01-0.11-0.01-0.15-0.05L17.9,8.91c-0.07-0.07-0.07-0.2,0-0.27s0.2-0.07,0.27,0l0.46,0.46
	l0.64-0.86c0.09-0.12,0.15-0.25,0.19-0.39l0.16-0.58c0.06-0.22,0.24-0.39,0.47-0.45h0.12c0.22-0.06,0.46,0.05,0.56,0.26l0.2,0.4
	c0.04,0.06,0.04,0.14,0,0.2l-0.69,0.83c-0.05,0.05-0.09,0.11-0.12,0.17l-0.91,1.68c-0.09,0.16-0.24,0.28-0.42,0.32h-0.15
	c-0.13,0-0.25-0.04-0.36-0.11l-1.65-1.1l-0.11,0.5c-0.01,0.05-0.04,0.09-0.08,0.12c-0.32,0.22-0.7,0.33-1.09,0.34l-1,1.3l1,0.57
	c0.47,0.28,0.9,0.61,1.29,1l0.17,0.17c0.27,0.26,0.32,0.68,0.12,1L15,17.72c-0.04,0.08-0.04,0.17,0,0.25l0.28,0.65
	c0.04,0.09,0.11,0.17,0.2,0.21l0.41,0.21c0.06,0.03,0.1,0.1,0.1,0.17v0.15c0,0.19-0.15,0.34-0.34,0.34l0,0h-0.23
	c-0.29,0-0.57-0.09-0.81-0.26l-1-0.67c-0.22-0.15-0.28-0.46-0.12-0.68c0-0.01,0.01-0.01,0.01-0.02l0.16-0.22
	c0.06-0.07,0.1-0.16,0.12-0.25l0.46-1.73c0.08-0.29,0.21-0.56,0.39-0.8l0.5-0.66l-1.48-0.31L13.12,14l-3,2.42
	c-0.15,0.12-0.32,0.21-0.5,0.26l-0.56,0.16C8.9,16.87,8.74,16.92,8.6,17l-2.4,1.6c-0.08,0.05-0.15,0.12-0.2,0.2l-0.77,1
	c-0.01,0.02-0.01,0.05,0,0.07v0.48h15.2c0.1,0,0.19,0.09,0.19,0.19c0,0.1-0.08,0.19-0.19,0.19H3.19C3.09,20.73,3.01,20.66,3,20.56z
	 M14.87,18.77l-0.28-0.65c0-0.03,0-0.07,0-0.1H14v0.07l-0.16,0.22c-0.01,0.03-0.01,0.06,0,0.09c-0.01,0.03-0.01,0.05,0,0.08l1,0.67
	c0.17,0.13,0.38,0.19,0.6,0.19h0.19l-0.31-0.16C15.12,19.11,14.96,18.96,14.87,18.77z M15.19,14.93l-0.27,0.36
	c-0.15,0.2-0.26,0.43-0.33,0.67l-0.45,1.67h0.44c0-0.04,0-0.07,0-0.11l1.56-2.6L15.19,14.93z M14.42,7.32
	c0.22,0.11,0.36,0.33,0.36,0.58c0,0.11-0.08,0.19-0.19,0.2c-0.1,0.01-0.18-0.07-0.19-0.17c0,0,0-0.01,0-0.01
	c0-0.09-0.04-0.18-0.11-0.24c0,0.02,0,0.05,0,0.07l0.08,0.7c0.01,0.15,0.15,0.26,0.29,0.24c0.04,0,0.07-0.01,0.11-0.03l0.5-0.27
	c0.35-0.17,0.62-0.47,0.73-0.85c0.06-0.23-0.07-0.48-0.31-0.54c0,0,0,0,0,0L13,6.05c-0.16-0.06-0.33-0.06-0.49,0L10.4,6.8
	c-0.15,0.05-0.31,0.08-0.47,0.08H9.35C9.21,6.88,9.08,6.94,9,7.05v0.07h0.25c0.12,0,0.25,0.03,0.36,0.08l0.18,0.09
	C9.83,7.31,9.87,7.35,9.88,7.4c0,0.02,0,0.05,0,0.07l0.21-0.21c0.08-0.08,0.19-0.14,0.3-0.17l2.23-0.56c0.11-0.04,0.23-0.04,0.34,0
	L14.42,7.32z M8.92,16.46H9l0.56-0.16c0.14-0.04,0.26-0.1,0.37-0.19l2.79-2.26l-0.29-0.09l-0.62-0.22c-0.32-0.09-0.6-0.28-0.81-0.54
	c-0.04,0.15-0.11,0.28-0.2,0.4l-1.6,2c-0.05,0.07-0.12,0.12-0.2,0.15L8.88,15.6L8.92,16.46z M5.69,18.25c0,0.07,0.05,0.12,0.12,0.12
	c0,0,0,0,0,0h0.11L6,18.32l2.4-1.6l0.16-0.09l0,0v-0.89l-0.89,0.37c-0.24,0.1-0.46,0.25-0.64,0.43l-1.22,1.2l-0.13,0.1L5.69,18.25z
	 M4.72,20l0.06,0.15c0.01,0.03,0.04,0.06,0.07,0.07l0,0V19.9c0-0.11,0.04-0.21,0.1-0.3l0.67-0.89c-0.18-0.08-0.3-0.26-0.3-0.46V18H5
	c-0.06,0-0.11,0.04-0.12,0.1l-0.22,1.41C4.64,19.68,4.66,19.84,4.72,20z M15.13,6.12l1.29,0.44c0.14,0.04,0.29,0.04,0.43,0v0.28
	C16.86,6.92,16.92,6.98,17,7l0,0c0.1-0.01,0.19-0.09,0.18-0.2c0,0,0,0,0,0V6.25c-0.01-0.1-0.1-0.18-0.2-0.17
	c-0.03,0-0.07,0.01-0.1,0.03c-0.1,0.08-0.24,0.1-0.36,0.06l-1.29-0.44c-0.09-0.06-0.21-0.03-0.26,0.06
	C14.91,5.88,14.94,6,15.03,6.05c0.02,0.02,0.05,0.03,0.08,0.03L15.13,6.12z M16,5.86l0.84-0.22c0.2-0.05,0.41,0.02,0.53,0.18
	c0.05,0.06,0.13,0.09,0.21,0.06l0.25-0.09c0.11-0.03,0.23-0.03,0.34,0h0.18c0.11,0.01,0.21,0.07,0.28,0.16l0.31,0.41
	c0.22,0.32,0.16,0.76-0.14,1l-0.13,0.1c-0.09,0.07-0.17,0.16-0.24,0.26l-0.1,0.19h-0.06C18.17,7.9,18.07,7.93,18,8l-0.21,0.16
	l-0.11-0.07c-0.17-0.12-0.41-0.12-0.58,0l-0.07,0.05c-0.09,0.06-0.12,0.17-0.06,0.26c0.06,0.09,0.17,0.12,0.26,0.06
	c0.01-0.01,0.02-0.01,0.03-0.02l0.07-0.05c0.04-0.03,0.1-0.03,0.14,0l0.13,0.09c0.12,0.09,0.28,0.09,0.4,0l0.2-0.17h0.06
	c0.13,0.02,0.26-0.04,0.33-0.15l0.14-0.2c0.04-0.06,0.1-0.12,0.16-0.17l0.13-0.1c0.49-0.37,0.58-1.07,0.21-1.56c0,0,0,0,0,0
	l-0.31-0.41c-0.13-0.17-0.32-0.28-0.53-0.31h-0.18c-0.17-0.02-0.35-0.01-0.51,0.05h-0.14c-0.22-0.21-0.54-0.29-0.83-0.21l-0.84,0.22
	c-0.09,0.05-0.13,0.16-0.09,0.25c0.03,0.07,0.11,0.11,0.19,0.11L16,5.86z"/>
</svg>
