<svg xmlns="http://www.w3.org/2000/svg" viewBox="0 0 24 24">
<path d="M10.71,10.81v0.34c0,0.1-0.06,0.18-0.15,0.21l-0.55,0.17H10H9.51c-0.06,0-0.11-0.03-0.15-0.08l-0.23-0.3
	C9.06,11.13,9.01,11.07,9,11c-0.01-0.04-0.01-0.07,0-0.11l0.12-0.19l0.14-0.23l0,0l0.08-0.09l0.18-0.21
	c0.06-0.06,0.14-0.09,0.22-0.06h0.1l0.3,0.08h0.05c0.04,0.01,0.08,0.04,0.11,0.08l0,0l0.27,0.36C10.65,10.66,10.7,10.73,10.71,10.81
	z M10.31,11.01V10.9l-0.22-0.3H9.96H9.84l-0.15,0.17l0,0L9.5,11l0.09,0.11h0.36L10.31,11.01z M7.12,8.87H7
	c-0.12,0-0.21,0.09-0.21,0.21S6.88,9.29,7,9.29l0,0h0.09c0.12,0,0.21-0.09,0.21-0.21S7.21,8.87,7.09,8.87H7.12z M22,9.94
	c0,0.02,0,0.04,0,0.06v2.23c0,0.15-0.07,0.44-0.51,0.66l-0.91,0.45l0.91,0.45C21.93,14.01,22,14.3,22,14.45s-0.07,0.44-0.51,0.66
	L13,19.36c-0.66,0.29-1.42,0.29-2.08,0l-8.41-4.22C2.07,14.92,2,14.63,2,14.48s0.07-0.44,0.51-0.66l0.91-0.45l-0.91-0.45
	C2.07,12.7,2,12.41,2,12.26v-2.19l0,0l0,0c-0.01-0.03-0.01-0.05,0-0.08c0.04-0.16,0.14-0.3,0.29-0.37L3,9.24l1.79-1.32h0.06l2-0.57
	l2.24-1.17l2.28-1.58h0.09l0.88-0.14c0.04-0.01,0.08-0.01,0.12,0L15,5.54l0,0l2.47,1.9l2.29,0.76h0.05l1.89,1.34
	C21.86,9.61,21.98,9.76,22,9.94z M18.21,10.18c0.05-0.1,0.17-0.15,0.28-0.1c0,0,0,0,0,0l0.69,0.32l2.38-0.23
	c0.01-0.03,0.01-0.07,0-0.1l0,0c-0.01-0.03-0.03-0.06-0.06-0.08l-1.88-1.37l-2.2-0.73l-0.73,0.48h-0.06l-2,0.57h-0.06
	c-0.12,0-0.21-0.1-0.21-0.21c0-0.09,0.06-0.17,0.15-0.2l2-0.57L17,7.64L15,6l-0.8,1.27c-0.02,0.03-0.05,0.06-0.09,0.08l-1.57,0.74
	h-0.09c-0.12,0-0.21-0.09-0.21-0.21c0-0.08,0.05-0.16,0.12-0.19L13,7.39L13.88,7l0.49-0.8l0.23-0.38l-2.25-1L11.57,5L9.3,6.54L7,7.7
	L5,8.28L3.19,9.6l-0.7,0.35C2.46,9.97,2.44,10,2.43,10.03l0,0l0,0c0,0.05,0.03,0.1,0.07,0.12l1.86,0.93l2.18,0.35l0.58-0.39
	c0.1-0.06,0.23-0.03,0.29,0.06c0.04,0.07,0.04,0.16,0,0.23l-0.05,0.05l-0.44,0.3L7,11.77l0.15,0.16L8.2,13l1.17,0.24h0.08l2,1.36
	c0.37,0.18,0.79,0.18,1.16,0L14,13.93l0.86-0.88l1.31-0.93c0.08-0.08,0.21-0.08,0.29,0c0.08,0.08,0.08,0.21,0,0.29l-1.28,0.91
	l-0.85,0.88h-0.06L12.78,15c-0.49,0.24-1.07,0.24-1.56,0l-2-1.35l-1.19-0.24C8.02,13.4,8.01,13.38,8,13.37l-1.2-1.21L6.6,12
	l-0.12-0.12H6.4l-2.15-0.35H4.19l-1.78-0.89v1.64c0,0.09,0.1,0.2,0.28,0.29l1.19,0.59l0.23,0.12l0.23,0.12l6.8,3.4
	c0.54,0.23,1.16,0.23,1.7,0l6.8-3.4l0.23-0.12l0.23-0.12l1.19-0.59c0.17-0.09,0.28-0.19,0.28-0.29v-1.7l-2.37,0.23L17.9,12
	l-0.08,0.08c-0.08,0.07-0.21,0.07-0.29,0l0,0v-0.06c-0.03-0.05-0.03-0.12,0-0.17l0,0l1.22-1.12l-0.45-0.21
	c-0.11-0.03-0.18-0.15-0.15-0.26c0.01-0.03,0.02-0.05,0.04-0.07L18.21,10.18z M9.3,8.29C9.19,8.27,9.11,8.16,9.14,8.04
	c0-0.01,0.01-0.03,0.01-0.04l0.28-0.55c0.03-0.06,0.09-0.1,0.15-0.11l0.55-0.11c0.05-0.02,0.12-0.02,0.17,0l0.26,0.21
	c0.05,0.04,0.07,0.1,0.07,0.16v0.28c0,0.06-0.02,0.11-0.06,0.15l-0.32,0.31C10.21,8.38,10.16,8.4,10.1,8.4l0,0L9.3,8.29z M9.65,7.93
	L10,8l0.18-0.17v-0.1l-0.1-0.09L9.72,7.71L9.65,7.93z M5.56,9.47H5.45c-0.12,0-0.21,0.09-0.21,0.21s0.09,0.21,0.21,0.21l0,0h0.11
	c0.12,0,0.21-0.09,0.21-0.21S5.68,9.47,5.56,9.47z M17.09,9.71l-0.26-0.06c-0.11-0.02-0.23,0.05-0.25,0.16
	c-0.02,0.09,0.02,0.18,0.1,0.22h0.06L17,10.09l0,0c0.11-0.03,0.18-0.14,0.16-0.25C17.14,9.76,17.08,9.7,17,9.68L17.09,9.71z
	 M12.62,9.21L12.62,9.21h0.36c0.11-0.02,0.19-0.12,0.18-0.23C13.17,8.87,13.1,8.77,13,8.75h-0.36c-0.12,0-0.21,0.09-0.21,0.21
	s0.09,0.21,0.21,0.21L12.62,9.21z M14.31,11.07l0.23,0.69c0.03,0.1-0.01,0.2-0.1,0.25l-1,0.55h-0.1h-0.08l-1-0.43
	c-0.1-0.04-0.15-0.15-0.12-0.25l0.19-0.64c0.01-0.04,0.04-0.08,0.08-0.11l0.75-0.5c0.06-0.03,0.13-0.03,0.19,0l0.84,0.31
	c0.05,0.02,0.09,0.07,0.11,0.12L14.31,11.07z M14.09,11.73l-0.14-0.44L13.3,11l-0.6,0.4l-0.12,0.39l0.74,0.31L14.09,11.73z"/>
</svg>
