<svg xmlns="http://www.w3.org/2000/svg" viewBox="0 0 24 24">
<path d="M11.88,10.77c0.05,0.01,0.1,0.01,0.15,0c0.26-0.08,0.41-0.36,0.33-0.62c-0.07-0.26-0.34-0.42-0.6-0.35
	c-0.01,0-0.01,0-0.02,0.01c-0.26,0.09-0.41,0.36-0.34,0.63c0.06,0.22,0.26,0.37,0.48,0.37L11.88,10.77z M10.64,4.42
	c-0.08-0.26-0.36-0.41-0.62-0.34c-0.01,0-0.01,0-0.02,0.01C9.72,4.13,9.53,4.38,9.57,4.66c0.04,0.28,0.29,0.47,0.57,0.43
	c0.05,0.01,0.1,0.01,0.15,0c0.27-0.06,0.44-0.33,0.37-0.6C10.66,4.47,10.65,4.44,10.64,4.42z M11.31,8.9h0.14
	c0.28-0.08,0.44-0.37,0.36-0.65c-0.08-0.28-0.37-0.44-0.65-0.35c-0.26,0.08-0.41,0.36-0.33,0.62C10.89,8.74,11.08,8.89,11.31,8.9z
	 M18.57,21c0,0.28-0.22,0.5-0.5,0.5H6.72c-0.28,0-0.5-0.22-0.5-0.5s0.22-0.5,0.5-0.5h1.06v-1c0-0.66,0.26-1.3,0.73-1.77
	c0.31-0.28,0.48-0.67,0.49-1.08V16c0-0.66,0.26-1.3,0.73-1.77l0.35-0.35L5.47,3.2C5.35,2.95,5.46,2.65,5.71,2.53
	c0.25-0.12,0.55-0.01,0.67,0.24C6.38,2.79,6.39,2.8,6.39,2.81L11,13.46h3.75L12.49,3.1c-0.06-0.27,0.11-0.53,0.38-0.59
	c0.27-0.05,0.53,0.12,0.59,0.38l2.35,11l0,0c0,0.02,0,0.04,0,0.06V15l0.91,2.72c0.19,0.54,0.28,1.12,0.28,1.69v1.09h1.07
	C18.35,20.5,18.57,20.72,18.57,21z M8.78,19.79L9.59,19c0.53-0.53,1.25-0.83,2-0.83h4.2v-0.06l-0.93-2.8
	c-0.01-0.05-0.01-0.11,0-0.16v-0.67h-4l-0.44,0.44C10.14,15.21,9.99,15.6,10,16v0.69c0,0.66-0.26,1.3-0.73,1.77
	c-0.28,0.28-0.44,0.66-0.44,1.06L8.78,19.79z M16,19.41c0-0.09,0-0.17,0-0.26h-4.4c-0.49,0-0.96,0.19-1.31,0.54L9.48,20.5H16V19.41z
	 M10.73,7h0.15c0.26-0.08,0.41-0.36,0.33-0.62c-0.05-0.27-0.31-0.44-0.57-0.39C10.62,5.99,10.61,6,10.59,6
	c-0.26,0.08-0.41,0.36-0.33,0.62C10.31,6.84,10.5,7,10.73,7z"/>
</svg>
