<svg xmlns="http://www.w3.org/2000/svg" viewBox="0 0 24 24">
<path d="M11.53,5.23c-0.1,0.02-0.17,0.12-0.16,0.22l0.11,0.73c0.01,0.09,0.09,0.17,0.19,0.17l0,0c0.1-0.02,0.17-0.12,0.16-0.22
	L11.72,5.4c0.01-0.1-0.06-0.2-0.17-0.21c-0.01,0-0.01,0-0.02,0L11.53,5.23z M4.83,6.63c0,0.11,0.09,0.2,0.2,0.2H7L6.53,7.3
	C6.46,7.39,6.48,7.51,6.57,7.58c0.07,0.05,0.17,0.05,0.24,0l0.8-0.8V6.72c0.02-0.05,0.02-0.1,0-0.15V6.51l-0.8-0.8
	c-0.08-0.09-0.22-0.1-0.31-0.01C6.42,5.78,6.41,5.91,6.49,6L7,6.43H5C4.9,6.44,4.83,6.53,4.83,6.63z M12,8.11
	c-0.1,0.02-0.17,0.12-0.16,0.22l0.11,0.73c0.01,0.09,0.09,0.17,0.19,0.17l0,0c0.11-0.02,0.19-0.12,0.17-0.23c0,0,0,0,0,0L12.2,8.27
	C12.18,8.17,12.1,8.1,12,8.11z M12.55,15L12.55,15c0.09,0,0.17-0.07,0.19-0.16l0.12-0.73c0.03-0.1-0.02-0.22-0.13-0.25
	c-0.1-0.03-0.22,0.02-0.25,0.13c-0.01,0.02-0.01,0.04-0.01,0.06l-0.12,0.73c-0.01,0.11,0.07,0.21,0.18,0.22
	C12.54,15,12.54,15,12.55,15z M12.12,17.56L12.12,17.56c0.09,0,0.17-0.07,0.19-0.16l0.06-0.39c0.01-0.1-0.06-0.2-0.16-0.22
	c-0.1-0.01-0.2,0.06-0.21,0.17c0,0.01,0,0.03,0,0.04l-0.06,0.39c-0.01,0.11,0.07,0.2,0.18,0.21V17.56z M19.3,14.11h-1.93l0.47-0.47
	c0.09-0.07,0.11-0.19,0.04-0.28c-0.07-0.09-0.19-0.11-0.28-0.04c-0.02,0.01-0.03,0.02-0.04,0.04l-0.8,0.8v0.06
	c-0.02,0.05-0.02,0.1,0,0.15v0.06l0.8,0.8c0.07,0.09,0.19,0.11,0.28,0.04s0.11-0.19,0.04-0.28c-0.01-0.02-0.02-0.03-0.04-0.04
	l-0.47-0.47h1.93c0.11,0.02,0.21-0.04,0.24-0.15c0.02-0.11-0.04-0.21-0.15-0.24c-0.03-0.01-0.06-0.01-0.09,0V14.11z M12.36,12
	c0.01,0.09,0.09,0.17,0.19,0.17l0,0c0.1-0.02,0.17-0.12,0.16-0.22l-0.11-0.73c-0.02-0.1-0.11-0.18-0.22-0.16c0,0,0,0,0,0
	c-0.1,0.02-0.17,0.12-0.16,0.22L12.36,12z M11.15,2.62c-0.1,0.02-0.17,0.12-0.16,0.22l0.06,0.39c0.01,0.09,0.09,0.17,0.19,0.17l0,0
	c0.1-0.02,0.17-0.12,0.16-0.22l-0.06-0.39C11.33,2.7,11.25,2.62,11.15,2.62z M7.36,21.38H4.7c-0.11-0.02-0.18-0.13-0.15-0.24
	c0.02-0.07,0.08-0.13,0.15-0.15h1.75c-0.23-0.24-0.36-0.55-0.36-0.88V19.7c0-0.33,0.15-0.65,0.4-0.87l1.71-1.49
	c0.21-0.18,0.36-0.42,0.43-0.68l0.44-1.54c0.06-0.2,0.2-0.36,0.39-0.44l0.3-2.19c0.22-1.57,0.13-3.16-0.24-4.7L8.34,2.86
	c-0.05-0.1-0.01-0.22,0.09-0.27c0.1-0.05,0.22-0.01,0.27,0.09c0.01,0.03,0.02,0.06,0.02,0.08l1.19,4.94
	c0.38,1.58,0.46,3.23,0.24,4.84l-0.27,2l0.26-0.09l0.1-0.06l0.77-0.68c0.32-0.28,0.75-0.41,1.17-0.35l1.19,0.16
	c0.46,0.06,0.87,0.34,1.1,0.75v0.07l-0.75-3.65c-0.2-0.96-0.28-1.95-0.26-2.93l0.12-5c0.01-0.11,0.09-0.19,0.2-0.19l0,0
	c0.11,0.01,0.19,0.09,0.19,0.2l-0.12,5c-0.02,0.96,0.06,1.91,0.25,2.85l0.78,3.83c0.02,0.13,0.09,0.24,0.2,0.31
	c0.2,0.14,0.34,0.36,0.37,0.6c0.08,0.67,0.04,1.34-0.11,2l-0.72,3.1c-0.04,0.19-0.13,0.36-0.26,0.5h2.36
	c0.11,0.02,0.18,0.13,0.15,0.24c-0.02,0.07-0.08,0.13-0.15,0.15H7.36V21.38z M14.23,20.56L14.23,20.56c-0.4-0.2-0.83-0.31-1.28-0.33
	l-2-0.1c-0.4-0.02-0.79,0.03-1.17,0.16l-1.16,0.39C8.67,20.85,8.82,20.98,9,21h4.53C13.83,21,14.1,20.83,14.23,20.56z M14.43,19.8
	c-0.27-0.42-0.73-0.7-1.23-0.74l-2.09-0.16c-0.71-0.06-1.42,0.13-2,0.54c-0.28,0.2-0.47,0.49-0.54,0.82l1-0.35
	c0.42-0.14,0.87-0.2,1.31-0.18l2,0.1c0.48,0.02,0.95,0.14,1.38,0.35L14.43,19.8z M6.48,19.92l0.58,0.19c0.11,0.04,0.22,0.04,0.33,0
	c0.27-0.13,0.58-0.11,0.83,0.06c0.1-0.41,0.35-0.76,0.69-1c0.65-0.46,1.44-0.67,2.23-0.61l2.09,0.16c0.5,0.04,0.97,0.27,1.31,0.64
	L14.85,18h-0.06c-0.09,0-0.17-0.07-0.19-0.16l-0.13-0.76c-0.1-0.61-0.59-1.08-1.2-1.16l-1.37-0.19c-0.53-0.07-1.06,0.17-1.35,0.62
	l-0.73,1.1c-0.07,0.08-0.2,0.09-0.28,0.02c-0.07-0.06-0.09-0.16-0.05-0.24l0.73-1.1c0.38-0.57,1.05-0.88,1.73-0.79l1.37,0.19
	c0.78,0.1,1.4,0.7,1.53,1.47l0.09,0.56l0.07-0.28c0.15-0.62,0.18-1.26,0.1-1.89c-0.02-0.12-0.08-0.23-0.18-0.3l0,0
	C15,15.17,15,15.3,14.92,15.37c-0.08,0.07-0.21,0.07-0.28-0.01c-0.02-0.02-0.04-0.05-0.04-0.08L14.1,14.4
	c-0.17-0.3-0.47-0.51-0.81-0.55l-1.19-0.16c-0.31-0.04-0.62,0.05-0.86,0.26l-0.77,0.68c-0.07,0.06-0.15,0.1-0.23,0.13L9.63,15
	c-0.09,0.03-0.16,0.1-0.18,0.19L9,16.77c-0.09,0.34-0.29,0.64-0.55,0.87l-1.71,1.48c-0.17,0.15-0.26,0.36-0.26,0.58V19.92z M7.36,21
	h0.95c-0.07-0.11-0.11-0.23-0.12-0.36l-0.11-0.11c-0.13-0.13-0.33-0.16-0.5-0.08c-0.2,0.08-0.43,0.08-0.63,0l-0.42-0.14
	C6.62,20.7,6.96,20.99,7.36,21z"/>
</svg>
