<svg xmlns="http://www.w3.org/2000/svg" viewBox="0 0 24 24">
<path d="M9.69,6.2c0.03,0.01,0.07,0.01,0.1,0l1.09-0.73c0.12-0.08,0.21-0.18,0.27-0.31l0.22,0.15c0.1,0.04,0.21,0,0.25-0.1
	c0.03-0.07,0.02-0.16-0.04-0.21l-0.45-0.3c-0.09-0.06-0.21-0.03-0.26,0.06c-0.02,0.03-0.03,0.06-0.03,0.1
	c0,0.12-0.06,0.24-0.16,0.31L9.59,5.9c-0.08,0.06-0.1,0.18-0.03,0.27c0.03,0.04,0.08,0.07,0.13,0.07L9.69,6.2z M10.11,5.34
	l0.32-0.78c0.07-0.18,0.25-0.3,0.45-0.3c0.08,0,0.15-0.05,0.18-0.13l0.08-0.25c0.03-0.11,0.09-0.2,0.17-0.28l0.12-0.12
	c0.08-0.08,0.18-0.12,0.29-0.12h0.5c0.22,0,0.43,0.1,0.56,0.28c0.09,0.12,0.14,0.27,0.14,0.42v0.15c0,0.12,0.02,0.23,0.06,0.34
	l0.07,0.2l0,0c-0.06,0.06-0.1,0.15-0.1,0.24v0.25h-0.11c-0.2,0.07-0.33,0.25-0.33,0.46v0.08c0,0.07,0.04,0.14,0.1,0.17l0.26,0.13
	c0.17,0.08,0.29,0.23,0.35,0.41v0.1c0.03,0.08,0.1,0.13,0.18,0.13h0.06c0.1-0.03,0.15-0.14,0.12-0.24v-0.1
	C13.46,6.13,13.26,5.93,13,5.83l-0.16-0.08c0.01-0.03,0.04-0.06,0.07-0.07h0.14c0.14-0.05,0.23-0.18,0.23-0.32v-0.3l0,0
	c0.09-0.09,0.12-0.22,0.08-0.34L13.29,4.5c-0.01-0.07-0.01-0.15,0-0.22v-0.2c0-0.59-0.48-1.07-1.07-1.08h-0.5
	c-0.21,0-0.4,0.08-0.55,0.23L11,3.35c-0.12,0.12-0.21,0.26-0.26,0.42V3.9c-0.29,0.05-0.54,0.25-0.65,0.52L9.77,5.2
	C9.72,5.29,9.75,5.41,9.84,5.46c0.09,0.05,0.21,0.02,0.26-0.07c0.01-0.01,0.01-0.03,0.02-0.04H10.11z M7.29,16
	c0.37-0.24,0.79-0.36,1.23-0.36h0.3C8.9,15.63,8.96,15.58,9,15.51l1.15-2.43c0.02-0.06,0.02-0.11,0-0.17L10,12.08
	c-0.14-0.56-0.07-1.16,0.22-1.67l0.26-0.46L9.12,8.66c-0.31-0.3-0.32-0.79-0.03-1.1C9.1,7.55,9.11,7.54,9.12,7.53l1.81-1.83
	c0.11-0.11,0.26-0.17,0.41-0.17l0,0c0.25,0,0.47,0.16,0.55,0.39l0.35,1c0.11,0.31,0.08,0.65-0.09,0.93l-0.31,0.52
	c-0.18,0.3-0.57,0.39-0.87,0.2c-0.08-0.05-0.15-0.12-0.2-0.2L10.66,8.2l-0.23,0.11l1.21,1.33c0.03,0.02,0.07,0.02,0.1,0l0.58-0.12
	c0.06-0.01,0.13,0.01,0.17,0.05l0.12,0.12c0.16,0.16,0.22,0.38,0.17,0.6l-0.09,0.35c-0.02,0.08-0.1,0.14-0.18,0.14H12.2
	c-0.13,0-0.25-0.05-0.34-0.14l-0.08-0.08c-0.05-0.05-0.11-0.08-0.18-0.08h-0.06c-0.27,0-0.54-0.1-0.74-0.29l0,0l-0.22,0.38
	c-0.07,0.14-0.13,0.29-0.17,0.44h2.28c0.1,0,0.19,0.09,0.19,0.19c0,0.1-0.09,0.19-0.19,0.19h-2.36c-0.03,0.19-0.03,0.38,0,0.57
	l0.21,0.83c0.05,0.14,0.05,0.29,0,0.43l-1.16,2.45C9.3,15.83,9.17,15.95,9,16v1l0.76-0.09c0.18-0.02,0.35-0.12,0.47-0.26l2-2.57
	l-0.61-0.6c-0.57-0.29-0.96-0.85-1.06-1.48v-0.12c0.01-0.1,0.09-0.19,0.2-0.18c0.08,0,0.15,0.06,0.17,0.13v0.12
	c0.08,0.52,0.4,0.97,0.87,1.2h0.06l0,0l2.61,2.61c0.08,0.08,0.13,0.18,0.14,0.29l0,0h0.93v-0.13c-0.04-0.14-0.1-0.27-0.16-0.4
	l-2.13-4.26l0,0l0,0l0,0l-0.3-2.83C12.94,8.37,12.96,8.31,13,8.27c0.17-0.17,0.29-0.39,0.35-0.62V7.57L12.09,6.3
	C12.01,6.23,12,6.1,12.07,6.02c0.07-0.08,0.2-0.09,0.28-0.02l1.34,1.34c0.03,0.06,0.03,0.12,0,0.18v0.19
	c-0.07,0.27-0.2,0.52-0.39,0.73V8.5l0.9-0.9c0.02-0.03,0.02-0.07,0-0.1l-0.1-0.61c-0.03-0.17,0.08-0.34,0.25-0.38l0.27-0.07
	c0.19-0.05,0.39,0.02,0.51,0.18l0.08,0.11c0.18,0.27,0.18,0.62,0,0.89L14,9.57c-0.13,0.2-0.34,0.33-0.58,0.35l0.13,1.26l2.12,4.23
	c0.07,0.15,0.13,0.3,0.18,0.45l1,3.05c0.06,0.18,0.17,0.34,0.31,0.46l0,0l0.16,0.11l0.9,0.5l0.72,0.14
	c0.09,0.02,0.15,0.09,0.15,0.18v0.15c0.01,0.05,0.01,0.11,0,0.16h1.39c0.1,0,0.19,0.09,0.19,0.19c0,0.1-0.08,0.19-0.19,0.19h-17
	c-0.1-0.02-0.17-0.13-0.14-0.23c0.02-0.07,0.07-0.13,0.14-0.14h12.61c-0.01-0.05-0.01-0.1,0-0.15v-0.41c0-0.08-0.02-0.16-0.07-0.23
	l-1.22-1.74c-0.24-0.36-0.4-0.77-0.44-1.2l-0.08-0.77c0.01-0.02,0.01-0.05,0-0.07l-1.74-1.73l-2,2.54
	c-0.18,0.23-0.44,0.37-0.72,0.41L8,17.48c-0.2,0.02-0.39,0.08-0.57,0.16L6,18.28c-0.14,0.06-0.26,0.16-0.36,0.28l-0.4,0.5
	l-0.29,0.72c-0.03,0.07-0.09,0.12-0.17,0.12c-0.27,0-0.49-0.22-0.49-0.49v-2.08c0-0.27,0.22-0.49,0.49-0.49H5
	c0.16,0,0.32,0.02,0.48,0.06h0.13c0.11,0.03,0.22,0.01,0.32-0.05L7.29,16z M13.43,9.53c0.13-0.01,0.24-0.07,0.31-0.18L15,7.46
	c0.1-0.14,0.1-0.33,0-0.47l-0.08-0.11c-0.03-0.02-0.08-0.02-0.11,0l-0.24,0.06l0.1,0.57c0.02,0.15-0.03,0.31-0.14,0.42L13.4,9l0,0
	L13.43,9.53z M16.87,20c-0.04,0.04-0.09,0.06-0.14,0.06l0,0L16.42,20c0,0,0,0,0,0.07v0.41c0,0.06,0.05,0.11,0.11,0.11c0,0,0,0,0,0
	h2.08c0.06,0,0.11-0.05,0.11-0.11c0,0,0,0,0,0l-0.59-0.12h-0.05l-0.93-0.52l-0.08-0.05L16.87,20z M14.69,16.49v0.38
	c0.04,0.36,0.17,0.7,0.38,1l1.15,1.67l0.42,0.11l0.13-0.14c-0.13-0.14-0.22-0.31-0.28-0.49l-0.82-2.55L14.69,16.49z M11,10
	c0.13,0.12,0.3,0.19,0.48,0.19h0.06c0.17,0,0.33,0.07,0.45,0.19l0.08,0.08c0.03,0.01,0.05,0.01,0.08,0h0.18l0.05-0.21
	c0.02-0.09,0-0.19-0.07-0.25l0,0l-0.48,0.1c-0.17,0.03-0.34-0.03-0.45-0.15L10,8.38c-0.07-0.08-0.06-0.2,0.02-0.27
	c0.01-0.01,0.02-0.02,0.03-0.02l0.6-0.3l0,0l0.3-0.15c0.09-0.05,0.21-0.01,0.26,0.09s0.01,0.21-0.09,0.26L11,8l0.09,0.13
	c0.08,0.12,0.24,0.16,0.36,0.08c0.03-0.02,0.06-0.05,0.08-0.08l0.31-0.52C11.95,7.43,11.97,7.2,11.9,7l-0.35-1
	c-0.03-0.08-0.11-0.14-0.2-0.14l0,0C11.28,5.88,11.22,5.93,11.2,6L9.36,7.8C9.2,7.96,9.19,8.22,9.35,8.38c0,0,0.01,0.01,0.01,0.01
	L11,10z M5.48,18.2l-0.34-0.34c-0.05-0.07-0.05-0.15,0-0.22l0.19-0.38c-0.1-0.01-0.19-0.01-0.29,0H4.78c-0.06,0-0.11,0.05-0.11,0.11
	l0,0v2.08l0,0l0.22-0.56l0,0l0.42-0.52C5.36,18.31,5.42,18.25,5.48,18.2z M7.48,16.34l-1.35,0.87c-0.14,0.09-0.3,0.13-0.46,0.12
	l-0.18,0.36l0.29,0.29h0.06l1.38-0.64c0.22-0.1,0.45-0.16,0.69-0.19l0.7-0.08V16H8.52c-0.37,0.01-0.73,0.12-1.03,0.33L7.48,16.34z
	 M3.44,15h1.49c0.1,0.02,0.2-0.04,0.23-0.14c0.02-0.1-0.04-0.2-0.14-0.23c-0.03-0.01-0.06-0.01-0.09,0h-1.3V9h4.09v5.82
	c0,0.1,0.09,0.19,0.19,0.19c0.1,0,0.19-0.09,0.19-0.19v-6c0-0.1-0.09-0.19-0.19-0.19H3.44c-0.1,0-0.19,0.09-0.19,0.19v6
	C3.26,14.92,3.34,15,3.44,15z M6.44,11c0.1,0,0.19-0.09,0.19-0.19v-0.45c-0.02-0.1-0.13-0.17-0.23-0.14
	c-0.07,0.02-0.13,0.07-0.14,0.14v0.45c0,0.09,0.07,0.18,0.16,0.19H6.44z M4.95,11.67c-0.1,0-0.19,0.09-0.19,0.19v0.45
	c0,0.1,0.09,0.19,0.19,0.19s0.19-0.09,0.19-0.19v-0.45c0.02-0.1-0.05-0.2-0.16-0.22c-0.02,0-0.04,0-0.05,0L4.95,11.67z M6.25,13.79
	c0,0.1,0.09,0.19,0.19,0.19s0.19-0.09,0.19-0.19v-0.45c-0.02-0.1-0.13-0.17-0.23-0.14c-0.07,0.02-0.13,0.07-0.14,0.14L6.25,13.79z
	 M18.61,15.28v3c0,0.1,0.08,0.19,0.19,0.19s0.19-0.08,0.19-0.19c0,0,0,0,0,0v-3c0.02-0.1-0.04-0.2-0.14-0.23s-0.2,0.04-0.23,0.14
	C18.61,15.22,18.61,15.25,18.61,15.28L18.61,15.28z M16.79,15.75l0.09,0.23c0.09,0.24,0.34,0.38,0.59,0.34l0.76-0.11
	c0.1,0.01,0.19-0.07,0.2-0.18c0.01-0.1-0.07-0.19-0.18-0.2c-0.02,0-0.05,0-0.07,0.01l-0.76,0.11c-0.08,0.01-0.16-0.03-0.19-0.11
	l-0.09-0.23c-0.03-0.07-0.01-0.15,0.05-0.2l0.4-0.32c0.14-0.13,0.15-0.34,0.02-0.48c-0.01-0.01-0.01-0.01-0.02-0.02l-0.34-0.34
	c-0.03-0.05-0.03-0.11,0-0.16l0.07-0.35c0.01-0.06,0.06-0.11,0.12-0.13l0.39-0.13c0.26-0.09,0.39-0.37,0.31-0.62
	c0-0.01,0-0.01-0.01-0.02l-0.14-0.34c-0.01-0.04-0.01-0.07,0-0.11L18,12c0.02-0.09,0.06-0.18,0.12-0.25l0.26-0.35
	c0.06-0.09,0.11-0.18,0.14-0.28l0.17-0.52c0.03-0.09,0.14-0.14,0.23-0.11c0.05,0.02,0.09,0.06,0.11,0.11l0.1,1.18
	c0.02,0.22,0.1,0.42,0.23,0.59l0.34,0.42c0.05,0.06,0.08,0.12,0.11,0.19l0.21,0.52c0.01,0.03,0.01,0.06,0,0.09l-0.11,0.67
	c-0.02,0.13,0.01,0.26,0.09,0.37l0.3,0.4c0.01,0.04,0.01,0.07,0,0.11v0.29c0,0.05-0.03,0.11-0.07,0.14l-0.31,0.23
	c-0.05,0.02-0.1,0.02-0.15,0l-0.43-0.11c-0.1,0-0.19,0.08-0.2,0.18c0,0.07,0.04,0.14,0.11,0.18l0.43,0.11h0.13
	c0.12,0,0.23-0.04,0.33-0.11l0.31-0.23c0.14-0.1,0.22-0.27,0.22-0.44v-0.29c0-0.12-0.04-0.23-0.11-0.33l-0.3-0.4
	c-0.01-0.03-0.01-0.05,0-0.08l0.11-0.67c0.03-0.1,0.03-0.2,0-0.3l-0.21-0.52c-0.04-0.1-0.09-0.19-0.16-0.28l-0.34-0.42
	c-0.09-0.11-0.14-0.24-0.15-0.38l-0.1-1.18c-0.02-0.3-0.29-0.53-0.59-0.5c-0.22,0.02-0.41,0.16-0.48,0.37l-0.18,0.52
	c-0.02,0.06-0.05,0.12-0.09,0.17l-0.26,0.35c-0.09,0.12-0.15,0.25-0.18,0.39l-0.08,0.31c-0.04,0.11-0.04,0.23,0,0.34l0.14,0.34
	c0.02,0.06,0,0.12-0.06,0.15c0,0-0.01,0-0.01,0l-0.39,0.13c-0.19,0.06-0.33,0.22-0.37,0.41l-0.07,0.35
	c-0.04,0.18,0.02,0.37,0.15,0.5l0.31,0.31l-0.37,0.3c-0.23,0.18-0.29,0.51-0.12,0.75L16.79,15.75z"/>
</svg>
