<svg xmlns="http://www.w3.org/2000/svg" viewBox="0 0 24 24">
<path d="M3.12,20.81c0-0.1,0.09-0.19,0.19-0.19c0,0,0,0,0,0h3.84l-0.08-0.1L6.62,19.8c-0.11-0.18-0.17-0.38-0.17-0.59V19.1
	c0-0.23,0.16-0.43,0.38-0.48l0.23-0.06c0.07-0.02,0.14-0.05,0.19-0.1l1.93-1.81c0.31-0.29,0.64-0.54,1-0.76l0.66-0.42l0,0l1.46-2.48
	L12,12.47c-0.35-0.61-0.38-1.35-0.1-2l0,0c0.11-0.25,0.26-0.47,0.45-0.66l0.28-0.28c0.25-0.2,0.39-0.51,0.37-0.83V7.45
	c0-0.14-0.1-0.26-0.24-0.28l-1.64-0.23C11.07,6.93,11.02,6.96,11,7L8.73,8.8c-0.01,0.03-0.01,0.07,0,0.1v0.22
	c0,0.22-0.11,0.42-0.29,0.54L8.26,9.78v0.37c0,0.1-0.09,0.19-0.19,0.19c-0.03,0-0.05-0.01-0.08-0.02L7.54,10.1
	c-0.17-0.08-0.28-0.26-0.28-0.45V9.31c0-0.21,0.08-0.41,0.22-0.56l2.71-2.84c0.18-0.19,0.41-0.31,0.67-0.34l2.93-0.37
	c0.17-0.03,0.35,0.02,0.49,0.13c0.14,0.11,0.23,0.27,0.25,0.44l0.06,0.56c0.03,0.27,0,0.54-0.1,0.8l-0.27,0.72
	c-0.1,0.26-0.38,0.39-0.64,0.29c-0.08-0.03-0.14-0.07-0.2-0.13V8.7c0,0.38-0.15,0.74-0.42,1l-0.28,0.28
	c-0.09,0.09-0.16,0.18-0.23,0.28h3.51V8.91c0-0.08,0.05-0.15,0.13-0.18c0.26-0.09,0.49-0.26,0.64-0.49l0,0L16.58,6.6
	c-0.02-0.1,0.04-0.2,0.14-0.23c0.1-0.02,0.2,0.04,0.23,0.14c0.01,0.03,0.01,0.06,0,0.09l0.07,0.79c0.02,0.02,0.04,0.04,0.06,0.06
	l1,1.71c0.09,0.15,0.09,0.34,0,0.49l-0.78,1.44c-0.05,0.1-0.11,0.18-0.19,0.26L17,11.46c-0.06,0.06-0.1,0.12-0.14,0.19l-0.26,0.52
	c-0.01,0.03-0.01,0.06,0,0.09l0,0c0.03-0.01,0.06-0.01,0.09,0l0.34-0.09c0.12-0.03,0.23-0.12,0.28-0.23l0.18-0.37l0.08-0.26
	c0.05-0.14,0.11-0.27,0.2-0.39l0.92-1.27c0.07-0.13,0.07-0.3,0-0.43L17.7,6.66C17.59,6.4,17.38,6.2,17.12,6.1L16.82,6
	c-0.1-0.05-0.14-0.17-0.09-0.28S16.9,5.58,17,5.63l0.3,0.12c0.35,0.14,0.63,0.42,0.78,0.77L19.1,9c0.11,0.26,0.08,0.56-0.09,0.79
	L18.09,11c-0.06,0.09-0.12,0.19-0.15,0.29l-0.09,0.28l-0.19,0.39c-0.11,0.21-0.3,0.36-0.53,0.42l-0.29,0.07l-0.12,0.12
	c-0.04,0.03-0.08,0.05-0.13,0.05h-0.08c-0.26-0.11-0.38-0.41-0.27-0.67c0-0.01,0.01-0.01,0.01-0.02l0.26-0.52
	c0.05-0.11,0.12-0.21,0.21-0.29l0.11-0.11c0.05-0.05,0.1-0.11,0.13-0.17l0.78-1.44c0.02-0.04,0.02-0.08,0-0.12l-0.66-1.13v0.08
	c0.01,0.04,0.01,0.08,0,0.12v0.06C16.89,8.68,16.61,8.89,16.3,9v1.89c0,0.54-0.15,1.08-0.43,1.54l-0.53,0.89
	c-0.03,0.06-0.09,0.09-0.16,0.09h-0.1c-0.09-0.06-0.11-0.17-0.06-0.26l0.53-0.89c0.24-0.41,0.37-0.87,0.37-1.34v-0.28h-3.7
	c-0.2,0.52-0.16,1.11,0.12,1.59l1,1.7c0.05,0.09,0.02,0.21-0.08,0.26c0,0,0,0,0,0l-0.38,0.19c-0.33,0.17-0.61,0.42-0.8,0.74
	l-0.83,1.34l-0.07,0.08V17h0.24l0.11-0.11l2.81-2.3c0.21-0.17,0.31-0.45,0.26-0.72l-0.52-2.72c-0.03-0.1,0.02-0.21,0.12-0.24
	c0.1-0.03,0.21,0.02,0.24,0.12c0.01,0.02,0.01,0.03,0.01,0.05L15,13.77c0.08,0.4-0.07,0.82-0.39,1.08l-2.81,2.3
	c-0.08,0.07-0.14,0.16-0.15,0.27l-0.27,1.78c-0.01,0.09-0.1,0.16-0.19,0.16H10.9c-0.21,0-0.4-0.14-0.47-0.34l-0.18-0.53
	c-0.05-0.15-0.07-0.3-0.07-0.45V18L8,19.36c-0.04,0.03-0.06,0.08-0.05,0.13l0.11,0.55l0.18,0.35c0.03,0.08,0.03,0.16,0,0.24h12.45
	c0.1,0,0.19,0.09,0.19,0.19c0,0.1-0.08,0.19-0.19,0.19H3.31c-0.1,0-0.19-0.08-0.19-0.19C3.12,20.82,3.12,20.81,3.12,20.81z M13,6.9
	L13,6.9l0.31-0.16c0.09-0.05,0.21-0.01,0.26,0.09s0.01,0.21-0.09,0.26l-0.27,0.13c0.02,0.05,0.04,0.1,0.05,0.16l0.27,0.41
	c0.03,0.04,0.07,0.06,0.12,0.05c0.05-0.01,0.08-0.04,0.1-0.08L14.1,7c0.08-0.2,0.1-0.42,0.08-0.63l-0.06-0.56
	c-0.02-0.14-0.14-0.25-0.28-0.25l0,0l-2.93,0.37c-0.17,0.02-0.33,0.1-0.45,0.23L7.72,9C7.64,9.08,7.6,9.19,7.6,9.3v0.34
	c0,0.05,0.03,0.09,0.07,0.11l0.18,0.09V9.68c0-0.06,0.03-0.12,0.08-0.16l0.26-0.17C8.27,9.3,8.31,9.21,8.31,9.12V8.9
	c0-0.15,0.06-0.29,0.18-0.39l2.27-1.84c0.11-0.09,0.24-0.13,0.38-0.11l1.64,0.23C12.86,6.81,12.93,6.85,13,6.9z M11,17.33
	c-0.1,0-0.19-0.09-0.19-0.19l0,0v-0.32h-0.09c-0.09,0.05-0.15,0.15-0.15,0.25V18c0,0.11,0.02,0.22,0.05,0.33l0.18,0.53
	c0.02,0.05,0.07,0.08,0.12,0.08H11l0.25-1.63l0,0L11,17.33z M7.46,19.13H7.7L7.8,19l2.38-1.54v-0.39c0-0.25,0.14-0.47,0.36-0.58
	l0.21-0.1c0.07-0.04,0.14-0.09,0.18-0.16l0.83-1.34c0.24-0.38,0.59-0.69,1-0.88l0.2-0.1l-0.36-0.63l-1.35,2.3
	c-0.04,0.07-0.1,0.13-0.17,0.17l-0.66,0.41c-0.33,0.21-0.64,0.44-0.93,0.71L7.5,18.73H7.44L7.46,19.13z M7.4,20.32
	c0.08,0.13,0.22,0.2,0.37,0.2h0.16l-0.2-0.35l0,0L7.62,19.6c0-0.02,0-0.04,0-0.06H7.26c-0.1,0-0.19-0.09-0.19-0.19l0,0v-0.38H6.92
	c-0.05,0.01-0.09,0.06-0.09,0.12v0.11c0,0.14,0.04,0.27,0.11,0.39L7.4,20.32z M17.4,20c0.1,0,0.19,0.09,0.19,0.19
	c0,0.1-0.08,0.19-0.19,0.19h-3.48c-0.1-0.02-0.17-0.13-0.14-0.23c0.02-0.07,0.07-0.13,0.14-0.14h0.47l0.74-3.27
	c0.02-0.09,0.09-0.15,0.18-0.15h0.62c0.08,0,0.16,0.06,0.18,0.14L16.9,20H17.4z M16.54,20l-0.72-3H15.5l-0.69,3H16.54z M12.83,4.65
	c0.18,0.12,0.39,0.18,0.6,0.18h0.35c0.1-0.02,0.17-0.13,0.14-0.23c-0.02-0.07-0.07-0.13-0.14-0.14h-0.35c-0.14,0-0.28-0.04-0.4-0.12
	L12.66,4.1L13,4c0.19-0.09,0.42-0.09,0.61,0l0.55,0.28c0.09,0.04,0.2,0.01,0.25-0.08l0.2-0.41c0.05-0.09,0.13-0.17,0.23-0.2
	l0.47-0.16c0.12-0.03,0.26-0.03,0.38,0h0.24c0.13,0.03,0.24,0.11,0.3,0.23v0.09c0.07,0.15,0.11,0.31,0.11,0.47v0.43
	c0.01,0.13,0.01,0.25,0,0.38l-0.06,0.36c-0.03,0.19-0.14,0.36-0.29,0.47l-0.07,0.05c-0.09,0.06-0.22,0.06-0.31,0L15.26,5.7
	c-0.07-0.04-0.12-0.11-0.16-0.18l-0.23-0.46C14.85,5.03,14.83,5.01,14.8,5h-0.05c-0.09-0.05-0.15-0.14-0.15-0.24h0.12
	c0.1-0.02,0.17-0.13,0.14-0.23c-0.02-0.07-0.07-0.13-0.14-0.14h-0.16c-0.19,0.01-0.35,0.17-0.34,0.36c0,0,0,0.01,0,0.01
	c0,0.25,0.14,0.47,0.36,0.58l0.2,0.4c0.07,0.14,0.18,0.25,0.31,0.33l0.35,0.21c0.22,0.15,0.51,0.15,0.73,0l0.07-0.05
	c0.23-0.17,0.38-0.43,0.43-0.71l0.06-0.36c0.01-0.15,0.01-0.29,0-0.44V4.23c0-0.22-0.05-0.44-0.15-0.64V3.5
	C16.46,3.27,16.25,3.11,16,3.07h-0.24c-0.19-0.05-0.38-0.05-0.57,0l-0.47,0.16c-0.2,0.07-0.36,0.21-0.45,0.39l-0.12,0.24l-0.39-0.19
	c-0.29-0.13-0.63-0.13-0.92,0l-0.67,0.27c-0.09,0.05-0.12,0.17-0.07,0.26c0.02,0.03,0.04,0.05,0.07,0.07L12.83,4.65z"/>
</svg>
