<svg xmlns="http://www.w3.org/2000/svg" viewBox="0 0 24 24">
<path d="M12.42,9.19h-0.13c-0.04,0-0.08,0.02-0.11,0.05L12,9.37l0,0l0,0l-0.14-0.14c-0.03-0.03-0.07-0.05-0.11-0.05h-0.13h-0.05
	c-0.05,0.05-0.07,0.12-0.05,0.19c0.01,0.04,0.02,0.07,0.05,0.1l0.09,0.09L11.8,9.7l0.1,0.1c0.08,0.08,0.21,0.08,0.29,0l0.1-0.1
	l0.14-0.14l0.09-0.09c0.03-0.03,0.04-0.06,0.05-0.1c0.02-0.07,0-0.14-0.05-0.19L12.42,9.19z M14.69,10.43L14.69,10.43l-0.12,0.12
	l-0.06,0.06l-0.18-0.18l0,0h-0.1c-0.07-0.02-0.14,0-0.19,0.05c-0.08,0.08-0.08,0.21,0,0.29l0.33,0.33c0.08,0.08,0.21,0.08,0.29,0
	l0.31-0.31l0,0c0.08-0.08,0.08-0.22-0.01-0.3c-0.07-0.06-0.16-0.07-0.24-0.03L14.69,10.43z M9.39,8.62c0.08,0.08,0.21,0.08,0.29,0
	L10,8.3c0.09-0.07,0.11-0.2,0.04-0.29C9.97,7.91,9.84,7.9,9.74,7.97C9.73,7.98,9.72,7.99,9.71,8L9.53,8.18L9.36,8
	C9.3,7.9,9.17,7.87,9.07,7.94C8.97,8,8.94,8.13,9.01,8.23c0.02,0.03,0.04,0.05,0.06,0.06L9.39,8.62z M14.31,8.62
	c0.08,0.08,0.21,0.08,0.29,0l0.33-0.33C15,8.2,14.98,8.07,14.89,8c-0.08-0.06-0.19-0.06-0.26,0l-0.18,0.18L14.27,8
	c-0.1-0.05-0.23-0.01-0.28,0.1C13.96,8.16,13.96,8.24,14,8.3L14.31,8.62z M11.85,12.3c0.08,0.08,0.21,0.08,0.29,0l0.33-0.33
	c0.06-0.1,0.03-0.23-0.06-0.29c-0.07-0.04-0.16-0.04-0.23,0L12,11.86l-0.18-0.18c-0.1-0.06-0.23-0.03-0.29,0.06
	c-0.04,0.07-0.04,0.16,0,0.23L11.85,12.3z M16.65,9.75l0.1,0.1c0.08,0.08,0.21,0.08,0.29,0l0.1-0.1l0.23-0.23
	c0.06-0.1,0.03-0.23-0.06-0.29c-0.07-0.04-0.16-0.04-0.23,0L16.9,9.41l-0.18-0.18c-0.06-0.1-0.19-0.13-0.29-0.06
	s-0.13,0.19-0.06,0.29c0.02,0.03,0.04,0.05,0.06,0.06L16.65,9.75z M9.81,10.41L9.81,10.41L9.81,10.41l-0.18,0.18l-0.06-0.06
	l-0.11-0.11H9.41c-0.07-0.05-0.17-0.05-0.24,0c-0.07,0.08-0.07,0.21,0,0.29l0,0l0.31,0.31c0.08,0.08,0.21,0.08,0.29,0l0.33-0.33
	c0.08-0.08,0.08-0.21,0-0.29c-0.09-0.07-0.21-0.06-0.29,0.02L9.81,10.41z M11.81,7.41c0.08,0.08,0.21,0.08,0.29,0l0.33-0.33
	c0.06-0.1,0.03-0.23-0.06-0.29c-0.07-0.04-0.16-0.04-0.23,0L12,6.95l-0.18-0.18c-0.1-0.06-0.23-0.03-0.29,0.06
	c-0.04,0.07-0.04,0.16,0,0.23L11.81,7.41z M21.1,9.56c-0.31-0.05-0.63,0.03-0.88,0.21C20.14,9.82,20.07,9.89,20,9.96l-0.5,0.59
	c-0.18,0.2-0.44,0.3-0.71,0.26h-0.13c-0.41-0.07-0.83,0.08-1.1,0.4l-0.29,0.34l-0.14,0.16l-0.07,0.08l-0.08,0.07
	c-0.17,0.15-0.4,0.22-0.63,0.19h-0.13c-0.41-0.07-0.83,0.08-1.1,0.4l-0.5,0.59c-0.18,0.2-0.44,0.3-0.71,0.26h-0.13
	c-0.41-0.07-0.83,0.08-1.1,0.4l-0.12,0.14c-0.3,0.32-0.81,0.34-1.13,0.04c-0.01-0.01-0.03-0.03-0.04-0.04l-0.14-0.16
	c-0.26-0.3-0.65-0.46-1.05-0.41H9.95C9.69,13.3,9.43,13.2,9.26,13l-0.44-0.54C8.57,12.13,8.16,11.95,7.74,12H7.62
	C7.4,12.04,7.17,11.97,7,11.83l-0.08-0.07l-0.07-0.08l-0.14-0.16l-0.29-0.34c-0.27-0.32-0.69-0.47-1.1-0.4H5.19
	c-0.27,0.04-0.54-0.06-0.71-0.26L4,9.94C3.93,9.87,3.86,9.8,3.78,9.75C3.53,9.57,3.21,9.49,2.9,9.54C2.79,9.56,2.71,9.67,2.73,9.78
	c0.02,0.11,0.13,0.19,0.24,0.17c0.27-0.04,0.53,0.06,0.71,0.26l0.51,0.59c0.27,0.32,0.69,0.47,1.1,0.4h0.13
	c0.27-0.04,0.54,0.06,0.71,0.26l0.23,0.26l0.14,0.16l0.14,0.16l0,0c0.27,0.32,0.69,0.47,1.1,0.4h0.12c0.27-0.04,0.55,0.06,0.72,0.27
	l0.44,0.54c0.26,0.31,0.66,0.47,1.06,0.42h0.24c0.26-0.03,0.51,0.06,0.68,0.26l0.14,0.16c0.43,0.5,1.18,0.55,1.68,0.12
	c0.04-0.04,0.08-0.08,0.12-0.12l0.12-0.14c0.18-0.2,0.44-0.3,0.71-0.26h0.13c0.41,0.07,0.83-0.08,1.1-0.4l0.5-0.59
	c0.17-0.2,0.44-0.3,0.71-0.26h0.13c0.41,0.07,0.83-0.08,1.1-0.4l0,0l0.14-0.16l0.14-0.16l0.23-0.26c0.18-0.2,0.44-0.3,0.71-0.26
	h0.13c0.41,0.07,0.83-0.08,1.1-0.4l0.51-0.59c0.18-0.2,0.44-0.3,0.71-0.26c0.11,0.02,0.22-0.06,0.24-0.17
	c0.01-0.12-0.07-0.22-0.19-0.23c0,0-0.01,0-0.01,0L21.1,9.56z M6.86,9.75l0.1,0.1c0.08,0.08,0.21,0.08,0.29,0l0.1-0.1l0.23-0.23
	c0.06-0.1,0.03-0.23-0.06-0.29c-0.07-0.04-0.16-0.04-0.23,0L7.11,9.41L6.93,9.23C6.83,9.17,6.7,9.2,6.64,9.29
	c-0.04,0.07-0.04,0.16,0,0.23L6.86,9.75z M21.34,12.75l-0.76,0.38l0.91,0.45C21.93,13.8,22,14.09,22,14.24s-0.07,0.44-0.51,0.66
	L13,19.15c-0.66,0.29-1.42,0.29-2.08,0l-8.41-4.23c-0.44-0.22-0.5-0.51-0.5-0.66s0.07-0.44,0.5-0.66l0.91-0.45l-0.76-0.38
	C2.26,12.57,2,12.16,2,11.71v-1.48c0-0.28,0.1-0.56,0.29-0.77l0.63-0.73C3.19,8.42,3.59,8.26,4,8.32h0.13
	C4.4,8.36,4.66,8.26,4.84,8.06l0.5-0.59C5.61,7.15,6.03,7,6.44,7.07h0.13C6.84,7.11,7.1,7.01,7.28,6.81l0.5-0.59
	c0.27-0.32,0.69-0.47,1.1-0.4L9,5.9c0.27,0.04,0.53-0.06,0.71-0.26l0.5-0.59c0.27-0.32,0.69-0.47,1.1-0.4l0.52,0.09
	c0.08,0.01,0.17,0.01,0.25,0l0.52-0.09c0.41-0.07,0.83,0.08,1.1,0.4l0.5,0.59c0.19,0.24,0.51,0.34,0.8,0.26h0.13
	c0.41-0.07,0.83,0.09,1.1,0.41l0.47,0.56c0.17,0.21,0.44,0.31,0.7,0.27h0.19c0.4-0.06,0.8,0.09,1.07,0.4l0.51,0.6
	c0.18,0.2,0.44,0.3,0.71,0.26h0.13c0.41-0.07,0.83,0.08,1.1,0.4l0.63,0.73c0.19,0.21,0.29,0.49,0.29,0.77v1.48
	c-0.03,0.43-0.3,0.81-0.69,0.99V12.75z M21.58,11.69v-1.46c0-0.18-0.07-0.36-0.19-0.5L20.77,9c-0.17-0.2-0.44-0.3-0.71-0.26h-0.13
	c-0.41,0.07-0.83-0.08-1.1-0.4l-0.51-0.6c-0.17-0.2-0.44-0.3-0.7-0.26h-0.19c-0.41,0.06-0.82-0.09-1.08-0.41l-0.47-0.56
	C15.7,6.3,15.43,6.2,15.16,6.25h-0.13c-0.41,0.07-0.83-0.08-1.1-0.4l-0.51-0.59c-0.17-0.2-0.44-0.3-0.71-0.26l-0.52,0.09
	c-0.13,0.02-0.26,0.02-0.39,0L11.28,5c-0.27-0.04-0.53,0.06-0.71,0.26l-0.5,0.59c-0.27,0.32-0.69,0.47-1.1,0.4H8.84
	C8.57,6.21,8.31,6.31,8.13,6.51L7.63,7.1c-0.27,0.32-0.69,0.47-1.1,0.4H6.4C6.13,7.46,5.87,7.56,5.69,7.76L5.18,8.35
	c-0.27,0.32-0.69,0.47-1.1,0.4H3.95H3.82C3.6,8.74,3.38,8.84,3.23,9L2.6,9.73c-0.12,0.14-0.19,0.32-0.19,0.5v1.48
	c0,0.29,0.17,0.56,0.43,0.69l1,0.52l0.23,0.12l0.23,0.12l6.8,3.4c0.54,0.26,1.16,0.26,1.7,0l6.8-3.4l0.23-0.12l0.23-0.12l1-0.52
	c0.3-0.1,0.5-0.38,0.52-0.69V11.69z"/>
</svg>
