<svg xmlns="http://www.w3.org/2000/svg" viewBox="0 0 24 24">
<path d="M19.88,7v10c0,0.42,0.17,0.83,0.47,1.13l0.19,0.19c0.62,0.62,0.62,1.63,0,2.25s-1.63,0.62-2.25,0l-0.19-0.19
	c-0.29-0.3-0.68-0.48-1.1-0.5H7c-0.42,0-0.82,0.17-1.12,0.47l-0.19,0.19c-0.62,0.62-1.63,0.62-2.25,0s-0.62-1.63,0-2.25l0.19-0.19
	c0.3-0.29,0.48-0.68,0.5-1.1V7c0-0.42-0.17-0.82-0.47-1.12L3.47,5.69C2.79,5.14,2.68,4.13,3.24,3.45s1.56-0.79,2.24-0.23
	C5.57,3.3,5.65,3.38,5.72,3.47l0.19,0.19C6.2,3.95,6.59,4.12,7,4.13h10c0.42,0,0.83-0.17,1.13-0.47l0.19-0.19
	c0.62-0.62,1.63-0.62,2.25,0s0.62,1.63,0,2.25l-0.19,0.19C20.08,6.19,19.9,6.59,19.88,7z M18.88,16.93V7c0-0.69,0.27-1.35,0.76-1.83
	L19.83,5c0.23-0.23,0.22-0.61-0.01-0.83C19.71,4.06,19.56,4,19.41,4c-0.16,0-0.31,0.06-0.42,0.17L18.8,4.36
	c-0.47,0.48-1.12,0.76-1.8,0.77H7C6.32,5.12,5.68,4.85,5.2,4.37L5,4.17C4.77,3.94,4.39,3.95,4.17,4.18C4.06,4.29,4,4.44,4,4.59
	C4,4.74,4.06,4.89,4.17,5l0.19,0.19C4.85,5.67,5.12,6.32,5.13,7v10c0,0.69-0.27,1.35-0.76,1.83L4.17,19c-0.23,0.23-0.23,0.61,0,0.84
	c0.23,0.23,0.61,0.23,0.84,0l0.19-0.19c0.47-0.48,1.12-0.76,1.8-0.77h10c0.69,0,1.35,0.27,1.83,0.76l0.19,0.19
	c0.23,0.23,0.61,0.23,0.84,0s0.23-0.61,0-0.84l-0.19-0.19c-0.49-0.47-0.78-1.12-0.79-1.8V16.93z M13.48,9.3
	c-0.19-0.2-0.51-0.2-0.71,0c0,0,0,0,0,0L12,10.07L11.23,9.3c-0.2-0.2-0.51-0.2-0.71,0s-0.2,0.51,0,0.71l0.77,0.77l-0.77,0.77
	c-0.2,0.2-0.2,0.51,0,0.71s0.51,0.2,0.71,0L12,11.49l0.77,0.77c0.2,0.2,0.51,0.2,0.71,0s0.2-0.51,0-0.71l-0.77-0.77l0.77-0.77
	c0.18-0.19,0.18-0.49,0-0.68V9.3z"/>
</svg>
