<?xml version="1.0" standalone="no"?>
<!DOCTYPE svg PUBLIC "-//W3C//DTD SVG 1.1//EN" "http://www.w3.org/Graphics/SVG/1.1/DTD/svg11.dtd" >
<svg xmlns="http://www.w3.org/2000/svg" xmlns:xlink="http://www.w3.org/1999/xlink" version="1.1">
<metadata>
Created by FontForge 20170924 at Fri Jan 30 20:30:00 2015
 By www-data
(c) 2014 adidas. All rights reserved.
</metadata>
<defs>
<font id="adineuePRO-Light" horiz-adv-x="490" >
  <font-face 
    font-family="adineue PRO Light"
    font-weight="300"
    font-stretch="normal"
    units-per-em="1000"
    panose-1="2 11 3 3 2 2 1 6 0 4"
    ascent="750"
    descent="-250"
    x-height="500"
    cap-height="685"
    bbox="-245 -209 1129 915"
    underline-thickness="40"
    underline-position="-120"
    unicode-range="U+0020-F8FF"
  />
<missing-glyph horiz-adv-x="420" 
 />
    <glyph glyph-name=".notdef" horiz-adv-x="420" 
 />
    <glyph glyph-name=".null" horiz-adv-x="0" 
 />
    <glyph glyph-name="nonmarkingreturn" horiz-adv-x="333" 
 />
    <glyph glyph-name="space" unicode=" " horiz-adv-x="200" 
 />
    <glyph glyph-name="exclam" unicode="!" horiz-adv-x="138" 
d="M93 685v-512h-48v512h48zM93 0h-48v58h48v-58z" />
    <glyph glyph-name="quotedbl" unicode="&#x22;" horiz-adv-x="218" 
d="M171 552h-36l-7 133h50zM83 552h-36l-7 133h50z" />
    <glyph glyph-name="numbersign" unicode="#" horiz-adv-x="585" 
d="M368 229l19 223h-176l-19 -223h176zM348 0l16 181h-176l-16 -181h-51l16 181h-104v48h108l19 223h-127v48h131l16 185h51l-16 -185h176l16 185h51l-16 -185h111v-48h-115l-19 -223h134v-48h-138l-16 -181h-51z" />
    <glyph glyph-name="dollar" unicode="$" horiz-adv-x="486" 
d="M225 377v253q-53 -5 -84.5 -38.5t-31.5 -86.5q0 -55 30 -83t86 -45zM272 310v-274q63 5 99 40t36 93q0 63 -34.5 92.5t-100.5 48.5zM272 630v-267q36 -10 55.5 -16.5t48.5 -21.5t44.5 -33.5t27 -49.5t11.5 -71q0 -76 -51 -126t-136 -55v-81h-47v81q-88 7 -138.5 54
t-59.5 131h54q7 -60 44 -96t100 -43v287q-31 9 -51 16.5t-45 22t-39.5 32t-24.5 46t-10 64.5q0 73 47 119.5t123 52.5v94h47v-94q79 -6 126 -52t52 -119h-53q-4 49 -35.5 83.5t-89.5 41.5z" />
    <glyph glyph-name="percent" unicode="%" horiz-adv-x="794" 
d="M20 436v124q0 56 40 92.5t101 36.5q59 0 98.5 -36.5t39.5 -92.5v-124q0 -56 -39.5 -93t-98.5 -37q-61 0 -101 37t-40 93zM272 0h-53l303 685h53zM254 436v124q0 37 -26.5 62t-66.5 25q-41 0 -67.5 -24.5t-26.5 -62.5v-124q0 -38 26.5 -63t67.5 -25q40 0 66.5 25t26.5 63z
M495 124v124q0 56 40 92.5t101 36.5q59 0 98.5 -36.5t39.5 -92.5v-124q0 -56 -39.5 -93t-98.5 -37q-61 0 -101 37t-40 93zM729 124v124q0 37 -26.5 62t-66.5 25q-41 0 -67.5 -24.5t-26.5 -62.5v-124q0 -38 26.5 -63t67.5 -25q40 0 66.5 25t26.5 63z" />
    <glyph glyph-name="ampersand" unicode="&#x26;" horiz-adv-x="672" 
d="M178 527q0 -83 73 -152q41 15 63 25t49.5 29t40 45t12.5 61q0 51 -33 80.5t-87 29.5q-53 0 -85.5 -33t-32.5 -85zM454 114l-218 210q-70 -28 -105.5 -60.5t-35.5 -92.5q0 -63 43.5 -101.5t118.5 -38.5q114 0 197 83zM574 0l-89 85q-94 -96 -229 -96q-98 0 -154.5 50.5
t-56.5 131.5q0 77 41 117.5t115 68.5q-76 78 -76 164q0 74 49 123t125 49q73 0 120 -42.5t47 -114.5q0 -43 -14 -75t-43 -54t-55.5 -35t-68.5 -29l202 -189q86 114 95 277h46q-13 -181 -109 -307l131 -124h-76z" />
    <glyph glyph-name="quotesingle" unicode="'" horiz-adv-x="130" 
d="M83 552h-36l-7 133h50z" />
    <glyph glyph-name="parenleft" unicode="(" horiz-adv-x="243" 
d="M173 694l35 -25q-67 -75 -101 -182.5t-34 -221.5t34 -221.5t101 -182.5l-35 -25q-70 78 -109 191.5t-39 237.5t39 237.5t109 191.5z" />
    <glyph glyph-name="parenright" unicode=")" horiz-adv-x="243" 
d="M70 -164l-35 25q67 75 101 182.5t34 221.5t-34 221.5t-101 182.5l35 25q70 -78 109 -191.5t39 -237.5t-39 -237.5t-109 -191.5z" />
    <glyph glyph-name="asterisk" unicode="*" horiz-adv-x="355" 
d="M198 571l99 62l21 -35l-101 -64l101 -64l-21 -35l-99 62v-113h-41v112l-99 -61l-21 35l101 64l-101 64l21 35l99 -61v113h41v-114z" />
    <glyph glyph-name="plus" unicode="+" horiz-adv-x="440" 
d="M242 309h168v-46h-168v-173h-48v173h-164v46h164v167h48v-167z" />
    <glyph glyph-name="comma" unicode="," horiz-adv-x="130" 
d="M90 4l-19 -76h-27l17 72h-21v58h50v-54z" />
    <glyph glyph-name="hyphen" unicode="-" horiz-adv-x="349" 
d="M309 263h-269v46h269v-46z" />
    <glyph glyph-name="period" unicode="." horiz-adv-x="130" 
d="M90 0h-50v58h50v-58z" />
    <glyph glyph-name="slash" unicode="/" horiz-adv-x="265" 
d="M67 0h-49l180 684h49z" />
    <glyph glyph-name="zero" unicode="0" horiz-adv-x="540" 
d="M38 222v238q0 99 67 165.5t166 66.5q98 0 164.5 -66.5t66.5 -165.5v-238q0 -100 -66.5 -166.5t-164.5 -66.5q-99 0 -166 66.5t-67 166.5zM450 222v238q0 80 -51 132t-128 52q-79 0 -130 -52t-51 -132v-238q0 -80 51 -132.5t130 -52.5q77 0 128 52.5t51 132.5z" />
    <glyph glyph-name="one" unicode="1" horiz-adv-x="208" 
d="M164 0h-50v638h-81v47h131v-685z" />
    <glyph glyph-name="two" unicode="2" horiz-adv-x="508" 
d="M475 0h-441v46l271 253q57 52 82.5 93.5t25.5 103.5q0 64 -43 105.5t-113 41.5q-65 0 -107 -27t-75 -82l-42 25q78 133 224 133q92 0 151.5 -56.5t59.5 -139.5q0 -72 -30.5 -120t-97.5 -110l-235 -220h370v-46z" />
    <glyph glyph-name="three" unicode="3" horiz-adv-x="519" 
d="M251 -6q-151 0 -229 133l43 26q32 -55 75.5 -82.5t110.5 -27.5q84 0 133.5 50t49.5 130q0 82 -47 126.5t-133 44.5q-58 0 -99 -30l-22 32l256 244h-329v46h396v-47l-204 -197q109 0 171.5 -59.5t62.5 -158.5q0 -100 -65 -165t-170 -65z" />
    <glyph glyph-name="four" unicode="4" horiz-adv-x="523" 
d="M406 211h91v-48h-91v-163h-50v163h-331v48l331 476h50v-476zM84 211h272v395z" />
    <glyph glyph-name="five" unicode="5" horiz-adv-x="519" 
d="M251 -6q-151 0 -229 133l41 25q32 -54 76.5 -81.5t111.5 -27.5q84 0 133.5 50.5t49.5 131.5q0 82 -46 127t-131 45q-98 0 -158 -83l-49 17l69 355h327v-49h-287l-50 -247q61 56 152 56q106 0 165.5 -60t59.5 -160t-65.5 -166t-169.5 -66z" />
    <glyph glyph-name="six" unicode="6" horiz-adv-x="542" 
d="M271 -9q-101 0 -169.5 68t-68.5 169q0 79 43 147l195 311h57l-154 -239q48 21 101 21q101 0 167.5 -69t66.5 -171q0 -100 -69 -168.5t-169 -68.5zM271 40q81 0 134 53.5t53 134.5q0 83 -53 137t-134 54t-134 -54t-53 -137q0 -81 53 -134.5t134 -53.5z" />
    <glyph glyph-name="seven" unicode="7" horiz-adv-x="466" 
d="M445 639l-283 -639h-57l283 637h-366v48h423v-46z" />
    <glyph glyph-name="eight" unicode="8" horiz-adv-x="503" 
d="M251 -11q-91 0 -154.5 60t-63.5 148q0 61 34 109.5t93 75.5q-41 22 -64.5 59.5t-23.5 81.5q0 73 52 121t127 48t127.5 -48t52.5 -121q0 -91 -89 -141q59 -25 93.5 -75t34.5 -110q0 -89 -63.5 -148.5t-155.5 -59.5zM251 402q54 0 90.5 35.5t36.5 85.5q0 53 -37 88t-90 35
t-89.5 -35t-36.5 -88q0 -50 37 -85.5t89 -35.5zM251 37q70 0 118 45.5t48 115.5q0 67 -48 112.5t-118 45.5t-118 -45.5t-48 -112.5q0 -70 48 -115.5t118 -45.5z" />
    <glyph glyph-name="nine" unicode="9" horiz-adv-x="542" 
d="M271 0h-57l154 239q-48 -21 -101 -21q-101 0 -167.5 68.5t-66.5 171.5q0 100 69 168t169 68q101 0 169.5 -68t68.5 -168q0 -80 -43 -148zM271 266q81 0 133.5 54.5t52.5 136.5q0 81 -52.5 135t-133.5 54t-134.5 -54t-53.5 -135q0 -82 53.5 -136.5t134.5 -54.5z" />
    <glyph glyph-name="colon" unicode=":" horiz-adv-x="130" 
d="M90 442h-50v58h50v-58zM90 0h-50v58h50v-58z" />
    <glyph glyph-name="semicolon" unicode=";" horiz-adv-x="130" 
d="M90 442h-50v58h50v-58zM90 4l-19 -76h-27l17 72h-21v58h50v-54z" />
    <glyph glyph-name="less" unicode="&#x3c;" horiz-adv-x="440" 
d="M410 423l-334 -137l334 -137v-52l-380 163v52l380 163v-52z" />
    <glyph glyph-name="equal" unicode="=" horiz-adv-x="440" 
d="M410 335h-380v46h380v-46zM410 186h-380v46h380v-46z" />
    <glyph glyph-name="greater" unicode="&#x3e;" horiz-adv-x="440" 
d="M410 312v-52l-380 -163v52l334 137l-334 137v52z" />
    <glyph glyph-name="question" unicode="?" horiz-adv-x="468" 
d="M72 512h-52q10 79 67 129.5t147 50.5q92 0 148 -55t56 -142q0 -93 -59.5 -144t-144.5 -59v-119h-48v161q93 0 148.5 39.5t55.5 121.5q0 67 -42.5 109t-113.5 42q-68 0 -110 -37t-52 -97zM234 0h-48v58h48v-58z" />
    <glyph glyph-name="at" unicode="@" horiz-adv-x="757" 
d="M382 -69q-146 0 -249 101t-103 242q0 153 101 255.5t258 102.5q83 0 149 -28t106.5 -75t62 -104t21.5 -118q0 -96 -39 -151.5t-103 -55.5q-27 0 -49.5 15t-29.5 40q-49 -68 -142 -68q-80 0 -133 52.5t-53 133.5q0 80 53 133t133 53q46 0 85 -20t59 -51v64h45v-271
q0 -19 10.5 -30.5t28.5 -11.5q41 0 67 44t26 123q0 52 -18.5 101.5t-53.5 92t-93.5 68t-131.5 25.5q-138 0 -227.5 -92t-89.5 -227q0 -126 90 -215t221 -89q112 0 192 59l22 -33q-86 -65 -215 -65zM509 273q0 59 -42 100.5t-101 41.5q-61 0 -100.5 -40t-39.5 -102
t39.5 -102.5t100.5 -40.5q59 0 101 41.5t42 101.5z" />
    <glyph glyph-name="A" unicode="A" horiz-adv-x="616" 
d="M458 231l-151 385l-152 -385h303zM549 0l-71 181h-343l-71 -181h-54l271 685h53l272 -685h-57z" />
    <glyph glyph-name="B" unicode="B" horiz-adv-x="559" 
d="M50 0v685h236q94 0 148 -50.5t54 -126.5q0 -46 -24.5 -87.5t-67.5 -62.5q66 -11 102.5 -55.5t36.5 -105.5q0 -85 -56 -141t-142 -56h-287zM289 636h-186v-262h182q73 0 111.5 37t38.5 94q0 56 -38.5 93.5t-107.5 37.5zM334 325h-231v-276h227q75 0 113.5 41t38.5 103
q0 56 -38.5 94t-109.5 38z" />
    <glyph glyph-name="C" unicode="C" horiz-adv-x="708" 
d="M384 642q-127 0 -214 -85.5t-87 -213.5t87 -214.5t214 -86.5q168 0 255 145l41 -27q-99 -168 -296 -168q-148 0 -251 100t-103 251q0 150 103 250t251 100q200 0 298 -169l-43 -28q-87 146 -255 146z" />
    <glyph glyph-name="D" unicode="D" horiz-adv-x="638" 
d="M50 0v685h211q145 0 246 -97.5t101 -244.5t-101 -245t-246 -98h-211zM259 636h-156v-587h156q125 0 210.5 84t85.5 210t-85.5 209.5t-210.5 83.5z" />
    <glyph glyph-name="E" unicode="E" horiz-adv-x="498" 
d="M50 0v685h411v-49h-358v-265h333v-49h-333v-273h378v-49h-431z" />
    <glyph glyph-name="F" unicode="F" horiz-adv-x="483" 
d="M431 310h-328v-310h-53v685h406v-49h-353v-277h328v-49z" />
    <glyph glyph-name="G" unicode="G" horiz-adv-x="737" 
d="M708 313q0 -129 -90 -225t-231 -96q-153 0 -255 99.5t-102 251.5q0 151 103 251t251 100q172 0 270 -120l-39 -33q-86 101 -231 101q-127 0 -214 -85.5t-87 -213.5q0 -130 85.5 -215.5t218.5 -85.5q112 0 187.5 73.5t81.5 179.5h-260v49h312v-31z" />
    <glyph glyph-name="H" unicode="H" horiz-adv-x="607" 
d="M504 0v317h-401v-317h-53v685h53v-319h401v319h53v-685h-53z" />
    <glyph glyph-name="I" unicode="I" horiz-adv-x="153" 
d="M103 0h-53v685h53v-685z" />
    <glyph glyph-name="J" unicode="J" 
d="M18 215h53q0 -82 42 -128t118 -46t118 52t42 146v446h53v-451q0 -112 -57.5 -178t-155.5 -66q-97 0 -155 61.5t-58 163.5z" />
    <glyph glyph-name="K" unicode="K" horiz-adv-x="527" 
d="M103 352l338 333h67l-348 -341l360 -344h-74l-343 328v-328h-53v685h53v-333z" />
    <glyph glyph-name="L" unicode="L" horiz-adv-x="483" 
d="M50 0v685h53v-636h353v-49h-406z" />
    <glyph glyph-name="M" unicode="M" horiz-adv-x="743" 
d="M356 0l-256 579v-579h-50v685h60l262 -604l261 604h60v-685h-51v581l-256 -581h-30z" />
    <glyph glyph-name="N" unicode="N" horiz-adv-x="601" 
d="M495 0l-394 603v-603h-51v685h56l394 -603v603h51v-685h-56z" />
    <glyph glyph-name="O" unicode="O" horiz-adv-x="758" 
d="M379 -8q-146 0 -247.5 100t-101.5 251q0 150 101.5 250t247.5 100t247.5 -100t101.5 -250q0 -151 -101.5 -251t-247.5 -100zM379 42q125 0 210.5 86.5t85.5 214.5t-85.5 213.5t-210.5 85.5t-210.5 -85.5t-85.5 -213.5t85.5 -214.5t210.5 -86.5z" />
    <glyph glyph-name="P" unicode="P" horiz-adv-x="565" 
d="M275 240h-172v-240h-53v685h236q103 0 169 -64t66 -158q0 -98 -66.5 -160.5t-179.5 -62.5zM271 636h-168v-347h178q86 0 136.5 49.5t50.5 125.5q0 74 -52 123t-145 49z" />
    <glyph glyph-name="Q" unicode="Q" horiz-adv-x="758" 
d="M660 -17l-75 74q-92 -65 -206 -65q-146 0 -247.5 100t-101.5 251q0 150 101.5 250t247.5 100t247.5 -100t101.5 -250q0 -152 -105 -254l91 -89zM379 42q93 0 169 51l-168 166l54 17l153 -151q88 88 88 218q0 128 -85.5 213.5t-210.5 85.5t-210.5 -85.5t-85.5 -213.5
t85.5 -214.5t210.5 -86.5z" />
    <glyph glyph-name="R" unicode="R" horiz-adv-x="520" 
d="M263 636h-160v-318h155q94 0 144.5 44.5t50.5 113.5q0 70 -49.5 115t-140.5 45zM103 271v-271h-53v685h225q106 0 168.5 -58.5t62.5 -149.5q0 -88 -64 -147t-164 -59h-100l340 -271h-79z" />
    <glyph glyph-name="S" unicode="S" horiz-adv-x="577" 
d="M294 -10q-121 0 -191.5 54t-83.5 161h53q10 -81 67.5 -124t154.5 -42q95 0 145.5 39t50.5 108q0 21 -7 38.5t-15 30t-27.5 23t-31.5 16.5t-40.5 13t-41 9.5t-45.5 8.5q-44 8 -69 14t-61 20t-55 31.5t-33.5 48t-14.5 70.5q0 82 62 132t165 50q109 0 175 -53t72 -144h-52
q-7 63 -57.5 105.5t-140.5 42.5q-81 0 -127 -37t-46 -97q0 -28 12 -49.5t27 -34t47.5 -23.5t52 -15t61.5 -12q34 -6 51.5 -9.5t48 -12t46.5 -17t37.5 -23t32.5 -31.5t19 -42t8 -55q0 -85 -63.5 -139.5t-185.5 -54.5z" />
    <glyph glyph-name="T" unicode="T" horiz-adv-x="529" 
d="M291 0h-53v636h-223v49h499v-49h-223v-636z" />
    <glyph glyph-name="U" unicode="U" horiz-adv-x="628" 
d="M314 -10q-120 0 -191.5 74t-71.5 200v421h53v-416q0 -109 55.5 -169t154.5 -60t154.5 60t55.5 169v416h53v-421q0 -126 -71.5 -200t-191.5 -74z" />
    <glyph glyph-name="V" unicode="V" horiz-adv-x="596" 
d="M325 0h-53l-262 685h57l232 -614l233 614h54z" />
    <glyph glyph-name="W" unicode="W" horiz-adv-x="894" 
d="M621 0l-176 603l-175 -603h-57l-193 685h54l170 -611l176 611h55l176 -610l170 610h53l-196 -685h-57z" />
    <glyph glyph-name="X" unicode="X" horiz-adv-x="625" 
d="M542 0l-230 312l-229 -312h-61l257 351l-237 334h63l211 -293l208 293h61l-237 -333l257 -352h-63z" />
    <glyph glyph-name="Y" unicode="Y" horiz-adv-x="583" 
d="M318 0h-53v305l-245 380h63l209 -332l209 332h62l-245 -378v-307z" />
    <glyph glyph-name="Z" unicode="Z" horiz-adv-x="580" 
d="M541 637l-458 -588h482v-49h-549v48l459 588h-439v49h505v-48z" />
    <glyph glyph-name="bracketleft" unicode="[" horiz-adv-x="224" 
d="M204 639h-111v-753h111v-46h-159v845h159v-46z" />
    <glyph glyph-name="backslash" unicode="\" horiz-adv-x="265" 
d="M247 0h-49l-180 685h49z" />
    <glyph glyph-name="bracketright" unicode="]" horiz-adv-x="224" 
d="M20 -114h111v753h-111v46h159v-845h-159v46z" />
    <glyph glyph-name="asciicircum" unicode="^" horiz-adv-x="440" 
d="M410 96h-52l-138 334l-138 -334h-52l164 380h52z" />
    <glyph glyph-name="underscore" unicode="_" horiz-adv-x="500" 
d="M501 -126h-502v46h502v-46z" />
    <glyph glyph-name="grave" unicode="`" horiz-adv-x="400" 
d="M291 635v-45l-192 59v50z" />
    <glyph glyph-name="a" unicode="a" horiz-adv-x="578" 
d="M283 461q-90 0 -149.5 -60.5t-59.5 -150.5q0 -89 59.5 -149.5t149.5 -60.5q89 0 149 60.5t60 149.5q0 90 -60 150.5t-149 60.5zM489 0v99q-32 -49 -86 -77.5t-123 -28.5q-107 0 -181 74.5t-74 183.5t74 183t181 74q137 0 209 -103v95h49v-500h-49z" />
    <glyph glyph-name="b" unicode="b" horiz-adv-x="578" 
d="M298 -7q-139 0 -209 106v-98h-49v684h49v-283q32 49 86 77.5t123 28.5q107 0 181 -74.5t74 -183.5t-74 -183t-181 -74zM295 40q90 0 149.5 60.5t59.5 150.5q0 89 -59.5 149.5t-149.5 60.5q-89 0 -149 -60.5t-60 -149.5q0 -90 60 -150.5t149 -60.5z" />
    <glyph glyph-name="c" unicode="c" horiz-adv-x="527" 
d="M469 144l38 -26q-76 -125 -230 -125q-109 0 -180.5 74.5t-71.5 184.5q0 109 71.5 182.5t180.5 73.5q155 0 230 -126l-38 -26q-63 104 -192 104q-90 0 -146.5 -59.5t-56.5 -149.5t57 -150t147 -60q128 0 191 103z" />
    <glyph glyph-name="d" unicode="d" horiz-adv-x="578" 
d="M283 40q89 0 149 60.5t60 150.5q0 89 -60 149.5t-149 60.5q-90 0 -149.5 -60.5t-59.5 -149.5q0 -90 59.5 -150.5t149.5 -60.5zM489 1v98q-70 -106 -209 -106q-107 0 -181 74t-74 183t74 183.5t181 74.5q69 0 123 -28.5t86 -77.5v283h49v-684h-49z" />
    <glyph glyph-name="e" unicode="e" horiz-adv-x="559" 
d="M516 118q-76 -125 -231 -125q-113 0 -186.5 74t-73.5 184q0 109 73.5 183t182.5 74t181 -71.5t72 -170.5q0 -21 -2 -33h-455q6 -89 65 -140.5t143 -51.5q130 0 193 103zM281 461q-78 0 -136.5 -50.5t-67.5 -132.5h406q-7 83 -65 133t-137 50z" />
    <glyph glyph-name="f" unicode="f" horiz-adv-x="292" 
d="M271 638h-32q-40 0 -68 -24t-28 -81v-33h129v-44h-129v-456h-48v456h-75v44h75v33q0 79 42 115.5t101 36.5h33v-47z" />
    <glyph glyph-name="g" unicode="g" horiz-adv-x="572" 
d="M280 461q-88 0 -147 -59.5t-59 -146.5t59 -146t147 -59t147 58t59 147t-59 147.5t-147 58.5zM285 -186q-155 0 -231 125l38 26q63 -103 193 -103q93 0 145.5 45.5t52.5 131.5v70q-30 -46 -82 -76t-124 -30q-106 0 -179 73t-73 180q0 106 73 179t179 73q137 0 206 -105v97
h49v-461q0 -97 -66.5 -161t-180.5 -64z" />
    <glyph glyph-name="h" unicode="h" 
d="M89 685v-261q54 84 167 84q88 0 141 -55t53 -147v-306h-49v300q0 76 -39.5 118.5t-110.5 42.5q-74 0 -118 -47t-44 -128v-286h-49v685h49z" />
    <glyph glyph-name="i" unicode="i" horiz-adv-x="129" 
d="M89 632h-49v53h49v-53zM89 0h-49v500h49v-500z" />
    <glyph glyph-name="j" unicode="j" horiz-adv-x="129" 
d="M89 632h-49v53h49v-53zM89 500v-521q0 -78 -41 -115t-98 -37v47q38 0 64 24t26 81v521h49z" />
    <glyph glyph-name="k" unicode="k" horiz-adv-x="438" 
d="M89 256l240 244h61l-249 -251l262 -249h-68l-246 234v-234h-49v685h49v-429z" />
    <glyph glyph-name="l" unicode="l" horiz-adv-x="129" 
d="M89 0h-49v685h49v-685z" />
    <glyph glyph-name="m" unicode="m" horiz-adv-x="807" 
d="M89 500v-73q20 35 60 58t97 23t100 -26.5t64 -74.5q23 44 67 72.5t108 28.5q83 0 132.5 -53t49.5 -141v-314h-49v310q0 71 -36.5 111t-101.5 40q-69 0 -110.5 -42t-41.5 -115v-304h-49v310q0 71 -36.5 111t-101.5 40q-70 0 -111 -43.5t-41 -120.5v-297h-49v500h49z" />
    <glyph glyph-name="n" unicode="n" 
d="M256 508q88 0 141 -55t53 -147v-306h-49v300q0 76 -39.5 118.5t-110.5 42.5q-74 0 -118 -47t-44 -128v-286h-49v500h49v-76q54 84 167 84z" />
    <glyph glyph-name="o" unicode="o" horiz-adv-x="565" 
d="M283 508q109 0 183 -74t74 -183t-74 -183.5t-183 -74.5t-183.5 74.5t-74.5 183.5t74.5 183t183.5 74zM283 461q-90 0 -149.5 -60.5t-59.5 -150.5q0 -89 59.5 -149.5t149.5 -60.5q89 0 148.5 60.5t59.5 149.5q0 90 -59.5 150.5t-148.5 60.5z" />
    <glyph glyph-name="p" unicode="p" horiz-adv-x="578" 
d="M295 461q-89 0 -149 -60.5t-60 -150.5q0 -89 60 -149.5t149 -60.5q90 0 149.5 60.5t59.5 149.5q0 90 -59.5 150.5t-149.5 60.5zM298 -7q-69 0 -123 28.5t-86 77.5v-273h-49v674h49v-98q32 49 86 77.5t123 28.5q107 0 181 -74t74 -183t-74 -183.5t-181 -74.5z" />
    <glyph glyph-name="q" unicode="q" horiz-adv-x="578" 
d="M538 -174h-49v273q-32 -49 -86 -77.5t-123 -28.5q-107 0 -181 74.5t-74 183.5t74 183t181 74q69 0 123 -28.5t86 -77.5v98h49v-674zM283 461q-90 0 -149.5 -60.5t-59.5 -150.5q0 -89 59.5 -149.5t149.5 -60.5q89 0 149 60.5t60 149.5q0 90 -60 150.5t-149 60.5z" />
    <glyph glyph-name="r" unicode="r" horiz-adv-x="281" 
d="M256 508v-54q-73 0 -120 -50.5t-47 -131.5v-272h-49v500h49v-93q19 38 61.5 69.5t105.5 31.5z" />
    <glyph glyph-name="s" unicode="s" horiz-adv-x="448" 
d="M25 152h50q7 -54 47.5 -83.5t111.5 -29.5q68 0 104 26t36 72q0 21 -9.5 36.5t-20.5 24.5t-36 17t-39 11t-47 9q-34 6 -53 10t-46.5 14t-42 23t-25.5 35.5t-11 52.5q0 62 48 100t128 38q83 0 133 -40t55 -108h-49q-4 43 -39.5 72.5t-100.5 29.5q-59 0 -92 -24.5t-33 -65.5
q0 -30 20 -49t44 -26.5t66 -15.5q98 -18 129 -32q70 -33 70 -110q0 -65 -51 -106t-139 -41q-91 0 -145 41t-63 119z" />
    <glyph glyph-name="t" unicode="t" horiz-adv-x="307" 
d="M143 500h139v-44h-139v-304q0 -57 29.5 -81t70.5 -24h38v-47h-39q-59 0 -103 37t-44 115v304h-75v44h75v145h48v-145z" />
    <glyph glyph-name="u" unicode="u" 
d="M450 0h-49v76q-20 -35 -62.5 -59.5t-104.5 -24.5q-88 0 -141 55t-53 147v306h49v-300q0 -76 39.5 -118.5t110.5 -42.5q74 0 118 47t44 128v286h49v-500z" />
    <glyph glyph-name="v" unicode="v" horiz-adv-x="474" 
d="M268 0h-62l-191 500h56l168 -445l167 445h53z" />
    <glyph glyph-name="w" unicode="w" horiz-adv-x="749" 
d="M507 0l-133 434l-149 -434h-62l-143 500h55l121 -439l149 439h62l134 -440l135 440h53l-160 -500h-62z" />
    <glyph glyph-name="x" unicode="x" horiz-adv-x="479" 
d="M272 259l192 -259h-62l-163 222l-164 -222h-60l191 258l-176 242h62l148 -205l149 205h61z" />
    <glyph glyph-name="y" unicode="y" horiz-adv-x="473" 
d="M458 500l-183 -488q-35 -98 -86 -142t-128 -44h-19v47h18q57 0 95 32t67 107l-207 488h55l180 -424l155 424h53z" />
    <glyph glyph-name="z" unicode="z" horiz-adv-x="471" 
d="M425 456l-331 -412h347v-44h-411v44l332 412h-319v44h382v-44z" />
    <glyph glyph-name="braceleft" unicode="{" horiz-adv-x="265" 
d="M245 643h-30q-61 0 -93 -26t-32 -73q0 -43 30.5 -108.5t30.5 -103.5q0 -48 -37 -69q37 -23 37 -69q0 -38 -30.5 -103.5t-30.5 -108.5q0 -47 32 -73t93 -26h30v-42h-30q-81 0 -128 39t-47 104q0 47 33.5 115.5t33.5 98.5q0 46 -56 46h-21v37h21q56 0 56 47q0 30 -33.5 98
t-33.5 116q0 66 47 105t128 39h30v-43z" />
    <glyph glyph-name="bar" unicode="|" horiz-adv-x="132" 
d="M90 -143h-48v828h48v-828z" />
    <glyph glyph-name="braceright" unicode="}" horiz-adv-x="265" 
d="M20 -116h30q61 0 93 26t32 73q0 43 -30.5 108.5t-30.5 103.5q0 48 37 69q-37 23 -37 69q0 38 30.5 103.5t30.5 108.5q0 47 -32 73t-93 26h-30v42h30q81 0 128 -39t47 -104q0 -47 -33.5 -115.5t-33.5 -98.5q0 -46 56 -46h21v-37h-21q-56 0 -56 -47q0 -29 33.5 -98
t33.5 -116q0 -66 -47 -105t-128 -39h-30v43z" />
    <glyph glyph-name="asciitilde" unicode="~" horiz-adv-x="440" 
d="M136 333q37 0 91 -22t85 -22t57.5 15.5t40.5 33.5v-50q-13 -19 -41 -35.5t-64 -16.5q-37 0 -91 22t-85 22t-57.5 -15.5t-40.5 -33.5v50q13 19 41 35.5t64 16.5z" />
    <glyph glyph-name="exclamdown" unicode="&#xa1;" horiz-adv-x="138" 
d="M45 685h48v-58h-48v58zM45 0v512h48v-512h-48z" />
    <glyph glyph-name="cent" unicode="&#xa2;" horiz-adv-x="558" 
d="M277 46v454q-88 -9 -142 -72.5t-54 -153.5q0 -91 54 -154.5t142 -73.5zM325 500v-454q122 7 186 111l42 -28q-77 -128 -228 -136v-85h-48v85q-110 9 -180 88.5t-70 193.5q0 112 70 190.5t180 87.5v91h48v-91q152 -8 228 -137l-42 -28q-64 105 -186 112z" />
    <glyph glyph-name="sterling" unicode="&#xa3;" horiz-adv-x="558" 
d="M194 293v-187q37 -5 103 -35t107 -30q22 0 43 6t35.5 14.5t25.5 17.5t16 15l5 6v-52q-2 -2 -5.5 -6.5t-16 -14.5t-26.5 -18t-37 -14.5t-48 -6.5q-49 0 -120.5 32.5t-111.5 32.5q-34 0 -65 -14t-45 -28l-14 -14v52q4 5 12 12.5t34 22.5t54 20v189h-99v50h99v145
q0 87 55.5 146t152.5 59q116 0 182 -90l-43 -30q-50 69 -140 69q-71 0 -112 -43.5t-41 -113.5v-142h182v-50h-182z" />
    <glyph glyph-name="yen" unicode="&#xa5;" horiz-adv-x="488" 
d="M284 355h164v-48h-174v-89h174v-48h-174v-170h-53v170h-180v48h180v89h-180v48h169l-193 330h61l169 -302l165 302h59z" />
    <glyph glyph-name="brokenbar" unicode="&#xa6;" horiz-adv-x="132" 
d="M90 361h-48v324h48v-324zM90 -143h-48v323h48v-323z" />
    <glyph glyph-name="section" unicode="&#xa7;" horiz-adv-x="482" 
d="M79 303q0 -26 15 -43.5t43 -27.5t56.5 -15.5t67 -12.5t63.5 -15q79 20 79 88q0 26 -15 43.5t-43 27.5t-56.5 15.5t-67 12.5t-63.5 15q-79 -20 -79 -88zM430 495h-50q-4 40 -40 67.5t-102 27.5q-60 0 -93.5 -22.5t-33.5 -61.5q0 -38 35 -58t85.5 -28t100.5 -18.5t85 -40.5
t35 -82q0 -79 -83 -110q53 -31 53 -94q0 -58 -49 -94t-130 -36q-84 0 -135 38t-56 102h50q4 -40 40 -67.5t102 -27.5q60 0 93.5 22.5t33.5 61.5q0 38 -35 58t-85.5 28t-100.5 18.5t-85 40.5t-35 82q0 79 83 110q-53 31 -53 94q0 58 49 94t130 36q84 0 135 -38t56 -102z" />
    <glyph glyph-name="dieresis" unicode="&#xa8;" horiz-adv-x="400" 
d="M295 633h-48v52h48v-52zM153 633h-48v52h48v-52z" />
    <glyph glyph-name="copyright" unicode="&#xa9;" horiz-adv-x="627" 
d="M314 694q125 0 209 -84t84 -209t-84 -208.5t-209 -83.5t-209.5 83.5t-84.5 208.5t84.5 209t209.5 84zM314 659q-110 0 -183.5 -74t-73.5 -184t73.5 -183.5t183.5 -73.5t183 73.5t73 183.5t-73 184t-183 74zM414 342l38 -23q-47 -72 -134 -72q-68 0 -112 44t-44 110
t44 110.5t112 44.5q87 0 134 -72l-37 -24q-33 54 -97 54q-49 0 -80 -31.5t-31 -81.5q0 -49 31 -80.5t80 -31.5q63 0 96 53z" />
    <glyph glyph-name="ordfeminine" unicode="&#xaa;" horiz-adv-x="398" 
d="M199 647q-52 0 -86.5 -35t-34.5 -89q0 -53 34.5 -87.5t86.5 -34.5q53 0 88 34.5t35 87.5q0 54 -35 89t-88 35zM319 362v46q-47 -52 -120 -52q-71 0 -120 48.5t-49 118.5q0 72 48.5 120t120.5 48q73 0 120 -52v46h49v-323h-49z" />
    <glyph glyph-name="guillemotleft" unicode="&#xab;" horiz-adv-x="383" 
d="M220 286l123 -204h-51l-123 204l123 204h51zM91 286l123 -204h-51l-123 204l123 204h51z" />
    <glyph glyph-name="registered" unicode="&#xae;" horiz-adv-x="627" 
d="M314 694q125 0 209 -84t84 -209t-84 -208.5t-209 -83.5t-209.5 83.5t-84.5 208.5t84.5 209t209.5 84zM314 659q-110 0 -183.5 -74t-73.5 -184t73.5 -183.5t183.5 -73.5t183 73.5t73 183.5t-73 184t-183 74zM401 543v-49q-54 0 -78 -24.5t-24 -77.5v-152h-43v300h43v-46
q35 48 102 49z" />
    <glyph glyph-name="macron" unicode="&#xaf;" horiz-adv-x="400" 
d="M326 617h-252v44h252v-44z" />
    <glyph glyph-name="degree" unicode="&#xb0;" horiz-adv-x="362" 
d="M181 691q59 0 100 -41.5t41 -99.5t-41 -99.5t-100 -41.5t-100 41.5t-41 99.5t41 99.5t100 41.5zM181 646q-39 0 -66 -27.5t-27 -68.5t27 -68.5t66 -27.5t66 27.5t27 68.5t-27 68.5t-66 27.5z" />
    <glyph glyph-name="plusminus" unicode="&#xb1;" horiz-adv-x="440" 
d="M242 380h168v-46h-168v-173h-48v173h-164v46h164v167h48v-167zM410 0h-380v46h380v-46z" />
    <glyph glyph-name="acute" unicode="&#xb4;" horiz-adv-x="400" 
d="M301 649l-192 -59v45l192 64v-50z" />
    <glyph glyph-name="paragraph" unicode="&#xb6;" horiz-adv-x="426" 
d="M391 0h-44v685h44v-685zM290 0h-46v247q-95 0 -159.5 61.5t-64.5 158.5q0 94 64.5 156t159.5 62h46v-685z" />
    <glyph glyph-name="periodcentered" unicode="&#xb7;" horiz-adv-x="130" 
d="M90 256h-50v58h50v-58z" />
    <glyph glyph-name="cedilla" unicode="&#xb8;" horiz-adv-x="400" 
d="M227 9l-31 -57q36 0 60.5 -22t24.5 -57t-24.5 -58.5t-60.5 -23.5q-37 0 -61.5 20.5t-28.5 57.5h45q6 -37 45 -37q19 0 31 11.5t12 29.5q0 17 -12.5 28t-33.5 11h-66l53 97h47z" />
    <glyph glyph-name="ordmasculine" unicode="&#xba;" horiz-adv-x="400" 
d="M199 691q73 0 122 -48t49 -120q0 -71 -49 -119t-122 -48q-71 0 -120 48.5t-49 118.5q0 72 48.5 120t120.5 48zM199 646q-52 0 -86 -35t-34 -88q0 -52 34 -86.5t86 -34.5q53 0 87.5 34.5t34.5 86.5q0 53 -34.5 88t-87.5 35z" />
    <glyph glyph-name="guillemotright" unicode="&#xbb;" horiz-adv-x="383" 
d="M163 286l-123 204h51l123 -204l-123 -204h-51zM292 286l-123 204h51l123 -204l-123 -204h-51z" />
    <glyph glyph-name="onequarter" unicode="&#xbc;" horiz-adv-x="599" 
d="M127 0h-53l303 685h53zM111 312h-45v332h-46v41h91v-373zM528 126h51v-42h-51v-84h-45v84h-188v36l191 255h42v-249zM352 126h131v173z" />
    <glyph glyph-name="onehalf" unicode="&#xbd;" horiz-adv-x="636" 
d="M127 0h-53l303 685h53zM111 312h-45v332h-46v41h91v-373zM385 276l-40 21q51 80 140 80q56 0 92 -32t36 -79q0 -38 -19.5 -66t-56.5 -59l-118 -100h197v-41h-266v36l157 135q30 26 43.5 45.5t13.5 49.5t-22 49.5t-57 19.5q-63 0 -100 -59z" />
    <glyph glyph-name="threequarters" unicode="&#xbe;" horiz-adv-x="744" 
d="M272 0h-53l303 685h53zM286 650l-103 -92q55 -6 87 -38.5t32 -82.5q0 -56 -39 -92.5t-102 -36.5q-91 0 -141 81l38 22q39 -60 103 -60q44 0 69.5 24t25.5 61q0 39 -24 60t-69 21q-28 0 -57 -18l-22 29l132 117h-172v41h242v-36zM673 126h51v-42h-51v-84h-45v84h-188v36
l191 255h42v-249zM497 126h131v173z" />
    <glyph glyph-name="questiondown" unicode="&#xbf;" horiz-adv-x="443" 
d="M224 685h48v-58h-48v58zM386 173h52q-10 -79 -67 -129.5t-147 -50.5q-92 0 -148 55t-56 142q0 93 59.5 144t144.5 59v119h48v-161q-93 0 -148.5 -39.5t-55.5 -121.5q0 -67 42.5 -109t113.5 -42q68 0 110 37t52 97z" />
    <glyph glyph-name="Agrave" unicode="&#xc0;" horiz-adv-x="616" 
d="M402 820v-45l-192 59v50zM458 231l-151 385l-152 -385h303zM549 0l-71 181h-343l-71 -181h-54l271 685h53l272 -685h-57z" />
    <glyph glyph-name="Aacute" unicode="&#xc1;" horiz-adv-x="616" 
d="M401 834l-192 -59v45l192 64v-50zM458 231l-151 385l-152 -385h303zM549 0l-71 181h-343l-71 -181h-54l271 685h53l272 -685h-57z" />
    <glyph glyph-name="Acircumflex" unicode="&#xc2;" horiz-adv-x="616" 
d="M434 800v-50l-126 77l-126 -77v50l126 80zM458 231l-151 385l-152 -385h303zM549 0l-71 181h-343l-71 -181h-54l271 685h53l272 -685h-57z" />
    <glyph glyph-name="Atilde" unicode="&#xc3;" horiz-adv-x="616" 
d="M246 849q28 0 68 -18.5t62 -18.5q41 0 72 38v-42q-31 -44 -78 -44q-28 0 -68.5 19t-61.5 19q-41 0 -72 -38v42q30 43 78 43zM458 231l-151 385l-152 -385h303zM549 0l-71 181h-343l-71 -181h-54l271 685h53l272 -685h-57z" />
    <glyph glyph-name="Adieresis" unicode="&#xc4;" horiz-adv-x="616" 
d="M403 818h-48v52h48v-52zM261 818h-48v52h48v-52zM458 231l-151 385l-152 -385h303zM549 0l-71 181h-343l-71 -181h-54l271 685h53l272 -685h-57z" />
    <glyph glyph-name="Aring" unicode="&#xc5;" horiz-adv-x="616" 
d="M307 915q37 0 62 -24.5t25 -60.5t-25 -61t-62 -25t-62 25t-25 61t25 60.5t62 24.5zM307 879q-22 0 -35.5 -14t-13.5 -35t14 -35.5t35 -14.5t35 14.5t14 35.5t-13.5 35t-35.5 14zM458 231l-151 385l-152 -385h303zM549 0l-71 181h-343l-71 -181h-54l271 685h53l272 -685
h-57z" />
    <glyph glyph-name="AE" unicode="&#xc6;" horiz-adv-x="839" 
d="M458 231l-151 385l-152 -385h303zM549 0l-71 181h-343l-71 -181h-54l271 685h521v-49h-449l106 -265h318v-49h-299l109 -273h235v-49h-273z" />
    <glyph glyph-name="Ccedilla" unicode="&#xc7;" horiz-adv-x="708" 
d="M386 -209q-37 0 -61.5 20.5t-28.5 57.5h45q6 -37 45 -37q19 0 31 11.5t12 29.5q0 17 -12.5 28t-33.5 11h-66l44 81q-140 8 -235.5 107t-95.5 243q0 150 103 250t251 100q200 0 298 -169l-43 -28q-87 146 -255 146q-127 0 -214 -85.5t-87 -213.5t87 -214.5t214 -86.5
q168 0 255 145l41 -27q-92 -157 -272 -167l-22 -41q36 0 60.5 -22t24.5 -57t-24.5 -58.5t-60.5 -23.5z" />
    <glyph glyph-name="Egrave" unicode="&#xc8;" horiz-adv-x="498" 
d="M361 820v-45l-192 59v50zM50 0v685h411v-49h-358v-265h333v-49h-333v-273h378v-49h-431z" />
    <glyph glyph-name="Eacute" unicode="&#xc9;" horiz-adv-x="498" 
d="M360 834l-192 -59v45l192 64v-50zM50 0v685h411v-49h-358v-265h333v-49h-333v-273h378v-49h-431z" />
    <glyph glyph-name="Ecircumflex" unicode="&#xca;" horiz-adv-x="498" 
d="M393 800v-50l-126 77l-126 -77v50l126 80zM50 0v685h411v-49h-358v-265h333v-49h-333v-273h378v-49h-431z" />
    <glyph glyph-name="Edieresis" unicode="&#xcb;" horiz-adv-x="498" 
d="M362 818h-48v52h48v-52zM220 818h-48v52h48v-52zM50 0v685h411v-49h-358v-265h333v-49h-333v-273h378v-49h-431z" />
    <glyph glyph-name="Igrave" unicode="&#xcc;" horiz-adv-x="153" 
d="M171 820v-45l-192 59v50zM103 0h-53v685h53v-685z" />
    <glyph glyph-name="Iacute" unicode="&#xcd;" horiz-adv-x="153" 
d="M170 834l-192 -59v45l192 64v-50zM103 0h-53v685h53v-685z" />
    <glyph glyph-name="Icircumflex" unicode="&#xce;" horiz-adv-x="153" 
d="M203 800v-50l-126 77l-126 -77v50l126 80zM103 0h-53v685h53v-685z" />
    <glyph glyph-name="Idieresis" unicode="&#xcf;" horiz-adv-x="153" 
d="M172 818h-48v52h48v-52zM30 818h-48v52h48v-52zM103 0h-53v685h53v-685z" />
    <glyph glyph-name="Eth" unicode="&#xd0;" horiz-adv-x="648" 
d="M271 0h-211v313h-55v46h55v326h211q145 0 246 -97.5t101 -244.5t-101 -245t-246 -98zM113 49h156q125 0 210.5 84t85.5 210t-85.5 209.5t-210.5 83.5h-156v-277h171v-46h-171v-264z" />
    <glyph glyph-name="Ntilde" unicode="&#xd1;" horiz-adv-x="601" 
d="M240 849q28 0 68 -18.5t62 -18.5q41 0 72 38v-42q-31 -44 -78 -44q-28 0 -68.5 19t-61.5 19q-41 0 -72 -38v42q30 43 78 43zM495 0l-394 603v-603h-51v685h56l394 -603v603h51v-685h-56z" />
    <glyph glyph-name="Ograve" unicode="&#xd2;" horiz-adv-x="758" 
d="M473 820v-45l-192 59v50zM379 -8q-146 0 -247.5 100t-101.5 251q0 150 101.5 250t247.5 100t247.5 -100t101.5 -250q0 -151 -101.5 -251t-247.5 -100zM379 42q125 0 210.5 86.5t85.5 214.5t-85.5 213.5t-210.5 85.5t-210.5 -85.5t-85.5 -213.5t85.5 -214.5t210.5 -86.5z
" />
    <glyph glyph-name="Oacute" unicode="&#xd3;" horiz-adv-x="758" 
d="M472 834l-192 -59v45l192 64v-50zM379 -8q-146 0 -247.5 100t-101.5 251q0 150 101.5 250t247.5 100t247.5 -100t101.5 -250q0 -151 -101.5 -251t-247.5 -100zM379 42q125 0 210.5 86.5t85.5 214.5t-85.5 213.5t-210.5 85.5t-210.5 -85.5t-85.5 -213.5t85.5 -214.5
t210.5 -86.5z" />
    <glyph glyph-name="Ocircumflex" unicode="&#xd4;" horiz-adv-x="758" 
d="M505 800v-50l-126 77l-126 -77v50l126 80zM379 -8q-146 0 -247.5 100t-101.5 251q0 150 101.5 250t247.5 100t247.5 -100t101.5 -250q0 -151 -101.5 -251t-247.5 -100zM379 42q125 0 210.5 86.5t85.5 214.5t-85.5 213.5t-210.5 85.5t-210.5 -85.5t-85.5 -213.5
t85.5 -214.5t210.5 -86.5z" />
    <glyph glyph-name="Otilde" unicode="&#xd5;" horiz-adv-x="758" 
d="M317 849q28 0 68 -18.5t62 -18.5q41 0 72 38v-42q-31 -44 -78 -44q-28 0 -68.5 19t-61.5 19q-41 0 -72 -38v42q30 43 78 43zM379 -8q-146 0 -247.5 100t-101.5 251q0 150 101.5 250t247.5 100t247.5 -100t101.5 -250q0 -151 -101.5 -251t-247.5 -100zM379 42
q125 0 210.5 86.5t85.5 214.5t-85.5 213.5t-210.5 85.5t-210.5 -85.5t-85.5 -213.5t85.5 -214.5t210.5 -86.5z" />
    <glyph glyph-name="Odieresis" unicode="&#xd6;" horiz-adv-x="758" 
d="M474 818h-48v52h48v-52zM332 818h-48v52h48v-52zM379 -8q-146 0 -247.5 100t-101.5 251q0 150 101.5 250t247.5 100t247.5 -100t101.5 -250q0 -151 -101.5 -251t-247.5 -100zM379 42q125 0 210.5 86.5t85.5 214.5t-85.5 213.5t-210.5 85.5t-210.5 -85.5t-85.5 -213.5
t85.5 -214.5t210.5 -86.5z" />
    <glyph glyph-name="multiply" unicode="&#xd7;" horiz-adv-x="440" 
d="M387 422l-134 -136l134 -136l-31 -33l-135 136l-136 -136l-32 32l136 137l-135 135l31 33l136 -136l133 136z" />
    <glyph glyph-name="Oslash" unicode="&#xd8;" horiz-adv-x="758" 
d="M83 343q0 -74 30.5 -137t84.5 -104l336 498q-70 42 -155 42q-125 0 -210.5 -85.5t-85.5 -213.5zM379 42q125 0 210.5 86.5t85.5 214.5q0 138 -99 226l-334 -495q66 -32 137 -32zM379 -8q-90 0 -165 40l-49 -72h-63l67 100q-65 48 -102 121.5t-37 161.5q0 150 101.5 250
t247.5 100q100 0 183 -50l55 81h64l-75 -112q57 -48 89.5 -117.5t32.5 -151.5q0 -151 -101.5 -251t-247.5 -100z" />
    <glyph glyph-name="Ugrave" unicode="&#xd9;" horiz-adv-x="628" 
d="M408 820v-45l-192 59v50zM314 -10q-120 0 -191.5 74t-71.5 200v421h53v-416q0 -109 55.5 -169t154.5 -60t154.5 60t55.5 169v416h53v-421q0 -126 -71.5 -200t-191.5 -74z" />
    <glyph glyph-name="Uacute" unicode="&#xda;" horiz-adv-x="628" 
d="M407 834l-192 -59v45l192 64v-50zM314 -10q-120 0 -191.5 74t-71.5 200v421h53v-416q0 -109 55.5 -169t154.5 -60t154.5 60t55.5 169v416h53v-421q0 -126 -71.5 -200t-191.5 -74z" />
    <glyph glyph-name="Ucircumflex" unicode="&#xdb;" horiz-adv-x="628" 
d="M440 800v-50l-126 77l-126 -77v50l126 80zM314 -10q-120 0 -191.5 74t-71.5 200v421h53v-416q0 -109 55.5 -169t154.5 -60t154.5 60t55.5 169v416h53v-421q0 -126 -71.5 -200t-191.5 -74z" />
    <glyph glyph-name="Udieresis" unicode="&#xdc;" horiz-adv-x="628" 
d="M409 818h-48v52h48v-52zM267 818h-48v52h48v-52zM314 -10q-120 0 -191.5 74t-71.5 200v421h53v-416q0 -109 55.5 -169t154.5 -60t154.5 60t55.5 169v416h53v-421q0 -126 -71.5 -200t-191.5 -74z" />
    <glyph glyph-name="Yacute" unicode="&#xdd;" horiz-adv-x="583" 
d="M385 834l-192 -59v45l192 64v-50zM318 0h-53v305l-245 380h63l209 -332l209 332h62l-245 -378v-307z" />
    <glyph glyph-name="Thorn" unicode="&#xde;" horiz-adv-x="565" 
d="M275 119h-172v-119h-53v685h53v-121h183q103 0 169 -64t66 -158q0 -98 -66.5 -160.5t-179.5 -62.5zM271 515h-168v-347h178q86 0 136.5 49.5t50.5 125.5q0 74 -52 123t-145 49z" />
    <glyph glyph-name="germandbls" unicode="&#xdf;" horiz-adv-x="463" 
d="M40 0v501q0 78 52 131t128 53t126 -48t50 -123q0 -49 -24.5 -88t-62.5 -61q56 -20 92.5 -64.5t36.5 -109.5q0 -83 -58 -137t-145 -54h-54v44h54q67 0 110.5 41t43.5 106t-43.5 105t-110.5 39h-54v45h36q53 0 92.5 40.5t39.5 93.5q0 56 -37 91t-92 35q-56 0 -94 -39
t-38 -100v-501h-48z" />
    <glyph glyph-name="agrave" unicode="&#xe0;" horiz-adv-x="578" 
d="M383 635v-45l-192 59v50zM283 461q-90 0 -149.5 -60.5t-59.5 -150.5q0 -89 59.5 -149.5t149.5 -60.5q89 0 149 60.5t60 149.5q0 90 -60 150.5t-149 60.5zM489 0v99q-32 -49 -86 -77.5t-123 -28.5q-107 0 -181 74.5t-74 183.5t74 183t181 74q137 0 209 -103v95h49v-500
h-49z" />
    <glyph glyph-name="aacute" unicode="&#xe1;" horiz-adv-x="578" 
d="M382 649l-192 -59v45l192 64v-50zM283 461q-90 0 -149.5 -60.5t-59.5 -150.5q0 -89 59.5 -149.5t149.5 -60.5q89 0 149 60.5t60 149.5q0 90 -60 150.5t-149 60.5zM489 0v99q-32 -49 -86 -77.5t-123 -28.5q-107 0 -181 74.5t-74 183.5t74 183t181 74q137 0 209 -103v95h49
v-500h-49z" />
    <glyph glyph-name="acircumflex" unicode="&#xe2;" horiz-adv-x="578" 
d="M415 615v-50l-126 77l-126 -77v50l126 80zM283 461q-90 0 -149.5 -60.5t-59.5 -150.5q0 -89 59.5 -149.5t149.5 -60.5q89 0 149 60.5t60 149.5q0 90 -60 150.5t-149 60.5zM489 0v99q-32 -49 -86 -77.5t-123 -28.5q-107 0 -181 74.5t-74 183.5t74 183t181 74
q137 0 209 -103v95h49v-500h-49z" />
    <glyph glyph-name="atilde" unicode="&#xe3;" horiz-adv-x="578" 
d="M227 664q28 0 68 -18.5t62 -18.5q41 0 72 38v-42q-31 -44 -78 -44q-28 0 -68.5 19t-61.5 19q-41 0 -72 -38v42q30 43 78 43zM283 461q-90 0 -149.5 -60.5t-59.5 -150.5q0 -89 59.5 -149.5t149.5 -60.5q89 0 149 60.5t60 149.5q0 90 -60 150.5t-149 60.5zM489 0v99
q-32 -49 -86 -77.5t-123 -28.5q-107 0 -181 74.5t-74 183.5t74 183t181 74q137 0 209 -103v95h49v-500h-49z" />
    <glyph glyph-name="adieresis" unicode="&#xe4;" horiz-adv-x="578" 
d="M384 633h-48v52h48v-52zM242 633h-48v52h48v-52zM283 461q-90 0 -149.5 -60.5t-59.5 -150.5q0 -89 59.5 -149.5t149.5 -60.5q89 0 149 60.5t60 149.5q0 90 -60 150.5t-149 60.5zM489 0v99q-32 -49 -86 -77.5t-123 -28.5q-107 0 -181 74.5t-74 183.5t74 183t181 74
q137 0 209 -103v95h49v-500h-49z" />
    <glyph glyph-name="aring" unicode="&#xe5;" horiz-adv-x="578" 
d="M288 730q37 0 62 -24.5t25 -60.5t-25 -61t-62 -25t-62 25t-25 61t25 60.5t62 24.5zM288 694q-22 0 -35.5 -14t-13.5 -35t14 -35.5t35 -14.5t35 14.5t14 35.5t-13.5 35t-35.5 14zM283 461q-90 0 -149.5 -60.5t-59.5 -150.5q0 -89 59.5 -149.5t149.5 -60.5q89 0 149 60.5
t60 149.5q0 90 -60 150.5t-149 60.5zM489 0v99q-32 -49 -86 -77.5t-123 -28.5q-107 0 -181 74.5t-74 183.5t74 183t181 74q137 0 209 -103v95h49v-500h-49z" />
    <glyph glyph-name="ae" unicode="&#xe6;" horiz-adv-x="1022" 
d="M538 500v-97q34 49 87.5 77t118.5 28q109 0 181 -71.5t72 -170.5l-2 -33h-455q5 -84 62.5 -138t145.5 -54q130 0 193 103l38 -26q-76 -125 -231 -125q-138 0 -210 104v-97h-49v100q-2 -4 -7 -11.5t-23.5 -26t-40 -32.5t-59 -25.5t-79.5 -11.5q-107 0 -181 74.5t-74 183.5
t74 183t181 74q42 0 79 -10.5t60 -26t39.5 -31t23.5 -26.5l7 -10v96h49zM283 40q89 0 149 60.5t60 149.5q0 90 -60 150.5t-149 60.5q-90 0 -149.5 -60.5t-59.5 -150.5q0 -89 59.5 -149.5t149.5 -60.5zM541 278h405q-6 78 -62.5 130.5t-139.5 52.5q-82 0 -138 -51.5
t-65 -131.5z" />
    <glyph glyph-name="ccedilla" unicode="&#xe7;" horiz-adv-x="527" 
d="M282 -209q-37 0 -61.5 20.5t-28.5 57.5h45q6 -37 45 -37q19 0 31 11.5t12 29.5q0 17 -12.5 28t-33.5 11h-66l45 82q-102 7 -167.5 80t-65.5 178q0 109 71.5 182.5t180.5 73.5q155 0 230 -126l-38 -26q-63 104 -192 104q-90 0 -146.5 -59.5t-56.5 -149.5t57 -150t147 -60
q128 0 191 103l38 -26q-69 -113 -202 -124l-23 -42q36 0 60.5 -22t24.5 -57t-24.5 -58.5t-60.5 -23.5z" />
    <glyph glyph-name="egrave" unicode="&#xe8;" horiz-adv-x="559" 
d="M374 635v-45l-192 59v50zM516 118q-76 -125 -231 -125q-113 0 -186.5 74t-73.5 184q0 109 73.5 183t182.5 74t181 -71.5t72 -170.5q0 -21 -2 -33h-455q6 -89 65 -140.5t143 -51.5q130 0 193 103zM281 461q-78 0 -136.5 -50.5t-67.5 -132.5h406q-7 83 -65 133t-137 50z
" />
    <glyph glyph-name="eacute" unicode="&#xe9;" horiz-adv-x="559" 
d="M373 649l-192 -59v45l192 64v-50zM516 118q-76 -125 -231 -125q-113 0 -186.5 74t-73.5 184q0 109 73.5 183t182.5 74t181 -71.5t72 -170.5q0 -21 -2 -33h-455q6 -89 65 -140.5t143 -51.5q130 0 193 103zM281 461q-78 0 -136.5 -50.5t-67.5 -132.5h406q-7 83 -65 133
t-137 50z" />
    <glyph glyph-name="ecircumflex" unicode="&#xea;" horiz-adv-x="559" 
d="M406 615v-50l-126 77l-126 -77v50l126 80zM516 118q-76 -125 -231 -125q-113 0 -186.5 74t-73.5 184q0 109 73.5 183t182.5 74t181 -71.5t72 -170.5q0 -21 -2 -33h-455q6 -89 65 -140.5t143 -51.5q130 0 193 103zM281 461q-78 0 -136.5 -50.5t-67.5 -132.5h406
q-7 83 -65 133t-137 50z" />
    <glyph glyph-name="edieresis" unicode="&#xeb;" horiz-adv-x="559" 
d="M375 633h-48v52h48v-52zM233 633h-48v52h48v-52zM516 118q-76 -125 -231 -125q-113 0 -186.5 74t-73.5 184q0 109 73.5 183t182.5 74t181 -71.5t72 -170.5q0 -21 -2 -33h-455q6 -89 65 -140.5t143 -51.5q130 0 193 103zM281 461q-78 0 -136.5 -50.5t-67.5 -132.5h406
q-7 83 -65 133t-137 50z" />
    <glyph glyph-name="igrave" unicode="&#xec;" horiz-adv-x="129" 
d="M159 635v-45l-192 59v50zM89 0h-49v500h49v-500z" />
    <glyph glyph-name="iacute" unicode="&#xed;" horiz-adv-x="129" 
d="M158 649l-192 -59v45l192 64v-50zM89 0h-49v500h49v-500z" />
    <glyph glyph-name="icircumflex" unicode="&#xee;" horiz-adv-x="129" 
d="M191 615v-50l-126 77l-126 -77v50l126 80zM89 0h-49v500h49v-500z" />
    <glyph glyph-name="idieresis" unicode="&#xef;" horiz-adv-x="129" 
d="M160 633h-48v52h48v-52zM18 633h-48v52h48v-52zM89 0h-49v500h49v-500z" />
    <glyph glyph-name="eth" unicode="&#xf0;" horiz-adv-x="560" 
d="M374 584l120 -195q41 -66 41 -141q0 -107 -74 -181.5t-181 -74.5t-181 74.5t-74 181.5t74 181.5t181 74.5q28 0 54 -6t38 -12l12 -6l-57 93l-106 -24v43l83 19l-46 74h54l39 -63l119 27v-43zM280 38q87 0 147 61t60 149t-60.5 149t-146.5 61q-87 0 -147 -61t-60 -149
t60 -149t147 -61z" />
    <glyph glyph-name="ntilde" unicode="&#xf1;" 
d="M183 664q28 0 68 -18.5t62 -18.5q41 0 72 38v-42q-31 -44 -78 -44q-28 0 -68.5 19t-61.5 19q-41 0 -72 -38v42q30 43 78 43zM256 508q88 0 141 -55t53 -147v-306h-49v300q0 76 -39.5 118.5t-110.5 42.5q-74 0 -118 -47t-44 -128v-286h-49v500h49v-76q54 84 167 84z" />
    <glyph glyph-name="ograve" unicode="&#xf2;" horiz-adv-x="565" 
d="M377 635v-45l-192 59v50zM283 508q109 0 183 -74t74 -183t-74 -183.5t-183 -74.5t-183.5 74.5t-74.5 183.5t74.5 183t183.5 74zM283 461q-90 0 -149.5 -60.5t-59.5 -150.5q0 -89 59.5 -149.5t149.5 -60.5q89 0 148.5 60.5t59.5 149.5q0 90 -59.5 150.5t-148.5 60.5z" />
    <glyph glyph-name="oacute" unicode="&#xf3;" horiz-adv-x="565" 
d="M376 649l-192 -59v45l192 64v-50zM283 508q109 0 183 -74t74 -183t-74 -183.5t-183 -74.5t-183.5 74.5t-74.5 183.5t74.5 183t183.5 74zM283 461q-90 0 -149.5 -60.5t-59.5 -150.5q0 -89 59.5 -149.5t149.5 -60.5q89 0 148.5 60.5t59.5 149.5q0 90 -59.5 150.5
t-148.5 60.5z" />
    <glyph glyph-name="ocircumflex" unicode="&#xf4;" horiz-adv-x="565" 
d="M409 615v-50l-126 77l-126 -77v50l126 80zM283 508q109 0 183 -74t74 -183t-74 -183.5t-183 -74.5t-183.5 74.5t-74.5 183.5t74.5 183t183.5 74zM283 461q-90 0 -149.5 -60.5t-59.5 -150.5q0 -89 59.5 -149.5t149.5 -60.5q89 0 148.5 60.5t59.5 149.5q0 90 -59.5 150.5
t-148.5 60.5z" />
    <glyph glyph-name="otilde" unicode="&#xf5;" horiz-adv-x="565" 
d="M221 664q28 0 68 -18.5t62 -18.5q41 0 72 38v-42q-31 -44 -78 -44q-28 0 -68.5 19t-61.5 19q-41 0 -72 -38v42q30 43 78 43zM283 508q109 0 183 -74t74 -183t-74 -183.5t-183 -74.5t-183.5 74.5t-74.5 183.5t74.5 183t183.5 74zM283 461q-90 0 -149.5 -60.5t-59.5 -150.5
q0 -89 59.5 -149.5t149.5 -60.5q89 0 148.5 60.5t59.5 149.5q0 90 -59.5 150.5t-148.5 60.5z" />
    <glyph glyph-name="odieresis" unicode="&#xf6;" horiz-adv-x="565" 
d="M378 633h-48v52h48v-52zM236 633h-48v52h48v-52zM283 508q109 0 183 -74t74 -183t-74 -183.5t-183 -74.5t-183.5 74.5t-74.5 183.5t74.5 183t183.5 74zM283 461q-90 0 -149.5 -60.5t-59.5 -150.5q0 -89 59.5 -149.5t149.5 -60.5q89 0 148.5 60.5t59.5 149.5
q0 90 -59.5 150.5t-148.5 60.5z" />
    <glyph glyph-name="divide" unicode="&#xf7;" horiz-adv-x="440" 
d="M242 418h-48v58h48v-58zM410 263h-380v46h380v-46zM242 90h-48v58h48v-58z" />
    <glyph glyph-name="oslash" unicode="&#xf8;" horiz-adv-x="565" 
d="M151 85l236 349q-48 27 -104 27q-90 0 -149.5 -60.5t-59.5 -150.5q0 -104 77 -165zM425 407l-234 -347q42 -20 92 -20q89 0 148.5 60.5t59.5 149.5q0 94 -66 157zM516 541l-64 -94q88 -77 88 -196q0 -109 -74 -183.5t-183 -74.5q-65 0 -119 28l-41 -61h-57l58 86
q-99 75 -99 205q0 109 74.5 183t183.5 74q72 0 131 -34l45 67h57z" />
    <glyph glyph-name="ugrave" unicode="&#xf9;" 
d="M339 635v-45l-192 59v50zM450 0h-49v76q-20 -35 -62.5 -59.5t-104.5 -24.5q-88 0 -141 55t-53 147v306h49v-300q0 -76 39.5 -118.5t110.5 -42.5q74 0 118 47t44 128v286h49v-500z" />
    <glyph glyph-name="uacute" unicode="&#xfa;" 
d="M338 649l-192 -59v45l192 64v-50zM450 0h-49v76q-20 -35 -62.5 -59.5t-104.5 -24.5q-88 0 -141 55t-53 147v306h49v-300q0 -76 39.5 -118.5t110.5 -42.5q74 0 118 47t44 128v286h49v-500z" />
    <glyph glyph-name="ucircumflex" unicode="&#xfb;" 
d="M371 615v-50l-126 77l-126 -77v50l126 80zM450 0h-49v76q-20 -35 -62.5 -59.5t-104.5 -24.5q-88 0 -141 55t-53 147v306h49v-300q0 -76 39.5 -118.5t110.5 -42.5q74 0 118 47t44 128v286h49v-500z" />
    <glyph glyph-name="udieresis" unicode="&#xfc;" 
d="M340 633h-48v52h48v-52zM198 633h-48v52h48v-52zM450 0h-49v76q-20 -35 -62.5 -59.5t-104.5 -24.5q-88 0 -141 55t-53 147v306h49v-300q0 -76 39.5 -118.5t110.5 -42.5q74 0 118 47t44 128v286h49v-500z" />
    <glyph glyph-name="yacute" unicode="&#xfd;" horiz-adv-x="473" 
d="M337 649l-192 -59v45l192 64v-50zM458 500l-183 -488q-35 -98 -86 -142t-128 -44h-19v47h18q57 0 95 32t67 107l-207 488h55l180 -424l155 424h53z" />
    <glyph glyph-name="thorn" unicode="&#xfe;" horiz-adv-x="578" 
d="M295 461q-89 0 -149 -60.5t-60 -150.5q0 -89 60 -149.5t149 -60.5q90 0 149.5 60.5t59.5 149.5q0 90 -59.5 150.5t-149.5 60.5zM298 -7q-69 0 -123 28.5t-86 77.5v-273h-49v859h49v-283q32 49 86 77.5t123 28.5q107 0 181 -74t74 -183t-74 -183.5t-181 -74.5z" />
    <glyph glyph-name="ydieresis" unicode="&#xff;" horiz-adv-x="473" 
d="M339 633h-48v52h48v-52zM197 633h-48v52h48v-52zM458 500l-183 -488q-35 -98 -86 -142t-128 -44h-19v47h18q57 0 95 32t67 107l-207 488h55l180 -424l155 424h53z" />
    <glyph glyph-name="Amacron" unicode="&#x100;" horiz-adv-x="616" 
d="M434 802h-252v44h252v-44zM458 231l-151 385l-152 -385h303zM549 0l-71 181h-343l-71 -181h-54l271 685h53l272 -685h-57z" />
    <glyph glyph-name="amacron" unicode="&#x101;" horiz-adv-x="578" 
d="M415 617h-252v44h252v-44zM283 461q-90 0 -149.5 -60.5t-59.5 -150.5q0 -89 59.5 -149.5t149.5 -60.5q89 0 149 60.5t60 149.5q0 90 -60 150.5t-149 60.5zM489 0v99q-32 -49 -86 -77.5t-123 -28.5q-107 0 -181 74.5t-74 183.5t74 183t181 74q137 0 209 -103v95h49v-500
h-49z" />
    <glyph glyph-name="Abreve" unicode="&#x102;" horiz-adv-x="616" 
d="M308 810q75 0 133 60v-46q-45 -60 -133 -60t-133 60v46q58 -60 133 -60zM458 231l-151 385l-152 -385h303zM549 0l-71 181h-343l-71 -181h-54l271 685h53l272 -685h-57z" />
    <glyph glyph-name="abreve" unicode="&#x103;" horiz-adv-x="578" 
d="M289 625q75 0 133 60v-46q-45 -60 -133 -60t-133 60v46q58 -60 133 -60zM283 461q-90 0 -149.5 -60.5t-59.5 -150.5q0 -89 59.5 -149.5t149.5 -60.5q89 0 149 60.5t60 149.5q0 90 -60 150.5t-149 60.5zM489 0v99q-32 -49 -86 -77.5t-123 -28.5q-107 0 -181 74.5
t-74 183.5t74 183t181 74q137 0 209 -103v95h49v-500h-49z" />
    <glyph glyph-name="Aogonek" unicode="&#x104;" horiz-adv-x="616" 
d="M613 -157q-25 -19 -70 -19q-44 0 -71.5 21.5t-27.5 58.5q0 35 23 61.5t56 35.5l23 7l-68 173h-343l-71 -181h-54l271 685h53l272 -685h-31q-79 -29 -79 -90q0 -20 14.5 -31.5t39.5 -11.5q17 0 32.5 4t23.5 8l7 4v-40zM458 231l-151 385l-152 -385h303z" />
    <glyph glyph-name="aogonek" unicode="&#x105;" horiz-adv-x="578" 
d="M552 -157q-23 -19 -65 -19t-68 21.5t-26 58.5q0 40 25 71t71 44v80q-32 -49 -86 -77.5t-123 -28.5q-107 0 -181 74.5t-74 183.5t74 183t181 74q137 0 209 -103v95h49v-500h-24q-33 -12 -51 -36.5t-18 -53.5q0 -20 13 -31.5t36 -11.5q16 0 30.5 4t21.5 8l6 4v-40zM283 461
q-90 0 -149.5 -60.5t-59.5 -150.5q0 -89 59.5 -149.5t149.5 -60.5q89 0 149 60.5t60 149.5q0 90 -60 150.5t-149 60.5z" />
    <glyph glyph-name="Cacute" unicode="&#x106;" horiz-adv-x="708" 
d="M476 834l-192 -59v45l192 64v-50zM384 642q-127 0 -214 -85.5t-87 -213.5t87 -214.5t214 -86.5q168 0 255 145l41 -27q-99 -168 -296 -168q-148 0 -251 100t-103 251q0 150 103 250t251 100q200 0 298 -169l-43 -28q-87 146 -255 146z" />
    <glyph glyph-name="cacute" unicode="&#x107;" horiz-adv-x="527" 
d="M370 649l-192 -59v45l192 64v-50zM469 144l38 -26q-76 -125 -230 -125q-109 0 -180.5 74.5t-71.5 184.5q0 109 71.5 182.5t180.5 73.5q155 0 230 -126l-38 -26q-63 104 -192 104q-90 0 -146.5 -59.5t-56.5 -149.5t57 -150t147 -60q128 0 191 103z" />
    <glyph glyph-name="Ccircumflex" unicode="&#x108;" horiz-adv-x="708" 
d="M509 800v-50l-126 77l-126 -77v50l126 80zM384 642q-127 0 -214 -85.5t-87 -213.5t87 -214.5t214 -86.5q168 0 255 145l41 -27q-99 -168 -296 -168q-148 0 -251 100t-103 251q0 150 103 250t251 100q200 0 298 -169l-43 -28q-87 146 -255 146z" />
    <glyph glyph-name="ccircumflex" unicode="&#x109;" horiz-adv-x="527" 
d="M403 615v-50l-126 77l-126 -77v50l126 80zM469 144l38 -26q-76 -125 -230 -125q-109 0 -180.5 74.5t-71.5 184.5q0 109 71.5 182.5t180.5 73.5q155 0 230 -126l-38 -26q-63 104 -192 104q-90 0 -146.5 -59.5t-56.5 -149.5t57 -150t147 -60q128 0 191 103z" />
    <glyph glyph-name="Cdotaccent" unicode="&#x10a;" horiz-adv-x="708" 
d="M407 818h-48v52h48v-52zM384 642q-127 0 -214 -85.5t-87 -213.5t87 -214.5t214 -86.5q168 0 255 145l41 -27q-99 -168 -296 -168q-148 0 -251 100t-103 251q0 150 103 250t251 100q200 0 298 -169l-43 -28q-87 146 -255 146z" />
    <glyph glyph-name="cdotaccent" unicode="&#x10b;" horiz-adv-x="527" 
d="M301 633h-48v52h48v-52zM469 144l38 -26q-76 -125 -230 -125q-109 0 -180.5 74.5t-71.5 184.5q0 109 71.5 182.5t180.5 73.5q155 0 230 -126l-38 -26q-63 104 -192 104q-90 0 -146.5 -59.5t-56.5 -149.5t57 -150t147 -60q128 0 191 103z" />
    <glyph glyph-name="Ccaron" unicode="&#x10c;" horiz-adv-x="708" 
d="M509 824l-126 -80l-126 80v50l126 -77l126 77v-50zM384 642q-127 0 -214 -85.5t-87 -213.5t87 -214.5t214 -86.5q168 0 255 145l41 -27q-99 -168 -296 -168q-148 0 -251 100t-103 251q0 150 103 250t251 100q200 0 298 -169l-43 -28q-87 146 -255 146z" />
    <glyph glyph-name="ccaron" unicode="&#x10d;" horiz-adv-x="527" 
d="M403 639l-126 -80l-126 80v50l126 -77l126 77v-50zM469 144l38 -26q-76 -125 -230 -125q-109 0 -180.5 74.5t-71.5 184.5q0 109 71.5 182.5t180.5 73.5q155 0 230 -126l-38 -26q-63 104 -192 104q-90 0 -146.5 -59.5t-56.5 -149.5t57 -150t147 -60q128 0 191 103z" />
    <glyph glyph-name="Dcaron" unicode="&#x10e;" horiz-adv-x="638" 
d="M442 824l-126 -80l-126 80v50l126 -77l126 77v-50zM50 0v685h211q145 0 246 -97.5t101 -244.5t-101 -245t-246 -98h-211zM259 636h-156v-587h156q125 0 210.5 84t85.5 210t-85.5 209.5t-210.5 83.5z" />
    <glyph glyph-name="dcaron" unicode="&#x10f;" horiz-adv-x="675" 
d="M655 631l-19 -76h-27l17 72h-21v58h50v-54zM283 40q89 0 149 60.5t60 150.5q0 89 -60 149.5t-149 60.5q-90 0 -149.5 -60.5t-59.5 -149.5q0 -90 59.5 -150.5t149.5 -60.5zM489 1v98q-70 -106 -209 -106q-107 0 -181 74t-74 183t74 183.5t181 74.5q69 0 123 -28.5
t86 -77.5v283h49v-684h-49z" />
    <glyph glyph-name="Dcroat" unicode="&#x110;" horiz-adv-x="648" 
d="M271 0h-211v313h-55v46h55v326h211q145 0 246 -97.5t101 -244.5t-101 -245t-246 -98zM113 49h156q125 0 210.5 84t85.5 210t-85.5 209.5t-210.5 83.5h-156v-277h171v-46h-171v-264z" />
    <glyph glyph-name="dcroat" unicode="&#x111;" horiz-adv-x="578" 
d="M283 40q89 0 149 60.5t60 149.5q0 90 -60 150.5t-149 60.5q-90 0 -149.5 -60.5t-59.5 -150.5q0 -89 59.5 -149.5t149.5 -60.5zM591 554h-53v-554h-49v100q-2 -4 -7 -11.5t-23.5 -26t-40 -32.5t-59 -25.5t-79.5 -11.5q-107 0 -181 74.5t-74 183.5t74 183t181 74
q42 0 79 -11t60 -27t39.5 -31.5t23.5 -26.5l7 -11v153h-170v46h170v85h49v-85h53v-46z" />
    <glyph glyph-name="Emacron" unicode="&#x112;" horiz-adv-x="498" 
d="M393 802h-252v44h252v-44zM50 0v685h411v-49h-358v-265h333v-49h-333v-273h378v-49h-431z" />
    <glyph glyph-name="emacron" unicode="&#x113;" horiz-adv-x="559" 
d="M406 617h-252v44h252v-44zM516 118q-76 -125 -231 -125q-113 0 -186.5 74t-73.5 184q0 109 73.5 183t182.5 74t181 -71.5t72 -170.5q0 -21 -2 -33h-455q6 -89 65 -140.5t143 -51.5q130 0 193 103zM281 461q-78 0 -136.5 -50.5t-67.5 -132.5h406q-7 83 -65 133t-137 50z
" />
    <glyph glyph-name="Ebreve" unicode="&#x114;" horiz-adv-x="498" 
d="M267 810q75 0 133 60v-46q-45 -60 -133 -60t-133 60v46q58 -60 133 -60zM50 0v685h411v-49h-358v-265h333v-49h-333v-273h378v-49h-431z" />
    <glyph glyph-name="ebreve" unicode="&#x115;" horiz-adv-x="559" 
d="M280 625q75 0 133 60v-46q-45 -60 -133 -60t-133 60v46q58 -60 133 -60zM516 118q-76 -125 -231 -125q-113 0 -186.5 74t-73.5 184q0 109 73.5 183t182.5 74t181 -71.5t72 -170.5q0 -21 -2 -33h-455q6 -89 65 -140.5t143 -51.5q130 0 193 103zM281 461
q-78 0 -136.5 -50.5t-67.5 -132.5h406q-7 83 -65 133t-137 50z" />
    <glyph glyph-name="Edotaccent" unicode="&#x116;" horiz-adv-x="498" 
d="M291 818h-48v52h48v-52zM50 0v685h411v-49h-358v-265h333v-49h-333v-273h378v-49h-431z" />
    <glyph glyph-name="edotaccent" unicode="&#x117;" horiz-adv-x="559" 
d="M304 633h-48v52h48v-52zM516 118q-76 -125 -231 -125q-113 0 -186.5 74t-73.5 184q0 109 73.5 183t182.5 74t181 -71.5t72 -170.5q0 -21 -2 -33h-455q6 -89 65 -140.5t143 -51.5q130 0 193 103zM281 461q-78 0 -136.5 -50.5t-67.5 -132.5h406q-7 83 -65 133t-137 50z" />
    <glyph glyph-name="Eogonek" unicode="&#x118;" horiz-adv-x="498" 
d="M480 -157q-25 -19 -70 -19q-44 0 -71.5 21.5t-27.5 58.5q0 34 22.5 60.5t53.5 35.5h-337v685h411v-49h-358v-265h333v-49h-333v-273h378v-49h-39q-79 -29 -79 -90q0 -20 14.5 -31.5t39.5 -11.5q17 0 32.5 4t22.5 8l8 4v-40z" />
    <glyph glyph-name="eogonek" unicode="&#x119;" horiz-adv-x="559" 
d="M323 -176q-44 0 -71.5 21.5t-27.5 58.5q0 59 59 89q-112 1 -185 75t-73 183t73.5 183t182.5 74t181 -71.5t72 -170.5l-2 -33h-455q6 -89 65 -140.5t143 -51.5q130 0 193 103l38 -26q-58 -96 -161 -118q-79 -29 -79 -90q0 -20 14.5 -31.5t39.5 -11.5q17 0 32.5 4t23.5 8
l7 4v-40q-25 -19 -70 -19zM281 461q-78 0 -136.5 -50.5t-67.5 -132.5h406q-7 83 -65 133t-137 50z" />
    <glyph glyph-name="Ecaron" unicode="&#x11a;" horiz-adv-x="498" 
d="M393 824l-126 -80l-126 80v50l126 -77l126 77v-50zM50 0v685h411v-49h-358v-265h333v-49h-333v-273h378v-49h-431z" />
    <glyph glyph-name="ecaron" unicode="&#x11b;" horiz-adv-x="559" 
d="M406 639l-126 -80l-126 80v50l126 -77l126 77v-50zM516 118q-76 -125 -231 -125q-113 0 -186.5 74t-73.5 184q0 109 73.5 183t182.5 74t181 -71.5t72 -170.5q0 -21 -2 -33h-455q6 -89 65 -140.5t143 -51.5q130 0 193 103zM281 461q-78 0 -136.5 -50.5t-67.5 -132.5h406
q-7 83 -65 133t-137 50z" />
    <glyph glyph-name="Gcircumflex" unicode="&#x11c;" horiz-adv-x="737" 
d="M507 800v-50l-126 77l-126 -77v50l126 80zM708 313q0 -129 -90 -225t-231 -96q-153 0 -255 99.5t-102 251.5q0 151 103 251t251 100q172 0 270 -120l-39 -33q-86 101 -231 101q-127 0 -214 -85.5t-87 -213.5q0 -130 85.5 -215.5t218.5 -85.5q112 0 187.5 73.5t81.5 179.5
h-260v49h312v-31z" />
    <glyph glyph-name="gcircumflex" unicode="&#x11d;" horiz-adv-x="572" 
d="M403 615v-50l-126 77l-126 -77v50l126 80zM280 461q-88 0 -147 -59.5t-59 -146.5t59 -146t147 -59t147 58t59 147t-59 147.5t-147 58.5zM285 -186q-155 0 -231 125l38 26q63 -103 193 -103q93 0 145.5 45.5t52.5 131.5v70q-30 -46 -82 -76t-124 -30q-106 0 -179 73
t-73 180q0 106 73 179t179 73q137 0 206 -105v97h49v-461q0 -97 -66.5 -161t-180.5 -64z" />
    <glyph glyph-name="Gbreve" unicode="&#x11e;" horiz-adv-x="737" 
d="M381 810q75 0 133 60v-46q-45 -60 -133 -60t-133 60v46q58 -60 133 -60zM708 313q0 -129 -90 -225t-231 -96q-153 0 -255 99.5t-102 251.5q0 151 103 251t251 100q172 0 270 -120l-39 -33q-86 101 -231 101q-127 0 -214 -85.5t-87 -213.5q0 -130 85.5 -215.5t218.5 -85.5
q112 0 187.5 73.5t81.5 179.5h-260v49h312v-31z" />
    <glyph glyph-name="gbreve" unicode="&#x11f;" horiz-adv-x="572" 
d="M277 625q75 0 133 60v-46q-45 -60 -133 -60t-133 60v46q58 -60 133 -60zM280 461q-88 0 -147 -59.5t-59 -146.5t59 -146t147 -59t147 58t59 147t-59 147.5t-147 58.5zM285 -186q-155 0 -231 125l38 26q63 -103 193 -103q93 0 145.5 45.5t52.5 131.5v70q-30 -46 -82 -76
t-124 -30q-106 0 -179 73t-73 180q0 106 73 179t179 73q137 0 206 -105v97h49v-461q0 -97 -66.5 -161t-180.5 -64z" />
    <glyph glyph-name="Gdotaccent" unicode="&#x120;" horiz-adv-x="737" 
d="M405 818h-48v52h48v-52zM708 313q0 -129 -90 -225t-231 -96q-153 0 -255 99.5t-102 251.5q0 151 103 251t251 100q172 0 270 -120l-39 -33q-86 101 -231 101q-127 0 -214 -85.5t-87 -213.5q0 -130 85.5 -215.5t218.5 -85.5q112 0 187.5 73.5t81.5 179.5h-260v49h312v-31z
" />
    <glyph glyph-name="gdotaccent" unicode="&#x121;" horiz-adv-x="572" 
d="M301 633h-48v52h48v-52zM280 461q-88 0 -147 -59.5t-59 -146.5t59 -146t147 -59t147 58t59 147t-59 147.5t-147 58.5zM285 -186q-155 0 -231 125l38 26q63 -103 193 -103q93 0 145.5 45.5t52.5 131.5v70q-30 -46 -82 -76t-124 -30q-106 0 -179 73t-73 180q0 106 73 179
t179 73q137 0 206 -105v97h49v-461q0 -97 -66.5 -161t-180.5 -64z" />
    <glyph glyph-name="uni0122" unicode="&#x122;" horiz-adv-x="737" 
d="M708 313q0 -129 -90 -225t-231 -96q-153 0 -255 99.5t-102 251.5q0 151 103 251t251 100q172 0 270 -120l-39 -33q-86 101 -231 101q-127 0 -214 -85.5t-87 -213.5q0 -130 85.5 -215.5t218.5 -85.5q112 0 187.5 73.5t81.5 179.5h-260v49h312v-31zM409 -117l-19 -76h-27
l17 72h-21v58h50v-54z" />
    <glyph glyph-name="uni0123" unicode="&#x123;" horiz-adv-x="572" 
d="M252 687l19 76h27l-17 -72h21v-58h-50v54zM280 461q-88 0 -147 -59.5t-59 -146.5t59 -146t147 -59t147 58t59 147t-59 147.5t-147 58.5zM285 -186q-155 0 -231 125l38 26q63 -103 193 -103q93 0 145.5 45.5t52.5 131.5v70q-30 -46 -82 -76t-124 -30q-106 0 -179 73
t-73 180q0 106 73 179t179 73q137 0 206 -105v97h49v-461q0 -97 -66.5 -161t-180.5 -64z" />
    <glyph glyph-name="Hcircumflex" unicode="&#x124;" horiz-adv-x="607" 
d="M430 800v-50l-126 77l-126 -77v50l126 80zM504 0v317h-401v-317h-53v685h53v-319h401v319h53v-685h-53z" />
    <glyph glyph-name="hcircumflex" unicode="&#x125;" 
d="M191 800v-50l-126 77l-126 -77v50l126 80zM89 685v-261q54 84 167 84q88 0 141 -55t53 -147v-306h-49v300q0 76 -39.5 118.5t-110.5 42.5q-74 0 -118 -47t-44 -128v-286h-49v685h49z" />
    <glyph glyph-name="Hbar" unicode="&#x126;" horiz-adv-x="607" 
d="M103 366h401v152h-401v-152zM103 317v-317h-53v518h-55v46h55v121h53v-121h401v121h53v-121h55v-46h-55v-518h-53v317h-401z" />
    <glyph glyph-name="hbar" unicode="&#x127;" 
d="M89 554v-130q2 3 5.5 9t17.5 20.5t31.5 25.5t47.5 20t65 9q88 0 141 -55t53 -147v-306h-49v300q0 76 -39.5 118.5t-110.5 42.5q-74 0 -118 -47t-44 -128v-286h-49v554h-40v46h40v85h49v-85h183v-46h-183z" />
    <glyph glyph-name="Itilde" unicode="&#x128;" horiz-adv-x="153" 
d="M15 849q28 0 68 -18.5t62 -18.5q41 0 72 38v-42q-31 -44 -78 -44q-28 0 -68.5 19t-61.5 19q-41 0 -72 -38v42q30 43 78 43zM103 0h-53v685h53v-685z" />
    <glyph glyph-name="itilde" unicode="&#x129;" horiz-adv-x="129" 
d="M3 664q28 0 68 -18.5t62 -18.5q41 0 72 38v-42q-31 -44 -78 -44q-28 0 -68.5 19t-61.5 19q-41 0 -72 -38v42q30 43 78 43zM89 0h-49v500h49v-500z" />
    <glyph glyph-name="Imacron" unicode="&#x12a;" horiz-adv-x="153" 
d="M203 802h-252v44h252v-44zM103 0h-53v685h53v-685z" />
    <glyph glyph-name="imacron" unicode="&#x12b;" horiz-adv-x="129" 
d="M191 617h-252v44h252v-44zM89 0h-49v500h49v-500z" />
    <glyph glyph-name="Ibreve" unicode="&#x12c;" horiz-adv-x="153" 
d="M77 810q75 0 133 60v-46q-45 -60 -133 -60t-133 60v46q58 -60 133 -60zM103 0h-53v685h53v-685z" />
    <glyph glyph-name="ibreve" unicode="&#x12d;" horiz-adv-x="129" 
d="M65 625q75 0 133 60v-46q-45 -60 -133 -60t-133 60v46q58 -60 133 -60zM89 0h-49v500h49v-500z" />
    <glyph glyph-name="Iogonek" unicode="&#x12e;" horiz-adv-x="153" 
d="M140 -157q-25 -19 -70 -19q-44 0 -71.5 21.5t-27.5 58.5q0 35 23 61.5t56 35.5v684h53v-685h-1q-79 -29 -79 -90q0 -20 14.5 -31.5t39.5 -11.5q17 0 32.5 4t22.5 8l8 4v-40z" />
    <glyph glyph-name="iogonek" unicode="&#x12f;" horiz-adv-x="129" 
d="M89 632h-49v53h49v-53zM123 -157q-25 -19 -70 -19q-44 0 -71.5 21.5t-27.5 58.5q0 35 23 61.5t56 35.5l7 2v497h49v-500h-4q-79 -29 -79 -90q0 -20 14.5 -31.5t39.5 -11.5q17 0 32.5 4t23.5 8l7 4v-40z" />
    <glyph glyph-name="dotlessi" unicode="&#x131;" horiz-adv-x="129" 
d="M89 0h-49v500h49v-500z" />
    <glyph glyph-name="IJ" unicode="&#x132;" horiz-adv-x="643" 
d="M103 0h-53v685h53v-685zM171 215h53q0 -82 42 -128t118 -46t118 52t42 146v446h53v-451q0 -112 -57.5 -178t-155.5 -66q-97 0 -155 61.5t-58 163.5z" />
    <glyph glyph-name="ij" unicode="&#x133;" horiz-adv-x="258" 
d="M218 632h-49v53h49v-53zM89 632h-49v53h49v-53zM218 500v-521q0 -78 -41 -115t-98 -37v47q38 0 64 24t26 81v521h49zM89 0h-49v500h49v-500z" />
    <glyph glyph-name="Jcircumflex" unicode="&#x134;" 
d="M536 800v-50l-126 77l-126 -77v50l126 80zM18 215h53q0 -82 42 -128t118 -46t118 52t42 146v446h53v-451q0 -112 -57.5 -178t-155.5 -66q-97 0 -155 61.5t-58 163.5z" />
    <glyph glyph-name="jcircumflex" unicode="&#x135;" horiz-adv-x="129" 
d="M191 615v-50l-126 77l-126 -77v50l126 80zM89 500v-521q0 -78 -41 -115t-98 -37v47q38 0 64 24t26 81v521h49z" />
    <glyph glyph-name="uni0136" unicode="&#x136;" horiz-adv-x="527" 
d="M103 352l338 333h67l-348 -341l360 -344h-74l-343 328v-328h-53v685h53v-333zM286 -117l-19 -76h-27l17 72h-21v58h50v-54z" />
    <glyph glyph-name="uni0137" unicode="&#x137;" horiz-adv-x="438" 
d="M89 256l240 244h61l-249 -251l262 -249h-68l-246 234v-234h-49v685h49v-429zM244 -117l-19 -76h-27l17 72h-21v58h50v-54z" />
    <glyph glyph-name="kgreenlandic" unicode="&#x138;" horiz-adv-x="438" 
d="M89 256l240 244h61l-249 -251l262 -249h-68l-246 234v-234h-49v500h49v-244z" />
    <glyph glyph-name="Lacute" unicode="&#x139;" horiz-adv-x="483" 
d="M174 834l-192 -59v45l192 64v-50zM50 0v685h53v-636h353v-49h-406z" />
    <glyph glyph-name="lacute" unicode="&#x13a;" horiz-adv-x="129" 
d="M158 834l-192 -59v45l192 64v-50zM89 0h-49v685h49v-685z" />
    <glyph glyph-name="uni013B" unicode="&#x13b;" horiz-adv-x="483" 
d="M50 0v685h53v-636h353v-49h-406zM281 -117l-19 -76h-27l17 72h-21v58h50v-54z" />
    <glyph glyph-name="uni013C" unicode="&#x13c;" horiz-adv-x="129" 
d="M89 0h-49v685h49v-685zM90 -117l-19 -76h-27l17 72h-21v58h50v-54z" />
    <glyph glyph-name="Lcaron" unicode="&#x13d;" horiz-adv-x="483" 
d="M349 631l-19 -76h-27l17 72h-21v58h50v-54zM50 0v685h53v-636h353v-49h-406z" />
    <glyph glyph-name="lcaron" unicode="&#x13e;" horiz-adv-x="236" 
d="M206 631l-19 -76h-27l17 72h-21v58h50v-54zM89 0h-49v685h49v-685z" />
    <glyph glyph-name="Ldot" unicode="&#x13f;" horiz-adv-x="483" 
d="M50 0v685h53v-636h353v-49h-406zM350 325h-48v52h48v-52z" />
    <glyph glyph-name="ldot" unicode="&#x140;" horiz-adv-x="204" 
d="M89 0h-49v685h49v-685zM184 263h-48v52h48v-52z" />
    <glyph glyph-name="Lslash" unicode="&#x141;" horiz-adv-x="493" 
d="M466 0h-406v316l-60 -32v50l60 32v319h53v-290l163 87v-50l-163 -87v-296h353v-49z" />
    <glyph glyph-name="lslash" unicode="&#x142;" horiz-adv-x="129" 
d="M125 415l-36 -25v-390h-49v355l-36 -25v50l36 25v280h49v-245l36 25v-50z" />
    <glyph glyph-name="Nacute" unicode="&#x143;" horiz-adv-x="601" 
d="M395 834l-192 -59v45l192 64v-50zM495 0l-394 603v-603h-51v685h56l394 -603v603h51v-685h-56z" />
    <glyph glyph-name="nacute" unicode="&#x144;" 
d="M338 649l-192 -59v45l192 64v-50zM256 508q88 0 141 -55t53 -147v-306h-49v300q0 76 -39.5 118.5t-110.5 42.5q-74 0 -118 -47t-44 -128v-286h-49v500h49v-76q54 84 167 84z" />
    <glyph glyph-name="uni0145" unicode="&#x145;" horiz-adv-x="601" 
d="M495 0l-394 603v-603h-51v685h56l394 -603v603h51v-685h-56zM327 -117l-19 -76h-27l17 72h-21v58h50v-54z" />
    <glyph glyph-name="uni0146" unicode="&#x146;" 
d="M256 508q88 0 141 -55t53 -147v-306h-49v300q0 76 -39.5 118.5t-110.5 42.5q-74 0 -118 -47t-44 -128v-286h-49v500h49v-76q54 84 167 84zM270 -117l-19 -76h-27l17 72h-21v58h50v-54z" />
    <glyph glyph-name="Ncaron" unicode="&#x147;" horiz-adv-x="601" 
d="M428 824l-126 -80l-126 80v50l126 -77l126 77v-50zM495 0l-394 603v-603h-51v685h56l394 -603v603h51v-685h-56z" />
    <glyph glyph-name="ncaron" unicode="&#x148;" 
d="M371 639l-126 -80l-126 80v50l126 -77l126 77v-50zM256 508q88 0 141 -55t53 -147v-306h-49v300q0 76 -39.5 118.5t-110.5 42.5q-74 0 -118 -47t-44 -128v-286h-49v500h49v-76q54 84 167 84z" />
    <glyph glyph-name="napostrophe" unicode="&#x149;" 
d="M90 671l-19 -76h-27l17 72h-21v58h50v-54zM256 508q88 0 141 -55t53 -147v-306h-49v300q0 76 -39.5 118.5t-110.5 42.5q-74 0 -118 -47t-44 -128v-286h-49v500h49v-76q54 84 167 84z" />
    <glyph glyph-name="Eng" unicode="&#x14a;" horiz-adv-x="609" 
d="M412 -173v47q39 0 66.5 27.5t23.5 88.5l-401 612v-602h-51v685h56l394 -602v602h51v-706q0 -78 -41 -115t-98 -37z" />
    <glyph glyph-name="eng" unicode="&#x14b;" 
d="M89 500v-76q2 3 5.5 9t17.5 20.5t31.5 25.5t47.5 20t65 9q88 0 141 -55t53 -147v-327q0 -78 -41 -115t-98 -37v47q38 0 64 24t26 81v321q0 76 -39.5 118.5t-110.5 42.5q-74 0 -118 -47t-44 -128v-286h-49v500h49z" />
    <glyph glyph-name="Omacron" unicode="&#x14c;" horiz-adv-x="758" 
d="M505 802h-252v44h252v-44zM379 -8q-146 0 -247.5 100t-101.5 251q0 150 101.5 250t247.5 100t247.5 -100t101.5 -250q0 -151 -101.5 -251t-247.5 -100zM379 42q125 0 210.5 86.5t85.5 214.5t-85.5 213.5t-210.5 85.5t-210.5 -85.5t-85.5 -213.5t85.5 -214.5t210.5 -86.5z
" />
    <glyph glyph-name="omacron" unicode="&#x14d;" horiz-adv-x="565" 
d="M409 617h-252v44h252v-44zM283 508q109 0 183 -74t74 -183t-74 -183.5t-183 -74.5t-183.5 74.5t-74.5 183.5t74.5 183t183.5 74zM283 461q-90 0 -149.5 -60.5t-59.5 -150.5q0 -89 59.5 -149.5t149.5 -60.5q89 0 148.5 60.5t59.5 149.5q0 90 -59.5 150.5t-148.5 60.5z" />
    <glyph glyph-name="Obreve" unicode="&#x14e;" horiz-adv-x="758" 
d="M379 810q75 0 133 60v-46q-45 -60 -133 -60t-133 60v46q58 -60 133 -60zM379 -8q-146 0 -247.5 100t-101.5 251q0 150 101.5 250t247.5 100t247.5 -100t101.5 -250q0 -151 -101.5 -251t-247.5 -100zM379 42q125 0 210.5 86.5t85.5 214.5t-85.5 213.5t-210.5 85.5
t-210.5 -85.5t-85.5 -213.5t85.5 -214.5t210.5 -86.5z" />
    <glyph glyph-name="obreve" unicode="&#x14f;" horiz-adv-x="565" 
d="M283 625q75 0 133 60v-46q-45 -60 -133 -60t-133 60v46q58 -60 133 -60zM283 508q109 0 183 -74t74 -183t-74 -183.5t-183 -74.5t-183.5 74.5t-74.5 183.5t74.5 183t183.5 74zM283 461q-90 0 -149.5 -60.5t-59.5 -150.5q0 -89 59.5 -149.5t149.5 -60.5q89 0 148.5 60.5
t59.5 149.5q0 90 -59.5 150.5t-148.5 60.5z" />
    <glyph glyph-name="Ohungarumlaut" unicode="&#x150;" horiz-adv-x="758" 
d="M449 743h-43l54 147h47zM349 743h-45l47 147h49zM379 -8q-146 0 -247.5 100t-101.5 251q0 150 101.5 250t247.5 100t247.5 -100t101.5 -250q0 -151 -101.5 -251t-247.5 -100zM379 42q125 0 210.5 86.5t85.5 214.5t-85.5 213.5t-210.5 85.5t-210.5 -85.5t-85.5 -213.5
t85.5 -214.5t210.5 -86.5z" />
    <glyph glyph-name="ohungarumlaut" unicode="&#x151;" horiz-adv-x="565" 
d="M353 558h-43l54 147h47zM253 558h-45l47 147h49zM283 508q109 0 183 -74t74 -183t-74 -183.5t-183 -74.5t-183.5 74.5t-74.5 183.5t74.5 183t183.5 74zM283 461q-90 0 -149.5 -60.5t-59.5 -150.5q0 -89 59.5 -149.5t149.5 -60.5q89 0 148.5 60.5t59.5 149.5
q0 90 -59.5 150.5t-148.5 60.5z" />
    <glyph glyph-name="OE" unicode="&#x152;" horiz-adv-x="983" 
d="M377 0q-145 0 -246 97.5t-101 244.5t101 245t246 98h569v-49h-358v-265h333v-49h-333v-273h378v-49h-589zM379 49h156v587h-156q-125 0 -210.5 -84t-85.5 -210t85.5 -209.5t210.5 -83.5z" />
    <glyph glyph-name="oe" unicode="&#x153;" horiz-adv-x="1025" 
d="M944 144l38 -26q-76 -125 -231 -125q-81 0 -143.5 40t-92.5 108q-30 -68 -92 -108t-140 -40q-109 0 -183.5 74.5t-74.5 183.5t74.5 183t183.5 74q77 0 139 -40.5t93 -107.5q30 67 91.5 107.5t140.5 40.5q109 0 181 -71.5t72 -170.5l-2 -33h-456q5 -84 63 -138t146 -54
q130 0 193 103zM283 40q89 0 148.5 60.5t59.5 149.5q0 90 -59.5 150.5t-148.5 60.5q-90 0 -149.5 -60.5t-59.5 -150.5q0 -89 59.5 -149.5t149.5 -60.5zM543 278h406q-6 78 -62.5 130.5t-139.5 52.5q-82 0 -138.5 -51.5t-65.5 -131.5z" />
    <glyph glyph-name="Racute" unicode="&#x154;" horiz-adv-x="520" 
d="M377 834l-192 -59v45l192 64v-50zM263 636h-160v-318h155q94 0 144.5 44.5t50.5 113.5q0 70 -49.5 115t-140.5 45zM103 271v-271h-53v685h225q106 0 168.5 -58.5t62.5 -149.5q0 -88 -64 -147t-164 -59h-100l340 -271h-79z" />
    <glyph glyph-name="racute" unicode="&#x155;" horiz-adv-x="281" 
d="M234 649l-192 -59v45l192 64v-50zM256 508v-54q-73 0 -120 -50.5t-47 -131.5v-272h-49v500h49v-93q19 38 61.5 69.5t105.5 31.5z" />
    <glyph glyph-name="uni0156" unicode="&#x156;" horiz-adv-x="520" 
d="M263 636h-160v-318h155q94 0 144.5 44.5t50.5 113.5q0 70 -49.5 115t-140.5 45zM103 271v-271h-53v685h225q106 0 168.5 -58.5t62.5 -149.5q0 -88 -64 -147t-164 -59h-100l340 -271h-79zM295 -117l-19 -76h-27l17 72h-21v58h50v-54z" />
    <glyph glyph-name="uni0157" unicode="&#x157;" horiz-adv-x="281" 
d="M256 508v-54q-73 0 -120 -50.5t-47 -131.5v-272h-49v500h49v-93q19 38 61.5 69.5t105.5 31.5zM89 -117l-19 -76h-27l17 72h-21v58h50v-54z" />
    <glyph glyph-name="Rcaron" unicode="&#x158;" horiz-adv-x="520" 
d="M410 824l-126 -80l-126 80v50l126 -77l126 77v-50zM263 636h-160v-318h155q94 0 144.5 44.5t50.5 113.5q0 70 -49.5 115t-140.5 45zM103 271v-271h-53v685h225q106 0 168.5 -58.5t62.5 -149.5q0 -88 -64 -147t-164 -59h-100l340 -271h-79z" />
    <glyph glyph-name="rcaron" unicode="&#x159;" horiz-adv-x="281" 
d="M267 639l-126 -80l-126 80v50l126 -77l126 77v-50zM256 508v-54q-73 0 -120 -50.5t-47 -131.5v-272h-49v500h49v-93q19 38 61.5 69.5t105.5 31.5z" />
    <glyph glyph-name="Sacute" unicode="&#x15a;" horiz-adv-x="577" 
d="M374 834l-192 -59v45l192 64v-50zM294 -10q-121 0 -191.5 54t-83.5 161h53q10 -81 67.5 -124t154.5 -42q95 0 145.5 39t50.5 108q0 21 -7 38.5t-15 30t-27.5 23t-31.5 16.5t-40.5 13t-41 9.5t-45.5 8.5q-44 8 -69 14t-61 20t-55 31.5t-33.5 48t-14.5 70.5q0 82 62 132
t165 50q109 0 175 -53t72 -144h-52q-7 63 -57.5 105.5t-140.5 42.5q-81 0 -127 -37t-46 -97q0 -28 12 -49.5t27 -34t47.5 -23.5t52 -15t61.5 -12q34 -6 51.5 -9.5t48 -12t46.5 -17t37.5 -23t32.5 -31.5t19 -42t8 -55q0 -85 -63.5 -139.5t-185.5 -54.5z" />
    <glyph glyph-name="sacute" unicode="&#x15b;" horiz-adv-x="448" 
d="M317 649l-192 -59v45l192 64v-50zM25 152h50q7 -54 47.5 -83.5t111.5 -29.5q68 0 104 26t36 72q0 42 -34 63t-82.5 29t-97 17.5t-82.5 39.5t-34 84q0 62 48 100t128 38q83 0 133 -40t55 -108h-49q-4 43 -39.5 72.5t-100.5 29.5q-59 0 -92 -24.5t-33 -65.5
q0 -34 24.5 -54.5t61 -27t79 -15.5t79 -19.5t61 -40t24.5 -76.5q0 -65 -51 -106t-139 -41q-91 0 -145 41t-63 119z" />
    <glyph glyph-name="Scircumflex" unicode="&#x15c;" horiz-adv-x="577" 
d="M407 800v-50l-126 77l-126 -77v50l126 80zM294 -10q-121 0 -191.5 54t-83.5 161h53q10 -81 67.5 -124t154.5 -42q95 0 145.5 39t50.5 108q0 21 -7 38.5t-15 30t-27.5 23t-31.5 16.5t-40.5 13t-41 9.5t-45.5 8.5q-44 8 -69 14t-61 20t-55 31.5t-33.5 48t-14.5 70.5
q0 82 62 132t165 50q109 0 175 -53t72 -144h-52q-7 63 -57.5 105.5t-140.5 42.5q-81 0 -127 -37t-46 -97q0 -28 12 -49.5t27 -34t47.5 -23.5t52 -15t61.5 -12q34 -6 51.5 -9.5t48 -12t46.5 -17t37.5 -23t32.5 -31.5t19 -42t8 -55q0 -85 -63.5 -139.5t-185.5 -54.5z" />
    <glyph glyph-name="scircumflex" unicode="&#x15d;" horiz-adv-x="448" 
d="M350 615v-50l-126 77l-126 -77v50l126 80zM25 152h50q7 -54 47.5 -83.5t111.5 -29.5q68 0 104 26t36 72q0 42 -34 63t-82.5 29t-97 17.5t-82.5 39.5t-34 84q0 62 48 100t128 38q83 0 133 -40t55 -108h-49q-4 43 -39.5 72.5t-100.5 29.5q-59 0 -92 -24.5t-33 -65.5
q0 -34 24.5 -54.5t61 -27t79 -15.5t79 -19.5t61 -40t24.5 -76.5q0 -65 -51 -106t-139 -41q-91 0 -145 41t-63 119z" />
    <glyph glyph-name="uni015E" unicode="&#x15e;" horiz-adv-x="577" 
d="M290 -209q-37 0 -61.5 20.5t-28.5 57.5h45q6 -37 45 -37q19 0 31 11.5t12 29.5q0 17 -12.5 28t-33.5 11h-66l43 79q-108 6 -170.5 60t-74.5 154h53q10 -81 67.5 -124t154.5 -42q95 0 145.5 39t50.5 108q0 21 -7 38.5t-15 30t-27.5 23t-31.5 16.5t-40.5 13t-41 9.5
t-45.5 8.5q-44 8 -69 14t-61 20t-55 31.5t-33.5 48t-14.5 70.5q0 82 62 132t165 50q109 0 175 -53t72 -144h-52q-7 63 -57.5 105.5t-140.5 42.5q-81 0 -127 -37t-46 -97q0 -28 12 -49.5t27 -34t47.5 -23.5t52 -15t61.5 -12q34 -6 51.5 -9.5t48 -12t46.5 -17t37.5 -23
t32.5 -31.5t19 -42t8 -55q0 -82 -59 -136t-173 -58l-21 -38q36 0 60.5 -22t24.5 -57t-24.5 -58.5t-60.5 -23.5z" />
    <glyph glyph-name="uni015F" unicode="&#x15f;" horiz-adv-x="448" 
d="M228 -209q-37 0 -61.5 20.5t-28.5 57.5h45q6 -37 45 -37q19 0 31 11.5t12 29.5q0 17 -12.5 28t-33.5 11h-66l44 81q-78 7 -124 47.5t-54 111.5h50q7 -54 47.5 -83.5t111.5 -29.5q68 0 104 26t36 72q0 21 -9.5 36.5t-20.5 24.5t-36 17t-39 11t-47 9q-34 6 -53 10t-46.5 14
t-42 23t-25.5 35.5t-11 52.5q0 62 48 100t128 38q83 0 133 -40t55 -108h-49q-4 43 -39.5 72.5t-100.5 29.5q-59 0 -92 -24.5t-33 -65.5q0 -30 20 -49t44 -26.5t66 -15.5q98 -18 129 -32q70 -33 70 -110q0 -62 -46 -102.5t-127 -44.5l-22 -40q36 0 60.5 -22t24.5 -57
t-24.5 -58.5t-60.5 -23.5z" />
    <glyph glyph-name="Scaron" unicode="&#x160;" horiz-adv-x="577" 
d="M407 824l-126 -80l-126 80v50l126 -77l126 77v-50zM294 -10q-121 0 -191.5 54t-83.5 161h53q10 -81 67.5 -124t154.5 -42q95 0 145.5 39t50.5 108q0 21 -7 38.5t-15 30t-27.5 23t-31.5 16.5t-40.5 13t-41 9.5t-45.5 8.5q-44 8 -69 14t-61 20t-55 31.5t-33.5 48
t-14.5 70.5q0 82 62 132t165 50q109 0 175 -53t72 -144h-52q-7 63 -57.5 105.5t-140.5 42.5q-81 0 -127 -37t-46 -97q0 -28 12 -49.5t27 -34t47.5 -23.5t52 -15t61.5 -12q34 -6 51.5 -9.5t48 -12t46.5 -17t37.5 -23t32.5 -31.5t19 -42t8 -55q0 -85 -63.5 -139.5
t-185.5 -54.5z" />
    <glyph glyph-name="scaron" unicode="&#x161;" horiz-adv-x="448" 
d="M350 639l-126 -80l-126 80v50l126 -77l126 77v-50zM25 152h50q7 -54 47.5 -83.5t111.5 -29.5q68 0 104 26t36 72q0 42 -34 63t-82.5 29t-97 17.5t-82.5 39.5t-34 84q0 62 48 100t128 38q83 0 133 -40t55 -108h-49q-4 43 -39.5 72.5t-100.5 29.5q-59 0 -92 -24.5
t-33 -65.5q0 -34 24.5 -54.5t61 -27t79 -15.5t79 -19.5t61 -40t24.5 -76.5q0 -65 -51 -106t-139 -41q-91 0 -145 41t-63 119z" />
    <glyph glyph-name="uni0162" unicode="&#x162;" horiz-adv-x="529" 
d="M259 -209q-37 0 -61.5 20.5t-28.5 57.5h45q6 -37 45 -37q19 0 31 11.5t12 29.5q0 17 -12.5 28t-33.5 11h-66l48 88v636h-223v49h499v-49h-223v-636h-6l-26 -48q36 0 60.5 -22t24.5 -57t-24.5 -58.5t-60.5 -23.5z" />
    <glyph glyph-name="uni0163" unicode="&#x163;" horiz-adv-x="307" 
d="M208 -209q-37 0 -61.5 20.5t-28.5 57.5h45q6 -37 45 -37q19 0 31 11.5t12 29.5q0 17 -12.5 28t-33.5 11h-66l52 95q-96 30 -96 145v304h-75v44h75v145h48v-145h139v-44h-139v-304q0 -57 29.5 -81t70.5 -24h38v-47h-47l-26 -48q36 0 60.5 -22t24.5 -57t-24.5 -58.5
t-60.5 -23.5z" />
    <glyph glyph-name="Tcaron" unicode="&#x164;" horiz-adv-x="529" 
d="M391 824l-126 -80l-126 80v50l126 -77l126 77v-50zM291 0h-53v636h-223v49h499v-49h-223v-636z" />
    <glyph glyph-name="tcaron" unicode="&#x165;" horiz-adv-x="307" 
d="M265 647l-19 -76h-27l17 72h-21v58h50v-54zM143 500h139v-44h-139v-304q0 -57 29.5 -81t70.5 -24h38v-47h-39q-59 0 -103 37t-44 115v304h-75v44h75v145h48v-145z" />
    <glyph glyph-name="Tbar" unicode="&#x166;" horiz-adv-x="529" 
d="M459 318h-168v-318h-53v318h-168v46h168v272h-223v49h499v-49h-223v-272h168v-46z" />
    <glyph glyph-name="tbar" unicode="&#x167;" horiz-adv-x="307" 
d="M143 456v-146h139v-46h-139v-112q0 -57 29.5 -81t70.5 -24h38v-47h-39q-59 0 -103 37t-44 115v112h-75v46h75v146h-75v44h75v145h48v-145h139v-44h-139z" />
    <glyph glyph-name="Utilde" unicode="&#x168;" horiz-adv-x="628" 
d="M252 849q28 0 68 -18.5t62 -18.5q41 0 72 38v-42q-31 -44 -78 -44q-28 0 -68.5 19t-61.5 19q-41 0 -72 -38v42q30 43 78 43zM314 -10q-120 0 -191.5 74t-71.5 200v421h53v-416q0 -109 55.5 -169t154.5 -60t154.5 60t55.5 169v416h53v-421q0 -126 -71.5 -200t-191.5 -74z
" />
    <glyph glyph-name="utilde" unicode="&#x169;" 
d="M183 664q28 0 68 -18.5t62 -18.5q41 0 72 38v-42q-31 -44 -78 -44q-28 0 -68.5 19t-61.5 19q-41 0 -72 -38v42q30 43 78 43zM450 0h-49v76q-20 -35 -62.5 -59.5t-104.5 -24.5q-88 0 -141 55t-53 147v306h49v-300q0 -76 39.5 -118.5t110.5 -42.5q74 0 118 47t44 128v286
h49v-500z" />
    <glyph glyph-name="Umacron" unicode="&#x16a;" horiz-adv-x="628" 
d="M440 802h-252v44h252v-44zM314 -10q-120 0 -191.5 74t-71.5 200v421h53v-416q0 -109 55.5 -169t154.5 -60t154.5 60t55.5 169v416h53v-421q0 -126 -71.5 -200t-191.5 -74z" />
    <glyph glyph-name="umacron" unicode="&#x16b;" 
d="M371 617h-252v44h252v-44zM450 0h-49v76q-20 -35 -62.5 -59.5t-104.5 -24.5q-88 0 -141 55t-53 147v306h49v-300q0 -76 39.5 -118.5t110.5 -42.5q74 0 118 47t44 128v286h49v-500z" />
    <glyph glyph-name="Ubreve" unicode="&#x16c;" horiz-adv-x="628" 
d="M314 810q75 0 133 60v-46q-45 -60 -133 -60t-133 60v46q58 -60 133 -60zM314 -10q-120 0 -191.5 74t-71.5 200v421h53v-416q0 -109 55.5 -169t154.5 -60t154.5 60t55.5 169v416h53v-421q0 -126 -71.5 -200t-191.5 -74z" />
    <glyph glyph-name="ubreve" unicode="&#x16d;" 
d="M245 625q75 0 133 60v-46q-45 -60 -133 -60t-133 60v46q58 -60 133 -60zM450 0h-49v76q-20 -35 -62.5 -59.5t-104.5 -24.5q-88 0 -141 55t-53 147v306h49v-300q0 -76 39.5 -118.5t110.5 -42.5q74 0 118 47t44 128v286h49v-500z" />
    <glyph glyph-name="Uring" unicode="&#x16e;" horiz-adv-x="628" 
d="M313 915q37 0 62 -24.5t25 -60.5t-25 -61t-62 -25t-62 25t-25 61t25 60.5t62 24.5zM313 879q-22 0 -35.5 -14t-13.5 -35t14 -35.5t35 -14.5t35 14.5t14 35.5t-13.5 35t-35.5 14zM314 -10q-120 0 -191.5 74t-71.5 200v421h53v-416q0 -109 55.5 -169t154.5 -60t154.5 60
t55.5 169v416h53v-421q0 -126 -71.5 -200t-191.5 -74z" />
    <glyph glyph-name="uring" unicode="&#x16f;" 
d="M244 730q37 0 62 -24.5t25 -60.5t-25 -61t-62 -25t-62 25t-25 61t25 60.5t62 24.5zM244 694q-22 0 -35.5 -14t-13.5 -35t14 -35.5t35 -14.5t35 14.5t14 35.5t-13.5 35t-35.5 14zM450 0h-49v76q-20 -35 -62.5 -59.5t-104.5 -24.5q-88 0 -141 55t-53 147v306h49v-300
q0 -76 39.5 -118.5t110.5 -42.5q74 0 118 47t44 128v286h49v-500z" />
    <glyph glyph-name="Uhungarumlaut" unicode="&#x170;" horiz-adv-x="628" 
d="M384 743h-43l54 147h47zM284 743h-45l47 147h49zM314 -10q-120 0 -191.5 74t-71.5 200v421h53v-416q0 -109 55.5 -169t154.5 -60t154.5 60t55.5 169v416h53v-421q0 -126 -71.5 -200t-191.5 -74z" />
    <glyph glyph-name="uhungarumlaut" unicode="&#x171;" 
d="M315 558h-43l54 147h47zM215 558h-45l47 147h49zM450 0h-49v76q-20 -35 -62.5 -59.5t-104.5 -24.5q-88 0 -141 55t-53 147v306h49v-300q0 -76 39.5 -118.5t110.5 -42.5q74 0 118 47t44 128v286h49v-500z" />
    <glyph glyph-name="Uogonek" unicode="&#x172;" horiz-adv-x="628" 
d="M357 -176q-44 0 -71.5 21.5t-27.5 58.5q0 56 53 86q-119 1 -189.5 75t-70.5 199v421h53v-416q0 -109 55.5 -169t154.5 -60t154.5 60t55.5 169v416h53v-421q0 -106 -52.5 -176.5t-143.5 -90.5q-71 -30 -71 -87q0 -20 14.5 -31.5t39.5 -11.5q17 0 32.5 4t23.5 8l7 4v-40
q-25 -19 -70 -19z" />
    <glyph glyph-name="uogonek" unicode="&#x173;" 
d="M462 -157q-23 -19 -65 -19t-68 21.5t-26 58.5q0 40 25 71t73 44v57q-20 -35 -62.5 -59.5t-104.5 -24.5q-88 0 -141 55t-53 147v306h49v-300q0 -76 39.5 -118.5t110.5 -42.5q74 0 118 47t44 128v286h49v-500h-26q-33 -12 -51 -36.5t-18 -53.5q0 -20 13 -31.5t36 -11.5
q16 0 30.5 4t21.5 8l6 4v-40z" />
    <glyph glyph-name="Wcircumflex" unicode="&#x174;" horiz-adv-x="894" 
d="M573 800v-50l-126 77l-126 -77v50l126 80zM621 0l-176 603l-175 -603h-57l-193 685h54l170 -611l176 611h55l176 -610l170 610h53l-196 -685h-57z" />
    <glyph glyph-name="wcircumflex" unicode="&#x175;" horiz-adv-x="749" 
d="M501 615v-50l-126 77l-126 -77v50l126 80zM507 0l-133 434l-149 -434h-62l-143 500h55l121 -439l149 439h62l134 -440l135 440h53l-160 -500h-62z" />
    <glyph glyph-name="Ycircumflex" unicode="&#x176;" horiz-adv-x="583" 
d="M418 800v-50l-126 77l-126 -77v50l126 80zM318 0h-53v305l-245 380h63l209 -332l209 332h62l-245 -378v-307z" />
    <glyph glyph-name="ycircumflex" unicode="&#x177;" horiz-adv-x="473" 
d="M370 615v-50l-126 77l-126 -77v50l126 80zM458 500l-183 -488q-35 -98 -86 -142t-128 -44h-19v47h18q57 0 95 32t67 107l-207 488h55l180 -424l155 424h53z" />
    <glyph glyph-name="Ydieresis" unicode="&#x178;" horiz-adv-x="583" 
d="M387 818h-48v52h48v-52zM245 818h-48v52h48v-52zM318 0h-53v305l-245 380h63l209 -332l209 332h62l-245 -378v-307z" />
    <glyph glyph-name="Zacute" unicode="&#x179;" horiz-adv-x="580" 
d="M383 834l-192 -59v45l192 64v-50zM541 637l-458 -588h482v-49h-549v48l459 588h-439v49h505v-48z" />
    <glyph glyph-name="zacute" unicode="&#x17a;" horiz-adv-x="471" 
d="M329 649l-192 -59v45l192 64v-50zM425 456l-331 -412h347v-44h-411v44l332 412h-319v44h382v-44z" />
    <glyph glyph-name="Zdotaccent" unicode="&#x17b;" horiz-adv-x="580" 
d="M314 818h-48v52h48v-52zM541 637l-458 -588h482v-49h-549v48l459 588h-439v49h505v-48z" />
    <glyph glyph-name="zdotaccent" unicode="&#x17c;" horiz-adv-x="471" 
d="M260 633h-48v52h48v-52zM425 456l-331 -412h347v-44h-411v44l332 412h-319v44h382v-44z" />
    <glyph glyph-name="Zcaron" unicode="&#x17d;" horiz-adv-x="580" 
d="M416 824l-126 -80l-126 80v50l126 -77l126 77v-50zM541 637l-458 -588h482v-49h-549v48l459 588h-439v49h505v-48z" />
    <glyph glyph-name="zcaron" unicode="&#x17e;" horiz-adv-x="471" 
d="M362 639l-126 -80l-126 80v50l126 -77l126 77v-50zM425 456l-331 -412h347v-44h-411v44l332 412h-319v44h382v-44z" />
    <glyph glyph-name="uni0192" unicode="&#x192;" horiz-adv-x="302" 
d="M276 638h-32q-40 0 -68 -24t-28 -81v-33h129v-44h-129v-475q0 -77 -42 -116.5t-96 -39.5v49q90 0 90 107v475h-75v44h75v33q0 79 42 115.5t101 36.5h33v-47z" />
    <glyph glyph-name="uni0218" unicode="&#x218;" horiz-adv-x="577" 
d="M294 -10q-121 0 -191.5 54t-83.5 161h53q10 -81 67.5 -124t154.5 -42q95 0 145.5 39t50.5 108q0 21 -7 38.5t-15 30t-27.5 23t-31.5 16.5t-40.5 13t-41 9.5t-45.5 8.5q-44 8 -69 14t-61 20t-55 31.5t-33.5 48t-14.5 70.5q0 82 62 132t165 50q109 0 175 -53t72 -144h-52
q-7 63 -57.5 105.5t-140.5 42.5q-81 0 -127 -37t-46 -97q0 -28 12 -49.5t27 -34t47.5 -23.5t52 -15t61.5 -12q34 -6 51.5 -9.5t48 -12t46.5 -17t37.5 -23t32.5 -31.5t19 -42t8 -55q0 -85 -63.5 -139.5t-185.5 -54.5zM319 -117l-19 -76h-27l17 72h-21v58h50v-54z" />
    <glyph glyph-name="uni0219" unicode="&#x219;" horiz-adv-x="448" 
d="M25 152h50q7 -54 47.5 -83.5t111.5 -29.5q68 0 104 26t36 72q0 42 -34 63t-82.5 29t-97 17.5t-82.5 39.5t-34 84q0 62 48 100t128 38q83 0 133 -40t55 -108h-49q-4 43 -39.5 72.5t-100.5 29.5q-59 0 -92 -24.5t-33 -65.5q0 -34 24.5 -54.5t61 -27t79 -15.5t79 -19.5
t61 -40t24.5 -76.5q0 -65 -51 -106t-139 -41q-91 0 -145 41t-63 119zM257 -117l-19 -76h-27l17 72h-21v58h50v-54z" />
    <glyph glyph-name="uni021A" unicode="&#x21a;" horiz-adv-x="529" 
d="M291 0h-53v636h-223v49h499v-49h-223v-636zM290 -117l-19 -76h-27l17 72h-21v58h50v-54z" />
    <glyph glyph-name="uni021B" unicode="&#x21b;" horiz-adv-x="307" 
d="M143 500h139v-44h-139v-304q0 -57 29.5 -81t70.5 -24h38v-47h-39q-59 0 -103 37t-44 115v304h-75v44h75v145h48v-145zM215 -117l-19 -76h-27l17 72h-21v58h50v-54z" />
    <glyph glyph-name="uni0237" unicode="&#x237;" horiz-adv-x="129" 
d="M89 500v-521q0 -78 -41 -115t-98 -37v47q38 0 64 24t26 81v521h49z" />
    <glyph glyph-name="circumflex" unicode="&#x2c6;" horiz-adv-x="400" 
d="M326 615v-50l-126 77l-126 -77v50l126 80z" />
    <glyph glyph-name="caron" unicode="&#x2c7;" horiz-adv-x="400" 
d="M326 639l-126 -80l-126 80v50l126 -77l126 77v-50z" />
    <glyph glyph-name="breve" unicode="&#x2d8;" horiz-adv-x="400" 
d="M200 625q75 0 133 60v-46q-45 -60 -133 -60t-133 60v46q58 -60 133 -60z" />
    <glyph glyph-name="dotaccent" unicode="&#x2d9;" horiz-adv-x="400" 
d="M224 633h-48v52h48v-52z" />
    <glyph glyph-name="ring" unicode="&#x2da;" horiz-adv-x="400" 
d="M199 730q37 0 62 -24.5t25 -60.5t-25 -61t-62 -25t-62 25t-25 61t25 60.5t62 24.5zM199 694q-22 0 -35.5 -14t-13.5 -35t14 -35.5t35 -14.5t35 14.5t14 35.5t-13.5 35t-35.5 14z" />
    <glyph glyph-name="ogonek" unicode="&#x2db;" horiz-adv-x="400" 
d="M244 14l7 -14q-79 -29 -79 -90q0 -20 14.5 -31.5t39.5 -11.5q17 0 32.5 4t23.5 8l7 4v-40q-25 -19 -70 -19q-44 0 -71.5 21.5t-27.5 58.5q0 35 23 61.5t56 35.5z" />
    <glyph glyph-name="tilde" unicode="&#x2dc;" horiz-adv-x="400" 
d="M138 664q28 0 68 -18.5t62 -18.5q41 0 72 38v-42q-31 -44 -78 -44q-28 0 -68.5 19t-61.5 19q-41 0 -72 -38v42q30 43 78 43z" />
    <glyph glyph-name="hungarumlaut" unicode="&#x2dd;" horiz-adv-x="400" 
d="M298 558h-43l54 147h47zM198 558h-45l47 147h49z" />
    <glyph glyph-name="uni04D9" unicode="&#x4d9;" horiz-adv-x="559" 
d="M43 383q76 125 231 125q113 0 186.5 -74t73.5 -184q0 -109 -73.5 -183t-182.5 -74t-181 71.5t-72 170.5l2 33h455q-6 89 -65 140.5t-143 51.5q-130 0 -193 -103zM278 40q78 0 136.5 50.5t67.5 132.5h-406q7 -83 65 -133t137 -50z" />
    <glyph glyph-name="Wgrave" unicode="&#x1e80;" horiz-adv-x="894" 
d="M541 820v-45l-192 59v50zM621 0l-176 603l-175 -603h-57l-193 685h54l170 -611l176 611h55l176 -610l170 610h53l-196 -685h-57z" />
    <glyph glyph-name="wgrave" unicode="&#x1e81;" horiz-adv-x="749" 
d="M469 635v-45l-192 59v50zM507 0l-133 434l-149 -434h-62l-143 500h55l121 -439l149 439h62l134 -440l135 440h53l-160 -500h-62z" />
    <glyph glyph-name="Wacute" unicode="&#x1e82;" horiz-adv-x="894" 
d="M540 834l-192 -59v45l192 64v-50zM621 0l-176 603l-175 -603h-57l-193 685h54l170 -611l176 611h55l176 -610l170 610h53l-196 -685h-57z" />
    <glyph glyph-name="wacute" unicode="&#x1e83;" horiz-adv-x="749" 
d="M468 649l-192 -59v45l192 64v-50zM507 0l-133 434l-149 -434h-62l-143 500h55l121 -439l149 439h62l134 -440l135 440h53l-160 -500h-62z" />
    <glyph glyph-name="Wdieresis" unicode="&#x1e84;" horiz-adv-x="894" 
d="M542 818h-48v52h48v-52zM400 818h-48v52h48v-52zM621 0l-176 603l-175 -603h-57l-193 685h54l170 -611l176 611h55l176 -610l170 610h53l-196 -685h-57z" />
    <glyph glyph-name="wdieresis" unicode="&#x1e85;" horiz-adv-x="749" 
d="M470 633h-48v52h48v-52zM328 633h-48v52h48v-52zM507 0l-133 434l-149 -434h-62l-143 500h55l121 -439l149 439h62l134 -440l135 440h53l-160 -500h-62z" />
    <glyph glyph-name="Ygrave" unicode="&#x1ef2;" horiz-adv-x="583" 
d="M386 820v-45l-192 59v50zM318 0h-53v305l-245 380h63l209 -332l209 332h62l-245 -378v-307z" />
    <glyph glyph-name="ygrave" unicode="&#x1ef3;" horiz-adv-x="473" 
d="M338 635v-45l-192 59v50zM458 500l-183 -488q-35 -98 -86 -142t-128 -44h-19v47h18q57 0 95 32t67 107l-207 488h55l180 -424l155 424h53z" />
    <glyph glyph-name="uni2002" unicode="&#x2002;" horiz-adv-x="500" 
 />
    <glyph glyph-name="uni2003" unicode="&#x2003;" horiz-adv-x="1000" 
 />
    <glyph glyph-name="uni2008" unicode="&#x2008;" horiz-adv-x="150" 
 />
    <glyph glyph-name="uni2009" unicode="&#x2009;" horiz-adv-x="0" 
 />
    <glyph glyph-name="uni2010" unicode="&#x2010;" horiz-adv-x="100" 
 />
    <glyph glyph-name="figuredash" unicode="&#x2012;" horiz-adv-x="440" 
d="M410 263h-380v46h380v-46z" />
    <glyph glyph-name="endash" unicode="&#x2013;" horiz-adv-x="440" 
d="M410 263h-380v46h380v-46z" />
    <glyph glyph-name="emdash" unicode="&#x2014;" horiz-adv-x="825" 
d="M795 263h-765v46h765v-46z" />
    <glyph glyph-name="quoteleft" unicode="&#x2018;" horiz-adv-x="130" 
d="M40 609l19 76h27l-17 -72h21v-58h-50v54z" />
    <glyph glyph-name="quoteright" unicode="&#x2019;" horiz-adv-x="130" 
d="M90 631l-19 -76h-27l17 72h-21v58h50v-54z" />
    <glyph glyph-name="quotesinglbase" unicode="&#x201a;" horiz-adv-x="130" 
d="M90 4l-19 -76h-27l17 72h-21v58h50v-54z" />
    <glyph glyph-name="quotedblleft" unicode="&#x201c;" horiz-adv-x="218" 
d="M128 609l19 76h27l-17 -72h21v-58h-50v54zM40 609l19 76h27l-17 -72h21v-58h-50v54z" />
    <glyph glyph-name="quotedblright" unicode="&#x201d;" horiz-adv-x="218" 
d="M178 631l-19 -76h-27l17 72h-21v58h50v-54zM90 631l-19 -76h-27l17 72h-21v58h50v-54z" />
    <glyph glyph-name="quotedblbase" unicode="&#x201e;" horiz-adv-x="218" 
d="M178 4l-19 -76h-27l17 72h-21v58h50v-54zM90 4l-19 -76h-27l17 72h-21v58h50v-54z" />
    <glyph glyph-name="dagger" unicode="&#x2020;" horiz-adv-x="420" 
d="M234 437h156v-46h-156v-534h-48v534h-156v46h156v193h48v-193z" />
    <glyph glyph-name="daggerdbl" unicode="&#x2021;" horiz-adv-x="420" 
d="M234 434h156v-46h-156v-280h156v-46h-156v-205h-48v205h-156v46h156v280h-156v46h156v196h48v-196z" />
    <glyph glyph-name="bullet" unicode="&#x2022;" horiz-adv-x="286" 
d="M143 398q48 0 80.5 -32t32.5 -80t-32.5 -80t-80.5 -32t-80.5 32t-32.5 80t32.5 80t80.5 32z" />
    <glyph glyph-name="ellipsis" unicode="&#x2026;" horiz-adv-x="390" 
d="M350 0h-50v58h50v-58zM220 0h-50v58h50v-58zM90 0h-50v58h50v-58z" />
    <glyph glyph-name="guilsinglleft" unicode="&#x2039;" horiz-adv-x="254" 
d="M91 286l123 -204h-51l-123 204l123 204h51z" />
    <glyph glyph-name="guilsinglright" unicode="&#x203a;" horiz-adv-x="254" 
d="M163 286l-123 204h51l123 -204l-123 -204h-51z" />
    <glyph glyph-name="fraction" unicode="&#x2044;" horiz-adv-x="20" 
d="M-103 0h-53l303 685h53z" />
    <glyph glyph-name="Euro" unicode="&#x20ac;" horiz-adv-x="583" 
d="M194 245q-3 -202 153 -202q90 0 140 69l43 -30q-66 -90 -182 -90q-102 0 -155.5 64t-52.5 189h-99v49h99v96h-99v49h99q-2 120 53 187t155 67q116 0 182 -90l-43 -30q-50 69 -140 69q-74 0 -114 -51t-39 -152h204v-49h-204v-96h204v-49h-204z" />
    <glyph glyph-name="trademark" unicode="&#x2122;" horiz-adv-x="859" 
d="M126 582h100v-39h-100v-209q0 -68 72 -68h27v-41h-36q-43 0 -74 26.5t-31 82.5v209h-54v39h54v103h42v-103zM333 582v-52q32 58 109 58q85 0 117 -72q16 31 48 51.5t78 20.5q59 0 96.5 -38.5t37.5 -100.5v-224h-43v217q0 50 -25 77t-70 27q-47 0 -76 -28t-29 -80v-213
h-43v217q0 50 -25 77t-70 27q-50 0 -77.5 -29t-27.5 -84v-208h-43v357h43z" />
    <glyph glyph-name="uni2153" unicode="&#x2153;" horiz-adv-x="672" 
d="M127 0h-53l303 685h53zM111 312h-45v332h-46v41h91v-373zM636 338l-103 -92q55 -6 87 -38.5t32 -82.5q0 -56 -39 -92.5t-102 -36.5q-91 0 -141 81l38 22q39 -60 103 -60q44 0 69.5 24t25.5 61q0 39 -24 60t-69 21q-28 0 -57 -18l-22 29l132 117h-172v41h242v-36z" />
    <glyph glyph-name="uni2154" unicode="&#x2154;" horiz-adv-x="832" 
d="M60 588l-40 21q51 80 140 80q56 0 92 -32t36 -79q0 -38 -19.5 -66t-56.5 -59l-118 -100h197v-41h-266v36l157 135q30 26 43.5 45.5t13.5 49.5t-22 49.5t-57 19.5q-63 0 -100 -59zM287 0h-53l303 685h53zM796 338l-103 -92q55 -6 87 -38.5t32 -82.5q0 -56 -39 -92.5
t-102 -36.5q-91 0 -141 81l38 22q39 -60 103 -60q44 0 69.5 24t25.5 61q0 39 -24 60t-69 21q-28 0 -57 -18l-22 29l132 117h-172v41h242v-36z" />
    <glyph glyph-name="minus" unicode="&#x2212;" horiz-adv-x="440" 
d="M410 263h-380v46h380v-46z" />
    <glyph glyph-name="approxequal" unicode="&#x2248;" horiz-adv-x="440" 
d="M136 407q37 0 91 -22t85 -22t57.5 15.5t40.5 33.5v-50q-13 -19 -41 -35.5t-64 -16.5q-37 0 -91 22t-85 22t-57.5 -15.5t-40.5 -33.5v50q13 19 41 35.5t64 16.5zM136 258q37 0 91 -22t85 -22t57.5 15.5t40.5 33.5v-50q-13 -19 -41 -35.5t-64 -16.5q-37 0 -91 22t-85 22
t-57.5 -15.5t-40.5 -33.5v50q13 19 41 35.5t64 16.5z" />
    <glyph glyph-name="notequal" unicode="&#x2260;" horiz-adv-x="440" 
d="M271 381h139v-46h-151l-27 -103h178v-46h-190l-34 -127h-48l34 127h-142v46h154l27 103h-181v46h193l35 130h48z" />
    <glyph glyph-name="lessequal" unicode="&#x2264;" horiz-adv-x="440" 
d="M410 490l-334 -137l334 -137v-52l-380 163v52l380 163v-52zM410 0h-380v46h380v-46z" />
    <glyph glyph-name="greaterequal" unicode="&#x2265;" horiz-adv-x="440" 
d="M410 379v-52l-380 -163v52l334 137l-334 137v52zM410 0h-380v46h380v-46z" />
    <glyph glyph-name="uniE001" unicode="&#xe001;" horiz-adv-x="563" 
d="M460 231v383l-249 -383h249zM460 0v181h-281l-118 -181h-61l449 685h64v-685h-53z" />
    <glyph glyph-name="uniE002" unicode="&#xe002;" horiz-adv-x="563" 
d="M351 231l-249 382v-382h249zM501 0l-118 181h-281v-181h-52v685h64l449 -685h-62z" />
    <glyph glyph-name="uniE003" unicode="&#xe003;" horiz-adv-x="559" 
d="M50 0v685h251q94 0 148 -50.5t54 -126.5q0 -48 -26.5 -89.5t-72.5 -62.5q62 -13 96.5 -57t34.5 -102q0 -85 -56 -141t-142 -56h-287zM304 636h-201v-262h197q73 0 111.5 37t38.5 94q0 56 -38.5 93.5t-107.5 37.5zM334 325h-231v-276h227q75 0 113.5 41t38.5 103
q0 56 -38.5 94t-109.5 38z" />
    <glyph glyph-name="uniE004" unicode="&#xe004;" horiz-adv-x="545" 
d="M263 636h-160v-316h156q94 0 144 44t50 112q0 70 -49.5 115t-140.5 45zM461 0l-215 271h-143v-271h-53v685h225q106 0 168.5 -58.5t62.5 -149.5q0 -80 -53.5 -137t-139.5 -67l214 -273h-66z" />
    <glyph glyph-name="uniE005" unicode="&#xe005;" horiz-adv-x="545" 
d="M263 636h-160v-316h156q94 0 144 44t50 112q0 70 -49.5 115t-140.5 45zM486 0l-383 271v-271h-53v685h225q106 0 168.5 -58.5t62.5 -149.5q0 -88 -63 -147t-162 -59h-97l384 -271h-82z" />
    <glyph glyph-name="uniE006" unicode="&#xe006;" horiz-adv-x="900" 
d="M406 0v597l-348 -597h-58l403 685h55v-576l335 576h57v-685h-53v597l-344 -597h-47z" />
    <glyph glyph-name="uniE007" unicode="&#xe007;" horiz-adv-x="900" 
d="M447 0l-345 598v-598h-52v685h58l336 -578v578h53l403 -685h-58l-348 594v-594h-47z" />
    <glyph glyph-name="uniE008" unicode="&#xe008;" horiz-adv-x="563" 
d="M449 0l-449 685h61l400 -613v613h52v-685h-64z" />
    <glyph glyph-name="uniE009" unicode="&#xe009;" horiz-adv-x="563" 
d="M50 0v685h53v-614l399 614h61l-449 -685h-64z" />
    <glyph glyph-name="uniE00A" unicode="&#xe00a;" horiz-adv-x="900" 
d="M791 0l-335 576v-576h-53l-403 685h58l348 -594v594h47l345 -598v598h52v-685h-59z" />
    <glyph glyph-name="uniE00B" unicode="&#xe00b;" horiz-adv-x="900" 
d="M442 0v576l-335 -576h-57v685h53v-597l344 597h47v-597l348 597h58l-403 -685h-55z" />
    <glyph glyph-name="uniE00C" unicode="&#xe00c;" horiz-adv-x="601" 
d="M100 814l-19 -76h-27l17 72h-21v58h50v-54zM495 0l-394 603v-603h-51v685h56l394 -603v603h51v-685h-56z" />
    <glyph glyph-name="uniE00E" unicode="&#xe00e;" horiz-adv-x="438" 
d="M40 0v685h49v-466l255 281h63l-181 -199l187 -301h-57l-166 263l-101 -108v-155h-49z" />
    <glyph glyph-name="uniE011" unicode="&#xe011;" horiz-adv-x="421" 
d="M381 632h-49v53h49v-53zM271 638h-32q-40 0 -68 -24t-28 -81v-33h129v-44h-129v-456h-48v456h-75v44h75v33q0 79 42 115.5t101 36.5h33v-47zM381 0h-49v500h49v-500z" />
    <glyph glyph-name="uniE012" unicode="&#xe012;" horiz-adv-x="421" 
d="M381 0h-49v685h49v-685zM271 638h-32q-40 0 -68 -24t-28 -81v-33h129v-44h-129v-456h-48v456h-75v44h75v33q0 79 42 115.5t101 36.5h33v-47z" />
    <glyph glyph-name="uniE013" unicode="&#xe013;" horiz-adv-x="540" 
d="M38 222v238q0 99 67 165.5t166 66.5q98 0 164.5 -66.5t66.5 -165.5v-238q0 -100 -66.5 -166.5t-164.5 -66.5q-99 0 -166 66.5t-67 166.5zM90 222q0 -78 47 -128l227 526q-43 24 -93 24q-79 0 -130 -52t-51 -132v-238zM271 37q77 0 128 52.5t51 132.5v238q0 76 -47 128
l-227 -526q42 -25 95 -25z" />
    <glyph glyph-name="uniE014" unicode="&#xe014;" horiz-adv-x="523" 
d="M411 687l-327 -476h272v225h50v-225h91v-48h-91v-163h-50v163h-331v48l331 476h55z" />
    <glyph glyph-name="uniE015" unicode="&#xe015;" horiz-adv-x="495" 
d="M35 203v217q0 91 61 152t152 61q90 0 151 -61t61 -152v-217q0 -91 -61 -152t-151 -61q-91 0 -152 61t-61 152zM411 203v217q0 73 -46 120t-117 47t-117.5 -47t-46.5 -120v-217q0 -73 46.5 -120t117.5 -47t117 47t46 120z" />
    <glyph glyph-name="uniE016" unicode="&#xe016;" horiz-adv-x="192" 
d="M152 0h-48v581h-74v45h122v-626z" />
    <glyph glyph-name="uniE017" unicode="&#xe017;" horiz-adv-x="466" 
d="M436 0h-405v44l248 230q52 47 75 84.5t23 94.5q0 58 -38.5 95.5t-102.5 37.5q-60 0 -98 -24.5t-68 -74.5l-40 24q72 122 206 122q85 0 139 -52t54 -128q0 -66 -28 -110.5t-89 -100.5l-213 -198h337v-44z" />
    <glyph glyph-name="uniE018" unicode="&#xe018;" horiz-adv-x="476" 
d="M230 -6q-138 0 -210 122l41 25q30 -50 69.5 -75t99.5 -25q76 0 121 45t45 118q0 75 -42.5 115t-120.5 40q-51 0 -90 -27l-21 31l231 220h-298v44h363v-44l-184 -178q100 -1 156 -55.5t56 -144.5q0 -91 -60 -151t-156 -60z" />
    <glyph glyph-name="uniE019" unicode="&#xe019;" horiz-adv-x="480" 
d="M374 194h82v-46h-82v-148h-48v148h-303v46l302 434h49v-434zM79 194h247v358z" />
    <glyph glyph-name="uniE01A" unicode="&#xe01a;" horiz-adv-x="476" 
d="M230 -6q-138 0 -210 122l40 24q59 -99 170 -99q76 0 121 46t45 119q0 75 -41.5 115.5t-118.5 40.5q-89 0 -144 -76l-46 16l63 324h300v-46h-262l-45 -222q53 51 138 51q96 0 151 -55t55 -147q0 -91 -60 -152t-156 -61z" />
    <glyph glyph-name="uniE01B" unicode="&#xe01b;" horiz-adv-x="496" 
d="M248 -8q-93 0 -155.5 62.5t-62.5 154.5q0 73 39 135l178 283h54l-139 -218q38 19 90 19q93 0 153.5 -62.5t60.5 -156.5q0 -92 -63 -154.5t-155 -62.5zM248 38q73 0 121.5 49t48.5 122q0 74 -48.5 123.5t-121.5 49.5t-121 -49.5t-48 -123.5q0 -73 48 -122t121 -49z" />
    <glyph glyph-name="uniE01C" unicode="&#xe01c;" horiz-adv-x="428" 
d="M408 582l-258 -582h-54l258 580h-334v46h388v-44z" />
    <glyph glyph-name="uniE01D" unicode="&#xe01d;" horiz-adv-x="461" 
d="M230 -10q-83 0 -141.5 54.5t-58.5 136.5q0 55 31 99.5t84 68.5q-37 21 -58 55t-21 74q0 67 48 111t116 44q69 0 117 -44t48 -111q0 -84 -80 -129q53 -23 84.5 -68t31.5 -100q0 -82 -58.5 -136.5t-142.5 -54.5zM230 368q49 0 82 32t33 78q0 48 -33.5 79.5t-81.5 31.5
t-81 -31.5t-33 -79.5q0 -46 33.5 -78t80.5 -32zM230 35q64 0 107.5 41.5t43.5 104.5q0 61 -43.5 102.5t-107.5 41.5q-63 0 -106.5 -41.5t-43.5 -102.5q0 -63 43 -104.5t107 -41.5z" />
    <glyph glyph-name="uniE01E" unicode="&#xe01e;" horiz-adv-x="496" 
d="M249 0h-54l139 218q-38 -19 -90 -19q-93 0 -153.5 62.5t-60.5 156.5q0 92 63 154.5t155 62.5q93 0 155.5 -62.5t62.5 -154.5q0 -73 -39 -135zM248 245q73 0 121 49.5t48 123.5q0 73 -48 122t-121 49t-121.5 -49t-48.5 -122q0 -74 48.5 -123.5t121.5 -49.5z" />
    <glyph glyph-name="uniE01F" unicode="&#xe01f;" horiz-adv-x="495" 
d="M35 203v217q0 91 61 152t152 61q90 0 151 -61t61 -152v-217q0 -91 -61 -152t-151 -61q-91 0 -152 61t-61 152zM84 420v-217q0 -68 41 -114l205 477q-36 21 -82 21q-71 0 -117.5 -47t-46.5 -120zM411 203v217q0 68 -42 115l-205 -478q39 -21 84 -21q71 0 117 47t46 120z
" />
    <glyph glyph-name="uniE020" unicode="&#xe020;" horiz-adv-x="480" 
d="M456 148h-82v-148h-48v148h-303v46l302 434h52l-298 -434h247v193h48v-193h82v-46z" />
    <glyph glyph-name="uniE021" unicode="&#xe021;" horiz-adv-x="350" 
d="M24 163v296q0 83 43 128.5t109 45.5q64 0 107.5 -45.5t43.5 -128.5v-296q0 -83 -43.5 -128.5t-107.5 -45.5q-66 0 -109 45.5t-43 128.5zM279 165v290q0 61 -29 96.5t-75 35.5t-74.5 -35t-28.5 -96v-291q0 -61 28 -95.5t75 -34.5q46 0 75 34.5t29 95.5z" />
    <glyph glyph-name="uniE022" unicode="&#xe022;" horiz-adv-x="139" 
d="M99 0h-48v580h-50v46h98v-626z" />
    <glyph glyph-name="uniE023" unicode="&#xe023;" horiz-adv-x="350" 
d="M317 0h-283v45l178 277q53 82 53 159q0 50 -27 78t-65 28q-43 0 -71.5 -33t-28.5 -96h-48q-2 83 40.5 129t109.5 46q64 0 101.5 -40t37.5 -111q0 -90 -66 -192l-159 -244h228v-46z" />
    <glyph glyph-name="uniE024" unicode="&#xe024;" horiz-adv-x="350" 
d="M177 -11q-70 0 -113 47.5t-42 136.5h48q0 -69 29 -103.5t75 -34.5q47 0 75.5 34t28.5 95v60q0 130 -99 130q-48 0 -71 -28l-32 27l166 227h-208v46h268v-37l-138 -190q82 11 122 -36.5t40 -137.5v-64q0 -80 -42.5 -126t-106.5 -46z" />
    <glyph glyph-name="uniE025" unicode="&#xe025;" horiz-adv-x="350" 
d="M271 194h57v-46h-57v-148h-48v148h-207v46l210 434h45v-434zM62 194h161v334z" />
    <glyph glyph-name="uniE026" unicode="&#xe026;" horiz-adv-x="350" 
d="M173 -10q-69 0 -109.5 43.5t-39.5 124.5h48q-1 -61 27.5 -91.5t73.5 -30.5q47 0 75 33t28 94v72q0 128 -103 128q-34 0 -58.5 -17.5t-33.5 -44.5h-48l2 325h257v-46h-209l-2 -207q40 37 104 37q139 0 139 -179v-70q0 -81 -43 -126t-108 -45z" />
    <glyph glyph-name="uniE027" unicode="&#xe027;" horiz-adv-x="350" 
d="M177 -7q-68 0 -110.5 44.5t-42.5 123.5v62q0 52 10 89.5t34 90.5l103 223h53l-109 -234q29 21 77 21q59 0 98.5 -43.5t39.5 -116.5v-92q0 -79 -42.5 -123.5t-110.5 -44.5zM282 162v80q0 60 -26.5 92.5t-73.5 32.5q-50 0 -80 -36t-30 -99v-67q0 -60 29 -93t76 -33t76 32.5
t29 90.5z" />
    <glyph glyph-name="uniE028" unicode="&#xe028;" horiz-adv-x="350" 
d="M319 583l-180 -583h-52l186 580h-233v46h279v-43z" />
    <glyph glyph-name="uniE029" unicode="&#xe029;" horiz-adv-x="350" 
d="M175 -7q-68 0 -109.5 42t-41.5 121v38q0 110 75 148q-59 38 -59 119v27q0 70 38 107.5t97 37.5t97 -37t38 -106v-29q0 -82 -58 -119q74 -39 74 -146v-40q0 -79 -41.5 -121t-109.5 -42zM175 587q-38 0 -62.5 -24t-24.5 -73v-29q0 -48 24.5 -73.5t62.5 -25.5t62.5 25.5
t24.5 72.5v29q0 50 -24.5 74t-62.5 24zM175 316q-47 0 -75 -29.5t-28 -90.5v-40q0 -57 28 -87t75 -30t75 29.5t28 86.5v40q0 61 -28 91t-75 30z" />
    <glyph glyph-name="uniE02A" unicode="&#xe02a;" horiz-adv-x="350" 
d="M181 0h-53l109 235q-29 -21 -77 -21q-59 0 -98.5 43.5t-39.5 116.5v92q0 79 42.5 123.5t110.5 44.5t110.5 -44.5t42.5 -123.5v-62q0 -52 -10 -89.5t-34 -90.5zM70 465v-80q0 -60 26.5 -92.5t73.5 -32.5q50 0 80 36t30 99v67q0 60 -29 93t-76 33t-76 -32.5t-29 -90.5z" />
    <glyph glyph-name="uniE02B" unicode="&#xe02b;" horiz-adv-x="350" 
d="M24 163v296q0 83 43 128.5t109 45.5q64 0 107.5 -45.5t43.5 -128.5v-296q0 -83 -43.5 -128.5t-107.5 -45.5q-66 0 -109 45.5t-43 128.5zM72 165q0 -39 13 -70l145 475q-25 17 -55 17q-46 0 -74.5 -35t-28.5 -96v-291zM175 35q46 0 75 34.5t29 95.5v290q0 43 -15 73
l-145 -476q25 -17 56 -17z" />
    <glyph glyph-name="uniE02C" unicode="&#xe02c;" horiz-adv-x="350" 
d="M35 0v46h117v534h-97v46h145v-580h117v-46h-282z" />
    <glyph glyph-name="uniE02D" unicode="&#xe02d;" horiz-adv-x="350" 
d="M175 -11q-69 0 -112 47t-42 137h48q1 -71 29 -104.5t76 -33.5q49 0 76 33t27 95v18q0 64 -29.5 97.5t-83.5 33.5h-50v46h48q46 0 75 28t29 77v22q0 50 -25 76t-65 26q-100 0 -103 -128h-48q-1 86 43 130t109 44t101 -39.5t36 -107.5v-22q0 -88 -67 -129q78 -39 78 -153
v-15q0 -87 -40 -132.5t-110 -45.5z" />
    <glyph glyph-name="uniE02E" unicode="&#xe02e;" horiz-adv-x="350" 
d="M177 -11q-70 0 -113 47.5t-42 136.5h48q0 -69 29 -103.5t75 -34.5q47 0 75.5 34t28.5 95v56q0 117 -107 117h-92l165 243h-210v46h271v-41l-136 -199q82 -1 119.5 -43t37.5 -124v-58q0 -80 -42.5 -126t-106.5 -46z" />
    <glyph glyph-name="uniE02F" unicode="&#xe02f;" horiz-adv-x="350" 
d="M330 159q0 -79 -42.5 -122.5t-109.5 -43.5t-110.5 45t-43.5 123v294q0 85 41.5 131t107.5 46t105.5 -39.5t38.5 -114.5h-49q0 54 -26 81t-67 27q-45 0 -74 -34.5t-29 -99.5v-95q41 54 111 54q68 0 107.5 -43.5t39.5 -118.5v-90zM178 365q-46 0 -76 -34t-30 -90v-79
q0 -57 30 -90t76 -33t75 32.5t29 89.5v79q0 60 -29 92.5t-75 32.5z" />
    <glyph glyph-name="uniE030" unicode="&#xe030;" horiz-adv-x="350" 
d="M173 260q46 0 76 34t30 90v79q0 57 -30 90t-76 33t-75 -32.5t-29 -89.5v-79q0 -60 29 -92.5t75 -32.5zM178 -7q-66 0 -105.5 39.5t-38.5 114.5h49q0 -54 26 -81t67 -27q45 0 74 34.5t29 99.5v95q-41 -54 -111 -54q-68 0 -107.5 43.5t-39.5 118.5v90q0 79 42.5 122.5
t109.5 43.5t110.5 -45t43.5 -123v-294q0 -85 -41.5 -131t-107.5 -46z" />
    <glyph glyph-name="uniE031" unicode="&#xe031;" horiz-adv-x="350" 
d="M274 628l-207 -434h156v138h48v-138h57v-46h-57v-148h-48v148h-207v46l210 434h48z" />
    <glyph glyph-name="uniE032" unicode="&#xe032;" horiz-adv-x="380" 
d="M26 178v323q0 91 47 140.5t118 49.5q70 0 117 -49.5t47 -140.5v-323q0 -90 -47 -140t-117 -50q-71 0 -118 49.5t-47 140.5zM306 180v317q0 69 -32.5 108t-83.5 39t-82.5 -39t-31.5 -107v-318q0 -69 31 -107t83 -38q51 0 83.5 38.5t32.5 106.5z" />
    <glyph glyph-name="uniE033" unicode="&#xe033;" horiz-adv-x="149" 
d="M105 0h-49v638h-55v47h104v-685z" />
    <glyph glyph-name="uniE034" unicode="&#xe034;" horiz-adv-x="380" 
d="M344 0h-307v46l195 305q58 90 58 175q0 55 -29.5 86.5t-72.5 31.5q-48 0 -79.5 -36.5t-31.5 -106.5h-50q-2 90 44 140t119 50q70 0 110.5 -43.5t40.5 -120.5q0 -97 -72 -208l-176 -272h251v-47z" />
    <glyph glyph-name="uniE035" unicode="&#xe035;" horiz-adv-x="380" 
d="M192 -12q-76 0 -122.5 51.5t-45.5 148.5h49q0 -76 32.5 -114t83.5 -38q53 0 84.5 37.5t31.5 105.5v64q0 145 -111 145q-52 0 -78 -31l-32 28l182 252h-229v48h291v-38l-153 -212q90 12 134.5 -40t44.5 -151v-68q0 -87 -46 -137.5t-116 -50.5z" />
    <glyph glyph-name="uniE036" unicode="&#xe036;" horiz-adv-x="380" 
d="M293 210h63v-47h-63v-163h-49v163h-227v47l231 476h45v-476zM64 210h180v372z" />
    <glyph glyph-name="uniE037" unicode="&#xe037;" horiz-adv-x="380" 
d="M188 -11q-76 0 -121 48t-44 135h50q-1 -68 31 -101.5t84 -33.5q53 0 84 37t31 104v77q0 143 -115 143q-37 0 -63.5 -18.5t-37.5 -48.5h-50l2 354h278v-48h-228l-2 -232q41 42 113 42q152 0 152 -196v-75q0 -88 -46.5 -137.5t-117.5 -49.5z" />
    <glyph glyph-name="uniE038" unicode="&#xe038;" horiz-adv-x="380" 
d="M192 -7q-73 0 -119.5 48t-46.5 135v67q0 57 11 97t37 99l114 246h55l-120 -259q32 25 85 25q65 0 108 -48t43 -128v-99q0 -87 -46.5 -135t-120.5 -48zM309 177v87q0 67 -29.5 103t-81.5 36q-55 0 -88.5 -40t-33.5 -111v-72q0 -67 32.5 -103.5t83.5 -36.5q53 0 85 36
t32 101z" />
    <glyph glyph-name="uniE039" unicode="&#xe039;" horiz-adv-x="380" 
d="M346 641l-197 -641h-54l204 637h-256v48h303v-44z" />
    <glyph glyph-name="uniE03A" unicode="&#xe03a;" horiz-adv-x="380" 
d="M190 -7q-73 0 -118.5 46t-45.5 131v41q0 123 84 163q-66 40 -66 130v30q0 75 41.5 116t104.5 41q64 0 105.5 -40.5t41.5 -114.5v-32q0 -90 -66 -130q83 -41 83 -161v-43q0 -86 -45.5 -131.5t-118.5 -45.5zM190 644q-42 0 -69.5 -27t-27.5 -81v-32q0 -53 27.5 -81.5
t69.5 -28.5t69.5 28.5t27.5 80.5v32q0 55 -27.5 82t-69.5 27zM190 347q-52 0 -83 -33.5t-31 -99.5v-44q0 -63 31.5 -96.5t82.5 -33.5q52 0 83.5 33t31.5 96v44q0 67 -31 100.5t-84 33.5z" />
    <glyph glyph-name="uniE03B" unicode="&#xe03b;" horiz-adv-x="380" 
d="M194 0h-54l121 260q-33 -26 -86 -26q-65 0 -108 48t-43 128v99q0 87 46.5 135t119.5 48t119.5 -48t46.5 -135v-67q0 -58 -11 -98.5t-37 -97.5zM73 508v-87q0 -67 29.5 -103t81.5 -36q56 0 89.5 40t33.5 111v72q0 67 -32.5 103.5t-84.5 36.5t-84.5 -36t-32.5 -101z" />
    <glyph glyph-name="uniE03C" unicode="&#xe03c;" horiz-adv-x="380" 
d="M26 178v323q0 91 47 140.5t118 49.5q70 0 117 -49.5t47 -140.5v-323q0 -90 -47 -140t-117 -50q-71 0 -118 49.5t-47 140.5zM76 180q0 -42 13 -76l169 516q-28 24 -68 24q-51 0 -82.5 -39t-31.5 -107v-318zM190 35q51 0 83.5 38.5t32.5 106.5v317q0 44 -14 77l-170 -516
q29 -23 68 -23z" />
    <glyph glyph-name="uniE03D" unicode="&#xe03d;" horiz-adv-x="380" 
d="M38 0v47h128v591h-107v47h156v-638h128v-47h-305z" />
    <glyph glyph-name="uniE03E" unicode="&#xe03e;" horiz-adv-x="380" 
d="M190 -12q-75 0 -121.5 51t-45.5 149h49q1 -78 32.5 -115t84.5 -37q54 0 84.5 36.5t30.5 105.5v19q0 71 -33.5 108.5t-93.5 37.5h-53v47h52q51 0 83.5 31.5t32.5 84.5v25q0 55 -28 84t-72 29q-51 0 -82.5 -34.5t-32.5 -107.5h-50q-1 93 47 141t119 48t109.5 -43t38.5 -117
v-24q0 -94 -72 -140q84 -44 84 -169v-15q0 -95 -43.5 -145t-119.5 -50z" />
    <glyph glyph-name="uniE03F" unicode="&#xe03f;" horiz-adv-x="380" 
d="M192 -12q-76 0 -122.5 51.5t-45.5 148.5h49q0 -76 32.5 -114t83.5 -38q53 0 84.5 37.5t31.5 105.5v60q0 130 -121 130h-98l182 268h-231v48h294v-43l-151 -222q91 0 132.5 -45.5t41.5 -136.5v-61q0 -88 -46 -138.5t-116 -50.5z" />
    <glyph glyph-name="uniE040" unicode="&#xe040;" horiz-adv-x="380" 
d="M359 174q0 -86 -46.5 -133.5t-118.5 -47.5q-74 0 -121 49t-47 134v320q0 93 45.5 143.5t116.5 50.5t114 -43t42 -124h-50q-1 60 -29.5 90t-74.5 30q-50 0 -82 -38.5t-32 -111.5v-105q44 61 122 61q74 0 117.5 -47.5t43.5 -130.5v-97zM194 402q-51 0 -85 -38t-34 -101v-86
q0 -64 34 -100.5t85 -36.5t83 36t32 100v86q0 67 -32 103.5t-83 36.5z" />
    <glyph glyph-name="uniE041" unicode="&#xe041;" horiz-adv-x="380" 
d="M188 281q51 0 84.5 38t33.5 100v87q0 64 -33.5 100.5t-84.5 36.5q-52 0 -84 -36t-32 -100v-87q0 -67 32 -103t84 -36zM193 -7q-71 0 -114 42.5t-42 124.5h51q0 -59 29 -89.5t74 -30.5q51 0 83 38.5t32 111.5v106q-43 -63 -123 -63q-74 0 -117 47.5t-43 130.5v98
q0 86 46.5 133.5t118.5 47.5q73 0 120 -49t47 -134v-320q0 -93 -45 -143.5t-117 -50.5z" />
    <glyph glyph-name="uniE042" unicode="&#xe042;" horiz-adv-x="380" 
d="M296 686l-226 -476h174v154h49v-154h63v-47h-63v-163h-49v163h-227v47l231 476h48z" />
    <glyph glyph-name="uniE043" unicode="&#xe043;" horiz-adv-x="319" 
d="M20 124v124q0 56 40 92.5t101 36.5q59 0 98.5 -36.5t39.5 -92.5v-124q0 -56 -39.5 -93t-98.5 -37q-61 0 -101 37t-40 93zM254 124v124q0 37 -26.5 62t-66.5 25q-41 0 -67.5 -24.5t-26.5 -62.5v-124q0 -38 26.5 -63t67.5 -25q40 0 66.5 25t26.5 63z" />
    <glyph glyph-name="uniE044" unicode="&#xe044;" horiz-adv-x="131" 
d="M111 0h-45v332h-46v41h91v-373z" />
    <glyph glyph-name="uniE045" unicode="&#xe045;" horiz-adv-x="311" 
d="M60 276l-40 21q51 80 140 80q56 0 92 -32t36 -79q0 -38 -19.5 -66t-56.5 -59l-118 -100h197v-41h-266v36l157 135q30 26 43.5 45.5t13.5 49.5t-22 49.5t-57 19.5q-63 0 -100 -59z" />
    <glyph glyph-name="uniE046" unicode="&#xe046;" horiz-adv-x="322" 
d="M286 338l-103 -92q55 -6 87 -38.5t32 -82.5q0 -56 -39 -92.5t-102 -36.5q-91 0 -141 81l38 22q39 -60 103 -60q44 0 69.5 24t25.5 61q0 39 -24 60t-69 21q-28 0 -57 -18l-22 29l132 117h-172v41h242v-36z" />
    <glyph glyph-name="uniE047" unicode="&#xe047;" horiz-adv-x="324" 
d="M253 126h51v-42h-51v-84h-45v84h-188v36l191 255h42v-249zM77 126h131v173z" />
    <glyph glyph-name="uniE048" unicode="&#xe048;" horiz-adv-x="322" 
d="M280 332h-164l-23 -103q35 20 75 20q63 0 98.5 -33t35.5 -90q0 -56 -39 -93t-102 -37q-91 0 -141 81l37 22q38 -60 104 -60q43 0 69 24.5t26 62.5q0 39 -23.5 60t-67.5 21q-53 0 -87 -44l-41 11l42 200h201v-42z" />
    <glyph glyph-name="uniE049" unicode="&#xe049;" horiz-adv-x="326" 
d="M212 374l-82 -118q17 5 35 5q62 0 101.5 -38.5t39.5 -95.5q0 -56 -41 -94t-101 -38q-62 0 -103 38t-41 94q0 43 25 81l113 166h54zM164 218q-42 0 -69.5 -26t-27.5 -65q0 -38 27.5 -64t69.5 -26q41 0 69 26t28 64q0 39 -28 65t-69 26z" />
    <glyph glyph-name="uniE04A" unicode="&#xe04a;" horiz-adv-x="296" 
d="M276 339l-163 -339h-50l160 331h-203v42h256v-34z" />
    <glyph glyph-name="uniE04B" unicode="&#xe04b;" horiz-adv-x="304" 
d="M152 377q46 0 78 -27.5t32 -68.5q0 -46 -41 -73q63 -32 63 -97q0 -50 -38.5 -83.5t-93.5 -33.5t-93.5 33.5t-38.5 83.5q0 65 63 97q-41 26 -41 73q0 41 32.5 68.5t77.5 27.5zM152 337q-26 0 -44.5 -16t-18.5 -40q0 -23 18.5 -39t44.5 -16q27 0 45.5 16t18.5 39
q0 24 -18.5 40t-45.5 16zM152 186q-37 0 -61.5 -21.5t-24.5 -53.5t24.5 -53.5t61.5 -21.5q36 0 61 21.5t25 53.5q0 31 -25 53t-61 22z" />
    <glyph glyph-name="uniE04C" unicode="&#xe04c;" horiz-adv-x="326" 
d="M115 0l81 117q-13 -4 -35 -4q-61 0 -101 38.5t-40 95.5q0 55 42 93.5t102 38.5q61 0 101.5 -38t40.5 -94q0 -45 -25 -82l-113 -165h-53zM164 337q-42 0 -70 -26t-28 -64q0 -39 27.5 -65t70.5 -26q41 0 68.5 26t27.5 65q0 38 -27.5 64t-68.5 26z" />
    <glyph glyph-name="uniE04D" unicode="&#xe04d;" horiz-adv-x="319" 
d="M20 436v124q0 56 40 92.5t101 36.5q59 0 98.5 -36.5t39.5 -92.5v-124q0 -56 -39.5 -93t-98.5 -37q-61 0 -101 37t-40 93zM254 436v124q0 37 -26.5 62t-66.5 25q-41 0 -67.5 -24.5t-26.5 -62.5v-124q0 -38 26.5 -63t67.5 -25q40 0 66.5 25t26.5 63z" />
    <glyph glyph-name="uniE04E" unicode="&#xe04e;" horiz-adv-x="131" 
d="M111 312h-45v332h-46v41h91v-373z" />
    <glyph glyph-name="uniE04F" unicode="&#xe04f;" horiz-adv-x="311" 
d="M60 588l-40 21q51 80 140 80q56 0 92 -32t36 -79q0 -38 -19.5 -66t-56.5 -59l-118 -100h197v-41h-266v36l157 135q30 26 43.5 45.5t13.5 49.5t-22 49.5t-57 19.5q-63 0 -100 -59z" />
    <glyph glyph-name="uniE050" unicode="&#xe050;" horiz-adv-x="322" 
d="M286 650l-103 -92q55 -6 87 -38.5t32 -82.5q0 -56 -39 -92.5t-102 -36.5q-91 0 -141 81l38 22q39 -60 103 -60q44 0 69.5 24t25.5 61q0 39 -24 60t-69 21q-28 0 -57 -18l-22 29l132 117h-172v41h242v-36z" />
    <glyph glyph-name="uniE051" unicode="&#xe051;" horiz-adv-x="324" 
d="M253 438h51v-42h-51v-84h-45v84h-188v36l191 255h42v-249zM77 438h131v173z" />
    <glyph glyph-name="uniE052" unicode="&#xe052;" horiz-adv-x="322" 
d="M280 644h-164l-23 -103q35 20 75 20q63 0 98.5 -33t35.5 -90q0 -56 -39 -93t-102 -37q-91 0 -141 81l37 22q38 -60 104 -60q43 0 69 24.5t26 62.5q0 39 -23.5 60t-67.5 21q-53 0 -87 -44l-41 11l42 200h201v-42z" />
    <glyph glyph-name="uniE053" unicode="&#xe053;" horiz-adv-x="326" 
d="M212 686l-82 -118q17 5 35 5q62 0 101.5 -38.5t39.5 -95.5q0 -56 -41 -94t-101 -38q-62 0 -103 38t-41 94q0 43 25 81l113 166h54zM164 530q-42 0 -69.5 -26t-27.5 -65q0 -38 27.5 -64t69.5 -26q41 0 69 26t28 64q0 39 -28 65t-69 26z" />
    <glyph glyph-name="uniE054" unicode="&#xe054;" horiz-adv-x="296" 
d="M276 651l-163 -339h-50l160 331h-203v42h256v-34z" />
    <glyph glyph-name="uniE055" unicode="&#xe055;" horiz-adv-x="304" 
d="M152 689q46 0 78 -27.5t32 -68.5q0 -46 -41 -73q63 -32 63 -97q0 -50 -38.5 -83.5t-93.5 -33.5t-93.5 33.5t-38.5 83.5q0 65 63 97q-41 26 -41 73q0 41 32.5 68.5t77.5 27.5zM152 649q-26 0 -44.5 -16t-18.5 -40q0 -23 18.5 -39t44.5 -16q27 0 45.5 16t18.5 39
q0 24 -18.5 40t-45.5 16zM152 498q-37 0 -61.5 -21.5t-24.5 -53.5t24.5 -53.5t61.5 -21.5q36 0 61 21.5t25 53.5q0 31 -25 53t-61 22z" />
    <glyph glyph-name="uniE056" unicode="&#xe056;" horiz-adv-x="326" 
d="M115 312l81 117q-13 -4 -35 -4q-61 0 -101 38.5t-40 95.5q0 55 42 93.5t102 38.5q61 0 101.5 -38t40.5 -94q0 -45 -25 -82l-113 -165h-53zM164 649q-42 0 -70 -26t-28 -64q0 -39 27.5 -65t70.5 -26q41 0 68.5 26t27.5 65q0 38 -27.5 64t-68.5 26z" />
    <glyph glyph-name="uniE062" unicode="&#xe062;" horiz-adv-x="617" 
d="M169 477q0 -72 63 -132q35 13 55.5 22t43.5 25.5t34 39t11 52.5q0 45 -28.5 70.5t-75.5 25.5q-46 0 -74.5 -28.5t-28.5 -74.5zM408 105l-192 186q-59 -24 -90 -53t-31 -80q0 -55 38 -88.5t105 -33.5q98 0 170 69zM517 0l-75 73q-86 -83 -206 -83q-90 0 -143 46.5
t-53 121.5q0 69 37 106t103 62q-67 70 -67 146q0 68 46 113t116 45q68 0 111 -39.5t43 -104.5q0 -38 -12.5 -67.5t-38.5 -49.5t-49.5 -32t-60.5 -26l175 -165q75 101 84 246h50q-11 -164 -99 -279l119 -113h-80z" />
    <glyph glyph-name="uniE063" unicode="&#xe063;" horiz-adv-x="454" 
d="M210 352v237q-49 -5 -78.5 -36.5t-29.5 -80.5q0 -52 28 -78t80 -42zM254 290v-256q59 4 92.5 36.5t33.5 87.5q0 59 -32 86.5t-94 45.5zM254 589v-250q33 -9 51.5 -15t46 -20.5t41.5 -31.5t25 -45.5t11 -66.5q0 -72 -47.5 -118.5t-127.5 -50.5v-76h-44v76q-82 6 -129.5 50
t-55.5 123h51q6 -56 40.5 -89.5t93.5 -40.5v268q-37 11 -60 20.5t-48.5 28t-38 48.5t-12.5 72q0 68 44 111.5t115 49.5v88h44v-88q74 -6 118 -48.5t49 -111.5h-50q-4 45 -33 77.5t-84 39.5z" />
    <glyph glyph-name="uniE064" unicode="&#xe064;" horiz-adv-x="512" 
d="M254 42v417q-80 -8 -130 -66.5t-50 -141.5t50 -141.5t130 -67.5zM298 459v-417q113 7 171 102l38 -26q-71 -117 -209 -124v-78h-44v78q-101 8 -165 81t-64 177q0 103 64 175t165 80v84h44v-84q139 -7 209 -125l-38 -26q-59 96 -171 103z" />
    <glyph glyph-name="uniE065" unicode="&#xe065;" horiz-adv-x="512" 
d="M178 269v-172q34 -4 94.5 -31.5t98.5 -27.5q32 0 60.5 13.5t40.5 26.5l13 14v-48q-4 -6 -13 -15t-41 -24.5t-68 -15.5q-45 0 -110.5 30t-102.5 30q-31 0 -59.5 -13t-40.5 -26l-13 -13v48q33 40 91 50v174h-90v46h90v136q0 80 51 134t140 54q108 0 167 -82l-39 -28
q-47 64 -129 64q-65 0 -102.5 -40t-37.5 -104v-134h167v-46h-167z" />
    <glyph glyph-name="uniE066" unicode="&#xe066;" horiz-adv-x="448" 
d="M261 322h150v-44h-160v-82h160v-44h-160v-152h-48v152h-165v44h165v82h-165v44h155l-177 303h56l155 -277l151 277h54z" />
    <glyph glyph-name="uniE067" unicode="&#xe067;" horiz-adv-x="535" 
d="M178 227q-3 -188 140 -188q82 0 129 64l39 -28q-59 -82 -167 -82q-94 0 -143 58.5t-48 175.5h-90v45h90v88h-90v45h90q-1 117 48 175.5t143 58.5q108 0 167 -82l-39 -28q-47 64 -129 64q-143 0 -140 -188h187v-45h-187v-88h187v-45h-187z" />
    <glyph glyph-name="uniE068" unicode="&#xe068;" horiz-adv-x="537" 
d="M337 212l18 206h-161l-18 -206h161zM319 0l14 168h-161l-14 -168h-47l14 168h-95v44h99l18 206h-117v44h120l15 170h47l-15 -170h161l15 170h47l-15 -170h102v-44h-105l-18 -206h123v-44h-127l-14 -168h-47z" />
    <glyph glyph-name="uniE069" unicode="&#xe069;" horiz-adv-x="716" 
d="M540 231l-183 390l-184 -390h367zM649 0l-85 181h-415l-85 -181h-54l321 685h53l322 -685h-57z" />
    <glyph glyph-name="uniE06A" unicode="&#xe06a;" horiz-adv-x="609" 
d="M50 0v685h286q94 0 148 -50.5t54 -126.5q0 -46 -24.5 -87.5t-67.5 -62.5q66 -11 102.5 -55.5t36.5 -105.5q0 -85 -56 -141t-142 -56h-337zM339 636h-236v-262h232q73 0 111.5 37t38.5 94q0 56 -38.5 93.5t-107.5 37.5zM384 325h-281v-276h277q75 0 113.5 41t38.5 103
q0 56 -38.5 94t-109.5 38z" />
    <glyph glyph-name="uniE06B" unicode="&#xe06b;" horiz-adv-x="548" 
d="M50 0v685h461v-49h-408v-265h383v-49h-383v-273h428v-49h-481z" />
    <glyph glyph-name="uniE06C" unicode="&#xe06c;" horiz-adv-x="657" 
d="M554 0v317h-451v-317h-53v685h53v-319h451v319h53v-685h-53z" />
    <glyph glyph-name="uniE06D" unicode="&#xe06d;" horiz-adv-x="595" 
d="M313 636h-210v-316h206q94 0 144 44t50 112q0 70 -49.5 115t-140.5 45zM488 0l-382 271h-3v-271h-53v685h275q106 0 168.5 -58.5t62.5 -149.5q0 -88 -63 -147t-162 -59h-145l382 -271h-80z" />
    <glyph glyph-name="uniE06E" unicode="&#xe06e;" horiz-adv-x="516" 
d="M376 231l-119 378l-120 -378h239zM449 0l-57 181h-271l-57 -181h-54l221 685h53l222 -685h-57z" />
    <glyph glyph-name="uniE06F" unicode="&#xe06f;" horiz-adv-x="509" 
d="M50 0v685h186q94 0 148 -50.5t54 -126.5q0 -46 -24.5 -87.5t-67.5 -62.5q66 -11 102.5 -55.5t36.5 -105.5q0 -85 -56 -141t-142 -56h-237zM239 636h-136v-262h132q73 0 111.5 37t38.5 94q0 56 -38.5 93.5t-107.5 37.5zM284 325h-181v-276h177q75 0 113.5 41t38.5 103
q0 56 -38.5 94t-109.5 38z" />
    <glyph glyph-name="uniE070" unicode="&#xe070;" horiz-adv-x="448" 
d="M50 0v685h361v-49h-308v-265h283v-49h-283v-273h328v-49h-381z" />
    <glyph glyph-name="uniE071" unicode="&#xe071;" horiz-adv-x="433" 
d="M381 310h-278v-310h-53v685h356v-49h-303v-277h278v-49z" />
    <glyph glyph-name="uniE072" unicode="&#xe072;" horiz-adv-x="557" 
d="M454 0v317h-351v-317h-53v685h53v-319h351v319h53v-685h-53z" />
    <glyph glyph-name="uniE073" unicode="&#xe073;" horiz-adv-x="470" 
d="M103 346l274 339h65l-282 -346l310 -339h-74l-293 322v-322h-53v685h53v-339z" />
    <glyph glyph-name="uniE074" unicode="&#xe074;" horiz-adv-x="433" 
d="M50 0v685h53v-636h303v-49h-356z" />
    <glyph glyph-name="uniE075" unicode="&#xe075;" horiz-adv-x="693" 
d="M331 0l-231 569v-569h-50v685h60l237 -600l236 600h60v-685h-51v571l-231 -571h-30z" />
    <glyph glyph-name="uniE076" unicode="&#xe076;" horiz-adv-x="495" 
d="M213 636h-110v-316h106q94 0 144 44t50 112q0 70 -49.5 115t-140.5 45zM389 0l-286 269v-269h-53v685h175q106 0 168.5 -58.5t62.5 -149.5q0 -88 -63 -147t-162 -59h-58l295 -271h-79z" />
    <glyph glyph-name="uniE077" unicode="&#xe077;" horiz-adv-x="479" 
d="M266 0h-53v636h-198v49h449v-49h-198v-636z" />
    <glyph glyph-name="uniE078" unicode="&#xe078;" horiz-adv-x="844" 
d="M586 0l-166 599l-165 -599h-57l-178 685h54l155 -607l166 607h55l165 -606l156 606h53l-181 -685h-57z" />
    <glyph glyph-name="uniE079" unicode="&#xe079;" horiz-adv-x="480" 
d="M441 637l-365 -588h389v-49h-449v48l367 588h-347v49h405v-48z" />
    <glyph glyph-name="uniE07A" unicode="&#xe07a;" horiz-adv-x="502" 
d="M478 197q0 -85 -56 -141t-142 -56h-259l-28 71v614h236q94 0 148 -50.5t54 -126.5q0 -46 -24.5 -87.5t-67.5 -62.5q66 -11 102.5 -55.5t36.5 -105.5zM232 636h-186v-262h182q73 0 111.5 37t38.5 94q0 56 -38.5 93.5t-107.5 37.5zM277 325h-231v-276h227q75 0 113.5 41
t38.5 103q0 56 -38.5 94t-109.5 38z" />
    <glyph glyph-name="uniE07B" unicode="&#xe07b;" horiz-adv-x="581" 
d="M551 343q0 -147 -101 -245t-246 -98h-183l-28 71v614h211q145 0 246 -97.5t101 -244.5zM202 636h-156v-587h156q125 0 210.5 84t85.5 210t-85.5 209.5t-210.5 83.5z" />
    <glyph glyph-name="uniE07C" unicode="&#xe07c;" horiz-adv-x="441" 
d="M424 49v-49h-403l-28 71v614h411v-49h-358v-265h333v-49h-333v-273h378z" />
    <glyph glyph-name="uniE07D" unicode="&#xe07d;" horiz-adv-x="426" 
d="M46 310v-310h-25l-28 71v614h406v-49h-353v-277h328v-49h-328z" />
    <glyph glyph-name="uniE07E" unicode="&#xe07e;" horiz-adv-x="550" 
d="M46 317v-317h-25l-28 71v614h53v-319h401v319h53v-685h-53v317h-401z" />
    <glyph glyph-name="uniE07F" unicode="&#xe07f;" horiz-adv-x="96" 
d="M46 0h-25l-28 71v614h53v-685z" />
    <glyph glyph-name="uniE080" unicode="&#xe080;" horiz-adv-x="470" 
d="M46 328v-328h-25l-28 71v614h53v-333l337 333h67l-347 -341l360 -344h-74z" />
    <glyph glyph-name="uniE081" unicode="&#xe081;" horiz-adv-x="426" 
d="M399 0h-378l-28 71v614h53v-636h353v-49z" />
    <glyph glyph-name="uniE082" unicode="&#xe082;" horiz-adv-x="686" 
d="M43 579v-579h-22l-28 71v614h60l262 -604l261 604h60v-685h-51v581l-256 -581h-30z" />
    <glyph glyph-name="uniE083" unicode="&#xe083;" horiz-adv-x="552" 
d="M44 602v-602h-23l-28 71v614h56l394 -602v602h51v-685h-56z" />
    <glyph glyph-name="uniE084" unicode="&#xe084;" horiz-adv-x="508" 
d="M46 0h-25l-28 71v614h236q103 0 169 -64t66 -158q0 -98 -66.5 -160.5t-179.5 -62.5h-172v-240zM411 464q0 74 -52 123t-145 49h-168v-347h178q86 0 136.5 49.5t50.5 125.5z" />
    <glyph glyph-name="uniE085" unicode="&#xe085;" horiz-adv-x="463" 
d="M396 476q0 70 -49.5 115t-140.5 45h-160v-316h156q94 0 144 44t50 112zM46 271v-271h-25l-28 71v614h225q106 0 168.5 -58.5t62.5 -149.5q0 -88 -63 -147t-162 -59h-101l338 -271h-79z" />
    <glyph glyph-name="uniE086" unicode="&#xe086;" horiz-adv-x="566" 
d="M551 0h-530l-19 48l459 588h-439v49h505v-48l-458 -588h482v-49z" />
    <glyph glyph-name="uniE087" unicode="&#xe087;" horiz-adv-x="494" 
d="M272 0h-239l-48 73v612h236q94 0 148 -50.5t54 -126.5q0 -46 -24.5 -87.5t-67.5 -62.5q66 -11 102.5 -55.5t36.5 -105.5q0 -85 -56 -141t-142 -56zM224 636h-186v-262h182q73 0 111.5 37t38.5 94q0 56 -38.5 93.5t-107.5 37.5zM269 325h-231v-276h227q75 0 113.5 41
t38.5 103q0 56 -38.5 94t-109.5 38z" />
    <glyph glyph-name="uniE088" unicode="&#xe088;" horiz-adv-x="573" 
d="M196 0h-163l-48 73v612h211q145 0 246 -97.5t101 -244.5t-101 -245t-246 -98zM194 636h-156v-587h156q125 0 210.5 84t85.5 210t-85.5 209.5t-210.5 83.5z" />
    <glyph glyph-name="uniE089" unicode="&#xe089;" horiz-adv-x="433" 
d="M416 0h-383l-48 73v612h411v-49h-358v-265h333v-49h-333v-273h378v-49z" />
    <glyph glyph-name="uniE08A" unicode="&#xe08a;" horiz-adv-x="378" 
d="M-2 310v-250l-53 82v543h406v-49h-353v-277h328v-49h-328z" />
    <glyph glyph-name="uniE08B" unicode="&#xe08b;" horiz-adv-x="502" 
d="M452 0h-53v317h-401v-257l-53 82v543h53v-319h401v319h53v-685z" />
    <glyph glyph-name="uniE08C" unicode="&#xe08c;" horiz-adv-x="103" 
d="M53 0h-20l-33 48v637h53v-685z" />
    <glyph glyph-name="uniE08D" unicode="&#xe08d;" horiz-adv-x="422" 
d="M415 0h-74l-343 328v-268l-53 82v543h53v-333l337 333h67l-347 -341z" />
    <glyph glyph-name="uniE08E" unicode="&#xe08e;" horiz-adv-x="418" 
d="M391 0h-358l-48 73v612h53v-636h353v-49z" />
    <glyph glyph-name="uniE08F" unicode="&#xe08f;" horiz-adv-x="638" 
d="M537 581l-256 -581h-30l-256 579v-515l-50 78v543h60l262 -604l261 604h60v-685h-51v581z" />
    <glyph glyph-name="uniE090" unicode="&#xe090;" horiz-adv-x="504" 
d="M446 0h-56l-394 602v-539l-51 79v543h56l394 -602v602h51v-685z" />
    <glyph glyph-name="uniE091" unicode="&#xe091;" horiz-adv-x="460" 
d="M-2 60l-53 82v543h236q103 0 169 -64t66 -158q0 -98 -66.5 -160.5t-179.5 -62.5h-172v-180zM166 636h-168v-347h178q86 0 136.5 49.5t50.5 125.5q0 74 -52 123t-145 49z" />
    <glyph glyph-name="uniE092" unicode="&#xe092;" horiz-adv-x="415" 
d="M413 0h-79l-336 271v-211l-53 82v543h225q106 0 168.5 -58.5t62.5 -149.5q0 -88 -63 -147t-162 -59h-101zM158 636h-160v-316h156q94 0 144 44t50 112q0 70 -49.5 115t-140.5 45z" />
    <glyph glyph-name="uniE093" unicode="&#xe093;" horiz-adv-x="563" 
d="M548 0h-515l-33 50l458 586h-439v49h505v-48l-458 -588h482v-49z" />
    <glyph glyph-name="uniE094" unicode="&#xe094;" horiz-adv-x="795" 
d="M389 594v-594h-47l-345 598v-537l-52 81v543h58l336 -577v577h53l403 -685h-58z" />
    <glyph glyph-name="uniE095" unicode="&#xe095;" horiz-adv-x="513" 
d="M301 231l-249 382v-382h249zM451 0l-118 181h-281v-181h-19l-33 48v637h64l449 -685h-62z" />
    <glyph glyph-name="uniE096" unicode="&#xe096;" horiz-adv-x="318" 
d="M0 48v256l-245 381h63l209 -332l209 332h62l-245 -377v-308h-20z" />
    <glyph glyph-name="uniE097" unicode="&#xe097;" horiz-adv-x="291" 
d="M0 48v588h-223v49h499v-49h-223v-636h-20z" />
    <glyph glyph-name="uniE098" unicode="&#xe098;" horiz-adv-x="496" 
d="M274 0h-242l-45 75v610h236q94 0 148 -50.5t54 -126.5q0 -46 -24.5 -87.5t-67.5 -62.5q66 -11 102.5 -55.5t36.5 -105.5q0 -85 -56 -141t-142 -56zM226 636h-186v-262h182q73 0 111.5 37t38.5 94q0 56 -38.5 93.5t-107.5 37.5zM271 325h-231v-276h227q75 0 113.5 41
t38.5 103q0 56 -38.5 94t-109.5 38z" />
    <glyph glyph-name="uniE099" unicode="&#xe099;" horiz-adv-x="575" 
d="M198 0h-166l-45 75v610h211q145 0 246 -97.5t101 -244.5t-101 -245t-246 -98zM196 636h-156v-587h156q125 0 210.5 84t85.5 210t-85.5 209.5t-210.5 83.5z" />
    <glyph glyph-name="uniE09A" unicode="&#xe09a;" horiz-adv-x="435" 
d="M418 0h-386l-45 75v610h411v-49h-358v-265h333v-49h-333v-273h378v-49z" />
    <glyph glyph-name="uniE09B" unicode="&#xe09b;" horiz-adv-x="379" 
d="M-1 310v-245l-53 92v528h406v-49h-353v-277h328v-49h-328z" />
    <glyph glyph-name="uniE09C" unicode="&#xe09c;" horiz-adv-x="503" 
d="M453 0h-53v317h-401v-252l-53 92v528h53v-319h401v319h53v-685z" />
    <glyph glyph-name="uniE09D" unicode="&#xe09d;" horiz-adv-x="103" 
d="M53 0h-21l-32 53v632h53v-685z" />
    <glyph glyph-name="uniE09E" unicode="&#xe09e;" horiz-adv-x="423" 
d="M416 0h-74l-343 328v-263l-53 92v528h53v-333l337 333h67l-347 -341z" />
    <glyph glyph-name="uniE09F" unicode="&#xe09f;" horiz-adv-x="420" 
d="M393 0h-361l-45 75v610h53v-636h353v-49z" />
    <glyph glyph-name="uniE0A0" unicode="&#xe0a0;" horiz-adv-x="505" 
d="M447 0h-56l-394 602v-534l-51 89v528h56l394 -602v602h51v-685z" />
    <glyph glyph-name="uniE0A1" unicode="&#xe0a1;" horiz-adv-x="461" 
d="M-1 65l-53 92v528h236q103 0 169 -64t66 -158q0 -98 -66.5 -160.5t-179.5 -62.5h-172v-175zM167 636h-168v-347h178q86 0 136.5 49.5t50.5 125.5q0 74 -52 123t-145 49z" />
    <glyph glyph-name="uniE0A2" unicode="&#xe0a2;" horiz-adv-x="416" 
d="M414 0h-79l-336 271v-206l-53 92v528h225q106 0 168.5 -58.5t62.5 -149.5q0 -88 -63 -147t-162 -59h-101zM159 636h-160v-316h156q94 0 144 44t50 112q0 70 -49.5 115t-140.5 45z" />
    <glyph glyph-name="uniE0A3" unicode="&#xe0a3;" horiz-adv-x="513" 
d="M301 231l-249 382v-382h249zM451 0l-118 181h-281v-181h-20l-32 53v632h64l449 -685h-62z" />
    <glyph glyph-name="uniE0A4" unicode="&#xe0a4;" horiz-adv-x="796" 
d="M390 594v-594h-47l-345 598v-531l-52 90v528h58l336 -578v578h53l403 -685h-58z" />
    <glyph glyph-name="uniE0A5" unicode="&#xe0a5;" horiz-adv-x="318" 
d="M0 53v251l-245 381h63l209 -332l209 332h62l-245 -377v-308h-21z" />
    <glyph glyph-name="uniE0A6" unicode="&#xe0a6;" horiz-adv-x="291" 
d="M0 53v583h-223v49h499v-49h-223v-636h-21z" />
    <glyph glyph-name="uniE0A7" unicode="&#xe0a7;" horiz-adv-x="494" 
d="M272 0h-243l-44 44v611l31 30h205q94 0 148 -50.5t54 -126.5q0 -46 -24.5 -87.5t-67.5 -62.5q66 -11 102.5 -55.5t36.5 -105.5q0 -85 -56 -141t-142 -56zM224 636h-186v-262h182q73 0 111.5 37t38.5 94q0 56 -38.5 93.5t-107.5 37.5zM269 325h-231v-276h227
q75 0 113.5 41t38.5 103q0 56 -38.5 94t-109.5 38z" />
    <glyph glyph-name="uniE0A8" unicode="&#xe0a8;" horiz-adv-x="554" 
d="M544 0h-57l-71 181h-343l-64 -163l-38 40l248 627h53zM396 231l-151 385l-152 -385h303z" />
    <glyph glyph-name="uniE0A9" unicode="&#xe0a9;" horiz-adv-x="507" 
d="M295 231l-249 382v-382h249zM46 181v-181h-18l-34 34v651h64l449 -685h-62l-118 181h-281z" />
    <glyph glyph-name="uniE0AA" unicode="&#xe0aa;" horiz-adv-x="573" 
d="M196 0h-167l-44 44v611l31 30h180q145 0 246 -97.5t101 -244.5t-101 -245t-246 -98zM194 636h-156v-587h156q125 0 210.5 84t85.5 210t-85.5 209.5t-210.5 83.5z" />
    <glyph glyph-name="uniE0AB" unicode="&#xe0ab;" horiz-adv-x="433" 
d="M416 0h-387l-44 44v611l31 30h380v-49h-358v-265h333v-49h-333v-273h378v-49z" />
    <glyph glyph-name="uniE0AC" unicode="&#xe0ac;" horiz-adv-x="427" 
d="M47 0h-19l-34 34v651h406v-49h-353v-277h328v-49h-328v-310z" />
    <glyph glyph-name="uniE0AD" unicode="&#xe0ad;" horiz-adv-x="551" 
d="M47 317v-317h-19l-34 34v651h53v-319h401v319h53v-685h-53v317h-401z" />
    <glyph glyph-name="uniE0AE" unicode="&#xe0ae;" horiz-adv-x="97" 
d="M47 0h-19l-34 34v651h53v-685z" />
    <glyph glyph-name="uniE0AF" unicode="&#xe0af;" horiz-adv-x="471" 
d="M47 328v-328h-19l-34 34v651h53v-333l337 333h67l-347 -341l360 -344h-74z" />
    <glyph glyph-name="uniE0B0" unicode="&#xe0b0;" horiz-adv-x="427" 
d="M400 0h-372l-34 34v651h53v-636h353v-49z" />
    <glyph glyph-name="uniE0B1" unicode="&#xe0b1;" horiz-adv-x="687" 
d="M44 579v-579h-16l-34 34v651h60l262 -604l261 604h60v-685h-51v581l-256 -581h-30z" />
    <glyph glyph-name="uniE0B2" unicode="&#xe0b2;" horiz-adv-x="844" 
d="M46 598v-598h-18l-34 34v651h58l336 -578v578h53l403 -685h-58l-348 594v-594h-47z" />
    <glyph glyph-name="uniE0B3" unicode="&#xe0b3;" horiz-adv-x="553" 
d="M45 602v-602h-17l-34 34v651h56l394 -602v602h51v-685h-56z" />
    <glyph glyph-name="uniE0B4" unicode="&#xe0b4;" horiz-adv-x="509" 
d="M47 0h-19l-34 34v651h236q103 0 169 -64t66 -158q0 -98 -66.5 -160.5t-179.5 -62.5h-172v-240zM215 636h-168v-347h178q86 0 136.5 49.5t50.5 125.5q0 74 -52 123t-145 49z" />
    <glyph glyph-name="uniE0B5" unicode="&#xe0b5;" horiz-adv-x="464" 
d="M207 636h-160v-316h156q94 0 144 44t50 112q0 70 -49.5 115t-140.5 45zM47 271v-271h-19l-34 34v651h225q106 0 168.5 -58.5t62.5 -149.5q0 -88 -63 -147t-162 -59h-101l338 -271h-79z" />
    <glyph glyph-name="uniE0B6" unicode="&#xe0b6;" horiz-adv-x="516" 
d="M245 0h-53l-237 620l41 43l223 -593l233 615h54z" />
    <glyph glyph-name="uniE0B7" unicode="&#xe0b7;" horiz-adv-x="809" 
d="M360 601l-175 -601h-57l-173 617l41 43l163 -585l176 610h55l176 -609l170 609h53l-196 -685h-57z" />
    <glyph glyph-name="uniE0B8" unicode="&#xe0b8;" horiz-adv-x="492" 
d="M227 0h-53v304l-209 324l38 40l198 -315l209 332h62l-245 -377v-308z" />
    <glyph glyph-name="uniE0B9" unicode="&#xe0b9;" horiz-adv-x="467" 
d="M229 636v-636h-53v636h-201l50 49h427v-49h-223z" />
    <glyph glyph-name="uniE0BA" unicode="&#xe0ba;" horiz-adv-x="492" 
d="M442 0h-53v181h-281l-103 -158l-37 36l410 626h64v-685zM389 231v383l-249 -383h249z" />
    <glyph glyph-name="uniE0BB" unicode="&#xe0bb;" horiz-adv-x="836" 
d="M733 0v597l-344 -597h-47v597l-333 -571l-37 35l367 624h55v-576l335 576h57v-685h-53z" />
    <glyph glyph-name="uniE0BC" unicode="&#xe0bc;" horiz-adv-x="544" 
d="M534 0h-57l-71 181h-343l-58 -149l-41 33l245 620h53zM385 231l-151 385l-152 -385h303z" />
    <glyph glyph-name="uniE0BD" unicode="&#xe0bd;" horiz-adv-x="528" 
d="M306 0h-240l-47 35v650h236q94 0 148 -50.5t54 -126.5q0 -46 -24.5 -87.5t-67.5 -62.5q66 -11 102.5 -55.5t36.5 -105.5q0 -85 -56 -141t-142 -56zM258 636h-186v-262h182q73 0 111.5 37t38.5 94q0 56 -38.5 93.5t-107.5 37.5zM451 193q0 56 -38.5 94t-109.5 38h-231
v-276h227q75 0 113.5 41t38.5 103z" />
    <glyph glyph-name="uniE0BE" unicode="&#xe0be;" horiz-adv-x="607" 
d="M230 0h-164l-47 35v650h211q145 0 246 -97.5t101 -244.5t-101 -245t-246 -98zM228 636h-156v-587h156q125 0 210.5 84t85.5 210t-85.5 209.5t-210.5 83.5z" />
    <glyph glyph-name="uniE0BF" unicode="&#xe0bf;" horiz-adv-x="467" 
d="M450 0h-384l-47 35v650h411v-49h-358v-265h333v-49h-333v-273h378v-49z" />
    <glyph glyph-name="uniE0C0" unicode="&#xe0c0;" horiz-adv-x="452" 
d="M72 0h-6l-47 35v650h406v-49h-353v-277h328v-49h-328v-310z" />
    <glyph glyph-name="uniE0C1" unicode="&#xe0c1;" horiz-adv-x="576" 
d="M72 317v-317h-6l-47 35v650h53v-319h401v319h53v-685h-53v317h-401z" />
    <glyph glyph-name="uniE0C2" unicode="&#xe0c2;" horiz-adv-x="122" 
d="M72 0h-6l-47 35v650h53v-685z" />
    <glyph glyph-name="uniE0C3" unicode="&#xe0c3;" horiz-adv-x="495" 
d="M71 328v-328h-5l-48 36v649h53v-333l337 333h67l-347 -341l360 -344h-74z" />
    <glyph glyph-name="uniE0C4" unicode="&#xe0c4;" horiz-adv-x="452" 
d="M425 0h-359l-47 35v650h53v-636h353v-49z" />
    <glyph glyph-name="uniE0C5" unicode="&#xe0c5;" horiz-adv-x="712" 
d="M69 579v-579h-3l-47 35v650h60l262 -604l261 604h60v-685h-51v581l-256 -581h-30z" />
    <glyph glyph-name="uniE0C6" unicode="&#xe0c6;" horiz-adv-x="578" 
d="M70 602v-602h-4l-47 35v650h56l394 -602v602h51v-685h-56z" />
    <glyph glyph-name="uniE0C7" unicode="&#xe0c7;" horiz-adv-x="534" 
d="M72 0h-6l-47 35v650h236q103 0 169 -64t66 -158q0 -98 -66.5 -160.5t-179.5 -62.5h-172v-240zM240 636h-168v-347h178q86 0 136.5 49.5t50.5 125.5q0 74 -52 123t-145 49z" />
    <glyph glyph-name="uniE0C8" unicode="&#xe0c8;" horiz-adv-x="489" 
d="M232 636h-160v-316h156q94 0 144 44t50 112q0 70 -49.5 115t-140.5 45zM72 271v-271h-6l-47 35v650h225q106 0 168.5 -58.5t62.5 -149.5q0 -88 -63 -147t-162 -59h-101l338 -271h-79z" />
    <glyph glyph-name="uniE0C9" unicode="&#xe0c9;" horiz-adv-x="482" 
d="M432 0h-53v181h-281l-96 -148l-40 32l406 620h64v-685zM379 231v383l-249 -383h249z" />
    <glyph glyph-name="uniE0CA" unicode="&#xe0ca;" horiz-adv-x="826" 
d="M723 597l-344 -597h-47v597l-329 -564l-39 32l365 620h55v-576l335 576h57v-685h-53v597z" />
    <glyph glyph-name="uniE0CB" unicode="&#xe0cb;" horiz-adv-x="532" 
d="M320 231l-249 382v-382h249zM470 0l-118 181h-281v-181h-5l-47 35v650h64l449 -685h-62z" />
    <glyph glyph-name="uniE0CC" unicode="&#xe0cc;" horiz-adv-x="869" 
d="M416 0l-345 598v-598h-5l-47 35v650h58l336 -578v578h53l403 -685h-58l-348 594v-594h-47z" />
    <glyph glyph-name="uniE0CD" unicode="&#xe0cd;" horiz-adv-x="869" 
d="M411 0v576l-335 -576h-10l-47 35v650h53v-597l344 597h47v-597l348 597h58l-403 -685h-55z" />
    <glyph glyph-name="uniE0CE" unicode="&#xe0ce;" horiz-adv-x="532" 
d="M19 35v650h53v-614l399 614h61l-449 -685h-17z" />
    <glyph glyph-name="uniE0CF" unicode="&#xe0cf;" horiz-adv-x="494" 
d="M272 0h-287v612l48 73h188q94 0 148 -50.5t54 -126.5q0 -46 -24.5 -87.5t-67.5 -62.5q66 -11 102.5 -55.5t36.5 -105.5q0 -85 -56 -141t-142 -56zM224 636h-186v-262h182q73 0 111.5 37t38.5 94q0 56 -38.5 93.5t-107.5 37.5zM269 325h-231v-276h227q75 0 113.5 41
t38.5 103q0 56 -38.5 94t-109.5 38z" />
    <glyph glyph-name="uniE0D0" unicode="&#xe0d0;" horiz-adv-x="573" 
d="M196 0h-211v612l48 73h163q145 0 246 -97.5t101 -244.5t-101 -245t-246 -98zM194 636h-156v-587h156q125 0 210.5 84t85.5 210t-85.5 209.5t-210.5 83.5z" />
    <glyph glyph-name="uniE0D1" unicode="&#xe0d1;" horiz-adv-x="433" 
d="M416 0h-431v612l48 73h363v-49h-358v-265h333v-49h-333v-273h378v-49z" />
    <glyph glyph-name="uniE0D2" unicode="&#xe0d2;" horiz-adv-x="418" 
d="M38 0h-53v612l48 73h358v-49h-353v-277h328v-49h-328v-310z" />
    <glyph glyph-name="uniE0D3" unicode="&#xe0d3;" horiz-adv-x="502" 
d="M-2 317v-317h-53v543l53 82v-259h401v319h53v-685h-53v317h-401z" />
    <glyph glyph-name="uniE0D4" unicode="&#xe0d4;" horiz-adv-x="103" 
d="M0 635l33 50h20v-685h-53v635z" />
    <glyph glyph-name="uniE0D5" unicode="&#xe0d5;" horiz-adv-x="422" 
d="M-2 328v-328h-53v543l53 82v-273l337 333h67l-347 -341l360 -344h-74z" />
    <glyph glyph-name="uniE0D6" unicode="&#xe0d6;" horiz-adv-x="378" 
d="M351 0h-406v543l53 82v-576h353v-49z" />
    <glyph glyph-name="uniE0D7" unicode="&#xe0d7;" horiz-adv-x="678" 
d="M-15 0v613l48 72h12l262 -604l261 604h60v-685h-51v581l-256 -581h-30l-256 579v-579h-50z" />
    <glyph glyph-name="uniE0D8" unicode="&#xe0d8;" horiz-adv-x="544" 
d="M36 602v-602h-51v612l48 73h8l394 -602v602h51v-685h-56z" />
    <glyph glyph-name="uniE0D9" unicode="&#xe0d9;" horiz-adv-x="500" 
d="M38 0h-53v612l48 73h188q103 0 169 -64t66 -158q0 -98 -66.5 -160.5t-179.5 -62.5h-172v-240zM206 636h-168v-347h178q86 0 136.5 49.5t50.5 125.5q0 74 -52 123t-145 49z" />
    <glyph glyph-name="uniE0DA" unicode="&#xe0da;" horiz-adv-x="455" 
d="M198 636h-160v-316h156q94 0 144 44t50 112q0 70 -49.5 115t-140.5 45zM38 271v-271h-53v612l48 73h177q106 0 168.5 -58.5t62.5 -149.5q0 -88 -63 -147t-162 -59h-101l338 -271h-79z" />
    <glyph glyph-name="uniE0DB" unicode="&#xe0db;" horiz-adv-x="459" 
d="M221 636v-636h-53v636h-165l32 49h409v-49h-223z" />
    <glyph glyph-name="uniE0DC" unicode="&#xe0dc;" horiz-adv-x="850" 
d="M392 0v576l-335 -576h-57v635l33 50h20v-597l344 597h47v-597l348 597h58l-403 -685h-55z" />
    <glyph glyph-name="uniE0DD" unicode="&#xe0dd;" horiz-adv-x="513" 
d="M0 0v635l33 50h20v-614l399 614h61l-449 -685h-64z" />
    <glyph glyph-name="uniE0DE" unicode="&#xe0de;" horiz-adv-x="502" 
d="M280 0h-287v609l29 76h207q94 0 148 -50.5t54 -126.5q0 -46 -24.5 -87.5t-67.5 -62.5q66 -11 102.5 -55.5t36.5 -105.5q0 -85 -56 -141t-142 -56zM232 636h-186v-262h182q73 0 111.5 37t38.5 94q0 56 -38.5 93.5t-107.5 37.5zM277 325h-231v-276h227q75 0 113.5 41
t38.5 103q0 56 -38.5 94t-109.5 38z" />
    <glyph glyph-name="uniE0DF" unicode="&#xe0df;" horiz-adv-x="581" 
d="M-7 0v609l29 76h182q145 0 246 -97.5t101 -244.5t-101 -245t-246 -98h-211zM202 636h-156v-587h156q125 0 210.5 84t85.5 210t-85.5 209.5t-210.5 83.5z" />
    <glyph glyph-name="uniE0E0" unicode="&#xe0e0;" horiz-adv-x="441" 
d="M-7 0v609l29 76h382v-49h-358v-265h333v-49h-333v-273h378v-49h-431z" />
    <glyph glyph-name="uniE0E1" unicode="&#xe0e1;" horiz-adv-x="426" 
d="M-7 0v609l29 76h377v-49h-353v-277h328v-49h-328v-310h-53z" />
    <glyph glyph-name="uniE0E2" unicode="&#xe0e2;" horiz-adv-x="550" 
d="M21 685h25v-319h401v319h53v-685h-53v317h-401v-317h-53v614z" />
    <glyph glyph-name="uniE0E3" unicode="&#xe0e3;" horiz-adv-x="96" 
d="M-7 0v614l28 71h25v-685h-53z" />
    <glyph glyph-name="uniE0E4" unicode="&#xe0e4;" horiz-adv-x="470" 
d="M46 0h-53v614l28 71h25v-333l337 333h67l-347 -341l360 -344h-74l-343 328v-328z" />
    <glyph glyph-name="uniE0E5" unicode="&#xe0e5;" horiz-adv-x="426" 
d="M-7 0v614l28 71h25v-636h353v-49h-406z" />
    <glyph glyph-name="uniE0E6" unicode="&#xe0e6;" horiz-adv-x="686" 
d="M43 0h-50v614l28 71h32l262 -604l261 604h60v-685h-51v581l-256 -581h-30l-256 579v-579z" />
    <glyph glyph-name="uniE0E7" unicode="&#xe0e7;" horiz-adv-x="552" 
d="M44 0h-51v614l28 71h28l394 -602v602h51v-685h-56l-394 602v-602z" />
    <glyph glyph-name="uniE0E8" unicode="&#xe0e8;" horiz-adv-x="508" 
d="M-7 0v614l28 71h208q103 0 169 -64t66 -158q0 -98 -66.5 -160.5t-179.5 -62.5h-172v-240h-53zM214 636h-168v-347h178q86 0 136.5 49.5t50.5 125.5q0 74 -52 123t-145 49z" />
    <glyph glyph-name="uniE0E9" unicode="&#xe0e9;" horiz-adv-x="463" 
d="M206 636h-160v-316h156q94 0 144 44t50 112q0 70 -49.5 115t-140.5 45zM46 0h-53v614l28 71h197q106 0 168.5 -58.5t62.5 -149.5q0 -88 -63 -147t-162 -59h-101l338 -271h-79l-336 271v-271z" />
    <glyph glyph-name="uniE0EA" unicode="&#xe0ea;" horiz-adv-x="456" 
d="M218 636v-636h-53v636h-162l19 49h419v-49h-223z" />
    <glyph glyph-name="uniE0EB" unicode="&#xe0eb;" horiz-adv-x="489" 
d="M-20 0v575l31 110h205q94 0 148 -50.5t54 -126.5q0 -46 -24.5 -87.5t-67.5 -62.5q66 -11 102.5 -55.5t36.5 -105.5q0 -85 -56 -141t-142 -56h-287zM219 636h-186v-262h182q73 0 111.5 37t38.5 94q0 56 -38.5 93.5t-107.5 37.5zM264 325h-231v-276h227q75 0 113.5 41
t38.5 103q0 56 -38.5 94t-109.5 38z" />
    <glyph glyph-name="uniE0EC" unicode="&#xe0ec;" horiz-adv-x="568" 
d="M-20 0v575l31 110h180q145 0 246 -97.5t101 -244.5t-101 -245t-246 -98h-211zM189 636h-156v-587h156q125 0 210.5 84t85.5 210t-85.5 209.5t-210.5 83.5z" />
    <glyph glyph-name="uniE0ED" unicode="&#xe0ed;" horiz-adv-x="428" 
d="M-20 0v575l31 110h380v-49h-358v-265h333v-49h-333v-273h378v-49h-431z" />
    <glyph glyph-name="uniE0EE" unicode="&#xe0ee;" horiz-adv-x="413" 
d="M-20 0v575l31 110h375v-49h-353v-277h328v-49h-328v-310h-53z" />
    <glyph glyph-name="uniE0EF" unicode="&#xe0ef;" horiz-adv-x="542" 
d="M38 317v-317h-53v592l26 93h27v-319h401v319h53v-685h-53v317h-401z" />
    <glyph glyph-name="uniE0F0" unicode="&#xe0f0;" horiz-adv-x="88" 
d="M-15 0v592l26 93h27v-685h-53z" />
    <glyph glyph-name="uniE0F1" unicode="&#xe0f1;" horiz-adv-x="462" 
d="M38 0h-53v592l26 93h27v-333l337 333h67l-347 -341l360 -344h-74l-343 328v-328z" />
    <glyph glyph-name="uniE0F2" unicode="&#xe0f2;" horiz-adv-x="418" 
d="M-15 0v592l26 93h27v-636h353v-49h-406z" />
    <glyph glyph-name="uniE0F3" unicode="&#xe0f3;" horiz-adv-x="673" 
d="M30 0h-50v575l31 110h29l262 -604l261 604h60v-685h-51v581l-256 -581h-30l-256 579v-579z" />
    <glyph glyph-name="uniE0F4" unicode="&#xe0f4;" horiz-adv-x="539" 
d="M31 0h-51v575l31 110h25l394 -602v602h51v-685h-56l-394 602v-602z" />
    <glyph glyph-name="uniE0F5" unicode="&#xe0f5;" horiz-adv-x="495" 
d="M-20 0v575l31 110h205q103 0 169 -64t66 -158q0 -98 -66.5 -160.5t-179.5 -62.5h-172v-240h-53zM201 636h-168v-347h178q86 0 136.5 49.5t50.5 125.5q0 74 -52 123t-145 49z" />
    <glyph glyph-name="uniE0F6" unicode="&#xe0f6;" horiz-adv-x="450" 
d="M193 636h-160v-316h156q94 0 144 44t50 112q0 70 -49.5 115t-140.5 45zM33 0h-53v575l31 110h194q106 0 168.5 -58.5t62.5 -149.5q0 -88 -63 -147t-162 -59h-101l338 -271h-79l-336 271v-271z" />
    <glyph glyph-name="uniE0F7" unicode="&#xe0f7;" horiz-adv-x="465" 
d="M227 636v-636h-53v636h-175l14 49h437v-49h-223z" />
    <glyph glyph-name="uniE0F8" unicode="&#xe0f8;" horiz-adv-x="496" 
d="M274 0h-287v610l45 75h191q94 0 148 -50.5t54 -126.5q0 -46 -24.5 -87.5t-67.5 -62.5q66 -11 102.5 -55.5t36.5 -105.5q0 -85 -56 -141t-142 -56zM226 636h-186v-262h182q73 0 111.5 37t38.5 94q0 56 -38.5 93.5t-107.5 37.5zM271 325h-231v-276h227q75 0 113.5 41
t38.5 103q0 56 -38.5 94t-109.5 38z" />
    <glyph glyph-name="uniE0F9" unicode="&#xe0f9;" horiz-adv-x="575" 
d="M-13 610l45 75h166q145 0 246 -97.5t101 -244.5t-101 -245t-246 -98h-211v610zM196 636h-156v-587h156q125 0 210.5 84t85.5 210t-85.5 209.5t-210.5 83.5z" />
    <glyph glyph-name="uniE0FA" unicode="&#xe0fa;" horiz-adv-x="435" 
d="M-13 610l45 75h366v-49h-358v-265h333v-49h-333v-273h378v-49h-431v610z" />
    <glyph glyph-name="uniE0FB" unicode="&#xe0fb;" horiz-adv-x="420" 
d="M32 685h361v-49h-353v-277h328v-49h-328v-310h-53v610z" />
    <glyph glyph-name="uniE0FC" unicode="&#xe0fc;" horiz-adv-x="503" 
d="M-54 528l53 92v-254h401v319h53v-685h-53v317h-401v-317h-53v528z" />
    <glyph glyph-name="uniE0FD" unicode="&#xe0fd;" horiz-adv-x="103" 
d="M32 685h21v-685h-53v632z" />
    <glyph glyph-name="uniE0FE" unicode="&#xe0fe;" horiz-adv-x="423" 
d="M-1 328v-328h-53v528l53 92v-268l337 333h67l-347 -341l360 -344h-74z" />
    <glyph glyph-name="uniE0FF" unicode="&#xe0ff;" horiz-adv-x="379" 
d="M-54 528l53 92v-571h353v-49h-406v528z" />
    <glyph glyph-name="uniE100" unicode="&#xe100;" horiz-adv-x="680" 
d="M37 579v-579h-50v610l45 75h15l262 -604l261 604h60v-685h-51v581l-256 -581h-30z" />
    <glyph glyph-name="uniE101" unicode="&#xe101;" horiz-adv-x="546" 
d="M38 602v-602h-51v610l45 75h11l394 -602v602h51v-685h-56z" />
    <glyph glyph-name="uniE102" unicode="&#xe102;" horiz-adv-x="502" 
d="M40 0h-53v610l45 75h191q103 0 169 -64t66 -158q0 -98 -66.5 -160.5t-179.5 -62.5h-172v-240zM208 636h-168v-347h178q86 0 136.5 49.5t50.5 125.5q0 74 -52 123t-145 49z" />
    <glyph glyph-name="uniE103" unicode="&#xe103;" horiz-adv-x="457" 
d="M200 636h-160v-316h156q94 0 144 44t50 112q0 70 -49.5 115t-140.5 45zM40 271v-271h-53v610l45 75h180q106 0 168.5 -58.5t62.5 -149.5q0 -88 -63 -147t-162 -59h-101l338 -271h-79z" />
    <glyph glyph-name="uniE104" unicode="&#xe104;" horiz-adv-x="459" 
d="M221 636v-636h-53v636h-164l30 49h410v-49h-223z" />
    <glyph glyph-name="uniE105" unicode="&#xe105;" horiz-adv-x="513" 
d="M0 0v632l32 53h21v-614l399 614h61l-449 -685h-64z" />
    <glyph glyph-name="uniE106" unicode="&#xe106;" horiz-adv-x="850" 
d="M57 0h-57v632l32 53h21v-597l344 597h47v-597l348 597h58l-403 -685h-55v576z" />
    <glyph glyph-name="uniE107" unicode="&#xe107;" horiz-adv-x="554" 
d="M544 0h-57l-71 181h-343l-67 -171l-35 48l248 627h53zM396 231l-151 385l-152 -385h303z" />
    <glyph glyph-name="uniE108" unicode="&#xe108;" horiz-adv-x="492" 
d="M280 231l-249 382v-382h249zM31 181v-181h-18l-34 46v639h64l449 -685h-62l-118 181h-281z" />
    <glyph glyph-name="uniE109" unicode="&#xe109;" horiz-adv-x="500" 
d="M450 0h-53v181h-281l-111 -171l-32 45l413 630h64v-685zM397 231v383l-249 -383h249z" />
    <glyph glyph-name="uniE10A" unicode="&#xe10a;" horiz-adv-x="473" 
d="M251 0h-238l-49 67v577l29 41h207q94 0 148 -50.5t54 -126.5q0 -46 -24.5 -87.5t-67.5 -62.5q66 -11 102.5 -55.5t36.5 -105.5q0 -85 -56 -141t-142 -56zM203 636h-186v-262h182q73 0 111.5 37t38.5 94q0 56 -38.5 93.5t-107.5 37.5zM248 325h-231v-276h227
q75 0 113.5 41t38.5 103q0 56 -38.5 94t-109.5 38z" />
    <glyph glyph-name="uniE10B" unicode="&#xe10b;" horiz-adv-x="552" 
d="M175 0h-162l-49 67v577l29 41h182q145 0 246 -97.5t101 -244.5t-101 -245t-246 -98zM173 636h-156v-587h156q125 0 210.5 84t85.5 210t-85.5 209.5t-210.5 83.5z" />
    <glyph glyph-name="uniE10C" unicode="&#xe10c;" horiz-adv-x="412" 
d="M395 0h-382l-49 67v577l29 41h382v-49h-358v-265h333v-49h-333v-273h378v-49z" />
    <glyph glyph-name="uniE10D" unicode="&#xe10d;" horiz-adv-x="412" 
d="M32 0h-19l-34 46v639h406v-49h-353v-277h328v-49h-328v-310z" />
    <glyph glyph-name="uniE10E" unicode="&#xe10e;" horiz-adv-x="536" 
d="M32 317v-317h-19l-34 46v639h53v-319h401v319h53v-685h-53v317h-401z" />
    <glyph glyph-name="uniE10F" unicode="&#xe10f;" horiz-adv-x="82" 
d="M32 0h-19l-34 46v639h53v-685z" />
    <glyph glyph-name="uniE110" unicode="&#xe110;" horiz-adv-x="456" 
d="M32 328v-328h-19l-34 46v639h53v-333l337 333h67l-347 -341l360 -344h-74z" />
    <glyph glyph-name="uniE111" unicode="&#xe111;" horiz-adv-x="397" 
d="M370 0h-357l-49 67v577l29 41h24v-636h353v-49z" />
    <glyph glyph-name="uniE112" unicode="&#xe112;" horiz-adv-x="672" 
d="M29 579v-579h-16l-34 46v639h60l262 -604l261 604h60v-685h-51v581l-256 -581h-30z" />
    <glyph glyph-name="uniE113" unicode="&#xe113;" horiz-adv-x="829" 
d="M31 598v-598h-18l-34 46v639h58l336 -578v578h53l403 -685h-58l-348 594v-594h-47z" />
    <glyph glyph-name="uniE114" unicode="&#xe114;" horiz-adv-x="538" 
d="M30 602v-602h-17l-34 46v639h56l394 -602v602h51v-685h-56z" />
    <glyph glyph-name="uniE115" unicode="&#xe115;" horiz-adv-x="494" 
d="M32 0h-19l-34 46v639h236q103 0 169 -64t66 -158q0 -98 -66.5 -160.5t-179.5 -62.5h-172v-240zM200 636h-168v-347h178q86 0 136.5 49.5t50.5 125.5q0 74 -52 123t-145 49z" />
    <glyph glyph-name="uniE116" unicode="&#xe116;" horiz-adv-x="449" 
d="M192 636h-160v-316h156q94 0 144 44t50 112q0 70 -49.5 115t-140.5 45zM32 271v-271h-19l-34 46v639h225q106 0 168.5 -58.5t62.5 -149.5q0 -88 -63 -147t-162 -59h-101l338 -271h-79z" />
    <glyph glyph-name="uniE117" unicode="&#xe117;" horiz-adv-x="449" 
d="M211 0h-53v636h-198l35 49h439v-49h-223v-636z" />
    <glyph glyph-name="uniE118" unicode="&#xe118;" horiz-adv-x="483" 
d="M271 231l-249 382v-382h249zM421 0l-118 181h-281v-181h-52v616l45 69h19l449 -685h-62z" />
    <glyph glyph-name="uniE119" unicode="&#xe119;" horiz-adv-x="479" 
d="M257 0h-287v616l45 69h191q94 0 148 -50.5t54 -126.5q0 -46 -24.5 -87.5t-67.5 -62.5q66 -11 102.5 -55.5t36.5 -105.5q0 -85 -56 -141t-142 -56zM209 636h-186v-262h182q73 0 111.5 37t38.5 94q0 56 -38.5 93.5t-107.5 37.5zM254 325h-231v-276h227q75 0 113.5 41
t38.5 103q0 56 -38.5 94t-109.5 38z" />
    <glyph glyph-name="uniE11A" unicode="&#xe11a;" horiz-adv-x="558" 
d="M181 0h-211v616l45 69h166q145 0 246 -97.5t101 -244.5t-101 -245t-246 -98zM179 636h-156v-587h156q125 0 210.5 84t85.5 210t-85.5 209.5t-210.5 83.5z" />
    <glyph glyph-name="uniE11B" unicode="&#xe11b;" horiz-adv-x="418" 
d="M401 0h-431v616l45 69h366v-49h-358v-265h333v-49h-333v-273h378v-49z" />
    <glyph glyph-name="uniE11C" unicode="&#xe11c;" horiz-adv-x="403" 
d="M23 0h-53v616l45 69h361v-49h-353v-277h328v-49h-328v-310z" />
    <glyph glyph-name="uniE11D" unicode="&#xe11d;" horiz-adv-x="537" 
d="M33 317v-317h-53v631l35 54h18v-319h401v319h53v-685h-53v317h-401z" />
    <glyph glyph-name="uniE11E" unicode="&#xe11e;" horiz-adv-x="83" 
d="M33 685v-685h-53v631l35 54h18z" />
    <glyph glyph-name="uniE11F" unicode="&#xe11f;" horiz-adv-x="457" 
d="M33 0h-53v631l35 54h18v-333l337 333h67l-347 -341l360 -344h-74l-343 328v-328z" />
    <glyph glyph-name="uniE120" unicode="&#xe120;" horiz-adv-x="413" 
d="M-20 0v631l35 54h18v-636h353v-49h-406z" />
    <glyph glyph-name="uniE121" unicode="&#xe121;" horiz-adv-x="663" 
d="M20 579v-579h-50v616l45 69h15l262 -604l261 604h60v-685h-51v581l-256 -581h-30z" />
    <glyph glyph-name="uniE122" unicode="&#xe122;" horiz-adv-x="820" 
d="M367 0l-345 598v-598h-52v616l45 69h13l336 -578v578h53l403 -685h-58l-348 594v-594h-47z" />
    <glyph glyph-name="uniE123" unicode="&#xe123;" horiz-adv-x="529" 
d="M21 602v-602h-51v616l45 69h11l394 -602v602h51v-685h-56z" />
    <glyph glyph-name="uniE124" unicode="&#xe124;" horiz-adv-x="485" 
d="M23 0h-53v616l45 69h191q103 0 169 -64t66 -158q0 -98 -66.5 -160.5t-179.5 -62.5h-172v-240zM191 636h-168v-347h178q86 0 136.5 49.5t50.5 125.5q0 74 -52 123t-145 49z" />
    <glyph glyph-name="uniE125" unicode="&#xe125;" horiz-adv-x="440" 
d="M183 636h-160v-316h156q94 0 144 44t50 112q0 70 -49.5 115t-140.5 45zM23 271v-271h-53v616l45 69h180q106 0 168.5 -58.5t62.5 -149.5q0 -88 -63 -147t-162 -59h-101l338 -271h-79z" />
    <glyph glyph-name="uniE126" unicode="&#xe126;" horiz-adv-x="441" 
d="M203 636v-636h-53v636h-169l32 49h413v-49h-223z" />
    <glyph glyph-name="uniE127" unicode="&#xe127;" horiz-adv-x="525" 
d="M13 685h473v-48l-458 -588h482v-49h-549v48l459 588h-439z" />
    <glyph glyph-name="uniE128" unicode="&#xe128;" horiz-adv-x="458" 
d="M50 0v685h236q94 0 148 -50.5t54 -126.5q0 -46 -24.5 -87.5t-67.5 -62.5q66 -11 102.5 -55.5t36.5 -105.5q0 -18 -1 -25l-98 -148q-46 -24 -99 -24h-287zM289 636h-186v-262h182q73 0 111.5 37t38.5 94q0 56 -38.5 93.5t-107.5 37.5zM334 325h-231v-276h227
q75 0 113.5 41t38.5 103q0 56 -38.5 94t-109.5 38z" />
    <glyph glyph-name="uniE129" unicode="&#xe129;" horiz-adv-x="462" 
d="M597 259l-130 -195q-92 -64 -206 -64h-211v685h211q145 0 246 -97.5t101 -244.5q0 -41 -11 -84zM259 636h-156v-587h156q125 0 210.5 84t85.5 210t-85.5 209.5t-210.5 83.5z" />
    <glyph glyph-name="uniE12A" unicode="&#xe12a;" horiz-adv-x="442" 
d="M404 0h-354v685h411v-49h-358v-265h333v-49h-333v-273h333z" />
    <glyph glyph-name="uniE12B" unicode="&#xe12b;" horiz-adv-x="502" 
d="M103 317v-317h-53v685h53v-319h401v319h53v-543l-53 -82v257h-401z" />
    <glyph glyph-name="uniE12C" unicode="&#xe12c;" horiz-adv-x="103" 
d="M70 0h-20v685h53v-637z" />
    <glyph glyph-name="uniE12D" unicode="&#xe12d;" horiz-adv-x="638" 
d="M100 579v-579h-50v685h60l262 -604l261 604h60v-543l-51 -79v518l-256 -581h-30z" />
    <glyph glyph-name="uniE12E" unicode="&#xe12e;" horiz-adv-x="540" 
d="M101 602v-602h-51v685h56l394 -602v602h51v-616l-47 -69h-9z" />
    <glyph glyph-name="uniE12F" unicode="&#xe12f;" horiz-adv-x="717" 
d="M719 597l-344 -597h-47v597l-329 -564l-39 32l365 620h55v-576l335 576h57v-543l-53 -82v537z" />
    <glyph glyph-name="uniE130" unicode="&#xe130;" horiz-adv-x="797" 
d="M408 597l-348 -597h-58l403 685h55v-576l335 576h57v-543l-53 -82v537l-344 -597h-47v597z" />
    <glyph glyph-name="uniE131" unicode="&#xe131;" horiz-adv-x="513" 
d="M460 231v383l-249 -383h249zM0 0l449 685h64v-637l-33 -48h-20v181h-281l-118 -181h-61z" />
    <glyph glyph-name="uniE132" unicode="&#xe132;" horiz-adv-x="318" 
d="M285 0h-20v304l-245 381h63l209 -332l209 332h62l-245 -377v-260z" />
    <glyph glyph-name="uniE133" unicode="&#xe133;" horiz-adv-x="292" 
d="M291 636v-588l-33 -48h-20v636h-223v49h499v-49h-223z" />
    <glyph glyph-name="uniE134" unicode="&#xe134;" horiz-adv-x="486" 
d="M450 0h-434v48l459 588h-439v49h505v-48l-458 -588h399z" />
    <glyph glyph-name="uniE135" unicode="&#xe135;" horiz-adv-x="465" 
d="M51 0v685h236q94 0 148 -50.5t54 -126.5q0 -46 -24.5 -87.5t-67.5 -62.5q66 -11 102.5 -55.5t36.5 -105.5q0 -13 -1 -16l-93 -153q-51 -28 -104 -28h-287zM290 636h-186v-262h182q73 0 111.5 37t38.5 94q0 56 -38.5 93.5t-107.5 37.5zM335 325h-231v-276h227
q75 0 113.5 41t38.5 103q0 56 -38.5 94t-109.5 38z" />
    <glyph glyph-name="uniE136" unicode="&#xe136;" horiz-adv-x="477" 
d="M261 0h-211v685h211q145 0 246 -97.5t101 -244.5q0 -34 -8 -72l-118 -195q-97 -76 -221 -76zM259 636h-156v-587h156q125 0 210.5 84t85.5 210t-85.5 209.5t-210.5 83.5z" />
    <glyph glyph-name="uniE137" unicode="&#xe137;" horiz-adv-x="454" 
d="M419 0h-369v685h411v-49h-358v-265h333v-49h-333v-273h346z" />
    <glyph glyph-name="uniE138" unicode="&#xe138;" horiz-adv-x="503" 
d="M103 317v-317h-53v685h53v-319h401v319h53v-528l-53 -92v252h-401z" />
    <glyph glyph-name="uniE139" unicode="&#xe139;" horiz-adv-x="103" 
d="M71 0h-21v685h53v-632z" />
    <glyph glyph-name="uniE13A" unicode="&#xe13a;" horiz-adv-x="538" 
d="M101 602v-602h-51v685h56l394 -602v602h51v-610l-45 -75h-11z" />
    <glyph glyph-name="uniE13B" unicode="&#xe13b;" horiz-adv-x="513" 
d="M460 231v383l-249 -383h249zM460 0v181h-281l-118 -181h-61l449 685h64v-632l-32 -53h-21z" />
    <glyph glyph-name="uniE13C" unicode="&#xe13c;" horiz-adv-x="796" 
d="M406 597l-348 -597h-58l403 685h55v-576l335 576h57v-528l-53 -92v532l-344 -597h-47v597z" />
    <glyph glyph-name="uniE13D" unicode="&#xe13d;" horiz-adv-x="318" 
d="M286 0h-21v304l-245 381h63l209 -332l209 332h62l-245 -377v-255z" />
    <glyph glyph-name="uniE13E" unicode="&#xe13e;" horiz-adv-x="291" 
d="M259 0h-21v636h-223v49h499v-49h-223v-583z" />
    <glyph glyph-name="uniE13F" unicode="&#xe13f;" horiz-adv-x="475" 
d="M337 0h-287v685h236q94 0 148 -50.5t54 -126.5q0 -46 -24.5 -87.5t-67.5 -62.5q63 -10 100 -53.5t39 -101.5l-62 -151q-54 -52 -136 -52zM289 636h-186v-262h182q73 0 111.5 37t38.5 94q0 56 -38.5 93.5t-107.5 37.5zM334 325h-231v-276h227q75 0 113.5 41t38.5 103
q0 56 -38.5 94t-109.5 38z" />
    <glyph glyph-name="uniE140" unicode="&#xe140;" horiz-adv-x="502" 
d="M261 0h-211v685h211q145 0 246 -97.5t101 -244.5v-18l-82 -207q-48 -56 -117 -87t-148 -31zM259 636h-156v-587h156q125 0 210.5 84t85.5 210t-85.5 209.5t-210.5 83.5z" />
    <glyph glyph-name="uniE141" unicode="&#xe141;" horiz-adv-x="612" 
d="M624 89q-94 -97 -240 -97q-148 0 -251 100t-103 251q0 150 103 250t251 100q200 0 298 -169l-43 -28q-87 146 -255 146q-127 0 -214 -85.5t-87 -213.5t87 -214.5t214 -86.5q168 0 255 145l21 -14z" />
    <glyph glyph-name="uniE142" unicode="&#xe142;" horiz-adv-x="451" 
d="M429 0h-379v685h411v-49h-358v-265h333v-49h-333v-273h345z" />
    <glyph glyph-name="uniE143" unicode="&#xe143;" horiz-adv-x="550" 
d="M529 0h-25v317h-401v-317h-53v685h53v-319h401v319h53v-614z" />
    <glyph glyph-name="uniE144" unicode="&#xe144;" horiz-adv-x="96" 
d="M50 0v685h53v-614l-28 -71h-25z" />
    <glyph glyph-name="uniE145" unicode="&#xe145;" horiz-adv-x="406" 
d="M383 0h-333v685h53v-636h299z" />
    <glyph glyph-name="uniE146" unicode="&#xe146;" horiz-adv-x="686" 
d="M100 579v-579h-50v685h60l262 -604l261 604h60v-614l-28 -71h-23v581l-256 -581h-30z" />
    <glyph glyph-name="uniE147" unicode="&#xe147;" horiz-adv-x="524" 
d="M101 602v-602h-51v685h56l394 -602v602h51v-566l-47 -119h-9z" />
    <glyph glyph-name="uniE148" unicode="&#xe148;" horiz-adv-x="516" 
d="M512 49l-19 -49h-477v48l459 588h-439v49h505v-48l-458 -588h429z" />
    <glyph glyph-name="uniE149" unicode="&#xe149;" horiz-adv-x="563" 
d="M460 231v383l-249 -383h249zM179 181l-118 -181h-61l449 685h64v-685h-53v181h-281z" />
    <glyph glyph-name="uniE14A" unicode="&#xe14a;" horiz-adv-x="262" 
d="M456 0h-406v685h53v-636h289q24 -21 64 -40v-9z" />
    <glyph glyph-name="uniE14B" unicode="&#xe14b;" horiz-adv-x="262" 
d="M456 0h-406v685h53v-636h289q24 -21 64 -40v-9z" />
    <glyph glyph-name="uniE14C" unicode="&#xe14c;" horiz-adv-x="262" 
d="M456 0h-406v685h53v-636h289q24 -21 64 -40v-9z" />
    <glyph glyph-name="uniE14D" unicode="&#xe14d;" horiz-adv-x="262" 
d="M456 0h-406v685h53v-636h289q24 -21 64 -40v-9z" />
    <glyph glyph-name="uniE14E" unicode="&#xe14e;" horiz-adv-x="372" 
d="M456 0h-406v685h53v-636h305q21 -27 48 -41v-8z" />
    <glyph glyph-name="uniE14F" unicode="&#xe14f;" horiz-adv-x="313" 
d="M456 0h-406v685h53v-636h301q21 -24 52 -39v-10z" />
    <glyph glyph-name="uniE150" unicode="&#xe150;" horiz-adv-x="428" 
d="M392 0h-342v685h53v-636h321z" />
    <glyph glyph-name="uniE151" unicode="&#xe151;" horiz-adv-x="424" 
d="M389 0h-339v685h53v-636h315z" />
    <glyph glyph-name="uniE154" unicode="&#xe154;" horiz-adv-x="431" 
d="M481 0h-431v685h345l32 -49h-324v-265h333v-49h-333v-273h378v-49z" />
    <glyph glyph-name="uniE155" unicode="&#xe155;" horiz-adv-x="429" 
d="M103 0h-53v685h344l32 -49h-323v-277h328v-49h-328v-310z" />
    <glyph glyph-name="uniE156" unicode="&#xe156;" horiz-adv-x="502" 
d="M103 317v-317h-53v685h53v-319h401v259l53 -82v-543h-53v317h-401z" />
    <glyph glyph-name="uniE157" unicode="&#xe157;" horiz-adv-x="103" 
d="M70 685l33 -50v-635h-53v685h20z" />
    <glyph glyph-name="uniE158" unicode="&#xe158;" horiz-adv-x="678" 
d="M100 579v-579h-50v685h60l262 -604l261 604h12l48 -72v-613h-51v581l-256 -581h-30z" />
    <glyph glyph-name="uniE159" unicode="&#xe159;" horiz-adv-x="496" 
d="M101 602v-602h-51v685h56l394 -602v539l51 -79v-543h-56z" />
    <glyph glyph-name="uniE15A" unicode="&#xe15a;" horiz-adv-x="460" 
d="M238 0v636h-223v49h409l32 -49h-165v-636h-53z" />
    <glyph glyph-name="uniE15B" unicode="&#xe15b;" horiz-adv-x="850" 
d="M791 0l-335 576v-576h-53l-403 685h58l348 -594v594h47l345 -598v598h19l33 -50v-635h-59z" />
    <glyph glyph-name="uniE15C" unicode="&#xe15c;" horiz-adv-x="513" 
d="M449 0l-449 685h61l400 -613v613h19l33 -50v-635h-64z" />
    <glyph glyph-name="uniE15D" unicode="&#xe15d;" horiz-adv-x="433" 
d="M481 0h-431v685h351l29 -49h-327v-265h333v-49h-333v-273h378v-49z" />
    <glyph glyph-name="uniE15E" unicode="&#xe15e;" horiz-adv-x="428" 
d="M103 0h-53v685h346l29 -49h-322v-277h328v-49h-328v-310z" />
    <glyph glyph-name="uniE15F" unicode="&#xe15f;" horiz-adv-x="503" 
d="M103 317v-317h-53v685h53v-319h401v254l53 -92v-528h-53v317h-401z" />
    <glyph glyph-name="uniE160" unicode="&#xe160;" horiz-adv-x="103" 
d="M50 685h21l32 -53v-632h-53v685z" />
    <glyph glyph-name="uniE161" unicode="&#xe161;" horiz-adv-x="680" 
d="M100 579v-579h-50v685h60l262 -604l261 604h15l45 -75v-610h-51v581l-256 -581h-30z" />
    <glyph glyph-name="uniE162" unicode="&#xe162;" horiz-adv-x="497" 
d="M101 602v-602h-51v685h56l394 -602v534l51 -89v-528h-56z" />
    <glyph glyph-name="uniE163" unicode="&#xe163;" horiz-adv-x="458" 
d="M238 0v636h-223v49h410l30 -49h-164v-636h-53z" />
    <glyph glyph-name="uniE164" unicode="&#xe164;" horiz-adv-x="513" 
d="M449 0l-449 685h61l400 -613v613h20l32 -53v-632h-64z" />
    <glyph glyph-name="uniE165" unicode="&#xe165;" horiz-adv-x="850" 
d="M791 0l-335 576v-576h-53l-403 685h58l348 -594v594h47l345 -598v598h20l32 -53v-632h-59z" />
    <glyph glyph-name="uniE166" unicode="&#xe166;" horiz-adv-x="436" 
d="M481 0h-431v685h359l19 -49h-325v-265h333v-49h-333v-273h378v-49z" />
    <glyph glyph-name="uniE167" unicode="&#xe167;" horiz-adv-x="428" 
d="M103 0h-53v685h353l19 -49h-319v-277h328v-49h-328v-310z" />
    <glyph glyph-name="uniE168" unicode="&#xe168;" horiz-adv-x="550" 
d="M504 366v319h25l28 -71v-614h-53v317h-401v-317h-53v685h53v-319h401z" />
    <glyph glyph-name="uniE169" unicode="&#xe169;" horiz-adv-x="96" 
d="M103 0h-53v685h25l28 -71v-614z" />
    <glyph glyph-name="uniE16A" unicode="&#xe16a;" horiz-adv-x="667" 
d="M100 579v-579h-50v685h60l262 -604l261 604h11l49 -128v-557h-51v581l-256 -581h-30z" />
    <glyph glyph-name="uniE16B" unicode="&#xe16b;" horiz-adv-x="544" 
d="M101 602v-602h-51v685h56l394 -602v602h23l28 -71v-614h-56z" />
    <glyph glyph-name="uniE16C" unicode="&#xe16c;" horiz-adv-x="484" 
d="M291 0h-53v636h-223v49h444l19 -49h-187v-636z" />
    <glyph glyph-name="uniE16D" unicode="&#xe16d;" horiz-adv-x="430" 
d="M481 0h-431v685h367l14 -49h-328v-265h333v-49h-333v-273h378v-49z" />
    <glyph glyph-name="uniE16E" unicode="&#xe16e;" horiz-adv-x="417" 
d="M103 0h-53v685h357l14 -49h-318v-277h328v-49h-328v-310z" />
    <glyph glyph-name="uniE16F" unicode="&#xe16f;" horiz-adv-x="542" 
d="M103 0h-53v685h53v-319h401v319h27l26 -93v-592h-53v317h-401v-317z" />
    <glyph glyph-name="uniE170" unicode="&#xe170;" horiz-adv-x="88" 
d="M103 0h-53v685h27l26 -93v-592z" />
    <glyph glyph-name="uniE171" unicode="&#xe171;" horiz-adv-x="673" 
d="M100 0h-50v685h60l262 -604l261 604h29l31 -110v-575h-51v581l-256 -581h-30l-256 579v-579z" />
    <glyph glyph-name="uniE172" unicode="&#xe172;" horiz-adv-x="536" 
d="M101 0h-51v685h56l394 -602v602h25l26 -93v-592h-56l-394 602v-602z" />
    <glyph glyph-name="uniE173" unicode="&#xe173;" horiz-adv-x="466" 
d="M291 0h-53v636h-223v49h438l14 -49h-176v-636z" />
    <glyph glyph-name="uniE174" unicode="&#xe174;" horiz-adv-x="492" 
d="M460 231v383l-249 -383h249zM179 181l-118 -181h-61l449 685h64v-639l-34 -46h-19v181h-281z" />
    <glyph glyph-name="uniE175" unicode="&#xe175;" horiz-adv-x="499" 
d="M351 231l-249 382v-382h249zM102 181v-181h-52v685h64l411 -628l-32 -45l-110 169h-281z" />
    <glyph glyph-name="uniE176" unicode="&#xe176;" horiz-adv-x="551" 
d="M458 231l-151 385l-152 -385h303zM135 181l-71 -181h-54l271 685h53l247 -622l-37 -51l-66 169h-343z" />
    <glyph glyph-name="uniE177" unicode="&#xe177;" horiz-adv-x="424" 
d="M407 0h-357v685h377l34 -48l-358 -1v-265h333v-49h-333v-273h340z" />
    <glyph glyph-name="uniE178" unicode="&#xe178;" horiz-adv-x="414" 
d="M103 0h-53v685h369l35 -49h-351v-277h328v-49h-328v-310z" />
    <glyph glyph-name="uniE179" unicode="&#xe179;" horiz-adv-x="536" 
d="M103 317v-317h-53v685h53v-319h401v319h53v-639l-34 -46h-19v317h-401z" />
    <glyph glyph-name="uniE17A" unicode="&#xe17a;" horiz-adv-x="82" 
d="M69 0h-19v685h53v-639z" />
    <glyph glyph-name="uniE17B" unicode="&#xe17b;" horiz-adv-x="672" 
d="M100 579v-579h-50v685h60l262 -604l261 604h60v-639l-34 -46h-17v581l-256 -581h-30z" />
    <glyph glyph-name="uniE17C" unicode="&#xe17c;" horiz-adv-x="829" 
d="M406 597l-348 -597h-58l403 685h55v-576l335 576h57v-639l-34 -46h-19v597l-344 -597h-47v597z" />
    <glyph glyph-name="uniE17D" unicode="&#xe17d;" horiz-adv-x="530" 
d="M101 602v-602h-51v685h56l394 -602v602h51v-639l-34 -46h-22z" />
    <glyph glyph-name="uniE17E" unicode="&#xe17e;" horiz-adv-x="456" 
d="M291 0h-53v636h-223v49h446l35 -49h-205v-636z" />
    <glyph glyph-name="uniE17F" unicode="&#xe17f;" horiz-adv-x="483" 
d="M460 231v383l-249 -383h249zM460 0v181h-281l-118 -181h-61l449 685h18l46 -72v-613h-53z" />
    <glyph glyph-name="uniE180" unicode="&#xe180;" horiz-adv-x="431" 
d="M481 0h-431v685h363l32 -49h-342v-265h333v-49h-333v-273h378v-49z" />
    <glyph glyph-name="uniE181" unicode="&#xe181;" horiz-adv-x="428" 
d="M103 0h-53v685h358l32 -49h-337v-277h328v-49h-328v-310z" />
    <glyph glyph-name="uniE182" unicode="&#xe182;" horiz-adv-x="537" 
d="M557 0h-53v317h-401v-317h-53v685h53v-319h401v319h18l35 -54v-631z" />
    <glyph glyph-name="uniE183" unicode="&#xe183;" horiz-adv-x="83" 
d="M103 0h-53v685h18l35 -54v-631z" />
    <glyph glyph-name="uniE184" unicode="&#xe184;" horiz-adv-x="663" 
d="M100 579v-579h-50v685h60l262 -604l261 604h14l46 -72v-613h-51v581l-256 -581h-30z" />
    <glyph glyph-name="uniE185" unicode="&#xe185;" horiz-adv-x="820" 
d="M406 0v597l-348 -597h-58l403 685h55v-576l335 576h11l46 -72v-613h-53v597l-344 -597h-47z" />
    <glyph glyph-name="uniE186" unicode="&#xe186;" horiz-adv-x="531" 
d="M101 0h-51v685h56l394 -602v602h16l35 -54v-631h-56l-394 602v-602z" />
    <glyph glyph-name="uniE187" unicode="&#xe187;" horiz-adv-x="441" 
d="M291 0h-53v636h-223v49h412l32 -49h-168v-636z" />
    <glyph glyph-name="uniE188" unicode="&#xe188;" horiz-adv-x="525" 
d="M260 0h-53v304l-207 322l30 51l204 -324l209 332h62l-245 -377v-308z" />
    <glyph glyph-name="uniE189" unicode="&#xe189;" horiz-adv-x="523" 
d="M258 0h-53v304l-209 324l32 49l204 -324l209 332h62l-245 -377v-308z" />
    <glyph glyph-name="uniE18A" unicode="&#xe18a;" horiz-adv-x="525" 
d="M565 0h-549v48l459 588h-439v49h474l31 -48l-458 -588h482v-49z" />
    <glyph glyph-name="uniE18B" unicode="&#xe18b;" horiz-adv-x="1159" 
d="M597 137q78 84 78 206q0 128 -85.5 213.5t-210.5 85.5t-210.5 -85.5t-85.5 -213.5t85.5 -214.5t210.5 -86.5q75 0 136 32q20 -20 41 -35q-81 -47 -177 -47q-146 0 -247.5 100t-101.5 251q0 150 101.5 250t247.5 100t247.5 -100t101.5 -250q0 -138 -89 -237q-24 14 -42 31
zM484 343q0 -128 85.5 -214.5t210.5 -86.5t210.5 86.5t85.5 214.5t-85.5 213.5t-210.5 85.5q-73 0 -135 -31q-19 19 -42 36q82 46 177 46q146 0 247.5 -100t101.5 -250q0 -151 -101.5 -251t-247.5 -100t-247.5 100t-101.5 251q0 138 88 236q27 -17 42 -31q-77 -83 -77 -205z
" />
    <glyph glyph-name="uniE18C" unicode="&#xe18c;" horiz-adv-x="1108" 
d="M782 642q-75 0 -137 -31q-19 19 -42 36q82 46 179 46q101 0 177 -44.5t123 -124.5l-43 -28q-87 146 -257 146zM30 343q0 150 101.5 250t247.5 100t247.5 -100t101.5 -250q0 -141 -87 -237q-24 14 -42 31q76 82 76 206q0 128 -85.5 213.5t-210.5 85.5t-210.5 -85.5
t-85.5 -213.5t85.5 -214.5t210.5 -86.5q77 0 138 32q20 -20 41 -35q-81 -47 -179 -47q-146 0 -247.5 100t-101.5 251zM431 343q0 138 88 236q27 -17 42 -31q-77 -83 -77 -205q0 -128 86 -214.5t212 -86.5q170 0 257 145l41 -27q-99 -168 -298 -168q-147 0 -249 100t-102 251
z" />
    <glyph glyph-name="uniE18D" unicode="&#xe18d;" horiz-adv-x="1137" 
d="M1015 541q-85 102 -233 102q-71 0 -137 -32q-19 19 -42 36q86 47 179 47q174 0 272 -120zM379 42q75 0 136 32q20 -20 41 -35q-81 -47 -177 -47q-146 0 -247.5 100t-101.5 251q0 150 101.5 250t247.5 100t247.5 -100t101.5 -250q0 -138 -89 -237q-24 14 -42 31
q78 84 78 206q0 128 -85.5 213.5t-210.5 85.5t-210.5 -85.5t-85.5 -213.5t85.5 -214.5t210.5 -86.5zM1108 313q0 -128 -91 -224.5t-234 -96.5q-147 0 -249.5 100.5t-102.5 250.5q0 138 88 236q27 -17 42 -31q-77 -83 -77 -205q0 -128 86.5 -214.5t212.5 -86.5
q114 0 190.5 73.5t82.5 179.5h-260v49h312v-31z" />
    <glyph glyph-name="uniE18E" unicode="&#xe18e;" horiz-adv-x="1159" 
d="M379 42q75 0 136 32q20 -20 41 -35q-81 -47 -177 -47q-146 0 -247.5 100t-101.5 251q0 150 101.5 250t247.5 100t247.5 -100t101.5 -250q0 -138 -89 -237q-24 14 -42 31q78 84 78 206q0 128 -85.5 213.5t-210.5 85.5t-210.5 -85.5t-85.5 -213.5t85.5 -214.5t210.5 -86.5z
M1060 -17l-75 74q-90 -65 -205 -65q-146 0 -247.5 100t-101.5 251q0 138 88 236q27 -17 42 -31q-77 -83 -77 -205q0 -128 85.5 -214.5t210.5 -86.5q93 0 168 51l-168 166l54 17l153 -151q89 87 89 218q0 128 -85.5 213.5t-210.5 85.5q-73 0 -135 -31q-19 19 -42 36
q82 46 177 46q146 0 247.5 -100t101.5 -250q0 -154 -105 -254l90 -89z" />
    <glyph glyph-name="uniE18F" unicode="&#xe18f;" horiz-adv-x="488" 
d="M206 636h-160v-316h156q94 0 144 44t50 112q0 70 -49.5 115t-140.5 45zM21 0l-28 71v614h225q106 0 168.5 -58.5t62.5 -149.5q0 -88 -63 -147t-162 -59h-97l384 -271h-82l-382 271l-1 -271h-25z" />
    <glyph glyph-name="uniE190" unicode="&#xe190;" horiz-adv-x="514" 
d="M232 636h-160v-316h156q94 0 144 44t50 112q0 70 -49.5 115t-140.5 45zM72 271v-271h-6l-47 35v650h225q106 0 168.5 -58.5t62.5 -149.5q0 -88 -63 -147t-162 -59h-97l384 -271h-82z" />
    <glyph glyph-name="uniE191" unicode="&#xe191;" horiz-adv-x="475" 
d="M189 320q94 0 144 44t50 112q0 70 -49.5 115t-140.5 45h-160v-316h156zM33 271v-271h-53v575l31 110h194q106 0 168.5 -58.5t62.5 -149.5q0 -88 -63 -147t-162 -59h-97l384 -271h-82z" />
    <glyph glyph-name="uniE192" unicode="&#xe192;" horiz-adv-x="480" 
d="M198 636h-160v-316h156q94 0 144 44t50 112q0 70 -49.5 115t-140.5 45zM-15 612l48 73h177q106 0 168.5 -58.5t62.5 -149.5q0 -88 -63 -147t-162 -59h-97l384 -271h-82l-383 271v-271h-53v612z" />
    <glyph glyph-name="uniE193" unicode="&#xe193;" horiz-adv-x="482" 
d="M196 320q94 0 144 44t50 112q0 70 -49.5 115t-140.5 45h-160v-316h156zM32 685h180q106 0 168.5 -58.5t62.5 -149.5q0 -88 -63 -147t-162 -59h-97l384 -271h-82l-383 271v-271h-53v610z" />
    <glyph glyph-name="uniE194" unicode="&#xe194;" horiz-adv-x="489" 
d="M397 476q0 70 -49.5 115t-140.5 45h-160v-316h156q94 0 144 44t50 112zM48 271l-1 -271h-19l-34 34v651h225q106 0 168.5 -58.5t62.5 -149.5q0 -88 -63 -147t-162 -59h-97l384 -271h-82z" />
    <glyph glyph-name="uniE195" unicode="&#xe195;" horiz-adv-x="488" 
d="M202 320q94 0 144 44t50 112q0 70 -49.5 115t-140.5 45h-160v-316h156zM46 271v-271h-53v614l28 71h197q106 0 168.5 -58.5t62.5 -149.5q0 -88 -63 -147t-162 -59h-97l384 -271h-82z" />
    <glyph glyph-name="uniE196" unicode="&#xe196;" horiz-adv-x="441" 
d="M464 0h-82l-383 271v-206l-53 92v528h225q106 0 168.5 -58.5t62.5 -149.5q0 -88 -63 -147t-162 -59h-97zM159 636h-160v-316h156q94 0 144 44t50 112q0 70 -49.5 115t-140.5 45z" />
    <glyph glyph-name="uniE197" unicode="&#xe197;" horiz-adv-x="440" 
d="M463 0h-82l-383 271v-211l-53 82v543h225q106 0 168.5 -58.5t62.5 -149.5q0 -88 -63 -147t-162 -59h-97zM154 320q94 0 144 44t50 112q0 70 -49.5 115t-140.5 45h-160v-316h156z" />
    <glyph glyph-name="uniE198" unicode="&#xe198;" horiz-adv-x="474" 
d="M192 636h-160v-316h156q94 0 144 44t50 112q0 70 -49.5 115t-140.5 45zM32 271v-271h-19l-34 46v639h225q106 0 168.5 -58.5t62.5 -149.5q0 -88 -63 -147t-162 -59h-97l384 -271h-82z" />
    <glyph glyph-name="uniE199" unicode="&#xe199;" horiz-adv-x="465" 
d="M183 636h-160v-316h156q94 0 144 44t50 112q0 70 -49.5 115t-140.5 45zM23 271v-271h-53v616l45 69h180q106 0 168.5 -58.5t62.5 -149.5q0 -88 -63 -147t-162 -59h-97l384 -271h-82z" />
    <glyph glyph-name="uniE19A" unicode="&#xe19a;" horiz-adv-x="1159" 
d="M379 -8q-146 0 -247.5 100t-101.5 251q0 150 101.5 250t247.5 100t247.5 -100t101.5 -250q0 -151 -101.5 -251t-247.5 -100zM379 42q125 0 210.5 86.5t85.5 214.5t-85.5 213.5t-210.5 85.5t-210.5 -85.5t-85.5 -213.5t85.5 -214.5t210.5 -86.5zM520 106q-89 99 -89 237
t88 236q27 -17 42 -31q-77 -83 -77 -205t78 -206q-18 -17 -42 -31zM1060 -17l-75 74q-90 -65 -205 -65q-96 0 -177 47q21 15 41 35q61 -32 136 -32q93 0 168 51l-168 166l54 17l153 -151q89 87 89 218q0 128 -85.5 213.5t-210.5 85.5q-73 0 -135 -31q-19 19 -42 36
q82 46 177 46q146 0 247.5 -100t101.5 -250q0 -154 -105 -254l90 -89z" />
    <glyph glyph-name="uniE19B" unicode="&#xe19b;" horiz-adv-x="474" 
d="M44 0h-23l-28 71v614h56l394 -602v602h16l35 -54v-631h-56l-394 602v-602z" />
    <glyph glyph-name="uniE19C" unicode="&#xe19c;" horiz-adv-x="467" 
d="M44 0h-23l-28 71v614h56l394 -602v602h51v-566l-47 -119h-9l-394 602v-602z" />
    <glyph glyph-name="uniE19D" unicode="&#xe19d;" horiz-adv-x="1108" 
d="M782 642q-75 0 -137 -31q-19 19 -42 36q82 46 179 46q101 0 177 -44.5t123 -124.5l-43 -28q-87 146 -257 146zM379 -8q-146 0 -247.5 100t-101.5 251q0 150 101.5 250t247.5 100t247.5 -100t101.5 -250q0 -151 -101.5 -251t-247.5 -100zM379 42q125 0 210.5 86.5
t85.5 214.5t-85.5 213.5t-210.5 85.5t-210.5 -85.5t-85.5 -213.5t85.5 -214.5t210.5 -86.5zM520 106q-89 99 -89 237t88 236q27 -17 42 -31q-77 -83 -77 -205t78 -206q-18 -17 -42 -31zM782 -8q-98 0 -179 47q21 15 41 35q61 -32 138 -32q170 0 257 145l41 -27
q-99 -168 -298 -168z" />
    <glyph glyph-name="uniE19E" unicode="&#xe19e;" horiz-adv-x="1137" 
d="M1015 541q-85 102 -233 102q-71 0 -137 -32q-19 19 -42 36q86 47 179 47q174 0 272 -120zM379 -8q-146 0 -247.5 100t-101.5 251q0 150 101.5 250t247.5 100t247.5 -100t101.5 -250q0 -151 -101.5 -251t-247.5 -100zM379 42q125 0 210.5 86.5t85.5 214.5t-85.5 213.5
t-210.5 85.5t-210.5 -85.5t-85.5 -213.5t85.5 -214.5t210.5 -86.5zM520 106q-89 99 -89 237t88 236q27 -17 42 -31q-77 -83 -77 -205t78 -206q-18 -17 -42 -31zM783 -8q-97 0 -180 47q21 15 41 35q62 -32 139 -32q114 0 190.5 73.5t82.5 179.5h-260v49h312v-31
q0 -128 -91 -224.5t-234 -96.5z" />
    <glyph glyph-name="uniE19F" unicode="&#xe19f;" horiz-adv-x="1159" 
d="M379 -8q-146 0 -247.5 100t-101.5 251q0 150 101.5 250t247.5 100t247.5 -100t101.5 -250q0 -151 -101.5 -251t-247.5 -100zM379 42q125 0 210.5 86.5t85.5 214.5t-85.5 213.5t-210.5 85.5t-210.5 -85.5t-85.5 -213.5t85.5 -214.5t210.5 -86.5zM520 106q-89 99 -89 237
t88 236q27 -17 42 -31q-77 -83 -77 -205t78 -206q-18 -17 -42 -31zM780 -8q-96 0 -177 47q21 15 41 35q61 -32 136 -32q125 0 210.5 86.5t85.5 214.5t-85.5 213.5t-210.5 85.5q-73 0 -135 -31q-19 19 -42 36q82 46 177 46q146 0 247.5 -100t101.5 -250q0 -151 -101.5 -251
t-247.5 -100z" />
    <glyph glyph-name="uniE1A0" unicode="&#xe1a0;" horiz-adv-x="655" 
d="M662 685v-614l-28 -71h-23v581l-256 -581h-30l-256 579v-579h-3l-47 35v650h60l262 -604l261 604h60z" />
    <glyph glyph-name="uniE1A1" unicode="&#xe1a1;" horiz-adv-x="817" 
d="M373 576v-576h-53l-365 620l36 38l332 -567v594h47l345 -598v598h52v-685h-59z" />
    <glyph glyph-name="uniF8FF" unicode="&#xf8ff;" horiz-adv-x="1105" 
d="M859 168v15h45v-182h-45v12q-24 -16 -53 -16q-39 0 -66.5 28t-27.5 66q0 39 27.5 66t66.5 27q31 0 53 -16zM808 40q21 0 36 15t15 36t-15 36.5t-36 15.5q-22 0 -37 -15.5t-15 -36.5t15 -36t37 -15zM168 168v15h44v-182h-44v12q-24 -16 -54 -16q-39 0 -66.5 28t-27.5 66
q0 39 27.5 66t66.5 27q31 0 54 -16zM63 91q0 -21 15.5 -36t36.5 -15q22 0 37.5 15t15.5 36t-15.5 36.5t-37.5 15.5q-21 0 -36.5 -15.5t-15.5 -36.5zM1038 108q47 -11 47 -49q0 -62 -82 -62q-37 0 -58.5 17t-23.5 45h47q0 -11 9 -19.5t29 -9.5q14 0 22 7t8 14q0 2 -1 4
t-1.5 3.5t-2.5 2.5t-3.5 2t-4 2t-4 1.5t-5 1t-5.5 1t-5.5 1t-5.5 0.5q-30 5 -48 13q-25 12 -25 43q0 25 20.5 41.5t54.5 16.5t54.5 -16t22.5 -43h-45q-1 9 -9 17t-22 8q-30 0 -30 -16q0 -9 9 -13t29.5 -7.5t28.5 -5.5zM928 244h-210l-219 380l157 91zM442 1v182h45v-182h-45
zM653 168v76h44v-243h-44v12q-24 -16 -54 -16q-39 0 -66.5 28t-27.5 66q0 39 27.5 66t66.5 27q31 0 54 -16zM600 40q22 0 37.5 15t15.5 36t-15.5 36.5t-37.5 15.5q-21 0 -36.5 -15.5t-15.5 -36.5t15.5 -36t36.5 -15zM318 459l158 90l177 -305h-166v-45h-45v45zM135 297
l157 91l83 -144h-210zM375 168v76h45v-243h-45v12q-26 -16 -53 -16q-39 0 -67 28t-28 66q0 39 28 66t67 27q30 0 53 -16zM323 40q21 0 36.5 15t15.5 36t-15.5 36.5t-36.5 15.5q-22 0 -37.5 -15.5t-15.5 -36.5t15.5 -36t37.5 -15z" />
    <glyph glyph-name="uni00200326" horiz-adv-x="396" 
d="M223 -117l-19 -76h-27l17 72h-21v58h50v-54z" />
    <glyph glyph-name="parenleft.cap" horiz-adv-x="233" 
d="M163 694l35 -25q-125 -153 -125 -364q0 -210 125 -364l-35 -25q-138 170 -138 389t138 389z" />
    <glyph glyph-name="parenright.cap" horiz-adv-x="233" 
d="M70 -84l-35 25q125 153 125 364q0 210 -125 364l35 25q138 -170 138 -389t-138 -389z" />
    <glyph glyph-name="bracketleft.cap" horiz-adv-x="224" 
d="M204 639h-111v-638h111v-46h-159v730h159v-46z" />
    <glyph glyph-name="bracketright.cap" horiz-adv-x="224" 
d="M131 639h-111v46h159v-730h-159v46h111v638z" />
    <glyph glyph-name="braceleft.cap" horiz-adv-x="230" 
d="M114 318q37 -26 37 -70q0 -33 -28 -89.5t-28 -92.5q0 -74 85 -74h30v-43h-30q-63 0 -99 32t-36 87q0 41 31 99.5t31 84.5q0 46 -56 47h-21v37h21q56 0 56 47q0 25 -31 84t-31 100q0 54 36.5 86.5t98.5 32.5h30v-43h-30q-85 0 -85 -74q0 -37 28 -93t28 -89q0 -48 -37 -69z
" />
    <glyph glyph-name="braceright.cap" horiz-adv-x="230" 
d="M116 317q-37 26 -37 70q0 33 28 89.5t28 92.5q0 74 -85 74h-30v43h30q63 0 99 -32t36 -87q0 -41 -31 -100t-31 -84q0 -46 56 -47h21v-37h-21q-56 0 -56 -47q0 -25 31 -84t31 -100q0 -54 -36.5 -86.5t-98.5 -32.5h-30v43h30q85 0 85 74q0 37 -28 93t-28 89q0 48 37 69z
" />
    <glyph glyph-name="at.cap" horiz-adv-x="757" 
d="M382 -10q-146 0 -249 101t-103 242q0 153 101 255.5t258 102.5q83 0 149 -28t106.5 -75t62 -104t21.5 -118q0 -96 -39 -151.5t-103 -55.5q-27 0 -49.5 15t-29.5 40q-49 -68 -142 -68q-80 0 -133 52.5t-53 133.5q0 80 53 133t133 53q46 0 85 -20t59 -51v64h45v-271
q0 -19 10.5 -30.5t28.5 -11.5q41 0 67 44t26 123q0 52 -18.5 101.5t-53.5 92t-93.5 68t-131.5 25.5q-138 0 -227.5 -92t-89.5 -227q0 -126 90 -215t221 -89q112 0 192 59l22 -33q-86 -65 -215 -65zM509 332q0 59 -42 100.5t-101 41.5q-61 0 -100.5 -40t-39.5 -102
t39.5 -102.5t100.5 -40.5q59 0 101 41.5t42 101.5z" />
    </font>
</defs>
</svg>
